<?xml version="1.0" encoding="utf-8"?>
<!-- Generator: Adobe Illustrator 27.5.0, SVG Export Plug-In . SVG Version: 6.00 Build 0)  -->
<svg version="1.1" xmlns="http://www.w3.org/2000/svg" xmlns:xlink="http://www.w3.org/1999/xlink" x="0px" y="0px"
	 viewBox="0 0 500 500" style="enable-background:new 0 0 500 500;" xml:space="preserve">
<g id="Background_complete">
	<path style="fill:#F0F0F0;" d="M303.991,103.129c-2.281,3.474-3.814,7.289-4.632,11.224l-6.268,0.59l0,12.138l6.269,0.591
		c0.816,3.934,2.351,7.75,4.632,11.224l-4.003,4.836l8.583,8.583l4.835-4.003c3.474,2.28,7.289,3.815,11.224,4.632l0.59,6.268
		l12.138-0.001l0.591-6.267c3.935-0.817,7.75-2.352,11.224-4.632l4.836,4.003l8.583-8.583l-4.003-4.835
		c2.28-3.474,3.814-7.289,4.631-11.224l6.267-0.591l0.001-12.138l-6.268-0.591c-0.817-3.934-2.352-7.75-4.632-11.223l4.003-4.835
		l-8.583-8.583l-4.835,4.003c-3.474-2.281-7.29-3.816-11.224-4.632l-0.591-6.268l-12.138,0.001l-0.59,6.268
		c-3.935,0.817-7.75,2.351-11.223,4.632l-4.836-4.003l-8.583,8.583L303.991,103.129z M345.226,107.076
		c7.696,7.696,7.697,20.176,0,27.873c-7.698,7.697-20.177,7.696-27.873,0c-7.697-7.697-7.697-20.175,0-27.873
		C325.05,99.379,337.528,99.379,345.226,107.076z"/>
	<g>
		<g>
			<path style="fill:#E6E6E6;" d="M269.881,109.688h-85.709c-2.726,0-4.936-2.21-4.936-4.936V39.167c0-2.726,2.21-4.936,4.936-4.936
				h85.709c2.726,0,4.936,2.21,4.936,4.936v65.586C274.817,107.479,272.607,109.688,269.881,109.688z"/>
			<path style="fill:#E0E0E0;" d="M274.817,47.389h-95.581v-8.531c0-2.555,2.072-4.627,4.627-4.627h86.409
				c2.51,0,4.546,2.035,4.546,4.546V47.389z"/>
		</g>
		<g>
			<path style="opacity:0.5;fill:#FAFAFA;" d="M269.749,41.769c0,1.586-1.286,2.872-2.872,2.872c-1.586,0-2.872-1.286-2.872-2.872
				s1.286-2.872,2.872-2.872C268.463,38.896,269.749,40.182,269.749,41.769z"/>
			<path style="opacity:0.5;fill:#FAFAFA;" d="M261.586,41.769c0,1.586-1.286,2.872-2.872,2.872c-1.586,0-2.872-1.286-2.872-2.872
				s1.286-2.872,2.872-2.872C260.3,38.896,261.586,40.182,261.586,41.769z"/>
			<circle style="opacity:0.5;fill:#FAFAFA;" cx="250.55" cy="41.769" r="2.872"/>
		</g>
		<rect x="201.176" y="58.388" style="opacity:0.6;fill:#FFFFFF;" width="51.139" height="2.678"/>
		<rect x="201.973" y="64.183" style="fill:#E0E0E0;" width="36.592" height="2.678"/>
		<rect x="256.842" y="58.388" style="fill:#F0F0F0;" width="9.345" height="2.678"/>
		<rect x="187.565" y="58.388" style="fill:#F0F0F0;" width="10.06" height="2.678"/>
		<rect x="201.176" y="70.62" style="fill:#F0F0F0;" width="51.139" height="2.678"/>
		<rect x="256.842" y="70.62" style="opacity:0.6;fill:#FFFFFF;" width="9.345" height="2.678"/>
		<rect x="187.565" y="70.62" style="fill:#F0F0F0;" width="10.06" height="2.678"/>
		<rect x="201.176" y="96.121" style="opacity:0.6;fill:#FFFFFF;" width="51.139" height="2.678"/>
		<rect x="256.842" y="96.121" style="opacity:0.6;fill:#FFFFFF;" width="9.345" height="2.678"/>
		<rect x="201.176" y="77.069" style="fill:#F0F0F0;" width="51.139" height="2.678"/>
		<rect x="256.842" y="77.069" style="fill:#E0E0E0;" width="9.345" height="2.678"/>
		<rect x="187.565" y="77.069" style="fill:#E0E0E0;" width="10.06" height="2.678"/>
		<rect x="242.57" y="64.288" style="fill:#F0F0F0;" width="24.307" height="2.678"/>
		<rect x="201.176" y="82.693" style="opacity:0.6;fill:#FFFFFF;" width="36.592" height="2.678"/>
		<rect x="241.773" y="82.798" style="fill:#F0F0F0;" width="24.307" height="2.678"/>
		<rect x="201.176" y="88.516" style="fill:#E0E0E0;" width="18.296" height="2.678"/>
	</g>
	<g>
		<g>
			<path style="fill:#E0E0E0;" d="M400.302,87.264l-10.832,5.059l10.832,5.059v4.079l-14.474-7.02v-4.236l14.474-7.02V87.264z"/>
			<path style="fill:#E0E0E0;" d="M433.267,90.205v4.236l-14.474,7.02v-4.079l10.831-5.059l-10.831-5.059v-4.079L433.267,90.205z"/>
		</g>
		<g>
			<polygon style="fill:#E0E0E0;" points="412.079,80.345 405.021,104.738 408.55,104.738 415.608,80.345 			"/>
		</g>
	</g>
	<path style="fill:#E0E0E0;" d="M37.356,217.844c-1.332,2.029-2.228,4.257-2.705,6.555l-3.661,0.345l0,7.089l3.661,0.345
		c0.477,2.298,1.373,4.526,2.705,6.555l-2.338,2.824l5.013,5.013l2.824-2.338c2.029,1.332,4.257,2.228,6.555,2.705l0.345,3.661
		l7.089,0l0.345-3.66c2.298-0.477,4.527-1.374,6.556-2.705l2.824,2.338l5.013-5.013l-2.338-2.824
		c1.332-2.029,2.228-4.257,2.705-6.555l3.66-0.345l0-7.089l-3.661-0.345c-0.477-2.298-1.373-4.526-2.705-6.555l2.338-2.824
		l-5.013-5.013l-2.824,2.338c-2.029-1.332-4.258-2.229-6.555-2.706l-0.345-3.661l-7.089,0l-0.345,3.661
		c-2.298,0.477-4.526,1.373-6.555,2.705l-2.824-2.338l-5.013,5.013L37.356,217.844z M61.439,220.149
		c4.495,4.495,4.495,11.784,0,16.279c-4.496,4.496-11.785,4.495-16.279,0c-4.496-4.496-4.495-11.784,0-16.279
		C49.656,215.654,56.944,215.653,61.439,220.149z"/>
	<path style="fill:#E0E0E0;" d="M439.11,135.318c-1.106,1.684-1.85,3.534-2.246,5.443l-3.039,0.286l0,5.886l3.04,0.286
		c0.396,1.908,1.14,3.758,2.246,5.443l-1.941,2.345l4.162,4.162l2.345-1.941c1.685,1.106,3.535,1.85,5.443,2.246l0.286,3.04l5.886,0
		l0.286-3.039c1.908-0.396,3.758-1.14,5.443-2.246l2.345,1.941l4.162-4.162l-1.941-2.345c1.106-1.685,1.85-3.535,2.246-5.443
		l3.039-0.286l0-5.886l-3.039-0.286c-0.396-1.908-1.14-3.758-2.246-5.442l1.941-2.345l-4.162-4.162l-2.345,1.941
		c-1.685-1.106-3.535-1.85-5.442-2.246l-0.286-3.039l-5.886,0l-0.286,3.039c-1.908,0.396-3.758,1.14-5.442,2.246l-2.345-1.941
		l-4.162,4.162L439.11,135.318z M459.105,137.232c3.732,3.732,3.732,9.784,0,13.516c-3.733,3.732-9.784,3.732-13.516,0
		c-3.732-3.732-3.732-9.783,0-13.516C449.322,133.5,455.373,133.499,459.105,137.232z"/>
	<g>
		<rect x="435.758" y="426.472" style="fill:#EBEBEB;" width="34.848" height="0.263"/>
		<rect x="336.596" y="429.327" style="fill:#EBEBEB;" width="9.146" height="0.263"/>
		<rect x="414.513" y="416.702" style="fill:#EBEBEB;" width="20.192" height="0.263"/>
		<rect x="52.459" y="418.47" style="fill:#EBEBEB;" width="45.444" height="0.263"/>
		<rect x="107.27" y="418.47" style="fill:#EBEBEB;" width="6.663" height="0.263"/>
		<rect x="135.587" y="422.912" style="fill:#EBEBEB;" width="98.556" height="0.263"/>
	</g>
	<g>
		<g>
			<g>
				<g>
					<path style="fill:#E0E0E0;" d="M443.92,349.145H263.174c-3.232,0-5.862-2.63-5.862-5.862V80.009
						c0-3.232,2.63-5.862,5.862-5.862H443.92c3.232,0,5.862,2.629,5.862,5.862v263.273
						C449.783,346.515,447.153,349.145,443.92,349.145z M263.174,74.397c-3.095,0-5.612,2.518-5.612,5.612v263.273
						c0,3.095,2.518,5.612,5.612,5.612H443.92c3.095,0,5.612-2.518,5.612-5.612V80.009c0-3.094-2.518-5.612-5.612-5.612H263.174z"/>
				</g>
			</g>
			<g>
				<g>
					<path style="fill:#E0E0E0;" d="M235.493,349.145H54.746c-3.232,0-5.862-2.63-5.862-5.862V80.009
						c0-3.232,2.629-5.862,5.862-5.862h180.747c3.232,0,5.862,2.629,5.862,5.862v263.273
						C241.355,346.515,238.725,349.145,235.493,349.145z M54.746,74.397c-3.094,0-5.612,2.518-5.612,5.612v263.273
						c0,3.095,2.518,5.612,5.612,5.612h180.747c3.095,0,5.612-2.518,5.612-5.612V80.009c0-3.094-2.518-5.612-5.612-5.612H54.746z"/>
				</g>
			</g>
		</g>
		<g>
			<g>
				<rect x="0" y="410.214" style="fill:#E0E0E0;" width="500" height="0.25"/>
			</g>
		</g>
	</g>
</g>
<g id="Background_simple" style="display:none;">
	<g style="display:inline;">
		<path style="fill:#407BFF;" d="M411.135,148.098c-0.236-18.057-1.989-36.444-9.077-53.053
			c-7.089-16.609-20.191-31.362-37.373-36.921c-15.77-5.102-33.257-1.996-48.348,4.86c-26.98,12.257-47.34,35.402-65.1,59.123
			c-9.3,12.422-18.206,25.269-27.8,37.471c-15.189,19.319-37.032,32.285-61.271,36.336l-70.395,11.766
			c-18.456,3.315-40.748,8.421-46.724,19.612c-5.977,11.192-4.261,25.301,1.651,36.527c5.913,11.226,15.494,20.047,25.376,28.005
			c46.519,37.465,103.183,60.584,161.065,75.326c24.173,6.157,49.873,10.906,73.807,3.876c34.904-10.251,58.188-43.126,73.294-76.22
			C401.16,248.973,411.795,198.478,411.135,148.098z"/>
	</g>
	<g style="display:inline;opacity:0.9;">
		<path style="fill:#FFFFFF;" d="M411.135,148.098c-0.236-18.057-1.989-36.444-9.077-53.053
			c-7.089-16.609-20.191-31.362-37.373-36.921c-15.77-5.102-33.257-1.996-48.348,4.86c-26.98,12.257-47.34,35.402-65.1,59.123
			c-9.3,12.422-18.206,25.269-27.8,37.471c-15.189,19.319-37.032,32.285-61.271,36.336l-70.395,11.766
			c-18.456,3.315-40.748,8.421-46.724,19.612c-5.977,11.192-4.261,25.301,1.651,36.527c5.913,11.226,15.494,20.047,25.376,28.005
			c46.519,37.465,103.183,60.584,161.065,75.326c24.173,6.157,49.873,10.906,73.807,3.876c34.904-10.251,58.188-43.126,73.294-76.22
			C401.16,248.973,411.795,198.478,411.135,148.098z"/>
	</g>
</g>
<g id="Shadow">
	<g>
		<g>
			<path style="fill:#F5F5F5;" d="M455.058,447.486c0,3.387-93.517,6.132-208.875,6.132s-208.875-2.746-208.875-6.132
				c0-3.387,93.516-6.132,208.875-6.132S455.058,444.099,455.058,447.486z"/>
		</g>
	</g>
</g>
<g id="Device">
	<g>
		<g>
			<g>
				<path style="fill:#263238;enable-background:new    ;" d="M118.145,353.54H92.724c-4.04,0-7.316-3.275-7.316-7.316V130.118
					c0-5.029,4.077-9.106,9.106-9.106h23.631V353.54z"/>
				<polygon style="fill:#263238;enable-background:new    ;" points="215.617,349.526 205.216,402.816 220.309,402.816 
					232.347,349.973 				"/>
				<rect x="192.527" y="402.185" style="fill:#263238;enable-background:new    ;" width="7.641" height="7.641"/>
				<path style="opacity:0.5;fill:#FFFFFF;" d="M118.145,353.54H92.724c-4.04,0-7.316-3.275-7.316-7.316V130.118
					c0-5.029,4.077-9.106,9.106-9.106h23.631V353.54z"/>
				<polygon style="opacity:0.5;fill:#FFFFFF;" points="215.617,349.526 205.216,402.816 220.309,402.816 232.347,349.973 				"/>
				<rect x="192.527" y="402.185" style="opacity:0.5;fill:#FFFFFF;" width="7.641" height="7.641"/>
			</g>
			<polygon style="fill:#263238;" points="310.378,409.827 213.456,409.827 227.228,329.074 291.726,329.074 			"/>
			<polygon style="opacity:0.7;fill:#FFFFFF;" points="310.378,409.827 213.456,409.827 227.228,329.074 291.726,329.074 			"/>
			<polygon style="opacity:0.1;enable-background:new    ;" points="297.345,353.54 223.023,353.54 220.309,369.45 299.509,362.908 
							"/>
			<g>
				<g>
					<rect x="198.033" y="402.185" style="fill:#263238;" width="125.629" height="7.641"/>
				</g>
				<g style="opacity:0.7;">
					<rect x="198.033" y="402.185" style="fill:#FFFFFF;" width="125.629" height="7.641"/>
				</g>
			</g>
			<g>
				<g>
					<g>
						<path style="fill:#263238;" d="M101.231,121.012h6.66h300.917h6.661c4.441,0,8.041,3.659,8.041,8.172v216.185
							c0,4.513-3.6,8.172-8.041,8.172h-6.661H107.891h-6.66c-4.441,0-8.042-3.659-8.042-8.172V129.184
							C93.189,124.671,96.789,121.012,101.231,121.012z"/>
					</g>
				</g>
				<g style="opacity:0.7;">
					<g>
						<path style="fill:#FFFFFF;" d="M101.231,121.012h6.66h300.917h6.661c4.441,0,8.041,3.659,8.041,8.172v216.185
							c0,4.513-3.6,8.172-8.041,8.172h-6.661H107.891h-6.66c-4.441,0-8.042-3.659-8.042-8.172V129.184
							C93.189,124.671,96.789,121.012,101.231,121.012z"/>
					</g>
				</g>
				<g>
					<rect x="100.549" y="129.014" style="fill:#407BFF;" width="314.177" height="208.464"/>
					<rect x="100.549" y="129.014" style="opacity:0.9;fill:#FFFFFF;" width="314.177" height="208.464"/>
					<rect x="100.549" y="129.014" style="fill:#407BFF;" width="314.181" height="16.733"/>
					<path style="opacity:0.5;fill:#FFFFFF;" d="M410.547,137.381c0,1.964-1.592,3.555-3.555,3.555
						c-1.964,0-3.555-1.592-3.555-3.555c0-1.964,1.592-3.555,3.555-3.555C408.956,133.826,410.547,135.417,410.547,137.381z"/>
					<path style="opacity:0.5;fill:#FFFFFF;" d="M400.443,137.381c0,1.964-1.592,3.555-3.555,3.555
						c-1.964,0-3.555-1.592-3.555-3.555c0-1.964,1.592-3.555,3.555-3.555C398.851,133.826,400.443,135.417,400.443,137.381z"/>
					<path style="opacity:0.5;fill:#FFFFFF;" d="M390.338,137.381c0,1.964-1.592,3.555-3.555,3.555
						c-1.964,0-3.555-1.592-3.555-3.555c0-1.964,1.592-3.555,3.555-3.555C388.746,133.826,390.338,135.417,390.338,137.381z"/>
				</g>
			</g>
		</g>
		<g>
			<path style="fill:#407BFF;" d="M158.803,267.82c-1.026,1.562-1.715,3.277-2.083,5.047l-2.818,0.265l0,5.458l2.819,0.266
				c0.367,1.769,1.057,3.485,2.083,5.047l-1.8,2.174l3.859,3.859l2.174-1.8c1.562,1.025,3.278,1.715,5.047,2.083l0.266,2.819
				l5.458,0l0.266-2.818c1.769-0.368,3.485-1.057,5.047-2.083l2.174,1.8l3.859-3.859l-1.8-2.174
				c1.025-1.562,1.715-3.277,2.082-5.047l2.818-0.266l0-5.458l-2.818-0.266c-0.367-1.769-1.057-3.485-2.083-5.046l1.8-2.174
				l-3.859-3.859l-2.174,1.8c-1.562-1.026-3.278-1.716-5.047-2.083l-0.266-2.818l-5.458,0l-0.266,2.818
				c-1.769,0.367-3.485,1.057-5.047,2.083l-2.174-1.8l-3.859,3.859L158.803,267.82z M176.1,270.839
				c2.773,2.773,2.774,7.271,0,10.044c-2.774,2.774-7.271,2.773-10.045,0c-2.774-2.774-2.774-7.271,0-10.045
				C168.829,268.065,173.326,268.065,176.1,270.839z"/>
			<path style="opacity:0.4;fill:#FFFFFF;" d="M158.803,267.82c-1.026,1.562-1.715,3.277-2.083,5.047l-2.818,0.265l0,5.458
				l2.819,0.266c0.367,1.769,1.057,3.485,2.083,5.047l-1.8,2.174l3.859,3.859l2.174-1.8c1.562,1.025,3.278,1.715,5.047,2.083
				l0.266,2.819l5.458,0l0.266-2.818c1.769-0.368,3.485-1.057,5.047-2.083l2.174,1.8l3.859-3.859l-1.8-2.174
				c1.025-1.562,1.715-3.277,2.082-5.047l2.818-0.266l0-5.458l-2.818-0.266c-0.367-1.769-1.057-3.485-2.083-5.046l1.8-2.174
				l-3.859-3.859l-2.174,1.8c-1.562-1.026-3.278-1.716-5.047-2.083l-0.266-2.818l-5.458,0l-0.266,2.818
				c-1.769,0.367-3.485,1.057-5.047,2.083l-2.174-1.8l-3.859,3.859L158.803,267.82z M176.1,270.839
				c2.773,2.773,2.774,7.271,0,10.044c-2.774,2.774-7.271,2.773-10.045,0c-2.774-2.774-2.774-7.271,0-10.045
				C168.829,268.065,173.326,268.065,176.1,270.839z"/>
		</g>
		<g>
			<path style="fill:#407BFF;" d="M319.92,201.032c-0.95,1.447-1.589,3.036-1.929,4.675l-2.61,0.246l0,5.055l2.611,0.246
				c0.34,1.638,0.979,3.228,1.929,4.674l-1.667,2.014l3.575,3.575l2.014-1.667c1.447,0.95,3.036,1.589,4.674,1.929l0.246,2.611
				l5.055,0l0.246-2.61c1.639-0.34,3.228-0.979,4.675-1.929l2.014,1.667l3.575-3.575l-1.667-2.014
				c0.95-1.447,1.589-3.036,1.929-4.674l2.61-0.246l0-5.055l-2.61-0.246c-0.34-1.638-0.979-3.227-1.929-4.674l1.667-2.014
				l-3.575-3.574l-2.014,1.667c-1.447-0.95-3.036-1.589-4.674-1.929l-0.246-2.61l-5.055,0l-0.246,2.61
				c-1.639,0.34-3.228,0.979-4.674,1.929l-2.014-1.667l-3.575,3.575L319.92,201.032z M335.941,203.828
				c2.569,2.569,2.569,6.734,0,9.303c-2.569,2.569-6.735,2.569-9.304,0c-2.569-2.569-2.569-6.734,0-9.304
				C329.207,201.259,333.372,201.259,335.941,203.828z"/>
			<path style="opacity:0.4;fill:#FFFFFF;" d="M319.92,201.032c-0.95,1.447-1.589,3.036-1.929,4.675l-2.61,0.246l0,5.055
				l2.611,0.246c0.34,1.638,0.979,3.228,1.929,4.674l-1.667,2.014l3.575,3.575l2.014-1.667c1.447,0.95,3.036,1.589,4.674,1.929
				l0.246,2.611l5.055,0l0.246-2.61c1.639-0.34,3.228-0.979,4.675-1.929l2.014,1.667l3.575-3.575l-1.667-2.014
				c0.95-1.447,1.589-3.036,1.929-4.674l2.61-0.246l0-5.055l-2.61-0.246c-0.34-1.638-0.979-3.227-1.929-4.674l1.667-2.014
				l-3.575-3.574l-2.014,1.667c-1.447-0.95-3.036-1.589-4.674-1.929l-0.246-2.61l-5.055,0l-0.246,2.61
				c-1.639,0.34-3.228,0.979-4.674,1.929l-2.014-1.667l-3.575,3.575L319.92,201.032z M335.941,203.828
				c2.569,2.569,2.569,6.734,0,9.303c-2.569,2.569-6.735,2.569-9.304,0c-2.569-2.569-2.569-6.734,0-9.304
				C329.207,201.259,333.372,201.259,335.941,203.828z"/>
		</g>
		<g>
			<path style="fill:#407BFF;" d="M313.662,173.054c-0.614,0.935-1.027,1.962-1.247,3.021l-1.687,0.159l0,3.267l1.687,0.159
				c0.22,1.059,0.633,2.086,1.246,3.021l-1.077,1.301l2.31,2.31l1.301-1.077c0.935,0.614,1.962,1.027,3.021,1.247l0.159,1.687
				l3.267,0l0.159-1.687c1.059-0.22,2.086-0.633,3.021-1.247l1.301,1.077l2.31-2.31l-1.077-1.301
				c0.614-0.935,1.027-1.962,1.246-3.021l1.687-0.159l0-3.267l-1.687-0.159c-0.22-1.059-0.633-2.086-1.247-3.021l1.077-1.301
				l-2.31-2.31l-1.301,1.077c-0.935-0.614-1.962-1.027-3.021-1.247l-0.159-1.687l-3.267,0l-0.159,1.687
				c-1.059,0.22-2.086,0.633-3.02,1.247l-1.301-1.077l-2.31,2.31L313.662,173.054z M324.015,174.861c1.66,1.66,1.66,4.352,0,6.012
				c-1.66,1.66-4.352,1.66-6.012,0c-1.66-1.66-1.66-4.352,0-6.012C319.663,173.201,322.355,173.201,324.015,174.861z"/>
			<path style="opacity:0.7;fill:#FFFFFF;" d="M313.662,173.054c-0.614,0.935-1.027,1.962-1.247,3.021l-1.687,0.159l0,3.267
				l1.687,0.159c0.22,1.059,0.633,2.086,1.246,3.021l-1.077,1.301l2.31,2.31l1.301-1.077c0.935,0.614,1.962,1.027,3.021,1.247
				l0.159,1.687l3.267,0l0.159-1.687c1.059-0.22,2.086-0.633,3.021-1.247l1.301,1.077l2.31-2.31l-1.077-1.301
				c0.614-0.935,1.027-1.962,1.246-3.021l1.687-0.159l0-3.267l-1.687-0.159c-0.22-1.059-0.633-2.086-1.247-3.021l1.077-1.301
				l-2.31-2.31l-1.301,1.077c-0.935-0.614-1.962-1.027-3.021-1.247l-0.159-1.687l-3.267,0l-0.159,1.687
				c-1.059,0.22-2.086,0.633-3.02,1.247l-1.301-1.077l-2.31,2.31L313.662,173.054z M324.015,174.861c1.66,1.66,1.66,4.352,0,6.012
				c-1.66,1.66-4.352,1.66-6.012,0c-1.66-1.66-1.66-4.352,0-6.012C319.663,173.201,322.355,173.201,324.015,174.861z"/>
		</g>
		<g>
			<path style="fill:#407BFF;" d="M177.005,300.574c-0.614,0.935-1.027,1.962-1.247,3.021l-1.687,0.159l0,3.267l1.687,0.159
				c0.22,1.059,0.633,2.086,1.247,3.021l-1.077,1.301l2.31,2.31l1.301-1.077c0.935,0.614,1.962,1.027,3.021,1.246l0.159,1.687
				l3.267,0l0.159-1.687c1.059-0.22,2.086-0.633,3.021-1.247l1.301,1.077l2.31-2.31l-1.077-1.301
				c0.614-0.935,1.027-1.962,1.246-3.021l1.687-0.159l0-3.267l-1.687-0.159c-0.22-1.059-0.633-2.086-1.247-3.021l1.077-1.301
				l-2.31-2.31l-1.301,1.077c-0.935-0.614-1.962-1.027-3.021-1.247l-0.159-1.687l-3.267,0l-0.159,1.687
				c-1.059,0.22-2.086,0.633-3.021,1.246l-1.301-1.077l-2.31,2.31L177.005,300.574z M187.358,302.381c1.66,1.66,1.66,4.352,0,6.012
				c-1.66,1.66-4.352,1.66-6.012,0c-1.66-1.66-1.66-4.352,0-6.012C183.006,300.72,185.697,300.72,187.358,302.381z"/>
			<path style="opacity:0.7;fill:#FFFFFF;" d="M177.005,300.574c-0.614,0.935-1.027,1.962-1.247,3.021l-1.687,0.159l0,3.267
				l1.687,0.159c0.22,1.059,0.633,2.086,1.247,3.021l-1.077,1.301l2.31,2.31l1.301-1.077c0.935,0.614,1.962,1.027,3.021,1.246
				l0.159,1.687l3.267,0l0.159-1.687c1.059-0.22,2.086-0.633,3.021-1.247l1.301,1.077l2.31-2.31l-1.077-1.301
				c0.614-0.935,1.027-1.962,1.246-3.021l1.687-0.159l0-3.267l-1.687-0.159c-0.22-1.059-0.633-2.086-1.247-3.021l1.077-1.301
				l-2.31-2.31l-1.301,1.077c-0.935-0.614-1.962-1.027-3.021-1.247l-0.159-1.687l-3.267,0l-0.159,1.687
				c-1.059,0.22-2.086,0.633-3.021,1.246l-1.301-1.077l-2.31,2.31L177.005,300.574z M187.358,302.381c1.66,1.66,1.66,4.352,0,6.012
				c-1.66,1.66-4.352,1.66-6.012,0c-1.66-1.66-1.66-4.352,0-6.012C183.006,300.72,185.697,300.72,187.358,302.381z"/>
		</g>
		<g>
			<g>
				<path style="fill:#407BFF;" d="M199.5,206.286c-4.432,6.749-7.411,14.161-9,21.808l-12.178,1.146l-0.001,23.583l12.18,1.148
					c1.586,7.644,4.567,15.057,8.999,21.807l-7.778,9.395l16.676,16.676l9.395-7.778c6.749,4.431,14.162,7.412,21.807,8.999
					l1.147,12.179l23.583-0.001l1.148-12.176c7.646-1.588,15.058-4.569,21.807-9l9.395,7.778l16.676-16.676l-7.778-9.395
					c4.431-6.749,7.411-14.162,8.998-21.807l12.177-1.148l0.002-23.583l-12.178-1.148c-1.587-7.644-4.569-15.057-9-21.806
					l7.778-9.395l-16.676-16.676l-9.395,7.778c-6.75-4.432-14.163-7.414-21.807-9.001l-1.148-12.178l-23.583,0.001l-1.147,12.177
					c-7.645,1.587-15.058,4.567-21.806,8.999l-9.395-7.778l-16.677,16.677L199.5,206.286z M279.616,213.954
					c14.953,14.953,14.954,39.2,0,54.154c-14.955,14.955-39.202,14.953-54.155,0c-14.955-14.955-14.954-39.199,0.001-54.155
					C240.416,199.001,264.661,198.999,279.616,213.954z"/>
			</g>
			<g>
				<path style="fill:#407BFF;" d="M241.262,244.4h-8.505l-1.622,3.925h-4.344l8.165-18.318h4.187l8.191,18.318h-4.449
					L241.262,244.4z M239.927,241.182l-2.905-7.014l-2.905,7.014H239.927z"/>
				<path style="fill:#407BFF;" d="M261.398,230.818c1.195,0.541,2.115,1.309,2.762,2.303c0.645,0.994,0.968,2.172,0.968,3.533
					c0,1.344-0.323,2.517-0.968,3.52c-0.646,1.003-1.566,1.771-2.762,2.303c-1.194,0.532-2.604,0.798-4.226,0.798h-3.69v5.051h-4.24
					v-18.318h7.93C258.795,230.007,260.204,230.278,261.398,230.818z M259.842,238.997c0.663-0.55,0.994-1.33,0.994-2.342
					c0-1.029-0.331-1.819-0.994-2.368c-0.663-0.55-1.632-0.825-2.904-0.825h-3.455v6.359h3.455
					C258.21,239.821,259.179,239.546,259.842,238.997z"/>
				<path style="fill:#407BFF;" d="M268.138,230.007h4.239v18.318h-4.239V230.007z"/>
			</g>
			<g>
				<path style="fill:#407BFF;" d="M217.788,245.884c-0.253,0-0.471-0.192-0.497-0.449c-1.065-10.453,1.98-20.459,8.574-28.176
					c0.179-0.211,0.496-0.235,0.705-0.055c0.21,0.179,0.235,0.495,0.055,0.705c-6.414,7.507-9.376,17.247-8.339,27.425
					c0.028,0.275-0.172,0.52-0.447,0.548C217.822,245.883,217.804,245.884,217.788,245.884z"/>
			</g>
			<g>
				<path style="fill:#407BFF;" d="M219.476,253.783c-0.216,0-0.416-0.142-0.48-0.359c-0.409-1.395-0.745-2.822-0.999-4.244
					c-0.049-0.271,0.132-0.531,0.404-0.58c0.274-0.047,0.531,0.133,0.58,0.404c0.248,1.386,0.576,2.779,0.975,4.138
					c0.078,0.265-0.074,0.543-0.339,0.62C219.569,253.776,219.522,253.783,219.476,253.783z"/>
			</g>
		</g>
		<polyline style="fill:none;stroke:#407BFF;stroke-linecap:round;stroke-linejoin:round;stroke-miterlimit:10;" points="
			128.327,188.796 128.327,238.859 171.077,238.859 		"/>
		<circle style="fill:#407BFF;" cx="128.327" cy="188.796" r="2.562"/>
		<circle style="fill:#407BFF;" cx="389.197" cy="278.424" r="2.562"/>
		<polyline style="fill:none;stroke:#407BFF;stroke-miterlimit:10;" points="389.197,278.047 389.197,297.898 326.585,297.898 
			326.585,270.492 317.198,270.492 		"/>
	</g>
</g>
<g id="Server">
	<g>
		<rect x="359.993" y="305.387" style="fill:#407BFF;" width="108.89" height="104.44"/>
		<rect x="359.993" y="305.387" style="opacity:0.4;fill:#FFFFFF;enable-background:new    ;" width="108.89" height="104.44"/>
		<rect x="394.653" y="305.387" style="opacity:0.4;fill:#FFFFFF;enable-background:new    ;" width="74.22" height="104.44"/>
		<rect x="398.363" y="310.727" style="fill:#407BFF;" width="66.8" height="12.93"/>
		<rect x="398.363" y="326.897" style="fill:#407BFF;" width="66.8" height="12.93"/>
		<rect x="398.363" y="343.056" style="fill:#407BFF;" width="66.8" height="12.93"/>
		<rect x="398.363" y="359.227" style="fill:#407BFF;" width="66.8" height="12.93"/>
		<rect x="398.363" y="375.397" style="fill:#407BFF;" width="66.8" height="12.93"/>
		<rect x="398.363" y="391.566" style="fill:#407BFF;" width="66.8" height="12.93"/>
		<rect x="363.883" y="310.727" style="fill:#407BFF;" width="26.89" height="12.93"/>
		<rect x="363.883" y="326.897" style="fill:#407BFF;" width="26.89" height="12.93"/>
		<rect x="363.883" y="343.056" style="fill:#407BFF;" width="26.89" height="12.93"/>
		<rect x="363.883" y="359.227" style="fill:#407BFF;" width="26.89" height="12.93"/>
		<rect x="363.883" y="375.397" style="fill:#407BFF;" width="26.89" height="12.93"/>
		<rect x="363.883" y="391.566" style="fill:#407BFF;" width="26.89" height="12.93"/>
		<rect x="460.333" y="312.406" style="opacity:0.3;fill:#FFFFFF;enable-background:new    ;" width="1.56" height="9.57"/>
		<rect x="457.333" y="312.406" style="opacity:0.3;fill:#FFFFFF;enable-background:new    ;" width="1.56" height="9.57"/>
		<rect x="454.333" y="312.406" style="opacity:0.3;fill:#FFFFFF;enable-background:new    ;" width="1.56" height="9.57"/>
		<rect x="451.333" y="312.406" style="opacity:0.3;fill:#FFFFFF;enable-background:new    ;" width="1.56" height="9.57"/>
		<rect x="448.333" y="312.406" style="opacity:0.3;fill:#FFFFFF;enable-background:new    ;" width="1.56" height="9.57"/>
		<rect x="460.333" y="328.577" style="opacity:0.3;fill:#FFFFFF;enable-background:new    ;" width="1.56" height="9.56"/>
		<rect x="457.333" y="328.577" style="opacity:0.3;fill:#FFFFFF;enable-background:new    ;" width="1.56" height="9.56"/>
		<rect x="454.333" y="328.577" style="opacity:0.3;fill:#FFFFFF;enable-background:new    ;" width="1.56" height="9.56"/>
		<rect x="451.333" y="328.577" style="opacity:0.3;fill:#FFFFFF;enable-background:new    ;" width="1.56" height="9.56"/>
		<rect x="448.333" y="328.577" style="opacity:0.3;fill:#FFFFFF;enable-background:new    ;" width="1.56" height="9.56"/>
		<rect x="460.333" y="344.746" style="opacity:0.3;fill:#FFFFFF;enable-background:new    ;" width="1.56" height="9.56"/>
		<rect x="457.333" y="344.746" style="opacity:0.3;fill:#FFFFFF;enable-background:new    ;" width="1.56" height="9.56"/>
		<rect x="454.333" y="344.746" style="opacity:0.3;fill:#FFFFFF;enable-background:new    ;" width="1.56" height="9.56"/>
		<rect x="451.333" y="344.746" style="opacity:0.3;fill:#FFFFFF;enable-background:new    ;" width="1.56" height="9.56"/>
		<rect x="448.333" y="344.746" style="opacity:0.3;fill:#FFFFFF;enable-background:new    ;" width="1.56" height="9.56"/>
		<rect x="460.333" y="360.917" style="opacity:0.3;fill:#FFFFFF;enable-background:new    ;" width="1.56" height="9.57"/>
		<rect x="457.333" y="360.917" style="opacity:0.3;fill:#FFFFFF;enable-background:new    ;" width="1.56" height="9.57"/>
		<rect x="454.333" y="360.917" style="opacity:0.3;fill:#FFFFFF;enable-background:new    ;" width="1.56" height="9.57"/>
		<rect x="451.333" y="360.917" style="opacity:0.3;fill:#FFFFFF;enable-background:new    ;" width="1.56" height="9.57"/>
		<rect x="448.333" y="360.917" style="opacity:0.3;fill:#FFFFFF;enable-background:new    ;" width="1.56" height="9.57"/>
		<rect x="460.333" y="377.086" style="opacity:0.3;fill:#FFFFFF;enable-background:new    ;" width="1.56" height="9.56"/>
		<rect x="457.333" y="377.086" style="opacity:0.3;fill:#FFFFFF;enable-background:new    ;" width="1.56" height="9.56"/>
		<rect x="454.333" y="377.086" style="opacity:0.3;fill:#FFFFFF;enable-background:new    ;" width="1.56" height="9.56"/>
		<rect x="451.333" y="377.086" style="opacity:0.3;fill:#FFFFFF;enable-background:new    ;" width="1.56" height="9.56"/>
		<rect x="448.333" y="377.086" style="opacity:0.3;fill:#FFFFFF;enable-background:new    ;" width="1.56" height="9.56"/>
		<rect x="460.333" y="393.246" style="opacity:0.3;fill:#FFFFFF;enable-background:new    ;" width="1.56" height="9.57"/>
		<rect x="457.333" y="393.246" style="opacity:0.3;fill:#FFFFFF;enable-background:new    ;" width="1.56" height="9.57"/>
		<rect x="454.333" y="393.246" style="opacity:0.3;fill:#FFFFFF;enable-background:new    ;" width="1.56" height="9.57"/>
		<rect x="451.333" y="393.246" style="opacity:0.3;fill:#FFFFFF;enable-background:new    ;" width="1.56" height="9.57"/>
		<rect x="448.333" y="393.246" style="opacity:0.3;fill:#FFFFFF;enable-background:new    ;" width="1.56" height="9.57"/>
		<path style="opacity:0.2;fill:#FFFFFF;enable-background:new    ;" d="M406.133,317.186c0,0.878-0.712,1.59-1.59,1.59
			c-0.878,0-1.59-0.712-1.59-1.59c0-0.878,0.712-1.59,1.59-1.59l0,0C405.421,315.596,406.133,316.308,406.133,317.186z"/>
		<path style="opacity:0.2;fill:#FFFFFF;enable-background:new    ;" d="M416.133,317.186c0,0.878-0.712,1.59-1.59,1.59
			c-0.878,0-1.59-0.712-1.59-1.59c0-0.878,0.712-1.59,1.59-1.59l0,0C415.421,315.596,416.133,316.308,416.133,317.186z"/>
		<path style="opacity:0.4;fill:#FFFFFF;enable-background:new    ;" d="M426.133,317.186c0,0.878-0.712,1.59-1.59,1.59
			c-0.878,0-1.59-0.712-1.59-1.59c0-0.878,0.712-1.59,1.59-1.59l0,0C425.421,315.596,426.133,316.308,426.133,317.186z"/>
		<path style="opacity:0.4;fill:#FFFFFF;enable-background:new    ;" d="M406.133,333.357c0,0.878-0.712,1.59-1.59,1.59
			c-0.878,0-1.59-0.712-1.59-1.59c0-0.878,0.712-1.59,1.59-1.59l0,0C405.421,331.767,406.133,332.478,406.133,333.357z"/>
		<path style="opacity:0.2;fill:#FFFFFF;enable-background:new    ;" d="M416.133,333.357c0,0.878-0.712,1.59-1.59,1.59
			c-0.878,0-1.59-0.712-1.59-1.59c0-0.878,0.712-1.59,1.59-1.59l0,0C415.421,331.767,416.133,332.478,416.133,333.357z"/>
		<path style="opacity:0.4;fill:#FFFFFF;enable-background:new    ;" d="M426.133,333.357c0,0.878-0.712,1.59-1.59,1.59
			c-0.878,0-1.59-0.712-1.59-1.59c0-0.878,0.712-1.59,1.59-1.59l0,0C425.421,331.767,426.133,332.478,426.133,333.357z"/>
		<path style="opacity:0.2;fill:#FFFFFF;enable-background:new    ;" d="M406.133,349.526c0,0.878-0.712,1.59-1.59,1.59
			c-0.878,0-1.59-0.712-1.59-1.59c0-0.878,0.712-1.59,1.59-1.59l0,0C405.421,347.936,406.133,348.648,406.133,349.526z"/>
		<path style="opacity:0.4;fill:#FFFFFF;enable-background:new    ;" d="M416.133,349.526c0,0.878-0.712,1.59-1.59,1.59
			c-0.878,0-1.59-0.712-1.59-1.59c0-0.878,0.712-1.59,1.59-1.59l0,0C415.421,347.936,416.133,348.648,416.133,349.526z"/>
		<path style="opacity:0.2;fill:#FFFFFF;enable-background:new    ;" d="M426.133,349.526c0,0.878-0.712,1.59-1.59,1.59
			c-0.878,0-1.59-0.712-1.59-1.59c0-0.878,0.712-1.59,1.59-1.59l0,0C425.421,347.936,426.133,348.648,426.133,349.526z"/>
		<path style="opacity:0.4;fill:#FFFFFF;enable-background:new    ;" d="M406.133,365.697c0,0.878-0.712,1.59-1.59,1.59
			c-0.878,0-1.59-0.712-1.59-1.59c0-0.878,0.712-1.59,1.59-1.59l0,0C405.421,364.107,406.133,364.818,406.133,365.697z"/>
		<path style="opacity:0.2;fill:#FFFFFF;enable-background:new    ;" d="M416.133,365.697c0,0.878-0.712,1.59-1.59,1.59
			c-0.878,0-1.59-0.712-1.59-1.59c0-0.878,0.712-1.59,1.59-1.59l0,0C415.421,364.107,416.133,364.818,416.133,365.697z"/>
		<path style="opacity:0.2;fill:#FFFFFF;enable-background:new    ;" d="M426.133,365.697c0,0.878-0.712,1.59-1.59,1.59
			c-0.878,0-1.59-0.712-1.59-1.59c0-0.878,0.712-1.59,1.59-1.59l0,0C425.421,364.107,426.133,364.818,426.133,365.697z"/>
		<path style="opacity:0.2;fill:#FFFFFF;enable-background:new    ;" d="M406.133,381.866c0,0.878-0.712,1.59-1.59,1.59
			c-0.878,0-1.59-0.712-1.59-1.59c0-0.878,0.712-1.59,1.59-1.59l0,0C405.421,380.276,406.133,380.988,406.133,381.866z"/>
		<path style="opacity:0.4;fill:#FFFFFF;enable-background:new    ;" d="M416.133,381.866c0,0.878-0.712,1.59-1.59,1.59
			c-0.878,0-1.59-0.712-1.59-1.59c0-0.878,0.712-1.59,1.59-1.59l0,0C415.421,380.276,416.133,380.988,416.133,381.866z"/>
		<path style="opacity:0.4;fill:#FFFFFF;enable-background:new    ;" d="M426.133,381.866c0,0.878-0.712,1.59-1.59,1.59
			c-0.878,0-1.59-0.712-1.59-1.59c0-0.878,0.712-1.59,1.59-1.59l0,0C425.421,380.276,426.133,380.988,426.133,381.866z"/>
		<path style="opacity:0.4;fill:#FFFFFF;enable-background:new    ;" d="M406.133,398.036c0,0.878-0.712,1.59-1.59,1.59
			c-0.878,0-1.59-0.712-1.59-1.59s0.712-1.59,1.59-1.59l0,0C405.421,396.447,406.133,397.158,406.133,398.036z"/>
		<path style="opacity:0.2;fill:#FFFFFF;enable-background:new    ;" d="M416.133,398.036c0,0.878-0.712,1.59-1.59,1.59
			c-0.878,0-1.59-0.712-1.59-1.59s0.712-1.59,1.59-1.59l0,0C415.421,396.447,416.133,397.158,416.133,398.036z"/>
		<path style="opacity:0.4;fill:#FFFFFF;enable-background:new    ;" d="M426.133,398.036c0,0.878-0.712,1.59-1.59,1.59
			c-0.878,0-1.59-0.712-1.59-1.59s0.712-1.59,1.59-1.59l0,0C425.421,396.447,426.133,397.158,426.133,398.036z"/>
		<rect x="359.993" y="305.387" style="opacity:0.3;" width="34.66" height="104.44"/>
	</g>
</g>
<g id="Screens">
	<g>
		<g>
			<path style="fill:#407BFF;" d="M460.15,268.666H358.944c-2.726,0-4.936-2.21-4.936-4.936v-83.533c0-2.726,2.21-4.936,4.936-4.936
				H460.15c2.726,0,4.936,2.21,4.936,4.936v83.533C465.086,266.456,462.876,268.666,460.15,268.666z"/>
			<path style="opacity:0.5;fill:#FFFFFF;" d="M460.15,268.666H358.944c-2.726,0-4.936-2.21-4.936-4.936v-83.533
				c0-2.726,2.21-4.936,4.936-4.936H460.15c2.726,0,4.936,2.21,4.936,4.936v83.533C465.086,266.456,462.876,268.666,460.15,268.666z
				"/>
			<path style="fill:#407BFF;" d="M465.086,191.548H354.008v-11.661c0-2.555,2.072-4.627,4.627-4.627h101.906
				c2.51,0,4.546,2.035,4.546,4.546V191.548z"/>
		</g>
		<g>
			<path style="opacity:0.5;fill:#FFFFFF;" d="M458.814,184.592c0,1.964-1.592,3.556-3.555,3.556c-1.964,0-3.555-1.592-3.555-3.556
				c0-1.964,1.592-3.555,3.555-3.555C457.222,181.037,458.814,182.628,458.814,184.592z"/>
			<path style="opacity:0.5;fill:#FFFFFF;" d="M448.709,184.592c0,1.964-1.592,3.556-3.555,3.556c-1.964,0-3.555-1.592-3.555-3.556
				c0-1.964,1.592-3.555,3.555-3.555C447.117,181.037,448.709,182.628,448.709,184.592z"/>
			<path style="opacity:0.5;fill:#FFFFFF;" d="M438.604,184.592c0,1.964-1.592,3.556-3.555,3.556c-1.964,0-3.555-1.592-3.555-3.556
				c0-1.964,1.592-3.555,3.555-3.555C437.012,181.037,438.604,182.628,438.604,184.592z"/>
		</g>
		<rect x="379.006" y="205.164" style="opacity:0.6;fill:#FFFFFF;" width="56.974" height="3.315"/>
		<rect x="379.893" y="212.337" style="opacity:0.6;fill:#263238;" width="40.767" height="3.315"/>
		<rect x="440.167" y="205.164" style="fill:#407BFF;" width="11.208" height="3.315"/>
		<rect x="363.842" y="205.164" style="fill:#407BFF;" width="11.208" height="3.315"/>
		<rect x="379.006" y="220.305" style="fill:#407BFF;" width="56.974" height="3.315"/>
		<rect x="440.167" y="220.305" style="opacity:0.6;fill:#FFFFFF;" width="11.208" height="3.315"/>
		<rect x="363.842" y="220.305" style="fill:#407BFF;" width="11.208" height="3.315"/>
		<rect x="379.006" y="251.872" style="fill:#407BFF;" width="56.974" height="3.315"/>
		<rect x="440.167" y="251.872" style="opacity:0.6;fill:#FFFFFF;" width="11.208" height="3.315"/>
		<rect x="379.006" y="228.288" style="fill:#407BFF;" width="56.974" height="3.315"/>
		<rect x="440.167" y="228.288" style="opacity:0.6;fill:#263238;" width="11.208" height="3.315"/>
		<rect x="363.842" y="228.288" style="opacity:0.6;fill:#263238;" width="11.208" height="3.315"/>
		<rect x="425.122" y="212.467" style="fill:#407BFF;" width="27.08" height="3.315"/>
		<rect x="379.006" y="235.249" style="opacity:0.6;fill:#FFFFFF;" width="40.766" height="3.315"/>
		<rect x="424.235" y="235.38" style="fill:#407BFF;" width="27.08" height="3.315"/>
		<rect x="379.006" y="242.457" style="opacity:0.6;fill:#263238;" width="20.383" height="3.315"/>
	</g>
	<g>
		<g>
			<path style="fill:#407BFF;" d="M158.839,173.059H57.632c-2.726,0-4.936-2.21-4.936-4.936V84.591c0-2.726,2.21-4.936,4.936-4.936
				h101.206c2.726,0,4.936,2.21,4.936,4.936v83.533C163.775,170.85,161.565,173.059,158.839,173.059z"/>
			<path style="opacity:0.5;fill:#FFFFFF;" d="M158.839,173.059H57.632c-2.726,0-4.936-2.21-4.936-4.936V84.591
				c0-2.726,2.21-4.936,4.936-4.936h101.206c2.726,0,4.936,2.21,4.936,4.936v83.533C163.775,170.85,161.565,173.059,158.839,173.059
				z"/>
			<path style="fill:#407BFF;" d="M163.775,95.942H52.696V84.282c0-2.555,2.072-4.627,4.627-4.627h101.906
				c2.51,0,4.546,2.035,4.546,4.546V95.942z"/>
		</g>
		<g>
			<path style="opacity:0.5;fill:#FFFFFF;" d="M157.502,88.986c0,1.964-1.592,3.555-3.555,3.555c-1.964,0-3.555-1.592-3.555-3.555
				c0-1.964,1.592-3.555,3.555-3.555C155.91,85.431,157.502,87.022,157.502,88.986z"/>
			<path style="opacity:0.5;fill:#FFFFFF;" d="M147.397,88.986c0,1.964-1.592,3.555-3.555,3.555c-1.964,0-3.555-1.592-3.555-3.555
				c0-1.964,1.592-3.555,3.555-3.555C145.805,85.431,147.397,87.022,147.397,88.986z"/>
			<path style="opacity:0.5;fill:#FFFFFF;" d="M137.292,88.986c0,1.964-1.592,3.555-3.555,3.555c-1.964,0-3.555-1.592-3.555-3.555
				c0-1.964,1.592-3.555,3.555-3.555C135.701,85.431,137.292,87.022,137.292,88.986z"/>
		</g>
		<path style="fill:#FFFFFF;" d="M143.245,131.723c-3.689-4.939-11.235-7.352-16.265-3.787c-1.239-7.075-6.363-13.343-13.05-15.963
			c-6.688-2.62-14.705-1.502-20.421,2.849c-5.715,4.35-8.929,11.781-8.184,18.925c-4.851-1.105-10.193,0.063-13.35,5.081
			c-4.092,6.507,1.212,12.955,1.212,12.955l28.502,0.163V141.5h-3.643c-0.646,0-0.977-0.775-0.53-1.242l4.195-4.379l4.855-5.067
			c0.289-0.302,0.771-0.302,1.06,0l4.855,5.067l4.195,4.379c0.447,0.467,0.116,1.242-0.53,1.242h-3.643v10.508l30.333,0.174
			C147.16,147.214,146.933,136.663,143.245,131.723z"/>
	</g>
</g>
<g id="Character">
	<g>
		<g>
			<path style="fill:#263238;enable-background:new    ;" d="M100.518,412.609c0,0,87.121-20.411,91.265-2.265
				c5.915,25.903-56.943,43.328-90.424,42.261C67.878,451.539,100.518,412.609,100.518,412.609z"/>
			<path style="opacity:0.2;enable-background:new    ;" d="M100.518,412.609c0,0,87.121-20.411,91.265-2.265
				c5.915,25.903-56.943,43.328-90.424,42.261C67.878,451.539,100.518,412.609,100.518,412.609z"/>
			<path style="opacity:0.7;enable-background:new    ;" d="M163.197,415.943l-40.914,26.001l5.46,7.76c0,0-2.876,4.262-8.351-8.831
				l25.313-16.733c0,0-7.923-0.795-7.724-2.034c0.336-2.034,17.742-5.904,25.68-7.647c0.41-0.148,0.862,0.064,1.009,0.474
				C163.819,415.344,163.606,415.796,163.197,415.943z"/>
			<path style="opacity:0.7;enable-background:new    ;" d="M120.799,439.015l7.097,11.5c-8.752,1.529-17.641,2.228-26.537,2.09
				c-2.925-0.018-5.821-0.543-8.55-1.549l-2.493-4.559l5.368-10.799L120.799,439.015z"/>
			<g>
				<g>
					<g>
						<g>
							<g>
								<polygon style="fill:#B97964;" points="134.344,434.442 116.146,445.983 119.408,454.815 140.774,445.214 								"/>
							</g>
						</g>
					</g>
				</g>
				<g>
					<g>
						<g>
							<g>
								<g>
									<g>
										<g>
											<g>
												<g>
													<g>
														<g>
															<g>
																<path style="fill:#263238;" d="M106.13,448.941l1.786,6.352c0,0,1.341,0.283,1.759,1.619
																	c0.235,0.751-0.318,2.821-0.318,2.821l4.783,17.505c0.025-0.007,1.2-0.324,1.666-0.66
																	c0.568-0.41,1.029-0.83,1.398-1.256c1.292-1.493,1.435-3.657,1.483-5.259c0.081-2.686,1.624-10.532,1.624-10.532
																	s0.589-2.044,2.747-3.845c1.204-1.004,1.76-2.272,1.648-3.057c-0.227-1.601-1.377-2.202-2.874-2.022l-1.739,0.212
																	c-1.243-0.926-1.624-2.491-0.837-3.999c0,0,1.028-3.813-0.57-3.172c-0.912,0.366-4.93,2.159-8.146,3.48
																	c-0.749,0.309-1.459,0.599-2.081,0.854l0,0.002C107.078,448.55,106.13,448.941,106.13,448.941z"/>
															</g>
														</g>
													</g>
												</g>
											</g>
										</g>
										<g>
											<g>
												<g>
													<g>
														<path style="fill:#407BFF;" d="M119.64,463.714c0.049-0.098,0.023-0.221-0.059-0.296
															c-0.376-0.345-0.839-0.593-1.364-0.703c-0.276-0.058-0.403,0.386-0.123,0.445c0.466,0.097,0.875,0.314,1.204,0.615
															c0.11,0.101,0.274,0.076,0.34-0.056C119.639,463.717,119.64,463.716,119.64,463.714z"/>
													</g>
												</g>
											</g>
										</g>
										<g>
											<g>
												<g>
													<g>
														<path style="fill:#407BFF;" d="M119.998,462.165c0.049-0.098,0.023-0.221-0.059-0.297
															c-0.376-0.345-0.839-0.593-1.363-0.703c-0.276-0.058-0.403,0.386-0.124,0.445c0.466,0.097,0.875,0.314,1.204,0.615
															c0.11,0.101,0.274,0.076,0.34-0.056C119.997,462.168,119.997,462.166,119.998,462.165z"/>
													</g>
												</g>
											</g>
										</g>
										<g>
											<g>
												<g>
													<g>
														<path style="fill:#407BFF;" d="M120.295,460.587c0.049-0.098,0.023-0.221-0.059-0.296
															c-0.376-0.345-0.839-0.593-1.364-0.703c-0.276-0.058-0.403,0.386-0.123,0.445c0.466,0.097,0.875,0.313,1.204,0.615
															c0.11,0.101,0.274,0.076,0.34-0.056C120.294,460.59,120.294,460.588,120.295,460.587z"/>
													</g>
												</g>
											</g>
										</g>
									</g>
								</g>
							</g>
						</g>
					</g>
				</g>
				<g>
					<path style="opacity:0.2;fill:#FFFFFF;enable-background:new    ;" d="M108.46,447.982l0,0.002
						c-1.381,0.567-2.33,0.958-2.33,0.958l1.786,6.352c0,0,1.341,0.283,1.759,1.619c0.235,0.751-0.318,2.821-0.318,2.821
						l4.783,17.505c0.025-0.007,1.2-0.324,1.666-0.66c0.261-0.188,0.493-0.379,0.711-0.571l-7.711-28.167
						C108.693,447.886,108.568,447.937,108.46,447.982z"/>
				</g>
				<path style="fill:none;stroke:#407BFF;stroke-width:0.25;stroke-miterlimit:10;" d="M120.048,460.48
					c0.593-0.219,1.189-0.439,1.811-0.551c0.622-0.112,1.277-0.111,1.87,0.105c0.276,0.101,0.562,0.281,0.622,0.569
					c0.063,0.302-0.154,0.596-0.405,0.776c-0.483,0.345-1.12,0.43-1.704,0.319C121.66,461.587,120.531,460.826,120.048,460.48"/>
				<path style="fill:none;stroke:#407BFF;stroke-width:0.25;stroke-miterlimit:10;" d="M120.028,460.406
					c0.495-0.393,0.993-0.788,1.412-1.261c0.419-0.473,0.758-1.033,0.882-1.652c0.058-0.288,0.052-0.626-0.162-0.827
					c-0.226-0.211-0.589-0.178-0.873-0.057c-0.546,0.233-0.949,0.734-1.158,1.29C119.92,458.454,119.984,459.814,120.028,460.406"/>
			</g>
		</g>
		<path style="fill:#B97964;" d="M136.512,357.177c0,0,3.182,28.326,4.032,29.845c2.875,5.139,21.924,13.95,21.924,13.95
			l9.712-2.034l6.959,5.812l-4.589,3.594l-5.384-2.034c-2.938,0.524-5.917,0.785-8.902,0.78c-5.017,0-29.209-6.132-33.247-12.877
			c-4.038-6.745-5.893-37.979-5.893-37.979L136.512,357.177z"/>
		<g>
			<path style="fill:#407BFF;" d="M120.713,368.311c0,0-7.464-24.876,1.836-31.782c9.299-6.906,16.695,27.296,16.695,27.296
				L120.713,368.311z"/>
			<path style="opacity:0.3;fill:#FFFFFF;" d="M120.713,368.311c0,0-7.464-24.876,1.836-31.782
				c9.299-6.906,16.695,27.296,16.695,27.296L120.713,368.311z"/>
			<path style="fill:#407BFF;" d="M126.603,413.811l-0.072-32.971l-0.924-45.402l-19.266-3.969l-16.954-0.748l-19.291,8.828
				l-0.45,11.077c0,0,2.206,50.866,2.082,52.399c-0.152,1.88-5.623,13.678-5.623,13.678
				C90.477,422.258,126.987,415.493,126.603,413.811z"/>
			<path style="opacity:0.3;fill:#FFFFFF;" d="M126.603,413.811l-0.072-32.971l-0.924-45.402l-19.266-3.969l-16.954-0.748
				l-19.291,8.828l-0.45,11.077c0,0,2.206,50.866,2.082,52.399c-0.152,1.88-5.623,13.678-5.623,13.678
				C90.477,422.258,126.987,415.493,126.603,413.811z"/>
			<path style="fill:#407BFF;" d="M98.999,338.029c0,0,4.73,4.212,7.151-1.232l1.261,0.982c0,0-0.122,4.049-2.417,5.404
				c0.557,2.247,10.159,34.948,11.877,51.43l-2.625,6.683l-6.973-5.504c0,0-3.385-28.277-4.543-52.3
				c-2.792-0.946-5.001-3.04-6.026-5.713L98.999,338.029z"/>
			<polygon style="opacity:0.2;" points="105.1,338.579 109.2,341.767 109.87,332.197 108.568,331.919 107.485,338.369 
				105.536,337.236 			"/>
			<path style="opacity:0.2;" d="M85.348,332.571c-0.069,0.031,9.653,11.886,9.653,11.886l3.3-2.513l2.269-1.922l0.589-0.724
				l-12.868-8.939c0,0-1.725,1.761-1.903,1.761C86.21,332.121,85.348,332.571,85.348,332.571z"/>
			<polygon style="fill:#407BFF;" points="86.04,332.369 90.742,328.171 103.611,340.219 100.245,339.027 95.342,342.795 			"/>
			<path style="fill:#407BFF;" d="M103.611,340.219c-0.285-0.544,1.03-11.49,1.03-11.49l4.559,3.118
				c-0.242-0.05-0.401,9.047-0.549,9.047c-0.148,0-3.021-3.107-3.021-3.107L103.611,340.219z"/>
			<path style="fill:#263238;" d="M100.984,342.71"/>
			<polygon style="opacity:0.2;" points="126.257,366.969 125.26,345.706 130.016,366.059 			"/>
			<path style="opacity:0.2;" d="M85.015,370.067c0.6-0.117,3.638-1.113,3.638-1.113l-6.753-18.786l9.271,20.783l-5.573,2.218
				L85.015,370.067z"/>
			<polygon style="opacity:0.3;fill:#FFFFFF;" points="86.04,332.369 90.742,328.171 103.611,340.219 100.245,339.027 
				95.342,342.795 			"/>
			<path style="opacity:0.3;fill:#FFFFFF;" d="M103.611,340.219c-0.285-0.544,1.03-11.49,1.03-11.49l4.559,3.118
				c-0.242-0.05-0.401,9.047-0.549,9.047c-0.148,0-3.021-3.107-3.021-3.107L103.611,340.219z"/>
			<polygon style="opacity:0.3;fill:#FFFFFF;" points="110.909,357.802 113.068,368.41 119.357,370.689 123.612,366.979 
				122.834,356.961 			"/>
			<path style="fill:#407BFF;" d="M104.376,339.298l-1.991,0.486c-0.006-0.002-0.076,0.126-0.028,0.046
				c0.028-0.046-1.089,3.772-1.089,3.772c0.322,0.284,1.392,2.134,1.516,2.104c0.124-0.03,2.767-0.276,2.767-0.276l0.959-2.799
				C106.51,342.63,104.36,339.275,104.376,339.298z"/>
			<path style="opacity:0.2;" d="M104.376,339.298l-1.991,0.486c-0.006-0.002-0.076,0.126-0.028,0.046
				c0.028-0.046-1.089,3.772-1.089,3.772c0.322,0.284,1.392,2.134,1.516,2.104c0.124-0.03,2.767-0.276,2.767-0.276l0.959-2.799
				C106.51,342.63,104.36,339.275,104.376,339.298z"/>
		</g>
		<g>
			<path style="fill:#B97964;" d="M82.405,354.487c0,0,4.726,31.447,7.456,34.387c4.613,4.967,27.463,18.148,27.463,18.148
				l11.405-3.999c0.799-0.262,1.683-0.119,2.336,0.38l7.798,5.952l-0.745,0.628c-0.321,0.271-0.787,0.326-1.166,0.137l-1.212-0.603
				l1.355,1.328l-0.429,0.362c-0.427,0.36-1.019,0.489-1.567,0.342l-3.487-0.935l3.218,2.142c-0.718,0.605-1.718,0.816-2.636,0.554
				l-5.101-1.454c-3.479,0.796-7.023,1.304-10.591,1.517c-6.006,0.37-34.371-9.541-39.658-16.797
				c-5.287-7.256-10.738-37.386-10.738-37.386L82.405,354.487z"/>
			<g>
				<path style="fill:#407BFF;" d="M67.312,375.407c0,0-7.068-28.501,2.231-35.407c9.299-6.906,18.51,29.15,18.51,29.15
					L67.312,375.407z"/>
				<path style="opacity:0.3;fill:#FFFFFF;" d="M67.312,375.407c0,0-7.068-28.501,2.231-35.407c9.299-6.906,18.51,29.15,18.51,29.15
					L67.312,375.407z"/>
			</g>
		</g>
		<g>
			<g>
				<path style="fill:#263238;" d="M128.176,301.687c1.18-0.113,2.194-1.18,2.246-2.365c0.052-1.185-0.863-2.337-2.029-2.554
					l-5.514-0.553c0.262,3.54,0.525,7.079,0.787,10.619c1.067,0.275,2.216,0.331,3.258-0.027c1.042-0.357,1.959-1.17,2.273-2.226
					C129.512,303.526,129.121,302.253,128.176,301.687z"/>
			</g>
			<g>
				<path style="fill:#B97964;" d="M107.106,322.101l-11.848-14.908c0,0-0.005,0.012-0.008,0.052
					c-0.003,1.409-0.047,3.02-0.163,4.738c-0.005,0.012-1.272-0.609-1.277-0.597c-0.507,7.746-3.57,20.96-3.428,22.103l12.45,6.186
					l2.269-2.267l0.436-5.04C104.285,329.213,105.465,325.535,107.106,322.101z"/>
				<path style="opacity:0.2;" d="M105.333,327.129l-7.494-5.923c-0.187,3.015,1.389,7.75,7.398,10.212
					C104.881,329.606,105,328.321,105.333,327.129z"/>
			</g>
			<g>
				<path style="fill:#B97964;" d="M97.787,299.802c-2.452,10.033-3.376,14.851,0.051,21.405c5.155,9.859,17.746,9.943,23.161,0.818
					c4.874-8.213,8.066-23.24-0.402-30.064C112.255,285.238,100.24,289.769,97.787,299.802z"/>
				<path style="fill:#263238;" d="M99.905,286.184c3.036-5.006,10.983-5.817,13.92-1.866c0.439,0.59-4.309,0.733-3.766,0.707
					l-2.783,7.903c-0.544-0.311-1.903,0.015-3.06,1.645c0,0-1.79,10.873-7.424,13.914C91.26,300.854,91.892,286.199,99.905,286.184z
					"/>
				<path style="fill:#B97964;" d="M91.351,306.801c0,2.779,1.292,5.289,2.944,6.866c2.485,2.371,5.369,0.538,6.053-2.651
					c0.616-2.87,0.066-7.561-3.089-8.725C94.15,301.145,91.351,303.624,91.351,306.801z"/>
				<path style="fill:#263238;" d="M111.372,308.208c-0.313,1.008-0.03,1.985,0.631,2.183c0.661,0.198,1.451-0.457,1.764-1.465
					c0.313-1.007,0.03-1.985-0.631-2.183C112.475,306.545,111.685,307.201,111.372,308.208z"/>
				<path style="fill:#263238;" d="M121.253,311.419c-0.313,1.007-0.03,1.985,0.631,2.183c0.662,0.198,1.451-0.458,1.765-1.465
					c0.313-1.008,0.03-1.985-0.631-2.183C122.356,309.756,121.566,310.412,121.253,311.419z"/>
				<path style="fill:#A24E3F;" d="M117.774,308.727c0,0,1.252,4.591,1.825,7.317c0.137,0.652-0.35,1.288-1.016,1.307
					c-1.452,0.039-2.815-0.774-2.815-0.774L117.774,308.727z"/>
				<path style="fill:#263238;" d="M110.319,302.165c0.133,0.109,0.32,0.147,0.494,0.081c2.069-0.78,3.556,0.267,3.571,0.277
					c0.221,0.159,0.531,0.111,0.693-0.108c0.161-0.219,0.112-0.527-0.107-0.686c-0.078-0.057-1.941-1.37-4.508-0.401
					c-0.256,0.097-0.385,0.38-0.289,0.634C110.205,302.044,110.256,302.112,110.319,302.165z"/>
				<path style="fill:#263238;" d="M126.497,306.836c0.093-0.014,0.183-0.054,0.258-0.122c0.204-0.182,0.224-0.495,0.044-0.699
					c-1.806-2.038-4.05-1.697-4.152-1.694c-0.269,0.043-0.456,0.295-0.416,0.565c0.039,0.269,0.287,0.453,0.555,0.413
					c0.093-0.018,1.825-0.259,3.275,1.377C126.173,306.805,126.339,306.859,126.497,306.836z"/>
			</g>
			<g>
				<path style="fill:#263238;" d="M110.542,318.629c0.344,0.281,0.713,0.531,1.102,0.746c0.126,0.067,0.282,0.034,0.369-0.08l0,0
					c0.057-0.136,0.004-0.292-0.123-0.366c-2.013-1.081-3.389-3.06-3.703-5.324c-0.016-0.141-0.138-0.245-0.28-0.241
					c-0.129-0.007-0.239,0.092-0.245,0.221c-0.001,0.02,0,0.039,0.004,0.059C107.903,315.63,108.942,317.431,110.542,318.629z"/>
			</g>
			<g>
				<path style="fill:#263238;" d="M133.149,294.204c-0.675-2.004-3.061-2.845-5.171-2.996c1.323-0.025,2.364-1.368,2.367-2.691
					c0.003-1.323-0.817-2.537-1.857-3.355c-1.859-1.46-4.511-1.839-6.704-0.958c0.415-0.201,0.564-0.754,0.431-1.196
					c-0.133-0.442-0.481-0.785-0.847-1.065c-2.233-1.706-5.691-1.535-7.746,0.382c-0.717-2.428-3.529-4.016-5.979-3.378
					c-2.389,0.623-6.891,1.102-7.587,7.217c-2.026-1.44-5.169-1.134-6.771,0.801c-1.732,2.091-1.283,5.618,0.918,7.208
					c-1.092-0.46-2.449,0.249-2.899,1.346c-0.449,1.096-0.101,2.409,0.661,3.316c0.762,0.907,1.876,1.457,3.015,1.781
					c1.073,0.306,2.234,0.431,3.3,0.1s2.014-1.185,2.227-2.281c0.18,1.149,1.387,2.001,2.543,1.879
					c1.157-0.122,2.131-1.124,2.321-2.271c0.189-1.147-0.358-2.358-1.284-3.062c1.316,1.275,3.861,0.773,4.595-0.906
					c0.975,1.872,2.366,3.639,4.304,4.475c1.938,0.836,4.492,0.483,5.732-1.225c0.63,0.734,1.272,1.478,2.087,1.999
					c0.815,0.521,1.842,0.794,2.763,0.499c0.921-0.295,1.645-1.269,1.45-2.216c1.523,1.27,3.667,1.929,5.542,1.286
					C132.434,298.251,133.782,296.083,133.149,294.204z"/>
			</g>
		</g>
		<g>
			<g>
				<path style="fill:#263238;" d="M143.429,411.633h-17.541h-18.614c0,0.004,0,0.008,0,0.012c0.009,1.38,1.551,2.494,3.443,2.488
					h18.597h10.639c0.016,0,0.033,0,0.049,0c0.001,0,0.002,0,0.003,0h29.606c1.877-0.013,3.387-1.13,3.378-2.5H143.429z"/>
			</g>
			<path style="fill:#263238;" d="M170.153,413.992h-33.03c-0.57-0.004-1.028-0.378-1.024-0.835
				c0.001-0.086,0.018-0.171,0.052-0.253l14.693-33.686c0.371-0.962,1.477-1.62,2.732-1.624h33.05c0.559,0,1.012,0.364,1.012,0.813
				c0,0.094-0.021,0.187-0.06,0.276l-14.693,33.686C172.509,413.327,171.406,413.982,170.153,413.992z"/>
			<path style="opacity:0.7;fill:#FFFFFF;enable-background:new    ;" d="M186.628,377.593h-33.05
				c-1.255,0.005-2.361,0.662-2.732,1.624l-14.139,32.416h-10.819h-18.614c0,0.004,0,0.008,0,0.012
				c0.009,1.38,1.551,2.494,3.443,2.488h18.597h10.639c0.016,0,0.033,0,0.049,0c0.001,0,0.002,0,0.003,0h29.606
				c0.595-0.004,1.145-0.129,1.63-0.328c0.768-0.259,1.383-0.772,1.644-1.437l14.693-33.686c0.04-0.089,0.06-0.182,0.06-0.276
				C187.639,377.957,187.187,377.593,186.628,377.593z"/>
			<path style="fill:#FFFFFF;" d="M166.779,395.527c-0.714,1.617-2.161,2.727-3.239,2.501c-1.079-0.226-1.366-1.699-0.674-3.32
				c0.693-1.621,2.156-2.706,3.235-2.48C167.18,392.454,167.502,393.868,166.779,395.527z"/>
			<g style="opacity:0.3;">
				
					<line style="fill:none;stroke:#000000;stroke-width:0;stroke-linecap:round;stroke-linejoin:round;" x1="136.1" y1="411.633" x2="136.706" y2="411.633"/>
				<path d="M150.845,379.217l-14.139,32.416h1.531l15.34-34.04C152.323,377.598,151.217,378.255,150.845,379.217z"/>
			</g>
		</g>
		<g>
			<g>
				<g>
					<g>
						<g>
							<g>
								<polygon style="fill:#B97964;" points="152.552,448.996 173.827,452.42 177.241,443.646 154.879,436.669 								"/>
							</g>
						</g>
					</g>
				</g>
				<g>
					<g>
						<g>
							<g>
								<g>
									<g>
										<g>
											<g>
												<g>
													<g>
														<g>
															<g>
																<path style="fill:#263238;" d="M183.287,456.847l2.874-5.94c0,0-0.817-1.101-0.243-2.378
																	c0.322-0.718,2.108-1.901,2.108-1.901l8.024-16.276c-0.024-0.012-1.114-0.553-1.686-0.61
																	c-0.697-0.07-1.32-0.061-1.88,0.013c-1.957,0.261-3.498,1.787-4.597,2.955c-1.841,1.957-8.198,6.808-8.198,6.808
																	s-1.796,1.14-4.606,1.057c-1.567-0.046-2.824,0.534-3.26,1.196c-0.892,1.349-0.429,2.561,0.811,3.419l1.442,0.994
																	c0.316,1.517-0.435,2.941-2.024,3.549c0,0-3.298,2.173-1.676,2.753c0.926,0.331,5.122,1.652,8.405,2.795
																	c0.766,0.266,1.489,0.519,2.124,0.74l0.001-0.001C182.317,456.51,183.287,456.847,183.287,456.847z"/>
															</g>
														</g>
													</g>
												</g>
											</g>
										</g>
										<g>
											<g>
												<g>
													<g>
														<path style="fill:#407BFF;" d="M182.966,436.83c-0.102,0.041-0.164,0.15-0.152,0.261c0.053,0.508,0.235,1,0.555,1.43
															c0.169,0.227,0.557-0.022,0.387-0.251c-0.284-0.382-0.447-0.815-0.494-1.258c-0.016-0.148-0.155-0.239-0.292-0.184
															C182.969,436.828,182.967,436.829,182.966,436.83z"/>
													</g>
												</g>
											</g>
										</g>
										<g>
											<g>
												<g>
													<g>
														<path style="fill:#407BFF;" d="M181.671,437.753c-0.102,0.041-0.164,0.15-0.152,0.261
															c0.053,0.508,0.235,1.001,0.555,1.43c0.169,0.227,0.557-0.022,0.387-0.251c-0.284-0.382-0.447-0.815-0.494-1.258
															c-0.016-0.148-0.155-0.239-0.292-0.184C181.674,437.751,181.673,437.752,181.671,437.753z"/>
													</g>
												</g>
											</g>
										</g>
										<g>
											<g>
												<g>
													<g>
														<path style="fill:#407BFF;" d="M180.403,438.737c-0.102,0.041-0.164,0.15-0.152,0.261
															c0.053,0.508,0.235,1.001,0.555,1.43c0.169,0.227,0.558-0.022,0.387-0.251c-0.284-0.382-0.447-0.814-0.494-1.258
															c-0.016-0.148-0.155-0.239-0.292-0.184C180.406,438.736,180.404,438.736,180.403,438.737z"/>
													</g>
												</g>
											</g>
										</g>
									</g>
								</g>
							</g>
						</g>
					</g>
				</g>
				<path style="opacity:0.2;fill:#FFFFFF;enable-background:new    ;" d="M185.917,448.528c0.322-0.718,2.108-1.901,2.108-1.901
					l8.024-16.276c-0.024-0.012-1.114-0.553-1.686-0.61c-0.32-0.032-0.621-0.043-0.911-0.043l-12.901,26.199
					c0.116,0.04,0.243,0.085,0.354,0.124l0.001-0.001c1.41,0.491,2.379,0.828,2.379,0.828l2.874-5.94
					C186.161,450.907,185.344,449.806,185.917,448.528z"/>
				<path style="fill:none;stroke:#407BFF;stroke-width:0.25;stroke-miterlimit:10;" d="M180.517,438.98
					c-0.589-0.229-1.181-0.46-1.721-0.788c-0.54-0.328-1.029-0.763-1.33-1.319c-0.14-0.258-0.235-0.583-0.089-0.838
					c0.153-0.268,0.51-0.344,0.817-0.312c0.591,0.062,1.124,0.421,1.487,0.891C180.044,437.084,180.384,438.401,180.517,438.98"/>
				<path style="fill:none;stroke:#407BFF;stroke-width:0.25;stroke-miterlimit:10;" d="M180.483,439.049
					c-0.631-0.034-1.266-0.069-1.893,0.008c-0.627,0.076-1.253,0.271-1.756,0.652c-0.234,0.177-0.454,0.434-0.427,0.727
					c0.029,0.307,0.323,0.524,0.616,0.622c0.564,0.188,1.197,0.08,1.722-0.198C179.27,440.582,180.123,439.522,180.483,439.049"/>
			</g>
			<path style="fill:#263238;" d="M72.605,439.295c-4.589-7.307-14.959-27.11,6.087-30.968s91.362,29.558,91.362,29.558
				l-4.456,13.419l-65.447-10.317c0,0,8.955,11.955-1.906,11.41C82.445,450.834,78.652,447.054,72.605,439.295z"/>
			<path style="opacity:0.7;enable-background:new    ;" d="M101.704,441.347l-17.955-5.649c0,0,15.063,9.215,20.588,10.311
				L101.704,441.347z"/>
		</g>
	</g>
</g>
<g id="Speech_Bubble">
	<g>
		<g>
			<g>
				<g>
					<path style="fill:#407BFF;" d="M35.002,270.842h36.596c3.308,0,5.99,2.682,5.99,5.99v19.758c0,3.308-2.682,5.99-5.99,5.99
						h-8.755l-0.065,5.977l-6.592-5.977H35.001c-3.308,0-5.99-2.682-5.99-5.99v-19.758
						C29.011,273.524,31.693,270.842,35.002,270.842z"/>
				</g>
			</g>
		</g>
		<g>
			<g>
				<path style="fill:#FFFFFF;" d="M48.794,283.59l-5.77,2.695l5.77,2.694v2.173l-7.71-3.739v-2.256l7.71-3.74V283.59z"/>
				<path style="fill:#FFFFFF;" d="M66.354,285.157v2.256l-7.711,3.739v-2.173l5.77-2.694l-5.77-2.695v-2.173L66.354,285.157z"/>
			</g>
			<g>
				<polygon style="fill:#FFFFFF;" points="55.067,279.904 51.307,292.898 53.187,292.898 56.946,279.904 				"/>
			</g>
		</g>
		<g>
			<path style="fill:#407BFF;" d="M63.152,269.493H44.355c-0.138,0-0.25-0.112-0.25-0.25c0-0.138,0.112-0.25,0.25-0.25h18.796
				c0.138,0,0.25,0.112,0.25,0.25C63.402,269.381,63.29,269.493,63.152,269.493z"/>
		</g>
		<g>
			<path style="fill:#407BFF;" d="M68.337,269.501h-2.966c-0.138,0-0.25-0.112-0.25-0.25c0-0.138,0.112-0.25,0.25-0.25h2.966
				c0.138,0,0.25,0.112,0.25,0.25C68.587,269.389,68.475,269.501,68.337,269.501z"/>
		</g>
	</g>
</g>
</svg>
