<?xml version="1.0" encoding="utf-8"?>
<!-- Generator: Adobe Illustrator 27.5.0, SVG Export Plug-In . SVG Version: 6.00 Build 0)  -->
<svg version="1.1" id="Layer_1" xmlns="http://www.w3.org/2000/svg" xmlns:xlink="http://www.w3.org/1999/xlink" x="0px" y="0px"
	 viewBox="0 0 2318.404 2000" style="enable-background:new 0 0 2318.404 2000;" xml:space="preserve">
<rect x="-0.001" y="0.001" style="fill:#FFFFFF;" width="2318.404" height="2000"/>
<g>
	<g>
		<path style="fill:#FDE0DA;" d="M1904.464,1817.208c0,0,148.625-219.197,232.909-500.704
			c108.031-360.821,46.907-816.814-264.822-996.1c-266.053-153.015-595.597-21.001-595.597-21.001S860.433,57.315,545.309,331.03
			C294.372,548.992,383.071,942.054,383.071,942.054s-185.428,99.064-203.585,332.86
			c-23.553,303.268,217.676,541.107,217.676,541.107L1904.464,1817.208z"/>
	</g>
	<g>
		<path style="fill:#F47458;" d="M252.091,1833.094h1743.38c8.09,0,14.647-6.559,14.647-14.648v-0.002
			c0-8.089-6.557-14.647-14.647-14.647H252.091c-8.09,0-14.648,6.559-14.648,14.649l0,0
			C237.442,1826.535,244.001,1833.094,252.091,1833.094z"/>
	</g>
	<g>
		<g>
			<g>
				<path style="fill:#13375B;" d="M866.769,1804.344h584.861c46.129,0,83.521-37.393,83.521-83.519l0.001-1256
					c0-46.128-37.394-83.521-83.522-83.521H866.769c-46.127,0-83.519,37.394-83.519,83.521v1256
					C783.25,1766.951,820.643,1804.344,866.769,1804.344z"/>
				<path style="fill:#A4CBE0;" d="M1493.223,1633.624V478.558c0-29.808-24.164-53.973-53.973-53.973H879.153
					c-29.808,0-53.973,24.164-53.973,53.973v1155.066c0,29.809,24.165,53.972,53.973,53.972h560.097
					C1469.059,1687.596,1493.223,1663.433,1493.223,1633.624z"/>
			</g>
		</g>
	</g>
	<g>
		<g>
			<path style="fill:#F47458;" d="M1982.47,1255.622h-656.853c-20.917,0-37.874,14.884-37.874,33.243v183.06
				c0,18.359,16.957,33.243,37.874,33.243h72.141l-23.995,69.853l77.422-69.853h531.285c20.917,0,37.874-14.884,37.874-33.243
				v-183.06C2020.344,1270.506,2003.387,1255.622,1982.47,1255.622z"/>
			<g>
				<path style="fill:#ABABAB;" d="M1950.49,1348.824h-592.894c-5.295,0-9.588-4.292-9.588-9.587l0,0
					c0-5.294,4.293-9.587,9.588-9.587h592.894c5.295,0,9.588,4.293,9.588,9.587l0,0
					C1960.078,1344.532,1955.785,1348.824,1950.49,1348.824z"/>
				<path style="fill:#ABABAB;" d="M1950.49,1382.98h-592.894c-5.295,0-9.588-4.293-9.588-9.588l0,0
					c0-5.295,4.293-9.588,9.588-9.588h592.894c5.295,0,9.588,4.293,9.588,9.588l0,0
					C1960.078,1378.688,1955.785,1382.98,1950.49,1382.98z"/>
				<path style="fill:#ABABAB;" d="M1804.012,1420.73h-446.415c-5.295,0-9.588-4.293-9.588-9.588l0,0
					c0-5.295,4.293-9.587,9.588-9.587h446.415c5.295,0,9.588,4.292,9.588,9.587l0,0
					C1813.6,1416.438,1809.307,1420.73,1804.012,1420.73z"/>
			</g>
		</g>
		<g>
			<path style="fill:#F47458;" d="M2068.636,666.875h-656.853c-20.917,0-37.874,15.213-37.874,33.979v187.113
				c0,18.766,16.957,33.979,37.874,33.979h70.478l-22.332,66.452l72.058-66.452h536.649c20.917,0,37.874-15.213,37.874-33.979
				V700.854C2106.51,682.088,2089.553,666.875,2068.636,666.875z"/>
			<g>
				<path style="fill:#ABABAB;" d="M2026.282,785.901h-572.146c-4.934,0-8.933-4-8.933-8.934v-1.732
					c0-4.934,3.999-8.934,8.933-8.934h572.146c4.934,0,8.933,4,8.933,8.934v1.732
					C2035.215,781.901,2031.216,785.901,2026.282,785.901z"/>
				<path style="fill:#ABABAB;" d="M2026.282,820.813h-572.146c-4.934,0-8.933-4-8.933-8.934v-1.733
					c0-4.933,3.999-8.933,8.933-8.933h572.146c4.934,0,8.933,4,8.933,8.933v1.733
					C2035.215,816.813,2031.216,820.813,2026.282,820.813z"/>
				<path style="fill:#ABABAB;" d="M2026.282,750.854h-572.146c-4.934,0-8.933-3.999-8.933-8.933v-1.733
					c0-4.934,3.999-8.933,8.933-8.933h572.146c4.934,0,8.933,4,8.933,8.933v1.733
					C2035.215,746.856,2031.216,750.854,2026.282,750.854z"/>
				<path style="fill:#ABABAB;" d="M1885.083,859.398h-430.946c-4.934,0-8.933-4-8.933-8.933v-1.733
					c0-4.934,3.999-8.933,8.933-8.933h430.946c4.934,0,8.933,3.999,8.933,8.933v1.733
					C1894.016,855.398,1890.017,859.398,1885.083,859.398z"/>
			</g>
		</g>
		<g>
			<path style="fill:#13375B;" d="M1897.513,365.973c-0.657-15.841,1.677-31.483,8.763-46.23
				c6.098-12.689,21.186-19.888,34.944-19.906c43.689-0.057,49.245,57.667,77.056,79.934c8.498,6.804,17.996,12.345,26.038,19.684
				c29.692,27.093,16.318,77.244-10.947,100.996c-18.919,16.482-48.654,25.847-71.973,12.962
				c-12.173-6.725-21.413-17.906-27.996-30.156c-9.343-17.386-15.366-37.445-22.011-55.975
				C1904.313,407.559,1898.386,387.028,1897.513,365.973z"/>
			<path style="fill:#F48C7F;" d="M1782.891,572.88l82.296-31.613c0,0,21.731-43.028,47.473-86.999
				c10.069,6.256,5.138,36.427,15.248,42.588c0,0-44.192,65.511-50.341,68.219c-6.149,2.708-88.406,20.489-88.406,20.489
				l-28.617,8.976l-4.259-18.654L1782.891,572.88z"/>
			<path style="fill:#F47458;" d="M1913.851,511.771c0,0,32.629-33.457,41.026-47.992c8.396-14.537-5.718-5.073-20.135-8.898
				c-5.459-1.448-3.947-33.31-14.398-23.042c-13.759,13.518-34.759,56.9-34.759,56.9L1913.851,511.771z"/>
			<path style="fill:#F7CC7F;" d="M1960.243,417.162c0,0,29.282-5.78,42.645,5.385c13.362,11.163-2.862,110.42-2.849,126.876
				c0.014,16.454,9.175,62.944,9.175,62.944s-88.751,15.534-102.849-9.167c0,0-4.011-94.108-3.413-105.943
				c0.598-11.833,13.756-60.234,17.393-65.417C1923.981,426.656,1960.243,417.162,1960.243,417.162z"/>
			<path style="fill:#F7A491;" d="M1960.427,371.868c0,0,0.153,0.874,0.431,2.365c1.328,7.146,6.443,30.856,9.897,37.374
				c4.175,7.876-14.294,33-32.071,29.934c-5.292-0.913,4.473-23.083,4.004-25.432c-0.899-4.495-2.116-10.628-3.363-16.916
				c-0.703-3.548-1.414-7.144-2.084-10.524c-1.901-9.607-3.452-17.464-3.452-17.464L1960.427,371.868z"/>
			<path style="fill:#F47458;" d="M1960.857,374.233c-0.277-1.491-0.431-2.365-0.431-2.365l-26.639-0.664
				c0,0,1.551,7.858,3.452,17.464c0.666,3.361,1.374,6.936,2.072,10.465c4.113-0.604,8.41-2.6,12.719-6.364
				c4.698-4.104,7.777-9.035,9.635-14.3C1961.337,376.789,1961.063,375.341,1960.857,374.233z"/>
			<path style="fill:#F7A491;" d="M1942.498,311.439c0,0,12.555-1.447,20.426,8.711c7.871,10.16,16.354,41.575-3.198,58.655
				c-19.551,17.08-38.868-2.253-41.732-22.752C1915.129,335.553,1914.016,310.699,1942.498,311.439z"/>
			<path style="fill:#F7A491;" d="M1912.209,355.749c2.334,4.528,6.251,7.035,8.75,5.6c2.498-1.435,2.631-6.268,0.298-10.796
				c-2.334-4.527-6.251-7.034-8.749-5.599C1910.01,346.388,1909.876,351.221,1912.209,355.749z"/>
			<path style="fill:#13375B;" d="M1941.094,308.08c0,0,16.773,29.874,28.773,31.255c12,1.38,13.576,17.256,13.576,17.256
				s-4.291-36.579-16.171-43.633C1955.392,305.903,1941.094,308.08,1941.094,308.08z"/>
			<path style="fill:#F7A491;" d="M1966.721,346.843c-0.976,5.306,0.986,10.169,4.384,10.866c3.397,0.697,6.942-3.039,7.919-8.345
				c0.976-5.305-0.988-10.17-4.385-10.867C1971.241,337.8,1967.696,341.537,1966.721,346.843z"/>
			<g>
				<path style="fill:#F48C7F;" d="M1853.827,838.872c0,0,26.939,32.301,27.117,35.112c0.178,2.811,1.249,28.857,1.65,33.101
					c0.591,6.251,23.698-14.946,25.047-18.938c1.958-5.797,6.72-18.855,4.939-22.896c-0.867-1.969-5.017-6.015-10.864-9.79
					c-6.15-3.973-29.673-36.703-29.673-36.703L1853.827,838.872z"/>
				<path style="fill:#355389;" d="M1901.336,855.269c0,0-11.66,49.356-18.741,51.815c-0.688,14.932-4.207,34.834-2.751,37.093
					c2.111,3.278,7.111,2.726,7.111,2.726s12.89-16.318,19.674-52.112c2.224-11.737,11.563-31.18,10.164-33.197
					C1912.972,856.084,1901.336,855.269,1901.336,855.269z"/>
				<path style="fill:#F7A491;" d="M1692.464,855.718c0,0-21.999,30.972-20.063,40.77c1.036,5.247,5.65,12.113,3.002,17.051
					c-2.648,4.938-9.071,2.464-9.071,2.464l-61.227,2.375c-3.738,0.06-5.269,0.095-2.255-2.116
					c4.934-3.621,8.914-6.014,24.674-13.622c1.027-0.496,4.769-2.871,6.119-3.693c3.422-2.085,6.858-5.368,9.816-8.654
					c4.927-5.475,26.596-50.089,26.596-50.089L1692.464,855.718z"/>
				<path style="fill:#355389;" d="M1633.651,898.941c18.149,4.648,31.566,1.488,39.07-1.532c1.935,5.474,4.501,12.341,3.141,16.303
					c-1.666,4.848-4.038,5.944-6.134,5.998c-16.578,0.435-60.725,1.027-73.364,1.191c-1.766,0.022-2.739-2.035-1.605-3.388
					C1597.895,913.777,1632.299,899.768,1633.651,898.941z"/>
				<path style="fill:#13375B;" d="M1772.037,663.313c0,0,27.242,31.092,34.188,36.016c6.948,4.925,73.626,127.708,73.626,127.708
					l-23.754,17.342c0,0-59.592-74.304-87.578-114.048c-23.663-33.605-21.468-37.451-35.383-57.907
					c-7.661-11.262-5.924-26.49,4.178-35.625c1.257-1.137,2.623-2.323,4.106-3.56c20.599-17.169,164.943-30.04,164.943-30.04
					l82.221,13.989c0,0-62.331,46.125-65.085,47.502c-2.754,1.377-101.893,15.835-103.958,15.835
					C1817.476,680.525,1772.037,663.313,1772.037,663.313z"/>
				<path style="fill:#355389;" d="M2009.214,612.367c0,0,15.226,42.228-6.401,60.315c-29.029,24.278-162.616,27.119-208.056,27.119
					c0,0-18.589,50.947-20.653,59.209c-2.066,8.261-92.255,114.974-92.255,114.974l-24.785-15.835
					c0,0,97.074-188.64,104.648-196.901c7.572-8.262,115.662-41.309,142.512-48.881
					C1931.072,604.794,2009.214,612.367,2009.214,612.367z"/>
			</g>
			<path style="fill:#F7A491;" d="M1878.887,582.443l68.932-48.743c0,0,12.647-46.86,26.271-88.343
				c10.999,4.425,20.279,14.423,31.301,18.751l-31.058,88.552c-1.12,3.192-3.534,5.767-6.649,7.088l-80.434,34.108
				c-23.582,15.144-37.367,16.632-47.665,21.216l-9.417-20.833L1878.887,582.443z"/>
			<path style="fill:#F47458;" d="M1997.254,510.824c0,0,17.122-43.484,19.232-60.137c2.111-16.653-13.063-36.691-27.836-34.633
				c-14.772,2.059-33.443,76.602-33.443,76.602L1997.254,510.824z"/>
			<g>
				<path style="fill:#5788D1;" d="M1687.684,515.463l135.603-9.682c3.589-0.256,6.976,1.681,8.573,4.903l49.024,98.853
					l74.759-5.337c2.09-0.15,3.905,1.423,4.055,3.512l0,0c0.149,2.089-1.424,3.903-3.515,4.053l-212.77,15.192
					c-5.85,0.418-11.399-2.637-14.177-7.803l-48.729-90.651C1677.465,522.839,1681.271,515.921,1687.684,515.463z"/>
				<path style="fill:#FFFFFF;" d="M1764.928,569.549c1.242,4.509,5.45,7.282,9.398,6.196c3.949-1.087,6.142-5.624,4.9-10.132
					c-1.243-4.509-5.451-7.283-9.399-6.195C1765.879,560.504,1763.684,565.041,1764.928,569.549z"/>
			</g>
			<path style="fill:#FFFFFF;" d="M1934.941,367.517l18.42-0.954c0,0-0.063,7.018-8.15,7.672
				C1935.349,375.031,1934.941,367.517,1934.941,367.517z"/>
			<path style="fill:#FFFFFF;" d="M1934.941,367.517l18.42-0.954c0,0-0.063,7.018-8.15,7.672
				C1935.349,375.031,1934.941,367.517,1934.941,367.517z"/>
		</g>
	</g>
	<g>
		<g>
			<path style="fill:#F7CE83;" d="M1111.676,994.697H454.823c-20.918,0-37.874,13.598-37.874,30.369v167.234
				c0,16.772,16.957,30.369,37.874,30.369h565.576l67.816,55.897l-21.018-55.897h44.479c20.917,0,37.874-13.597,37.874-30.369
				v-167.234C1149.55,1008.295,1132.593,994.697,1111.676,994.697z"/>
			<g>
				<path style="fill:#ABABAB;" d="M1053.006,1113.819H513.493c-4.834,0-8.753-3.919-8.753-8.753v-0.012
					c0-4.834,3.919-8.752,8.753-8.752h539.513c4.833,0,8.752,3.918,8.752,8.752v0.012
					C1061.759,1109.9,1057.84,1113.819,1053.006,1113.819z"/>
				<path style="fill:#ABABAB;" d="M1053.006,1145.021H513.493c-4.834,0-8.753-3.918-8.753-8.752v-0.013
					c0-4.834,3.919-8.753,8.753-8.753h539.513c4.833,0,8.752,3.919,8.752,8.753v0.013
					C1061.759,1141.104,1057.84,1145.021,1053.006,1145.021z"/>
				<path style="fill:#ABABAB;" d="M1053.006,1081.966H513.493c-4.834,0-8.753-3.919-8.753-8.753v-0.012
					c0-4.834,3.919-8.752,8.753-8.752h539.513c4.833,0,8.752,3.918,8.752,8.752v0.012
					C1061.759,1078.047,1057.84,1081.966,1053.006,1081.966z"/>
				<path style="fill:#ABABAB;" d="M1053.006,1050.908H513.493c-4.834,0-8.753-3.918-8.753-8.752v-0.013
					c0-4.833,3.919-8.753,8.753-8.753h539.513c4.833,0,8.752,3.92,8.752,8.753v0.013
					C1061.759,1046.99,1057.84,1050.908,1053.006,1050.908z"/>
				<path style="fill:#ABABAB;" d="M919.703,1179.508h-406.21c-4.834,0-8.753-3.918-8.753-8.752v-0.012
					c0-4.834,3.919-8.752,8.753-8.752h406.21c4.833,0,8.752,3.918,8.752,8.752v0.012
					C928.455,1175.59,924.536,1179.508,919.703,1179.508z"/>
			</g>
		</g>
		<g>
			<polygon style="fill:#F79C8D;" points="641.294,825.208 651.306,855.244 620.793,843.244 			"/>
			<path style="fill:#D9E2F2;" d="M609.838,735.824c2.035,0.084,7.608,1.943,15.759,17.296c10.41,19.605,25.624,78.83,25.624,78.83
				l-45.412,16.854l-5.834-12.361l-9.609-95.169C590.366,741.274,609.274,735.801,609.838,735.824z"/>
			<path style="fill:#FFFFFF;" d="M549.809,727.287c12.985,0.017,45.116,3.794,60.029,8.541c0,0,10.955,93.842-9.863,165.149
				c-4.661,15.962,3.854,66.17,3.854,66.17l-134.562-1.77c0,0,15.941-121.378,9.936-140.983
				c-6.005-19.606-6.148-87.933-6.148-87.933s0.922-0.144,30.233-5.193C516.959,728.912,535.943,727.269,549.809,727.287z"/>
			<path style="fill:#F7A491;" d="M534.129,1141.32c0,0,2.977,34.242,8.45,43.725c5.473,9.482-0.288,25.602-0.576,27.814
				c-0.288,2.213-11.523,5.374-29.384,3.478c-17.86-1.896-17.572-6.005-16.132-12.644c1.44-6.638,10.947-15.171,11.522-21.493
				c0.576-6.321-5.473-29.079-5.473-29.079L534.129,1141.32z"/>
			<path style="fill:#13375B;" d="M588.647,938.883c0,0,92.887-5.14,113.63,7.38c20.742,12.519-3.751,38.227-3.751,38.227
				s-75.62,32.767-202.221,40.048c-29.979,1.725-32.563-77.904-26.957-84.493C474.953,933.457,588.647,938.883,588.647,938.883z"/>
			<path style="fill:#13375B;" d="M509.972,1222.822c-18.391-1.953-16.117-10.957-14.634-17.792
				c0.929-4.279,6.204-9.325,9.35-14.097c1.645,1.305,4.318,3.608,12.305,5.96c8.295,2.44,19.664-2.392,26.908-5.417
				c2.582,9.577,2.7,21.791,2.459,23.643C546.063,1217.399,528.364,1224.775,509.972,1222.822z"/>
			<path style="fill:#4E6984;" d="M520.543,1005.111c3.711,27.986,22.086,167.31,22.086,167.31l-42.635,5.269
				c0,0-52.429-181.852-49.741-209.667c2.689-27.815,22.314-30.155,22.314-30.155S510.721,931.025,520.543,1005.111z"/>
			<path style="fill:#F7A491;" d="M471.59,746.89c12.582-4.703,18.736,108.272,20.433,154.774
				c22.279,2.136,61.113,0.016,70.783-0.708c4.547-0.341,15.034-4.169,19.556-4.759c4.635-0.606,8.837-0.919,11.114-0.524
				c0.837,0.146,24.06,9.61,26.047,11.685c2.464,2.573,9.125,9.066,8,11.874c-1.123,2.809-12.81-7.823-12.81-7.823l-5.711-3.193
				c7.11,6.922,20.671,16.038,18.718,19.357c-1.905,3.237-14.138-6.014-22.855-12.319c7.478,6.732,16.767,18.777,14.627,20.654
				c-1.924,1.688-12.49-12.257-23.784-16.273c-4.185-1.488-8.357,2.633-11.649,3.131c-2.419,0.366-6.155,1.145-8.528,0.473
				l-12.228-3.455c-4.165,0.375-4.269,2.831-8.476,3.723c-4.883,1.035-12.895,2.127-19.114,3.641
				c-35.811,8.72-47.755,12.769-58.72,12.763C443.782,939.892,441.856,758.007,471.59,746.89z"/>
			<path style="fill:#D9E2F2;" d="M447.714,852.956c-2.356-47.632-2.012-106.34,24.78-116.357
				c10.571-3.952,29.207,19.812,25.855,117.325C484.046,855.099,463.049,856.047,447.714,852.956z"/>
			<path style="fill:#F7A491;" d="M658.802,1169.047c0,0-3.721,11.887,2.941,19.748c6.661,7.86,34.341,15.573,37.974,19.832
				c3.633,4.257,3.358,7.883,3.358,7.883l-77.688-2.131l0.846-23.383l3.577-16.804L658.802,1169.047z"/>
			<path style="fill:#13375B;" d="M666.575,1192.715c0,0-19.963,8.047-29.605,3.283c-9.642-4.766-9.351-6.086-12.141-4.309
				c-2.79,1.777-3.79,25.667-3.79,25.667l87.358,0.589c6.08-0.141,9.153-4.602,4.213-8.422c-3.386-2.619-7.3-4.373-9.524-5.643
				C696.253,1199.975,666.575,1192.715,666.575,1192.715z"/>
			<path style="fill:#4E6984;" d="M655.857,960.826c6.004-12.593,19.66-28.989,43.688-19.113
				c22.917,9.419,29.068,32.566,21.838,56.269c-7.23,23.704-54.832,163.044-56.491,182.201l-38.006,0.252
				c0,0,6.906-110.332,8.601-137C637.118,1017.773,645.465,982.622,655.857,960.826z"/>
			<path style="fill:#355389;" d="M717.557,832.489H590.51c-3.361,0-6.389,2.031-7.664,5.142l-39.119,95.409h-70.041
				c-1.959,0-3.546,1.586-3.546,3.543l0,0c0,1.957,1.587,3.544,3.546,3.544h199.344c5.48,0,10.451-3.217,12.695-8.216l39.389-87.745
				C727.574,838.685,723.565,832.489,717.557,832.489z"/>
			<path style="fill:#FFFFFF;" d="M649.155,888.047c-0.858,4.286-4.596,7.15-8.349,6.4c-3.753-0.75-6.1-4.832-5.242-9.118
				c0.858-4.286,4.596-7.151,8.349-6.401C647.666,879.679,650.013,883.761,649.155,888.047z"/>
			<path style="fill:#F7A491;" d="M534.369,687.061l-6.216,40.97c0,0,22.701,48.783,36.252,44.553
				c11.371-3.551,4.375-46.714,4.375-46.714s-6.198-23.181-4.339-34.781C566.301,679.489,534.369,687.061,534.369,687.061z"/>
			<path style="opacity:0.2;fill:#F47458;" d="M564.442,691.089c1.859-11.6-30.073-4.028-30.073-4.028l-0.516,3.397
				c0.935,2.274,2.077,4.219,3.463,5.711c7.133,7.677,18.281,12.287,27.92,12.635C564.272,702.55,563.68,695.846,564.442,691.089z"
				/>
			<g>
				<path style="fill:#F7A491;" d="M529.13,629.098c-0.902-0.328-7.233,46.664,4.781,59.593
					c12.016,12.929,35.426,17.161,43.822,6.978c9.288-11.263,8.821-61.768-9.859-75.067
					C549.193,607.3,529.13,629.098,529.13,629.098z"/>
				<path style="fill:#184655;" d="M560.763,595.464c-14.438,2.944-23.792,11.769-27.229,15.529
					c-6.556,0.774-15.467,4.397-24.669,19.633c-11.315,18.734-2.959,39.489,10.212,49.672
					c13.171,10.184,12.988,21.946,12.988,21.946l2.082-6.085c1.536-4.609,2.164-9.496,1.649-14.33
					c-0.309-2.902-0.929-6.038-2.13-8.617c-3.168-6.801,6.805-11.319,9.601-16.977c2.153-4.357,2.258-14.323,5.65-21.526
					l4.051-5.497c0,0,9.347-7.273,18.491-5.221C580.604,626.045,579.289,591.687,560.763,595.464z"/>
				<path style="fill:#F7A491;" d="M542.653,664.599c0.096,5.734-2.511,10.427-5.821,10.484c-3.31,0.056-6.071-4.546-6.167-10.279
					c-0.096-5.733,2.511-10.427,5.821-10.483C539.798,654.264,542.559,658.866,542.653,664.599z"/>
			</g>
			<path style="fill:#FFFFFF;" d="M558.875,680.492l18.11-0.938c0,0-0.061,6.9-8.014,7.542
				C559.275,687.88,558.875,680.492,558.875,680.492z"/>
		</g>
	</g>
	<g>
		<g>
			<path style="fill:#DD513A;" d="M1095.081,612.292l6.344,37.957l20.105-26.863l66.872-64.825l-59.611,24.423
				c0,0-28.918,17.171-30.139,19.22C1097.43,604.255,1095.081,612.292,1095.081,612.292z"/>
			<polygon style="fill:#F47458;" points="1061.168,598.597 1188.402,558.562 1095.081,612.292 			"/>
			<polygon style="fill:#F47458;" points="1147.325,636.415 1105.683,619.822 1188.402,558.562 			"/>
		</g>
		<g>
			<g>
				<path style="fill:#FFFFFF;" d="M957.55,797.893c-0.505-3.021-0.849-6.123-1.021-9.221c-0.159-2.852-0.177-5.768-0.054-8.667
					l3.139,0.134c-0.119,2.796-0.103,5.608,0.052,8.358c0.166,2.984,0.497,5.971,0.983,8.879c0.142,0.855,0.298,1.708,0.468,2.557
					l-3.081,0.615C957.857,799.65,957.693,798.757,957.55,797.893z M959.552,759.675c1.648-6.403,3.955-12.91,6.861-19.338
					l2.861,1.294c-2.831,6.263-5.078,12.598-6.681,18.826L959.552,759.675z M1052.943,724.481c-0.207-0.056-0.415-0.115-0.622-0.177
					l0.902-3.01c0.18,0.055,0.36,0.107,0.513,0.149c0,0,0.096,0.016,0.331,0.002c1.753-0.098,6.052-1.418,8.022-3.595
					c1.655-1.83,2.723-4.184,3.17-6.999l3.102,0.493c-0.535,3.377-1.899,6.357-3.943,8.614c-2.733,3.018-7.976,4.5-10.176,4.625
					C1053.722,724.611,1053.295,724.578,1052.943,724.481z M976.202,722.34c3.603-5.643,7.67-11.199,12.092-16.514l2.414,2.009
					c-4.337,5.213-8.327,10.662-11.858,16.194L976.202,722.34z M1033.766,704.731c-0.891-2.878-1.433-5.958-1.612-9.153
					c-0.096-1.718-0.087-3.499,0.023-5.295l3.135,0.195c-0.104,1.673-0.11,3.33-0.021,4.925c0.163,2.939,0.66,5.766,1.475,8.399
					c0.58,1.871,1.358,3.697,2.311,5.428l-2.749,1.517C1035.27,708.828,1034.407,706.804,1033.766,704.731z M1043.501,685.014
					l-0.437-0.064l0.443-3.11l0.475,0.071c7.115,1.102,13.758,4.518,18.224,9.375l-2.313,2.125
					C1055.901,689.069,1049.925,686.008,1043.501,685.014z M1004.185,692.618c3.021-2.04,8.56-5.631,11.706-6.763
					c2.443-0.879,4.708-1.6,6.922-2.206l0.829,3.029c-2.134,0.583-4.322,1.282-6.688,2.132c-2.063,0.743-6.076,3.079-11.012,6.411
					L1004.185,692.618z M1037.244,670.192c2.747-6.336,6.424-12.238,10.928-17.539l2.394,2.033
					c-4.303,5.066-7.815,10.703-10.44,16.754L1037.244,670.192z"/>
			</g>
			<g>
				<path style="fill:#FFFFFF;" d="M1065.433,641.712c2.892-1.837,5.897-3.417,8.933-4.695l-1.22-2.895
					c-3.195,1.346-6.357,3.009-9.396,4.94L1065.433,641.712z"/>
			</g>
		</g>
	</g>
</g>
</svg>
