<?xml version="1.0" encoding="utf-8"?>
<!-- Generator: Adobe Illustrator 27.5.0, SVG Export Plug-In . SVG Version: 6.00 Build 0)  -->
<svg version="1.1" xmlns="http://www.w3.org/2000/svg" xmlns:xlink="http://www.w3.org/1999/xlink" x="0px" y="0px"
	 viewBox="0 0 500 500" style="enable-background:new 0 0 500 500;" xml:space="preserve">
<g id="Floor">
	<ellipse id="Floor_2_" style="fill:#F5F5F5;" cx="250" cy="335.209" rx="222.461" ry="128.438"/>
</g>
<g id="Shadow">
	<path id="Shadow_1_" style="fill:#E0E0E0;" d="M289.937,441.703l109.139-63.011c2.392-1.381,2.392-3.619,0-5L192.448,254.394
		c-2.391-1.381-6.269-1.381-8.66,0l-109.14,63.012c-2.392,1.381-2.392,3.619,0,5l206.629,119.297
		C283.668,443.084,287.546,443.084,289.937,441.703z"/>
</g>
<g id="Plants">
	<g id="Plants_1_">
		<g id="XMLID_1478_">
			<path id="XMLID_1480_" style="fill:#27DEBF;" d="M95.523,319.783l8.555-4.939c0,0,2.096-18.321,0.701-32.51
				c-1.959-19.938-14.835-43.928-30.196-38.294c-15.361,5.634,7.043,25.939,12.03,42.85C91.6,303.801,95.523,319.783,95.523,319.783
				z"/>
			<path id="XMLID_1523_" style="opacity:0.15;" d="M95.523,319.783l8.555-4.939c0,0,2.096-18.321,0.701-32.51
				c-1.959-19.938-14.835-43.928-30.196-38.294c-15.361,5.634,7.043,25.939,12.03,42.85C91.6,303.801,95.523,319.783,95.523,319.783
				z"/>
			<path id="XMLID_1479_" style="fill:#FFFFFF;" d="M100.022,317.703c-0.006,0-0.011,0-0.018,0c-0.286-0.01-0.51-0.249-0.5-0.536
				c1.503-44.301-20.55-66.586-20.773-66.805c-0.204-0.201-0.206-0.529-0.006-0.732c0.203-0.204,0.531-0.206,0.732-0.006
				c0.227,0.223,22.599,22.828,21.082,67.579C100.53,317.483,100.3,317.703,100.022,317.703z"/>
		</g>
		<g id="XMLID_1475_">
			<path id="XMLID_1477_" style="fill:#27DEBF;" d="M90.957,323.317l6.087-3.515c0,0,1.035-12.572-5.128-27.845
				c-5.366-13.296-18.68-24.326-25.377-22.008c-6.696,2.318-6.53,7.067-3.265,12.048C66.539,286.978,86.402,298.851,90.957,323.317z
				"/>
			<path id="XMLID_1476_" style="fill:#FFFFFF;" d="M94.168,321.981h-0.002c-0.286-0.002-0.517-0.234-0.516-0.52
				c0.121-28.01-26.18-46.942-26.446-47.13c-0.233-0.165-0.289-0.488-0.123-0.722c0.163-0.232,0.486-0.29,0.722-0.123
				c0.269,0.191,27.006,19.436,26.883,47.98C94.685,321.751,94.453,321.981,94.168,321.981z"/>
		</g>
	</g>
</g>
<g id="Clouds">
	<g id="XMLID_1132_">
		<path id="Cloud_2_" style="fill:#EBEBEB;" d="M387.735,54.706l8.611,4.971c-0.043-0.384-0.072-0.766-0.072-1.14v-2.495
			c0-4.439,3.116-6.239,6.961-4.019c1.557,0.899,2.989,2.323,4.149,3.99c0.629-5.582,5.009-7.661,10.328-4.59
			c5.752,3.321,10.414,11.396,10.414,18.038v3.732c0,1.72-0.318,3.169-0.882,4.323l7.152,4.129c2.133,1.231,3.861,4.226,3.861,6.688
			c0,2.462-1.729,3.46-3.861,2.229l-46.661-26.94c-2.133-1.231-3.861-4.226-3.861-6.688
			C383.874,54.473,385.602,53.475,387.735,54.706z"/>
		<path id="Cloud_1_" style="fill:#EBEBEB;" d="M351.958,76.888l6.312,3.644c-0.031-0.282-0.053-0.562-0.053-0.836v-1.829
			c0-3.254,2.285-4.574,5.103-2.946c1.141,0.659,2.191,1.703,3.041,2.925c0.461-4.092,3.672-5.617,7.572-3.365
			c4.216,2.434,7.634,8.355,7.634,13.223v2.736c0,1.261-0.233,2.323-0.646,3.169l5.243,3.027c1.563,0.903,2.831,3.098,2.831,4.903
			c0,1.805-1.267,2.537-2.831,1.634l-34.207-19.749c-1.563-0.903-2.831-3.098-2.831-4.903
			C349.127,76.717,350.395,75.986,351.958,76.888z"/>
	</g>
</g>
<g id="Device">
	<g id="Device_5_">
		<g id="Device_1_">
			<path id="XMLID_1058_" style="fill:#455A64;" d="M392.464,357.272c1.552,1.202,1.383,2.908-0.499,3.988l-103.013,59.482
				c-2.069,1.187-5.426,1.188-7.493-0.005L84.588,307.073c-1.905-1.1-2.061-2.834-0.44-4.03c-1.861,1.318-3.306,3.977-3.307,6.199
				l-0.006,4.952c-0.007,2.389,1.671,5.297,3.746,6.495l196.863,113.659c2.076,1.198,5.433,1.197,7.498-0.003l103.016-59.469
				c2.069-1.187,3.748-4.096,3.747-6.49l0.011-4.96C395.711,361.234,394.303,358.606,392.464,357.272z"/>
			<path id="XMLID_1055_" style="fill:#37474F;" d="M391.965,356.939L195.093,243.275c-2.067-1.193-5.424-1.193-7.493-0.005
				L84.587,302.752c-2.069,1.187-2.067,3.128,0,4.321L281.46,420.737c2.067,1.193,5.424,1.192,7.493,0.005l103.013-59.482
				C394.034,360.073,394.032,358.132,391.965,356.939z M365.257,347.745c1.769,1.021,1.775,2.681-0.007,3.704l-93.659,54.086
				c-1.777,1.016-4.651,1.023-6.429-0.003l-153.28-88.496c-1.778-1.026-1.77-2.689-0.002-3.71l93.668-54.081
				c1.773-1.029,3.618-1.62,5.387-0.598L365.257,347.745z"/>
			<path id="XMLID_815_" style="fill:#263238;" d="M84.147,303.042c-1.861,1.318-3.306,3.977-3.307,6.199l-0.006,4.952
				c0.002,2.394,1.671,5.297,3.746,6.495l196.863,113.659c1.038,0.599,2.397,0.896,3.757,0.899l0.007-13.616
				c-1.359-0.002-2.719-0.3-3.748-0.894L84.588,307.073C82.682,305.973,82.527,304.238,84.147,303.042z"/>
			<path id="XMLID_814_" d="M145.974,278.851c1.387-0.801,1.387-2.099,0-2.9c-1.387-0.801-3.636-0.801-5.023,0
				c-1.387,0.801-1.387,2.099,0,2.9C142.338,279.652,144.587,279.652,145.974,278.851z"/>
			<path id="XMLID_813_" style="fill:none;stroke:#E6E6E6;stroke-miterlimit:10;" d="M336.64,387.624
				c3.266-1.886,3.266-4.943,0-6.829c-3.267-1.886-8.562-1.886-11.829,0c-3.266,1.886-3.267,4.943,0,6.829
				C328.077,389.51,333.373,389.51,336.64,387.624z"/>
			<path id="XMLID_812_" d="M143.495,288.473l19.391-11.195c1.157-0.668,1.215-1.717,0.13-2.344
				c-1.085-0.627-2.903-0.593-4.06,0.075l-19.391,11.196c-1.157,0.668-1.215,1.717-0.13,2.344
				C140.52,289.174,142.338,289.141,143.495,288.473z"/>
			<path id="XMLID_811_" style="fill:#27DEBF;" d="M210.936,258.648c-1.769-1.021-3.614-0.431-5.387,0.598l-93.668,54.081
				c-1.769,1.02-1.776,2.683,0.002,3.71l153.28,88.496c1.778,1.026,4.652,1.018,6.429,0.003l93.659-54.086
				c1.782-1.024,1.776-2.683,0.007-3.704L210.936,258.648z"/>
			<path id="XMLID_172_" style="opacity:0.85;fill:#FFFFFF;" d="M210.936,258.648c-1.769-1.021-3.614-0.431-5.387,0.598
				l-93.668,54.081c-1.769,1.02-1.776,2.683,0.002,3.71l153.28,88.496c1.778,1.026,4.652,1.018,6.429,0.003l93.659-54.086
				c1.782-1.024,1.776-2.683,0.007-3.704L210.936,258.648z"/>
		</g>
		<g id="XMLID_808_">
			<g id="XMLID_690_">
				<g id="XMLID_14189_">
					<path id="XMLID_14193_" style="fill:#455A64;" d="M122.672,318.187l-0.998-0.576c-0.216-0.124-0.216-0.326-0.001-0.451
						l0.108-0.062c0.215-0.125,0.564-0.125,0.78,0l0.998,0.576c0.216,0.125,0.216,0.327,0.001,0.451l-0.108,0.062
						C123.237,318.311,122.887,318.311,122.672,318.187z"/>
					<path id="XMLID_14192_" style="fill:#455A64;" d="M124.448,317.16l-1.724-0.996c-0.216-0.125-0.216-0.326,0-0.451l0.109-0.063
						c0.216-0.124,0.565-0.124,0.781,0l1.725,0.996c0.216,0.124,0.216,0.326,0,0.451l-0.109,0.063
						C125.013,317.284,124.664,317.284,124.448,317.16z"/>
					<path id="XMLID_689_" style="fill:#455A64;" d="M126.23,316.132l-2.45-1.414c-0.216-0.125-0.216-0.326,0-0.451l0.108-0.062
						c0.215-0.125,0.565-0.125,0.78,0l2.45,1.415c0.216,0.125,0.216,0.326,0,0.451l-0.108,0.062
						C126.795,316.257,126.445,316.257,126.23,316.132z"/>
					<path id="XMLID_679_" style="fill:#455A64;" d="M128.006,315.105l-4.23-2.442c-0.216-0.124-0.215-0.326,0.001-0.451
						l0.109-0.063c0.216-0.124,0.566-0.124,0.781,0l4.226,2.442c0.215,0.125,0.216,0.327,0,0.451l-0.108,0.062
						C128.572,315.23,128.222,315.23,128.006,315.105z"/>
				</g>
				<g id="XMLID_14188_">
					<path id="XMLID_13213_" style="fill:#455A64;" d="M133.112,312.492c-0.064,0.004-0.13-0.013-0.196-0.051l-0.621-0.358
						l-1.993,1.152c-0.11,0.063-0.208,0.069-0.296,0.018l-0.223-0.129c-0.05-0.029-0.084-0.056-0.099-0.078
						c-0.014-0.023-0.024-0.056-0.031-0.098l-0.104-2.508c-0.001-0.046,0.005-0.08,0.02-0.105c0.014-0.026,0.052-0.056,0.116-0.093
						l0.278-0.16c0.083-0.049,0.159-0.074,0.231-0.077c0.069-0.003,0.14,0.016,0.209,0.056l2.169,1.252l0.44-0.254
						c0.085-0.049,0.158-0.074,0.221-0.076c0.066-0.001,0.132,0.018,0.201,0.058l0.148,0.085c0.066,0.038,0.095,0.074,0.091,0.111
						c-0.004,0.036-0.047,0.078-0.132,0.127l-0.44,0.254l0.621,0.358c0.066,0.038,0.096,0.076,0.088,0.113s-0.054,0.082-0.141,0.132
						l-0.336,0.193C133.25,312.462,133.177,312.488,133.112,312.492z M131.898,311.701l-1.547-0.893l0.1,1.729L131.898,311.701z"/>
					<path id="XMLID_14170_" style="fill:#455A64;" d="M135.105,310.907c-0.725,0.033-1.398-0.131-2.019-0.489
						c-0.618-0.357-0.898-0.745-0.842-1.165c0.056-0.42,0.439-0.835,1.147-1.244c0.285-0.165,0.577-0.305,0.876-0.418
						c0.298-0.114,0.575-0.191,0.834-0.23c0.059-0.01,0.101-0.007,0.127,0.008c0.018,0.01,0.032,0.027,0.04,0.051l0.09,0.263
						c0.007,0.033,0,0.058-0.026,0.072c-0.014,0.007-0.05,0.018-0.109,0.032c-0.423,0.085-0.833,0.241-1.226,0.469
						c-0.478,0.276-0.738,0.56-0.777,0.853c-0.037,0.293,0.181,0.576,0.657,0.851c0.48,0.277,0.968,0.406,1.465,0.387
						c0.496-0.018,0.974-0.16,1.436-0.427c0.169-0.097,0.32-0.198,0.455-0.304c0.135-0.106,0.232-0.2,0.29-0.284l-1.008-0.582
						l-0.831,0.479c-0.084,0.049-0.158,0.074-0.222,0.075c-0.065,0.002-0.131-0.017-0.201-0.057l-0.142-0.082
						c-0.069-0.04-0.1-0.077-0.093-0.112c0.006-0.035,0.05-0.077,0.135-0.126l1.327-0.766c0.092-0.053,0.178-0.08,0.256-0.081
						c0.078-0.002,0.157,0.021,0.237,0.068l1.438,0.83c0.054,0.031,0.089,0.059,0.103,0.082c0.016,0.023,0.012,0.053-0.007,0.089
						c-0.175,0.344-0.595,0.708-1.258,1.091C136.546,310.654,135.828,310.876,135.105,310.907z"/>
				</g>
				<g id="XMLID_14185_">
					<g id="XMLID_14187_">
						<path id="XMLID_14227_" style="fill:#455A64;" d="M162.779,291.477l2.355,1.359c0.176,0.102,0.462,0.102,0.639,0l2.363-1.361
							c0.177-0.102,0.177-0.267,0.001-0.369l-2.358-1.362c-0.176-0.102-0.462-0.102-0.639,0l-2.36,1.363
							C162.603,291.21,162.603,291.375,162.779,291.477z"/>
					</g>
					<path id="XMLID_14175_" style="fill:#455A64;" d="M164.408,289.633c-0.255-0.147-0.613-0.228-1.011-0.228
						c-0.399,0.001-0.756,0.081-1.012,0.228c-0.453,0.263-0.454,0.674,0,0.938l0.81,0.468l0.597-0.115l-0.81-0.468
						c-0.33-0.192-0.33-0.516,0-0.707c0.125-0.072,0.28-0.113,0.413-0.113c0.139,0,0.29,0.041,0.414,0.113l0.811,0.467l0.597-0.115
						L164.408,289.633z"/>
				</g>
				<g id="XMLID_14178_">
					<path id="XMLID_14208_" style="fill:#455A64;" d="M207.316,264.823c-0.448,0-0.85,0.091-1.136,0.256l-5.975,3.448
						c-0.516,0.297-0.516,0.763-0.002,1.06l2.176,1.256c0.287,0.166,0.691,0.257,1.137,0.257c0.191,0,0.377-0.017,0.552-0.051
						c0.226-0.044,0.423-0.113,0.584-0.206l5.975-3.448c0.515-0.298,0.516-0.763,0.001-1.06l-2.175-1.256
						C208.167,264.914,207.763,264.823,207.316,264.823z M203.516,270.848c-0.162,0-0.338-0.048-0.482-0.131l-2.176-1.256
						c-0.379-0.219-0.379-0.589,0.001-0.807l5.975-3.448c0.093-0.053,0.2-0.093,0.307-0.113c0.059-0.011,0.117-0.017,0.176-0.017
						c0.163,0,0.338,0.048,0.481,0.13l2.176,1.256c0.38,0.219,0.38,0.589,0,0.808l-5.975,3.448
						C203.854,270.801,203.681,270.848,203.516,270.848z"/>
					<g id="XMLID_14180_">
						<path id="XMLID_14206_" style="fill:#455A64;" d="M203.693,270.425c-0.002-0.008-0.041-0.023-0.085-0.048l-1.958-1.13
							c-0.271-0.156-0.27-0.441,0.001-0.598l5.377-3.103c0.046-0.026,0.085-0.041,0.109-0.048c0.004,0.008,0.043,0.023,0.087,0.048
							l1.958,1.131c0.271,0.156,0.27,0.441-0.001,0.598l-5.377,3.103C203.757,270.404,203.718,270.418,203.693,270.425z"/>
					</g>
					<g id="XMLID_14179_">
						<path id="XMLID_14204_" style="fill:#455A64;" d="M208.764,264.917c0.219-0.128,0.758-0.023,1.204,0.235l0.404,0.233
							c0.447,0.258,0.637,0.576,0.425,0.711l-0.384,0.244l-2.045-1.192C208.368,265.148,208.545,265.044,208.764,264.917z"/>
					</g>
				</g>
			</g>
			<g id="XMLID_14205_">
				<path id="XMLID_14209_" style="fill:#455A64;" d="M174.586,323.682c1.373-0.053,3.017-0.475,4.205-1.161
					c2.44-1.408,3.071-3.33-0.8-5.741c-0.076,1.258-1.14,2.613-2.544,3.422c-3.321,1.918-7.101,2.41-10.142,0.654
					c-2.904-1.676-1.984-4.347,1.34-6.265c3.778-2.181,9.203-2.778,14.095,0.046c5.647,3.26,4.377,6.714,0.385,9.018
					c-2.315,1.336-4.756,1.9-6.826,2.04L174.586,323.682z M176,315.737c-2.927-1.267-5.423-1.092-7.313-0.001
					c-1.586,0.915-1.911,2.239-0.151,3.256c1.715,0.99,3.732,0.853,5.684-0.272C175.316,318.086,176.147,317.053,176,315.737z"/>
				<path id="XMLID_14237_" style="fill:#455A64;" d="M182.966,309.447c1.279-0.739,3.008-0.867,4.037-0.273
					c1.03,0.594,0.809,1.593-0.472,2.331c-1.279,0.739-3.039,0.885-4.07,0.29C181.433,311.201,181.686,310.185,182.966,309.447z
					 M190.785,313.96c1.279-0.739,3.009-0.866,4.038-0.272c1.029,0.594,0.808,1.592-0.47,2.332c-1.28,0.739-3.041,0.884-4.07,0.29
					C189.253,315.716,189.505,314.699,190.785,313.96z"/>
				<path id="XMLID_14243_" style="fill:#455A64;" d="M192.132,308.509c-4.916-2.838-4.917-5.794-0.893-8.116
					c4.022-2.322,9.163-2.309,14.056,0.516c4.916,2.838,5.055,5.874,1.034,8.196C202.305,311.428,197.048,311.348,192.132,308.509z
					 M201.944,302.844c-4.115-2.376-6.759-2.353-8.648-1.264c-1.859,1.074-1.927,2.618,2.188,4.994
					c4.115,2.376,6.927,2.416,8.786,1.342C206.159,306.827,206.059,305.22,201.944,302.844z"/>
				<path id="XMLID_14246_" style="fill:#455A64;" d="M207.766,299.483c-4.916-2.838-4.916-5.795-0.894-8.117
					c4.024-2.323,9.166-2.308,14.059,0.517c4.916,2.838,5.054,5.873,1.031,8.195C217.94,302.4,212.682,302.321,207.766,299.483z
					 M217.58,293.818c-4.115-2.376-6.76-2.354-8.648-1.263c-1.859,1.072-1.928,2.617,2.187,4.993
					c4.115,2.376,6.928,2.415,8.787,1.343C221.794,297.799,221.695,296.193,217.58,293.818z"/>
			</g>
			<g id="XMLID_14174_">
				<g id="XMLID_14172_">
					<path id="XMLID_14202_" style="fill:#27DEBF;" d="M182.56,345.628l78.681-45.422c1.662-0.96,4.357-0.96,6.019,0l20.109,11.61
						c1.662,0.96,1.662,2.515,0,3.475l-78.668,45.423c-1.662,0.96-4.357,0.96-6.02,0l-20.12-11.612
						C180.898,348.143,180.898,346.587,182.56,345.628z"/>
					<path id="XMLID_804_" style="fill:#FAFAFA;" d="M190.983,347.166l14.074,8.126c0.717,0.414,1.881,0.414,2.598,0l20.744-11.976
						c0.717-0.414,0.717-1.086,0-1.5l-14.074-8.126c-0.717-0.414-1.881-0.414-2.598,0l-20.743,11.976
						C190.265,346.08,190.265,346.752,190.983,347.166z"/>
					<polygon id="XMLID_1083_" style="fill:#27DEBF;" points="212.235,343.262 228.931,342.6 212.303,342.352 212.971,333.379 
						210.244,344.449 190.446,346.406 206.611,345.646 206.211,355.595 207.454,345.607 212.077,345.389 					"/>
					<g id="XMLID_14173_">
						<path id="XMLID_14212_" style="fill:#FAFAFA;" d="M221.011,329.42l20.33-11.69c0.924-0.534,2.39-0.553,3.273-0.043
							c0.884,0.51,0.851,1.356-0.074,1.89l-20.33,11.69c-0.924,0.534-2.39,0.553-3.274,0.043
							C220.054,330.8,220.087,329.954,221.011,329.42z"/>
						<path id="XMLID_14211_" style="fill:#FAFAFA;" d="M227.266,333.031l41.205-23.808c0.924-0.534,2.39-0.553,3.274-0.042
							c0.884,0.51,0.851,1.356-0.074,1.89l-41.205,23.808c-0.924,0.534-2.39,0.553-3.273,0.043
							C226.309,334.411,226.342,333.565,227.266,333.031z"/>
						<path id="XMLID_14210_" style="fill:#FAFAFA;" d="M233.521,336.643l41.205-23.808c0.924-0.534,2.39-0.553,3.273-0.043
							c0.884,0.51,0.851,1.356-0.074,1.89l-41.205,23.807c-0.924,0.534-2.39,0.553-3.273,0.043
							C232.564,338.022,232.597,337.176,233.521,336.643z"/>
					</g>
				</g>
			</g>
		</g>
	</g>
</g>
<g id="Message">
	<g id="XMLID_1453_">
		<g id="Envelope">
			<g id="XMLID_1_">
				<path id="XMLID_1249_" style="fill:#27DEBF;" d="M173.547,181.539l133.381-77.008l5.337,3.081
					c1.38,0.797,2.509,2.752,2.509,4.346v98.393c0,1.593-1.129,3.549-2.509,4.346l-128.363,74.11c-1.38,0.797-3.638,0.797-5.018,0
					l-2.828-1.633c-1.38-0.797-2.509-2.752-2.509-4.346L173.547,181.539z"/>
				<path id="XMLID_1248_" style="opacity:0.05;" d="M173.547,181.539l133.381-77.008l5.337,3.081
					c1.38,0.797,2.509,2.752,2.509,4.346v98.393c0,1.593-1.129,3.549-2.509,4.346l-128.363,74.11c-1.38,0.797-3.638,0.797-5.018,0
					l-2.828-1.633c-1.38-0.797-2.509-2.752-2.509-4.346L173.547,181.539z"/>
				<path id="XMLID_1354_" style="fill:#27DEBF;" d="M306.192,95.882l0.546-0.297l-2.073-1.204v0.002
					c-0.178-0.104-0.362-0.193-0.55-0.263l-58.701-21.752c-1.554-0.576-3.572,0.066-4.508,1.433l-65.665,95.894
					c-0.936,1.367-1.695,3.818-1.695,5.475c0,2.74,0,6.369,0,6.369l2.035,1.182l131.346-78.189v-6.37
					C306.928,97.386,306.645,96.582,306.192,95.882z"/>
				<path id="XMLID_767_" style="opacity:0.1;" d="M243.624,74.266c-0.26,0.2-0.49,0.45-0.68,0.72l-65.67,95.89
					c-0.48,0.71-0.92,1.71-1.22,2.74l-2.04-1.18c0.15-0.5,0.33-0.99,0.53-1.45c0.01-0.02,0.01-0.03,0.02-0.04
					c0.09-0.2,0.18-0.39,0.28-0.58c0.02-0.03,0.03-0.06,0.05-0.09c0.11-0.21,0.23-0.41,0.35-0.58l65.66-95.89
					c0.1-0.15,0.21-0.27,0.33-0.4c0.11-0.11,0.23-0.22,0.35-0.32L243.624,74.266z"/>
				<path id="XMLID_1061_" style="opacity:0.35;fill:#FFFFFF;" d="M306.715,95.576c-0.18-0.11-0.37-0.2-0.56-0.27l-58.71-21.76
					c-1.24-0.46-2.78-0.14-3.82,0.72l-2.04-1.18c1.05-0.85,2.58-1.18,3.83-0.72l58.7,21.75c0.19,0.07,0.37,0.16,0.55,0.27
					L306.715,95.576z"/>
				<g id="XMLID_128_">
					<path id="XMLID_133_" style="fill:#27DEBF;" d="M174.891,170.272c0.113-0.208,0.23-0.402,0.35-0.577
						C175.121,169.87,175.004,170.065,174.891,170.272z"/>
					<path id="XMLID_134_" style="fill:#27DEBF;" d="M241.236,73.405c0.111-0.113,0.228-0.219,0.352-0.319
						C241.464,73.186,241.344,73.29,241.236,73.405z"/>
					<path id="XMLID_154_" style="fill:#27DEBF;" d="M174.011,172.438c0.15-0.502,0.332-0.997,0.534-1.455
						C174.342,171.442,174.162,171.935,174.011,172.438z"/>
					<path id="XMLID_155_" style="fill:#27DEBF;" d="M174.562,170.942c0.089-0.201,0.185-0.391,0.282-0.574
						C174.746,170.551,174.651,170.741,174.562,170.942z"/>
					<path id="XMLID_158_" style="opacity:0.2;" d="M174.545,170.983c0.006-0.014,0.011-0.028,0.017-0.041
						C174.556,170.955,174.551,170.97,174.545,170.983z"/>
					<polygon id="XMLID_160_" style="opacity:0.2;" points="174.011,172.438 174.011,172.438 174.011,172.438 					"/>
					<polygon id="XMLID_161_" style="opacity:0.2;" points="241.588,73.086 241.588,73.086 241.588,73.086 					"/>
					<path id="XMLID_162_" style="opacity:0.2;" d="M174.843,170.368c0.016-0.031,0.031-0.066,0.048-0.096
						C174.874,170.302,174.86,170.337,174.843,170.368z"/>
					<path id="XMLID_163_" style="opacity:0.2;" d="M240.906,73.801c0.097-0.141,0.212-0.27,0.33-0.395
						C241.115,73.528,241.003,73.659,240.906,73.801z"/>
				</g>
				<path id="XMLID_1352_" style="fill:#27DEBF;" d="M242.941,74.983l-65.665,95.894c-0.936,1.367-1.695,3.818-1.695,5.475
					c0,2.74,0,6.368,0,6.368l133.383-77.013l-0.001-6.363c0-1.657-1.259-3.467-2.813-4.042L247.449,73.55
					C245.895,72.974,243.877,73.616,242.941,74.983z"/>
			</g>
			<g id="XMLID_164_">
				<path id="XMLID_170_" style="fill:#E0E0E0;" d="M190.095,275.412l-4.274-2.474h-0.011l-0.043-0.032v-0.011
					c-0.632-0.396-1.028-1.189-1.028-2.335V137.251c0-1.232,0.471-2.614,1.2-3.813l4.349,2.507c-0.739,1.2-1.2,2.581-1.2,3.824
					v133.309C189.088,274.202,189.474,275.016,190.095,275.412z"/>
				<path id="XMLID_169_" style="fill:#F0F0F0;" d="M192.773,133.404l107.134-61.848c2.029-1.172,3.675-0.222,3.675,2.121v133.305
					c0,2.343-1.645,5.193-3.675,6.365l-107.132,61.848c-2.029,1.172-3.675,0.222-3.675-2.121l-0.001-133.305
					C189.099,137.426,190.744,134.576,192.773,133.404z"/>
				<path id="XMLID_166_" style="fill:#FAFAFA;" d="M298.162,68.795l4.199,2.432c-0.653-0.3-1.51-0.225-2.457,0.351l-107.138,61.832
					c-0.96,0.527-1.824,1.464-2.477,2.535l-4.349-2.507c0.643-1.071,1.521-1.992,2.474-2.549l107.135-61.847
					c1.028-0.589,1.95-0.643,2.613-0.236V68.795z"/>
				<path id="XMLID_171_" style="fill:#E0E0E0;" d="M201.126,140.382l89.097-51.441c1.196-0.69,2.165-0.2,2.165,1.095
					c0,1.295-0.97,2.905-2.166,3.595l-89.096,51.44c-1.196,0.69-2.165,0.2-2.165-1.095
					C198.961,142.682,199.93,141.072,201.126,140.382z"/>
				<path id="XMLID_675_" style="fill:#E0E0E0;" d="M201.126,149.731l89.097-51.44c1.196-0.69,2.165-0.2,2.165,1.095
					c0,1.295-0.97,2.905-2.166,3.595l-89.096,51.44c-1.196,0.69-2.165,0.2-2.165-1.095
					C198.961,152.031,199.93,150.421,201.126,149.731z"/>
				<path id="XMLID_1060_" style="fill:#E0E0E0;" d="M201.126,159.08l89.097-51.44c1.196-0.69,2.165-0.2,2.165,1.095
					c0,1.295-0.97,2.905-2.166,3.595l-89.096,51.44c-1.196,0.69-2.165,0.2-2.165-1.095C198.961,161.38,199.93,159.77,201.126,159.08
					z"/>
				<path id="XMLID_1062_" style="fill:#E0E0E0;" d="M201.126,168.429l89.097-51.44c1.196-0.69,2.165-0.2,2.165,1.095
					c0,1.295-0.97,2.905-2.166,3.595l-89.096,51.44c-1.196,0.69-2.165,0.2-2.165-1.095
					C198.961,170.729,199.93,169.12,201.126,168.429z"/>
				<path id="XMLID_1065_" style="fill:#E0E0E0;" d="M201.126,177.778l89.097-51.44c1.196-0.69,2.165-0.2,2.165,1.095
					c0,1.295-0.97,2.905-2.166,3.595l-89.096,51.44c-1.196,0.69-2.165,0.2-2.165-1.095S199.93,178.469,201.126,177.778z"/>
				<path id="XMLID_1067_" style="fill:#E0E0E0;" d="M201.126,187.128l89.097-51.441c1.196-0.69,2.165-0.2,2.165,1.095
					c0,1.295-0.97,2.905-2.166,3.595l-89.096,51.44c-1.196,0.69-2.165,0.2-2.165-1.095
					C198.961,189.427,199.93,187.818,201.126,187.128z"/>
				<path id="XMLID_1080_" style="fill:#E0E0E0;" d="M201.126,196.477l89.097-51.441c1.196-0.69,2.165-0.2,2.165,1.095
					c0,1.295-0.97,2.905-2.166,3.595l-89.096,51.44c-1.196,0.69-2.165,0.2-2.165-1.095S199.93,197.167,201.126,196.477z"/>
				<path id="XMLID_1081_" style="fill:#E0E0E0;" d="M201.126,205.826l89.097-51.441c1.196-0.69,2.165-0.2,2.165,1.095
					c0,1.295-0.97,2.905-2.166,3.595l-89.096,51.44c-1.196,0.69-2.165,0.2-2.165-1.095
					C198.961,208.126,199.93,206.516,201.126,205.826z"/>
			</g>
			<g id="XMLID_157_">
				<path id="XMLID_692_" style="fill:#27DEBF;" d="M311.39,211.663c-0.04,0.07-0.079,0.13-0.139,0.2l-55.583-24.653
					c-4.365-1.939-9.476-0.36-12.012,3.697l-59.421,95.345l-2.197,1.269l-0.02,0.01c-0.666,0.37-1.263,0.42-1.7,0.19l61.111-98.063
					c2.536-4.057,7.656-5.636,12.021-3.708L311.39,211.663z"/>
				<path id="XMLID_806_" style="opacity:0.4;fill:#FFFFFF;" d="M238.184,199.576l0.14-0.12l-54.09,86.8l-2.2,1.27l-0.02,0.01
					c-0.66,0.37-1.26,0.41-1.7,0.19l55.73-89.43L238.184,199.576z"/>
				<path id="XMLID_807_" style="opacity:0.4;fill:#FFFFFF;" d="M311.395,211.666c-0.04,0.07-0.08,0.13-0.14,0.2l-55.59-24.66
					c-4.36-1.94-9.47-0.36-12.01,3.7l-2.2-1.28c2.54-4.04,7.64-5.6,12-3.68L311.395,211.666z"/>
				<path id="XMLID_677_" style="fill:#27DEBF;" d="M314.728,111.33h-0.01c-0.12-0.72-0.5-0.92-0.99-0.58
					c-0.19,0.13-0.41,0.35-0.64,0.66l-0.28,0.39l-54.85,76.36l-8.19,11.41c-0.92,1.3-2.94,2.05-4.51,1.69l-7.07-1.68l-53.97-12.84
					c-0.39-0.09-0.76-0.1-1.1-0.04c-0.14,0.03-0.28,0.07-0.41,0.13l1.49-0.86l52.03,12.37l7.07,1.68c1.56,0.37,3.58-0.38,4.51-1.69
					l8.19-11.4l55.12-76.75c0.18-0.25,0.4-0.43,0.62-0.57l-4.77-2.75l2-1.15l3.3,1.9C313.468,108.31,314.478,109.88,314.728,111.33z
					"/>
				<path id="XMLID_810_" style="opacity:0.4;fill:#FFFFFF;" d="M257.954,188.156l-8.19,11.41c-0.92,1.3-2.94,2.05-4.51,1.69
					l-7.07-1.68l0.14-0.12l0.34-0.54l4.63,1.1c1.56,0.37,3.58-0.38,4.51-1.69l8.11-11.28L257.954,188.156z"/>
				<path id="XMLID_165_" style="opacity:0.1;" d="M312.264,107.606l-3.3-1.9l-2,1.15l4.77,2.75
					c0.004,0.003,0.008,0.006,0.012,0.009l-0.008-0.005c-0.24,0.151-0.451,0.336-0.62,0.57l-55.124,76.746l-0.08,0.11v0.01
					l2.04,1.11l54.85-76.36l0.28-0.39c0.23-0.31,0.45-0.53,0.64-0.66c0.49-0.34,0.87-0.14,0.99,0.58h0.01
					C314.474,109.876,313.465,108.306,312.264,107.606z"/>
				<path id="XMLID_1247_" style="fill:#27DEBF;" d="M185.314,188.336l-11.767-6.797l0,101.29c0,1.594,1.129,3.549,2.509,4.346
					l2.828,1.633c1.38,0.797,3.639,0.797,5.018,0l1.412-0.815V188.336z"/>
				<path id="XMLID_132_" style="opacity:0.15;" d="M185.314,188.336l-11.767-6.797l0,101.29c0,1.594,1.129,3.549,2.509,4.346
					l2.828,1.633c1.38,0.797,3.639,0.797,5.018,0l1.412-0.815V188.336z"/>
				<path id="XMLID_173_" style="fill:#455A64;" d="M312.808,111.8v97.32c0,0.82-0.29,1.74-0.78,2.54c-0.39,0.66-0.9,1.25-1.47,1.64
					l-0.09,0.06c-0.06,0.04-0.11,0.08-0.17,0.11l-128.36,74.1l-0.02,0.01c-0.17,0.1-0.33,0.18-0.49,0.23
					c-0.02-0.14-0.03-0.29-0.03-0.45v-98.4c0-1.59,1.25-2.59,2.82-2.22l53.97,12.84l7.07,1.68c1.57,0.36,3.59-0.39,4.51-1.69
					l8.19-11.41L312.808,111.8z"/>
				<path id="XMLID_522_" style="fill:#27DEBF;" d="M314.778,111.96v98.39c0,0.83-0.3,1.74-0.78,2.54c-0.4,0.66-0.9,1.25-1.47,1.65
					l-0.1,0.05c-0.06,0.04-0.1,0.08-0.16,0.11l-128.36,74.1l-0.02,0.01c-0.67,0.38-1.27,0.43-1.71,0.2c-0.39-0.2-0.66-0.61-0.75-1.2
					c-0.02-0.14-0.03-0.29-0.03-0.45v-98.4c0-1.59,1.25-2.59,2.82-2.22l53.97,12.84l7.07,1.68c1.57,0.36,3.59-0.39,4.51-1.69
					l8.19-11.41l54.85-76.36l0.28-0.39C314.018,110.12,314.778,110.36,314.778,111.96z"/>
				<path id="XMLID_1217_" style="fill:#27DEBF;" d="M312.267,214.701c0.058-0.029,0.106-0.068,0.165-0.106l0.096-0.058
					c0.57-0.396,1.072-0.985,1.468-1.642c0.475-0.788,0.769-1.688,0.779-2.498l-56.812-22.235l38.045,35.926L312.267,214.701z"/>
				<path id="XMLID_1216_" style="opacity:0.2;" d="M312.267,214.701c0.058-0.029,0.106-0.068,0.165-0.106l0.096-0.058
					c0.57-0.396,1.072-0.985,1.468-1.642c0.475-0.788,0.769-1.688,0.779-2.498l-56.812-22.235l38.045,35.926L312.267,214.701z"/>
				<path id="XMLID_1215_" style="fill:#27DEBF;" d="M181.396,287.356c0,0.831,0.299,1.4,0.782,1.652
					c0.444,0.232,1.043,0.184,1.71-0.193l0.019-0.01l44.193-25.513l10.092-63.714l-56.797,86.144V287.356z"/>
				<path id="XMLID_809_" style="opacity:0.15;" d="M243.635,190.896l-61.46,98.11c-0.48-0.25-0.78-0.82-0.78-1.65v-1.63
					l54.23-86.76l0.42-0.67l5.39-8.64c0-0.01,0.01-0.02,0.02-0.03L243.635,190.896z"/>
				<path id="XMLID_1213_" style="fill:#27DEBF;" d="M313.995,212.895c-0.396,0.657-0.898,1.246-1.468,1.642l-0.096,0.058
					l-128.525,74.21l-0.019,0.01c-0.666,0.377-1.265,0.425-1.71,0.193l61.466-98.127c2.548-4.067,7.695-5.646,12.085-3.708
					L313.995,212.895z"/>
				<path id="XMLID_691_" style="fill:#27DEBF;" d="M313.995,212.896c-0.39,0.66-0.9,1.25-1.47,1.64l-0.09,0.06l-128.53,74.21
					l-0.02,0.01c-0.66,0.37-1.26,0.42-1.71,0.19l1.71-2.72l126.31-72.94l0.1-0.06c0.51-0.36,0.97-0.87,1.33-1.44L313.995,212.896z"
					/>
				<path id="XMLID_1059_" style="opacity:0.15;" d="M174.014,172.436l2.04,1.18c-0.29,0.96-0.47,1.94-0.47,2.74
					c0,2.74,0,6.36,0,6.36l-2.04-1.18c0,0,0-3.63,0-6.37C173.544,174.376,173.725,173.396,174.014,172.436z"/>
				<polygon id="XMLID_676_" style="fill:#27DEBF;" points="186.081,186.417 184.198,185.97 182.708,186.83 180.648,185.64 
					175.578,182.72 177.548,181.55 				"/>
				<path id="XMLID_168_" style="opacity:0.1;" d="M186.085,186.416l-0.012-0.003l-8.524-4.863l-1.97,1.17l5.07,2.92l2.06,1.19
					l0.021-0.012c0.123-0.054,0.254-0.094,0.385-0.122c0.34-0.06,0.71-0.05,1.1,0.04l4.15,0.99l47.26,11.24l0.42-0.67
					L186.085,186.416z"/>
			</g>
		</g>
		<g id="Notification">
			<g id="XMLID_1150_">
				<path id="XMLID_1158_" style="fill:#F28F8F;" d="M338.497,190.344l-9.492-5.5c-0.003-0.002-0.008-0.004-0.011-0.006
					l-0.085-0.049l-0.008,0.014c-4.143-2.339-9.829-1.986-16.116,1.643c-12.663,7.312-22.93,25.093-22.93,39.716
					c0,7.299,2.561,12.429,6.695,14.83v0.003l0.019,0.011l0.003,0.002l8.652,4.964l2.029-3.393c2.095-0.481,4.275-1.229,6.577-2.558
					c12.662-7.311,22.93-25.093,22.932-39.716c0-2.172-0.292-4.084-0.72-5.857L338.497,190.344z"/>
				<path id="XMLID_2482_" style="opacity:0.15;" d="M290.721,218.459c-0.56,2.615-0.866,5.206-0.866,7.704
					c0,7.299,2.561,12.429,6.695,14.83v0.003l0.019,0.011l0.003,0.002l8.651,4.964l2.029-3.393c2.095-0.481,4.275-1.229,6.577-2.558
					c2.168-1.252,4.262-2.816,6.25-4.613L290.721,218.459z"/>
				<path id="XMLID_1153_" style="fill:#FFA8A7;" d="M321.812,191.649c-12.664,7.311-22.931,25.093-22.932,39.716
					c0,14.623,10.266,20.55,22.93,13.238c12.664-7.311,22.931-25.093,22.931-39.716
					C344.742,190.264,334.476,184.337,321.812,191.649z"/>
				<g id="XMLID_1382_">
					<path id="XMLID_1384_" style="fill:#FFFFFF;" d="M330.87,212.009v-5.618c0-6.41-3.897-9.356-8.705-6.581h0
						c-4.808,2.776-8.705,10.222-8.705,16.632v5.021c0,3.158-1.097,6.747-2.93,9.806c-0.004,0.007-0.009,0.014-0.012,0.021
						c-0.438,0.787-0.712,1.714-0.712,2.568v0c0,1.615,0.982,2.357,2.193,1.658l20.332-11.739c1.211-0.699,2.193-2.575,2.193-4.19
						l0,0c0-0.807-0.245-1.397-0.642-1.697c-0.01-0.007-0.021-0.014-0.034-0.02C332.052,217.061,330.87,215.034,330.87,212.009z"/>
					<path id="XMLID_1383_" style="fill:#FFFFFF;" d="M326.345,228.97c0,3.077-1.871,6.652-4.179,7.985
						c-2.308,1.333-4.179-0.082-4.179-3.159L326.345,228.97z"/>
				</g>
			</g>
		</g>
	</g>
</g>
</svg>
