<?xml version="1.0" encoding="UTF-8"?>
<svg version="1.1" xmlns="http://www.w3.org/2000/svg" width="1280" height="428">
<path d="M0 0 C422.4 0 844.8 0 1280 0 C1280 141.24 1280 282.48 1280 428 C857.6 428 435.2 428 0 428 C0 286.76 0 145.52 0 0 Z " fill="#000000" transform="translate(0,0)"/>
<path d="M0 0 C422.4 0 844.8 0 1280 0 C1280 141.24 1280 282.48 1280 428 C857.6 428 435.2 428 0 428 C0 286.76 0 145.52 0 0 Z M62.72610939 10.35137105 C61.96065746 10.46973459 61.19520553 10.58809813 60.40655809 10.71004844 C46.63108868 13.0686075 35.44390397 19.79037409 26 30 C25.54238281 30.45246094 25.08476562 30.90492187 24.61328125 31.37109375 C7.24006333 49.65629161 8.69933563 75.90226097 8.70947266 99.23461914 C8.70456129 101.99075854 8.69672945 104.74688816 8.68911743 107.50302124 C8.67259313 114.18710399 8.66701178 120.87115144 8.66589268 127.55525292 C8.66493803 132.99620045 8.6608071 138.43713648 8.65449142 143.87808037 C8.63690176 159.34951375 8.62764889 174.82091954 8.62915237 190.292363 C8.62923228 191.12424991 8.6293122 191.95613682 8.62939453 192.81323242 C8.62947629 193.64615086 8.62955805 194.4790693 8.62964229 195.33722769 C8.63045436 208.82107284 8.61133066 222.30480607 8.5831178 235.78861887 C8.55428848 249.67815383 8.54058303 263.56763439 8.54230535 277.45719999 C8.54296583 285.23722693 8.53762488 293.01713655 8.51594925 300.79713631 C8.49760444 307.42337842 8.49349775 314.04945005 8.5069681 320.67570675 C8.51343193 324.04661709 8.51162079 327.41693906 8.4962616 330.78785896 C8.38410027 357.13124676 9.84184414 381.35612541 28.8125 401.25 C42.00974143 413.91221813 58.53805483 418.18225085 76.43177724 418.12649983 C77.23539544 418.12802638 78.03901365 418.12955293 78.86698392 418.13112573 C81.5519321 418.13501346 84.23682359 418.13181457 86.921772 418.12863445 C88.8776319 418.12998153 90.83349154 418.13176567 92.78935069 418.13394669 C98.17800307 418.13867905 103.56663858 418.13717425 108.9552918 418.13466892 C114.81251617 418.13303721 120.66973691 418.13717553 126.52696013 418.14057809 C136.79730377 418.14573568 147.06764313 418.14718342 157.3379879 418.14612198 C168.35766159 418.14499744 179.37733191 418.14603191 190.39700508 418.14969444 C191.09311945 418.1499241 191.78923381 418.15015375 192.50644255 418.15039036 C195.3416337 418.151332 198.17682485 418.15228769 201.012016 418.15326155 C230.58772789 418.16340564 260.16343789 418.16646752 289.73915133 418.16705366 C292.92256345 418.16711841 296.10597558 418.16718635 299.2893877 418.16725707 C300.47434023 418.16728258 300.47434023 418.16728258 301.68323119 418.1673086 C319.18848294 418.16771705 336.69373432 418.16990694 354.19898588 418.17241292 C361.4069072 418.17344127 368.61482853 418.1744313 375.82274985 418.17542917 C376.61916102 418.17553975 377.41557219 418.17565034 378.23611703 418.17576428 C423.87464684 418.18208841 469.51317642 418.18621339 515.1517067 418.18575573 C516.85967366 418.18573995 518.56764062 418.18572422 520.27560758 418.18570852 C527.98695543 418.18563514 535.69830327 418.18554697 543.40965111 418.18545464 C546.84834548 418.18541351 550.28703985 418.18537337 553.72573423 418.18533332 C555.4468626 418.18531293 557.16799098 418.18529191 558.88911935 418.18527026 C613.31654458 418.18458998 667.74396331 418.19190807 722.17138672 418.20581055 C735.88509748 418.20931155 749.59880826 418.212781 763.31251907 418.21607494 C764.57912147 418.21637925 764.57912147 418.21637925 765.87131179 418.21668971 C791.89527037 418.22290439 817.91922842 418.22667021 843.94318771 418.22793293 C844.76019985 418.22797288 845.57721198 418.22801283 846.41898206 418.22805399 C864.35410552 418.22890726 882.28922896 418.22916847 900.22435244 418.22888362 C906.64180733 418.22878713 913.05926223 418.22873509 919.47671713 418.22870489 C921.07322182 418.22869697 922.66972652 418.22868677 924.26623121 418.22867426 C949.70665233 418.22849793 975.14706788 418.23419638 1000.5874874 418.24282808 C1026.20973153 418.25147728 1051.83196795 418.25366988 1077.45421292 418.24706676 C1080.99527216 418.24615447 1084.53633141 418.24531119 1088.07739067 418.24450874 C1088.77152898 418.24434866 1089.46566728 418.24418857 1090.18084008 418.24402363 C1101.16881989 418.24167125 1112.15678635 418.24602675 1123.14476365 418.25317993 C1133.95113279 418.26007436 1144.75748135 418.25965506 1155.56385004 418.25198779 C1161.34367115 418.24809239 1167.12344492 418.24737053 1172.90326276 418.25544515 C1178.16287821 418.2627288 1183.42240693 418.26078174 1188.68201853 418.25152128 C1190.57137308 418.24980208 1192.46073444 418.25142141 1194.35008206 418.25682249 C1217.14248611 418.31760733 1236.12180528 415.44908963 1253.25 399.1875 C1267.76800974 384.03333334 1271.33447759 363.25587933 1271.26069641 342.88996887 C1271.26452196 341.74408332 1271.26834751 340.59819777 1271.27228898 339.41758841 C1271.28252427 335.61664176 1271.27864491 331.81584885 1271.2746582 328.01489258 C1271.27791988 325.2737383 1271.28413108 322.53259231 1271.29014587 319.79144287 C1271.30284013 313.14097821 1271.30469311 306.49055402 1271.30234561 299.84007929 C1271.30055602 294.42816341 1271.30232577 289.01625974 1271.30657005 283.60434532 C1271.30716524 282.83142719 1271.30776043 282.05850907 1271.30837366 281.26216918 C1271.30958553 279.69149528 1271.31079966 278.12082139 1271.31201603 276.5501475 C1271.32287169 261.84740299 1271.32073871 247.14468147 1271.31463119 232.44193568 C1271.30946626 219.02715111 1271.32070979 205.61243926 1271.33972941 192.19766907 C1271.35915965 178.38615217 1271.36735459 164.57466958 1271.36360615 150.76313895 C1271.36170164 143.02401726 1271.36410783 135.28495739 1271.37832069 127.54584694 C1271.39030199 120.95574582 1271.39156466 114.36574456 1271.37953053 107.7756419 C1271.37368807 104.42139892 1271.37407479 101.06748561 1271.38453293 97.71323204 C1271.45408714 73.65572948 1271.18859973 47.53617318 1253.83984375 28.71484375 C1238.05801615 14.00524223 1218.81128758 8.80918101 1197.63924706 8.8723495 C1196.84331851 8.87069872 1196.04738997 8.86904794 1195.22734237 8.86734714 C1192.56859723 8.86304396 1189.90990807 8.86581658 1187.25116158 8.86857224 C1185.31417162 8.86692157 1183.377182 8.86483483 1181.44019294 8.86235213 C1176.10389341 8.85678895 1170.76760994 8.85745726 1165.43130844 8.85912972 C1159.6307454 8.85986082 1153.83018689 8.85483788 1148.02962577 8.8505547 C1137.19011737 8.84341559 1126.35061343 8.84082659 1115.51110284 8.84032742 C1105.26632359 8.83980973 1095.02154772 8.83694651 1084.77676964 8.83201218 C1084.08735757 8.83168204 1083.39794549 8.83135191 1082.68764214 8.83101177 C1079.87973266 8.82966176 1077.07182318 8.82829909 1074.2639137 8.82691967 C1041.02807498 8.81062118 1007.79223697 8.80423152 974.55639494 8.7994718 C958.00501837 8.7970881 941.45364222 8.79338453 924.90226596 8.7894347 C871.80376224 8.77677042 818.70525853 8.76598663 765.60675332 8.76259424 C763.06916608 8.762432 760.53157883 8.76226644 757.99399159 8.76209986 C752.90487053 8.76176606 747.81574948 8.76143558 742.72662842 8.7611053 C736.76857913 8.7607184 730.81052984 8.76032879 724.85248055 8.75993423 C723.14724237 8.75982182 721.44200418 8.7597104 719.736766 8.75959998 C664.97568072 8.75605089 610.21460855 8.74097378 555.45352827 8.71766224 C516.10204471 8.70091727 476.75056363 8.68544417 437.39907646 8.68092728 C436.58954488 8.68083379 435.78001329 8.6807403 434.94595044 8.68064399 C417.17335987 8.67862479 399.40076934 8.67746887 381.62817866 8.6771154 C375.26848792 8.67697923 368.90879718 8.67677024 362.54910645 8.67652215 C360.96699995 8.67646059 359.38489346 8.67640227 357.80278697 8.6763472 C332.60819577 8.67542795 307.41361829 8.66546654 282.2190316 8.65088971 C256.83618795 8.63626275 231.45336111 8.63123869 206.070514 8.63930925 C202.55942302 8.64042456 199.04833201 8.64143524 195.53724098 8.64238358 C194.84900085 8.64257354 194.16076071 8.64276351 193.45166481 8.64295924 C183.23780567 8.64552152 173.02397469 8.63972431 162.81012154 8.62892532 C151.43850851 8.61695548 140.06695113 8.61485152 128.69533635 8.62618039 C122.97234797 8.63157373 117.24946753 8.63227815 111.52648808 8.61967167 C106.31140061 8.60828004 101.09650825 8.61091471 95.88142733 8.62433875 C94.0149333 8.62675741 92.14842397 8.62424353 90.28194684 8.61594227 C80.97878506 8.57731424 71.93218194 8.92771406 62.72610939 10.35137105 Z " fill="#A2A2A2" transform="translate(0,0)"/>
<path d="M0 0 C9.29103855 2.30345693 16.43860081 -0.34692688 25.0703125 -3.80078125 C40.1049835 -9.39250708 55.54042551 -11.35970974 70.93359375 -5.625 C80.72885901 -1.13163745 91.21090402 4.40791565 95.8203125 14.69921875 C95.13066406 15.18648437 94.44101562 15.67375 93.73046875 16.17578125 C83.04396638 24.23830018 75.61236242 34.38712362 72.8203125 47.69921875 C72.63984375 48.32699219 72.459375 48.95476562 72.2734375 49.6015625 C69.5903034 62.02262294 72.80413601 75.46295503 79.1640625 86.203125 C84.92820352 94.89012054 92.36597574 101.2219926 101.8203125 105.69921875 C97.25234412 125.49374841 82.65405754 150.99994932 65.8203125 162.69921875 C58.3667689 167.06466519 51.48587504 168.90858847 42.8203125 167.69921875 C37.02925981 166.00167194 31.42622353 163.73580108 25.84399414 161.45532227 C11.82275115 156.2165975 -2.17900521 160.23563749 -15.26708984 165.94311523 C-21.52846528 168.41841262 -28.87525477 168.82475946 -35.390625 167.12109375 C-57.05900663 157.39243261 -71.05205653 128.59124338 -79.1796875 107.69921875 C-80.71430859 103.42305544 -81.980788 99.08030361 -83.1796875 94.69921875 C-83.5509375 93.50296875 -83.9221875 92.30671875 -84.3046875 91.07421875 C-90.37095278 67.67576695 -89.5301628 42.28020546 -78.01953125 20.81640625 C-69.56303717 6.48884304 -57.11745368 -2.81056842 -41.1796875 -7.67578125 C-26.47314031 -10.58645205 -13.34573018 -5.72283006 0 0 Z " fill="#FEFEFE" transform="translate(194.1796875,158.30078125)"/>
<path d="M0 0 C10.05424512 7.1039647 16.74711548 17.0727559 19.26245117 29.10375977 C19.98875519 33.95083993 19.93521426 38.78837872 19.8984375 43.6796875 C19.91003906 45.22269531 19.91003906 45.22269531 19.921875 46.796875 C19.88548575 61.09784928 16.19369749 74.07671238 6.0390625 84.55078125 C-3.00994234 92.60912707 -13.0307365 94.20482655 -24.8515625 93.98828125 C-33.9761984 93.18376536 -41.2838984 89.56305172 -47.3515625 82.6796875 C-48.3415625 81.0296875 -49.3315625 79.3796875 -50.3515625 77.6796875 C-50.6815625 93.1896875 -51.0115625 108.6996875 -51.3515625 124.6796875 C-57.9515625 124.6796875 -64.5515625 124.6796875 -71.3515625 124.6796875 C-71.3515625 82.1096875 -71.3515625 39.5396875 -71.3515625 -4.3203125 C-64.7515625 -4.3203125 -58.1515625 -4.3203125 -51.3515625 -4.3203125 C-50.8565625 2.6096875 -50.8565625 2.6096875 -50.3515625 9.6796875 C-49.5678125 8.6484375 -48.7840625 7.6171875 -47.9765625 6.5546875 C-35.82829952 -7.60392633 -15.75709637 -8.8470076 0 0 Z " fill="#FAFAFA" transform="translate(676.3515625,233.3203125)"/>
<path d="M0 0 C8.98408697 7.00084481 13.55633078 18.49733726 15.76953125 29.37890625 C15.88692349 30.81402637 15.96338224 32.25258799 16.01953125 33.69140625 C16.07109375 34.86574219 16.12265625 36.04007812 16.17578125 37.25 C16.6124934 51.97730512 14.45695891 66.50480578 4.91015625 78.296875 C-2.8000368 86.44575145 -11.71271271 90.75856194 -23.03173828 91.17358398 C-33.9837699 91.26495522 -42.07908064 88.73615297 -50.16796875 80.94140625 C-51.78382517 79.19580953 -52.9162148 77.81991414 -53.98046875 75.69140625 C-54.31046875 90.87140625 -54.64046875 106.05140625 -54.98046875 121.69140625 C-61.58046875 121.69140625 -68.18046875 121.69140625 -74.98046875 121.69140625 C-74.98046875 79.12140625 -74.98046875 36.55140625 -74.98046875 -7.30859375 C-68.71046875 -7.30859375 -62.44046875 -7.30859375 -55.98046875 -7.30859375 C-55.65046875 -2.35859375 -55.32046875 2.59140625 -54.98046875 7.69140625 C-54.03171875 6.49515625 -53.08296875 5.29890625 -52.10546875 4.06640625 C-37.82683608 -12.26858122 -17.00802323 -11.23804297 0 0 Z " fill="#FBFBFB" transform="translate(573.98046875,236.30859375)"/>
<path d="M0 0 C8.56213841 7.99825408 14.17370238 18.13668424 15.27319336 29.93041992 C15.36493746 33.00073951 15.36078938 36.05379573 15.3125 39.125 C15.31572266 40.15753906 15.31894531 41.19007813 15.32226562 42.25390625 C15.28066213 48.19185927 14.72594496 53.3174664 13 59 C12.73960937 59.86367188 12.47921875 60.72734375 12.2109375 61.6171875 C7.91639741 73.21645932 0.4098982 80.7350754 -10.46484375 86.25 C-22.01964101 91.0244356 -37.53906396 91.12053257 -49.3125 86.9375 C-60.79610932 81.57748418 -68.60992003 73.68054061 -73.26293945 61.80737305 C-77.88285728 48.57297216 -78.7952949 30.58504573 -73.32421875 17.53125 C-66.14014136 3.79885428 -58.00799299 -4.01434737 -43.375 -9.3125 C-28.27969743 -12.45354276 -12.28202196 -9.46870411 0 0 Z " fill="#FBFBFB" transform="translate(997,238)"/>
<path d="M0 0 C7.59 0 15.18 0 23 0 C23.59200195 1.6507251 24.18400391 3.3014502 24.79394531 5.00219727 C37.80375884 41.27158003 50.87583489 77.51702892 64.07495117 113.71801758 C64.38814301 114.58093414 64.70133484 115.44385071 65.02401733 116.33291626 C65.71808057 118.22959418 66.42267348 120.12243329 67.13442993 122.01254272 C67.50168182 122.99542267 67.86893372 123.97830261 68.24731445 124.9909668 C68.75063042 126.32323555 68.75063042 126.32323555 69.26411438 127.68241882 C70 130 70 130 70 133 C62.74 133 55.48 133 48 133 C46.42923936 128.35656637 44.8612624 123.71238154 43.30029297 119.06567383 C42.76838764 117.4850485 42.23486836 115.90496535 41.69970703 114.32543945 C40.93097263 112.05560495 40.16805428 109.78388706 39.40625 107.51171875 C39.16563843 106.80536789 38.92502686 106.09901703 38.67712402 105.3712616 C37.70411908 102.45324788 37 100.0986998 37 97 C11.755 97.495 11.755 97.495 -14 98 C-17.96 109.55 -21.92 121.1 -26 133 C-32.93 133 -39.86 133 -47 133 C-46.29437784 128.76626702 -45.61938308 125.53496526 -44.21264648 121.60107422 C-43.84334518 120.56072525 -43.47404388 119.52037628 -43.09355164 118.44850159 C-42.69014053 117.32854294 -42.28672943 116.20858429 -41.87109375 115.0546875 C-41.44959549 113.87233017 -41.02809723 112.68997284 -40.59382629 111.4717865 C-39.45058456 108.26867161 -38.30279113 105.06726415 -37.15260315 101.866642 C-36.19550133 99.20100673 -35.24200819 96.53408682 -34.28850746 93.86716175 C-23.07309021 62.50021661 -11.78898936 31.15661474 0 0 Z " fill="#FBFBFB" transform="translate(416,193)"/>
<path d="M0 0 C4.01100547 3.71679969 6.65209661 8.41903393 9.125 13.25 C9.51042969 13.99121094 9.89585937 14.73242188 10.29296875 15.49609375 C11.125 18.25 11.125 18.25 11.125 27.25 C4.525 27.25 -2.075 27.25 -8.875 27.25 C-9.205 25.744375 -9.535 24.23875 -9.875 22.6875 C-11.64742067 16.81271601 -14.65784495 13.41725838 -19.875 10.25 C-25.62327461 7.4540262 -30.90150814 6.70072736 -37.25 6.75 C-38.08345947 6.75427002 -38.91691895 6.75854004 -39.77563477 6.76293945 C-47.8583744 6.98616726 -53.65709629 8.9516487 -59.375 14.8125 C-59.87 15.616875 -60.365 16.42125 -60.875 17.25 C-61.2875 17.848125 -61.7 18.44625 -62.125 19.0625 C-63.82711867 24.02701277 -63.28795194 28.05243938 -61.625 32.875 C-55.98505832 41.56146799 -42.41205806 43.67922799 -33.0625 45.75 C-16.5836849 49.64917909 -0.10413893 53.57757885 10.125 68.25 C15.14414758 77.40602313 15.26341593 86.99091482 12.5 96.875 C9.12689353 106.94697756 2.646937 114.53192113 -6.8125 119.4375 C-22.20156018 126.56756649 -41.87967719 128.36788658 -58.3125 123.625 C-71.08674813 118.73820709 -79.83588227 111.74706213 -85.71875 99.33984375 C-87.38248882 94.89383901 -87.73584506 90.98126788 -87.875 86.25 C-81.275 86.25 -74.675 86.25 -67.875 86.25 C-67.38 87.755625 -66.885 89.26125 -66.375 90.8125 C-63.27400439 98.45153796 -58.26469524 102.51118552 -50.75 105.6875 C-39.74934066 109.24743559 -27.37561743 108.15209042 -17.0625 103.0625 C-12.96682182 100.58504432 -10.15384904 97.96469012 -8.875 93.25 C-8.14062864 86.81998098 -7.87321937 81.6009003 -11.875 76.25 C-19.70250084 69.99816491 -30.5403869 68.08404808 -40.03515625 65.69140625 C-72.23319657 57.49934973 -72.23319657 57.49934973 -80.875 44.25 C-85.45163326 35.69652017 -86.4940381 26.50820495 -84.0625 17.109375 C-80.33058782 7.00211286 -73.71416149 -1.02632234 -63.98828125 -5.796875 C-63.29089844 -6.11140625 -62.59351563 -6.4259375 -61.875 -6.75 C-60.740625 -7.306875 -59.60625 -7.86375 -58.4375 -8.4375 C-39.20079635 -15.52470661 -16.32034495 -12.63395125 0 0 Z " fill="#FAFAFA" transform="translate(834.875,202.75)"/>
<path d="M0 0 C8.42065171 7.48502374 13.02009017 16.9949821 15.21484375 27.96875 C15.21484375 33.90875 15.21484375 39.84875 15.21484375 45.96875 C-7.22515625 45.96875 -29.66515625 45.96875 -52.78515625 45.96875 C-50.58747868 59.96497194 -50.58747868 59.96497194 -41.91796875 69.453125 C-35.01716746 74.35699112 -26.86208155 73.60064586 -18.78515625 72.96875 C-15.5652748 72.20829967 -13.22729014 71.21922275 -10.78515625 68.96875 C-10.00213911 67.55878098 -9.23201442 66.14160053 -8.47265625 64.71875 C-7.1015625 62.609375 -7.1015625 62.609375 -4.78515625 60.96875 C1.46009586 59.90118554 7.93199196 60.52086354 14.21484375 60.96875 C12.78335442 69.43713948 9.03990206 76.15104002 2.3125 81.5078125 C-6.87826599 87.90883015 -17.10354704 90.53636397 -28.22265625 90.40625 C-29.14280518 90.39795166 -30.0629541 90.38965332 -31.01098633 90.38110352 C-37.89992549 90.20977934 -43.69379336 89.37991322 -49.78515625 85.96875 C-50.64109375 85.494375 -51.49703125 85.02 -52.37890625 84.53125 C-62.04502721 78.47536699 -68.73145048 68.94138769 -71.78515625 57.96875 C-75.02786222 40.39678929 -73.96693929 22.41023988 -63.6953125 7.40625 C-57.11139296 -0.99531604 -47.89013416 -6.82867478 -37.31640625 -8.74609375 C-23.61259971 -10.28988677 -11.16476 -8.54095092 0 0 Z " fill="#FAFAFA" transform="translate(1155.78515625,237.03125)"/>
<path d="M0 0 C6.93 0 13.86 0 21 0 C21 7.59 21 15.18 21 23 C26.94 23 32.88 23 39 23 C39 28.28 39 33.56 39 39 C33.06 39 27.12 39 21 39 C21.08554257 46.62372042 21.17931395 54.24725472 21.28752708 61.87068558 C21.33744825 65.41065816 21.38377843 68.95060151 21.421875 72.49072266 C21.46584242 76.56171388 21.52547664 80.63234509 21.5859375 84.703125 C21.59748871 85.97303284 21.60903992 87.24294067 21.62094116 88.55133057 C21.64081085 89.73225281 21.66068054 90.91317505 21.68115234 92.12988281 C21.69447601 93.16912903 21.70779968 94.20837524 21.7215271 95.27911377 C22.00358117 98.03499064 22.49520546 99.69104984 24 102 C26.83269666 103.41634833 29.47466438 103.3463005 32.625 103.5625 C34.72875 103.706875 36.8325 103.85125 39 104 C39 109.28 39 114.56 39 120 C30.67361425 122.77546192 18.9164916 122.12970721 11.01953125 118.3359375 C5.93997903 114.97576949 2.92980748 110.72986819 1 105 C0.75949097 101.89311218 0.75949097 101.89311218 0.77294922 98.3737793 C0.77265717 97.72931351 0.77236511 97.08484772 0.77206421 96.42085266 C0.77344995 94.30516779 0.78897493 92.18984158 0.8046875 90.07421875 C0.80842033 88.60163058 0.81126603 87.12903991 0.81326294 85.65644836 C0.82087817 81.79142328 0.84050837 77.92654987 0.8626709 74.06158447 C0.88317492 70.11334281 0.89227438 66.1650765 0.90234375 62.21679688 C0.92375642 54.47778762 0.95892118 46.73893444 1 39 C-3.95 39 -8.9 39 -14 39 C-14 33.72 -14 28.44 -14 23 C-9.38 23 -4.76 23 0 23 C0 15.41 0 7.82 0 0 Z " fill="#F7F7F7" transform="translate(871,206)"/>
<path d="M0 0 C5.094375 -0.0825 10.18875 -0.165 15.4375 -0.25 C17.82053345 -0.30462402 17.82053345 -0.30462402 20.25170898 -0.36035156 C29.17819898 -0.43019097 35.9292954 0.25588249 43.26953125 5.67578125 C51.21002841 14.098739 53.27819751 21.196061 53.1484375 32.71875 C52.71980713 42.19373716 49.80500414 50.74558776 42.75 57.375 C29.48816095 66.65828733 16.69237553 63 0 63 C0 42.21 0 21.42 0 0 Z " fill="#FBFBFB" transform="translate(382,94)"/>
<path d="M0 0 C7.0035891 3.74217748 10.86211625 9.57256891 13.3046875 17.0234375 C15.82343185 29.39075527 15.356099 44.00333905 8.45703125 54.8671875 C3.94295835 60.5071962 -0.887926 63.94281441 -8.1171875 64.8125 C-16.22165345 65.11197218 -21.77211792 64.13472199 -27.8984375 58.77734375 C-35.06192572 51.41738855 -37.35602664 43.10492834 -37.4375 33.0625 C-37.28155028 23.21476621 -36.48693973 12.82246476 -29.7734375 5.09375 C-21.48702261 -2.64510443 -10.63697489 -4.13260849 0 0 Z " fill="#020202" transform="translate(978,246.5625)"/>
<path d="M0 0 C7.6942107 8.04394755 10.16903324 17.28918522 10.11352539 28.19116211 C9.875581 38.05686516 7.75946452 47.14907727 0.578125 54.28515625 C-5.83727183 59.8643582 -10.37415175 60.53323308 -18.87109375 60.25390625 C-25.20334594 59.54381554 -29.17237775 57.29363259 -33.5 52.6875 C-41.1999353 42.93145119 -42.07457975 31.88518329 -41.25 19.875 C-39.63928185 11.12377337 -35.9330144 4.74521535 -29.25 -1.125 C-19.55792921 -7.08935125 -9.37708429 -6.1311705 0 0 Z " fill="#020202" transform="translate(666.25,250.125)"/>
<path d="M0 0 C7.69820649 4.30761711 12.06489613 10.60534112 14.75 18.9375 C15.29063652 22.76866883 15.31120715 26.51129851 15.25 30.375 C15.26546875 31.34759766 15.2809375 32.32019531 15.296875 33.32226562 C15.24836907 42.39893727 12.86582288 50.75825726 6.4921875 57.46484375 C0.41750146 62.5997241 -6.20904529 63.72991887 -14.03125 63.4375 C-20.45944022 62.43894618 -25.10157549 59.65764662 -29.12890625 54.55859375 C-36.23653491 43.34052924 -37.26204679 29.54045058 -34.5625 16.65625 C-31.81108125 9.22741938 -27.40162088 3.87269636 -20.5 0 C-13.26101653 -3.26187728 -7.23898347 -3.26187728 0 0 Z " fill="#020202" transform="translate(554.25,247.0625)"/>
<path d="M0 0 C0.87785156 -0.00257813 1.75570313 -0.00515625 2.66015625 -0.0078125 C4.9375 0.125 4.9375 0.125 6.9375 1.125 C6.9375 7.065 6.9375 13.005 6.9375 19.125 C3.225 19.2178125 3.225 19.2178125 -0.5625 19.3125 C-6.90489407 19.62987514 -12.56386338 20.15868333 -17.0625 25.125 C-22.25961445 31.8436867 -21.66713704 39.12379178 -21.671875 47.24609375 C-21.68687181 48.7158438 -21.7036021 50.18557709 -21.72198486 51.6552887 C-21.76550301 55.50378229 -21.78562258 59.35204861 -21.80072021 63.20074463 C-21.82034778 67.13591871 -21.86231122 71.07084934 -21.90234375 75.00585938 C-21.97747751 82.71220467 -22.02580321 90.41835825 -22.0625 98.125 C-28.6625 98.125 -35.2625 98.125 -42.0625 98.125 C-42.0625 66.115 -42.0625 34.105 -42.0625 1.125 C-35.7925 1.125 -29.5225 1.125 -23.0625 1.125 C-22.7325 5.415 -22.4025 9.705 -22.0625 14.125 C-21.2375 12.908125 -20.4125 11.69125 -19.5625 10.4375 C-14.62740807 3.82611794 -8.32835679 -0.02453124 0 0 Z " fill="#FAFAFA" transform="translate(1071.0625,227.875)"/>
<path d="M0 0 C2.97 0 5.94 0 9 0 C9 22.11 9 44.22 9 67 C6.03 67 3.06 67 0 67 C-0.495 64.03 -0.495 64.03 -1 61 C-1.47050781 61.42152344 -1.94101562 61.84304687 -2.42578125 62.27734375 C-3.04839844 62.82519531 -3.67101562 63.37304688 -4.3125 63.9375 C-4.92738281 64.48277344 -5.54226563 65.02804688 -6.17578125 65.58984375 C-10.4980184 68.93101637 -15.80529157 68.43086001 -21 68 C-27.13420118 65.99458808 -31.10392232 61.63592424 -34.04296875 56 C-37.20244341 47.93073139 -37.28860067 38.72254674 -34.4375 30.5625 C-31.68900316 24.54710657 -27.06953153 20.54418333 -21 18 C-14.55295391 16.95838541 -9.95524335 17.95472124 -4.59375 21.61328125 C-3 23 -3 23 -1 26 C-0.67 17.42 -0.34 8.84 0 0 Z " fill="#F8F8F8" transform="translate(799,90)"/>
<path d="M0 0 C5.54259808 3.28348632 9.46587532 8.26306001 11.3671875 14.40234375 C12.17774738 22.73414535 12.47333357 31.36183593 7.3671875 38.40234375 C2.82311463 43.32587991 -1.63856793 46.87238113 -8.4296875 47.7734375 C-15.68379163 47.93655889 -20.9420683 47.10339331 -26.6328125 42.40234375 C-33.90132886 34.52045048 -34.23936512 27.43176171 -34.03515625 17.10546875 C-33.71163039 11.25206857 -32.0330856 7.34869394 -27.6328125 3.40234375 C-18.8345842 -3.3910152 -10.24231519 -4.48300711 0 0 Z " fill="#F7F7F7" transform="translate(881.6328125,110.59765625)"/>
<path d="M0 0 C6.04371244 3.37876837 10.43404447 7.62664861 12.984375 14.109375 C14.26402436 21.89619766 14.3626827 30.9155589 10.484375 37.921875 C6.71388088 43.11637996 2.0100884 46.10080387 -4.015625 48.109375 C-10.89281926 48.82256552 -16.55973362 48.85619534 -22.265625 44.671875 C-27.39159558 40.09511555 -31.72915108 35.54706198 -32.31640625 28.5 C-32.55825724 11.9182166 -32.55825724 11.9182166 -26.98828125 5.9296875 C-18.90357079 -1.63039117 -10.56696663 -4.48039385 0 0 Z " fill="#F8F8F8" transform="translate(687.015625,109.890625)"/>
<path d="M0 0 C6.04371244 3.37876837 10.43404447 7.62664861 12.984375 14.109375 C14.26402436 21.89619766 14.3626827 30.9155589 10.484375 37.921875 C6.71388088 43.11637996 2.0100884 46.10080387 -4.015625 48.109375 C-11.39026577 48.79051411 -18.02328212 48.2840091 -23.9609375 43.5625 C-28.67569141 39.10419714 -31.71938792 34.93814869 -32.4140625 28.3046875 C-32.42743822 26.94796011 -32.41901902 25.59087119 -32.390625 24.234375 C-32.37829834 23.52474609 -32.36597168 22.81511719 -32.35327148 22.08398438 C-32.13743242 15.3566133 -31.6170726 10.9063071 -26.98828125 5.9296875 C-18.90357079 -1.63039117 -10.56696663 -4.48039385 0 0 Z " fill="#F8F8F8" transform="translate(478.015625,109.890625)"/>
<path d="M0 0 C1.07021014 14.56674907 -3.62830512 28.12146568 -12.94921875 39.34765625 C-20.58063069 47.36888491 -30.32739539 53.16200293 -41.546875 54.24609375 C-43.36643052 54.24931991 -45.18580115 54.13955376 -47 54 C-47.93185156 39.40099228 -43.45600891 27.94411048 -34.12109375 16.74609375 C-25.69759518 7.77804578 -12.58335663 0 0 0 Z " fill="#FAFAFA" transform="translate(248,93)"/>
<path d="M0 0 C3.3 0 6.6 0 10 0 C10.23710693 0.95366455 10.47421387 1.9073291 10.71850586 2.88989258 C11.59881985 6.42925362 12.4806931 9.96822461 13.36303711 13.50708008 C13.7446476 15.03854961 14.12583558 16.57012449 14.5065918 18.10180664 C15.05406331 20.303827 15.60305488 22.50546362 16.15234375 24.70703125 C16.3221727 25.39150833 16.49200165 26.07598541 16.66697693 26.78120422 C17.3616377 29.56017506 18.09367363 32.2810209 19 35 C19.19634033 34.25951416 19.39268066 33.51902832 19.5949707 32.75610352 C20.49789877 29.35745361 21.40516746 25.95997658 22.3125 22.5625 C22.7755957 20.81549805 22.7755957 20.81549805 23.24804688 19.03320312 C24.96774144 12.60697605 26.81574381 6.28393703 29 0 C31.97 0 34.94 0 38 0 C40.69346598 6.66108651 42.44955692 13.39539037 44.125 20.375 C44.64636978 22.52914734 45.16970635 24.68281991 45.6953125 26.8359375 C45.92234863 27.78001465 46.14938477 28.7240918 46.38330078 29.69677734 C46.91867152 32.004558 46.91867152 32.004558 48 34 C50.88498027 26.99980764 52.54543155 19.8791718 54.1875 12.5 C54.46013672 11.29601562 54.73277344 10.09203125 55.01367188 8.8515625 C55.68080443 5.90213438 56.34276745 2.95164702 57 0 C60.3 0 63.6 0 67 0 C64.9866052 8.94247159 62.87242412 17.76976948 60.08203125 26.5078125 C57.87838989 33.61992576 55.9664206 40.81934116 54 48 C50.37 48 46.74 48 43 48 C42.60167969 46.46730469 42.20335937 44.93460938 41.79296875 43.35546875 C41.25784591 41.29947047 40.72268777 39.24348138 40.1875 37.1875 C39.92646484 36.18267578 39.66542969 35.17785156 39.39648438 34.14257812 C37.64435908 27.41528223 35.84423598 20.70262705 34 14 C32.29078893 17.14358585 31.26568708 20.23989885 30.30859375 23.68359375 C30.00373047 24.77607422 29.69886719 25.86855469 29.38476562 26.99414062 C29.07216797 28.13044922 28.75957031 29.26675781 28.4375 30.4375 C28.12103516 31.56994141 27.80457031 32.70238281 27.47851562 33.86914062 C26.17228232 38.57546317 24.95874118 43.2062941 24 48 C20.37 48 16.74 48 13 48 C12.5978125 46.53820312 12.5978125 46.53820312 12.1875 45.046875 C11.79197494 43.61449817 11.39610867 42.18221555 11 40.75 C10.78577393 39.97527344 10.57154785 39.20054687 10.35083008 38.40234375 C8.88941311 33.14063647 7.39738409 27.88841279 5.88671875 22.640625 C5.52384766 21.37895508 5.16097656 20.11728516 4.78710938 18.81738281 C4.05759925 16.28482947 3.32585002 13.75291998 2.59179688 11.22167969 C2.25599609 10.05540039 1.92019531 8.88912109 1.57421875 7.6875 C1.27088623 6.63949219 0.96755371 5.59148437 0.6550293 4.51171875 C0 2 0 2 0 0 Z " fill="#F6F6F6" transform="translate(498,109)"/>
<path d="M0 0 C5.99807388 3.47321732 9.15127566 8.09693915 11.6875 14.4375 C11.6875 18.3975 11.6875 22.3575 11.6875 26.4375 C0.4675 26.4375 -10.7525 26.4375 -22.3125 26.4375 C-20.26111814 34.93352929 -20.26111814 34.93352929 -16.625 38 C-12.61069093 39.74205865 -9.61552817 40.16465188 -5.3125 39.4375 C-0.99024504 37.87093215 -0.99024504 37.87093215 1.6875 34.4375 C4.6575 34.4375 7.6275 34.4375 10.6875 34.4375 C10.0210357 40.26906263 7.3073664 43.10560985 2.875 46.75 C-2.98953005 49.82129483 -9.94129395 49.31536973 -16.3125 48.4375 C-23.77641097 45.65046419 -27.97008494 41.34541727 -31.37890625 34.203125 C-33.82270833 26.96374477 -33.45042272 17.80223076 -30.25 10.875 C-23.90297143 0.0688692 -12.02461381 -5.38795196 0 0 Z " fill="#F6F6F6" transform="translate(1109.3125,109.5625)"/>
<path d="M0 0 C3.71980115 2.39737704 5.50239773 5.08141193 6.87890625 9.2109375 C6.96409492 12.01520202 6.99479145 14.793901 6.9765625 17.59765625 C6.97514755 18.41466507 6.9737326 19.23167389 6.97227478 20.07344055 C6.96667919 22.68181018 6.95412754 25.29009384 6.94140625 27.8984375 C6.93639068 29.66731647 6.93182787 31.43619678 6.92773438 33.20507812 C6.91671121 37.54039769 6.89944963 41.87565302 6.87890625 46.2109375 C3.90890625 46.2109375 0.93890625 46.2109375 -2.12109375 46.2109375 C-2.12109375 44.2309375 -2.12109375 42.2509375 -2.12109375 40.2109375 C-2.66378906 40.63246094 -3.20648437 41.05398437 -3.765625 41.48828125 C-4.48105469 42.03613281 -5.19648437 42.58398438 -5.93359375 43.1484375 C-6.64128906 43.69371094 -7.34898437 44.23898438 -8.078125 44.80078125 C-12.8766196 48.11293527 -18.51876308 47.89949211 -24.12109375 47.2109375 C-28.27226847 45.47879265 -30.56973445 43.02908356 -33.05859375 39.3359375 C-34.31782135 35.63232692 -34.60727373 33.10037734 -34.12109375 29.2109375 C-31.66749014 24.39809964 -28.80395784 21.84504855 -24.12109375 19.2109375 C-21.35735198 18.35294736 -18.89785431 18.09141659 -16.01171875 18.11328125 C-15.25761719 18.11650391 -14.50351562 18.11972656 -13.7265625 18.12304688 C-12.94925781 18.13142578 -12.17195312 18.13980469 -11.37109375 18.1484375 C-10.57832031 18.15294922 -9.78554688 18.15746094 -8.96875 18.16210938 C-7.01949867 18.17385185 -5.07028637 18.19178604 -3.12109375 18.2109375 C-3.54379429 14.79147939 -4.075713 11.49953112 -5.12109375 8.2109375 C-8.69338321 5.55723676 -12.78971544 5.67901385 -17.12109375 6.2109375 C-18.58139006 7.48076037 -20.0408368 8.75409996 -21.43359375 10.09765625 C-24.64941324 12.21920383 -28.42507612 11.58053926 -32.12109375 11.2109375 C-31.61183431 6.75491738 -30.33620342 4.34566943 -27.12109375 1.2109375 C-18.56176574 -4.2698796 -9.02809194 -4.55442205 0 0 Z " fill="#F4F4F4" transform="translate(744.12109375,110.7890625)"/>
<path d="M0 0 C21.59330144 0 21.59330144 0 27 5 C33.31729226 11.9382227 34.62791923 17.78368662 34.41015625 27.1171875 C33.73748683 33.48512471 31.11063165 38.14858765 26.40625 42.4609375 C18.47532302 48.16634926 9.73683244 46 0 46 C0 30.82 0 15.64 0 0 Z " fill="#070707" transform="translate(391,102)"/>
<path d="M0 0 C0.66 0 1.32 0 2 0 C4.06408748 5.90375058 6.12702949 11.80789977 8.18896484 17.71240234 C8.88885442 19.71608989 9.58904315 21.71967297 10.28955078 23.72314453 C12.53506451 30.14576227 14.77221498 36.57121164 17 43 C17.24016846 43.69037354 17.48033691 44.38074707 17.7277832 45.09204102 C18.3183484 46.79399705 18.90175829 48.49843167 19.484375 50.203125 C19.78569336 51.08129883 20.08701172 51.95947266 20.39746094 52.86425781 C21 55 21 55 21 58 C7.8 58 -5.4 58 -19 58 C-15.625 45.625 -15.625 45.625 -14.19067383 41.43676758 C-13.87056839 40.49662308 -13.55046295 39.55647858 -13.22065735 38.58784485 C-12.88616074 37.61655136 -12.55166412 36.64525787 -12.20703125 35.64453125 C-11.68069344 34.10305672 -11.68069344 34.10305672 -11.14372253 32.53044128 C-10.03648005 29.29003454 -8.92457639 26.05125056 -7.8125 22.8125 C-7.05502803 20.5984135 -6.29786373 18.38422171 -5.54101562 16.16992188 C-3.69756181 10.77872692 -1.85029181 5.38885168 0 0 Z " fill="#070707" transform="translate(426,216)"/>
<path d="M0 0 C2.97 0 5.94 0 9 0 C9.33 8.58 9.66 17.16 10 26 C11.65 24.02 13.3 22.04 15 20 C19.47492689 16.94006975 24.79626839 17.38824055 30 18 C35.00230198 20.45567552 38.49851535 23.9970307 41 29 C41.08691001 31.84429357 41.11553802 34.66379176 41.09765625 37.5078125 C41.0962413 38.34843231 41.09482635 39.18905212 41.09336853 40.05514526 C41.08776237 42.74513275 41.07520886 45.43503759 41.0625 48.125 C41.05748579 49.94661338 41.05292275 51.76822807 41.04882812 53.58984375 C41.03779094 58.05992777 41.0205222 62.52994986 41 67 C38.03 67 35.06 67 32 67 C31.98018066 66.05680908 31.96036133 65.11361816 31.93994141 64.1418457 C31.86165234 60.62856966 31.77495302 57.11570736 31.68261719 53.6027832 C31.64443296 52.08496022 31.60956192 50.56704999 31.578125 49.04907227 C31.53224372 46.86182569 31.47428971 44.67517418 31.4140625 42.48828125 C31.3826416 41.17384033 31.3512207 39.85939941 31.31884766 38.50512695 C31.01903988 35.20930748 30.50877532 32.92492136 29 30 C25.57499662 27.61770378 22.25579655 27.53181423 18.19140625 27.60546875 C14.66734486 28.23992543 13.10265242 30.24026869 11 33 C9.52793987 35.94412027 9.76192808 38.96285915 9.68359375 42.1953125 C9.66281265 42.90275604 9.64203156 43.61019958 9.62062073 44.33908081 C9.55518922 46.60095425 9.49627026 48.86294462 9.4375 51.125 C9.39430867 52.65756422 9.35069418 54.19011657 9.30664062 55.72265625 C9.19951445 59.48165073 9.0982291 63.24076292 9 67 C6.03 67 3.06 67 0 67 C0 44.89 0 22.78 0 0 Z " fill="#FCFCFC" transform="translate(1024,90)"/>
<path d="M0 0 C0.33 0 0.66 0 1 0 C1 22.11 1 44.22 1 67 C-21.44 67 -43.88 67 -67 67 C-67 66.67 -67 66.34 -67 66 C-65.38544922 65.76216797 -65.38544922 65.76216797 -63.73828125 65.51953125 C-44.04538242 62.44803702 -26.62994352 55.23706246 -14.08984375 39.0625 C-7.36037419 29.20099694 -2.91480956 18.81899692 -1 7 C-0.87109375 6.22140625 -0.7421875 5.4428125 -0.609375 4.640625 C-0.37492443 3.09818701 -0.18019918 1.54971297 0 0 Z " fill="#000000" transform="translate(1279,361)"/>
<path d="M0 0 C0.33 0 0.66 0 1 0 C1.15855469 1.00417969 1.31710938 2.00835937 1.48046875 3.04296875 C4.72288585 22.49029784 12.10551016 39.62295757 28.078125 51.98046875 C39.96792379 60.19841792 53.61009107 64.82531356 68 66 C68 66.33 68 66.66 68 67 C45.56 67 23.12 67 0 67 C0 44.89 0 22.78 0 0 Z " fill="#000000" transform="translate(0,361)"/>
<path d="M0 0 C22.11 0 44.22 0 67 0 C67 22.11 67 44.22 67 67 C66.67 67 66.34 67 66 67 C65.84144531 65.99582031 65.68289063 64.99164063 65.51953125 63.95703125 C63.23014774 50.2257952 59.2394977 38.40991312 51 27 C50.48953125 26.29230469 49.9790625 25.58460937 49.453125 24.85546875 C37.2720397 9.56880973 18.60575177 3.56786405 0 1 C0 0.67 0 0.34 0 0 Z " fill="#000000" transform="translate(1213,0)"/>
<path d="M0 0 C22.11 0 44.22 0 67 0 C67 0.33 67 0.66 67 1 C65.9584375 1.13535156 64.916875 1.27070313 63.84375 1.41015625 C45.28822118 4.0843354 29.15762523 11.21776793 16.6875 25.625 C7.55122549 37.93574277 2.46271448 51.78776944 1 67 C0.67 67 0.34 67 0 67 C0 44.89 0 22.78 0 0 Z " fill="#000000" transform="translate(0,0)"/>
<path d="M0 0 C5.00230198 2.45567552 8.49851535 5.9970307 11 11 C11.08691001 13.84429357 11.11553802 16.66379176 11.09765625 19.5078125 C11.0962413 20.34843231 11.09482635 21.18905212 11.09336853 22.05514526 C11.08776237 24.74513275 11.07520886 27.43503759 11.0625 30.125 C11.05748579 31.94661338 11.05292275 33.76822807 11.04882812 35.58984375 C11.03779094 40.05992777 11.0205222 44.52994986 11 49 C7.7 49 4.4 49 1 49 C0.97494385 47.95545654 0.9498877 46.91091309 0.92407227 45.8347168 C0.82991461 41.96007984 0.72971428 38.08561866 0.62768555 34.21118164 C0.58436833 32.53414013 0.54269093 30.85705542 0.50268555 29.17993164 C0.44490515 26.76956159 0.3812332 24.3594083 0.31640625 21.94921875 C0.29969376 21.19912033 0.28298126 20.44902191 0.26576233 19.67619324 C0.17655767 16.54322008 -0.00236453 13.9929064 -1 11 C-3.73887444 9.98116268 -6.53005048 9.75601159 -9.4375 9.625 C-10.17871094 9.57601562 -10.91992188 9.52703125 -11.68359375 9.4765625 C-15.30109134 10.29400715 -16.69362637 12.15223403 -19 15 C-19.50722152 17.83732319 -19.72254511 20.09373781 -19.70703125 22.92578125 C-19.72215256 23.67337204 -19.73727386 24.42096283 -19.75285339 25.19120789 C-19.79564081 27.56528087 -19.8045588 29.93808031 -19.8125 32.3125 C-19.83565158 33.92776802 -19.86101831 35.54300591 -19.88867188 37.15820312 C-19.95143457 41.10558086 -19.98383984 45.05216754 -20 49 C-23.3 49 -26.6 49 -30 49 C-30 33.16 -30 17.32 -30 1 C-27.03 1 -24.06 1 -21 1 C-20.67 3.31 -20.34 5.62 -20 8 C-19.2575 7.05125 -18.515 6.1025 -17.75 5.125 C-13.07720789 -0.84578991 -7.13629224 -0.83895453 0 0 Z " fill="#F5F5F5" transform="translate(606,108)"/>
<path d="M0 0 C4.32478986 1.99667868 7.16109271 4.19599212 9.77734375 8.27734375 C11.05119502 12.09889755 10.90087563 15.68418845 10.875 19.6640625 C10.87358505 20.48107132 10.8721701 21.29808014 10.87071228 22.1398468 C10.86511669 24.74821643 10.85256504 27.35650009 10.83984375 29.96484375 C10.83482818 31.73372272 10.83026537 33.50260303 10.82617188 35.27148438 C10.81514871 39.60680394 10.79788713 43.94205927 10.77734375 48.27734375 C7.47734375 48.27734375 4.17734375 48.27734375 0.77734375 48.27734375 C0.76276123 47.26833008 0.74817871 46.25931641 0.7331543 45.21972656 C0.67510261 41.46969484 0.59787083 37.72025929 0.51489258 33.97070312 C0.4816754 32.34905689 0.4536334 30.72729594 0.4309082 29.10546875 C0.3973022 26.77163898 0.34498615 24.4388574 0.2890625 22.10546875 C0.28267258 21.3824054 0.27628265 20.65934204 0.2696991 19.91436768 C0.1499778 15.79907377 -0.17664313 13.17197707 -3.22265625 10.27734375 C-6.93279726 9.04063008 -10.36704383 8.71365772 -14.22265625 9.27734375 C-17.03269085 11.07098286 -18.73206093 12.2961531 -20.22265625 15.27734375 C-20.37892201 17.75567034 -20.48078823 20.21045706 -20.5390625 22.69140625 C-20.5598436 23.42104584 -20.58062469 24.15068542 -20.60203552 24.9024353 C-20.66747542 27.23564138 -20.72638993 29.56896096 -20.78515625 31.90234375 C-20.82834678 33.4830847 -20.87196124 35.06381414 -20.91601562 36.64453125 C-21.02315106 40.52201879 -21.12443407 44.3996206 -21.22265625 48.27734375 C-24.19265625 48.27734375 -27.16265625 48.27734375 -30.22265625 48.27734375 C-30.22265625 32.43734375 -30.22265625 16.59734375 -30.22265625 0.27734375 C-27.25265625 0.27734375 -24.28265625 0.27734375 -21.22265625 0.27734375 C-20.89265625 2.25734375 -20.56265625 4.23734375 -20.22265625 6.27734375 C-19.48015625 5.49359375 -18.73765625 4.70984375 -17.97265625 3.90234375 C-12.673914 -1.15554658 -7.02894235 -2.28533275 0 0 Z " fill="#F8F8F8" transform="translate(936.22265625,108.72265625)"/>
<path d="M0 0 C6.21171289 3.49470376 10.06859223 8.14761112 12.625 14.875 C12.625 17.515 12.625 20.155 12.625 22.875 C-3.215 22.875 -19.055 22.875 -35.375 22.875 C-35.375 14.9935016 -33.99508259 10.83903344 -28.73046875 5.07421875 C-20.40803813 -2.49675086 -10.37766711 -4.79445127 0 0 Z " fill="#050505" transform="translate(1138.375,246.125)"/>
<path d="M0 0 C2.97 0 5.94 0 9 0 C9 3.96 9 7.92 9 12 C12.63 12 16.26 12 20 12 C20 14.64 20 17.28 20 20 C16.37 20 12.74 20 9 20 C9.09363611 23.93309734 9.19975145 27.86564085 9.31738281 31.7980957 C9.37444092 33.7929536 9.42164442 35.7880854 9.46875 37.78320312 C9.50742187 39.03681641 9.54609375 40.29042969 9.5859375 41.58203125 C9.63306885 43.31803589 9.63306885 43.31803589 9.68115234 45.08911133 C9.79471033 48.19127028 9.79471033 48.19127028 12 51 C13.96361864 51.57748803 13.96361864 51.57748803 16.125 51.6875 C17.40375 51.790625 18.6825 51.89375 20 52 C20 54.64 20 57.28 20 60 C17.93816367 60.08150744 15.87538651 60.1394194 13.8125 60.1875 C12.08966797 60.23970703 12.08966797 60.23970703 10.33203125 60.29296875 C6.62421106 59.96695877 4.86860114 59.3488901 2 57 C-0.19382049 52.81893703 -0.23253229 49.1828028 -0.1953125 44.51171875 C-0.1924826 43.80852005 -0.18965271 43.10532135 -0.18673706 42.3808136 C-0.17560151 40.14953108 -0.15050997 37.91865983 -0.125 35.6875 C-0.1149616 34.16862562 -0.10583726 32.6497449 -0.09765625 31.13085938 C-0.07568413 27.42044079 -0.04120047 23.71026058 0 20 C-2.64 20 -5.28 20 -8 20 C-8 17.36 -8 14.72 -8 12 C-5.36 12 -2.72 12 0 12 C0 8.04 0 4.08 0 0 Z " fill="#FAFAFA" transform="translate(991,97)"/>
<path d="M0 0 C3.88461272 1.99780083 6.41659092 4.94875515 8 9 C8.77149685 15.7819956 8.87642605 22.50244069 5.25390625 28.47265625 C3.06944892 31.13347499 1.30637283 32.0642341 -2 33 C-5.88985849 33.27490166 -9.43152449 33.20098246 -12.6171875 30.76171875 C-17.27211834 25.43196065 -18.46419362 20.45605177 -18.3203125 13.5703125 C-17.70947336 8.66870089 -15.7991906 4.6575522 -12.1640625 1.30859375 C-8.31533593 -1.01870481 -4.33994663 -0.7392969 0 0 Z " fill="#050505" transform="translate(875,117)"/>
<path d="M0 0 C4.29384401 1.73580928 6.00178582 3.88077635 8 8 C8.31540185 10.74768999 8.46546861 13.19911849 8.4375 15.9375 C8.4674707 16.97293945 8.4674707 16.97293945 8.49804688 18.02929688 C8.49317698 23.16703112 7.20360772 26.04573143 4 30 C1.07327328 32.37302167 -0.68309204 32.95966626 -4.4375 33.4375 C-8.774191 32.90492391 -10.73460574 31.89432673 -14 29 C-17.90875455 22.87628454 -17.82050292 16.09021544 -17 9 C-14.01176188 0.28430547 -8.36677602 -0.85675786 0 0 Z " fill="#040404" transform="translate(682,117)"/>
<path d="M0 0 C4.29336182 1.73561435 5.98964558 3.88919123 8 8 C8.3984375 11.55859375 8.3984375 11.55859375 8.375 15.4375 C8.38273437 16.71496094 8.39046875 17.99242187 8.3984375 19.30859375 C7.82176723 24.65127416 6.31298696 27.86605671 2.25 31.375 C-1.61081305 33.30540652 -3.73431986 33.60938288 -8 33 C-12.23723695 30.96286685 -14.89720655 28.77338844 -16.52734375 24.25390625 C-17.8591221 17.90319461 -18.37164486 10.65418115 -15.1875 4.8125 C-10.81551573 -0.80862264 -6.65113156 -0.68107587 0 0 Z " fill="#040404" transform="translate(473,117)"/>
<path d="M0 0 C4.04258576 1.87156748 5.61840231 3.35128392 7.875 7.1875 C9.84481043 13.86296867 9.76084595 19.83487925 6.9609375 26.26953125 C5.33285889 29.20139639 4.00427049 30.46590443 1 32 C-3.1400127 32.72692531 -7.07442363 32.96081929 -10.91015625 31.046875 C-14.22257705 28.47506917 -15.74079439 25.90807508 -17 22 C-17.86558368 14.61234395 -17.57351708 8.97098063 -13 3 C-9.52505312 -0.98975382 -4.9329253 -0.75364137 0 0 Z " fill="#050505" transform="translate(790,117)"/>
<path d="M0 0 C3.3 0 6.6 0 10 0 C10 22.11 10 44.22 10 67 C6.7 67 3.4 67 0 67 C0 44.89 0 22.78 0 0 Z " fill="#F1F1F1" transform="translate(632,90)"/>
<path d="M0 0 C2.76020604 2.32108235 4.27693791 4.03902869 5.75 7.3125 C5.75 8.6325 5.75 9.9525 5.75 11.3125 C-2.5 11.3125 -10.75 11.3125 -19.25 11.3125 C-18.24374473 5.27496837 -17.34053076 2.55047055 -12.4375 -1 C-7.7595459 -2.47021415 -4.34604525 -2.25660042 0 0 Z " fill="#121212" transform="translate(1106.25,117.6875)"/>
<path d="M0 0 C0.70189453 0.00451172 1.40378906 0.00902344 2.12695312 0.01367188 C3.85550538 0.02543073 5.58401365 0.04336546 7.3125 0.0625 C7.29071292 5.06263375 7.05012098 8.1589143 3.8125 12.125 C0.49824225 14.42501502 -2.59467264 14.72845796 -6.5625 14.48046875 C-9.8972804 13.82454687 -11.55237352 12.67975182 -13.6875 10.0625 C-14.1875 7 -14.1875 7 -13.6875 4.0625 C-10.26896158 -0.65833878 -5.30992425 -0.06445286 0 0 Z " fill="#060606" transform="translate(733.6875,135.9375)"/>
</svg>
