<?xml version="1.0" encoding="UTF-8"?>
<svg version="1.1" xmlns="http://www.w3.org/2000/svg" width="2204" height="488">
<path d="M0 0 C0.38922737 46.5489916 0.68872189 93.09781076 0.8681106 139.64810924 C0.88937226 145.1454544 0.91137578 150.64279635 0.93383789 156.14013672 C0.94052681 157.78174856 0.94052681 157.78174856 0.94735085 159.45652428 C1.02129659 177.17043196 1.15531748 194.88340043 1.31159753 212.59675118 C1.47065213 230.77639001 1.56501509 248.95553746 1.59950441 267.13584352 C1.62281615 278.35206271 1.69639389 289.56562738 1.83457994 300.78102919 C1.92454196 308.47507897 1.95158144 316.1677595 1.92952342 323.86229685 C1.91864601 328.30093677 1.93513342 332.73494539 2.02649307 337.1727581 C2.5346488 363.10797912 2.5346488 363.10797912 -1.67683339 369.57482243 C-5.55959024 373.57209606 -9.89378929 376.03862169 -15.01468003 378.142838 C-17.69336414 379.29936 -19.91275169 380.91053209 -22.2265625 382.671875 C-23.69239564 383.69836335 -25.15853889 384.72440899 -26.625 385.75 C-27.44508545 386.32379395 -28.2651709 386.89758789 -29.11010742 387.48876953 C-38.42030306 393.99899189 -47.74824003 400.48370589 -57.07666016 406.96777344 C-61.88530161 410.31061054 -66.69260565 413.65536978 -71.5 417 C-77.28447849 421.02441327 -83.06925797 425.04839014 -88.85546875 429.0703125 C-97.91296413 435.36696704 -106.96589425 441.66982102 -116 448 C-124.04815211 453.63932333 -132.10715812 459.26284983 -140.1809082 464.86547852 C-145.27742515 468.40311153 -150.36188103 471.95648639 -155.4296875 475.53515625 C-156.47729248 476.2720166 -157.52489746 477.00887695 -158.60424805 477.76806641 C-160.61954939 479.18607003 -162.63158247 480.60873304 -164.63989258 482.03662109 C-165.54634521 482.67293457 -166.45279785 483.30924805 -167.38671875 483.96484375 C-168.18295654 484.5280835 -168.97919434 485.09132324 -169.79956055 485.67163086 C-171.91048183 486.94595935 -173.58960643 487.56302807 -176 488 C-176.48073975 487.29375488 -176.48073975 487.29375488 -176.97119141 486.57324219 C-184.97305976 474.82660134 -193.06553599 463.14750202 -201.23388672 451.51611328 C-204.1602186 447.34708144 -207.07980818 443.17333377 -210 439 C-213.47538717 434.03433198 -216.95131435 429.06904572 -220.4296875 424.10546875 C-227.31728062 414.27499493 -234.18294378 404.42957704 -241.03417969 394.57373047 C-247.66767434 385.03387386 -254.33130803 375.51527078 -261 366 C-269.03231509 354.53903383 -277.04582061 343.06538576 -285.03417969 331.57373047 C-291.09800618 322.85313321 -297.18658311 314.15003556 -303.28222656 305.45166016 C-306.77500481 300.46665744 -310.2646291 295.47944619 -313.75488281 290.49267578 C-316.64548192 286.36290341 -319.53676689 282.2336153 -322.4296875 278.10546875 C-329.31728062 268.27499493 -336.18294378 258.42957704 -343.03417969 248.57373047 C-347.38764685 242.31285973 -351.75075454 236.05887078 -356.125 229.8125 C-356.69404053 228.99982666 -357.26308105 228.18715332 -357.84936523 227.34985352 C-360.7394846 223.22363589 -363.63219575 219.09925325 -366.52734375 214.9765625 C-374.43563938 203.70778588 -382.25331927 192.38049326 -390 181 C-385.79027353 176.43308462 -381.04904039 173.06360913 -375.9375 169.5625 C-374.13402083 168.3139375 -372.33063808 167.0652357 -370.52734375 165.81640625 C-369.14844971 164.86531982 -369.14844971 164.86531982 -367.74169922 163.89501953 C-363.48058358 160.94980318 -359.24086151 157.97426873 -355 155 C-353.3334482 153.83316926 -351.6667812 152.66650304 -350 151.5 C-349.175 150.9225 -348.35 150.345 -347.5 149.75 C-340 144.5 -340 144.5 -337.49926758 142.74951172 C-335.83501172 141.58451636 -334.17078639 140.4194774 -332.5065918 139.25439453 C-328.30329077 136.31179589 -324.09943819 133.36999096 -319.89453125 130.4296875 C-312.08561332 124.96823569 -304.2815462 119.50040068 -296.5 114 C-287.8691193 107.89924561 -279.21010946 101.83901487 -270.54833984 95.78222656 C-267.19565339 93.43746596 -263.84398379 91.09125461 -260.49243164 88.74487305 C-258.83155332 87.58214434 -257.17058334 86.41954656 -255.50952148 85.25708008 C-251.29134466 82.30497571 -247.07433145 79.35123212 -242.859375 76.39453125 C-232.61035399 69.20774151 -222.33024431 62.0695806 -212 55 C-208.93519837 58.77803888 -206.00029659 62.63937644 -203.125 66.5625 C-202.65376709 67.20525879 -202.18253418 67.84801758 -201.69702148 68.51025391 C-194.73272623 78.05722197 -188.01761404 87.78336946 -181.27197266 97.48535156 C-179.64323899 99.82609737 -178.0095572 102.16331867 -176.375 104.5 C-175.89039307 105.1997998 -175.40578613 105.89959961 -174.90649414 106.62060547 C-172.49885505 110.05547557 -170.10451226 113.14326571 -167 116 C-166.53851563 115.66379639 -166.07703125 115.32759277 -165.6015625 114.98120117 C-156.86449405 108.62373202 -148.097618 102.32496918 -139.17480469 96.23046875 C-133.84086249 92.58573879 -128.5400412 88.89563999 -123.25 85.1875 C-122.40969238 84.598479 -121.56938477 84.00945801 -120.70361328 83.40258789 C-118.99043991 82.20134297 -117.27738714 80.99992604 -115.56445312 79.79833984 C-111.37826875 76.86275016 -107.18900408 73.93156391 -103 71 C-101.33331803 69.83335519 -99.66665138 68.6666885 -98 67.5 C-48 32.5 -48 32.5 -45.49780273 30.74853516 C-43.83836844 29.58688249 -42.17902534 28.42509955 -40.51977539 27.26318359 C-36.24320842 24.26870425 -31.96487264 21.276802 -27.68359375 18.2890625 C-25.93483073 17.06780156 -24.18613171 15.84644896 -22.4375 14.625 C-21.18477295 13.75077393 -21.18477295 13.75077393 -19.90673828 12.85888672 C-14.50279476 9.07883636 -9.16466455 5.22824867 -3.8984375 1.2578125 C-2 0 -2 0 0 0 Z " fill="#FFEF18" transform="translate(390,0)"/>
<path d="M0 0 C5.62135466 5.62135466 5.62135466 5.62135466 7.40234375 8.28515625 C7.8099292 8.887229 8.21751465 9.48930176 8.63745117 10.10961914 C9.06646729 10.75406982 9.4954834 11.39852051 9.9375 12.0625 C10.91054575 13.50061788 11.88454895 14.93808829 12.859375 16.375 C13.37048828 17.13039062 13.88160156 17.88578125 14.40820312 18.6640625 C17.12931419 22.65725126 19.9099775 26.60843982 22.6875 30.5625 C27.80831303 37.86349617 32.91067992 45.17701686 38 52.5 C44.74060189 62.19694944 51.50481426 71.87709233 58.28222656 81.54833984 C61.77500481 86.53334256 65.2646291 91.52055381 68.75488281 96.50732422 C71.64548192 100.63709659 74.53676689 104.7663847 77.4296875 108.89453125 C84.31728062 118.72500507 91.18294378 128.57042296 98.03417969 138.42626953 C104.66767434 147.96612614 111.33130803 157.48472922 118 167 C120.29211445 170.27051987 122.58384155 173.54131032 124.875 176.8125 C125.44460449 177.62565674 126.01420898 178.43881348 126.60107422 179.27661133 C129.77091986 183.8050254 132.9326642 188.33893465 136.0859375 192.87890625 C136.77453857 193.87011475 137.46313965 194.86132324 138.17260742 195.88256836 C139.54382198 197.85776837 140.91380244 199.83382575 142.2824707 201.81079102 C145.23213098 206.06300264 148.19520954 210.29769427 151.26953125 214.4609375 C151.7480957 215.1120752 152.22666016 215.76321289 152.71972656 216.43408203 C153.58624475 217.60592972 154.46133066 218.77151279 155.34667969 219.92919922 C156.47265625 221.453125 156.47265625 221.453125 158 224 C156.86031272 227.41906184 156.24110751 227.79387383 153.34375 229.71484375 C152.57748291 230.22974365 151.81121582 230.74464355 151.02172852 231.27514648 C150.18955811 231.82372314 149.3573877 232.3722998 148.5 232.9375 C146.7479545 234.11347649 144.99666645 235.29058219 143.24609375 236.46875 C142.36163574 237.06171875 141.47717773 237.6546875 140.56591797 238.265625 C136.86037351 240.7703051 133.20824437 243.34686154 129.5625 245.9375 C128.16420887 246.92859195 126.76576904 247.91947414 125.3671875 248.91015625 C124.65916992 249.4117627 123.95115234 249.91336914 123.22167969 250.43017578 C119.21941884 253.25814691 115.20324949 256.0662314 111.1875 258.875 C110.3531543 259.45870361 109.51880859 260.04240723 108.65917969 260.64379883 C105.25258768 263.02664646 101.84551972 265.40881313 98.43847656 267.79101562 C89.08951613 274.32850038 79.74799345 280.8758133 70.43286133 287.46142578 C64.1165396 291.92426103 57.77950417 296.3572322 51.44140625 300.7890625 C46.11820342 304.51284383 40.80482907 308.25009954 35.5 312 C33.42108058 313.46770618 31.34193713 314.93509434 29.26269531 316.40234375 C27.65210137 317.53956071 26.04214272 318.67767765 24.43261719 319.81640625 C21.74889625 321.71400639 19.06219867 323.60732889 16.375 325.5 C15.54548828 326.0878125 14.71597656 326.675625 13.86132812 327.28125 C12.67313477 328.1165625 12.67313477 328.1165625 11.4609375 328.96875 C10.42138916 329.70254883 10.42138916 329.70254883 9.36083984 330.45117188 C6.32797647 332.44088079 3.14936596 334.20036231 0 336 C0 225.12 0 114.24 0 0 Z " fill="#006EB3" transform="translate(219,135)"/>
<path d="M0 0 C0.33 0 0.66 0 1 0 C1 110.88 1 221.76 1 336 C-4.62134788 330.37865212 -4.62134788 330.37865212 -6.76953125 327.1640625 C-7.25736084 326.44162354 -7.74519043 325.71918457 -8.24780273 324.97485352 C-9.02232788 323.81167603 -9.02232788 323.81167603 -9.8125 322.625 C-10.96522164 320.91734452 -12.11891095 319.21034196 -13.2734375 317.50390625 C-13.87897461 316.60687988 -14.48451172 315.70985352 -15.10839844 314.78564453 C-18.34607417 310.01771988 -21.64188076 305.2904782 -24.9375 300.5625 C-25.61192139 299.59417236 -26.28634277 298.62584473 -26.98120117 297.62817383 C-33.06813736 288.89328552 -39.17227212 280.1704571 -45.28222656 271.45166016 C-48.77500481 266.46665744 -52.2646291 261.47944619 -55.75488281 256.49267578 C-58.64548192 252.36290341 -61.53676689 248.2336153 -64.4296875 244.10546875 C-71.31728062 234.27499493 -78.18294378 224.42957704 -85.03417969 214.57373047 C-91.66767434 205.03387386 -98.33130803 195.51527078 -105 186 C-112.35050494 175.51187952 -119.68956553 165.01610301 -127 154.5 C-141.79842188 133.10663524 -141.79842188 133.10663524 -157 112 C-152.7462252 107.3744522 -147.92139852 103.97831285 -142.75 100.4375 C-140.94247246 99.18653867 -139.1351845 97.9352311 -137.328125 96.68359375 C-135.97750977 95.75135986 -135.97750977 95.75135986 -134.59960938 94.80029297 C-130.88169365 92.22554555 -127.18993782 89.61460721 -123.5 87 C-113.17282659 79.69826576 -102.803794 72.456408 -92.43847656 65.20898438 C-83.08951613 58.67149962 -73.74799345 52.1241867 -64.43286133 45.53857422 C-58.1165396 41.07573897 -51.77950417 36.6427678 -45.44140625 32.2109375 C-39.43861845 28.01176083 -33.44955445 23.79364518 -27.46875 19.56323242 C-23.49732271 16.75624943 -19.51794169 13.96105175 -15.53125 11.17578125 C-14.15163086 10.21188477 -14.15163086 10.21188477 -12.74414062 9.22851562 C-10.94138791 7.96979647 -9.13802102 6.71195641 -7.33398438 5.45507812 C-6.11678711 4.60526367 -6.11678711 4.60526367 -4.875 3.73828125 C-4.15054688 3.23337158 -3.42609375 2.72846191 -2.6796875 2.20825195 C-1.05250602 1.10620947 -1.05250602 1.10620947 0 0 Z " fill="#EE4138" transform="translate(376,23)"/>
<path d="M0 0 C0.38922737 46.5489916 0.68872189 93.09781076 0.8681106 139.64810924 C0.88937226 145.1454544 0.91137578 150.64279635 0.93383789 156.14013672 C0.94052681 157.78174856 0.94052681 157.78174856 0.94735085 159.45652428 C1.02129659 177.17043196 1.15531748 194.88340043 1.31159753 212.59675118 C1.47065213 230.77639001 1.56501509 248.95553746 1.59950441 267.13584352 C1.62281615 278.35206271 1.69639389 289.56562738 1.83457994 300.78102919 C1.92454196 308.47507897 1.95158144 316.1677595 1.92952342 323.86229685 C1.91864601 328.30093677 1.93513342 332.73494539 2.02649307 337.1727581 C2.5346488 363.10797912 2.5346488 363.10797912 -1.67683339 369.57482243 C-5.55959024 373.57209606 -9.89378929 376.03862169 -15.01468003 378.142838 C-17.69336414 379.29936 -19.91275169 380.91053209 -22.2265625 382.671875 C-23.69239564 383.69836335 -25.15853889 384.72440899 -26.625 385.75 C-27.44508545 386.32379395 -28.2651709 386.89758789 -29.11010742 387.48876953 C-38.42030306 393.99899189 -47.74824003 400.48370589 -57.07666016 406.96777344 C-61.88530161 410.31061054 -66.69260565 413.65536978 -71.5 417 C-77.28447849 421.02441327 -83.06925797 425.04839014 -88.85546875 429.0703125 C-97.91296413 435.36696704 -106.96589425 441.66982102 -116 448 C-124.04815211 453.63932333 -132.10715812 459.26284983 -140.1809082 464.86547852 C-145.27742515 468.40311153 -150.36188103 471.95648639 -155.4296875 475.53515625 C-156.47729248 476.2720166 -157.52489746 477.00887695 -158.60424805 477.76806641 C-160.61954939 479.18607003 -162.63158247 480.60873304 -164.63989258 482.03662109 C-165.54634521 482.67293457 -166.45279785 483.30924805 -167.38671875 483.96484375 C-168.18295654 484.5280835 -168.97919434 485.09132324 -169.79956055 485.67163086 C-171.91048183 486.94595935 -173.58960643 487.56302807 -176 488 C-176.48073975 487.29375488 -176.48073975 487.29375488 -176.97119141 486.57324219 C-184.97305976 474.82660134 -193.06553599 463.14750202 -201.23388672 451.51611328 C-204.1602186 447.34708144 -207.07980818 443.17333377 -210 439 C-213.47538717 434.03433198 -216.95131435 429.06904572 -220.4296875 424.10546875 C-227.31728062 414.27499493 -234.18294378 404.42957704 -241.03417969 394.57373047 C-247.66767434 385.03387386 -254.33130803 375.51527078 -261 366 C-269.03231509 354.53903383 -277.04582061 343.06538576 -285.03417969 331.57373047 C-291.09800618 322.85313321 -297.18658311 314.15003556 -303.28222656 305.45166016 C-306.77500481 300.46665744 -310.2646291 295.47944619 -313.75488281 290.49267578 C-316.64548192 286.36290341 -319.53676689 282.2336153 -322.4296875 278.10546875 C-329.31728062 268.27499493 -336.18294378 258.42957704 -343.03417969 248.57373047 C-347.38764685 242.31285973 -351.75075454 236.05887078 -356.125 229.8125 C-356.69404053 228.99982666 -357.26308105 228.18715332 -357.84936523 227.34985352 C-360.7394846 223.22363589 -363.63219575 219.09925325 -366.52734375 214.9765625 C-374.43563938 203.70778588 -382.25331927 192.38049326 -390 181 C-385.79027353 176.43308462 -381.04904039 173.06360913 -375.9375 169.5625 C-374.13402083 168.3139375 -372.33063808 167.0652357 -370.52734375 165.81640625 C-369.14844971 164.86531982 -369.14844971 164.86531982 -367.74169922 163.89501953 C-363.48058358 160.94980318 -359.24086151 157.97426873 -355 155 C-353.3334482 153.83316926 -351.6667812 152.66650304 -350 151.5 C-349.175 150.9225 -348.35 150.345 -347.5 149.75 C-340 144.5 -340 144.5 -337.49926758 142.74951172 C-335.83501172 141.58451636 -334.17078639 140.4194774 -332.5065918 139.25439453 C-328.30329077 136.31179589 -324.09943819 133.36999096 -319.89453125 130.4296875 C-312.08561332 124.96823569 -304.2815462 119.50040068 -296.5 114 C-287.8691193 107.89924561 -279.21010946 101.83901487 -270.54833984 95.78222656 C-267.19565339 93.43746596 -263.84398379 91.09125461 -260.49243164 88.74487305 C-258.83155332 87.58214434 -257.17058334 86.41954656 -255.50952148 85.25708008 C-251.29134466 82.30497571 -247.07433145 79.35123212 -242.859375 76.39453125 C-232.61035399 69.20774151 -222.33024431 62.0695806 -212 55 C-208.93519837 58.77803888 -206.00029659 62.63937644 -203.125 66.5625 C-202.65376709 67.20525879 -202.18253418 67.84801758 -201.69702148 68.51025391 C-194.73272623 78.05722197 -188.01761404 87.78336946 -181.27197266 97.48535156 C-179.64323899 99.82609737 -178.0095572 102.16331867 -176.375 104.5 C-175.89039307 105.1997998 -175.40578613 105.89959961 -174.90649414 106.62060547 C-172.49885505 110.05547557 -170.10451226 113.14326571 -167 116 C-166.53851563 115.66379639 -166.07703125 115.32759277 -165.6015625 114.98120117 C-156.86449405 108.62373202 -148.097618 102.32496918 -139.17480469 96.23046875 C-133.84086249 92.58573879 -128.5400412 88.89563999 -123.25 85.1875 C-122.40969238 84.598479 -121.56938477 84.00945801 -120.70361328 83.40258789 C-118.99043991 82.20134297 -117.27738714 80.99992604 -115.56445312 79.79833984 C-111.37826875 76.86275016 -107.18900408 73.93156391 -103 71 C-101.33331803 69.83335519 -99.66665138 68.6666885 -98 67.5 C-48 32.5 -48 32.5 -45.49780273 30.74853516 C-43.83836844 29.58688249 -42.17902534 28.42509955 -40.51977539 27.26318359 C-36.24320842 24.26870425 -31.96487264 21.276802 -27.68359375 18.2890625 C-25.93483073 17.06780156 -24.18613171 15.84644896 -22.4375 14.625 C-21.18477295 13.75077393 -21.18477295 13.75077393 -19.90673828 12.85888672 C-14.50279476 9.07883636 -9.16466455 5.22824867 -3.8984375 1.2578125 C-2 0 -2 0 0 0 Z M-20.5625 27.8125 C-25.93322803 31.78993352 -31.35407439 35.67132974 -36.875 39.4375 C-42.36570608 43.18471173 -47.82475534 46.97104206 -53.25 50.8125 C-59.48645707 55.22788855 -65.73726182 59.62195984 -72 64 C-78.17688878 68.31898724 -84.3456712 72.64892444 -90.5 77 C-97.50409761 81.95185729 -104.52889252 86.87363783 -111.55859375 91.7890625 C-117.57087218 95.99487822 -123.56896749 100.22027499 -129.55981445 104.45654297 C-135.08972548 108.36419997 -140.63714579 112.24645184 -146.1875 116.125 C-154.16217794 121.69868314 -162.09882281 127.32266407 -170 133 C-174.47178489 128.88233436 -177.70226577 124.29620719 -181.0625 119.25 C-182.21769228 117.53834817 -183.37396468 115.82742487 -184.53125 114.1171875 C-185.11132812 113.25834961 -185.69140625 112.39951172 -186.2890625 111.51464844 C-190.26664296 105.6686041 -194.38378913 99.91991016 -198.4765625 94.15429688 C-200.09648504 91.86356026 -201.70546189 89.56541669 -203.3125 87.265625 C-203.85640381 86.48912598 -204.40030762 85.71262695 -204.96069336 84.91259766 C-206.00283747 83.42427418 -207.04283117 81.93444186 -208.08032227 80.44287109 C-208.78499634 79.43861084 -208.78499634 79.43861084 -209.50390625 78.4140625 C-209.91455322 77.8257666 -210.3252002 77.2374707 -210.74829102 76.63134766 C-212.04812173 74.93728313 -213.459016 73.47520176 -215 72 C-224.39788954 78.43151658 -233.75714227 84.91530556 -243.08105469 91.45361328 C-249.54355928 95.98421807 -256.01902731 100.49585957 -262.5 105 C-272.19694944 111.74060189 -281.87709233 118.50481426 -291.54833984 125.28222656 C-296.53334256 128.77500481 -301.52055381 132.2646291 -306.50732422 135.75488281 C-310.63709659 138.64548192 -314.7663847 141.53676689 -318.89453125 144.4296875 C-327.81364683 150.67865894 -336.74394922 156.9110416 -345.6875 163.125 C-355.15713847 169.70489499 -364.59200039 176.33231705 -374 183 C-369.88372584 189.23305558 -365.66915026 195.38834822 -361.375 201.5 C-360.76527344 202.36947266 -360.15554688 203.23894531 -359.52734375 204.13476562 C-355.21068561 210.28667655 -350.87885063 216.42780848 -346.54052734 222.56445312 C-342.07694133 228.88159963 -337.64340192 235.21958895 -333.2109375 241.55859375 C-329.48715773 246.88179435 -325.75028886 252.19544705 -322 257.5 C-317.64892398 263.65432945 -313.31910656 269.82319417 -309 276 C-302.69302078 285.01872145 -296.35353778 294.01403927 -290 303 C-283.04579669 312.83549638 -276.11416884 322.68616613 -269.21142578 332.55786133 C-265.48751174 337.88132611 -261.75045821 343.1952075 -258 348.5 C-253.64892398 354.65432945 -249.31910656 360.82319417 -245 367 C-238.69302078 376.01872145 -232.35353778 385.01403927 -226 394 C-219.04579669 403.83549638 -212.11416884 413.68616613 -205.21142578 423.55786133 C-201.48751156 428.88132638 -197.75041559 434.19517715 -194 439.5 C-189.44251592 445.94728576 -184.90368084 452.40744861 -180.375 458.875 C-179.77042969 459.73802734 -179.16585937 460.60105469 -178.54296875 461.49023438 C-177.97964844 462.29525391 -177.41632813 463.10027344 -176.8359375 463.9296875 C-176.33626465 464.64366699 -175.8365918 465.35764648 -175.32177734 466.09326172 C-174.19651891 467.7165104 -173.0956056 469.3565916 -172 471 C-168.2963495 469.6562925 -165.29651359 467.99119232 -162.078125 465.7265625 C-161.14395752 465.07284668 -160.20979004 464.41913086 -159.24731445 463.74560547 C-158.25820068 463.04580566 -157.26908691 462.34600586 -156.25 461.625 C-155.22156982 460.90328613 -154.19313965 460.18157227 -153.13354492 459.43798828 C-150.08539593 457.29709708 -147.04206997 455.1495173 -144 453 C-142.47016322 451.92171731 -140.94022742 450.84357507 -139.41015625 449.765625 C-136.6843504 447.8437464 -133.96078858 445.91873505 -131.23828125 443.9921875 C-126.50369602 440.64499785 -121.75201103 437.32238251 -117 434 C-110.82313996 429.6809707 -104.65437063 425.3510172 -98.5 421 C-88.17196981 413.69946564 -77.80380306 406.45641434 -67.43847656 399.20898438 C-56.54200477 391.59313086 -56.54200477 391.59313086 -45.66796875 383.9453125 C-45.01603208 383.48717096 -44.36409541 383.02902942 -43.69240308 382.55700481 C-42.31800287 381.58093077 -40.95197959 380.59283184 -39.59884715 379.58748162 C-35.81890112 376.81418366 -32.11603229 374.50535013 -27.87474442 372.49824333 C-21.0870087 369.03081326 -14.56400159 365.32973091 -11.86213589 357.84997416 C-10.15084757 348.91510077 -10.43965537 339.85382539 -10.67868757 330.79955077 C-10.76568263 326.66209575 -10.73578755 322.52519823 -10.72064209 318.38708496 C-10.71019223 311.23104549 -10.77252191 304.07867384 -10.88539886 296.92355728 C-11.04847914 286.57934433 -11.10007944 276.23689104 -11.1251587 265.89153205 C-11.16884989 249.10490699 -11.30171872 232.32023404 -11.49121094 215.53466797 C-11.67500771 199.23658973 -11.81646722 182.93904313 -11.90136719 166.64013672 C-11.90662166 165.63421034 -11.91187613 164.62828397 -11.91728982 163.59187497 C-11.94339202 158.5450511 -11.96866583 153.49822348 -11.99352789 148.45139337 C-12.20060746 106.63290482 -12.55264094 64.81656448 -13 23 C-15.49199753 23 -18.54221594 26.30296191 -20.5625 27.8125 Z " fill="#FEFEFD" transform="translate(390,0)"/>
<path d="M0 0 C9.9 0 19.8 0 30 0 C34.50020502 11.25051256 34.50020502 11.25051256 36.21069336 16.57275391 C36.78665504 18.35608627 36.78665504 18.35608627 37.37425232 20.17544556 C37.77539749 21.42981415 38.17654266 22.68418274 38.58984375 23.9765625 C39.02026477 25.31408834 39.45098084 26.65151926 39.88197327 27.98886108 C41.00930103 31.48985356 42.13230168 34.99221938 43.25445557 38.49487305 C44.38220495 42.01184682 45.5146669 45.52730254 46.64648438 49.04296875 C48.75090143 55.58261732 50.84615562 62.12515007 52.93572998 68.66955566 C53.86824303 71.58768993 54.80501079 74.50441724 55.74267578 77.42089844 C56.20516357 78.87161384 56.66728754 80.32244532 57.12890625 81.7734375 C57.50217041 82.94052246 57.87543457 84.10760742 58.26000977 85.31005859 C59 88 59 88 59 91 C59.66 91 60.32 91 61 91 C61.25128662 89.76169434 61.50257324 88.52338867 61.76147461 87.24755859 C63.06790708 81.38442961 64.92850892 75.73671977 66.81640625 70.0390625 C67.1917601 68.89504974 67.56711395 67.75103699 67.95384216 66.57235718 C69.15271623 62.92190468 70.35756133 59.27345459 71.5625 55.625 C72.34478209 53.24491688 73.12668612 50.86470946 73.90820312 48.484375 C79.22493906 32.30711944 84.60702883 16.15197559 90 0 C99.9 0 109.8 0 120 0 C117.75027619 10.12375714 117.75027619 10.12375714 116.34277344 14.29638672 C116.02722 15.23962799 115.71166656 16.18286926 115.3865509 17.1546936 C115.04758286 18.15294159 114.70861481 19.15118958 114.359375 20.1796875 C114.00054733 21.24923676 113.64171967 22.31878601 113.27201843 23.42074585 C112.50194587 25.71494166 111.72988943 28.00847235 110.95602417 30.3013916 C108.90544954 36.3775142 106.86913156 42.45841184 104.83203125 48.5390625 C104.4214296 49.76363159 104.01082794 50.98820068 103.58778381 52.24987793 C99.80045474 63.56060058 96.10848116 74.90109821 92.4375 86.25 C88.60808879 98.07232876 84.74189301 109.87759256 80.6875 121.625 C80.32003662 122.69266602 79.95257324 123.76033203 79.57397461 124.86035156 C77.12839785 131.87160215 77.12839785 131.87160215 76 133 C73.6243148 133.0883967 71.27791326 133.11530305 68.90234375 133.09765625 C67.83905602 133.09553383 67.83905602 133.09553383 66.75428772 133.09336853 C64.48198288 133.08775443 62.20977525 133.07519963 59.9375 133.0625 C58.40039204 133.05748681 56.86328255 133.05292359 55.32617188 133.04882812 C51.55074358 133.03778042 47.77538829 133.02050641 44 133 C40.10027928 123.83506196 37.04043106 114.39426797 33.90625 104.94921875 C33.31316794 103.16877526 32.71986061 101.38840679 32.12634277 99.60810852 C30.88054559 95.86915643 29.63675423 92.12954536 28.39453125 88.3894043 C26.84243971 83.71646735 25.28656951 79.0448007 23.72932434 74.37357903 C17.73376916 56.3865268 11.76939086 38.38916026 5.89750671 20.36130714 C5.36531793 18.72798896 4.83221893 17.09496705 4.298172 15.46225548 C3.56751621 13.22686047 2.84074845 10.99024204 2.11523438 8.75317383 C1.89882797 8.09299318 1.68242157 7.43281254 1.4594574 6.75262642 C0 2.22934528 0 2.22934528 0 0 Z " fill="#000000" transform="translate(1315,228)"/>
<path d="M0 0 C1.24252029 -0.00637985 2.48504059 -0.0127597 3.76521301 -0.01933289 C5.1360368 -0.02086312 6.5068611 -0.02197624 7.87768555 -0.02270508 C9.28240493 -0.02591923 10.68712397 -0.02928342 12.09184265 -0.03279114 C15.04854098 -0.0387953 18.00521006 -0.04063015 20.96191406 -0.04003906 C24.71950492 -0.03993835 28.47690293 -0.05348965 32.23444843 -0.07081127 C35.14386319 -0.08203855 38.05323328 -0.08395488 40.96266747 -0.08342934 C42.34550823 -0.08459725 43.72835062 -0.08895093 45.11116982 -0.0967617 C58.11322024 -0.16321978 71.9489345 -0.10974625 82.23706055 8.93432617 C89.60015254 16.78203781 92.51093904 25.42310185 92.2019043 36.14526367 C91.19040853 44.6418281 88.39695022 51.16972725 82.2019043 57.14526367 C79.64210111 59.05169052 77.03595407 60.68039119 74.2019043 62.14526367 C74.9753418 62.47397461 75.7487793 62.80268555 76.5456543 63.14135742 C85.3099113 67.14384608 92.35850797 71.98841619 96.2019043 81.14526367 C99.04833532 91.74961454 98.47268456 104.46137449 93.2019043 114.14526367 C87.76170227 123.01025609 80.49260698 128.43187977 70.63549805 131.60229492 C62.16295093 133.4926385 53.65431418 133.29209585 45.01831055 133.27807617 C43.5524036 133.27875065 42.08649677 133.27972187 40.62059021 133.28097534 C37.56540856 133.28244229 34.51025633 133.28032798 31.45507812 133.27563477 C27.53187284 133.26990253 23.60873544 133.27324471 19.68553257 133.27920723 C16.66677838 133.28280985 13.64804048 133.28167626 10.62928581 133.27907944 C9.18153818 133.27841116 7.73378909 133.27923513 6.28604317 133.28155899 C4.27305249 133.28408437 2.26005662 133.27955623 0.24707031 133.2746582 C-0.89906235 133.27386261 -2.04519501 133.27306702 -3.22605896 133.27224731 C-5.7980957 133.14526367 -5.7980957 133.14526367 -6.7980957 132.14526367 C-6.89646611 130.4519931 -6.92441586 128.75459712 -6.92507935 127.05847168 C-6.92789917 125.95628799 -6.93071899 124.85410431 -6.93362427 123.71852112 C-6.93058792 121.88885048 -6.93058792 121.88885048 -6.92749023 120.0222168 C-6.92924255 118.74595932 -6.93099487 117.46970184 -6.93280029 116.1547699 C-6.93737419 112.64453375 -6.93558525 109.13432687 -6.93242121 105.62409019 C-6.92989738 101.95833632 -6.93223521 98.29258502 -6.93380737 94.62683105 C-6.935629 88.46972196 -6.93322293 82.31262485 -6.9284668 76.15551758 C-6.92302419 69.02720762 -6.92478685 61.89892627 -6.9302932 54.77061701 C-6.93482452 48.66107516 -6.93547479 42.55154194 -6.93285453 36.44199896 C-6.93129186 32.78835932 -6.93109772 29.13473314 -6.93439102 25.48109436 C-6.93780386 21.41014906 -6.9330797 17.33925342 -6.92749023 13.26831055 C-6.92951447 12.04853012 -6.9315387 10.82874969 -6.93362427 9.57200623 C-6.93080444 8.46982254 -6.92798462 7.36763885 -6.92507935 6.23205566 C-6.92470232 5.26823723 -6.92432529 4.30441879 -6.92393684 3.31139374 C-6.66915631 -1.07419724 -3.75148533 0.01301721 0 0 Z M11.2019043 15.14526367 C11.2019043 29.00526367 11.2019043 42.86526367 11.2019043 57.14526367 C21.0400293 57.20713867 21.0400293 57.20713867 31.0769043 57.27026367 C33.12635254 57.28847168 35.17580078 57.30667969 37.28735352 57.32543945 C38.94376363 57.33129026 40.60017666 57.33638441 42.2565918 57.34057617 C43.5077478 57.35592407 43.5077478 57.35592407 44.78417969 57.37158203 C53.95528618 57.37424883 63.06027461 56.41135703 70.2019043 50.14526367 C72.21231433 47.21076959 72.21231433 47.21076959 73.2019043 44.14526367 C73.5422168 43.21713867 73.5422168 43.21713867 73.8894043 42.27026367 C74.88982183 35.46742445 74.35703638 29.31425328 71.2019043 23.14526367 C66.35815835 17.41071387 60.35786691 15.97579157 53.2019043 15.14526367 C49.91055354 15.01857178 46.62419044 15.02826416 43.33081055 15.04760742 C42.10291809 15.04911804 42.10291809 15.04911804 40.85021973 15.05065918 C37.82160013 15.05585166 34.79300066 15.06981263 31.7644043 15.08276367 C21.5859668 15.11370117 21.5859668 15.11370117 11.2019043 15.14526367 Z M11.2019043 72.14526367 C11.2019043 86.99526367 11.2019043 101.84526367 11.2019043 117.14526367 C18.31897082 117.21428695 25.43486691 117.2739774 32.55200195 117.31005859 C34.97098739 117.32510646 37.38994573 117.34554955 39.80883789 117.37158203 C43.29409493 117.40814067 46.77898989 117.42503057 50.2644043 117.43823242 C51.87581299 117.46145821 51.87581299 117.46145821 53.51977539 117.4851532 C60.61668278 117.48672907 66.80865031 117.02420912 72.4440918 112.24291992 C72.98291992 111.57131836 73.52174805 110.8997168 74.0769043 110.20776367 C74.63120117 109.53874023 75.18549805 108.8697168 75.7565918 108.18041992 C79.59622552 102.77380054 80.63793498 97.35330579 79.95581055 90.77026367 C79.00979219 85.81413209 77.65326699 81.94176263 74.2019043 78.14526367 C65.43021838 72.58383394 57.47697167 71.9951081 47.3347168 72.04760742 C45.78263016 72.04972984 45.78263016 72.04972984 44.19918823 72.05189514 C40.90839698 72.05747328 37.61767484 72.07002179 34.3269043 72.08276367 C32.08992612 72.0877815 29.85294686 72.09234391 27.6159668 72.09643555 C22.14456486 72.10658281 16.67331156 72.12616256 11.2019043 72.14526367 Z " fill="#000000" transform="translate(491.798095703125,227.854736328125)"/>
<path d="M0 0 C5.13344009 3.86725697 8.54746862 8.93673385 9.8125 15.25 C9.91743466 17.36619143 9.96830361 19.48528701 9.98608398 21.60400391 C9.99957382 22.89279449 10.01306366 24.18158508 10.02696228 25.50942993 C10.03202223 26.19608356 10.03708218 26.8827372 10.04229546 27.59019852 C10.05879138 29.752467 10.08203627 31.91456765 10.10719299 34.07675171 C10.17770287 40.22344482 10.2377856 46.37020884 10.28930664 52.51708984 C10.32134058 56.28249865 10.362681 60.04771669 10.40950203 63.81296921 C10.42538415 65.23928729 10.43776823 66.66564924 10.44640923 68.09202957 C10.49148849 75.43177984 10.70773194 82.35694066 12.48597717 89.50180054 C12.59372971 90.07870636 12.70148224 90.65561218 12.8125 91.25 C10.21154644 93.85095356 2.87393851 92.48464536 -0.625 92.5 C-2.38166992 92.5309375 -2.38166992 92.5309375 -4.17382812 92.5625 C-5.29080078 92.56765625 -6.40777344 92.5728125 -7.55859375 92.578125 C-8.58911865 92.5874707 -9.61964355 92.59681641 -10.68139648 92.60644531 C-11.50841064 92.48881836 -12.3354248 92.37119141 -13.1875 92.25 C-15.1326 89.33235 -15.64026317 87.62462715 -16.1875 84.25 C-16.73277344 84.64832031 -17.27804688 85.04664063 -17.83984375 85.45703125 C-29.89166516 93.92420835 -43.67192046 96.04740527 -58.140625 93.7890625 C-65.67698057 91.77462783 -72.66717149 87.98086231 -77.125 81.4375 C-81.76659934 72.9573462 -82.13562029 63.99430774 -79.46875 54.76171875 C-76.6751102 47.59699599 -72.01952279 43.49893714 -65.25 40.0625 C-57.02884385 36.70749192 -47.88009614 35.78549536 -39.140625 34.50390625 C-38.2954834 34.37765869 -37.4503418 34.25141113 -36.57958984 34.12133789 C-34.94080256 33.87957305 -33.3005052 33.64776609 -31.65869141 33.42749023 C-26.82481839 32.72347314 -21.79983541 31.86233541 -18.1875 28.25 C-17.5193952 23.09604869 -17.30294422 19.42143874 -20.5 15.1875 C-24.69466018 12.16344266 -27.93421114 12.06473852 -33 12 C-34.20269531 11.97421875 -35.40539063 11.9484375 -36.64453125 11.921875 C-41.26738826 12.3500117 -44.68942589 13.69842325 -47.9375 17.0625 C-49.57768939 19.76684773 -49.57768939 19.76684773 -51.1875 25.25 C-60.0975 25.25 -69.0075 25.25 -78.1875 25.25 C-76.04351435 14.53007175 -73.64993655 6.72899722 -64.3828125 0.4921875 C-46.20061505 -9.79595981 -18.23640861 -10.95981207 0 0 Z M-29.5078125 48.46484375 C-32.52101906 49.1077891 -35.52766419 49.6627854 -38.5625 50.1875 C-44.25814751 51.33225947 -49.2637126 53.08573918 -53.1875 57.5 C-54.51832005 61.15975514 -54.85862888 64.43947937 -54.1875 68.25 C-52.50260348 71.61979304 -51.34838905 73.65320493 -47.96875 75.390625 C-41.31510309 77.44652714 -32.94537852 77.53156026 -26.5625 74.5625 C-21.67029826 71.593728 -18.90292474 67.66246083 -17.1875 62.25 C-17.04989278 59.44006055 -16.99738427 56.73998076 -17.0625 53.9375 C-17.07152344 53.19693359 -17.08054687 52.45636719 -17.08984375 51.69335938 C-17.11325787 49.87876533 -17.14912385 48.06433929 -17.1875 46.25 C-21.33891778 46.25 -25.46942317 47.57705878 -29.5078125 48.46484375 Z " fill="#000000" transform="translate(2191.1875,268.75)"/>
<path d="M0 0 C1.22509702 1.04312654 2.43429493 2.10528139 3.625 3.1875 C4.20507812 3.64253906 4.78515625 4.09757812 5.3828125 4.56640625 C9.82920591 8.38472167 12.33133012 12.96596827 14.9375 18.125 C15.27523438 18.79321777 15.61296875 19.46143555 15.9609375 20.14990234 C20.80643652 30.20627454 20.89915803 38.57402846 21.625 50.1875 C-1.475 50.1875 -24.575 50.1875 -48.375 50.1875 C-45.96090607 62.51359923 -45.96090607 62.51359923 -37.875 70.5 C-31.33275581 73.65429631 -24.76959475 74.30045815 -17.67578125 72.50390625 C-11.26235212 70.19353791 -7.47605517 67.38961035 -4.375 61.1875 C3.215 61.1875 10.805 61.1875 18.625 61.1875 C16.92962171 71.35976974 11.87327779 79.88405025 3.625 86.1875 C-9.62709035 94.20662206 -23.08460212 96.07866996 -38.26953125 93.53515625 C-51.01799117 90.26019356 -61.15690434 83.77330279 -68.02734375 72.46875 C-76.18949018 57.30192534 -77.21186438 42.21854613 -72.5625 25.88671875 C-68.75765359 14.03412153 -60.80563398 4.39143768 -49.86328125 -1.6328125 C-34.58365438 -8.87684282 -14.30187618 -10.21953988 0 0 Z M-44.9296875 21.6640625 C-47.0335556 25.04774065 -47.0335556 25.04774065 -48.375 33.1875 C-34.515 33.1875 -20.655 33.1875 -6.375 33.1875 C-8.52526093 22.86988691 -8.52526093 22.86988691 -15.4375 15.875 C-26.0400033 9.78420023 -37.14604903 13.0839587 -44.9296875 21.6640625 Z " fill="#000000" transform="translate(1503.375,268.8125)"/>
<path d="M0 0 C1.39745367 1.03278966 2.77408766 2.09453746 4.125 3.1875 C4.73859375 3.66574219 5.3521875 4.14398438 5.984375 4.63671875 C15.30757128 12.8254553 19.80841111 26.17519371 21.125 38.1875 C21.125 42.1475 21.125 46.1075 21.125 50.1875 C-1.645 50.1875 -24.415 50.1875 -47.875 50.1875 C-45.38549349 62.31327718 -45.38549349 62.31327718 -37.875 70.5 C-31.50360934 74.08390725 -24.24240929 74.18124385 -17.1796875 72.57421875 C-12.26377686 70.86793172 -9.89029654 69.24359108 -6.79296875 65.0625 C-4.64968339 62.51810831 -3.50947978 61.34490866 -0.25341797 60.53710938 C2.7218285 60.40166415 5.59134117 60.48645867 8.5625 60.6875 C9.58021484 60.72359375 10.59792969 60.7596875 11.64648438 60.796875 C14.14328272 60.89065146 16.63212488 61.02166975 19.125 61.1875 C17.50697219 72.20253549 11.49615402 80.21362035 2.73828125 87.05078125 C-9.41151386 94.93543089 -24.55359371 96.12071578 -38.56640625 93.49609375 C-50.05573883 90.25412151 -60.4220808 84.45473819 -66.75390625 74.12109375 C-75.22906161 58.28546944 -77.04795782 42.43682911 -71.875 25.1875 C-67.19456109 13.20101012 -59.88162588 2.65785551 -47.875 -2.8125 C-32.05248172 -8.97132914 -14.75129683 -9.27864033 0 0 Z M-44.4375 20.9375 C-47.54399843 25.12643272 -47.13753946 27.28781567 -47.875 33.1875 C-34.015 33.1875 -20.155 33.1875 -5.875 33.1875 C-8.02526093 22.86988691 -8.02526093 22.86988691 -14.9375 15.875 C-24.47472265 10.39616997 -37.3539736 12.34935821 -44.4375 20.9375 Z " fill="#000000" transform="translate(1718.875,268.8125)"/>
<path d="M0 0 C1.39745367 1.03278966 2.77408766 2.09453746 4.125 3.1875 C4.73859375 3.66574219 5.3521875 4.14398438 5.984375 4.63671875 C14.91831714 12.48356616 19.81379609 25.61144266 21.125 37.1875 C21.125 41.4775 21.125 45.7675 21.125 50.1875 C-1.645 50.1875 -24.415 50.1875 -47.875 50.1875 C-45.38549349 62.31327718 -45.38549349 62.31327718 -37.875 70.5 C-31.6771888 73.9862688 -24.46176446 74.16817186 -17.5546875 72.69140625 C-12.19033286 70.88629072 -8.56511168 67.92700287 -5.55737305 63.05175781 C-3.875 61.1875 -3.875 61.1875 -1.51489258 60.73339844 C-0.60892334 60.7543457 0.2970459 60.77529297 1.23046875 60.796875 C2.70483398 60.81621094 2.70483398 60.81621094 4.20898438 60.8359375 C5.23314453 60.86945313 6.25730469 60.90296875 7.3125 60.9375 C8.34826172 60.95554687 9.38402344 60.97359375 10.45117188 60.9921875 C13.01004284 61.03935563 15.56705842 61.10515943 18.125 61.1875 C18.455 61.8475 18.785 62.5075 19.125 63.1875 C18.18594523 65.50063491 17.19709584 67.65964577 16.0625 69.875 C15.73813965 70.50986328 15.4137793 71.14472656 15.07958984 71.79882812 C9.48904028 82.44905764 2.20004407 88.76934964 -9.3125 92.5625 C-24.45737466 96.45502718 -39.50955898 95.07047222 -53.25 87.375 C-64.66431659 79.9068284 -70.52850295 69.35557677 -73.875 56.1875 C-74.31058185 53.48689255 -74.66062983 50.90285551 -74.875 48.1875 C-74.95621094 47.18976563 -74.95621094 47.18976563 -75.0390625 46.171875 C-75.58668282 32.73028544 -71.06794945 19.00779382 -62.734375 8.484375 C-46.71035769 -8.43609083 -19.93995153 -12.54233039 0 0 Z M-44.375 20.9375 C-47.55177325 25.13790019 -47.12746954 27.20725633 -47.875 33.1875 C-34.015 33.1875 -20.155 33.1875 -5.875 33.1875 C-8.17767841 22.38237367 -8.17767841 22.38237367 -15.6953125 15.0234375 C-25.69205975 10.69286278 -37.32089649 12.40539385 -44.375 20.9375 Z " fill="#000000" transform="translate(2030.875,268.8125)"/>
<path d="M0 0 C8.58 0 17.16 0 26 0 C26.04898437 4.07085937 26.09796875 8.14171875 26.1484375 12.3359375 C26.19305697 15.60681377 26.2395478 18.8776517 26.28729248 22.14848328 C26.3369824 25.58739374 26.38346877 29.02627547 26.421875 32.46533203 C26.46621958 36.42236811 26.52575273 40.37910949 26.5859375 44.3359375 C26.59748871 45.55300385 26.60903992 46.77007019 26.62094116 48.02401733 C26.5710526 61.32927673 26.5710526 61.32927673 32 73 C37.97927675 76.53875563 44.28548219 77.15622205 51.0546875 75.49609375 C56.19425601 73.56599828 58.74347473 70.44691763 61.1875 65.6875 C63.48096798 58.10141361 63.20346746 50.03843063 63.31640625 42.1875 C63.33718735 40.97803711 63.35796844 39.76857422 63.37937927 38.52246094 C63.44445043 34.6816951 63.50356152 30.84086436 63.5625 27 C63.60572561 24.3867122 63.64934116 21.77343082 63.69335938 19.16015625 C63.80081735 12.77350287 63.90020631 6.38679608 64 0 C72.58 0 81.16 0 90 0 C90 31.68 90 63.36 90 96 C81.75 96 73.5 96 65 96 C64.67 92.04 64.34 88.08 64 84 C63.2575 85.03125 62.515 86.0625 61.75 87.125 C57.01465613 92.69865833 49.24113904 96.79314349 42 98 C30.20013842 98.67725475 19.30784419 98.58084764 9.75 90.71875 C1.97061767 83.07828521 -0.12577784 72.91338595 -0.34057617 62.32543945 C-0.35119488 59.42090713 -0.32409621 56.51762135 -0.29296875 53.61328125 C-0.28736052 52.05958978 -0.28309624 50.50589293 -0.28010559 48.95219421 C-0.26875317 44.8997586 -0.23937113 40.84765517 -0.20599365 36.79534912 C-0.17508334 32.64551281 -0.16155586 28.49562184 -0.14648438 24.34570312 C-0.11449012 16.23030072 -0.06180316 8.11523019 0 0 Z " fill="#000000" transform="translate(1851,265)"/>
<path d="M0 0 C7.92903011 6.48738828 11.31457485 13.18022107 12.75 23.25 C12.83440752 25.64839036 12.86779562 28.04885908 12.86352539 30.44873047 C12.86367142 31.14211014 12.86381744 31.83548981 12.8639679 32.54988098 C12.86327596 34.82234926 12.8555175 37.09473369 12.84765625 39.3671875 C12.84578951 40.95044917 12.84436682 42.53371142 12.84336853 44.11697388 C12.83956349 48.26962906 12.82975051 52.42224886 12.81866455 56.57489014 C12.80840703 60.81815106 12.80386163 65.06141773 12.79882812 69.3046875 C12.78812632 77.61980965 12.77054595 85.93489634 12.75 94.25 C4.17 94.25 -4.41 94.25 -13.25 94.25 C-13.29898437 90.10695313 -13.34796875 85.96390625 -13.3984375 81.6953125 C-13.44305485 78.36708905 -13.48954582 75.03890335 -13.53729248 71.71072388 C-13.58698889 68.21115908 -13.63347549 64.7116226 -13.671875 61.21191406 C-13.71620897 57.18536379 -13.77574469 53.15915717 -13.8359375 49.1328125 C-13.84748871 47.89387238 -13.85903992 46.65493225 -13.87094116 45.37844849 C-13.96398607 31.34647118 -13.96398607 31.34647118 -20.25 19.25 C-24.6770481 16.38543946 -30.15769104 16.7407691 -35.25 17.25 C-40.30919437 18.47647136 -43.43078089 20.86454805 -46.25 25.25 C-50.11364908 32.97729815 -49.45020379 41.98447524 -49.56640625 50.40234375 C-49.58718735 51.65761368 -49.60796844 52.91288361 -49.62937927 54.20619202 C-49.68348743 57.52199117 -49.73379613 60.83780275 -49.78222656 64.15368652 C-49.8327194 67.5458687 -49.88821126 70.93796897 -49.94335938 74.33007812 C-50.05094581 80.96998808 -50.1502613 87.609949 -50.25 94.25 C-58.83 94.25 -67.41 94.25 -76.25 94.25 C-76.25 62.57 -76.25 30.89 -76.25 -1.75 C-68.33 -1.75 -60.41 -1.75 -52.25 -1.75 C-51.92 2.21 -51.59 6.17 -51.25 10.25 C-50.3425 9.05375 -49.435 7.8575 -48.5 6.625 C-36.54536443 -7.13872153 -15.36638655 -8.27420814 0 0 Z " fill="#000000" transform="translate(1616.25,266.75)"/>
<path d="M0 0 C26.73 0 53.46 0 81 0 C81 20 81 20 75.4375 27.25 C72.08984375 30.33203125 72.08984375 30.33203125 70.45654297 31.72900391 C68.62481639 33.32738952 67.06304752 35.07821404 65.5 36.9375 C64.96890625 37.54980469 64.4378125 38.16210938 63.890625 38.79296875 C62.35599497 40.58442736 60.82553682 42.37923665 59.296875 44.17578125 C53.51112751 50.96700752 47.64747318 57.65111063 41.5703125 64.18359375 C39.61949723 66.3211892 37.71819455 68.47650742 35.83935547 70.67602539 C35.30567352 71.30029922 34.77199158 71.92457306 34.22213745 72.56776428 C33.81883209 73.04040207 33.41552673 73.51303986 33 74 C33.63671127 74.01030746 34.27342255 74.02061493 34.9294281 74.03123474 C41.53126798 74.13906331 48.13296478 74.25367961 54.73461914 74.37231445 C57.20138569 74.41573943 59.66818378 74.45740872 62.13500977 74.49731445 C65.67213466 74.55483445 69.20909966 74.61858075 72.74609375 74.68359375 C73.85649521 74.70030624 74.96689667 74.71701874 76.11094666 74.73423767 C77.64242088 74.7641555 77.64242088 74.7641555 79.20483398 74.79467773 C80.10862289 74.81022202 81.0124118 74.8257663 81.94358826 74.84178162 C84 75 84 75 85 76 C85.09860131 77.40348735 85.13078937 78.81180477 85.1328125 80.21875 C85.13410156 81.06824219 85.13539062 81.91773438 85.13671875 82.79296875 C85.13285156 83.68628906 85.12898438 84.57960938 85.125 85.5 C85.12886719 86.39332031 85.13273437 87.28664063 85.13671875 88.20703125 C85.13542969 89.05652344 85.13414063 89.90601563 85.1328125 90.78125 C85.13168457 91.56564453 85.13055664 92.35003906 85.12939453 93.15820312 C85 95 85 95 84 96 C81.2611158 96.09516211 78.54752059 96.12554594 75.80834961 96.11352539 C74.94988937 96.11367142 74.09142914 96.11381744 73.20695496 96.1139679 C70.35539262 96.11326847 67.50389475 96.1054747 64.65234375 96.09765625 C62.68079158 96.09579218 60.70923895 96.09436822 58.73768616 96.09336853 C53.53773733 96.08954251 48.33781625 96.07971152 43.13787842 96.06866455 C37.83606339 96.05845222 32.5342439 96.05387129 27.23242188 96.04882812 C16.82160237 96.03808933 6.41080349 96.02101191 -4 96 C-4.1630815 92.65292495 -4.26086239 89.30688416 -4.34765625 85.95703125 C-4.39426392 85.01670044 -4.44087158 84.07636963 -4.4888916 83.10754395 C-4.60407196 77.17122611 -3.90803626 73.72133098 0.03138733 69.19944763 C2.12726972 67.12979954 4.28754921 65.16237627 6.5390625 63.26367188 C8.41411906 61.64179809 9.98172877 59.84372413 11.5625 57.9375 C14.47797917 54.56580893 17.48075642 51.27857133 20.5 48 C24.09268502 44.09831872 27.63178868 40.15983455 31.1015625 36.1484375 C34.12780606 32.72367627 37.24074517 29.37767909 40.35742188 26.03515625 C42.98217364 23.23709431 42.98217364 23.23709431 45 20 C30.15 20 15.3 20 0 20 C0 13.4 0 6.8 0 0 Z " fill="#000000" transform="translate(1753,265)"/>
<path d="M0 0 C5.28 0 10.56 0 16 0 C16 43.89 16 87.78 16 133 C10.72 133 5.44 133 0 133 C-1.58272601 131.41727399 -1.34735747 129.61965997 -1.5625 127.4375 C-1.64628906 126.61121094 -1.73007813 125.78492188 -1.81640625 124.93359375 C-1.87699219 124.29550781 -1.93757813 123.65742188 -2 123 C-2.680625 124.0828125 -2.680625 124.0828125 -3.375 125.1875 C-9.64168593 131.90180635 -18.65342307 134.46312944 -27.5859375 135.21875 C-38.36243401 135.58928856 -47.99621675 132.89067393 -57 127 C-57.86625 126.443125 -58.7325 125.88625 -59.625 125.3125 C-69.30000057 115.89210471 -74.74729936 102.86501561 -75.30078125 89.421875 C-75.32021301 87.86469967 -75.32376115 86.30725585 -75.3125 84.75 C-75.30686035 83.92371094 -75.3012207 83.09742188 -75.29541016 82.24609375 C-75.01504593 67.96694949 -70.8695764 55.33892639 -60.9609375 44.78125 C-52.37177087 36.97913848 -40.90504331 33.2254523 -29.30859375 33.71484375 C-18.62426548 35.03456619 -9.59011142 38.2688561 -2 46 C-1.98969254 45.43845718 -1.97938507 44.87691437 -1.96876526 44.2983551 C-1.86092315 38.47506534 -1.74630792 32.65193736 -1.62768555 26.82885742 C-1.58426493 24.65311047 -1.54259529 22.47732786 -1.50268555 20.30151367 C-1.44515498 17.18136832 -1.38141177 14.06140367 -1.31640625 10.94140625 C-1.29969376 9.96224747 -1.28298126 8.98308868 -1.26576233 7.97425842 C-1.24581711 7.07340012 -1.22587189 6.17254181 -1.20532227 5.24438477 C-1.18977798 4.44718521 -1.1742337 3.64998566 -1.15821838 2.82862854 C-1 1 -1 1 0 0 Z M-50.375 57.1875 C-58.57605713 67.80473261 -58.96248284 81.18482407 -58 94 C-56.33016992 104.09795892 -51.14100337 111.42388552 -42.9765625 117.5078125 C-35.66687407 121.51273758 -25.44291989 121.27029506 -17.47265625 119.41015625 C-10.01806754 116.20689734 -4.48504414 109.10750317 -1.5 101.75 C1.69231367 90.64815916 2.08272425 75.86782869 -2.7421875 65.22265625 C-7.20744334 57.33218863 -12.21875909 51.9270803 -21 49 C-32.3814963 48.09568134 -41.99231726 48.43133139 -50.375 57.1875 Z " fill="#000000" transform="translate(1138,228)"/>
<path d="M0 0 C11.70087829 -0.25766183 22.7263724 0.77079617 32.015625 8.37109375 C38.59541133 16.41305482 38.85465677 23.21556382 38.83984375 33.32421875 C38.85230981 34.69327566 38.86664978 36.06231665 38.88276672 37.43133545 C38.92059011 41.0136246 38.9359452 44.5956381 38.94555664 48.17810059 C38.96538943 53.92481269 39.02225463 59.6713172 39.07431984 65.41780853 C39.0896096 67.41857828 39.09610459 69.41940899 39.10246277 71.42022705 C39.11301445 73.2429715 39.11301445 73.2429715 39.1237793 75.10253906 C39.12725876 76.17095032 39.13073822 77.23936157 39.13432312 78.34014893 C39.24907868 80.77064624 39.56427703 82.8022243 40.265625 85.12109375 C42.905625 85.45109375 45.545625 85.78109375 48.265625 86.12109375 C48.265625 90.08109375 48.265625 94.04109375 48.265625 98.12109375 C41.93507721 101.22177022 37.47015641 102.13586203 30.515625 99.93359375 C26.97231679 97.95751802 25.84363961 96.80312785 24.265625 93.12109375 C23.578125 90.30859375 23.578125 90.30859375 23.265625 88.12109375 C22.80414062 88.49621094 22.34265625 88.87132812 21.8671875 89.2578125 C10.49515216 98.18014062 -1.21038847 102.36940364 -15.734375 101.12109375 C-25.25233008 99.68555933 -31.58986177 96.59280539 -38.109375 89.55859375 C-42.6861924 82.69336765 -43.28103232 75.46107721 -42.046875 67.43359375 C-40.39407344 59.6262811 -36.21061801 54.57351082 -29.734375 50.12109375 C-19.96250307 44.4471036 -7.35924494 43.60082441 3.60791016 41.71923828 C5.66276354 41.36485787 7.71407559 40.99403176 9.765625 40.62109375 C10.9103125 40.42515625 12.055 40.22921875 13.234375 40.02734375 C16.77365855 38.96920743 18.71981321 37.79745999 21.265625 35.12109375 C22.36803863 30.82816539 22.25759381 26.17386187 20.30859375 22.140625 C17.74879656 18.84945718 15.18040769 17.28764645 11.265625 16.12109375 C8.13654755 15.8129466 5.03291808 15.79643317 1.890625 15.80859375 C1.065625 15.79248047 0.240625 15.77636719 -0.609375 15.75976562 C-7.05438331 15.75465054 -11.61224779 16.95294985 -16.984375 20.68359375 C-19.72313546 24.49829582 -20.54325598 28.59484146 -21.734375 33.12109375 C-27.014375 33.12109375 -32.294375 33.12109375 -37.734375 33.12109375 C-39.80880456 28.97223464 -37.0620248 23.342909 -35.734375 19.12109375 C-31.81375494 11.27985363 -24.88529285 5.53908036 -16.671875 2.68359375 C-11.03168304 1.06906213 -5.83578305 0.25844182 0 0 Z M16.390625 51.43359375 C11.63882306 52.65142083 6.93022508 53.50911897 2.08203125 54.20117188 C-10.96792071 55.84085691 -10.96792071 55.84085691 -21.734375 62.87109375 C-24.11286394 66.73613827 -25.03186378 69.59751442 -24.734375 74.12109375 C-23.17145376 79.3308312 -21.29715303 82.15528803 -16.734375 85.12109375 C-9.52294951 87.52490225 1.30751338 87.45968733 8.390625 84.49609375 C14.75062046 80.99563114 19.63286536 77.02720509 22.265625 70.12109375 C22.6119186 66.6516917 22.54998616 63.2281283 22.453125 59.74609375 C22.43958984 58.81925781 22.42605469 57.89242187 22.41210938 56.9375 C22.37696381 54.66475377 22.32776632 52.39323528 22.265625 50.12109375 C20.28572942 50.12109375 18.28334417 50.92240229 16.390625 51.43359375 Z " fill="#000000" transform="translate(645.734375,261.87890625)"/>
<path d="M0 0 C9.79704867 8.89771021 13.97543325 21.20790507 16 34 C16 38.29 16 42.58 16 47 C-7.43 47 -30.86 47 -55 47 C-52.06232507 62.53702067 -52.06232507 62.53702067 -41.875 73 C-34.16993632 77.45594044 -22.80547289 77.45970942 -14.28125 75.31640625 C-7.00384053 71.94360686 -4.09211384 66.2149323 -1 59 C4.28 59 9.56 59 15 59 C12.13552892 70.13960976 7.69145384 79.33156846 -2 86 C-14.36913788 93.1351808 -28.35843503 93.41563377 -41.921875 89.9765625 C-52.44709075 86.63734431 -60.28387533 80.28697607 -65.65234375 70.6953125 C-73.21170047 55.57659907 -74.85455903 39.5123063 -70.3125 23.1875 C-68.37385501 17.41370949 -65.71234205 12.7967367 -62 8 C-61.278125 6.96875 -60.55625 5.9375 -59.8125 4.875 C-44.96532589 -12.26369937 -17.36293964 -13.29350066 0 0 Z M-48.4375 14.375 C-52.71668409 19.95969788 -54.00136737 25.00957157 -55 32 C-37.18 32 -19.36 32 -1 32 C-2.08930231 23.28558149 -3.84045739 17.57084508 -10.375 11.625 C-22.08529129 2.63629027 -38.20668834 3.29370522 -48.4375 14.375 Z " fill="#000000" transform="translate(1245,271)"/>
<path d="M0 0 C11.41195712 -0.6096538 23.94637379 2.81101111 32.65234375 10.25 C33.26207031 10.72824219 33.87179687 11.20648438 34.5 11.69921875 C43.16910618 19.26325206 47.91624623 31.54103065 48.86938477 42.81787109 C49.37555773 54.16986517 49.31262597 64.71837538 44.65234375 75.25 C44.30171875 76.06339844 43.95109375 76.87679687 43.58984375 77.71484375 C38.0279767 89.01238619 28.83843921 95.03976649 17.46484375 99.5 C4.53630509 102.94761031 -9.86349596 102.20264467 -21.66015625 95.5625 C-33.26212257 87.8717314 -39.89950753 77.31555763 -42.875 63.703125 C-45.00323408 48.15470412 -43.96003291 31.85606499 -35.02734375 18.45703125 C-27.35874731 8.3808522 -17.66913746 2.2332677 -4.9765625 0.5 C-3.3168446 0.3421665 -1.65783236 0.17654122 0 0 Z M-19.22265625 24.3125 C-26.7959506 35.25170294 -27.65662011 47.34367367 -26.34765625 60.25 C-24.65514673 69.40357221 -20.62701529 77.16089645 -13.19921875 82.9140625 C-6.03596367 87.17393844 1.53595019 87.30942138 9.65234375 86.25 C18.48745961 83.76475207 24.38356528 77.66102876 29.03515625 69.9609375 C33.67245655 59.74590538 33.50735934 44.69869093 30.21484375 34.0625 C26.97987686 26.9091225 21.48764224 20.37487726 14.52734375 16.625 C2.37149868 12.17566266 -10.75204877 14.48373605 -19.22265625 24.3125 Z " fill="#000000" transform="translate(949.34765625,261.75)"/>
<path d="M0 0 C5.95375215 5.10321613 9.28688554 9.74342201 11.625 17.25 C11.81215073 17.8410553 11.99930145 18.4321106 12.19212341 19.04107666 C12.80734477 22.18048604 12.74403954 25.20706563 12.73852539 28.40527344 C12.73867142 29.11786819 12.73881744 29.83046295 12.7389679 30.56465149 C12.73827291 32.91292395 12.73049994 35.26111645 12.72265625 37.609375 C12.7207906 39.24033566 12.71936739 40.87129688 12.71836853 42.5022583 C12.71455494 46.78974969 12.70473454 51.07720708 12.69366455 55.36468506 C12.68342553 59.74181661 12.67886557 64.11895367 12.67382812 68.49609375 C12.66311123 77.08074475 12.64604872 85.66536814 12.625 94.25 C10.14576199 94.27685095 7.6668116 94.29676547 5.1875 94.3125 C4.48044922 94.32087891 3.77339844 94.32925781 3.04492188 94.33789062 C1.23806441 94.34653588 -0.56887603 94.30220011 -2.375 94.25 C-4.23099419 92.39400581 -3.50975667 89.3175468 -3.5168457 86.83764648 C-3.52032013 86.16760086 -3.52379456 85.49755524 -3.52737427 84.8072052 C-3.53474502 83.34650445 -3.54008334 81.88579239 -3.54366493 80.42507744 C-3.55082118 78.10816734 -3.5664844 75.79147019 -3.58500671 73.47462463 C-3.63749288 66.88505101 -3.68538695 60.29558834 -3.70092773 53.70581055 C-3.71105057 49.67790157 -3.7404915 45.65051989 -3.78224754 41.6228199 C-3.7945106 40.09158392 -3.79968742 38.56027324 -3.79744911 37.02898979 C-3.74307982 25.54237916 -3.74307982 25.54237916 -8.375 15.25 C-13.88528953 10.35196486 -19.59848686 10.72048975 -26.76953125 10.92578125 C-33.30528586 11.5135035 -38.76107037 13.38666876 -43.375 18.25 C-47.57473824 25.26939253 -49.4617562 31.23617757 -49.58032227 39.41723633 C-49.60026749 40.63812454 -49.62021271 41.85901276 -49.64076233 43.11689758 C-49.65747482 44.42539169 -49.67418732 45.7338858 -49.69140625 47.08203125 C-49.7119958 48.44252628 -49.73299278 49.80301519 -49.75437927 51.16349792 C-49.80939347 54.73248323 -49.85889317 58.30152427 -49.90722656 61.87060547 C-49.95759306 65.51730266 -50.0131998 69.16391959 -50.06835938 72.81054688 C-50.17568804 79.95696151 -50.27718843 87.10344825 -50.375 94.25 C-53.02090014 94.27684679 -55.66653096 94.29676357 -58.3125 94.3125 C-59.06724609 94.32087891 -59.82199219 94.32925781 -60.59960938 94.33789062 C-62.52494313 94.34652441 -64.45035581 94.30224333 -66.375 94.25 C-68.26385195 92.36114805 -67.49510635 89.60948241 -67.49942017 87.09675598 C-67.49582489 86.2120311 -67.49222961 85.32730621 -67.48852539 84.41577148 C-67.48867142 83.48903625 -67.48881744 82.56230103 -67.4889679 81.60748291 C-67.48826838 78.52866313 -67.48047421 75.44990303 -67.47265625 72.37109375 C-67.47079221 70.24259982 -67.46936824 68.11410547 -67.46836853 65.98561096 C-67.46454228 60.3713768 -67.45471108 54.75716832 -67.44366455 49.14294434 C-67.43345273 43.41886747 -67.4288714 37.69478647 -67.42382812 31.97070312 C-67.41308891 20.73045744 -67.3960112 9.49023085 -67.375 -1.75 C-62.095 -1.75 -56.815 -1.75 -51.375 -1.75 C-51.045 2.21 -50.715 6.17 -50.375 10.25 C-49.42625 9.033125 -48.4775 7.81625 -47.5 6.5625 C-35.76395227 -6.8061834 -15.15896306 -7.86020307 0 0 Z " fill="#000000" transform="translate(775.375,266.75)"/>
<path d="M0 0 C8.58 0 17.16 0 26 0 C27.68496564 1.68496564 27.12607996 3.77663325 27.12698364 6.08679199 C27.12980347 7.18897568 27.13262329 8.29115936 27.13552856 9.42674255 C27.13350433 10.64652298 27.1314801 11.86630341 27.12939453 13.12304688 C27.13114685 14.39930435 27.13289917 15.67556183 27.13470459 16.99049377 C27.13927849 20.50072992 27.13748955 24.0109368 27.1343255 27.52117348 C27.13180168 31.18692735 27.1341395 34.85267865 27.13571167 38.51843262 C27.1375333 44.67554171 27.13512723 50.83263882 27.13037109 56.98974609 C27.12492848 64.11805605 27.12669115 71.2463374 27.1321975 78.37464666 C27.13672882 84.48418851 27.13737909 90.59372173 27.13475883 96.70326471 C27.13319616 100.35690435 27.13300202 104.01053053 27.13629532 107.66416931 C27.13970815 111.73511461 27.13498399 115.80601025 27.12939453 119.87695312 C27.13141876 121.09673355 27.13344299 122.31651398 27.13552856 123.57325745 C27.13129883 125.22653297 27.13129883 125.22653297 27.12698364 126.91320801 C27.12660662 127.87702644 27.12622959 128.84084488 27.12584114 129.83386993 C27 132 27 132 26 133 C17.42 133 8.84 133 0 133 C0 89.11 0 45.22 0 0 Z " fill="#000000" transform="translate(2068,228)"/>
<path d="M0 0 C7.07945093 6.4656257 11.39845334 14.37525338 12 24 C11 25 11 25 7.40234375 25.09765625 C5.91403133 25.0909822 4.42573568 25.07902183 2.9375 25.0625 C1.79958008 25.05573242 1.79958008 25.05573242 0.63867188 25.04882812 C-1.24091871 25.0370068 -3.12046899 25.01907078 -5 25 C-5.20753906 24.34773438 -5.41507813 23.69546875 -5.62890625 23.0234375 C-8.19520226 15.74331743 -11.29093324 11.37094128 -18.2421875 7.87109375 C-25.79226864 5.48629475 -35.50291202 5.75992942 -42.6875 9.125 C-50.14627919 13.61026253 -53.47945988 19.89473372 -56 28 C-58.48696375 39.84190022 -58.12452131 52.92850335 -53 64 C-51.68430828 65.68062811 -50.35404372 67.3501148 -49 69 C-49 69.66 -49 70.32 -49 71 C-47.67741528 71.68774405 -46.34013497 72.34711373 -45 73 C-43.95585938 73.50917969 -42.91171875 74.01835937 -41.8359375 74.54296875 C-34.85783987 77.50219063 -26.20581147 77.06626206 -18.94921875 75.2265625 C-12.22455122 72.34893542 -8.83702171 67.61332764 -6 61 C-5.34 58.69 -4.68 56.38 -4 54 C1.28 54 6.56 54 12 54 C13.36093859 56.72187718 12.49232846 58.31116227 11.6159668 61.10351562 C9.32017869 67.94379109 7.110161 73.7199049 2 79 C1.42636719 79.61230469 0.85273437 80.22460938 0.26171875 80.85546875 C-6.48154399 87.4032746 -15.58872057 91.48665749 -25 92 C-25.80695312 92.05027344 -26.61390625 92.10054688 -27.4453125 92.15234375 C-39.81357115 92.5928088 -51.08811369 89.26157653 -60.625 81.375 C-71.00698052 71.61843999 -74.88627114 58.57321852 -75.47216797 44.62695312 C-75.68251094 28.55232213 -71.44912522 14.08019549 -60.359375 2.265625 C-44.82824814 -12.64837099 -16.72626873 -13.22542179 0 0 Z " fill="#000000" transform="translate(881,271)"/>
</svg>
