<?xml version="1.0" encoding="UTF-8"?>
<svg version="1.1" xmlns="http://www.w3.org/2000/svg" width="416" height="203">
<path d="M0 0 C137.28 0 274.56 0 416 0 C416 66.99 416 133.98 416 203 C278.72 203 141.44 203 0 203 C0 136.01 0 69.02 0 0 Z " fill="#FDFEFE" transform="translate(0,0)"/>
<path d="M0 0 C18.39355686 -1.03679757 34.05504092 1.16671533 48.35546875 13.5546875 C56.54078401 21.12338374 61.09167167 27.8749326 61.6875 39.3125 C61.41537696 49.0020241 57.11449974 55.81703176 50.75 62.875 C46.40202261 66.87280471 41.29492812 69.46636588 36 72 C35.18402344 72.39316406 34.36804688 72.78632813 33.52734375 73.19140625 C25.4850649 76.7352397 16.77606739 78.19466323 8 78 C7.8040625 77.43152344 7.608125 76.86304688 7.40625 76.27734375 C4.93850874 69.90589109 1.77842605 65.72118536 -4 62 C-6.94652051 60.71632207 -9.8789506 59.7585884 -13 59 C-13 58.34 -13 57.68 -13 57 C-11.69289063 56.92523438 -10.38578125 56.85046875 -9.0390625 56.7734375 C3.52128734 55.90219253 14.24142299 53.38867455 26 49 C27.32935465 48.65113742 28.66190834 48.3136871 30 48 C30.61973108 33.56256115 28.29086519 23.25018956 18.625 12.3125 C12.73182166 7.12089051 7.52556269 3.41893086 0 1 C0 0.67 0 0.34 0 0 Z " fill="#FA710A" transform="translate(313,63)"/>
<path d="M0 0 C15.48074672 -0.87260994 30.41793067 0.0094223 43.375 9.5 C48.07824405 13.74123579 51.15407026 17.31968152 51.625 23.8125 C51.38289466 29.76649789 48.70963164 33.51826799 45 38 C44.236875 38.94875 43.47375 39.8975 42.6875 40.875 C39.09501081 43.71557285 35.38279047 44.82552674 31 46 C30.83564453 44.515 30.83564453 44.515 30.66796875 43 C28.87206425 27.67171242 24.52535599 16.706729 12.1875 6.875 C8.31738501 4.01480073 4.56803623 2.46829736 0 1 C0 0.67 0 0.34 0 0 Z " fill="#054F9A" transform="translate(313,63)"/>
<path d="M0 0 C2.31 0 4.62 0 7 0 C7.65247647 3.14449224 8.29572575 6.29080756 8.9375 9.4375 C9.11990234 10.31599609 9.30230469 11.19449219 9.49023438 12.09960938 C10.36436739 16.40670116 11.11859134 20.66129278 11.56640625 25.03515625 C11.74323047 28.77590145 11.74323047 28.77590145 13 31 C17.17549303 24.03260927 21.06946292 17.0087499 24.64453125 9.71484375 C26.30336067 6.39240442 28.11131934 3.19622881 30 0 C32.31 0 34.62 0 37 0 C37.07025156 9.2839388 36.86072643 18.53598125 36.5 27.8125 C36.45230469 29.08931641 36.40460938 30.36613281 36.35546875 31.68164062 C36.23913138 34.78784841 36.12061062 37.89395572 36 41 C33.69 41 31.38 41 29 41 C29 32.09 29 23.18 29 14 C27.02 17.96 25.04 21.92 23 26 C21.757164 28.20352724 20.49343299 30.39577145 19.1875 32.5625 C17.46935769 35.41848489 16.05454332 37.83637003 15 41 C12.36 41 9.72 41 7 41 C3.42553191 21.65957447 3.42553191 21.65957447 4 12 C3.34 12 2.68 12 2 12 C1.8453125 13.44826172 1.8453125 13.44826172 1.6875 14.92578125 C1.02768941 19.54097049 -0.46628905 23.79978448 -2 28.1875 C-2.54296038 29.76387791 -3.08467165 31.34068673 -3.625 32.91796875 C-3.86476563 33.60656982 -4.10453125 34.2951709 -4.3515625 35.00463867 C-4.99581455 36.98712059 -5.51883828 38.97236863 -6 41 C-8.31 41 -10.62 41 -13 41 C-9.09648407 27.18755903 -4.60530754 13.59278064 0 0 Z " fill="#0D3086" transform="translate(55,80)"/>
<path d="M0 0 C0.99 0.66 1.98 1.32 3 2 C2.87882812 2.66902344 2.75765625 3.33804688 2.6328125 4.02734375 C1.07010688 12.98284901 0.00582901 21.96893952 -1 31 C-3.31 31 -5.62 31 -8 31 C-8.33 29.68 -8.66 28.36 -9 27 C-9.86625 27.825 -10.7325 28.65 -11.625 29.5 C-14.01340285 31.47719198 -14.95693927 31.99224907 -18.125 32.5625 C-21.63224868 31.87629917 -22.80410828 30.76519697 -25 28 C-27.38780789 23.22438422 -26.36163714 17.14201202 -24.8125 12.25 C-21.87066415 6.974984 -18.96949664 2.64916285 -13.1015625 0.46484375 C-8.80141005 -0.48630521 -4.36186637 -0.53481483 0 0 Z " fill="#11368C" transform="translate(201,90)"/>
<path d="M0 0 C0.66 0.33 1.32 0.66 2 1 C0.3125 3.9375 0.3125 3.9375 -2 7 C-3.25103516 7.18755859 -3.25103516 7.18755859 -4.52734375 7.37890625 C-5.34332031 7.58386719 -6.15929687 7.78882812 -7 8 C-8.23148685 10.22456566 -8.23148685 10.22456566 -8.875 13 C-11.64750297 21.58473811 -17.37949631 29.02624467 -25 34 C-27.20703125 34.65625 -27.20703125 34.65625 -29 35 C-29.1959375 34.43152344 -29.391875 33.86304688 -29.59375 33.27734375 C-32.06149126 26.90589109 -35.22157395 22.72118536 -41 19 C-43.94652051 17.71632207 -46.8789506 16.7585884 -50 16 C-50 15.34 -50 14.68 -50 14 C-48.69289063 13.92523438 -47.38578125 13.85046875 -46.0390625 13.7734375 C-33.47871266 12.90219253 -22.75857701 10.38867455 -11 6 C-9.67064535 5.65113742 -8.33809166 5.3136871 -7 5 C-7 4.34 -7 3.68 -7 3 C-4.69631264 1.93347808 -2.35981813 0.93578995 0 0 Z " fill="#F89B1B" transform="translate(350,106)"/>
<path d="M0 0 C2.125 1.875 2.125 1.875 3.125 4.75 C3.125 8.58475461 2.59216244 9.9452446 0.125 12.875 C-5.3605835 16.90522461 -10.15301452 17.60449757 -16.875 17.875 C-16.215 19.855 -15.555 21.835 -14.875 23.875 C-9.61446963 24.19063182 -6.42926184 23.54090937 -1.875 20.875 C-1.6875 24.25 -1.6875 24.25 -1.875 27.875 C-5.42098268 30.23898846 -7.10829099 30.17318374 -11.3125 30.1875 C-13.01212891 30.21263672 -13.01212891 30.21263672 -14.74609375 30.23828125 C-18.1431319 29.84386858 -19.49157966 29.28095859 -21.875 26.875 C-23.8010867 21.09673989 -24.26273585 14.03705525 -21.78125 8.3828125 C-16.50211576 0.94147967 -9.13720404 -3.57542767 0 0 Z " fill="#133689" transform="translate(120.875,91.125)"/>
<path d="M0 0 C2.1875 1.05859375 2.1875 1.05859375 4 3 C4.21947145 5.66765998 4.20200258 7.81147669 3.9375 10.4375 C3.88021729 11.14455078 3.82293457 11.85160156 3.76391602 12.58007812 C3.17716617 18.88995038 1.82699582 24.93299501 0 31 C-1.98 31 -3.96 31 -6 31 C-5.14099217 22.61096606 -5.14099217 22.61096606 -4.4375 19.5625 C-3.72682619 15.39998196 -3.92638526 11.21239926 -4 7 C-6.475 6.505 -6.475 6.505 -9 6 C-9.268125 6.5775 -9.53625 7.155 -9.8125 7.75 C-11 10 -11 10 -12.40625 11.59375 C-14.70498162 15.06438401 -15.59282089 18.7615317 -16.6875 22.75 C-17.02491211 23.93916016 -17.02491211 23.93916016 -17.36914062 25.15234375 C-17.92041856 27.09941048 -18.46125071 29.04942946 -19 31 C-20.98 31 -22.96 31 -25 31 C-25.38513023 25.35142336 -24.2531196 20.60768115 -22.80078125 15.15625 C-21.6147028 10.48136518 -20.7955482 5.75457042 -20 1 C-18.02 1 -16.04 1 -14 1 C-14.33 3.31 -14.66 5.62 -15 8 C-14.34 8 -13.68 8 -13 8 C-12.773125 7.236875 -12.54625 6.47375 -12.3125 5.6875 C-9.74062299 0.42127565 -5.59800551 -0.714639 0 0 Z " fill="#0E3085" transform="translate(232,90)"/>
<path d="M0 0 C-0.66 3.3 -1.32 6.6 -2 10 C0.64 10 3.28 10 6 10 C5.67 11.65 5.34 13.3 5 15 C2.36 15.33 -0.28 15.66 -3 16 C-3.99 22.27 -4.98 28.54 -6 35 C-2.535 34.505 -2.535 34.505 1 34 C1 35.65 1 37.3 1 39 C-2.64030688 41.3297964 -5.75118727 41.3862557 -10 41 C-11.9375 40 -11.9375 40 -13 38 C-13.89452616 30.24743999 -11.65045085 22.54491818 -10 15 C-11.65 15 -13.3 15 -15 15 C-15 13.35 -15 11.7 -15 10 C-13.02 9.67 -11.04 9.34 -9 9 C-8.773125 7.88625 -8.54625 6.7725 -8.3125 5.625 C-7 2 -7 2 -4.5 0.5625 C-2 0 -2 0 0 0 Z " fill="#0E3187" transform="translate(256,81)"/>
<path d="M0 0 C0.99 0.66 1.98 1.32 3 2 C2.34 3.65 1.68 5.3 1 7 C0.33613281 6.93039063 -0.32773438 6.86078125 -1.01171875 6.7890625 C-7.00332135 6.41744924 -7.00332135 6.41744924 -12.0625 9.4375 C-14.58158547 13.18932943 -15.33221765 17.52783934 -15 22 C-14.34 22.99 -13.68 23.98 -13 25 C-9.7 24.67 -6.4 24.34 -3 24 C-2.67 25.65 -2.34 27.3 -2 29 C-5.55384897 31.66538673 -8.52121655 32.58694959 -13 32.42578125 C-16.65181676 31.6483437 -18.45048434 29.67388228 -21 27 C-22.80211131 21.59366608 -22.73284031 16.04423876 -20.8125 10.6875 C-15.4792733 2.77961213 -9.62271797 -1.38754547 0 0 Z " fill="#07318A" transform="translate(171,90)"/>
<path d="M0 0 C1.4540625 0.0309375 1.4540625 0.0309375 2.9375 0.0625 C-0.8898212 22.87731078 -0.8898212 22.87731078 -3.46875 33.4453125 C-4.26938506 36.97442756 -4.70963954 40.46332326 -5.0625 44.0625 C-7.3725 44.0625 -9.6825 44.0625 -12.0625 44.0625 C-11.10072746 37.44264006 -10.09226561 30.88454889 -8.5625 24.37109375 C-7.96540003 21.61417122 -7.5119878 18.84721736 -7.0625 16.0625 C-4.46536299 0.09112986 -4.46536299 0.09112986 0 0 Z " fill="#062882" transform="translate(292.0625,76.9375)"/>
<path d="M0 0 C1.4540625 0.0309375 1.4540625 0.0309375 2.9375 0.0625 C2.6075 2.3725 2.2775 4.6825 1.9375 7.0625 C0.32875 7.1553125 0.32875 7.1553125 -1.3125 7.25 C-5.04624949 7.74799838 -5.04624949 7.74799838 -7.25 9.9375 C-11.03582089 16.46477739 -13.12598718 23.80057693 -15.0625 31.0625 C-17.0425 31.0625 -19.0225 31.0625 -21.0625 31.0625 C-20.61020533 27.74914696 -20.14953725 24.43700737 -19.6875 21.125 C-19.56117187 20.19880859 -19.43484375 19.27261719 -19.3046875 18.31835938 C-18.48605623 12.4856116 -17.41490036 6.79550153 -16.0625 1.0625 C-13.7525 1.0625 -11.4425 1.0625 -9.0625 1.0625 C-9.0625 2.7125 -9.0625 4.3625 -9.0625 6.0625 C-8.258125 5.258125 -7.45375 4.45375 -6.625 3.625 C-3.0625 0.0625 -3.0625 0.0625 0 0 Z " fill="#0D2F84" transform="translate(147.0625,89.9375)"/>
<path d="M0 0 C0.99 0.66 1.98 1.32 3 2 C2.67 4.64 2.34 7.28 2 10 C1.21625 9.95875 0.4325 9.9175 -0.375 9.875 C-3.16116119 9.71271266 -3.16116119 9.71271266 -5 12 C-4.67 9.69 -4.34 7.38 -4 5 C-5.42059843 5.20337627 -6.83659398 5.4390141 -8.25 5.6875 C-9.03890625 5.81511719 -9.8278125 5.94273438 -10.640625 6.07421875 C-13.95319951 7.37402034 -15.12149218 9.00097874 -17 12 C-17.90020454 15.33102867 -17.90020454 15.33102867 -18.25 18.8125 C-18.39953125 19.97394531 -18.5490625 21.13539062 -18.703125 22.33203125 C-18.80109375 23.21246094 -18.8990625 24.09289062 -19 25 C-19.99 25 -20.98 25 -22 25 C-22.33 26.32 -22.66 27.64 -23 29 C-22.01 29.33 -21.02 29.66 -20 30 C-20.99 30.33 -21.98 30.66 -23 31 C-26.24121935 26.94847581 -26.45554653 23.48536355 -26.28515625 18.4921875 C-25.55820199 12.1388064 -22.44349923 7.44349923 -18 3 C-12.30192785 -0.41884329 -6.57076559 -0.8056512 0 0 Z " fill="#04257C" transform="translate(201,90)"/>
<path d="M0 0 C-0.62296743 7.31986728 -2.90068578 13.30857152 -7.4375 19.125 C-10 21 -10 21 -12.8125 20.8125 C-13.534375 20.544375 -14.25625 20.27625 -15 20 C-15.37059832 13.94689406 -15.08256959 9.42107065 -12 4 C-8.2044072 -0.1118922 -5.48839432 -0.4304623 0 0 Z " fill="#EFF3FA" transform="translate(197,95)"/>
<path d="M0 0 C1.98 0 3.96 0 6 0 C5.63818103 10.4022955 3.58545582 19.95881111 1 30 C-0.98 30 -2.96 30 -5 30 C-5.17419987 25.7321033 -4.88639096 22.29187203 -3.57421875 18.234375 C-2.4615657 13.90486789 -2.03420336 9.43954845 -1.46484375 5.01171875 C-1 2 -1 2 0 0 Z " fill="#082B86" transform="translate(269,91)"/>
<path d="M0 0 C0.33 0 0.66 0 1 0 C1 9.9 1 19.8 1 30 C-1.31 30 -3.62 30 -6 30 C-6.37764661 6.71179263 -6.37764661 6.71179263 -3 1 C-3 2.65 -3 4.3 -3 6 C-2.34 6 -1.68 6 -1 6 C-0.67 4.02 -0.34 2.04 0 0 Z " fill="#092D82" transform="translate(90,91)"/>
<path d="M0 0 C0.66 0 1.32 0 2 0 C2.66 1.65 3.32 3.3 4 5 C4.33 3.35 4.66 1.7 5 0 C5.33 0 5.66 0 6 0 C6.66 3.3 7.32 6.6 8 10 C13.26053037 10.31563182 16.44573816 9.66590937 21 7 C21.1875 10.375 21.1875 10.375 21 14 C17.45401732 16.36398846 15.76670901 16.29818374 11.5625 16.3125 C9.86287109 16.33763672 9.86287109 16.33763672 8.12890625 16.36328125 C4.7318681 15.96886858 3.38342034 15.40595859 1 13 C-0.00496852 9.98509443 -0.10335303 7.95818308 -0.0625 4.8125 C-0.05347656 3.91144531 -0.04445313 3.01039062 -0.03515625 2.08203125 C-0.02355469 1.39496094 -0.01195313 0.70789063 0 0 Z " fill="#173383" transform="translate(98,105)"/>
<path d="M0 0 C0.99 0.66 1.98 1.32 3 2 C2.34 3.65 1.68 5.3 1 7 C0.33613281 6.95359375 -0.32773438 6.9071875 -1.01171875 6.859375 C-6.90553386 6.61845993 -9.5165894 6.90088174 -14 11 C-16.8125 11.25 -16.8125 11.25 -19 11 C-19 8 -19 8 -16.8125 5.5 C-11.35887459 0.65233296 -7.30784631 -1.05375312 0 0 Z " fill="#102E86" transform="translate(171,90)"/>
<path d="M0 0 C6.62342612 4.7688668 10.52889304 10.16154243 13 18 C13.62924758 23.0012452 13.37010826 27.98297689 13 33 C12.67 33 12.34 33 12 33 C11.505 26.565 11.505 26.565 11 20 C10.67 20 10.34 20 10 20 C9.87625 19.030625 9.7525 18.06125 9.625 17.0625 C9.315625 15.5465625 9.315625 15.5465625 9 14 C8.34 13.67 7.68 13.34 7 13 C6.68546875 13.71027344 6.3709375 14.42054687 6.046875 15.15234375 C5.61890625 16.07144531 5.1909375 16.99054688 4.75 17.9375 C4.12351562 19.31228516 4.12351562 19.31228516 3.484375 20.71484375 C2 23 2 23 -0.109375 23.62890625 C-0.73328125 23.75136719 -1.3571875 23.87382813 -2 24 C-2.33 24.99 -2.66 25.98 -3 27 C-5.0625 27.6875 -5.0625 27.6875 -7 28 C-6.40251953 27.22076172 -6.40251953 27.22076172 -5.79296875 26.42578125 C-4.69684057 24.98294586 -3.61132227 23.53200393 -2.53515625 22.07421875 C-1.42352791 20.57224764 -0.28286215 19.09162539 0.875 17.625 C3.04072811 12.57163442 2.65361134 7.04253544 1 1.875 C0.67 1.25625 0.34 0.6375 0 0 Z " fill="#F0AE3C" transform="translate(361,77)"/>
<path d="M0 0 C3 2 3 2 3.875 4.8125 C4.02864169 8.7303632 3.51717236 10.01085782 1 13 C-3.76632512 16.39142365 -6.99512133 17.82419903 -13 17 C-13.66 16.01 -14.32 15.02 -15 14 C-14.22914062 13.81566406 -13.45828125 13.63132812 -12.6640625 13.44140625 C-9.52666389 12.53406089 -6.83369236 11.6339956 -4 10 C-2.78589803 7.54605538 -2.4639537 5.6423614 -2.24609375 2.92578125 C-2.16488281 2.29027344 -2.08367187 1.65476562 -2 1 C-1.34 0.67 -0.68 0.34 0 0 Z " fill="#102F83" transform="translate(120,91)"/>
<path d="M0 0 C1.98 0 3.96 0 6 0 C5.88590318 2.10478604 5.75834639 4.20884577 5.625 6.3125 C5.55539062 7.48425781 5.48578125 8.65601562 5.4140625 9.86328125 C5 13 5 13 3 16 C3 15.01 3 14.02 3 13 C0.525 14.485 0.525 14.485 -2 16 C-2.20674944 10.21101581 -1.59162079 5.57067277 0 0 Z " fill="#113183" transform="translate(269,91)"/>
<path d="M0 0 C0.66 0.33 1.32 0.66 2 1 C1.34 2.32 0.68 3.64 0 5 C7.73232013 4.50669135 7.73232013 4.50669135 15 2 C15.33 2.66 15.66 3.32 16 4 C6.45007144 8.82096586 -2.5001651 10.1664823 -13 11 C-12.13955078 10.36964844 -12.13955078 10.36964844 -11.26171875 9.7265625 C-9.02844282 8.02171283 -6.91946395 6.23292319 -4.8125 4.375 C-4.11769531 3.76398438 -3.42289062 3.15296875 -2.70703125 2.5234375 C-1.78666129 1.7020547 -0.87228165 0.87228165 0 0 Z " fill="#E15016" transform="translate(335,130)"/>
<path d="M0 0 C-0.98420182 2.57162412 -1.49527314 3.75640596 -4.0234375 4.9765625 C-5.18746094 5.29753906 -5.18746094 5.29753906 -6.375 5.625 C-9.46021565 6.50206799 -12.14900006 7.53343625 -15 9 C-17.63487162 9.87829054 -19.71452023 10.25985103 -22.44921875 10.53515625 C-23.72055664 10.66567383 -23.72055664 10.66567383 -25.01757812 10.79882812 C-25.89865234 10.88583984 -26.77972656 10.97285156 -27.6875 11.0625 C-28.58017578 11.15337891 -29.47285156 11.24425781 -30.39257812 11.33789062 C-32.59476265 11.56164199 -34.79721768 11.78222601 -37 12 C-37.33 10.02 -37.66 8.04 -38 6 C-38.66 6 -39.32 6 -40 6 C-40 4.35 -40 2.7 -40 1 C-36.70814152 3.57623707 -36.56008124 5.98699075 -36 10 C-24.89855076 8.4674767 -9.81202922 0 0 0 Z " fill="#FCCDB9" transform="translate(357,131)"/>
<path d="M0 0 C1.32 0.33 2.64 0.66 4 1 C3.85845864 3.56280208 3.71191438 6.12515485 3.5625 8.6875 C3.50352539 9.7693457 3.50352539 9.7693457 3.44335938 10.87304688 C3.21814322 14.66707282 2.87160695 18.28651492 2 22 C1.67 22 1.34 22 1 22 C0.34 17.71 -0.32 13.42 -1 9 C-1.66 9 -2.32 9 -3 9 C-3 7.02 -3 5.04 -3 3 C-2.34 3 -1.68 3 -1 3 C-0.67 2.01 -0.34 1.02 0 0 Z " fill="#1D3E8E" transform="translate(198,99)"/>
<path d="M0 0 C0.70125 0.268125 1.4025 0.53625 2.125 0.8125 C2.455 1.8025 2.785 2.7925 3.125 3.8125 C-0.39627761 8.4054708 -4.45247597 8.93191917 -9.875 9.8125 C-9.65460279 5.95554875 -8.85953876 4.79633598 -6.125 1.9375 C-2.875 -0.1875 -2.875 -0.1875 0 0 Z " fill="#E5ECF9" transform="translate(114.875,95.1875)"/>
<path d="M0 0 C0.33 0 0.66 0 1 0 C1 8.25 1 16.5 1 25 C0.67 25 0.34 25 0 25 C-0.33 21.7 -0.66 18.4 -1 15 C-1.33 15.66 -1.66 16.32 -2 17 C-2.99 17 -3.98 17 -5 17 C-5.05423638 15.08364783 -5.09289963 13.16685075 -5.125 11.25 C-5.14820312 10.18265625 -5.17140625 9.1153125 -5.1953125 8.015625 C-5.00487687 5.07529894 -4.52670104 3.47638122 -3 1 C-3 2.65 -3 4.3 -3 6 C-2.34 6 -1.68 6 -1 6 C-0.67 4.02 -0.34 2.04 0 0 Z " fill="#03247D" transform="translate(90,91)"/>
<path d="M0 0 C0.66 0 1.32 0 2 0 C2.19672365 1.72814161 2.38196799 3.45759197 2.5625 5.1875 C2.66691406 6.15042969 2.77132812 7.11335938 2.87890625 8.10546875 C2.99758751 10.94233377 2.67765639 13.25423671 2 16 C1.34 16 0.68 16 0 16 C-0.33 15.01 -0.66 14.02 -1 13 C-1.66 13 -2.32 13 -3 13 C-3.33 9.37 -3.66 5.74 -4 2 C-3.34 1.67 -2.68 1.34 -2 1 C-1.67 1.99 -1.34 2.98 -1 4 C-0.67 2.68 -0.34 1.36 0 0 Z " fill="#143889" transform="translate(63,95)"/>
<path d="M0 0 C0.66 0 1.32 0 2 0 C2.19532961 1.7699868 2.38098882 3.54104279 2.5625 5.3125 C2.66691406 6.29863281 2.77132812 7.28476563 2.87890625 8.30078125 C3 11 3 11 2 14 C0.02 14 -1.96 14 -4 14 C-3.88490339 12.58249437 -3.75746342 11.16598831 -3.625 9.75 C-3.55539063 8.96109375 -3.48578125 8.1721875 -3.4140625 7.359375 C-2.9151578 4.51655952 -2.07250561 2.07250561 0 0 Z " fill="#032780" transform="translate(230,107)"/>
<path d="M0 0 C2.4377963 -0.05397335 4.87439685 -0.09365616 7.3125 -0.125 C8.00279297 -0.14175781 8.69308594 -0.15851562 9.40429688 -0.17578125 C13.17135396 -0.21217794 14.78431704 -0.14378864 18 2 C14.86650268 3.04449911 14.01031744 2.93423645 11 2 C11.33 2.66 11.66 3.32 12 4 C12.99 4.33 13.98 4.66 15 5 C15.66 5.66 16.32 6.32 17 7 C17.70125 7.66 18.4025 8.32 19.125 9 C21 11 21 11 21 13 C21.66 13 22.32 13 23 13 C23.66 14.65 24.32 16.3 25 18 C22.37109532 15.97198782 19.94468823 13.94323265 17.625 11.5625 C12.26741661 6.33247812 7.09253164 3.36417721 0 1 C0 0.67 0 0.34 0 0 Z " fill="#0F2069" transform="translate(313,63)"/>
<path d="M0 0 C-0.48036952 4.56351039 -0.48036952 4.56351039 -2.5625 6.3125 C-6.23471975 7.34825429 -9.17286959 7.30374051 -13 7 C-15 5.5 -15 5.5 -16 4 C-13.03 4.495 -13.03 4.495 -10 5 C-10.33 4.01 -10.66 3.02 -11 2 C-9.54494642 1.47007308 -8.08581873 0.9513211 -6.625 0.4375 C-5.40683594 0.00244141 -5.40683594 0.00244141 -4.1640625 -0.44140625 C-2 -1 -2 -1 0 0 Z " fill="#193485" transform="translate(169,115)"/>
<path d="M0 0 C-0.33 1.65 -0.66 3.3 -1 5 C-0.01 5.33 0.98 5.66 2 6 C-1.542799 7.180933 -4.28359861 7.27028374 -8 7 C-10 4 -10 4 -10 0 C-6.33694766 -0.74926071 -3.57644848 -1.2380014 0 0 Z " fill="#EAF0F8" transform="translate(114,109)"/>
<path d="M0 0 C0.66 0 1.32 0 2 0 C3.32229189 2.64458379 3.09677194 4.67761301 3.0625 7.625 C3.05347656 8.62789062 3.04445312 9.63078125 3.03515625 10.6640625 C3.02355469 11.43492188 3.01195312 12.20578125 3 13 C2.01 13 1.02 13 0 13 C-0.33 14.32 -0.66 15.64 -1 17 C-0.01 17.33 0.98 17.66 2 18 C1.01 18.33 0.02 18.66 -1 19 C-3.98514628 14.89542386 -4.2954439 12.02254631 -4 7 C-2.35 6.34 -0.7 5.68 1 5 C0.67 3.35 0.34 1.7 0 0 Z " fill="#06287D" transform="translate(179,102)"/>
<path d="M0 0 C0.66 0.33 1.32 0.66 2 1 C0.5 3.9375 0.5 3.9375 -2 7 C-5.9375 7.6875 -5.9375 7.6875 -8.06640625 7.79296875 C-10.19148082 7.87677132 -10.19148082 7.87677132 -12.375 9.5 C-16.34901518 11.77086581 -20.49206206 11.74615495 -25 12 C-22.5219002 9.5219002 -20.45152884 9.00703189 -17.125 7.9375 C-16.07570313 7.59589844 -15.02640625 7.25429687 -13.9453125 6.90234375 C-11.6378611 6.19541898 -9.34841637 5.55023282 -7 5 C-7 4.34 -7 3.68 -7 3 C-4.69631264 1.93347808 -2.35981813 0.93578995 0 0 Z " fill="#EDA843" transform="translate(350,106)"/>
<path d="M0 0 C2.97 0.495 2.97 0.495 6 1 C5.34 4.3 4.68 7.6 4 11 C2.02 11 0.04 11 -2 11 C-1.34 7.37 -0.68 3.74 0 0 Z " fill="#05227E" transform="translate(128,110)"/>
<path d="M0 0 C0.79148438 -0.01417969 1.58296875 -0.02835937 2.3984375 -0.04296875 C4.625 0.1875 4.625 0.1875 7.625 2.1875 C6.965 3.8375 6.305 5.4875 5.625 7.1875 C2.325 6.8575 -0.975 6.5275 -4.375 6.1875 C-4.375 5.5275 -4.375 4.8675 -4.375 4.1875 C-3.715 3.8575 -3.055 3.5275 -2.375 3.1875 C-3.365 2.5275 -4.355 1.8675 -5.375 1.1875 C-3.79539731 -0.39210269 -2.17963184 0.01763456 0 0 Z " fill="#1B3883" transform="translate(166.375,89.8125)"/>
<path d="M0 0 C0.33 0 0.66 0 1 0 C1 4.29 1 8.58 1 13 C-1.31 13 -3.62 13 -6 13 C-5.67 9.7 -5.34 6.4 -5 3 C-3.68 2.67 -2.36 2.34 -1 2 C-0.67 1.34 -0.34 0.68 0 0 Z " fill="#0A287F" transform="translate(286,108)"/>
<path d="M0 0 C0.95261719 -0.00515625 1.90523437 -0.0103125 2.88671875 -0.015625 C5.3125 0.25 5.3125 0.25 7.3125 2.25 C4.6725 2.25 2.0325 2.25 -0.6875 2.25 C-0.6875 2.91 -0.6875 3.57 -0.6875 4.25 C-1.925 4.188125 -3.1625 4.12625 -4.4375 4.0625 C-8.21626679 4.03584203 -9.78435368 4.77694943 -12.6875 7.25 C-13.6775 6.92 -14.6675 6.59 -15.6875 6.25 C-10.62453285 1.91031387 -6.715562 -0.036647 0 0 Z " fill="#1C3886" transform="translate(195.6875,89.75)"/>
<path d="M0 0 C1.9765625 1.00390625 1.9765625 1.00390625 4 3 C4.35315143 5.7982762 4.4696896 8.15412426 4.375 10.9375 C4.37371094 11.65357422 4.37242187 12.36964844 4.37109375 13.10742188 C4.30911874 16.82247949 4.21942577 19.92574239 2 23 C0.67405895 23.36162029 -0.65938457 23.69728039 -2 24 C-2.33 24.99 -2.66 25.98 -3 27 C-5.0625 27.6875 -5.0625 27.6875 -7 28 C-6.40251953 27.22076172 -6.40251953 27.22076172 -5.79296875 26.42578125 C-4.69684057 24.98294586 -3.61132227 23.53200393 -2.53515625 22.07421875 C-1.42352791 20.57224764 -0.28286215 19.09162539 0.875 17.625 C3.04072811 12.57163442 2.65361134 7.04253544 1 1.875 C0.67 1.25625 0.34 0.6375 0 0 Z " fill="#CDA94C" transform="translate(361,77)"/>
<path d="M0 0 C1.98 0 3.96 0 6 0 C5.34 3.96 4.68 7.92 4 12 C3.67 12 3.34 12 3 12 C3 9.69 3 7.38 3 5 C2.34 4.67 1.68 4.34 1 4 C0.67 3.67 0.34 3.34 0 3 C0 7.29 0 11.58 0 16 C-2 14 -2 14 -2.265625 11.7578125 C-2.26046875 10.88898438 -2.2553125 10.02015625 -2.25 9.125 C-2.25515625 8.26132813 -2.2603125 7.39765625 -2.265625 6.5078125 C-1.98890649 3.89526423 -1.3185995 2.2499912 0 0 Z " fill="#08237A" transform="translate(151,100)"/>
<path d="M0 0 C0.66 0 1.32 0 2 0 C2.66 1.65 3.32 3.3 4 5 C4.33 3.35 4.66 1.7 5 0 C5.33 0 5.66 0 6 0 C6.02712066 1.43739513 6.04645067 2.87493863 6.0625 4.3125 C6.07410156 5.11300781 6.08570312 5.91351563 6.09765625 6.73828125 C6 9 6 9 5 12 C4.01 12 3.02 12 2 12 C2 11.01 2 10.02 2 9 C1.34 9 0.68 9 0 9 C0 6.03 0 3.06 0 0 Z " fill="#062986" transform="translate(98,105)"/>
<path d="M0 0 C0.66 0 1.32 0 2 0 C2.14285714 8.57142857 2.14285714 8.57142857 1 12 C-0.65 11.67 -2.3 11.34 -4 11 C-4.33 8.03 -4.66 5.06 -5 2 C-4.01 2.99 -3.02 3.98 -2 5 C-1.34 3.35 -0.68 1.7 0 0 Z " fill="#183D8A" transform="translate(290,88)"/>
<path d="M0 0 C-0.33 2.31 -0.66 4.62 -1 7 C-3.875 7.125 -3.875 7.125 -7 7 C-7.66 6.34 -8.32 5.68 -9 5 C-9.33 5.66 -9.66 6.32 -10 7 C-10.33 6.01 -10.66 5.02 -11 4 C-7.26280719 0.48264206 -5.13496308 -0.47767098 0 0 Z " fill="#2A4291" transform="translate(150,90)"/>
<path d="M0 0 C1.75 1.4375 1.75 1.4375 3 3 C2.34 4.32 1.68 5.64 1 7 C0.67 5.68 0.34 4.36 0 3 C-0.66 3 -1.32 3 -2 3 C-1.01 4.485 -1.01 4.485 0 6 C-0.375 8.1875 -0.375 8.1875 -1 10 C-2.66666667 10 -4.33333333 10 -6 10 C-5.34 7.03 -4.68 4.06 -4 1 C-2.68 0.67 -1.36 0.34 0 0 Z " fill="#0F328D" transform="translate(181,99)"/>
<path d="M0 0 C2.31 0 4.62 0 7 0 C7.33951619 1.56116819 7.67132544 3.12401338 8 4.6875 C8.185625 5.55761719 8.37125 6.42773438 8.5625 7.32421875 C8.98972047 9.93712964 9.07616201 12.35813038 9 15 C8.67 13.68 8.34 12.36 8 11 C7.34 11 6.68 11 6 11 C6.33 9.02 6.66 7.04 7 5 C6.34 5 5.68 5 5 5 C4.67 4.34 4.34 3.68 4 3 C3.34 3 2.68 3 2 3 C1.34 4.98 0.68 6.96 0 9 C-0.66 9 -1.32 9 -2 9 C-1.34 6.03 -0.68 3.06 0 0 Z " fill="#0C2278" transform="translate(55,80)"/>
<path d="M0 0 C-1.98 0.99 -1.98 0.99 -4 2 C-4 4.46278801 -3.14547137 5.85224119 -2 8 C-2.639375 7.731875 -3.27875 7.46375 -3.9375 7.1875 C-7.91202261 5.64635858 -11.94884495 4.32390688 -16 3 C-16 2.34 -16 1.68 -16 1 C-10.65097076 0.40801257 -5.39115154 -0.14187241 0 0 Z " fill="#E98B4D" transform="translate(316,119)"/>
<path d="M0 0 C0.33 0.66 0.66 1.32 1 2 C1.99 1.67 2.98 1.34 4 1 C5.4606285 3.64738916 6 4.89448334 6 8 C5.34 8 4.68 8 4 8 C4 8.99 4 9.98 4 11 C2.68 10.67 1.36 10.34 0 10 C-0.95024979 6.30458414 -0.95024979 3.69541586 0 0 Z " fill="#0D368D" transform="translate(246,96)"/>
<path d="M0 0 C0.33 0 0.66 0 1 0 C1.10731538 9.39605802 0.99263429 18.64087671 0 28 C-0.33 28 -0.66 28 -1 28 C-1 21.4 -1 14.8 -1 8 C-2.32 8.99 -3.64 9.98 -5 11 C-3.77782954 6.95743617 -2.37245704 3.50711041 0 0 Z " fill="#AAB7E5" transform="translate(84,93)"/>
<path d="M0 0 C0.66 0 1.32 0 2 0 C1.72097404 6.55711013 -0.86775148 10.95290044 -5 16 C-5.99 16.66 -6.98 17.32 -8 18 C-7.35494404 14.51669784 -6.01782732 11.90567134 -4 9 C-3.34 9 -2.68 9 -2 9 C-2 8.01 -2 7.02 -2 6 C-1.34 6 -0.68 6 0 6 C0 4.02 0 2.04 0 0 Z " fill="#E7671B" transform="translate(371,107)"/>
<path d="M0 0 C2.31 0.33 4.62 0.66 7 1 C6.67 2.65 6.34 4.3 6 6 C4.1875 6.6875 4.1875 6.6875 2 7 C0.1875 5.8125 0.1875 5.8125 -1 4 C-0.6875 1.8125 -0.6875 1.8125 0 0 Z " fill="#0C277D" transform="translate(271,79)"/>
<path d="M0 0 C0.66 0.33 1.32 0.66 2 1 C1.34 2.32 0.68 3.64 0 5 C0.99 5.33 1.98 5.66 3 6 C3 6.66 3 7.32 3 8 C-2.94 8.495 -2.94 8.495 -9 9 C-6 6 -3 3 0 0 Z " fill="#F45102" transform="translate(335,130)"/>
<path d="M0 0 C0.66 0.66 1.32 1.32 2 2 C4.21072977 2.24253813 4.21072977 2.24253813 6.625 2.125 C7.44226563 2.10695313 8.25953125 2.08890625 9.1015625 2.0703125 C9.72804688 2.04710938 10.35453125 2.02390625 11 2 C11 2.66 11 3.32 11 4 C10.01 4 9.02 4 8 4 C7.67 4.99 7.34 5.98 7 7 C6.67 6.34 6.34 5.68 6 5 C2.97065509 4.34227572 2.97065509 4.34227572 0 4 C0 4.66 0 5.32 0 6 C-0.99 6.33 -1.98 6.66 -3 7 C-3.99 5.35 -4.98 3.7 -6 2 C-5.34 1.67 -4.68 1.34 -4 1 C-4 1.99 -4 2.98 -4 4 C-3.01 4 -2.02 4 -1 4 C-0.67 2.68 -0.34 1.36 0 0 Z " fill="#1C3B88" transform="translate(104,113)"/>
<path d="M0 0 C1.65 0 3.3 0 5 0 C4.67 2.64 4.34 5.28 4 8 C2.35 7.67 0.7 7.34 -1 7 C-0.67 4.69 -0.34 2.38 0 0 Z " fill="#082C85" transform="translate(199,92)"/>
<path d="M0 0 C0 0.66 0 1.32 0 2 C-0.639375 2.268125 -1.27875 2.53625 -1.9375 2.8125 C-4.33131686 3.88667752 -4.33131686 3.88667752 -5 7 C-4.34 7.33 -3.68 7.66 -3 8 C-3.99 8 -4.98 8 -6 8 C-6.433125 7.0409375 -6.433125 7.0409375 -6.875 6.0625 C-7.82823451 3.84793921 -7.82823451 3.84793921 -10 3 C-6.84916414 -0.15083586 -4.41812253 0 0 0 Z " fill="#F27E17" transform="translate(320,119)"/>
<path d="M0 0 C0.66 0 1.32 0 2 0 C2.95024979 3.69541586 2.95024979 6.30458414 2 10 C0.02 10 -1.96 10 -4 10 C-3.34 9.67 -2.68 9.34 -2 9 C-1.5720382 7.13690908 -1.5720382 7.13690908 -1.4375 5 C-1.09589041 1.09589041 -1.09589041 1.09589041 0 0 Z " fill="#04267E" transform="translate(211,111)"/>
<path d="M0 0 C2.97 0.495 2.97 0.495 6 1 C5.67 3.64 5.34 6.28 5 9 C3.68 8.34 2.36 7.68 1 7 C0.34 7.66 -0.32 8.32 -1 9 C-0.67 6.03 -0.34 3.06 0 0 Z " fill="#052179" transform="translate(283,104)"/>
<path d="M0 0 C1.45606519 4.52092968 0.27032841 7.51648796 -1 12 C-1.33 12 -1.66 12 -2 12 C-2 9.69 -2 7.38 -2 5 C-2.99 4.67 -3.98 4.34 -5 4 C-5.33 6.31 -5.66 8.62 -6 11 C-6.97353743 7.97121688 -7.24612776 5.97153543 -6 3 C-2.67857143 0 -2.67857143 0 0 0 Z " fill="#042279" transform="translate(272,104)"/>
<path d="M0 0 C2.31 0 4.62 0 7 0 C6.67 0.99 6.34 1.98 6 3 C7.65 3 9.3 3 11 3 C11 3.33 11 3.66 11 4 C7.04 4 3.08 4 -1 4 C-1.33 3.34 -1.66 2.68 -2 2 C-1.34 2 -0.68 2 0 2 C0 1.34 0 0.68 0 0 Z " fill="#04267E" transform="translate(104,117)"/>
<path d="M0 0 C1.32 0 2.64 0 4 0 C4 2.97 4 5.94 4 9 C3.01 9 2.02 9 1 9 C0.67 6.03 0.34 3.06 0 0 Z " fill="#092B8C" transform="translate(289,79)"/>
<path d="M0 0 C2 2 2 2 2.125 4.625 C2.08375 5.40875 2.0425 6.1925 2 7 C0.02 7 -1.96 7 -4 7 C-3.67 5.02 -3.34 3.04 -3 1 C-2.01 0.67 -1.02 0.34 0 0 Z " fill="#042578" transform="translate(197,114)"/>
<path d="M0 0 C0.66 0.33 1.32 0.66 2 1 C0.3125 4 0.3125 4 -2 7 C-4.75 7.375 -4.75 7.375 -7 7 C-7 5.68 -7 4.36 -7 3 C-4.69631264 1.93347808 -2.35981813 0.93578995 0 0 Z " fill="#CC8A3E" transform="translate(350,106)"/>
<path d="M0 0 C2.52259061 1.97420135 2.9929808 2.96745642 3.6875 6.1875 C3.790625 7.115625 3.89375 8.04375 4 9 C6.31 9 8.62 9 11 9 C7.91190305 10.76462683 6.76687864 11 3 11 C2.67 9.02 2.34 7.04 2 5 C1.34 5 0.68 5 0 5 C0 3.35 0 1.7 0 0 Z " fill="#FEECCD" transform="translate(317,132)"/>
<path d="M0 0 C0.66 1.32 1.32 2.64 2 4 C-0.85276137 6.93200474 -3.65079784 9.64315404 -7 12 C-7.66 11.67 -8.32 11.34 -9 11 C-8.51789063 10.45730469 -8.03578125 9.91460937 -7.5390625 9.35546875 C-6.90742188 8.64003906 -6.27578125 7.92460938 -5.625 7.1875 C-4.68527344 6.12595703 -4.68527344 6.12595703 -3.7265625 5.04296875 C-1.859401 2.91196181 -1.859401 2.91196181 0 0 Z " fill="#FEE5D4" transform="translate(370,116)"/>
<path d="M0 0 C-0.66 3.3 -1.32 6.6 -2 10 C-2.33 10 -2.66 10 -3 10 C-3.33 8.35 -3.66 6.7 -4 5 C-4.99 5 -5.98 5 -7 5 C-7 4.01 -7 3.02 -7 2 C-2.25 0 -2.25 0 0 0 Z " fill="#0F2375" transform="translate(256,81)"/>
<path d="M0 0 C0.66 0.99 1.32 1.98 2 3 C1.67 3.99 1.34 4.98 1 6 C-0.98 6 -2.96 6 -5 6 C-5 4.35 -5 2.7 -5 1 C-2.525 1.495 -2.525 1.495 0 2 C0 1.34 0 0.68 0 0 Z " fill="#0B2279" transform="translate(231,115)"/>
<path d="M0 0 C0.99 0.33 1.98 0.66 3 1 C1.68 4.63 0.36 8.26 -1 12 C-1.66 12 -2.32 12 -3 12 C-2.69230293 10.18667846 -2.37870936 8.37435655 -2.0625 6.5625 C-1.80146484 5.04849609 -1.80146484 5.04849609 -1.53515625 3.50390625 C-1 1 -1 1 0 0 Z " fill="#FDA81E" transform="translate(340,113)"/>
<path d="M0 0 C2.97 0 5.94 0 9 0 C9 0.33 9 0.66 9 1 C8.0925 1.226875 7.185 1.45375 6.25 1.6875 C2.5332207 3.18850702 1.33489065 4.83121983 -1 8 C-1.66 8 -2.32 8 -3 8 C-3 7.01 -3 6.02 -3 5 C-2.34 5 -1.68 5 -1 5 C-0.67 3.35 -0.34 1.7 0 0 Z " fill="#082078" transform="translate(139,95)"/>
<path d="M0 0 C0.99 0.33 1.98 0.66 3 1 C2.67 2.65 2.34 4.3 2 6 C1.01 6 0.02 6 -1 6 C-1 6.66 -1 7.32 -1 8 C-1.66 7.67 -2.32 7.34 -3 7 C-2.625 4.0625 -2.625 4.0625 -2 1 C-1.34 0.67 -0.68 0.34 0 0 Z " fill="#052B87" transform="translate(121,95)"/>
<path d="M0 0 C3.98175544 2.10148204 6.35039045 4.36905358 9 8 C8.67 8.66 8.34 9.32 8 10 C4.83884224 8.63016497 4.0072908 8.0109362 2 5 C2 4.01 2 3.02 2 2 C1.01 1.67 0.02 1.34 -1 1 C-0.67 0.67 -0.34 0.34 0 0 Z " fill="#103F7C" transform="translate(354,72)"/>
<path d="M0 0 C1.41777182 0.08785338 2.83429039 0.19604647 4.25 0.3125 C5.43335938 0.39951172 5.43335938 0.39951172 6.640625 0.48828125 C9 1 9 1 13 4 C9.37 3.67 5.74 3.34 2 3 C2 2.34 2 1.68 2 1 C1.34 0.67 0.68 0.34 0 0 Z " fill="#091E6F" transform="translate(334,65)"/>
<path d="M0 0 C1.65 0.33 3.3 0.66 5 1 C4.07347299 2.17539996 3.13336613 3.34010577 2.1875 4.5 C1.66542969 5.1496875 1.14335937 5.799375 0.60546875 6.46875 C-1 8 -1 8 -4 8 C-2.68 5.36 -1.36 2.72 0 0 Z " fill="#F45F01" transform="translate(340,120)"/>
<path d="M0 0 C-2.31881505 2.67901932 -4.31814468 3.66204403 -7.6875 4.6875 C-8.89986328 5.06455078 -8.89986328 5.06455078 -10.13671875 5.44921875 C-11.05904297 5.72185547 -11.05904297 5.72185547 -12 6 C-11.67 5.34 -11.34 4.68 -11 4 C-10.01 4 -9.02 4 -8 4 C-7.67 3.01 -7.34 2.02 -7 1 C-4.05697101 -0.96201933 -3.48011144 -1.16003715 0 0 Z " fill="#307D9B" transform="translate(356,103)"/>
<path d="M0 0 C3.5 0.25 3.5 0.25 5.5 2.25 C4.18 3.57 2.86 4.89 1.5 6.25 C1.5 5.26 1.5 4.27 1.5 3.25 C-0.81 2.92 -3.12 2.59 -5.5 2.25 C-3.5 0.25 -3.5 0.25 0 0 Z " fill="#1B3885" transform="translate(114.5,89.75)"/>
<path d="M0 0 C0.99 0.495 0.99 0.495 2 1 C2 2.65 2 4.3 2 6 C2.66 6.33 3.32 6.66 4 7 C3.03114628 8.68496298 2.03013277 10.35178756 1 12 C0.67 12 0.34 12 0 12 C0 8.04 0 4.08 0 0 Z " fill="#F4B523" transform="translate(365,81)"/>
<path d="M0 0 C0.66 0.33 1.32 0.66 2 1 C0.73299277 1.9841125 -0.5387619 2.96211497 -1.8125 3.9375 C-2.87404297 4.75541016 -2.87404297 4.75541016 -3.95703125 5.58984375 C-6 7 -6 7 -9 8 C-9 7.01 -9 6.02 -9 5 C-7.35 4.67 -5.7 4.34 -4 4 C-4 3.34 -4 2.68 -4 2 C-2.125 0.9375 -2.125 0.9375 0 0 Z " fill="#E3561D" transform="translate(361,125)"/>
<path d="M0 0 C0.33 0 0.66 0 1 0 C1 1.98 1 3.96 1 6 C0.01 6 -0.98 6 -2 6 C-2 7.98 -2 9.96 -2 12 C-2.33 12 -2.66 12 -3 12 C-3.33 8.7 -3.66 5.4 -4 2 C-3.34 1.67 -2.68 1.34 -2 1 C-2 2.32 -2 3.64 -2 5 C-1.34 5 -0.68 5 0 5 C0 3.35 0 1.7 0 0 Z " fill="#021E73" transform="translate(65,106)"/>
<path d="M0 0 C0.66 0.33 1.32 0.66 2 1 C2.59355614 3.64860427 2.74209269 6.29197322 3 9 C1.68 8.67 0.36 8.34 -1 8 C-0.67 5.36 -0.34 2.72 0 0 Z " fill="#0A3291" transform="translate(49,103)"/>
<path d="M0 0 C0.99 0.99 1.98 1.98 3 3 C2.34 4.32 1.68 5.64 1 7 C0.67 5.68 0.34 4.36 0 3 C-1.65 3.66 -3.3 4.32 -5 5 C-4.1875 3.0625 -4.1875 3.0625 -3 1 C-2.01 0.67 -1.02 0.34 0 0 Z " fill="#274191" transform="translate(181,99)"/>
<path d="M0 0 C-0.5625 1.875 -0.5625 1.875 -2 4 C-5.625 5.25 -5.625 5.25 -9 6 C-8 3 -8 3 -5.0625 1.3125 C-2 0 -2 0 0 0 Z " fill="#FEE4D4" transform="translate(357,131)"/>
<path d="M0 0 C0.99 0 1.98 0 3 0 C3 1.65 3 3.3 3 5 C-0.63423209 7.32590854 -3.77088331 7.16265833 -8 7 C-8 6.67 -8 6.34 -8 6 C-3.545 5.505 -3.545 5.505 1 5 C0.67 3.35 0.34 1.7 0 0 Z " fill="#3C4C8D" transform="translate(254,115)"/>
<path d="M0 0 C0.6875 1.75 0.6875 1.75 1 4 C-0.25 6.25 -0.25 6.25 -2 8 C-2.99 8 -3.98 8 -5 8 C-5 6.35 -5 4.7 -5 3 C-4.360625 2.87625 -3.72125 2.7525 -3.0625 2.625 C-2.0415625 2.315625 -2.0415625 2.315625 -1 2 C-0.67 1.34 -0.34 0.68 0 0 Z " fill="#183A91" transform="translate(286,108)"/>
<path d="M0 0 C0.66 0.99 1.32 1.98 2 3 C2.99 3.33 3.98 3.66 5 4 C5.33 3.01 5.66 2.02 6 1 C5.67 3.64 5.34 6.28 5 9 C4.67 7.68 4.34 6.36 4 5 C2.35 5.66 0.7 6.32 -1 7 C-0.67 4.69 -0.34 2.38 0 0 Z " fill="#021B70" transform="translate(245,103)"/>
<path d="M0 0 C0.33 0 0.66 0 1 0 C1 1.65 1 3.3 1 5 C1.66 5.33 2.32 5.66 3 6 C2.01 7.485 2.01 7.485 1 9 C1.66 9 2.32 9 3 9 C3 9.99 3 10.98 3 12 C2.01 12.33 1.02 12.66 0 13 C-0.19466332 11.20909747 -0.38051213 9.41723495 -0.5625 7.625 C-0.66691406 6.62726563 -0.77132813 5.62953125 -0.87890625 4.6015625 C-1 2 -1 2 0 0 Z " fill="#096EAE" transform="translate(344,95)"/>
<path d="M0 0 C2.31 0 4.62 0 7 0 C6.34 1.32 5.68 2.64 5 4 C3.35 4 1.7 4 0 4 C0 2.68 0 1.36 0 0 Z " fill="#042276" transform="translate(242,91)"/>
<path d="M0 0 C0.66 0 1.32 0 2 0 C1.34 1.32 0.68 2.64 0 4 C-4.29 3.67 -8.58 3.34 -13 3 C-13 2.67 -13 2.34 -13 2 C-12.14535156 1.93941406 -11.29070312 1.87882812 -10.41015625 1.81640625 C-8.75306641 1.69072266 -8.75306641 1.69072266 -7.0625 1.5625 C-5.96035156 1.48128906 -4.85820313 1.40007812 -3.72265625 1.31640625 C-1.08890097 1.29581916 -1.08890097 1.29581916 0 0 Z " fill="#B1BDE0" transform="translate(117,119)"/>
<path d="M0 0 C1.32 0.33 2.64 0.66 4 1 C4 1.99 4 2.98 4 4 C2.02 4.99 2.02 4.99 0 6 C0 4.02 0 2.04 0 0 Z " fill="#043190" transform="translate(63,112)"/>
<path d="M0 0 C3.3 0 6.6 0 10 0 C9.67 0.99 9.34 1.98 9 3 C5.7 2.67 2.4 2.34 -1 2 C-0.67 1.34 -0.34 0.68 0 0 Z " fill="#02257D" transform="translate(107,92)"/>
<path d="M0 0 C0.66 0 1.32 0 2 0 C2.33 1.98 2.66 3.96 3 6 C2.01 6.495 2.01 6.495 1 7 C1 6.34 1 5.68 1 5 C0.01 5 -0.98 5 -2 5 C-1.34 3.35 -0.68 1.7 0 0 Z " fill="#06217D" transform="translate(71,107)"/>
<path d="M0 0 C1.32 0.33 2.64 0.66 4 1 C3.34 2.32 2.68 3.64 2 5 C0.02 5 -1.96 5 -4 5 C-4.33 4.34 -4.66 3.68 -5 3 C-3.35 3 -1.7 3 0 3 C0 2.01 0 1.02 0 0 Z " fill="#16378D" transform="translate(156,96)"/>
<path d="M0 0 C0.75 1.625 0.75 1.625 1 4 C-2.17808219 9.5890411 -2.17808219 9.5890411 -5 11 C-3.77472971 6.94718288 -2.30119506 3.55639236 0 0 Z " fill="#CFDAF6" transform="translate(84,93)"/>
<path d="M0 0 C1.98 0 3.96 0 6 0 C5.67 1.98 5.34 3.96 5 6 C4.67 4.68 4.34 3.36 4 2 C2.68 2 1.36 2 0 2 C-0.33 2.99 -0.66 3.98 -1 5 C-0.67 3.35 -0.34 1.7 0 0 Z " fill="#081C6C" transform="translate(289,77)"/>
<path d="M0 0 C0.78375 0.04125 1.5675 0.0825 2.375 0.125 C2.375 1.775 2.375 3.425 2.375 5.125 C1.715 4.465 1.055 3.805 0.375 3.125 C-2.19561311 2.47732207 -2.19561311 2.47732207 -4.625 2.125 C-2.625 0.125 -2.625 0.125 0 0 Z " fill="#364D96" transform="translate(191.625,113.875)"/>
<path d="M0 0 C-0.66 0 -1.32 0 -2 0 C-2 0.66 -2 1.32 -2 2 C-1.01 2.33 -0.02 2.66 1 3 C-1.875 3.1875 -1.875 3.1875 -5 3 C-5.66 2.01 -6.32 1.02 -7 0 C-3.86650268 -1.04449911 -3.01031744 -0.93423645 0 0 Z " fill="#082075" transform="translate(112,105)"/>
<path d="M0 0 C-1.49097658 3.7952131 -3.75700849 5.61042731 -7 8 C-4.18918919 0 -4.18918919 0 0 0 Z " fill="#D5E0F4" transform="translate(190,96)"/>
<path d="M0 0 C2.64 0 5.28 0 8 0 C8.6875 1.8125 8.6875 1.8125 9 4 C7.5625 5.75 7.5625 5.75 6 7 C6 5.35 6 3.7 6 2 C3.03 1.505 3.03 1.505 0 1 C0 0.67 0 0.34 0 0 Z " fill="#D1DAF5" transform="translate(131,90)"/>
<path d="M0 0 C2.31 0.33 4.62 0.66 7 1 C7 2.32 7 3.64 7 5 C6.34 5 5.68 5 5 5 C5 4.01 5 3.02 5 2 C3.68 2.33 2.36 2.66 1 3 C0.67 2.01 0.34 1.02 0 0 Z " fill="#1D317F" transform="translate(271,79)"/>
<path d="M0 0 C0.99 0 1.98 0 3 0 C2.34 1.65 1.68 3.3 1 5 C-0.32 4.67 -1.64 4.34 -3 4 C-1.6875 2 -1.6875 2 0 0 Z " fill="#0E2A82" transform="translate(193,109)"/>
<path d="M0 0 C0.99 0 1.98 0 3 0 C2.34 1.65 1.68 3.3 1 5 C-0.32 4.67 -1.64 4.34 -3 4 C-1.6875 2 -1.6875 2 0 0 Z " fill="#F09119" transform="translate(353,105)"/>
<path d="M0 0 C0.12375 0.639375 0.2475 1.27875 0.375 1.9375 C0.58125 2.618125 0.7875 3.29875 1 4 C1.66 4.33 2.32 4.66 3 5 C2.01 6.485 2.01 6.485 1 8 C0.34 8 -0.32 8 -1 8 C-1.125 2.25 -1.125 2.25 0 0 Z " fill="#223A87" transform="translate(208,112)"/>
<path d="M0 0 C2.475 0.99 2.475 0.99 5 2 C4.67 3.65 4.34 5.3 4 7 C3.34 5.68 2.68 4.36 2 3 C1.01 3.33 0.02 3.66 -1 4 C-0.67 2.68 -0.34 1.36 0 0 Z " fill="#052376" transform="translate(50,97)"/>
<path d="M0 0 C0.66 0 1.32 0 2 0 C2 2.64 2 5.28 2 8 C1.01 7.67 0.02 7.34 -1 7 C-0.67 4.69 -0.34 2.38 0 0 Z " fill="#B8C6F1" transform="translate(57,92)"/>
<path d="M0 0 C1.2065625 0.0309375 1.2065625 0.0309375 2.4375 0.0625 C3.0975 1.7125 3.7575 3.3625 4.4375 5.0625 C1.4655615 3.93798273 -0.89690687 2.83956209 -3.5625 1.0625 C-2.5625 0.0625 -2.5625 0.0625 0 0 Z " fill="#101E6C" transform="translate(321.5625,63.9375)"/>
</svg>
