<?xml version="1.0" encoding="UTF-8"?>
<svg version="1.1" xmlns="http://www.w3.org/2000/svg" width="1200" height="359">
<path d="M0 0 C2.92606258 -0.38031673 2.92606258 -0.38031673 6.7563324 -0.38768005 C7.45925716 -0.39306559 8.16218192 -0.39845113 8.88640743 -0.40399987 C11.25444377 -0.41836715 13.6219279 -0.41115398 15.98999023 -0.40405273 C17.683578 -0.40975258 19.37716193 -0.41671534 21.07073975 -0.42485046 C25.68544117 -0.44286187 30.29995321 -0.4415959 34.91467929 -0.43590808 C38.77520272 -0.43282073 42.63568954 -0.43890522 46.49620777 -0.44494683 C55.62258401 -0.45902311 64.74886676 -0.45741143 73.87524414 -0.44604492 C83.25217512 -0.43462334 92.6288181 -0.44853118 102.00571102 -0.4754414 C110.07479172 -0.49772129 118.14378289 -0.50420646 126.21289212 -0.49836498 C131.02298895 -0.49501578 135.83290227 -0.49727048 140.64297295 -0.51461601 C145.18455582 -0.53027428 149.72572073 -0.52592434 154.26728821 -0.50731087 C155.91862988 -0.50367321 157.57000377 -0.50658909 159.22131538 -0.51719666 C186.66854189 -0.67978501 211.18929685 7.4864574 231 27 C245.91999033 41.89296136 252.18783925 60.68857983 252.25 81.5 C252.24177151 101.49522961 246.74261084 120.220613 232.5 134.875 C222.91629264 144 222.91629264 144 219 144 C219 144.66 219 145.32 219 146 C219.85980469 146.25523437 220.71960938 146.51046875 221.60546875 146.7734375 C238.06395264 152.7204616 250.35680199 165.57281665 257.99072266 181.00244141 C261.19821419 188.049912 263.84980495 195.32207459 265 203 C265.10957031 203.64195312 265.21914063 204.28390625 265.33203125 204.9453125 C268.87904017 229.82166836 264.53417909 256.90377894 250.125 277.70703125 C233.27650109 299.82068607 207.53931609 309.39606731 180.79450989 313.0365448 C172.02810786 314.15491855 163.36006667 314.29004273 154.53393555 314.2746582 C152.85173316 314.27901865 151.16953275 314.28420617 149.48733521 314.29014587 C144.97373949 314.30338762 140.46022821 314.30413254 135.94661689 314.30158257 C132.16839113 314.3005051 128.39018193 314.30541466 124.61195976 314.310188 C115.70752081 314.32122648 106.80312409 314.32174925 97.89868164 314.31567383 C88.71545824 314.30960508 79.53238693 314.32203106 70.34918946 314.3432439 C62.44484154 314.36083032 54.54054223 314.36686692 46.63617545 314.36360615 C41.92295759 314.36179226 37.20984888 314.3644423 32.49664879 314.37832069 C28.07810988 314.39085021 23.65981081 314.38900163 19.24127579 314.37590981 C17.61867633 314.37353577 15.99606019 314.37630815 14.37347984 314.38453293 C12.16367747 314.39493024 9.95469108 314.3869582 7.74491882 314.3742218 C5.88871933 314.37447341 5.88871933 314.37447341 3.99502087 314.37473011 C1 314 1 314 -0.66376817 312.79976147 C-2.46358682 310.3755981 -2.3749074 308.83525575 -2.37473011 305.8290863 C-2.38193665 304.75207742 -2.3891432 303.67506853 -2.39656812 302.56542301 C-2.38919383 301.37779582 -2.38181955 300.19016863 -2.3742218 298.96655273 C-2.37819621 297.70837203 -2.38217061 296.45019133 -2.38626546 295.15388393 C-2.39688117 291.65468065 -2.38870484 288.15573174 -2.37751496 284.65653944 C-2.3686928 280.88552695 -2.3771107 277.11454847 -2.38337708 273.34353638 C-2.39287875 265.95341603 -2.3862533 258.56339313 -2.37411413 251.17328 C-2.36051185 242.5729557 -2.36213042 233.97265476 -2.36424746 225.37232244 C-2.36743935 210.03042147 -2.35575821 194.6885669 -2.33618164 179.34667969 C-2.31717664 164.44887886 -2.31009385 149.5511324 -2.31567383 134.65332031 C-2.32172742 118.44300646 -2.32156226 102.23271653 -2.310188 86.02240467 C-2.30898067 84.29489454 -2.30777468 82.5673844 -2.30657005 80.83987427 C-2.30596651 79.9898354 -2.30536298 79.13979654 -2.30474115 78.26399893 C-2.30085677 72.26460941 -2.30125763 66.26522879 -2.3031559 60.26583862 C-2.3052749 52.95776164 -2.30007619 45.64973237 -2.28554235 38.34166884 C-2.27828338 34.61071419 -2.27423407 30.87982912 -2.27878571 27.14886856 C-2.28359285 23.11032566 -2.27297571 19.07197429 -2.26069641 15.03344727 C-2.26447573 13.84582007 -2.26825506 12.65819288 -2.27214891 11.43457699 C-2.26631671 10.3575681 -2.26048452 9.28055922 -2.25447559 8.1709137 C-2.25360882 7.23804818 -2.25274204 6.30518267 -2.251849 5.3440485 C-2 3 -2 3 0 0 Z M52 46 C49.50598562 49.74102157 49.74099246 51.70523751 49.7253418 56.17773438 C49.72023087 56.90487137 49.71511993 57.63200836 49.70985413 58.38117981 C49.69595046 60.78545351 49.69691524 63.18944087 49.69921875 65.59375 C49.69533263 67.26379503 49.69099814 68.93383908 49.68623352 70.60388184 C49.67876994 74.10428064 49.67906386 77.60457859 49.68432617 81.10498047 C49.69012524 85.59437543 49.67318013 90.08335842 49.6499815 94.57268524 C49.63526329 98.02132589 49.63436976 101.46986684 49.63749123 104.91853333 C49.63697719 106.57396766 49.63172399 108.22940746 49.62167931 109.8848114 C49.60936703 112.1975702 49.61607417 114.50952015 49.62768555 116.82226562 C49.62705612 118.13892212 49.6264267 119.45557861 49.6257782 120.81213379 C49.71950145 123.91901961 49.71950145 123.91901961 51.25801182 125.67543221 C53.42187661 127.32078528 54.54718069 127.37689192 57.24603271 127.38095093 C58.11196548 127.3894104 58.97789825 127.39786987 59.87007141 127.40658569 C60.81754745 127.400513 61.7650235 127.39444031 62.74121094 127.38818359 C63.74167953 127.39344055 64.74214813 127.39869751 65.77293396 127.40411377 C69.09357155 127.41735612 72.41373216 127.40855256 75.734375 127.3984375 C78.04827974 127.40045892 80.36218386 127.40337093 82.67608643 127.40713501 C87.53851353 127.41156567 92.40077565 127.40511041 97.26318359 127.39111328 C103.45978031 127.37413547 109.65598392 127.38378515 115.85256577 127.40183067 C120.63992187 127.41274653 125.42718714 127.40918466 130.2145462 127.4014473 C132.4964223 127.3994608 134.77830693 127.40184939 137.06017303 127.40888596 C165.22710589 127.50619983 165.22710589 127.50619983 189.24609375 114.015625 C198.14624158 103.78739274 198.81001207 90.87019185 198 78 C196.49092509 68.45097978 191.41147248 60.24120226 183.828125 54.2734375 C169.57528779 44.3451791 152.5460839 45.55264418 135.95703125 45.6015625 C133.53659477 45.59953911 131.11615889 45.59662546 128.69572449 45.59286499 C123.6501987 45.58846347 118.60483322 45.59480875 113.55932617 45.60888672 C107.08149306 45.62607853 100.60403014 45.61606069 94.12621021 45.59816933 C89.14124224 45.58735879 84.156363 45.59076351 79.17139244 45.5985527 C76.78108361 45.60055706 74.3907668 45.59808724 72.0004673 45.59111404 C68.67562885 45.58353365 65.3514038 45.59505145 62.02661133 45.61181641 C60.53918678 45.60270737 60.53918678 45.60270737 59.02171326 45.59341431 C57.67005569 45.60610352 57.67005569 45.60610352 56.29109192 45.61904907 C55.50601666 45.62018015 54.72094141 45.62131123 53.912076 45.62247658 C53.28109092 45.74705931 52.65010584 45.87164204 52 46 Z M50 176 C49.70893321 178.89288936 49.6006074 181.56964916 49.62768555 184.46289062 C49.62403488 185.32657761 49.62038422 186.19026459 49.61662292 187.0801239 C49.60850774 189.93903176 49.62213556 192.79737454 49.63671875 195.65625 C49.63723724 197.64017741 49.63671997 199.62410533 49.63520813 201.60803223 C49.6352979 205.76757468 49.64573648 209.92692349 49.66381836 214.08642578 C49.68650562 219.42322164 49.68705009 224.75973444 49.68030071 230.09656525 C49.67696221 234.19373092 49.68358859 238.29083183 49.69342995 242.38798523 C49.69728428 244.35600953 49.6984292 246.32404104 49.6968441 248.29206848 C49.69647402 251.04055552 49.70907775 253.78867713 49.7253418 256.53710938 C49.72286438 257.35382614 49.72038696 258.17054291 49.71783447 259.01200867 C49.75429647 262.86493004 49.81235221 264.71852832 52 268 C54.03157279 268.4542447 54.03157279 268.4542447 56.41603088 268.38095093 C57.80950241 268.39364014 57.80950241 268.39364014 59.23112488 268.40658569 C60.25386002 268.400513 61.27659515 268.39444031 62.33032227 268.38818359 C63.40546082 268.39344055 64.48059937 268.39869751 65.58831787 268.40411377 C69.16449277 268.4173786 72.7402263 268.40854336 76.31640625 268.3984375 C78.80631089 268.40045859 81.29621494 268.40337031 83.78611755 268.40713501 C89.02274069 268.41156894 94.25924911 268.4053875 99.49584961 268.39111328 C106.16646504 268.37313734 112.83665373 268.38377126 119.5072794 268.40183067 C124.66101248 268.4127535 129.81466129 268.4091812 134.96839714 268.4014473 C137.42445863 268.39946174 139.88052807 268.40184598 142.33658028 268.40888596 C174.1446515 268.64088804 174.1446515 268.64088804 202.06640625 254.94140625 C211.40052525 245.56957364 213.89267225 233.80129887 214.25 220.9375 C214.11949017 208.33605064 211.44781349 196.83742507 202.9375 187.3125 C185.43024155 170.94454254 157.31831204 172.68393925 135.13671875 172.69921875 C132.76780625 172.69532453 130.39889445 172.69098838 128.02998352 172.68623352 C123.10077633 172.67882234 118.17164088 172.67902881 113.24243164 172.68432617 C106.91837637 172.69016622 100.59460968 172.67305669 94.27060223 172.6499815 C89.39541402 172.63529027 84.52029652 172.63436526 79.6450901 172.63749123 C77.31142408 172.6369774 74.97775417 172.63172816 72.64410973 172.62167931 C69.39885538 172.60939894 66.15417999 172.61605195 62.90893555 172.62768555 C61.94432907 172.62004181 60.9797226 172.61239807 59.98588562 172.60452271 C59.1045697 172.61153702 58.22325378 172.61855133 57.31523132 172.6257782 C56.16696885 172.62552659 56.16696885 172.62552659 54.99550915 172.62526989 C52.41823523 173.1092477 51.54039088 173.90008366 50 176 Z " fill="#00447F" transform="translate(319,45)"/>
<path d="M0 0 C0.70504146 -0.00382555 1.41008292 -0.00765109 2.13648927 -0.01159257 C4.51142686 -0.02195387 6.88612407 -0.01792434 9.26107788 -0.01396179 C10.95953089 -0.01830706 12.65798194 -0.02348958 14.35643005 -0.02944946 C18.98329336 -0.04288398 23.61007519 -0.04341224 28.23695421 -0.04088616 C32.10520917 -0.03981751 35.97344758 -0.04469813 39.841699 -0.04949158 C48.98231829 -0.06060629 58.12289651 -0.06101592 67.26351929 -0.05497742 C76.6643176 -0.04896167 86.06496533 -0.06118278 95.46573794 -0.08254749 C103.55004755 -0.10023875 111.6343096 -0.10615227 119.71863782 -0.10290974 C124.54034786 -0.1011056 129.36195097 -0.10364377 134.18364334 -0.11762428 C138.73253742 -0.13031745 143.28120042 -0.12815141 147.83009148 -0.11521339 C149.4875325 -0.11287123 151.14499034 -0.11549602 152.80241203 -0.12383652 C178.51730387 -0.24375688 202.67101018 6.19249397 221.47348022 24.52241516 C222.83473022 25.87786438 222.83473022 25.87786438 224.22348022 27.26069641 C224.96598022 27.96839172 225.70848022 28.67608704 226.47348022 29.40522766 C241.21467146 44.46312418 244.85967291 65.07880925 244.69442749 85.31929016 C244.19471265 104.23687683 238.53911921 120.98158317 225.01644897 134.61616516 C214.83057033 144.26069641 214.83057033 144.26069641 211.22348022 144.26069641 C211.22348022 144.92069641 211.22348022 145.58069641 211.22348022 146.26069641 C212.31596069 146.44438782 212.31596069 146.44438782 213.43051147 146.63179016 C226.907096 149.66637773 240.14754779 161.50782828 247.41098022 172.94819641 C260.76130012 196.78287079 261.9624765 227.30356465 254.63754272 253.34370422 C248.46600021 273.63931701 235.62330066 289.85042751 217.06478882 300.28804016 C189.24018774 314.98615879 158.19339378 314.72219893 127.63019586 314.63074136 C122.89999443 314.6192882 118.16980179 314.62354402 113.43959045 314.62548828 C105.52303475 314.62636529 97.60656568 314.6154025 89.69003296 314.59687805 C80.53567936 314.57558006 71.38145118 314.57223342 62.22707778 314.57844001 C53.39091799 314.58412355 44.55480233 314.57850893 35.71864891 314.56726646 C31.96628186 314.5626212 28.2139418 314.56174611 24.46157265 314.56385231 C20.06105621 314.56572934 15.6606685 314.55767688 11.26018143 314.54179192 C9.64361415 314.53753686 8.02703383 314.53670667 6.41046333 314.53948212 C4.21166542 314.54268601 2.01325675 314.5336691 -0.1855011 314.52139282 C-1.41739512 314.51933995 -2.64928915 314.51728708 -3.9185133 314.515172 C-6.77651978 314.26069641 -6.77651978 314.26069641 -8.77651978 312.26069641 C-9.0272181 310.02687168 -9.0272181 310.02687168 -9.02820206 307.17880249 C-9.03341755 306.09620116 -9.03863305 305.01359983 -9.04400659 303.89819241 C-9.03954514 302.69918836 -9.0350837 301.50018431 -9.03048706 300.2648468 C-9.03360704 298.99864785 -9.03672702 297.7324489 -9.03994155 296.42788029 C-9.04832638 292.90173664 -9.04414767 289.3757006 -9.03796911 285.84955645 C-9.03346062 282.0512826 -9.04042038 278.2530278 -9.04592896 274.45475769 C-9.05484181 267.0093782 -9.05289255 259.56403893 -9.04710367 252.11865783 C-9.04259461 246.0699008 -9.041971 240.02115508 -9.04415131 233.97239685 C-9.04445777 233.11288329 -9.04476424 232.25336973 -9.04507999 231.36781031 C-9.04571941 229.62195484 -9.04636784 227.87609936 -9.04702517 226.1302439 C-9.05273401 209.74316839 -9.04616191 193.35611522 -9.03542444 176.96904337 C-9.02648843 162.89535142 -9.02804031 148.82169246 -9.03726196 134.7480011 C-9.04795484 118.42124481 -9.05218464 102.09450813 -9.04603744 85.76774883 C-9.04540031 84.02816455 -9.04477157 82.28858026 -9.04415131 80.54899597 C-9.04384276 79.69299319 -9.0435342 78.83699041 -9.0432163 77.95504814 C-9.04148641 71.91061469 -9.04441079 65.86619362 -9.04911041 59.82176208 C-9.05470835 52.45983803 -9.0532258 45.09795664 -9.04254892 37.73603749 C-9.03727749 33.97685728 -9.03526035 30.21774832 -9.04184723 26.45856857 C-9.04886662 22.39116515 -9.04050934 18.32394306 -9.03048706 14.25654602 C-9.0349485 13.05754197 -9.03940995 11.85853792 -9.04400659 10.62320042 C-9.03879109 9.54059909 -9.0335756 8.45799776 -9.02820206 7.34259033 C-9.02787735 6.4027275 -9.02755265 5.46286467 -9.0272181 4.49452114 C-8.42799866 -0.8447694 -4.38380067 0.00709794 0 0 Z M45.12425232 47.8535614 C43.91335359 51.08944841 43.8418753 53.78537757 43.83529663 57.24482727 C43.83003967 57.93963699 43.82478271 58.63444672 43.81936646 59.35031128 C43.80618566 61.64228438 43.81489818 63.93356024 43.82504272 66.22554016 C43.82302119 67.82210422 43.8201091 69.41866737 43.81634521 71.01522827 C43.81192429 74.36007994 43.81834446 77.70469109 43.83236694 81.04951477 C43.84944502 85.33133346 43.83962522 89.61258743 43.82164955 93.89438534 C43.81079352 97.19128653 43.8142666 100.48805452 43.82203293 103.78495979 C43.82403063 105.36337412 43.82159076 106.94180064 43.81459427 108.52020073 C43.80695115 110.72951513 43.81862343 112.93792384 43.83529663 115.14717102 C43.83768341 116.40307541 43.84007019 117.6589798 43.8425293 118.95294189 C44.27810176 122.73496917 44.51963252 124.53859863 47.22348022 127.26069641 C50.43784786 128.00972287 53.60165851 127.92232628 56.88876343 127.87593079 C58.37724541 127.8842543 58.37724541 127.8842543 59.89579773 127.89274597 C63.18910484 127.9045908 66.48104961 127.88019859 69.77426147 127.85444641 C72.06814003 127.85273508 74.36202054 127.85280122 76.65589905 127.85456848 C81.47557169 127.85291195 86.29478112 127.83416681 91.11434937 127.8026886 C97.25951307 127.76325569 103.40406279 127.758613 109.5493288 127.76615143 C114.29463717 127.76924055 119.03981043 127.75702791 123.78508568 127.74002075 C126.04824155 127.7330369 128.31141275 127.72986055 130.57457924 127.73071289 C157.75481245 127.75548619 157.75481245 127.75548619 181.16098022 115.01069641 C190.73199623 104.48023871 190.91059387 92.07975374 190.40707397 78.633255 C190.02580981 73.70622687 188.5611826 69.57348726 186.22348022 65.26069641 C185.88445679 64.61229797 185.54543335 63.96389954 185.19613647 63.29585266 C179.54647055 54.10760595 169.26029025 49.81103338 159.22348022 47.26069641 C153.75838848 46.10688197 148.41838382 46.0991857 142.85946655 46.08369446 C141.31456291 46.07383766 141.31456291 46.07383766 139.7384491 46.06378174 C136.34413576 46.04413331 132.9498663 46.03241037 129.55551147 46.02241516 C128.39530676 46.01833963 127.23510204 46.01426411 126.03973961 46.01006508 C119.9090124 45.98924917 113.77830734 45.97492321 107.64755249 45.9655304 C101.30522928 45.954423 94.96325277 45.9199606 88.62105274 45.8803587 C83.74928613 45.85428761 78.87760379 45.84584747 74.00577354 45.84224892 C71.66650719 45.83736512 69.32724503 45.82570061 66.98804665 45.80721092 C63.72484815 45.78300282 60.46257007 45.78375002 57.1993103 45.79072571 C56.22834412 45.77791565 55.25737793 45.76510559 54.25698853 45.75190735 C49.34198737 45.68565986 49.34198737 45.68565986 45.12425232 47.8535614 Z M43.22348022 175.26069641 C41.53618254 178.94684955 42.07585149 183.37097089 42.07821655 187.36225891 C42.07485794 188.17571777 42.07149933 188.98917664 42.06803894 189.82728577 C42.05854791 192.51343822 42.05658693 195.19952824 42.05551147 197.88569641 C42.05229823 199.75369798 42.0489341 201.62169929 42.04542542 203.48970032 C42.03943922 207.403606 42.03758506 211.3174896 42.03817749 215.23139954 C42.03827923 220.24855777 42.02461304 225.26557484 42.00740528 230.28269958 C41.9962935 234.13969067 41.99425801 237.9966475 41.99478722 241.85365295 C41.9936064 243.7036335 41.98917893 245.55361491 41.98145485 247.40357971 C41.97166913 249.98886557 41.97452708 252.5738432 41.9805603 255.15913391 C41.9749408 255.92393066 41.96932129 256.68872742 41.96353149 257.47669983 C41.98560329 261.19440603 42.01826288 264.16860774 44.22348022 267.26069641 C46.57736959 268.43764109 47.98362388 268.3914191 50.60827637 268.40113831 C51.53028839 268.40684845 52.45230042 268.41255859 53.4022522 268.41844177 C54.41720764 268.41955963 55.43216309 268.42067749 56.47787476 268.42182922 C57.54486603 268.42679413 58.6118573 268.43175903 59.71118164 268.43687439 C63.25955849 268.45153684 66.80789048 268.45830876 70.35629272 268.46382141 C72.82617189 268.46957445 75.29605104 268.47533216 77.76593018 268.48109436 C82.95962736 268.4916193 88.15330902 268.49745056 93.34701538 268.50093079 C99.96610572 268.50560113 106.5850086 268.5303392 113.20404243 268.55890274 C118.31567963 268.57764507 123.42726798 268.58274111 128.53893661 268.58426666 C130.97629805 268.5872733 133.41365904 268.59523366 135.85098648 268.60845184 C156.91609316 268.71443128 179.2619946 268.51814039 195.93832397 253.74116516 C205.84173012 243.3841679 206.62333228 229.53766699 206.43441772 216.03804016 C206.08978165 205.2117873 202.94130769 195.63719517 195.62973022 187.48335266 C181.72780768 174.59784427 160.43062296 173.10683199 142.42123413 173.11543274 C140.87786377 173.11039482 140.87786377 173.11039482 139.30331421 173.10525513 C135.93554447 173.09583066 132.56782479 173.09380703 129.20004272 173.09272766 C126.84737122 173.08951166 124.4946999 173.08614733 122.14202881 173.0826416 C117.22825659 173.07667348 112.31450191 173.07479957 107.40072632 173.07539368 C101.09908333 173.07549574 94.79755189 173.06178735 88.49593544 173.04462147 C83.6455839 173.03352209 78.79525964 173.03147375 73.9448967 173.0320034 C71.6204324 173.03082234 69.29596742 173.0263935 66.97151566 173.01867104 C63.73071587 173.00890299 60.49016266 173.01173548 57.24935913 173.01777649 C55.80772903 173.00934723 55.80772903 173.00934723 54.3369751 173.00074768 C53.45402771 173.00494217 52.57108032 173.00913666 51.66137695 173.01345825 C50.89637186 173.01291348 50.13136677 173.01236872 49.3431797 173.01180744 C46.91126263 173.2973561 45.30349417 173.98405603 43.22348022 175.26069641 Z " fill="#00447F" transform="translate(8.776519775390625,44.73930358886719)"/>
<path d="M0 0 C0.88429688 -0.02578125 1.76859375 -0.0515625 2.6796875 -0.078125 C5.73848522 0.3323207 6.17002044 0.89561926 8.125 3.25 C9.42319366 5.48210565 10.64349794 7.70534923 11.828125 9.99609375 C12.18239563 10.66995621 12.53666626 11.34381866 12.90167236 12.0381012 C14.06439966 14.25201014 15.21956584 16.46977745 16.375 18.6875 C17.60045952 21.02427947 18.82792493 23.35999846 20.05541992 25.69570923 C20.88565721 27.27591529 21.71524315 28.85646374 22.54418945 30.43734741 C26.19517097 37.39804902 29.90157978 44.32774946 33.625 51.25 C39.55176538 62.2856882 45.42165651 73.35055102 51.27471924 84.42544556 C57.09483307 95.43671894 62.96173082 106.4216996 68.85668945 117.39306641 C73.23089352 125.54716295 77.52065372 133.74228324 81.78100586 141.95629883 C85.60542431 149.3076881 89.5642117 156.57946351 93.55541992 163.84130859 C97.91865571 171.80809384 102.10065365 179.86322529 106.26928711 187.93310547 C109.8021472 194.75434435 113.42267094 201.51938068 117.125 208.25 C121.9792057 217.07466419 126.64729935 225.98556763 131.26953125 234.93359375 C134.80232353 241.75466525 138.42282814 248.51950043 142.125 255.25 C147.06091146 264.2252033 151.83025905 273.2789787 156.5222168 282.3840332 C158.87055515 286.93763662 161.22679468 291.47832512 163.72265625 295.953125 C164.10260742 296.63898682 164.48255859 297.32484863 164.87402344 298.03149414 C165.84993864 299.78056898 166.84028909 301.5215691 167.83203125 303.26171875 C169.25571921 306.55211539 169.54614208 308.70327329 169.125 312.25 C166.52671881 314.84828119 165.43912618 314.51233163 161.82080078 314.54052734 C160.7127005 314.55328705 159.60460022 314.56604675 158.46292114 314.57919312 C157.26086029 314.58141876 156.05879944 314.58364441 154.8203125 314.5859375 C153.58965057 314.5925943 152.35898865 314.5992511 151.09103394 314.60610962 C148.48339334 314.61625126 145.87572671 314.62092617 143.26806641 314.62060547 C140.59266178 314.62044272 137.9179403 314.6343508 135.24267578 314.66162109 C131.39334053 314.69819097 127.54480391 314.70807533 123.6953125 314.7109375 C121.89829391 314.73249405 121.89829391 314.73249405 120.06497192 314.75448608 C118.95056732 314.74833282 117.83616272 314.74217957 116.68798828 314.73583984 C115.70806915 314.73868988 114.72815002 314.74153992 113.71853638 314.74447632 C110.35598823 314.10338239 109.25423456 312.88221435 107.125 310.25 C105.91403198 308.34031677 105.91403198 308.34031677 104.90185547 306.33374023 C104.51399872 305.57451767 104.12614197 304.8152951 103.72653198 304.0330658 C103.11553146 302.80820213 103.11553146 302.80820213 102.4921875 301.55859375 C102.05544708 300.6992775 101.61870667 299.83996124 101.16873169 298.9546051 C99.77180086 296.20255535 98.38554189 293.44529841 97 290.6875 C95.18746353 287.10156284 93.37091775 283.51766112 91.5546875 279.93359375 C91.10402924 279.04237823 90.65337097 278.15116272 90.1890564 277.23294067 C86.34849631 269.65128391 82.40192106 262.12849853 78.42919922 254.61547852 C75.16017089 248.43227404 71.95530642 242.21643208 68.75 236 C67.45241332 233.48667397 66.15408211 230.97373318 64.85546875 228.4609375 C64.53697464 227.84461456 64.21848053 227.22829163 63.89033508 226.59329224 C60.96212475 220.92965536 58.01530846 215.2758414 55.0625 209.625 C50.73404458 201.34155886 46.42431251 193.04860484 42.125 184.75 C37.32553841 175.48636463 32.51166298 166.23047485 27.67944336 156.98388672 C24.92271532 151.70571064 22.17650547 146.42222744 19.44140625 141.1328125 C19.12867767 140.5283429 18.8159491 139.92387329 18.4937439 139.30108643 C16.97139931 136.35846707 15.45034723 133.41520325 13.93164062 130.47070312 C12.84015133 128.36015164 11.74233255 126.25285744 10.63720703 124.14941406 C9.6612514 122.27817592 8.70731476 120.39520935 7.78076172 118.49902344 C7.16031982 117.2736084 7.16031982 117.2736084 6.52734375 116.0234375 C6.18050537 115.31364746 5.83366699 114.60385742 5.47631836 113.87255859 C4.17378691 112.05141016 4.17378691 112.05141016 1.72485352 111.26416016 C-0.93956529 110.9976385 -0.93956529 110.9976385 -2.92529297 112.69897461 C-5.42621901 115.97122307 -7.23620891 119.38835826 -9.0703125 123.06640625 C-9.45912598 123.83023117 -9.84793945 124.59405609 -10.24853516 125.38102722 C-11.50601804 127.85470677 -12.75290198 130.33357138 -14 132.8125 C-14.86873478 134.52486797 -15.73836652 136.23678118 -16.60888672 137.94824219 C-17.89234035 140.47174852 -19.17530996 142.99548303 -20.45535278 145.52072144 C-23.25363954 151.04081456 -26.09196684 156.53679948 -29 162 C-33.5340834 170.54437744 -37.95216196 179.14771313 -42.375 187.75 C-47.25271957 197.23632357 -52.14400988 206.71332501 -57.13330078 216.14160156 C-60.88301591 223.23820888 -64.56689764 230.36867706 -68.25 237.5 C-73.24469829 247.17071185 -78.25286887 256.83400885 -83.30273438 266.47607422 C-85.80215454 271.25432814 -88.28462598 276.04055491 -90.73895264 280.84210205 C-92.07776761 283.46116851 -93.42031898 286.07831416 -94.76269531 288.69555664 C-95.41021253 289.96096924 -96.05578948 291.22737695 -96.69921875 292.49487305 C-105.54688775 309.92188775 -105.54688775 309.92188775 -109.875 314.25 C-111.65491924 314.34370624 -113.43856739 314.36744271 -115.22094727 314.36352539 C-116.3620546 314.36344986 -117.50316193 314.36337433 -118.67884827 314.36329651 C-119.9204924 314.35813522 -121.16213654 314.35297394 -122.44140625 314.34765625 C-124.33704567 314.34553383 -124.33704567 314.34553383 -126.27098083 314.34336853 C-129.63624889 314.33870582 -133.0014499 314.3297148 -136.36669922 314.31866455 C-139.7984967 314.30844846 -143.23030109 314.30387049 -146.66210938 314.29882812 C-153.39975824 314.2877738 -160.13737525 314.2710171 -166.875 314.25 C-168.89447021 310.53952026 -168.89447021 310.53952026 -168.71923828 307.93383789 C-167.64223346 304.51003395 -166.07049898 301.45102254 -164.3671875 298.30859375 C-163.83153671 297.30204491 -163.83153671 297.30204491 -163.2850647 296.27516174 C-162.11279845 294.0759605 -160.93145926 291.88177416 -159.75 289.6875 C-158.92585836 288.1454889 -158.10229741 286.60316731 -157.27929688 285.06054688 C-155.20386002 281.17400485 -153.12110672 277.29144386 -151.03552246 273.41033936 C-149.34637672 270.26595557 -147.66151844 267.11928725 -145.9765625 263.97265625 C-144.17142772 260.60247254 -142.36567656 257.2326294 -140.55761719 253.86401367 C-135.67311442 244.75949166 -130.8304909 235.63326488 -126 226.5 C-125.43422745 225.4303299 -125.43422745 225.4303299 -124.85702515 224.33905029 C-123.33164376 221.45504659 -121.8062884 218.57102912 -120.2809906 215.6869812 C-116.25685936 208.07925383 -112.22450514 200.47590298 -108.1875 192.875 C-107.83527374 192.21179749 -107.48304749 191.54859497 -107.12014771 190.86529541 C-101.64161856 180.55230747 -96.13090448 170.25693028 -90.60864258 159.96728516 C-85.2751081 150.01912357 -79.99448892 140.04333363 -74.71951294 130.06402588 C-69.03538145 119.31206918 -63.31206029 108.58224561 -57.55859375 97.8671875 C-52.62985216 88.67942718 -47.74761612 79.46761346 -42.875 70.25 C-34.92883692 55.22084205 -26.93156399 40.22033739 -18.875 25.25 C-18.25093262 24.08968262 -17.62686523 22.92936523 -16.98388672 21.73388672 C-15.15834358 18.34211323 -13.32983958 14.95195719 -11.5 11.5625 C-10.94594482 10.53366699 -10.39188965 9.50483398 -9.82104492 8.44482422 C-9.31549072 7.51041504 -8.80993652 6.57600586 -8.2890625 5.61328125 C-7.8451416 4.79126221 -7.4012207 3.96924316 -6.94384766 3.12231445 C-5.02728089 -0.23496068 -3.80544932 0.06618173 0 0 Z " fill="#00447F" transform="translate(1030.875,-0.25)"/>
<path d="M0 0 C7.36261724 -0.11591817 14.72503734 -0.20472648 22.08838272 -0.25906086 C25.50765493 -0.28514091 28.92630228 -0.3205065 32.34521484 -0.37719727 C36.27694178 -0.44198227 40.20841689 -0.4661939 44.140625 -0.48828125 C45.36678528 -0.51408768 46.59294556 -0.5398941 47.85626221 -0.56648254 C48.99714294 -0.5668602 50.13802368 -0.56723785 51.31347656 -0.56762695 C52.31719299 -0.57873001 53.32090942 -0.58983307 54.3550415 -0.60127258 C58.00343865 0.2281095 58.97973293 1.93878785 61 5 C62.20812201 7.13685729 63.3605633 9.30574216 64.46875 11.49609375 C64.7855069 12.11712479 65.10226379 12.73815582 65.42861938 13.37800598 C66.10566264 14.70617139 66.78029349 16.03556888 67.45269775 17.36608887 C69.23433745 20.88991239 71.03512637 24.40391364 72.8359375 27.91796875 C73.1942868 28.61793976 73.55263611 29.31791077 73.92184448 30.03909302 C76.89407606 35.82938119 79.97707758 41.55327241 83.125 47.25 C87.5493311 55.26721902 91.80655306 63.35967875 96 71.5 C100.21481769 79.68153601 104.49438498 87.8151175 108.9375 95.875 C113.94536646 104.96185446 118.7263871 114.15645103 123.46798706 123.38372803 C127.54478091 131.3125527 131.69372746 139.19264539 136 147 C141.40304916 156.79631187 146.55530009 166.71312962 151.66210938 176.66601562 C152.84501613 178.96875794 154.03257265 181.2691185 155.22509766 183.56689453 C156.45530618 185.9464258 157.66706104 188.33046984 158.86474609 190.72607422 C159.47572553 191.92050915 160.08719912 193.11469147 160.69921875 194.30859375 C161.23764404 195.37779053 161.77606934 196.4469873 162.33081055 197.54858398 C163.76340123 200.07995769 163.76340123 200.07995769 165.95629883 200.98071289 C168.64424207 201.00607993 169.80662982 200.57688796 172 199 C173.72142987 196.55386622 173.72142987 196.55386622 175.21484375 193.55859375 C176.11046021 191.86597412 176.11046021 191.86597412 177.02416992 190.13916016 C177.66216691 188.90538733 178.29993791 187.67149762 178.9375 186.4375 C179.60488079 185.16663201 180.27326974 183.89629298 180.94262695 182.62646484 C182.97679663 178.75873537 184.98956697 174.88010534 187 171 C188.15096665 168.78511726 189.30200394 166.57027124 190.453125 164.35546875 C192.06995418 161.24244402 193.68553106 158.12880735 195.296875 155.01293945 C199.22661652 147.42976637 203.29309944 139.93005328 207.41088867 132.44775391 C212.01534203 124.04683115 216.40389619 115.5393291 220.79101562 107.0234375 C224.41588279 100.00499282 228.12407024 93.04262326 231.9375 86.125 C236.60443456 77.65677196 241.08097851 69.09914677 245.5 60.5 C250.41690071 50.93241409 255.43555882 41.43266551 260.62817383 32.01098633 C264.96592538 24.12181605 269.13004263 16.14642854 273.2565918 8.14501953 C273.73265869 7.22446777 274.20872559 6.30391602 274.69921875 5.35546875 C275.12033936 4.53715576 275.54145996 3.71884277 275.9753418 2.87573242 C277 1 277 1 278 0 C279.76900035 -0.10416793 281.54215708 -0.1385382 283.31420898 -0.14526367 C284.44886093 -0.15164352 285.58351288 -0.15802338 286.75254822 -0.16459656 C287.98791824 -0.16570938 289.22328827 -0.1668222 290.49609375 -0.16796875 C292.38461815 -0.17296135 292.38461815 -0.17296135 294.31129456 -0.17805481 C296.98043335 -0.18312943 299.64947041 -0.18589414 302.31860352 -0.18530273 C305.74312715 -0.1852011 309.16744351 -0.19885201 312.59191799 -0.21607494 C315.85163564 -0.22985116 319.11135092 -0.22928326 322.37109375 -0.23046875 C323.60443954 -0.23765427 324.83778534 -0.24483978 326.10850525 -0.25224304 C327.81521141 -0.2476281 327.81521141 -0.2476281 329.55639648 -0.24291992 C330.56153793 -0.24434494 331.56667938 -0.24576996 332.60227966 -0.24723816 C335 0 335 0 337 2 C336.6486737 6.14961911 334.94889941 9.4031496 333.04296875 13.05859375 C332.74416306 13.6352327 332.44535736 14.21187164 332.13749695 14.8059845 C331.16053751 16.68655637 330.17430452 18.56207809 329.1875 20.4375 C328.50180237 21.75146404 327.8164215 23.06559343 327.13134766 24.37988281 C322.65954643 32.93756378 318.07915553 41.43281987 313.4206543 49.89038086 C309.67498285 56.70701424 306.06934836 63.58960629 302.5 70.5 C297.95568349 79.29727879 293.29168068 88.01591561 288.51953125 96.69140625 C284.74512194 103.57648361 281.10348364 110.524135 277.5 117.5 C272.95564789 126.2972612 268.29168125 135.01591457 263.51953125 143.69140625 C259.74512194 150.57648361 256.10348364 157.524135 252.5 164.5 C247.95564789 173.2972612 243.29168125 182.01591457 238.51953125 190.69140625 C234.74512194 197.57648361 231.10348364 204.524135 227.5 211.5 C222.95564789 220.2972612 218.29168125 229.01591457 213.51953125 237.69140625 C209.74512127 244.57648482 206.10352606 251.52415585 202.5 258.5 C197.89085133 267.42150912 193.16996948 276.27071117 188.33056641 285.06933594 C184.4925015 292.05720788 180.7673132 299.09944369 177.12036133 306.18896484 C176.73775146 306.9258252 176.3551416 307.66268555 175.9609375 308.421875 C175.46279541 309.39012207 175.46279541 309.39012207 174.95458984 310.37792969 C174 312 174 312 172 314 C167.03314976 314.91058921 167.03314976 314.91058921 164 314 C158.4115203 308.05550803 155.02469842 299.51713961 151.375 292.3125 C150.13779101 289.89263741 148.89568787 287.47530894 147.65234375 285.05859375 C147.34299393 284.4566217 147.0336441 283.85464966 146.71492004 283.23443604 C143.87869254 277.73119509 140.9264339 272.29638011 137.9375 266.875 C133.67834711 259.13978307 129.55249508 251.34543821 125.5 243.5 C121.42607314 235.61338072 117.27828982 227.77768255 113 220 C108.1457943 211.17533581 103.47770065 202.26443237 98.85546875 193.31640625 C95.32267761 186.49533696 91.70224126 179.73045971 88 173 C83.1457943 164.17533581 78.47770065 155.26443237 73.85546875 146.31640625 C70.32267761 139.49533696 66.70224126 132.73045971 63 126 C58.1457943 117.17533581 53.47770065 108.26443237 48.85546875 99.31640625 C45.32267761 92.49533696 41.70224126 85.73045971 38 79 C33.72170885 71.22231504 29.57400679 63.38658 25.5 55.5 C21.34022846 47.44866906 17.10532126 39.44731002 12.75 31.5 C12.26128418 30.6042627 11.77256836 29.70852539 11.26904297 28.78564453 C8.93189794 24.50599878 6.57454028 20.23982057 4.1796875 15.9921875 C3.32778728 14.45331191 2.47620646 12.91425944 1.625 11.375 C1.22506836 10.68212891 0.82513672 9.98925781 0.41308594 9.27539062 C-0.6484375 7.3359375 -0.6484375 7.3359375 -2 4 C-1.08447266 1.79150391 -1.08447266 1.79150391 0 0 Z " fill="#00447F" transform="translate(588,45)"/>
</svg>
