<?xml version="1.0" encoding="UTF-8"?>
<svg version="1.1" xmlns="http://www.w3.org/2000/svg" width="500" height="240">
<path d="M0 0 C165 0 330 0 500 0 C500 79.2 500 158.4 500 240 C335 240 170 240 0 240 C0 160.8 0 81.6 0 0 Z " fill="#FDFEFE" transform="translate(0,0)"/>
<path d="M0 0 C1.28248627 -0.00953201 2.56497253 -0.01906403 3.88632202 -0.02888489 C5.29612251 -0.02862322 6.70592301 -0.027685 8.11572266 -0.02612305 C9.56385419 -0.03001202 11.01198459 -0.03434711 12.46011353 -0.03910828 C15.50502196 -0.0465838 18.54981455 -0.04627299 21.59472656 -0.04101562 C25.46561922 -0.03526797 29.33602603 -0.05202983 33.20683861 -0.0753603 C36.20462749 -0.09023056 39.20230359 -0.09095065 42.20012283 -0.08785057 C43.62483291 -0.08835877 45.04955016 -0.09350063 46.47422409 -0.10366249 C60.14898583 -0.18910743 73.46999387 1.18985825 83.78759766 11.0793457 C90.76416069 18.93219202 91.28001851 26.81956421 91.18603516 37.05200195 C90.4091598 45.95369873 85.20300741 52.30792133 78.90478516 58.2746582 C80.17322266 58.5530957 80.17322266 58.5530957 81.46728516 58.8371582 C87.47869343 61.35101984 92.1101055 66.39112208 94.90478516 72.2746582 C99.34430008 83.25661617 97.37172087 95.63284077 92.90478516 106.2746582 C88.43110481 114.9289157 81.18091088 118.53084589 72.2477932 121.56516457 C64.37643346 124.01442724 56.67654452 123.92388967 48.50634766 123.7980957 C46.89351121 123.79128578 45.28066468 123.78657598 43.66781616 123.78384399 C39.47584313 123.77059158 35.28474803 123.72651128 31.09307861 123.67626953 C27.65000552 123.6405246 24.20701432 123.6277289 20.76378822 123.61585045 C16.65708759 123.60112186 12.55047807 123.57591971 8.44384766 123.5480957 C7.66091969 123.54318493 6.87799171 123.53827415 6.07133865 123.53321457 C3.87460422 123.51702487 1.67808159 123.4936359 -0.51855469 123.4675293 C-1.76792816 123.45466888 -3.01730164 123.44180847 -4.30453491 123.42855835 C-7.09521484 123.2746582 -7.09521484 123.2746582 -8.09521484 122.2746582 C-8.19543046 120.72309888 -8.22597143 119.16698749 -8.22892761 117.61219788 C-8.2331926 116.60401505 -8.23745758 115.59583221 -8.24185181 114.55709839 C-8.24139862 113.44174713 -8.24094543 112.32639587 -8.24047852 111.17724609 C-8.24383713 110.00988419 -8.24719574 108.84252228 -8.25065613 107.63978577 C-8.25855162 104.42905923 -8.26183506 101.21837141 -8.26247191 98.00763631 C-8.26341945 95.33107324 -8.26709596 92.65451643 -8.27064401 89.97795576 C-8.278796 83.6651509 -8.28122757 77.3523603 -8.28051758 71.03955078 C-8.27991662 64.51903579 -8.29047035 57.99860348 -8.30626124 51.47810942 C-8.31931984 45.88744213 -8.32470218 40.29680191 -8.32406217 34.70611948 C-8.32380668 31.36373806 -8.32668571 28.02143008 -8.33724022 24.6790638 C-8.34698296 20.95312669 -8.34418475 17.22740505 -8.33813477 13.50146484 C-8.34375427 12.38813782 -8.34937378 11.27481079 -8.35516357 10.12774658 C-8.35096909 9.11674393 -8.3467746 8.10574127 -8.342453 7.06410217 C-8.34299777 6.18232331 -8.34354254 5.30054445 -8.34410381 4.39204502 C-7.75692651 -0.60328075 -4.13228873 0.01682124 0 0 Z " fill="#054683" transform="translate(23.09521484375,66.725341796875)"/>
<path d="M0 0 C1.29935486 -0.01283524 2.59870972 -0.02567047 3.93743896 -0.03889465 C5.37137469 -0.04706959 6.80531475 -0.05451186 8.23925781 -0.0612793 C9.32231579 -0.06739259 9.32231579 -0.06739259 10.42725372 -0.07362938 C14.26123267 -0.09453602 18.09517552 -0.10880829 21.92919922 -0.11816406 C25.85950774 -0.1291378 29.78923573 -0.16341692 33.71934128 -0.20333576 C36.76347774 -0.22972868 39.80748196 -0.23787655 42.85172272 -0.24144554 C44.29796444 -0.24626655 45.74420209 -0.2577496 47.19033051 -0.27648354 C60.46036176 -0.43746975 73.47214882 1.47678924 83.61816406 10.70043945 C89.36167648 16.77174538 92.12206428 23.85939741 92.44238281 32.17700195 C92.07338355 41.4614995 88.68919536 47.97200817 82.52832031 54.77856445 C80.94238281 56.17700195 80.94238281 56.17700195 78.94238281 56.17700195 C78.94238281 56.83700195 78.94238281 57.49700195 78.94238281 58.17700195 C79.82925781 58.42450195 80.71613281 58.67200195 81.62988281 58.92700195 C89.19453913 61.78158924 92.3042691 67.28070412 95.94238281 74.17700195 C98.96524848 83.24559895 98.1030879 96.2444069 94.25878906 104.8840332 C89.02667159 113.99754346 82.18560895 117.9067379 72.50488281 121.42700195 C62.7612196 123.47829947 52.81714108 123.32662412 42.90332031 123.30981445 C41.48654158 123.31048961 40.06976296 123.3114614 38.65298462 123.31271362 C35.70988848 123.31417582 32.76682301 123.31208086 29.82373047 123.30737305 C26.04521999 123.30162376 22.26677974 123.30499652 18.48827171 123.31094551 C15.57503726 123.31454658 12.66181969 123.31341556 9.74858475 123.31081772 C8.35386776 123.31014989 6.95914926 123.31097185 5.56443405 123.31329727 C3.62840553 123.31582191 1.69237162 123.31129528 -0.24365234 123.30639648 C-1.89598373 123.30520309 -1.89598373 123.30520309 -3.58169556 123.3039856 C-6.05761719 123.17700195 -6.05761719 123.17700195 -7.05761719 122.17700195 C-7.15569743 120.61044736 -7.18393596 119.03947043 -7.18460083 117.46984863 C-7.18742065 116.45180649 -7.19024048 115.43376434 -7.19314575 114.38487244 C-7.19112152 113.2585994 -7.18909729 112.13232635 -7.18701172 110.97192383 C-7.18876404 109.79320206 -7.19051636 108.61448029 -7.19232178 107.40003967 C-7.19597986 104.15838588 -7.19510692 100.91677262 -7.19194269 97.6751194 C-7.18941863 94.28963762 -7.19175676 90.90415864 -7.19332886 87.51867676 C-7.19515042 81.83235179 -7.1927446 76.1460398 -7.18798828 70.4597168 C-7.18254568 63.87672178 -7.18430835 57.29375772 -7.18981469 50.71076345 C-7.1943462 45.06830883 -7.19499618 39.42586355 -7.19237602 33.78340769 C-7.19081345 30.40922443 -7.19061891 27.03505575 -7.19391251 23.66087341 C-7.19643731 19.90125399 -7.19260086 16.14169497 -7.18701172 12.38208008 C-7.18903595 11.25580704 -7.19106018 10.129534 -7.19314575 8.96913147 C-7.19032593 7.95108932 -7.1875061 6.93304718 -7.18460083 5.88415527 C-7.1842238 4.99408028 -7.18384678 4.10400528 -7.18345833 3.18695831 C-6.9137705 -1.12054212 -3.60784223 0.0309156 0 0 Z " fill="#034582" transform="translate(147.0576171875,66.822998046875)"/>
<path d="M0 0 C3.56139065 -0.23303424 7.12082446 -0.37461781 10.6875 -0.5 C12.19860352 -0.60054688 12.19860352 -0.60054688 13.74023438 -0.703125 C20.9323651 -0.89301624 20.9323651 -0.89301624 23.55688477 1.30224609 C24.95508493 3.4573819 25.95772639 5.65042792 27 8 C27.86402088 9.65575666 28.72870557 11.31119409 29.60334778 12.96136475 C30.9375108 15.4933468 32.23236192 18.04475208 33.52978516 20.59570312 C40.04448768 33.39717059 46.773403 46.06228676 53.70556641 58.64306641 C55.72111689 62.31302574 57.71001375 65.99691669 59.6875 69.6875 C60.31011719 70.84636719 60.93273437 72.00523437 61.57421875 73.19921875 C63 76 63 76 64 79 C65.485 79.495 65.485 79.495 67 80 C67.25201172 79.3292041 67.50402344 78.6584082 67.76367188 77.96728516 C69.25495583 74.38808587 71.00051118 70.96413219 72.78125 67.5234375 C73.15092392 66.80492111 73.52059784 66.08640472 73.901474 65.34611511 C75.098577 63.02116092 76.29909613 60.69799292 77.5 58.375 C78.32697594 56.77209099 79.15388001 55.16914491 79.98071289 53.56616211 C87.53715904 38.92616016 95.14410833 24.32328653 103.0625 9.875 C103.54066162 9.00174072 104.01882324 8.12848145 104.51147461 7.22875977 C104.95241455 6.42881592 105.39335449 5.62887207 105.84765625 4.8046875 C106.4355896 3.73710205 106.4355896 3.73710205 107.03540039 2.64794922 C108 1 108 1 109 0 C110.63472882 -0.08700342 112.27314055 -0.10701063 113.91015625 -0.09765625 C114.89951172 -0.09443359 115.88886719 -0.09121094 116.90820312 -0.08789062 C117.94912109 -0.07951172 118.99003906 -0.07113281 120.0625 -0.0625 C121.62967773 -0.05573242 121.62967773 -0.05573242 123.22851562 -0.04882812 C125.8190666 -0.03699913 128.40950559 -0.02051689 131 0 C130.55261821 6.24253658 127.59392805 11.09976257 124.6875 16.5 C124.15060547 17.51320313 123.61371094 18.52640625 123.06054688 19.5703125 C118.93856306 27.3236823 114.7293798 35.02988527 110.50268555 42.7265625 C106.914857 49.27383955 103.4352393 55.87154201 100 62.5 C95.65373181 70.88148409 91.2161045 79.20498535 86.65820312 87.47338867 C84.13532224 92.05621004 81.64651182 96.65221723 79.22897339 101.29170227 C77.96814203 103.71074199 76.69789799 106.12479243 75.42767334 108.53890991 C74.51536208 110.28312971 73.61716889 112.03471056 72.71923828 113.78637695 C72.16220215 114.84300537 71.60516602 115.89963379 71.03125 116.98828125 C70.29745117 118.40427612 70.29745117 118.40427612 69.54882812 119.84887695 C68 122 68 122 65.81054688 122.81323242 C64.91432617 122.90568237 64.91432617 122.90568237 64 123 C56.06680293 109.25816577 48.70569036 95.21054008 41.28242493 81.18988037 C37.6674834 74.36535858 34.02502876 67.55581802 30.375 60.75 C29.76954346 59.62086182 29.16408691 58.49172363 28.5402832 57.32836914 C27.31819874 55.04971625 26.09594941 52.77115177 24.87353516 50.49267578 C22.91870932 46.84845655 20.9649775 43.20365305 19.01171875 39.55859375 C18.68206619 38.94353973 18.35241364 38.32848572 18.01277161 37.6947937 C16.39531883 34.67662608 14.77903025 31.6578461 13.1652832 28.63769531 C10.5592266 23.76299676 7.94981453 18.89159774 5.28125 14.05078125 C4.89702881 13.34864502 4.51280762 12.64650879 4.11694336 11.9230957 C3.15821917 10.17457279 2.19090832 8.43076487 1.22265625 6.6875 C0 4 0 4 0 0 Z " fill="#044683" transform="translate(246,67)"/>
<path d="M0 0 C0.99 0 1.98 0 3 0 C15.6667537 23.32003417 28.20005617 46.70981217 40.63821411 70.1524353 C46.70144741 81.57798902 52.80827807 92.979292 58.94921875 104.36328125 C59.4498584 105.29221191 59.95049805 106.22114258 60.46630859 107.17822266 C61.54212294 109.15757036 62.62939978 111.13071057 63.72509766 113.09912109 C64.27601074 114.09121582 64.82692383 115.08331055 65.39453125 116.10546875 C65.8944458 116.9977417 66.39436035 117.89001465 66.90942383 118.80932617 C68 121 68 121 68 123 C60.08 123 52.16 123 44 123 C42.98421875 121.01742187 41.9684375 119.03484375 40.921875 116.9921875 C34.22058857 103.93476355 27.48522529 90.91023778 20.39648438 78.05761719 C14.39493693 67.14533854 8.70542706 56.06919515 3 45 C2.01 45 1.02 45 0 45 C-0.39155273 45.76328613 -0.78310547 46.52657227 -1.18652344 47.31298828 C-8.14183813 60.85615943 -15.13055631 74.36672249 -22.48242188 87.70019531 C-28.87978969 99.34790627 -34.92113976 111.18399059 -41 123 C-48.59 123 -56.18 123 -64 123 C-63.17553269 118.05319615 -62.64940661 115.84315446 -60.3671875 111.7109375 C-59.81619385 110.7017627 -59.2652002 109.69258789 -58.69750977 108.65283203 C-58.09608154 107.57114746 -57.49465332 106.48946289 -56.875 105.375 C-55.91879007 103.62817042 -54.96260089 101.88132917 -54.00752258 100.13388062 C-53.00817038 98.3073607 -52.00537598 96.48275795 -51.00244141 94.65820312 C-47.80976281 88.8385882 -44.6898376 82.97989693 -41.5625 77.125 C-40.30131354 74.7679441 -39.03930653 72.41132783 -37.77734375 70.0546875 C-37.46435333 69.46998688 -37.15136292 68.88528625 -36.82888794 68.28286743 C-34.66021185 64.23169352 -32.48885438 60.1819647 -30.31640625 56.1328125 C-29.08585131 53.83858789 -27.85538262 51.54431702 -26.625 49.25 C-26.02091309 48.12360107 -25.41682617 46.99720215 -24.79443359 45.83666992 C-21.2973312 39.30908192 -17.81537408 32.77371674 -14.34765625 26.23046875 C-13.95825867 25.49601532 -13.56886108 24.76156189 -13.16766357 24.00485229 C-11.26210325 20.41030642 -9.35833824 16.81482897 -7.45751953 13.21777344 C-6.76730846 11.91468395 -6.07704426 10.61162261 -5.38671875 9.30859375 C-4.78045654 8.16189209 -4.17419434 7.01519043 -3.54956055 5.83374023 C-2 3 -2 3 0 0 Z " fill="#034582" transform="translate(418,49)"/>
<path d="M0 0 C1.36293434 -0.01925285 1.36293434 -0.01925285 2.75340271 -0.03889465 C3.74493851 -0.04628159 4.7364743 -0.05366852 5.75805664 -0.0612793 C6.77613907 -0.06935104 7.7942215 -0.07742279 8.84315491 -0.08573914 C11.00788662 -0.09960641 13.17264044 -0.11031666 15.33740234 -0.11816406 C18.62323812 -0.13526399 21.9080381 -0.17911281 25.19360352 -0.22338867 C27.29841383 -0.23352526 29.40323271 -0.24203833 31.50805664 -0.2487793 C32.48137436 -0.26628738 33.45469208 -0.28379547 34.45750427 -0.30183411 C42.5769357 -0.27648284 49.42807302 1.4809694 55.79321289 6.67700195 C59.86304181 11.92839411 59.44960106 18.79686943 58.73071289 25.17700195 C57.02554653 29.80006076 54.82090723 32.48728716 50.66821289 35.11450195 C46.59494796 36.58781055 43.22534039 37.30229075 38.88623047 37.30639648 C37.92876419 37.30954865 36.97129791 37.31270081 35.9848175 37.31594849 C34.44557869 37.31291214 34.44557869 37.31291214 32.87524414 37.30981445 C31.2891761 37.31124954 31.2891761 37.31124954 29.67106628 37.31271362 C27.43940166 37.31339352 25.20773504 37.31155249 22.97607422 37.30737305 C19.54593515 37.30200621 16.11592609 37.30733266 12.68579102 37.3137207 C10.5197751 37.3130602 8.35375927 37.31177962 6.18774414 37.30981445 C5.15551224 37.31183868 4.12328033 37.31386292 3.05976868 37.31594849 C2.11175888 37.31279633 1.16374908 37.30964417 0.18701172 37.30639648 C-0.65141769 37.30560089 -1.48984711 37.3048053 -2.35368347 37.3039856 C-4.26928711 37.17700195 -4.26928711 37.17700195 -5.26928711 36.17700195 C-5.37020186 33.59510749 -5.40900209 31.04053695 -5.40209961 28.45825195 C-5.40305634 27.685177 -5.40401306 26.91210205 -5.40499878 26.11560059 C-5.40568052 24.47802652 -5.40382668 22.84044976 -5.3996582 21.20288086 C-5.39430982 18.68768275 -5.39960337 16.17266322 -5.40600586 13.6574707 C-5.40534508 12.07023072 -5.40406391 10.48299086 -5.40209961 8.89575195 C-5.40412384 8.13846802 -5.40614807 7.38118408 -5.40823364 6.60095215 C-5.37869734 0.06597455 -5.37869734 0.06597455 0 0 Z " fill="#FBFCFD" transform="translate(165.269287109375,134.822998046875)"/>
<path d="M0 0 C0.88537445 -0.01283524 1.7707489 -0.02567047 2.68295288 -0.03889465 C3.64947784 -0.04628159 4.61600281 -0.05366852 5.61181641 -0.0612793 C6.60533112 -0.06935104 7.59884583 -0.07742279 8.62246704 -0.08573914 C10.7359237 -0.09960767 12.84940303 -0.11031735 14.96289062 -0.11816406 C18.16532533 -0.13524179 21.36669105 -0.17908615 24.56884766 -0.22338867 C26.62482966 -0.23352728 28.68082045 -0.24203971 30.73681641 -0.2487793 C31.68309906 -0.26628738 32.62938171 -0.28379547 33.6043396 -0.30183411 C40.84233872 -0.27873961 48.92186721 0.79418918 54.59628296 5.69535828 C58.93297565 10.79194269 59.18974142 14.56086828 59.11181641 21.05981445 C58.72513937 25.46793266 57.66527013 28.74670997 54.83837891 32.17700195 C49.77190714 36.295011 44.22844593 37.30731875 37.86450195 37.29052734 C36.90388351 37.29045181 35.94326508 37.29037628 34.95353699 37.29029846 C33.92940201 37.28513718 32.90526703 37.27997589 31.85009766 37.2746582 C30.79176224 37.27324326 29.73342682 37.27182831 28.64302063 37.27037048 C25.27061102 37.26478355 21.89826837 37.25223339 18.52587891 37.23950195 C16.23616633 37.23448527 13.9464527 37.22992265 11.65673828 37.22583008 C6.05059573 37.21481839 0.44449211 37.19809321 -5.16162109 37.17700195 C-5.1862712 32.06836299 -5.20445717 26.95975836 -5.21655273 21.85107422 C-5.22159314 20.11181028 -5.2284254 18.37255059 -5.23706055 16.63330078 C-5.24913901 14.13874259 -5.25485218 11.64424022 -5.25927734 9.1496582 C-5.26443863 8.36736343 -5.26959991 7.58506866 -5.2749176 6.77906799 C-5.27511335 4.91133081 -5.22361804 3.04370991 -5.16162109 1.17700195 C-3.61562186 -0.36899728 -2.15275099 0.02710732 0 0 Z " fill="#FCFCFD" transform="translate(41.16162109375,134.822998046875)"/>
<path d="M0 0 C0.91421722 -0.0033284 1.82843445 -0.0066568 2.77035522 -0.01008606 C4.71229549 -0.01516188 6.65424452 -0.01749418 8.59619141 -0.01733398 C11.55255825 -0.01950672 14.5085437 -0.03761713 17.46484375 -0.05664062 C19.35156123 -0.05957725 21.23828047 -0.06156024 23.125 -0.0625 C24.00443268 -0.06968552 24.88386536 -0.07687103 25.78994751 -0.08427429 C33.63000168 -0.05545993 39.62551599 1.1585657 45.9609375 6.16796875 C49.09179218 10.99781966 48.54625668 16.6407775 47.9609375 22.16796875 C45.66474887 27.31143127 42.16339691 30.14164986 36.9609375 32.16796875 C33.38024192 32.69819714 29.86367241 32.65918249 26.25 32.59375 C25.24125824 32.59046188 24.23251648 32.58717377 23.19320679 32.58378601 C21.07356253 32.57340617 18.95394574 32.55352639 16.83447266 32.5246582 C13.57568908 32.48032934 10.31764243 32.4631807 7.05859375 32.45117188 C4.99738509 32.43775778 2.93618556 32.42283758 0.875 32.40625 C-0.10407318 32.39886307 -1.08314636 32.39147614 -2.09188843 32.38386536 C-2.99017365 32.37103012 -3.88845886 32.35819489 -4.81396484 32.3449707 C-5.60781586 32.3351265 -6.40166687 32.32528229 -7.21957397 32.31513977 C-9.0390625 32.16796875 -9.0390625 32.16796875 -10.0390625 31.16796875 C-10.13918651 28.96146219 -10.1698743 26.75174489 -10.171875 24.54296875 C-10.17283173 23.88087402 -10.17378845 23.2187793 -10.17477417 22.53662109 C-10.17545576 21.13443914 -10.17360292 19.73225405 -10.16943359 18.33007812 C-10.16408496 16.17701162 -10.1693792 14.02415373 -10.17578125 11.87109375 C-10.17512046 10.51171829 -10.17383929 9.15234295 -10.171875 7.79296875 C-10.17074707 6.54773438 -10.16961914 5.3025 -10.16845703 4.01953125 C-9.89961019 -1.90524439 -4.72545786 0.00589808 0 0 Z " fill="#FAFCFC" transform="translate(170.0390625,84.83203125)"/>
<path d="M0 0 C1.28252403 -0.01925285 1.28252403 -0.01925285 2.59095764 -0.03889465 C3.52314621 -0.04628159 4.45533478 -0.05366852 5.41577148 -0.0612793 C6.37200912 -0.06935104 7.32824677 -0.07742279 8.3134613 -0.08573914 C10.34534888 -0.09960356 12.37725997 -0.1103151 14.40917969 -0.11816406 C17.49972749 -0.13529223 20.58918208 -0.17914675 23.67944336 -0.22338867 C25.65404487 -0.23352275 27.62865548 -0.24203661 29.60327148 -0.2487793 C30.52129044 -0.26628738 31.43930939 -0.28379547 32.38514709 -0.30183411 C40.06385378 -0.27622122 45.1488373 1.76353018 50.97436523 6.73950195 C53.80826982 11.61027546 53.69728368 15.67296378 52.97436523 21.17700195 C51.44703734 26.3317336 48.7837711 28.44302704 44.35372925 31.1206665 C40.05262749 33.03017099 35.80032757 32.80967852 31.16577148 32.70043945 C30.15844467 32.69573639 29.15111786 32.69103333 28.11326599 32.68618774 C24.92041599 32.66496353 21.72926698 32.60836821 18.53686523 32.55200195 C16.36565687 32.53548347 14.19443081 32.52113835 12.02319336 32.5090332 C8.07644609 32.47513808 4.1298651 32.44069382 0.18359375 32.36987305 C-0.60724106 32.35701263 -1.39807587 32.34415222 -2.21287537 32.3309021 C-4.02563477 32.17700195 -4.02563477 32.17700195 -5.02563477 31.17700195 C-5.12575878 28.97049539 -5.15644656 26.76077809 -5.15844727 24.55200195 C-5.15940399 23.88990723 -5.16036072 23.2278125 -5.16134644 22.5456543 C-5.16202803 21.14347234 -5.16017518 19.74128725 -5.15600586 18.33911133 C-5.15065723 16.18604482 -5.15595146 14.03318693 -5.16235352 11.88012695 C-5.16169273 10.52075149 -5.16041156 9.16137616 -5.15844727 7.80200195 C-5.15731934 6.55676758 -5.15619141 5.3115332 -5.1550293 4.02856445 C-4.95913728 -0.28845201 -3.92923769 0.05121141 0 0 Z " fill="#FBFCFD" transform="translate(41.025634765625,84.822998046875)"/>
</svg>
