<?xml version="1.0" encoding="UTF-8"?>
<svg version="1.1" xmlns="http://www.w3.org/2000/svg" width="764" height="327">
<path d="M0 0 C1.47777957 -0.00202376 2.95555817 -0.00493771 4.43333435 -0.00869751 C7.52067636 -0.01310531 10.60775689 -0.0067391 13.69506836 0.00732422 C17.6415385 0.02443054 21.58739711 0.01455643 25.53384495 -0.00339317 C28.58201158 -0.01426021 31.63003441 -0.01077162 34.67820549 -0.0030098 C36.13298554 -0.00101662 37.58777889 -0.00343589 39.04254341 -0.01044846 C41.07857113 -0.01811196 43.114645 -0.00435026 45.15063477 0.01025391 C46.30644547 0.01264069 47.46225616 0.01502747 48.65309143 0.01748657 C53.87794644 0.6360111 57.01539139 2.50383958 60.62109375 6.2734375 C64.97924127 12.32642016 65.17898157 17.18701351 65.171875 24.44140625 C65.17616013 25.40621414 65.18044525 26.37102203 65.18486023 27.36506653 C65.19059013 29.39823625 65.19111368 31.43142646 65.18676758 33.46459961 C65.18359422 36.58547446 65.20712971 39.70541323 65.23242188 42.82617188 C65.23469355 44.80208213 65.23539898 46.77799495 65.234375 48.75390625 C65.24358475 49.6903447 65.25279449 50.62678314 65.26228333 51.59159851 C65.25605453 52.45622208 65.24982574 53.32084564 65.2434082 54.21166992 C65.24403763 54.97380295 65.24466705 55.73593597 65.24531555 56.52116394 C65.12182236 57.14066422 64.99832916 57.76016449 64.87109375 58.3984375 C61.64735698 60.54759535 60.60405701 60.78130553 56.87109375 60.3984375 C54.87109375 58.3984375 54.87109375 58.3984375 54.64404297 55.05029297 C54.64436 53.62203117 54.65568014 52.19374538 54.67578125 50.765625 C54.67861115 50.01378937 54.68144104 49.26195374 54.68435669 48.48733521 C54.69556501 46.08254172 54.72067023 43.67811869 54.74609375 41.2734375 C54.75612273 39.64453662 54.76524872 38.01562992 54.7734375 36.38671875 C54.7955064 32.39048194 54.83004024 28.39452256 54.87109375 24.3984375 C54.21109375 24.7284375 53.55109375 25.0584375 52.87109375 25.3984375 C50.62444944 25.49045872 48.37498942 25.51593555 46.12646484 25.51196289 C45.07045547 25.51214369 45.07045547 25.51214369 43.99311256 25.51232815 C41.71022019 25.5115807 39.42740906 25.5039601 37.14453125 25.49609375 C35.73673543 25.49462381 34.32893906 25.49360342 32.92114258 25.49304199 C27.69611798 25.48779513 22.47110507 25.47383397 17.24609375 25.4609375 C5.57234375 25.4403125 -6.10140625 25.4196875 -18.12890625 25.3984375 C-18.12890625 57.7384375 -18.12890625 90.0784375 -18.12890625 123.3984375 C5.96109375 123.3984375 30.05109375 123.3984375 54.87109375 123.3984375 C56.3859584 101.23726688 56.3859584 101.23726688 49.12109375 93.7109375 C47.40355371 92.556927 45.65612474 91.44502643 43.87109375 90.3984375 C39.67349339 86.771003 36.69245516 82.97985908 34.99609375 77.6484375 C34.77621908 71.93169619 36.75806882 67.24068566 39.68359375 62.3984375 C42.51743832 59.80749389 44.03701007 59.3984375 47.87109375 59.3984375 C52.99327394 61.24961139 56.49300238 63.45390131 60.62109375 67.0859375 C64.53393563 70.47942501 68.49111588 73.61788754 72.74609375 76.5859375 C81.13546427 82.64559793 85.08675695 88.36457893 87.87109375 98.3984375 C88.38042819 102.1425099 88.43422574 105.81117296 88.40234375 109.5859375 C88.40617065 110.60969482 88.40999756 111.63345215 88.41394043 112.68823242 C88.41664227 114.83611036 88.40940342 116.9840222 88.39257812 119.13183594 C88.37114443 122.39073113 88.39244012 125.64742212 88.41796875 128.90625 C88.41532517 131.00781729 88.41019956 133.10938323 88.40234375 135.2109375 C88.41044067 136.16959717 88.4185376 137.12825684 88.42687988 138.1159668 C88.29167035 148.03162068 85.59400503 156.4973523 78.67578125 163.7421875 C74.24610177 167.80752105 69.99894248 170.50856295 63.8369751 170.54560852 C62.60908264 170.55634148 62.60908264 170.55634148 61.35638428 170.56729126 C60.46179504 170.56998016 59.56720581 170.57266907 58.64550781 170.57543945 C57.22794189 170.58529625 57.22794189 170.58529625 55.78173828 170.59535217 C52.65006431 170.61508415 49.5184383 170.6267477 46.38671875 170.63671875 C45.31701591 170.64079428 44.24731308 170.6448698 43.14519501 170.64906883 C37.48319186 170.66992933 31.82121295 170.68423105 26.15917969 170.69360352 C20.31375363 170.70466671 14.46870837 170.73906594 8.6234169 170.77877522 C4.12635596 170.80493203 -0.37061413 170.81329455 -4.86774445 170.81688499 C-7.02228619 170.82175349 -9.1768238 170.83337492 -11.3312912 170.85192299 C-14.34974767 170.87629353 -17.36721727 170.87535296 -20.38574219 170.8684082 C-21.71548065 170.88762329 -21.71548065 170.88762329 -23.07208252 170.90722656 C-28.91794441 170.85831241 -32.33584637 169.79966036 -37.12890625 166.3984375 C-39.74012864 162.74272616 -40.22291886 159.82406444 -40.44140625 155.4609375 C-40.77439452 150.55491032 -42.323627 148.20371675 -45.75390625 144.7734375 C-48.17673161 142.35061214 -48.28828698 140.45526371 -48.31640625 137.1484375 C-48.30133218 134.01805488 -48.03122889 132.11083193 -47.00390625 129.0859375 C-45.82294051 126.49739245 -45.82294051 126.49739245 -47.00390625 124.5234375 C-47.56078125 123.4715625 -47.56078125 123.4715625 -48.12890625 122.3984375 C-48.42323358 117.90994577 -48.30087708 114.9716736 -47.00390625 110.6484375 C-45.98201367 106.85283648 -46.42940444 106.66197358 -48.12890625 103.3984375 C-48.84375784 98.8267122 -48.54575396 95.28215464 -46.56640625 91.0859375 C-43.76382605 87.99591317 -41.15809146 85.63038262 -37.12890625 84.3984375 C-34.4595789 84.31021277 -31.80050407 84.36974331 -29.12890625 84.3984375 C-29.13556808 83.54954453 -29.14222992 82.70065155 -29.14909363 81.82603455 C-29.20932003 73.80794712 -29.25493914 65.78993618 -29.28434277 57.77167416 C-29.29996791 53.64984895 -29.32114814 49.52821138 -29.35522461 45.40649414 C-29.38793112 41.42535634 -29.40578296 37.44439851 -29.41353798 33.46313667 C-29.4190613 31.94775118 -29.42984695 30.43237501 -29.44609642 28.91706657 C-29.46802167 26.78686467 -29.47086701 24.65739702 -29.46948242 22.52709961 C-29.47614426 21.3168663 -29.48280609 20.106633 -29.4896698 18.85972595 C-28.8624988 12.84243364 -26.44159779 7.71112904 -22.12890625 3.3984375 C-15.27103275 -0.7129319 -7.74296816 -0.03738438 0 0 Z M-17.12890625 13.3984375 C-17.12890625 14.7184375 -17.12890625 16.0384375 -17.12890625 17.3984375 C6.30109375 17.3984375 29.73109375 17.3984375 53.87109375 17.3984375 C52.41820389 12.8142412 52.41820389 12.8142412 50.87109375 11.3984375 C48.82640401 11.29378281 46.77806821 11.25987706 44.73071289 11.25317383 C43.41587418 11.24679398 42.10103546 11.24041412 40.74635315 11.23384094 C39.29965247 11.23231239 37.8529513 11.23119836 36.40625 11.23046875 C34.93273383 11.2272579 33.45921799 11.22389396 31.98570251 11.22038269 C28.89288595 11.21438498 25.80009736 11.21254344 22.70727539 11.21313477 C18.73795607 11.21323642 14.76881553 11.19958429 10.79953861 11.18236256 C7.75499137 11.17126113 4.71048758 11.16921498 1.66592216 11.16974449 C0.20224834 11.16856156 -1.2614265 11.16412234 -2.72508049 11.15641212 C-4.76974067 11.1466503 -6.81445295 11.15074462 -8.85913086 11.15551758 C-10.02415634 11.15409256 -11.18918182 11.15266754 -12.38951111 11.15119934 C-15.27424948 11.11665786 -15.27424948 11.11665786 -17.12890625 13.3984375 Z M46.87109375 70.3984375 C45.92189915 73.61170007 45.92189915 73.61170007 45.87109375 77.3984375 C48.88192545 82.21576822 53.04258382 85.25145046 57.58984375 88.58984375 C58.34265625 89.18667969 59.09546875 89.78351563 59.87109375 90.3984375 C60.78117188 91.11515625 61.69125 91.831875 62.62890625 92.5703125 C65.63434932 96.3611501 65.46427541 99.46553902 65.24609375 104.0859375 C65.22393799 104.94082764 65.20178223 105.79571777 65.17895508 106.67651367 C65.12595748 108.55650743 65.06099669 110.43619136 64.98583984 112.31542969 C64.862591 115.62689014 64.79607332 118.93684674 64.734375 122.25 C64.67774531 124.57036127 64.61917499 126.89067604 64.55859375 129.2109375 C64.53651855 130.31332764 64.51444336 131.41571777 64.49169922 132.55151367 C64.23130134 140.15384722 63.51752333 145.4292726 58.30859375 151.2734375 C54.41499584 154.66785619 52.22172897 154.53186179 47.09814453 154.55957031 C46.40202057 154.56453522 45.70589661 154.56950012 44.98867798 154.57461548 C42.68124408 154.58924399 40.37387894 154.59604022 38.06640625 154.6015625 C36.46458941 154.60731341 34.8627726 154.61307115 33.26095581 154.61883545 C29.90004149 154.62934741 26.53915111 154.63518879 23.17822266 154.63867188 C18.8716426 154.64415693 14.56537868 154.66818415 10.25889778 154.69664383 C6.94919918 154.71526784 3.63957675 154.72047568 0.32983017 154.72200775 C-1.25780084 154.72503538 -2.84543047 154.73306765 -4.4330101 154.74619293 C-6.65464065 154.76324894 -8.8754985 154.76137471 -11.09716797 154.75488281 C-12.36132538 154.75852844 -13.62548279 154.76217407 -14.927948 154.76593018 C-18.37778443 154.36986452 -19.57119342 153.6298529 -22.12890625 151.3984375 C-25.06736911 150.96841854 -26.48406791 150.99003989 -29.00390625 152.5859375 C-30.38554669 154.416463 -30.38554669 154.416463 -29.94140625 157.0234375 C-29.38246391 159.56395753 -29.38246391 159.56395753 -27.12890625 160.3984375 C-24.26210171 160.50746544 -21.41922151 160.55577085 -18.55175781 160.55957031 C-17.21978363 160.56701767 -17.21978363 160.56701767 -15.86090088 160.57461548 C-12.91376987 160.58925838 -9.96669271 160.59604335 -7.01953125 160.6015625 C-4.97410073 160.60731308 -2.92867023 160.61307083 -0.88323975 160.61883545 C3.41085054 160.6293521 7.70492208 160.63519013 11.99902344 160.63867188 C17.49812374 160.6441519 22.99697585 160.66816669 28.49599838 160.69664383 C32.72366048 160.71528156 36.951263 160.72047646 41.17896271 160.72200775 C43.20592859 160.72503325 45.23289345 160.73305829 47.25981903 160.74619293 C50.09885932 160.76327373 52.93729616 160.76136792 55.77636719 160.75488281 C57.02969849 160.76870499 57.02969849 160.76870499 58.30834961 160.7828064 C63.24013226 160.74756936 66.58352462 160.10067315 70.87109375 157.3984375 C72.78628739 155.40513236 72.78628739 155.40513236 74.18359375 153.0859375 C74.67472656 152.34730469 75.16585937 151.60867187 75.671875 150.84765625 C78.37177738 145.33352338 78.04371962 139.17134017 78.07421875 133.16015625 C78.07991882 132.27995316 78.0856189 131.39975006 78.0914917 130.49287415 C78.10090548 128.63629342 78.10746121 126.77969626 78.11132812 124.9230957 C78.121027 122.10533045 78.15208199 119.28829737 78.18359375 116.47070312 C78.19012577 114.65885846 78.19537546 112.84700862 78.19921875 111.03515625 C78.21773895 109.78782967 78.21773895 109.78782967 78.2366333 108.51530457 C78.21096673 101.66650663 77.15065652 95.20598724 72.74609375 89.78125 C68.83822905 86.54239475 64.89052531 83.37283683 60.87109375 80.2734375 C60.07703125 79.65339844 59.28296875 79.03335938 58.46484375 78.39453125 C54.7165959 75.48963917 51.03340951 72.69778129 46.87109375 70.3984375 Z M-37.12890625 96.3984375 C-37.37898355 98.85653748 -37.37898355 98.85653748 -37.12890625 101.3984375 C-35.23135481 103.74817568 -35.23135481 103.74817568 -32.00390625 103.5234375 C-31.05515625 103.4821875 -30.10640625 103.4409375 -29.12890625 103.3984375 C-29.12890625 100.7584375 -29.12890625 98.1184375 -29.12890625 95.3984375 C-33.45210711 94.89477249 -33.45210711 94.89477249 -37.12890625 96.3984375 Z M-37.12890625 115.3984375 C-37.37921602 117.81463573 -37.37921602 117.81463573 -37.12890625 120.3984375 C-33.9009907 122.5503812 -32.84489816 122.59930193 -29.12890625 122.3984375 C-29.12890625 119.4284375 -29.12890625 116.4584375 -29.12890625 113.3984375 C-32.33286041 113.3984375 -34.22290364 114.14178772 -37.12890625 115.3984375 Z M-18.12890625 131.3984375 C-18.98661222 139.78200206 -18.98661222 139.78200206 -16.02186584 143.42149353 C-12.63596218 145.73529765 -10.91137288 146.02596974 -6.84155273 146.02954102 C-5.59353378 146.04207413 -4.34551483 146.05460724 -3.05967712 146.06752014 C-1.70644075 146.05525272 -0.35321441 146.04183284 1 146.02734375 C2.39574875 146.02817296 3.79149739 146.03063431 5.1872406 146.03465271 C8.10681692 146.03750612 11.02562411 146.02285434 13.94506836 145.99536133 C17.68351052 145.96124588 21.42058085 145.9673106 25.15908909 145.9860239 C28.03911233 145.99660119 30.9188173 145.98765036 33.79881096 145.97263908 C35.17708325 145.96746417 36.55538887 145.96793073 37.93365669 145.97418404 C39.86019324 145.97964513 41.78674635 145.95639095 43.71313477 145.93188477 C44.80835953 145.92568619 45.90358429 145.91948761 47.03199768 145.9131012 C50.54376781 145.27649696 51.70310362 144.18224765 53.87109375 141.3984375 C55.24002614 137.8186866 55.24002614 137.8186866 54.87109375 131.3984375 C30.78109375 131.3984375 6.69109375 131.3984375 -18.12890625 131.3984375 Z M-37.12890625 134.3984375 C-37.12890625 136.0484375 -37.12890625 137.6984375 -37.12890625 139.3984375 C-34.0408093 141.16306433 -32.89578489 141.3984375 -29.12890625 141.3984375 C-29.12890625 138.4284375 -29.12890625 135.4584375 -29.12890625 132.3984375 C-32.33286041 132.3984375 -34.22290364 133.14178772 -37.12890625 134.3984375 Z " fill="#858585" transform="translate(591.12890625,63.6015625)"/>
<path d="M0 0 C3.59300559 0 4.9185559 -0.2306693 8.0625 -1.5 C17.43083927 -4.70980804 25.25171307 -3.25079452 34 1 C34 1.66 34 2.32 34 3 C34.66 3 35.32 3 36 3 C40.3162354 10.19372567 42.31202311 16.10295185 42.37109375 24.50390625 C42.38012222 25.30481186 42.3891507 26.10571747 42.39845276 26.93089294 C42.41289628 28.61591891 42.42182725 30.3010002 42.42553711 31.98608398 C42.43748252 34.55873508 42.48676176 37.12902254 42.53710938 39.70117188 C42.54656961 41.34373837 42.55380656 42.98631949 42.55859375 44.62890625 C42.57812607 45.39360733 42.59765839 46.15830841 42.61778259 46.94618225 C42.58393738 50.96136811 42.16373091 52.7912384 39.65649414 55.98803711 C37 58 37 58 33.9375 58.5625 C30.23673853 57.85384355 29.25960771 56.99790128 27 54 C26.60530309 51.25811213 26.44190044 48.90376514 26.4609375 46.1640625 C26.44914459 45.40709076 26.43735168 44.65011902 26.42520142 43.87020874 C26.38996752 41.45492993 26.38077874 39.04051459 26.375 36.625 C26.35860516 34.21688745 26.33642781 31.80915763 26.30337524 29.4012146 C26.28390221 27.9054038 26.27439319 26.40941879 26.27645874 24.91348267 C26.23259298 20.58067582 25.72872539 16.98848719 24 13 C20.89079391 11.44539695 17.36916972 11.27279307 14 12 C11.35467253 14.51801224 11.00008603 15.99917732 10.61523438 19.67944336 C10.59413094 21.14944279 10.58783668 22.61970474 10.59375 24.08984375 C10.58291382 24.87138321 10.57207764 25.65292267 10.56091309 26.45814514 C10.52669805 28.95134788 10.51107004 31.44409353 10.5 33.9375 C10.485405 37.21788584 10.45167339 40.49725586 10.40625 43.77734375 C10.40927124 44.52644516 10.41229248 45.27554657 10.41540527 46.04734802 C10.35132406 50.53102275 9.78129783 53.43805402 7 57 C4.15916359 58.42041821 2.14522722 58.31452272 -1 58 C-3.16162109 56.47021484 -3.16162109 56.47021484 -5 54 C-5.39469691 51.25811213 -5.55809956 48.90376514 -5.5390625 46.1640625 C-5.55085541 45.40709076 -5.56264832 44.65011902 -5.57479858 43.87020874 C-5.61003248 41.45492993 -5.61922126 39.04051459 -5.625 36.625 C-5.64139484 34.21688745 -5.66357219 31.80915763 -5.69662476 29.4012146 C-5.71609779 27.9054038 -5.72560681 26.40941879 -5.72354126 24.91348267 C-5.76740702 20.58067582 -6.27127461 16.98848719 -8 13 C-11.09173752 11.45413124 -13.59429552 11.70640479 -17 12 C-19.35547553 13.44499161 -19.35547553 13.44499161 -21 16 C-21.38241343 18.82378872 -21.53462826 21.26967689 -21.50390625 24.08984375 C-21.51332748 24.87138321 -21.52274872 25.65292267 -21.53245544 26.45814514 C-21.56108931 28.95153085 -21.56418466 31.44396324 -21.5625 33.9375 C-21.56611228 36.42732704 -21.57570123 38.91646041 -21.60325623 41.40614319 C-21.61999039 42.95312271 -21.62296264 44.50033027 -21.61024475 46.04734802 C-21.65393608 50.53783887 -22.21188931 53.43422698 -25 57 C-27.84083641 58.42041821 -29.85477278 58.31452272 -33 58 C-35.41352245 56.36539326 -36.7885973 55.07113524 -37.36593628 52.14587402 C-37.51434551 49.80134842 -37.52791834 47.48968185 -37.49609375 45.140625 C-37.49754898 44.27741638 -37.49900421 43.41420776 -37.50050354 42.52484131 C-37.49884516 40.69914374 -37.48729066 38.8734321 -37.46655273 37.04785156 C-37.43774374 34.27347314 -37.4459159 31.50102441 -37.45898438 28.7265625 C-37.45274183 26.94790748 -37.44434687 25.16925846 -37.43359375 23.390625 C-37.43652939 22.56951233 -37.43946503 21.74839966 -37.44248962 20.90240479 C-37.34005252 14.54406613 -36.29401002 8.86252555 -32.203125 3.7578125 C-22.30289406 -4.51878056 -11.61865336 -4.89206457 0 0 Z " fill="#7F7F7F" transform="translate(437,144)"/>
<path d="M0 0 C3.1359157 1.77984405 3.84102736 2.52308207 5 6 C5.08021999 7.40824893 5.10765977 8.81997231 5.09765625 10.23046875 C5.09443359 11.03291016 5.09121094 11.83535156 5.08789062 12.66210938 C5.07951172 13.49548828 5.07113281 14.32886719 5.0625 15.1875 C5.05798828 16.03248047 5.05347656 16.87746094 5.04882812 17.74804688 C5.03705403 19.83206155 5.0191189 21.91603977 5 24 C6.21816406 23.96519531 7.43632812 23.93039063 8.69140625 23.89453125 C10.31509028 23.86637488 11.93878935 23.83907671 13.5625 23.8125 C14.36236328 23.78736328 15.16222656 23.76222656 15.98632812 23.73632812 C22.79082779 23.65300772 27.46529497 24.81093657 32.75 29.375 C38.93477413 36.59056981 39.20135733 42.46801696 39.25 51.625 C39.270625 52.57246094 39.29125 53.51992187 39.3125 54.49609375 C39.36084822 63.33173105 38.14193932 71.94488916 31.77734375 78.52734375 C25.49133113 83.73575421 19.10487704 84.60088543 11.08984375 84.3203125 C2.98224398 83.47982807 -1.48163927 80.16990901 -6.6875 74 C-11.8573548 66.12212602 -11.16905332 56.73395351 -11.203125 47.6796875 C-11.20882507 46.50286407 -11.21452515 45.32604065 -11.22039795 44.11355591 C-11.22981513 41.634144 -11.23636883 39.15471975 -11.24023438 36.67529297 C-11.24998467 32.88096565 -11.2810577 29.08717018 -11.3125 25.29296875 C-11.31902643 22.88021154 -11.32427831 20.46745047 -11.328125 18.0546875 C-11.3404718 16.92126923 -11.3528186 15.78785095 -11.36553955 14.62008667 C-11.3610379 13.03286301 -11.3610379 13.03286301 -11.35644531 11.41357422 C-11.36009094 10.48648651 -11.36373657 9.5593988 -11.36749268 8.60421753 C-10.92289123 5.45357276 -9.84989173 3.56715715 -8 1 C-5.19084526 -0.40457737 -3.11189466 -0.24895157 0 0 Z M5 37 C4.85467965 41.56216465 4.76591523 46.12373362 4.6875 50.6875 C4.64560547 51.98107422 4.60371094 53.27464844 4.56054688 54.60742188 C4.54443359 55.85458984 4.52832031 57.10175781 4.51171875 58.38671875 C4.48553467 59.53358154 4.45935059 60.68044434 4.43237305 61.86206055 C5.17771585 65.98244382 6.75380119 67.44248708 10 70 C13.85112855 70.55016122 16.20866142 70.31653543 19.8125 68.875 C22.73519742 66.36983078 23.10209879 64.76539218 24 61 C24.14100251 57.40062994 23.96140652 53.84391086 23.75 50.25 C23.71003906 49.29222656 23.67007813 48.33445312 23.62890625 47.34765625 C23.65294045 42.13854111 23.65294045 42.13854111 21 38 C17.61215901 36.78678667 14.31840018 36.89871304 10.75 36.9375 C9.67234375 36.94652344 8.5946875 36.95554688 7.484375 36.96484375 C6.25460938 36.98224609 6.25460938 36.98224609 5 37 Z " fill="#767676" transform="translate(218,118)"/>
<path d="M0 0 C2.84124653 1.23532458 4.42097859 2.2555439 6.3125 4.6875 C7.79405866 9.67092458 8.04360277 12.99628269 5.6328125 17.625 C3.53003999 20.83587254 1.30390163 23.9324553 -1 27 C-1.44988281 27.60376465 -1.89976562 28.2075293 -2.36328125 28.82958984 C-4.33138748 31.46796366 -6.30574256 34.1013387 -8.29394531 36.72460938 C-11.96806718 41.57912598 -15.51240847 46.5101317 -19 51.5 C-23.51113928 57.95010518 -28.15031361 64.28731463 -32.90429688 70.56054688 C-33.59942383 71.47803711 -33.59942383 71.47803711 -34.30859375 72.4140625 C-34.7581543 73.00493652 -35.20771484 73.59581055 -35.67089844 74.20458984 C-37.03460132 76.04674102 -38.31663523 77.93309868 -39.60546875 79.828125 C-42.29513068 83.39093982 -43.82626014 84.49372477 -47.94140625 85.76171875 C-51.60184121 86.18541236 -53.93585927 84.86251691 -57 83 C-60.3779175 79.847277 -60.84365689 76.5339503 -61 72 C-58.73830376 66.4946611 -55.19056581 61.8885333 -51.6875 57.125 C-51.13126953 56.36058594 -50.57503906 55.59617188 -50.00195312 54.80859375 C-47.35503051 51.17870453 -44.68253087 47.56947744 -41.98046875 43.98046875 C-38.80424996 39.75736908 -35.71117296 35.47664776 -32.625 31.1875 C-31.47792279 29.59761426 -30.33078756 28.00777037 -29.18359375 26.41796875 C-27.33943335 23.86021967 -25.49775285 21.30074862 -23.66015625 18.73828125 C-9.43085389 -1.01368103 -9.43085389 -1.01368103 0 0 Z " fill="#7B7B7B" transform="translate(146,117)"/>
<path d="M0 0 C3.7086208 0.71016143 4.6826042 1.54792865 6.9375 4.5625 C7.31991343 7.38628872 7.47212826 9.83217689 7.44140625 12.65234375 C7.45082748 13.43388321 7.46024872 14.21542267 7.46995544 15.02064514 C7.49858931 17.51403085 7.50168466 20.00646324 7.5 22.5 C7.50361228 24.98982704 7.51320123 27.47896041 7.54075623 29.96864319 C7.55749039 31.51562271 7.56046264 33.06283027 7.54774475 34.60984802 C7.59143608 39.10033887 8.14938931 41.99672698 10.9375 45.5625 C13.96187339 47.0746867 16.59991534 46.73513369 19.9375 46.5625 C22.29210678 45.88825833 22.29210678 45.88825833 23.9375 44.5625 C25.17161072 40.86016785 25.07288901 37.42528405 25.078125 33.5703125 C25.09645113 31.9622254 25.11602127 30.35415208 25.13671875 28.74609375 C25.16569032 26.21574588 25.18750023 23.68628628 25.18798828 21.15576172 C25.19132778 18.70981406 25.22589804 16.2659053 25.265625 13.8203125 C25.2585553 13.06807404 25.2514856 12.31583557 25.24420166 11.540802 C25.33567802 7.58043675 25.81447026 5.72276037 28.25292969 2.54638672 C30.9375 0.5625 30.9375 0.5625 34.5625 0.5625 C37.884919 1.54692044 38.88559062 1.93914809 40.9375 4.5625 C41.24853505 7.55351078 41.38162283 10.33163121 41.37109375 13.32421875 C41.3763356 14.18884232 41.38157745 15.05346588 41.38697815 15.94429016 C41.39340318 17.77591886 41.39205512 19.60758879 41.38354492 21.43920898 C41.37508328 24.22260628 41.40370935 27.00391745 41.43554688 29.78710938 C41.43716038 31.57031189 41.43657851 33.353518 41.43359375 35.13671875 C41.45044472 36.37309334 41.45044472 36.37309334 41.46763611 37.63444519 C41.38296616 44.76967207 39.18741329 49.81260597 34.6875 55.3125 C27.80471257 60.94387153 22.328028 62.2391512 13.34765625 61.94140625 C5.93383886 61.11764876 1.02035903 58.39722237 -3.7734375 52.734375 C-7.43598423 46.56353869 -8.52936612 40.90017273 -8.53125 33.86328125 C-8.53886353 33.06520554 -8.54647705 32.26712982 -8.55432129 31.44487 C-8.56505016 29.77179065 -8.56800503 28.09864473 -8.56347656 26.42553711 C-8.56249826 23.87045625 -8.60431992 21.31832492 -8.6484375 18.76367188 C-8.65364122 17.13021455 -8.65633275 15.49674687 -8.65625 13.86328125 C-8.67264526 13.10485428 -8.68904053 12.34642731 -8.70593262 11.5650177 C-8.65392072 7.57099378 -8.21428176 5.75556045 -5.71679688 2.57885742 C-3.0625 0.5625 -3.0625 0.5625 0 0 Z " fill="#868686" transform="translate(349.0625,140.4375)"/>
<path d="M0 0 C0.69947754 0.01772461 1.39895508 0.03544922 2.11962891 0.05371094 C5.15914709 0.23138949 6.96113666 0.52094319 9.33203125 2.48828125 C10.72903584 5.79990568 10.38115523 7.3736756 9.3125 10.8125 C7.81617483 13.5184952 6.06190528 15.99741497 4.25 18.5 C3.75483887 19.20189453 3.25967773 19.90378906 2.74951172 20.62695312 C-0.76405847 25.59022578 -4.35879111 30.49531568 -7.9609375 35.39453125 C-10.37308875 38.77263447 -12.54248268 42.25981507 -14.6875 45.8125 C-13.2025 45.3175 -13.2025 45.3175 -11.6875 44.8125 C-8.69185992 44.79809606 -5.72908942 45.14076856 -2.75 45.4375 C-1.53280273 45.52451172 -1.53280273 45.52451172 -0.29101562 45.61328125 C3.8725701 46.02998138 5.7543397 46.28657389 8.8828125 49.234375 C10.3125 51.8125 10.3125 51.8125 10.25 54.4375 C9.25385968 56.96105548 8.45040618 58.16795679 6.3125 59.8125 C2.72991615 61.00669462 -0.54782712 60.97466963 -4.27734375 60.98046875 C-5.01827774 60.98379715 -5.75921173 60.98712555 -6.52259827 60.99055481 C-8.08854553 60.99561353 -9.65450356 60.99796346 -11.22045898 60.99780273 C-13.61264853 60.99998871 -16.00437643 61.0181537 -18.39648438 61.03710938 C-19.91926926 61.04004364 -21.44205633 61.04202822 -22.96484375 61.04296875 C-23.67849594 61.05015427 -24.39214813 61.05733978 -25.12742615 61.06474304 C-28.79205607 61.04793319 -31.65203424 60.98068983 -34.6875 58.8125 C-37.03228506 55.29532241 -37.11906101 53.95343068 -36.6875 49.8125 C-35.359375 47.1640625 -35.359375 47.1640625 -33.4375 44.4375 C-32.71820313 43.40753906 -31.99890625 42.37757813 -31.2578125 41.31640625 C-27.82844652 36.59590447 -24.30530011 31.93988704 -20.72558594 27.33251953 C-18.10460788 23.91671066 -16.12511265 20.9156861 -14.6875 16.8125 C-13.0625 15 -13.0625 15 -11.6875 13.8125 C-12.6775 14.3075 -12.6775 14.3075 -13.6875 14.8125 C-15.95582709 14.93612239 -18.22833787 14.98810648 -20.5 15 C-21.72332031 15.01417969 -22.94664062 15.02835938 -24.20703125 15.04296875 C-27.56706655 14.82047483 -29.74142762 14.40454271 -32.6875 12.8125 C-35.00032587 9.34326119 -35.11228586 7.89044425 -34.6875 3.8125 C-33.11374013 1.71042864 -32.18331657 0.91882086 -29.59716797 0.36425781 C-28.79939941 0.33170898 -28.00163086 0.29916016 -27.1796875 0.265625 C-26.28290283 0.2246167 -25.38611816 0.1836084 -24.4621582 0.14135742 C-23.02682739 0.102323 -23.02682739 0.102323 -21.5625 0.0625 C-20.58434326 0.02938721 -19.60618652 -0.00372559 -18.59838867 -0.0378418 C-12.3952647 -0.20994051 -6.20107764 -0.24897334 0 0 Z " fill="#6F6F6F" transform="translate(325.6875,141.1875)"/>
<path d="M0 0 C4.29713923 0.78927047 5.46257548 2.03934139 8.0625 5.5625 C8.80186098 9.38397111 8.73932729 13.14908143 8.69140625 17.03125 C8.69381821 18.14431519 8.69623016 19.25738037 8.69871521 20.4041748 C8.69773697 22.75434944 8.68434901 25.10454718 8.65942383 27.45458984 C8.62511974 31.0499507 8.63876705 34.64285317 8.65820312 38.23828125 C8.65130453 40.52344795 8.64163204 42.80860832 8.62890625 45.09375 C8.63386612 46.16782104 8.63882599 47.24189209 8.64393616 48.34851074 C8.5726689 52.86918859 8.51688375 55.76670252 6.24584961 59.74414062 C4.0625 61.5625 4.0625 61.5625 0.5625 62.125 C-3.50332868 61.47156325 -4.43104893 60.73196195 -6.9375 57.5625 C-7.44543457 55.09631348 -7.44543457 55.09631348 -7.45507812 52.30664062 C-7.46768677 51.25875366 -7.48029541 50.2108667 -7.49328613 49.13122559 C-7.48518921 48.00510864 -7.47709229 46.8789917 -7.46875 45.71875 C-7.4725769 44.5575061 -7.47640381 43.39626221 -7.48034668 42.1998291 C-7.48306792 39.74535251 -7.47569205 37.29084702 -7.45898438 34.83642578 C-7.43757965 31.07649159 -7.45878088 27.31846841 -7.484375 23.55859375 C-7.48173176 21.17447494 -7.47660688 18.79035733 -7.46875 16.40625 C-7.47684692 15.28013306 -7.48494385 14.15401611 -7.49328613 12.99377441 C-7.48067749 11.94588745 -7.46806885 10.89800049 -7.45507812 9.81835938 C-7.45189575 8.89776733 -7.44871338 7.97717529 -7.44543457 7.02868652 C-6.56074077 2.73321216 -4.21231701 0.8066139 0 0 Z " fill="#6A6A6A" transform="translate(272.9375,140.4375)"/>
<path d="M0 0 C3.09726838 2.54664289 5.81875867 5.10190363 7 9 C6.76288857 15.05546108 3.70480389 18.85327327 0.25 23.5625 C-0.2759375 24.30435547 -0.801875 25.04621094 -1.34375 25.81054688 C-8.70380874 36.03993545 -8.70380874 36.03993545 -13.02734375 37.84765625 C-16.97566828 38.29174183 -18.69274266 38.15362867 -22.375 36.3125 C-26.05088898 33.07421685 -26.82617443 31.53545922 -27.375 26.6875 C-26.68837739 19.93571102 -21.95398234 14.22674873 -18.125 8.75 C-17.71636719 8.13898438 -17.30773437 7.52796875 -16.88671875 6.8984375 C-12.49653375 0.63455983 -7.76255367 -2.25819743 0 0 Z " fill="#7A7A7A" transform="translate(142,174)"/>
<path d="M0 0 C3.01113945 1.27537931 3.80962762 2.31679384 6 5 C7.23317807 8.1252601 7.49121534 10.67610951 7 14 C5.47150891 17.38102229 3.28565732 20.09473678 1 23 C0.27554688 24.03253906 -0.44890625 25.06507813 -1.1953125 26.12890625 C-7.91700165 35.59623452 -7.91700165 35.59623452 -14 38 C-18.41478542 38 -21.51568646 36.6459743 -24.80151367 33.63598633 C-27.13922562 30.44490713 -27.302741 26.85867824 -27 23 C-25.73037384 19.91606783 -23.90645316 17.44159026 -21.875 14.8125 C-21.38773437 14.14025391 -20.90046875 13.46800781 -20.3984375 12.77539062 C-9.99966351 -1.42612651 -9.99966351 -1.42612651 0 0 Z " fill="#828282" transform="translate(117,108)"/>
<path d="M0 0 C25.08 0 50.16 0 76 0 C76.33 11.22 76.66 22.44 77 34 C78.65 34.66 80.3 35.32 82 36 C82 36.33 82 36.66 82 37 C79.625 37.125 79.625 37.125 77 37 C75 35 75 35 74.77294922 31.65185547 C74.77326625 30.22359367 74.78458639 28.79530788 74.8046875 27.3671875 C74.8075174 26.61535187 74.81034729 25.86351624 74.81326294 25.08889771 C74.82447126 22.68410422 74.84957648 20.27968119 74.875 17.875 C74.88502898 16.24609912 74.89415497 14.61719242 74.90234375 12.98828125 C74.92441265 8.99204444 74.95894649 4.99608506 75 1 C74.34 1.33 73.68 1.66 73 2 C70.75335569 2.09202122 68.50389567 2.11749805 66.25537109 2.11352539 C65.19936172 2.11370619 65.19936172 2.11370619 64.12201881 2.11389065 C61.83912644 2.1131432 59.55631531 2.1055226 57.2734375 2.09765625 C55.86564168 2.09618631 54.45784531 2.09516592 53.05004883 2.09460449 C47.82502423 2.08935763 42.60001132 2.07539647 37.375 2.0625 C25.70125 2.041875 14.0275 2.02125 2 2 C2 34.34 2 66.68 2 100 C26.09 100 50.18 100 75 100 C76.36739031 78.37016568 76.36739031 78.37016568 71 72 C72.65 72.66 74.3 73.32 76 74 C76 83.24 76 92.48 76 102 C50.92 102 25.84 102 0 102 C0 68.34 0 34.68 0 0 Z " fill="#E4E3E3" transform="translate(571,87)"/>
<path d="M0 0 C1.47777957 -0.00202376 2.95555817 -0.00493771 4.43333435 -0.00869751 C7.52067636 -0.01310531 10.60775689 -0.0067391 13.69506836 0.00732422 C17.6415385 0.02443054 21.58739711 0.01455643 25.53384495 -0.00339317 C28.58201158 -0.01426021 31.63003441 -0.01077162 34.67820549 -0.0030098 C36.13298554 -0.00101662 37.58777889 -0.00343589 39.04254341 -0.01044846 C41.07857113 -0.01811196 43.114645 -0.00435026 45.15063477 0.01025391 C46.30644547 0.01264069 47.46225616 0.01502747 48.65309143 0.01748657 C53.87794644 0.6360111 57.01539139 2.50383958 60.62109375 6.2734375 C65.01610259 12.37761645 65.14697116 17.20149424 65.06640625 24.51171875 C65.06357635 25.48126999 65.06074646 26.45082123 65.05783081 27.44975281 C65.04666366 30.53694155 65.02156527 33.62383689 64.99609375 36.7109375 C64.98605948 38.80793851 64.97693441 40.90494408 64.96875 43.00195312 C64.94673563 48.1342271 64.91222946 53.2662826 64.87109375 58.3984375 C63.88109375 58.3984375 62.89109375 58.3984375 61.87109375 58.3984375 C62.20109375 58.0684375 62.53109375 57.7384375 62.87109375 57.3984375 C62.99725289 54.46217914 63.05981236 51.55080267 63.07421875 48.61328125 C63.07991882 47.72363174 63.0856189 46.83398224 63.0914917 45.91737366 C63.1009619 44.02671504 63.10748365 42.13603976 63.11132812 40.24536133 C63.12097184 37.37225718 63.15194969 34.49988727 63.18359375 31.62695312 C63.19012988 29.78906674 63.19537795 27.95117524 63.19921875 26.11328125 C63.21773895 24.83468483 63.21773895 24.83468483 63.2366333 23.53025818 C63.21037235 16.38097797 62.35785936 10.89937971 57.19717407 5.70927429 C53.82147287 3.03581145 51.12766189 2.75512978 46.79931641 2.71972656 C46.11878708 2.70775238 45.43825775 2.6957782 44.73710632 2.68344116 C42.50253438 2.65141727 40.26991792 2.65605402 38.03515625 2.6640625 C36.47105242 2.65560526 34.9069546 2.64596291 33.34286499 2.63519287 C30.06949682 2.61882817 26.79680527 2.62148517 23.5234375 2.63671875 C19.34433845 2.65398817 15.16775556 2.61688459 10.98902321 2.56445694 C7.759662 2.53124856 4.5308983 2.53079613 1.30140305 2.53960419 C-0.23828884 2.53924604 -1.77802022 2.52806174 -3.31754684 2.50550079 C-13.32373982 2.25095273 -13.32373982 2.25095273 -22.07275391 6.57714844 C-26.77979197 11.17741625 -26.25455899 17.19935109 -26.33422852 23.41357422 C-26.34907791 24.42438301 -26.34907791 24.42438301 -26.36422729 25.45561218 C-26.39558809 27.66308182 -26.42049809 29.87057291 -26.4453125 32.078125 C-26.46590404 33.61655203 -26.48690107 35.15497368 -26.50828552 36.69338989 C-26.5632791 40.72761662 -26.6127878 44.76189247 -26.66113281 48.79620361 C-26.71151449 52.91886731 -26.76711326 57.04146035 -26.82226562 61.1640625 C-26.92956906 69.24212761 -27.03107488 77.32025214 -27.12890625 85.3984375 C-28.05830017 85.48843269 -28.05830017 85.48843269 -29.00646973 85.58024597 C-30.22433167 85.70524223 -30.22433167 85.70524223 -31.46679688 85.83276367 C-32.6746283 85.95369637 -32.6746283 85.95369637 -33.90686035 86.07707214 C-36.55655055 86.46028594 -38.39966533 87.23543583 -40.62890625 88.7109375 C-41.27859375 89.11957031 -41.92828125 89.52820313 -42.59765625 89.94921875 C-45.42286022 92.62307251 -45.13402423 95.50420918 -45.31640625 99.2734375 C-45.30009985 102.19228225 -44.97299034 103.85752322 -44.00390625 106.7109375 C-43.57078125 108.04125 -43.57078125 108.04125 -43.12890625 109.3984375 C-43.78890625 110.3884375 -44.44890625 111.3784375 -45.12890625 112.3984375 C-45.44572795 114.77599699 -45.44572795 114.77599699 -45.37890625 117.3359375 C-45.3840625 118.19058594 -45.38921875 119.04523438 -45.39453125 119.92578125 C-45.11375436 122.53948374 -44.33951221 124.09732537 -43.12890625 126.3984375 C-43.12890625 127.3884375 -43.12890625 128.3784375 -43.12890625 129.3984375 C-43.78890625 129.3984375 -44.44890625 129.3984375 -45.12890625 129.3984375 C-45.897455 137.54557586 -45.897455 137.54557586 -43.31640625 145.0234375 C-41.16956155 147.54193339 -41.16956155 147.54193339 -38.12890625 149.3984375 C-37.94140625 151.53515625 -37.94140625 151.53515625 -38.12890625 154.0859375 C-38.30156498 159.04268177 -37.4083883 162.02943023 -35.12890625 166.3984375 C-35.78890625 166.3984375 -36.44890625 166.3984375 -37.12890625 166.3984375 C-39.40157517 162.6435932 -40.27021881 159.77354413 -40.44140625 155.4609375 C-40.77439452 150.55491032 -42.323627 148.20371675 -45.75390625 144.7734375 C-48.17673161 142.35061214 -48.28828698 140.45526371 -48.31640625 137.1484375 C-48.30133218 134.01805488 -48.03122889 132.11083193 -47.00390625 129.0859375 C-45.82294051 126.49739245 -45.82294051 126.49739245 -47.00390625 124.5234375 C-47.56078125 123.4715625 -47.56078125 123.4715625 -48.12890625 122.3984375 C-48.42323358 117.90994577 -48.30087708 114.9716736 -47.00390625 110.6484375 C-45.98201367 106.85283648 -46.42940444 106.66197358 -48.12890625 103.3984375 C-48.84375784 98.8267122 -48.54575396 95.28215464 -46.56640625 91.0859375 C-43.76382605 87.99591317 -41.15809146 85.63038262 -37.12890625 84.3984375 C-34.4595789 84.31021277 -31.80050407 84.36974331 -29.12890625 84.3984375 C-29.13556808 83.54954453 -29.14222992 82.70065155 -29.14909363 81.82603455 C-29.20932003 73.80794712 -29.25493914 65.78993618 -29.28434277 57.77167416 C-29.29996791 53.64984895 -29.32114814 49.52821138 -29.35522461 45.40649414 C-29.38793112 41.42535634 -29.40578296 37.44439851 -29.41353798 33.46313667 C-29.4190613 31.94775118 -29.42984695 30.43237501 -29.44609642 28.91706657 C-29.46802167 26.78686467 -29.47086701 24.65739702 -29.46948242 22.52709961 C-29.47614426 21.3168663 -29.48280609 20.106633 -29.4896698 18.85972595 C-28.8624988 12.84243364 -26.44159779 7.71112904 -22.12890625 3.3984375 C-15.27103275 -0.7129319 -7.74296816 -0.03738438 0 0 Z " fill="#E6E6E6" transform="translate(591.12890625,63.6015625)"/>
<path d="M0 0 C2.88822631 2.37476386 4.4412091 3.84394067 5.8125 7.3125 C5.74240084 11.23805288 5.15599504 13.69420892 3.25 17.125 C0.02774003 20.01677177 -2.85652956 21.13725842 -7.1875 21.3125 C-10.93387042 19.96946155 -13.63498048 18.35257943 -16.1875 15.3125 C-17.65967052 10.68441903 -17.64172264 7.23776834 -15.5 2.875 C-10.89467833 -2.22819428 -6.26950386 -3.3191491 0 0 Z " fill="#8E8E8E" transform="translate(89.1875,99.6875)"/>
<path d="M0 0 C0.556875 0.2475 1.11375 0.495 1.6875 0.75 C2.58057509 3.9609165 3.28052784 6.52686027 1.77392578 9.63427734 C0.34526104 11.64718168 -1.16636901 13.54406351 -2.75 15.4375 C-3.87042765 16.83595184 -4.9875977 18.23701962 -6.1015625 19.640625 C-6.65231445 20.32962891 -7.20306641 21.01863281 -7.77050781 21.72851562 C-10.62167493 25.46627113 -12.95188532 29.52170931 -15.30078125 33.58984375 C-18.06344478 36.55635429 -20.36730805 36.52846592 -24.3125 36.75 C-26.3125 33.75 -26.3125 33.75 -26.1875 31.40625 C-24.76994746 27.1029655 -21.89816069 23.99462573 -19.125 20.46875 C-17.32238489 17.76482734 -16.68271438 15.94309907 -16.3125 12.75 C-15.6525 12.75 -14.9925 12.75 -14.3125 12.75 C-14.085625 12.193125 -13.85875 11.63625 -13.625 11.0625 C-11.16520499 6.72857546 -5.35467621 -0.57888391 0 0 Z " fill="#7E7E7E" transform="translate(620.3125,119.25)"/>
<path d="M0 0 C2.50836447 3.15337248 3.1875 4.7350455 3.1875 8.75 C1.52159831 13.3775047 -0.53479849 16.27843913 -4.8125 18.75 C-9.07122385 19.59656174 -11.93006942 19.26794839 -15.6875 17.0625 C-19.19710154 13.24322774 -19.8125 10.961011 -19.8125 5.75 C-19.30870868 2.53908908 -18.44804501 0.9506659 -16 -1.1875 C-9.80653804 -5.19503421 -5.92215433 -4.73772347 0 0 Z " fill="#8D8D8D" transform="translate(163.8125,202.25)"/>
<path d="M0 0 C4.29713923 0.78927047 5.46257548 2.03934139 8.0625 5.5625 C8.80186098 9.38397111 8.73932729 13.14908143 8.69140625 17.03125 C8.69381821 18.14431519 8.69623016 19.25738037 8.69871521 20.4041748 C8.69773697 22.75434944 8.68434901 25.10454718 8.65942383 27.45458984 C8.62511974 31.0499507 8.63876705 34.64285317 8.65820312 38.23828125 C8.65130453 40.52344795 8.64163204 42.80860832 8.62890625 45.09375 C8.63386612 46.16782104 8.63882599 47.24189209 8.64393616 48.34851074 C8.5726689 52.86918859 8.51688375 55.76670252 6.24584961 59.74414062 C4.0625 61.5625 4.0625 61.5625 0.5625 62.125 C-3.50332868 61.47156325 -4.43104893 60.73196195 -6.9375 57.5625 C-7.44543457 55.09631348 -7.44543457 55.09631348 -7.45507812 52.30664062 C-7.46768677 51.25875366 -7.48029541 50.2108667 -7.49328613 49.13122559 C-7.48518921 48.00510864 -7.47709229 46.8789917 -7.46875 45.71875 C-7.4725769 44.5575061 -7.47640381 43.39626221 -7.48034668 42.1998291 C-7.48306792 39.74535251 -7.47569205 37.29084702 -7.45898438 34.83642578 C-7.43757965 31.07649159 -7.45878088 27.31846841 -7.484375 23.55859375 C-7.48173176 21.17447494 -7.47660688 18.79035733 -7.46875 16.40625 C-7.47684692 15.28013306 -7.48494385 14.15401611 -7.49328613 12.99377441 C-7.48067749 11.94588745 -7.46806885 10.89800049 -7.45507812 9.81835938 C-7.45189575 8.89776733 -7.44871338 7.97717529 -7.44543457 7.02868652 C-6.56074077 2.73321216 -4.21231701 0.8066139 0 0 Z M-4.64370728 3.76330566 C-6.351464 6.13817311 -6.3178744 7.62418016 -6.32568359 10.53710938 C-6.33986832 12.0538324 -6.33986832 12.0538324 -6.3543396 13.60119629 C-6.34826691 14.69186401 -6.34219421 15.78253174 -6.3359375 16.90625 C-6.33880768 18.02688843 -6.34167786 19.14752686 -6.34463501 20.30212402 C-6.34667747 22.67261256 -6.34113499 25.04311788 -6.32861328 27.41357422 C-6.312563 31.04823383 -6.32845669 34.68178135 -6.34765625 38.31640625 C-6.34567385 40.61718996 -6.34183025 42.91797298 -6.3359375 45.21875 C-6.34201019 46.30941772 -6.34808289 47.40008545 -6.3543396 48.52380371 C-6.34488312 49.53495239 -6.33542664 50.54610107 -6.32568359 51.58789062 C-6.32329681 52.4781897 -6.32091003 53.36848877 -6.31845093 54.2857666 C-6.10195336 56.61483435 -6.10195336 56.61483435 -4.63980103 58.35778809 C-1.87063374 60.31751716 0.79002065 59.80490588 4.0625 59.5625 C5.72517001 57.89982999 5.18994035 55.91633043 5.19189453 53.63134766 C5.19504669 52.58000641 5.19819885 51.52866516 5.20144653 50.44546509 C5.1994223 49.30072723 5.19739807 48.15598938 5.1953125 46.9765625 C5.19626923 45.80870209 5.19722595 44.64084167 5.19821167 43.43759155 C5.19889381 40.96099799 5.1970372 38.48440265 5.19287109 36.0078125 C5.18753289 32.21089664 5.19281004 28.4140996 5.19921875 24.6171875 C5.19855779 22.21614557 5.19727625 19.81510372 5.1953125 17.4140625 C5.19733673 16.27337311 5.19936096 15.13268372 5.20144653 13.95742798 C5.19829437 12.89978241 5.19514221 11.84213684 5.19189453 10.75244141 C5.19109894 9.82058014 5.19030334 8.88871887 5.18948364 7.92861938 C5.15914031 5.41086579 5.15914031 5.41086579 4.0625 2.5625 C-0.53966338 2.10525981 -0.53966338 2.10525981 -4.64370728 3.76330566 Z " fill="#BBBBBB" transform="translate(272.9375,140.4375)"/>
<path d="M0 0 C2.375 0.6875 2.375 0.6875 3.375 1.6875 C3.41563832 3.35367115 3.417721 5.02138095 3.375 6.6875 C4.24125 6.3575 5.1075 6.0275 6 5.6875 C9.3726526 4.68819553 11.88431707 4.37016519 15.375 4.6875 C17.375 6.6875 17.375 6.6875 17.69921875 9.01171875 C17.29757134 12.32651964 16.22755777 13.87706858 14.1875 16.5 C13.59582031 17.29019531 13.00414062 18.08039063 12.39453125 18.89453125 C10.375 20.6875 10.375 20.6875 7.7421875 21.046875 C5.375 20.6875 5.375 20.6875 3.6875 19.125 C2.04803258 16.08027478 1.21146055 13.03334219 0.375 9.6875 C-0.553125 9.5328125 -0.553125 9.5328125 -1.5 9.375 C-3.625 8.6875 -3.625 8.6875 -5.625 5.6875 C-5.625 4.3675 -5.625 3.0475 -5.625 1.6875 C-2.625 -0.3125 -2.625 -0.3125 0 0 Z " fill="#F3F3F3" transform="translate(593.625,111.3125)"/>
<path d="M0 0 C0.33 0 0.66 0 1 0 C1 23.1 1 46.2 1 70 C-3.95 70.99 -3.95 70.99 -9 72 C-13.18198231 74.11314618 -13.18198231 74.11314618 -15.875 77.75 C-16.30733629 84.6526481 -16.30733629 84.6526481 -14.875 91.3125 C-14.441875 92.6428125 -14.441875 92.6428125 -14 94 C-14.66 94.99 -15.32 95.98 -16 97 C-16.3168217 99.37755949 -16.3168217 99.37755949 -16.25 101.9375 C-16.25515625 102.79214844 -16.2603125 103.64679688 -16.265625 104.52734375 C-15.98484811 107.14104624 -15.21060596 108.69888787 -14 111 C-14 111.99 -14 112.98 -14 114 C-14.66 114 -15.32 114 -16 114 C-16.76854875 122.14713836 -16.76854875 122.14713836 -14.1875 129.625 C-12.0406553 132.14349589 -12.0406553 132.14349589 -9 134 C-8.8125 136.13671875 -8.8125 136.13671875 -9 138.6875 C-9.17265873 143.64424427 -8.27948205 146.63099273 -6 151 C-6.66 151 -7.32 151 -8 151 C-10.27266892 147.2451557 -11.14131256 144.37510663 -11.3125 140.0625 C-11.64548827 135.15647282 -13.19472075 132.80527925 -16.625 129.375 C-19.04782536 126.95217464 -19.15938073 125.05682621 -19.1875 121.75 C-19.17242593 118.61961738 -18.90232264 116.71239443 -17.875 113.6875 C-16.69403426 111.09895495 -16.69403426 111.09895495 -17.875 109.125 C-18.431875 108.073125 -18.431875 108.073125 -19 107 C-19.29432733 102.51150827 -19.17197083 99.5732361 -17.875 95.25 C-16.85310742 91.45439898 -17.30049819 91.26353608 -19 88 C-19.71485159 83.4282747 -19.41684771 79.88371714 -17.4375 75.6875 C-14.6349198 72.59747567 -12.02918521 70.23194512 -8 69 C-5.36 69 -2.72 69 0 69 C0 46.23 0 23.46 0 0 Z " fill="#EBEBEB" transform="translate(562,79)"/>
<path d="M0 0 C3.76991795 0.70685962 5.40418092 1.74418215 8 4.5625 C9.23674251 8.19543114 9.34458203 9.80441953 7.75 13.3125 C5.43974596 16.28282663 3.81954847 17.45787679 0.0625 17.9375 C-3.67686517 17.47961855 -4.6965709 16.46311443 -7 13.5625 C-8.44430855 10.67388291 -8.37688506 8.76602299 -8 5.5625 C-5.53959272 2.23371368 -4.10389613 0.76948052 0 0 Z " fill="#979797" transform="translate(273,117.4375)"/>
<path d="M0 0 C3.1359157 1.77984405 3.84102736 2.52308207 5 6 C5.08021999 7.40824893 5.10765977 8.81997231 5.09765625 10.23046875 C5.09443359 11.03291016 5.09121094 11.83535156 5.08789062 12.66210938 C5.07951172 13.49548828 5.07113281 14.32886719 5.0625 15.1875 C5.05798828 16.03248047 5.05347656 16.87746094 5.04882812 17.74804688 C5.03705403 19.83206155 5.0191189 21.91603977 5 24 C6.21816406 23.96519531 7.43632812 23.93039063 8.69140625 23.89453125 C10.31509028 23.86637488 11.93878935 23.83907671 13.5625 23.8125 C14.36236328 23.78736328 15.16222656 23.76222656 15.98632812 23.73632812 C21.43451723 23.66961561 25.18684101 24.38786509 30 27 C30.495 27.99 30.495 27.99 31 29 C30.48695313 28.79503906 29.97390625 28.59007812 29.4453125 28.37890625 C20.81400657 25.34196527 12.05390453 25.28601659 3 25 C2.97494385 24.36908447 2.9498877 23.73816895 2.92407227 23.08813477 C2.80845863 20.24603175 2.68557684 17.40428917 2.5625 14.5625 C2.52318359 13.56927734 2.48386719 12.57605469 2.44335938 11.55273438 C2.38051758 10.13637695 2.38051758 10.13637695 2.31640625 8.69140625 C2.27974854 7.81685791 2.24309082 6.94230957 2.20532227 6.04125977 C2.21818934 4.0072598 2.21818934 4.0072598 1 3 C-0.34747084 2.76924918 -1.70377565 2.58846937 -3.0625 2.4375 C-4.361875 2.293125 -5.66125 2.14875 -7 2 C-8.0071054 5.02131619 -8.12670471 7.04049838 -8.12939453 10.19897461 C-8.13254669 11.26115707 -8.13569885 12.32333954 -8.13894653 13.41770935 C-8.1369223 14.5676387 -8.13489807 15.71756805 -8.1328125 16.90234375 C-8.13376923 18.0904213 -8.13472595 19.27849884 -8.13571167 20.50257874 C-8.13639308 23.02361097 -8.13454153 25.54464495 -8.13037109 28.06567383 C-8.12506474 31.89082896 -8.13029532 35.71586437 -8.13671875 39.54101562 C-8.13605713 41.99479192 -8.13477424 44.44856815 -8.1328125 46.90234375 C-8.13483673 48.03405502 -8.13686096 49.1657663 -8.13894653 50.33177185 C-8.11793564 57.6009017 -7.71544355 64.7662691 -7 72 C-11.82502675 64.76245987 -11.30763136 55.89510362 -11.30078125 47.484375 C-11.30506638 46.31038147 -11.3093515 45.13638794 -11.31376648 43.92681885 C-11.31948228 41.45935712 -11.32003046 38.99187856 -11.31567383 36.52441406 C-11.31249811 32.74775754 -11.33606275 28.97187329 -11.36132812 25.1953125 C-11.36359979 22.79166765 -11.36430523 20.3880207 -11.36328125 17.984375 C-11.372491 16.85723083 -11.38170074 15.73008667 -11.39118958 14.56878662 C-11.38496078 13.5170929 -11.37873199 12.46539917 -11.37231445 11.38183594 C-11.37294388 10.46078064 -11.3735733 9.53972534 -11.3742218 8.59075928 C-10.92086572 5.45214876 -9.84198646 3.56005076 -8 1 C-5.19084526 -0.40457737 -3.11189466 -0.24895157 0 0 Z " fill="#E9E9E9" transform="translate(218,118)"/>
<path d="M0 0 C0 0.33 0 0.66 0 1 C-1.98 1.66 -3.96 2.32 -6 3 C-6.33 4.65 -6.66 6.3 -7 8 C-3.70640806 9.64679597 -0.0437048 9.15633509 3.57714844 9.16113281 C4.90912262 9.16858017 4.90912262 9.16858017 6.26800537 9.17617798 C9.21513638 9.19082088 12.16221354 9.19760585 15.109375 9.203125 C17.15480552 9.20887558 19.20023602 9.21463333 21.2456665 9.22039795 C25.53975679 9.2309146 29.83382833 9.23675263 34.12792969 9.24023438 C39.62702999 9.2457144 45.1258821 9.26972919 50.62490463 9.29820633 C54.85256673 9.31684406 59.08016925 9.32203896 63.30786896 9.32357025 C65.33483484 9.32659575 67.3617997 9.33462079 69.38872528 9.34775543 C72.22776557 9.36483623 75.06620241 9.36293042 77.90527344 9.35644531 C78.74082764 9.3656601 79.57638184 9.37487488 80.43725586 9.3843689 C85.39574865 9.34894102 88.64712547 8.62240764 93 6 C93.66 5.67 94.32 5.34 95 5 C93.997166 7.90821861 93.10911892 8.92997788 90.48722839 10.61245728 C86.1047242 12.3562237 82.49760059 12.42179884 77.8293457 12.38818359 C76.47463669 12.39606903 76.47463669 12.39606903 75.09255981 12.40411377 C72.12012221 12.41727222 69.14822389 12.40859259 66.17578125 12.3984375 C64.10645953 12.4004589 62.0371385 12.40337088 59.96781921 12.40713501 C55.63790075 12.41155228 51.30816829 12.40514445 46.97827148 12.39111328 C41.42289912 12.37398972 35.86796055 12.38388651 30.31260395 12.40183067 C26.04301162 12.4126572 21.77352263 12.40922792 17.50392723 12.4014473 C15.45495744 12.39944382 13.40597832 12.4019097 11.35701942 12.40888596 C8.49858236 12.41648529 5.64085476 12.40491898 2.7824707 12.38818359 C1.50836082 12.39729263 1.50836082 12.39729263 0.20851135 12.40658569 C-5.55808879 12.34388092 -5.55808879 12.34388092 -7.71725178 10.66369057 C-9.69460353 8.09911757 -9.39158567 6.13268539 -9 3 C-6.77089201 -0.71517998 -4.03410755 -0.2689405 0 0 Z " fill="#DFDFDF" transform="translate(569,214)"/>
<path d="M0 0 C25.08 0 50.16 0 76 0 C76 11 76 11 73.91690063 14.14904785 C70.42021179 16.36791114 68.45389739 16.62247579 64.32958984 16.61523438 C63.68018936 16.62078339 63.03078888 16.6263324 62.36170959 16.63204956 C60.22735481 16.64380666 58.09514181 16.61962144 55.9609375 16.59375 C54.473115 16.59203812 52.98528948 16.59210536 51.49746704 16.59387207 C48.38538608 16.59222125 45.27402761 16.57356464 42.16210938 16.54199219 C38.17263856 16.50224526 34.18411033 16.49795612 30.19447899 16.50545502 C27.12494261 16.50852318 24.05561832 16.49641102 20.98613358 16.47932434 C19.51493281 16.47229356 18.04370801 16.4691699 16.57249069 16.47001648 C14.51842444 16.46821975 12.46549146 16.44685399 10.41162109 16.41992188 C8.65886368 16.40729309 8.65886368 16.40729309 6.87069702 16.39440918 C4 16 4 16 2.16177368 14.72375488 C-0.92180526 10.14856581 0 5.47150517 0 0 Z M2 1 C1.14229403 9.38356456 1.14229403 9.38356456 4.10704041 13.02305603 C7.49294407 15.33686015 9.21753337 15.62753224 13.28735352 15.63110352 C14.53537247 15.64363663 15.78339142 15.65616974 17.06922913 15.66908264 C18.4224655 15.65681522 19.77569184 15.64339534 21.12890625 15.62890625 C22.524655 15.62973546 23.92040364 15.63219681 25.31614685 15.63621521 C28.23572317 15.63906862 31.15453036 15.62441684 34.07397461 15.59692383 C37.81241677 15.56280838 41.5494871 15.5688731 45.28799534 15.5875864 C48.16801858 15.59816369 51.04772355 15.58921286 53.92771721 15.57420158 C55.3059895 15.56902667 56.68429512 15.56949323 58.06256294 15.57574654 C59.98909949 15.58120763 61.9156526 15.55795345 63.84204102 15.53344727 C64.93726578 15.52724869 66.03249054 15.52105011 67.16090393 15.5146637 C70.67267406 14.87805946 71.83200987 13.78381015 74 11 C75.36893239 7.4202491 75.36893239 7.4202491 75 1 C50.91 1 26.82 1 2 1 Z " fill="#F6F6F6" transform="translate(571,194)"/>
<path d="M0 0 C5.11013 5.11013 3.30241015 15.03715707 3.35009766 21.83520508 C3.36668339 23.56841434 3.39400806 25.30155447 3.43212891 27.03442383 C3.48695504 29.54283847 3.50877391 32.04966039 3.5234375 34.55859375 C3.54610687 35.32956894 3.56877625 36.10054413 3.59213257 36.8948822 C3.57632035 40.93099403 3.17557355 42.77559906 0.65869141 45.99243164 C-2 48 -2 48 -5.0625 48.5625 C-8.76216895 47.85405275 -9.73997144 46.99577552 -12 44 C-12.39484308 41.26928328 -12.55810417 38.92774555 -12.5390625 36.19921875 C-12.55675186 35.06731865 -12.55675186 35.06731865 -12.57479858 33.91255188 C-12.61003087 31.50399166 -12.61921947 29.09629658 -12.625 26.6875 C-12.64141187 24.28967712 -12.66363725 21.89223679 -12.69662476 19.49458313 C-12.71604753 18.00541478 -12.72561244 16.51607275 -12.72354126 15.02677917 C-12.77150186 10.29002807 -13.53496614 6.45296058 -15 2 C-12 3 -12 3 -11 5 C-10.86716524 7.81886207 -10.79004687 10.61710176 -10.75390625 13.4375 C-10.72097889 15.15365115 -10.68776706 16.86979685 -10.65429688 18.5859375 C-10.60679071 21.29846586 -10.56234168 24.01097043 -10.52319336 26.72363281 C-10.48359243 29.33681973 -10.43203082 31.94955804 -10.37890625 34.5625 C-10.36628502 35.7844104 -10.36628502 35.7844104 -10.35340881 37.03100586 C-10.43412247 41.48682797 -10.43412247 41.48682797 -8 45 C-5.67724823 45.40047444 -3.34260643 45.7397104 -1 46 C-0.07312675 43.21938025 0.12193396 41.57948141 0.11352539 38.7121582 C0.11344986 37.85149246 0.11337433 36.99082672 0.11329651 36.1040802 C0.10555458 34.71644722 0.10555458 34.71644722 0.09765625 33.30078125 C0.0962413 32.35059616 0.09482635 31.40041107 0.09336853 30.4214325 C0.08776875 27.38508971 0.07521632 24.34882052 0.0625 21.3125 C0.05748497 19.25455836 0.05292207 17.19661556 0.04882812 15.13867188 C0.0377994 10.09241954 0.02053493 5.04622225 0 0 Z " fill="#E2E2E2" transform="translate(476,154)"/>
<path d="M0 0 C0 3.88291746 -1.37860494 5.46752535 -3.5 8.6875 C-4.1496875 9.68136719 -4.799375 10.67523438 -5.46875 11.69921875 C-5.9740625 12.45847656 -6.479375 13.21773437 -7 14 C-6.01 13.67 -5.02 13.34 -4 13 C-1.00435992 12.98559606 1.95841058 13.32826856 4.9375 13.625 C5.74896484 13.68300781 6.56042969 13.74101562 7.39648438 13.80078125 C11.5600701 14.21748138 13.4418397 14.47407389 16.5703125 17.421875 C18 20 18 20 17.9375 22.625 C16.94135968 25.14855548 16.13790618 26.35545679 14 28 C10.39707048 29.20097651 7.09092969 29.16218678 3.33984375 29.16796875 C2.59416641 29.17129715 1.84848907 29.17462555 1.08021545 29.17805481 C-0.49412418 29.18311236 -2.06847451 29.1854635 -3.64282227 29.18530273 C-6.05698116 29.18749499 -8.47068722 29.20567832 -10.88476562 29.22460938 C-12.41406093 29.22754234 -13.94335842 29.22952778 -15.47265625 29.23046875 C-16.19663101 29.23765427 -16.92060577 29.24483978 -17.66651917 29.25224304 C-22.77116697 29.22883303 -22.77116697 29.22883303 -25 27 C-23.85934082 26.98018066 -22.71868164 26.96036133 -21.54345703 26.93994141 C-17.32024677 26.86399433 -13.09738601 26.77526072 -8.87451172 26.68261719 C-7.04515471 26.64428223 -5.21572115 26.60943737 -3.38623047 26.578125 C-0.75981241 26.53257195 1.86607659 26.47456269 4.4921875 26.4140625 C5.72350906 26.39673569 5.72350906 26.39673569 6.97970581 26.37905884 C11.4624644 26.4427456 11.4624644 26.4427456 15 24 C15.41666667 21.5 15.41666667 21.5 15 19 C11.71252584 16.80835056 10.51505175 16.71320614 6.67578125 16.5859375 C5.64775391 16.54726562 4.61972656 16.50859375 3.56054688 16.46875 C2.48869141 16.4378125 1.41683594 16.406875 0.3125 16.375 C-0.77095703 16.33632812 -1.85441406 16.29765625 -2.97070312 16.2578125 C-5.64696467 16.16349491 -8.32321843 16.07789995 -11 16 C-9.30213734 12.47671138 -7.25830328 9.46727614 -4.9375 6.3125 C-4.22464844 5.33925781 -3.51179688 4.36601562 -2.77734375 3.36328125 C-1 1 -1 1 0 0 Z " fill="#E7E7E7" transform="translate(318,173)"/>
<path d="M0 0 C2.31 0.33 4.62 0.66 7 1 C7.875 3.5 7.875 3.5 8 7 C6.09030752 10.31778852 3.70778054 13.29221946 1 16 C-1.4375 16.1875 -1.4375 16.1875 -4 16 C-6 14 -6 14 -6.3125 11.67578125 C-5.93444973 8.43872578 -4.88754026 6.82219161 -3 4.1875 C-2.1646875 3.00220703 -2.1646875 3.00220703 -1.3125 1.79296875 C-0.879375 1.20128906 -0.44625 0.60960937 0 0 Z " fill="#7F7F7F" transform="translate(613,144)"/>
<path d="M0 0 C0.556875 0.2475 1.11375 0.495 1.6875 0.75 C2.58057509 3.9609165 3.28052784 6.52686027 1.77392578 9.63427734 C0.34526104 11.64718168 -1.16636901 13.54406351 -2.75 15.4375 C-3.87042765 16.83595184 -4.9875977 18.23701962 -6.1015625 19.640625 C-6.65231445 20.32962891 -7.20306641 21.01863281 -7.77050781 21.72851562 C-10.62167493 25.46627113 -12.95188532 29.52170931 -15.30078125 33.58984375 C-18.06344478 36.55635429 -20.36730805 36.52846592 -24.3125 36.75 C-26.3125 33.75 -26.3125 33.75 -26.1875 31.40625 C-24.76994746 27.1029655 -21.89816069 23.99462573 -19.125 20.46875 C-17.32238489 17.76482734 -16.68271438 15.94309907 -16.3125 12.75 C-15.6525 12.75 -14.9925 12.75 -14.3125 12.75 C-14.085625 12.193125 -13.85875 11.63625 -13.625 11.0625 C-11.16520499 6.72857546 -5.35467621 -0.57888391 0 0 Z M-3.3125 1.75 C-5.21756878 3.75245249 -6.80844567 5.66407827 -8.4375 7.875 C-8.91034424 8.50011475 -9.38318848 9.12522949 -9.87036133 9.76928711 C-10.86118508 11.08637979 -11.84552154 12.40837463 -12.82373047 13.73486328 C-14.28330722 15.71048586 -15.76669424 17.66623009 -17.25390625 19.62109375 C-18.17094471 20.85031551 -19.08637139 22.08074173 -20 23.3125 C-20.650896 24.16835693 -20.650896 24.16835693 -21.31494141 25.04150391 C-23.74134374 28.38659304 -24.84638408 30.59498912 -24.3125 34.75 C-21.94640803 35.05303273 -21.94640803 35.05303273 -19.3125 34.75 C-17.53052519 33.28584718 -17.53052519 33.28584718 -16.125 31.125 C-15.5371875 30.31289062 -14.949375 29.50078125 -14.34375 28.6640625 C-13.6734375 27.70242187 -13.003125 26.74078125 -12.3125 25.75 C-11.47031363 24.56919571 -10.62647395 23.38956939 -9.78125 22.2109375 C-8.46999819 20.38196605 -7.16138292 18.55159708 -5.86450195 16.71240234 C-3.98886429 14.05565562 -2.09413667 11.49113083 0.00390625 9.00390625 C2.01064119 6.8400129 2.01064119 6.8400129 1.4375 3.9375 C1.19 3.215625 0.9425 2.49375 0.6875 1.75 C-0.6325 1.75 -1.9525 1.75 -3.3125 1.75 Z " fill="#E8E8E8" transform="translate(620.3125,119.25)"/>
<path d="M0 0 C1.9375 0.25 1.9375 0.25 4 1 C4.66 1.99 5.32 2.98 6 4 C4.68 3.34 3.36 2.68 2 2 C1.67 2.33 1.34 2.66 1 3 C1.04746726 6.25150761 1.12206752 8.90713508 3.22460938 11.52441406 C4.84303454 12.98386844 6.50893521 14.31443919 8.25 15.625 C10.51096484 17.40328695 12.75798732 19.19791023 15 21 C15.95648437 21.75667969 16.91296875 22.51335937 17.8984375 23.29296875 C20.7849837 27.01114071 20.58749641 30.18749709 20.375 34.6875 C20.35284424 35.54239014 20.33068848 36.39728027 20.30786133 37.27807617 C20.25486373 39.15806993 20.18990294 41.03775386 20.11474609 42.91699219 C19.99149725 46.22845264 19.92497957 49.53840924 19.86328125 52.8515625 C19.80665156 55.17192377 19.74808124 57.49223854 19.6875 59.8125 C19.6654248 60.91489014 19.64334961 62.01728027 19.62060547 63.15307617 C19.33402663 71.51976461 18.04648459 77.77028861 12 84 C9.87109375 84.6328125 9.87109375 84.6328125 8 85 C8.39832031 84.5875 8.79664063 84.175 9.20703125 83.75 C9.73683594 83.1725 10.26664063 82.595 10.8125 82 C11.33457031 81.443125 11.85664062 80.88625 12.39453125 80.3125 C16.89320648 73.83265635 17.5034569 67.27292328 17.609375 59.62109375 C17.62647522 58.65019302 17.64357544 57.6792923 17.66119385 56.67897034 C17.68938252 54.63772236 17.70908128 52.59634117 17.72070312 50.55493164 C17.74996601 47.44111635 17.84319123 44.3331382 17.9375 41.22070312 C18.45231651 31.22644886 18.45231651 31.22644886 15.09936523 22.17138672 C12.80037026 20.38630704 10.6504333 19.18080385 8 18 C6.50573576 16.7680875 5.02125715 15.52375884 3.5625 14.25 C2.92441406 13.69828125 2.28632812 13.1465625 1.62890625 12.578125 C0 11 0 11 -2 8 C-1.43396226 1.43396226 -1.43396226 1.43396226 0 0 Z " fill="#E7E7E6" transform="translate(637,133)"/>
<path d="M0 0 C3.1671589 2.59131183 3.98592491 5.07315602 5 9 C5.31080496 12.5867186 5.32465696 16.15153911 5.3125 19.75 C5.32861328 20.6884375 5.34472656 21.626875 5.36132812 22.59375 C5.36739384 31.37689897 4.09831468 39.99000707 -2.22265625 46.52734375 C-8.5637606 51.78140164 -14.83119783 52.43429551 -22.88671875 52.3359375 C-26.16071442 51.98265817 -28.92396807 51.15293551 -32 50 C-28.37985052 48.83797671 -25.08960866 49.00034295 -21.3125 49.125 C-14.20105037 49.16940031 -8.4942861 48.48278223 -2.625 44.3125 C2.5208819 36.98951422 2.43498894 29.64281939 2.3125 21 C2.31572266 19.86304688 2.31894531 18.72609375 2.32226562 17.5546875 C2.2827456 11.36082146 1.8228614 5.92611516 0 0 Z " fill="#DDDDDD" transform="translate(252,150)"/>
<path d="M0 0 C2.125 0.375 2.125 0.375 4 1 C3.50628906 1.36351563 3.01257813 1.72703125 2.50390625 2.1015625 C1.86324219 2.60429688 1.22257813 3.10703125 0.5625 3.625 C-0.07558594 4.11226563 -0.71367188 4.59953125 -1.37109375 5.1015625 C-4.77985957 9.07436871 -4.14114771 15.00952145 -4.20532227 20.01513672 C-4.21522186 20.68900925 -4.22512146 21.36288177 -4.23532104 22.05717468 C-4.26668184 24.26464432 -4.29159184 26.47213541 -4.31640625 28.6796875 C-4.33699779 30.21811453 -4.35799482 31.75653618 -4.37937927 33.29495239 C-4.43437285 37.32917912 -4.48388155 41.36345497 -4.53222656 45.39776611 C-4.58260824 49.52042981 -4.63820701 53.64302285 -4.69335938 57.765625 C-4.80066281 65.84369011 -4.90216863 73.92181464 -5 82 C-5.33 82 -5.66 82 -6 82 C-6.09284578 72.60294378 -6.16383862 63.20604645 -6.20724869 53.80863094 C-6.22808767 49.44460234 -6.2563373 45.0808885 -6.30175781 40.71704102 C-6.34534805 36.50247178 -6.36916485 32.28820454 -6.37950897 28.0734272 C-6.38687679 26.46870739 -6.40126452 24.86400336 -6.42292023 23.25941277 C-6.45213086 21.00453372 -6.45594886 18.75088863 -6.45410156 16.49584961 C-6.46298401 15.21455673 -6.47186646 13.93326385 -6.48101807 12.61314392 C-5.78945696 7.41851615 -3.74748818 3.74748818 0 0 Z " fill="#B6B6B6" transform="translate(569,67)"/>
<path d="M0 0 C1.65 0.33 3.3 0.66 5 1 C4.59791618 6.62917348 2.71069698 9.00386479 -1 13 C-2.65 12.67 -4.3 12.34 -6 12 C-5.59791618 6.37082652 -3.71069698 3.99613521 0 0 Z " fill="#818181" transform="translate(604,117)"/>
<path d="M0 0 C3.23535087 0.471822 4.62741513 1.24742166 7 3.4375 C6.67 4.0975 6.34 4.7575 6 5.4375 C5.34 4.7775 4.68 4.1175 4 3.4375 C0.5 3.10416667 0.5 3.10416667 -3 3.4375 C-5.2169323 5.23573929 -5.2169323 5.23573929 -5.24050903 7.69009399 C-5.23606781 8.62719208 -5.23162659 9.56429016 -5.22705078 10.52978516 C-5.22689972 11.59073395 -5.22674866 12.65168274 -5.22659302 13.74478149 C-5.21627045 14.89376923 -5.20594788 16.04275696 -5.1953125 17.2265625 C-5.1924826 18.40012299 -5.18965271 19.57368347 -5.18673706 20.7828064 C-5.17551355 24.54280662 -5.15040492 28.30257139 -5.125 32.0625 C-5.11497301 34.6067674 -5.10584668 37.15103852 -5.09765625 39.6953125 C-5.07556714 45.9427891 -5.04206824 52.19012773 -5 58.4375 C-5.66 58.1075 -6.32 57.7775 -7 57.4375 C-7.10134735 49.96284555 -7.1714435 42.488368 -7.21972656 35.01318359 C-7.23985272 32.46982197 -7.26715637 29.92650667 -7.30175781 27.38330078 C-7.3502297 23.72937596 -7.37295916 20.07606244 -7.390625 16.421875 C-7.41127014 15.28320984 -7.43191528 14.14454468 -7.45318604 12.97137451 C-7.45348816 11.91057678 -7.45379028 10.84977905 -7.45410156 9.75683594 C-7.46298401 8.82417908 -7.47186646 7.89152222 -7.48101807 6.93060303 C-6.63884915 2.56566539 -4.30648862 0.62802959 0 0 Z " fill="#F8F8F8" transform="translate(273,140.5625)"/>
<path d="M0 0 C0.69947754 0.01772461 1.39895508 0.03544922 2.11962891 0.05371094 C5.27458885 0.23813777 6.94506642 0.4647895 9.27734375 2.671875 C10.76407176 5.74631631 10.27234661 7.59015781 9.3125 10.8125 C8.3225 11.8025 7.3325 12.7925 6.3125 13.8125 C6.3125 10.1825 6.3125 6.5525 6.3125 2.8125 C1.07976669 2.76314176 -4.15283176 2.72680051 -9.38574219 2.70263672 C-11.16669067 2.69256569 -12.94762257 2.67890815 -14.72851562 2.66162109 C-17.28519783 2.63742087 -19.84166185 2.62602816 -22.3984375 2.6171875 C-23.19744476 2.60686493 -23.99645203 2.59654236 -24.81967163 2.58590698 C-26.7770722 2.58550774 -28.73393077 2.69008931 -30.6875 2.8125 C-33.04703094 5.17203094 -33.17891413 6.59145617 -33.6875 9.8125 C-34.0175 9.8125 -34.3475 9.8125 -34.6875 9.8125 C-35.05438919 4.30916222 -35.05438919 4.30916222 -33.45751953 2.14746094 C-31.24281814 0.47711787 -29.93655572 0.37810478 -27.1796875 0.265625 C-26.28290283 0.2246167 -25.38611816 0.1836084 -24.4621582 0.14135742 C-23.02682739 0.102323 -23.02682739 0.102323 -21.5625 0.0625 C-20.58434326 0.02938721 -19.60618652 -0.00372559 -18.59838867 -0.0378418 C-12.3952647 -0.20994051 -6.20107764 -0.24897334 0 0 Z " fill="#E9E9E9" transform="translate(325.6875,141.1875)"/>
<path d="M0 0 C5.41538462 -0.36923077 5.41538462 -0.36923077 8.375 1.5 C8.91125 1.995 9.4475 2.49 10 3 C9.75 5.375 9.75 5.375 9 8 C7.125 9.375 7.125 9.375 5 10 C4.01 9.67 3.02 9.34 2 9 C1.67 7.02 1.34 5.04 1 3 C0.34 3 -0.32 3 -1 3 C-0.67 2.01 -0.34 1.02 0 0 Z " fill="#E8E8E8" transform="translate(619,155)"/>
<path d="M0 0 C1.423125 0.061875 2.84625 0.12375 4.3125 0.1875 C4.6425 4.1475 4.9725 8.1075 5.3125 12.1875 C-2.9495 12.6735 -2.9495 12.6735 -6.25 10.5 C-7.96837645 7.73565528 -8.26118682 6.38375513 -7.6875 3.1875 C-5.38216769 0.12345072 -3.74893297 -0.16299709 0 0 Z M-5.6875 3.1875 C-5.6875 4.8375 -5.6875 6.4875 -5.6875 8.1875 C-2.59940305 9.95212683 -1.45437864 10.1875 2.3125 10.1875 C2.3125 7.2175 2.3125 4.2475 2.3125 1.1875 C-0.89145416 1.1875 -2.78149739 1.93085022 -5.6875 3.1875 Z " fill="#DDDDDD" transform="translate(559.6875,194.8125)"/>
<path d="M0 0 C2.31 0.33 4.62 0.66 7 1 C7.875 3.5 7.875 3.5 8 7 C6.09030752 10.31778852 3.70778054 13.29221946 1 16 C-1.4375 16.1875 -1.4375 16.1875 -4 16 C-6 14 -6 14 -6.3125 11.67578125 C-5.93444973 8.43872578 -4.88754026 6.82219161 -3 4.1875 C-2.1646875 3.00220703 -2.1646875 3.00220703 -1.3125 1.79296875 C-0.879375 1.20128906 -0.44625 0.60960937 0 0 Z M-1.8125 5.1875 C-3.78189521 8.21544513 -4.55659842 10.32645043 -4 14 C-2.68 14.33 -1.36 14.66 0 15 C4.95572653 9.22282892 4.95572653 9.22282892 6 2 C1.99374632 1.19874926 0.54432012 2.07649745 -1.8125 5.1875 Z " fill="#EAEAEA" transform="translate(613,144)"/>
<path d="M0 0 C2.4375 1.5625 2.4375 1.5625 4 3 C3.67 3.66 3.34 4.32 3 5 C2.484375 4.505 1.96875 4.01 1.4375 3.5 C-1.93763128 1.42299614 -4.09800946 1.52080818 -8 2 C-13.04936325 5.21092059 -16.00033073 9.89644454 -19.3125 14.75 C-19.86228516 15.54277344 -20.41207031 16.33554688 -20.97851562 17.15234375 C-22.32575467 19.09705402 -23.66594531 21.04623278 -25 23 C-25.33 22.01 -25.66 21.02 -26 20 C-24.5234375 17.546875 -24.5234375 17.546875 -22.375 14.75 C-19.93665781 11.54967587 -17.56619236 8.37328298 -15.375 5 C-10.90990543 -0.64011946 -6.92329697 -1.79492884 0 0 Z " fill="#EAEAEA" transform="translate(142,174)"/>
<path d="M0 0 C0.33 0.66 0.66 1.32 1 2 C0.21625 3.03125 -0.5675 4.0625 -1.375 5.125 C-1.91125 5.84816406 -2.4475 6.57132813 -3 7.31640625 C-4.07928843 8.76459209 -5.16222866 10.21023383 -6.265625 11.64013672 C-7.65110305 13.43618208 -9.01362567 15.24813911 -10.375 17.0625 C-10.82794434 17.6395166 -11.28088867 18.2165332 -11.74755859 18.81103516 C-14.85038011 23.00394093 -15.55755254 25.8395415 -15 31 C-14.67 31.99 -14.34 32.98 -14 34 C-14.66 34 -15.32 34 -16 34 C-18.34774005 30.47838992 -18.44084568 29.14702508 -18 25 C-16.6015625 22.24609375 -16.6015625 22.24609375 -14.625 19.4375 C-13.54605469 17.89642578 -13.54605469 17.89642578 -12.4453125 16.32421875 C-8.41315981 10.79369821 -4.23283518 5.3777824 0 0 Z " fill="#E3E3E3" transform="translate(307,166)"/>
<path d="M0 0 C1.485 0.99 1.485 0.99 3 2 C5.41713479 2.3663859 5.41713479 2.3663859 8.10546875 2.4140625 C9.08837891 2.45273438 10.07128906 2.49140625 11.08398438 2.53125 C12.62022461 2.57765625 12.62022461 2.57765625 14.1875 2.625 C15.22326172 2.66367188 16.25902344 2.70234375 17.32617188 2.7421875 C19.88393622 2.83648296 22.44169287 2.92208202 25 3 C23.53612288 6.01613927 21.91771103 8.58559431 19.875 11.25 C19.33617187 11.95640625 18.79734375 12.6628125 18.2421875 13.390625 C17.83226562 13.92171875 17.42234375 14.4528125 17 15 C17 10.99666851 17.93272472 8.19042242 20.625 5.1875 C21.305625 4.5996875 21.305625 4.5996875 22 4 C21.01 4.495 21.01 4.495 20 5 C17.73167291 5.12362239 15.45916213 5.17560648 13.1875 5.1875 C11.96417969 5.20167969 10.74085938 5.21585938 9.48046875 5.23046875 C6.13334057 5.00882951 3.92039013 4.62483813 1 3 C0.67 2.01 0.34 1.02 0 0 Z " fill="#EBEBEB" transform="translate(292,151)"/>
<path d="M0 0 C1.423125 0.061875 2.84625 0.12375 4.3125 0.1875 C4.3125 3.8175 4.3125 7.4475 4.3125 11.1875 C-4.3125 11.4375 -4.3125 11.4375 -7.6875 9.1875 C-8.33978645 4.07792278 -8.33978645 4.07792278 -6.45703125 1.5078125 C-4.16394549 -0.20314332 -2.82749998 -0.12293478 0 0 Z M-5.6875 3.1875 C-5.9375773 5.64559998 -5.9375773 5.64559998 -5.6875 8.1875 C-3.78994856 10.53723818 -3.78994856 10.53723818 -0.5625 10.3125 C0.38625 10.27125 1.335 10.23 2.3125 10.1875 C2.3125 7.5475 2.3125 4.9075 2.3125 2.1875 C-2.01070086 1.68383499 -2.01070086 1.68383499 -5.6875 3.1875 Z " fill="#E0E0E0" transform="translate(559.6875,156.8125)"/>
<path d="M0 0 C4.35762897 2.06581666 8.02174549 4.81346705 11.875 7.6875 C12.56980469 8.19216797 13.26460937 8.69683594 13.98046875 9.21679688 C19.73502725 13.50291342 25.15980896 18.25433304 28 25 C27.625 27.25 27.625 27.25 27 29 C26.731875 28.35933594 26.46375 27.71867187 26.1875 27.05859375 C21.60470919 16.94328903 14.37425491 12.09698048 5.41796875 5.89453125 C3.12202713 4.09561091 1.61037754 2.41289126 0 0 Z " fill="#E5E5E5" transform="translate(649,130)"/>
<path d="M0 0 C0.556875 0.2475 1.11375 0.495 1.6875 0.75 C1.3575 1.41 1.0275 2.07 0.6875 2.75 C-0.05886719 2.83121094 -0.80523438 2.91242188 -1.57421875 2.99609375 C-5.45128226 4.06353064 -6.94930321 6.6448882 -9.125 9.8125 C-9.53169922 10.38033203 -9.93839844 10.94816406 -10.35742188 11.53320312 C-11.35505162 12.92988477 -12.33551533 14.33879991 -13.3125 15.75 C-14.3025 14.76 -15.2925 13.77 -16.3125 12.75 C-15.6525 12.75 -14.9925 12.75 -14.3125 12.75 C-13.9721875 11.9146875 -13.9721875 11.9146875 -13.625 11.0625 C-11.16520499 6.72857546 -5.35467621 -0.57888391 0 0 Z " fill="#F3F3F3" transform="translate(620.3125,119.25)"/>
<path d="M0 0 C2.9375 1.25 2.9375 1.25 5 3 C5.8125 5.1875 5.8125 5.1875 6 7 C5.154375 6.34 4.30875 5.68 3.4375 5 C-0.54663009 2.68196068 -2.46544483 2.4331806 -7 3 C-10.35161246 4.38214122 -10.35161246 4.38214122 -13 6 C-10.35663021 -0.10008414 -6.25436729 -0.79246369 0 0 Z " fill="#DDDDDD" transform="translate(146,117)"/>
<path d="M0 0 C0.33 0.66 0.66 1.32 1 2 C0.67 2.99 0.34 3.98 0 5 C-0.09455661 6.97734566 -0.12989394 8.95790083 -0.125 10.9375 C-0.12757813 11.97777344 -0.13015625 13.01804688 -0.1328125 14.08984375 C-0.01932023 16.57665971 0.28071429 18.63092407 1 21 C-2.07140095 18.76625385 -3.02726327 15.89882191 -3.85546875 12.26953125 C-4.11366226 8.21519531 -2.68121503 4.6413046 -1 1 C-0.67 0.67 -0.34 0.34 0 0 Z " fill="#CFCFCF" transform="translate(630,128)"/>
<path d="M0 0 C0.66 1.32 1.32 2.64 2 4 C0.95759826 5.51403595 -0.10975321 7.01091702 -1.1875 8.5 C-1.77917969 9.3353125 -2.37085938 10.170625 -2.98046875 11.03125 C-5 13 -5 13 -7.61328125 13.40625 C-10 13 -10 13 -12 11 C-11.625 8.875 -11.625 8.875 -11 7 C-10.67 7.99 -10.34 8.98 -10 10 C-6.13639844 10.46754601 -6.13639844 10.46754601 -4.55078125 8.57421875 C-4.14214844 7.95160156 -3.73351562 7.32898438 -3.3125 6.6875 C-2.89613281 6.07261719 -2.47976563 5.45773438 -2.05078125 4.82421875 C-0.84788801 2.87616429 -0.84788801 2.87616429 0 0 Z " fill="#EBEBEB" transform="translate(609,119)"/>
<path d="M0 0 C2.125 0.375 2.125 0.375 4 1 C3.51789062 1.32871094 3.03578125 1.65742187 2.5390625 1.99609375 C-2.24442504 5.59835273 -3.8811829 8.3262825 -4.80859375 14.2421875 C-4.87175781 14.82226562 -4.93492187 15.40234375 -5 16 C-5.33 16 -5.66 16 -6 16 C-6.50126942 9.85944957 -5.31436435 6.97154653 -2 2 C-1.34 1.34 -0.68 0.68 0 0 Z " fill="#D7D7D7" transform="translate(569,67)"/>
<path d="M0 0 C0.99 0.33 1.98 0.66 3 1 C2.96519531 1.60328125 2.93039062 2.2065625 2.89453125 2.828125 C2.6253024 7.87986607 2.6253024 7.87986607 4.5 12.4375 C4.995 12.953125 5.49 13.46875 6 14 C6 14.66 6 15.32 6 16 C3.38874578 15.04254012 2.20835341 14.34378312 0.75 11.9375 C-0.2734742 7.92889271 -0.16131784 4.1136049 0 0 Z " fill="#E4E4E4" transform="translate(571,194)"/>
<path d="M0 0 C1.65 0.33 3.3 0.66 5 1 C4.67 2.65 4.34 4.3 4 6 C2.35 5.67 0.7 5.34 -1 5 C-0.67 3.35 -0.34 1.7 0 0 Z " fill="#868686" transform="translate(622,157)"/>
<path d="M0 0 C2.5625 2.625 2.5625 2.625 4 5 C1.08482708 3.92598892 -0.77810176 3.22189824 -3 1 C-8.88336903 0.49033587 -8.88336903 0.49033587 -14 3 C-13.1875 1.0625 -13.1875 1.0625 -12 -1 C-7.69856646 -2.43381118 -4.20200866 -1.57764946 0 0 Z " fill="#E9E9E9" transform="translate(645,125)"/>
<path d="M0 0 C1.65 0.33 3.3 0.66 5 1 C4.67 2.65 4.34 4.3 4 6 C2.35 5.67 0.7 5.34 -1 5 C-0.67 3.35 -0.34 1.7 0 0 Z " fill="#868686" transform="translate(591,113)"/>
<path d="M0 0 C0.33 0 0.66 0 1 0 C1.3383344 2.37438249 1.67079002 4.74934959 2 7.125 C2.14308594 8.12273437 2.14308594 8.12273437 2.2890625 9.140625 C2.83611453 13.12628981 3.10022182 16.97859938 3 21 C-0.0691251 16.39631234 -0.12326774 13.28800292 -0.0625 7.875 C-0.05798828 7.12089844 -0.05347656 6.36679688 -0.04882812 5.58984375 C-0.03703499 3.72652873 -0.01909942 1.86325445 0 0 Z " fill="#D3D3D3" transform="translate(208,169)"/>
<path d="M0 0 C1.32 1.32 2.64 2.64 4 4 C3.90686837 8.56345004 3.30067115 9.69932885 0 13 C0 8.71 0 4.42 0 0 Z " fill="#D2D2D2" transform="translate(332,142)"/>
<path d="M0 0 C2.375 1.5 2.375 1.5 4 3 C3.67 3.66 3.34 4.32 3 5 C2.34 4.34 1.68 3.68 1 3 C-3.33643601 2.68462284 -5.32653229 2.55102153 -9 5 C-8.625 3.0625 -8.625 3.0625 -8 1 C-5.19084526 -0.40457737 -3.11189466 -0.24895157 0 0 Z " fill="#E5E5E5" transform="translate(276,141)"/>
<path d="M0 0 C1.65 0 3.3 0 5 0 C5.625 2.8125 5.625 2.8125 6 6 C5.01 7.485 5.01 7.485 4 9 C3.34 9 2.68 9 2 9 C2.66 6.36 3.32 3.72 4 1 C2.68 0.67 1.36 0.34 0 0 Z " fill="#DDDDDD" transform="translate(615,145)"/>
<path d="M0 0 C1.8871875 0.061875 1.8871875 0.061875 3.8125 0.125 C3.8125 0.455 3.8125 0.785 3.8125 1.125 C2.265625 1.2178125 2.265625 1.2178125 0.6875 1.3125 C-4.07212827 2.31048657 -5.72342963 3.82990867 -9.1875 7.125 C-7.4328046 1.99589037 -5.59164481 -0.18333262 0 0 Z " fill="#828282" transform="translate(83.1875,99.875)"/>
<path d="M0 0 C2.625 -0.1875 2.625 -0.1875 5 0 C2.14723863 2.93200474 -0.65079784 5.64315404 -4 8 C-2.87548273 5.0280615 -1.77706209 2.66559313 0 0 Z " fill="#F6F6F6" transform="translate(613,144)"/>
<path d="M0 0 C0.33 0 0.66 0 1 0 C1.125 2.875 1.125 2.875 1 6 C-1 8 -1 8 -4.625 8.125 C-5.73875 8.08375 -6.8525 8.0425 -8 8 C-8 7.67 -8 7.34 -8 7 C-6.02 7 -4.04 7 -2 7 C-1.34 4.69 -0.68 2.38 0 0 Z " fill="#D3D3D3" transform="translate(477,193)"/>
<path d="M0 0 C1.98 0 3.96 0 6 0 C5.319375 0.61875 5.319375 0.61875 4.625 1.25 C2.94049626 3.06408095 2.00734029 4.75285627 1 7 C1 5.68 1 4.36 1 3 C0.34 3 -0.32 3 -1 3 C-0.67 2.01 -0.34 1.02 0 0 Z " fill="#F8F8F8" transform="translate(619,155)"/>
<path d="M0 0 C2.0625 0.4375 2.0625 0.4375 4 1 C1.03 3.475 1.03 3.475 -2 6 C-1.125 1.125 -1.125 1.125 0 0 Z " fill="#B7B7B7" transform="translate(569,67)"/>
</svg>
