<?xml version="1.0" encoding="UTF-8"?>
<svg version="1.1" xmlns="http://www.w3.org/2000/svg" width="2560" height="756">
<path d="M0 0 C0.53625 0.53367187 1.0725 1.06734375 1.625 1.6171875 C5.36173156 -0.74285349 8.73667809 -3.29243704 12.125 -6.1328125 C18.19359062 -11.03331349 24.75855891 -14.74948424 31.625 -18.3828125 C32.49511719 -18.84558594 33.36523438 -19.30835938 34.26171875 -19.78515625 C72.33729121 -38.4941895 122.88364143 -37.57178582 162.3828125 -24.16796875 C178.08184005 -18.67057409 191.17028019 -10.34460202 203.625 0.6171875 C204.53958984 1.40609375 204.53958984 1.40609375 205.47265625 2.2109375 C231.54379093 26.37142165 241.80564466 65.38829839 243.625 99.6171875 C243.81286077 107.19064885 243.76544106 114.76856252 243.7578125 122.34375 C243.75895753 124.61623656 243.76043565 126.88872296 243.76222229 129.16120911 C243.76523118 135.25846768 243.7610035 141.35569851 243.75417709 147.45295334 C243.7499968 151.24509406 243.74703817 155.03723421 243.74429321 158.82937622 C243.71717648 191.95729222 243.64554029 225.08601404 243.36053467 258.21282959 C243.32731651 262.09013418 243.3004388 265.96739975 243.27911377 269.8447876 C243.25357468 274.37141266 243.21354298 278.89767706 243.16193962 283.42407799 C243.14544718 285.05999256 243.1337205 286.69596392 243.12735176 288.33194923 C243.06492566 302.75223673 240.91035934 313.15041854 231.3125 324.3046875 C222.16965891 332.17178332 212.76831033 336.38102957 200.515625 335.9609375 C188.36265916 334.51571994 179.64277905 329.62115365 171.8125 320.3671875 C164.71798686 310.70482273 163.47033109 299.77607762 163.48696899 288.1388092 C163.48414771 287.3231744 163.48132643 286.5075396 163.47841966 285.66718858 C163.47013544 282.9539785 163.46874072 280.24080955 163.46728516 277.52758789 C163.46261221 275.57371914 163.45746786 273.61985148 163.45188904 271.66598511 C163.4406377 267.46618312 163.4321891 263.26638811 163.42576981 259.066576 C163.41504784 252.41166199 163.39479032 245.75679806 163.37265015 239.10191345 C163.31087179 220.18018907 163.256798 201.25846771 163.22363281 182.33666992 C163.20522503 171.88004899 163.17621149 161.42351221 163.1356281 150.96695322 C163.11465965 145.44276653 163.09911534 139.91868542 163.09682083 134.39445686 C163.09465639 129.1896627 163.07860598 123.98508822 163.05243111 118.78036118 C163.04530432 116.88307727 163.04310446 114.98576656 163.04653358 113.08847237 C163.07870215 91.8839729 161.10046356 68.30320518 145.375 52.33203125 C129.50855838 38.72859172 109.50035409 38.37239118 89.625 39.6171875 C76.88567657 41.10777157 64.5796839 46.9532009 56.43359375 56.99609375 C45.91784322 72.23598275 42.45114162 90.02447625 42.49369812 108.28070068 C42.49158241 109.10409573 42.48946669 109.92749077 42.48728687 110.77583718 C42.48134031 113.50910051 42.48228317 116.24231697 42.4831543 118.97558594 C42.48011925 120.94594398 42.47659684 122.91630133 42.47262573 124.88665771 C42.464763 129.11810126 42.45960176 133.34953649 42.45633507 137.58098602 C42.45040101 144.28108774 42.43383821 150.98113702 42.41499329 157.68121338 C42.40865664 159.97959515 42.40233101 162.27797696 42.39601612 164.5763588 C42.39285031 165.72706879 42.3896845 166.87777879 42.38642275 168.06335878 C42.34442513 183.65127948 42.31137373 199.2391749 42.29907227 214.82714844 C42.29067767 225.35663549 42.26813821 235.8859916 42.2297166 246.41541314 C42.21000929 251.97973079 42.19753384 257.54385294 42.20255089 263.1082077 C42.20721563 268.34506562 42.1932924 273.58155317 42.16553879 278.81833649 C42.15865868 280.73181441 42.15846588 282.6453309 42.16573906 284.55880737 C42.22078954 300.67923423 40.77039059 313.37998342 28.8984375 325.359375 C20.35988405 333.19612954 10.23780808 336.16113312 -1.21875 335.9296875 C-13.36741724 334.72684916 -22.18876075 328.86837904 -29.83984375 319.68359375 C-36.01939929 311.36556606 -37.68721553 302.1277955 -37.63328552 291.94935608 C-37.63696123 291.12540531 -37.64063693 290.30145454 -37.64442402 289.45253557 C-37.65433003 286.71707164 -37.65026795 283.98181397 -37.64624023 281.24633789 C-37.65063178 279.27423895 -37.6559355 277.30214187 -37.66207886 275.33004761 C-37.67355034 271.09369334 -37.67903622 266.8573889 -37.67996025 262.62101936 C-37.68190857 255.90692265 -37.7000057 249.19292811 -37.72071838 242.47886658 C-37.76981155 225.79648651 -37.80072179 209.11407868 -37.82202148 192.43164062 C-37.83859378 179.47385738 -37.86155657 166.51616193 -37.90504223 153.55843729 C-37.92668085 146.90067857 -37.93488928 140.2430872 -37.93264949 133.5852958 C-37.93433086 129.4194748 -37.94846884 125.25376056 -37.96586227 121.08797836 C-37.97140366 119.17498371 -37.9720016 117.26196636 -37.96692467 115.34897041 C-37.91365285 92.89950795 -39.82664768 69.53000793 -56.24609375 52.69921875 C-69.99437495 39.7254886 -87.13264142 38.8774978 -105.08984375 39.26953125 C-119.26722859 39.85823349 -133.58776656 44.37882037 -143.46484375 55.046875 C-154.10163291 69.35977329 -158.52872609 87.44204218 -158.51976013 105.06037903 C-158.52328698 105.88418192 -158.52681382 106.70798481 -158.53044754 107.55675143 C-158.54107883 110.30322096 -158.54480577 113.04965573 -158.54858398 115.79614258 C-158.55489357 117.77107386 -158.56165982 119.74600373 -158.56884766 121.72093201 C-158.58348956 125.96769223 -158.59522564 130.21444706 -158.60479546 134.46122169 C-158.62028092 141.18134237 -158.64423005 147.90141643 -158.66969299 154.62150574 C-158.74080801 173.72884167 -158.80065714 192.83620404 -158.85180664 211.94360352 C-158.88014352 222.50121355 -158.91554097 233.05877691 -158.95846039 243.61633795 C-158.98517242 250.29133173 -159.00311455 256.96627275 -159.01449764 263.64130938 C-159.02364946 267.80126435 -159.04102327 271.96115541 -159.06067657 276.12107277 C-159.06812423 278.04387401 -159.07223145 279.96669168 -159.07267189 281.88950729 C-159.0795547 298.51959785 -159.92787767 312.68437763 -171.859375 325.50390625 C-181.61802177 333.70177566 -192.8514937 336.46252418 -205.375 335.6171875 C-218.01643273 333.44903479 -226.74509824 325.5643189 -233.9453125 315.38671875 C-239.29526654 305.02300998 -238.80263887 294.51650707 -238.76318359 283.15209961 C-238.76725388 281.18135793 -238.77259833 279.21061854 -238.77911377 277.23988342 C-238.79275215 271.90419916 -238.78749946 266.56868962 -238.77797651 261.23300242 C-238.77034588 255.62062682 -238.77743642 250.00826552 -238.78213501 244.39588928 C-238.78758943 234.95652609 -238.78041622 225.51723334 -238.76611328 216.07788086 C-238.7498584 205.22632836 -238.75502422 194.37494563 -238.7715925 183.52339739 C-238.7853016 174.16405682 -238.78707932 164.80476676 -238.77927649 155.44541937 C-238.77464216 149.87516961 -238.77385486 144.30499897 -238.78388596 138.73475456 C-238.85493993 92.88983587 -237.34468197 46.50167997 -206.375 9.6171875 C-205.73304688 8.82957031 -205.09109375 8.04195313 -204.4296875 7.23046875 C-182.79013333 -18.2019962 -149.71935672 -29.76037626 -117.20825195 -32.57006836 C-76.18634487 -35.56407589 -31.00428074 -29.47446426 0 0 Z " fill="#04C0C7" transform="translate(2297.375,302.3828125)"/>
<path d="M0 0 C8.84155283 7.42391988 14.57117618 15.79455597 16.625 27.25 C16.8950815 31.07389527 16.87837922 34.88278329 16.85205078 38.71484375 C16.85234283 39.83767258 16.85263489 40.9605014 16.85293579 42.11735535 C16.85154884 45.80748374 16.83601734 49.49740712 16.8203125 53.1875 C16.81658012 55.75439341 16.81373421 58.32128825 16.81173706 60.88818359 C16.80489594 66.94054445 16.78915285 72.99282141 16.76903808 79.04515076 C16.74662436 85.93999528 16.73567194 92.83484342 16.72564721 99.72971535 C16.7047849 113.90318259 16.66964323 128.0765887 16.625 142.25 C17.69923218 142.24333817 18.77346436 142.23667633 19.88024902 142.22981262 C30.11517632 142.16840391 40.35006518 142.12374531 50.58513641 142.09456348 C55.84427196 142.07905545 61.10325619 142.05809706 66.36230469 142.02368164 C122.56678415 141.6658039 122.56678415 141.6658039 149.625 150.25 C150.32028809 150.47026855 151.01557617 150.69053711 151.73193359 150.91748047 C166.97417211 155.88989517 180.75733227 163.39745159 192.625 174.25 C193.46417969 175.00796875 194.30335938 175.7659375 195.16796875 176.546875 C223.33879652 203.27640461 230.71498925 242.85560379 231.78961182 280.20629883 C232.05921564 292.17741467 232.00437339 304.15120917 231.9475708 316.12432861 C231.93412611 319.96339945 231.93941343 323.80235466 231.94443417 327.64143848 C231.99762599 381.41578938 228.37555854 431.3690423 188.36328125 471.51953125 C156.80692253 501.30247477 113.82573896 507.41468167 72.15527344 506.37109375 C41.08997372 505.30550671 8.29205274 496.0899304 -15.375 475.25 C-16.60089844 474.22132813 -16.60089844 474.22132813 -17.8515625 473.171875 C-28.4550623 464.04564298 -36.51900284 453.40043314 -43.375 441.25 C-43.89707031 440.33089844 -44.41914062 439.41179687 -44.95703125 438.46484375 C-61.71456253 407.02789193 -62.69072276 372.09174045 -62.65110838 337.328457 C-62.6486094 333.20789378 -62.65769355 329.0873519 -62.66514587 324.96679688 C-62.67780357 316.92643651 -62.6796982 308.88610968 -62.67734561 300.84574103 C-62.67555386 294.30887021 -62.6773303 287.77200947 -62.68157005 281.23513985 C-62.68216524 280.30060235 -62.68276043 279.36606485 -62.68337366 278.40320804 C-62.68458553 276.50412603 -62.68579966 274.60504402 -62.68701603 272.70596201 C-62.69785503 254.95792647 -62.69574515 237.20991001 -62.68963119 219.46187342 C-62.68445323 203.24354322 -62.6957471 187.02527291 -62.71472941 170.80695456 C-62.73411669 154.11368293 -62.74236301 137.42043965 -62.73860615 120.7271567 C-62.73669701 111.3708537 -62.73915466 102.0146018 -62.75332069 92.65830803 C-62.76524607 84.70240491 -62.76662562 76.74658445 -62.75453053 68.79068016 C-62.74865284 64.73643536 -62.747512 60.68234169 -62.75953293 56.62810707 C-62.77042696 52.91072092 -62.76724707 49.19361148 -62.75327124 45.47623808 C-62.74939374 43.50873895 -62.76014174 41.54122736 -62.77156812 39.57375759 C-62.6929538 26.57257693 -60.37639596 14.74408679 -51.265625 4.9921875 C-37.26422416 -8.09188018 -16.37332064 -11.6136344 0 0 Z M15.625 211.25 C15.55464008 231.52247411 15.50188051 251.79492312 15.46956348 272.06749439 C15.45415333 281.48229387 15.433177 290.89701708 15.39868164 300.31176758 C15.36859873 308.52621619 15.34938259 316.74060951 15.34273452 324.95511168 C15.33885395 329.29686854 15.3298592 333.63846736 15.30780983 337.98017311 C14.65743296 381.66510184 14.65743296 381.66510184 35.22265625 418.96484375 C49.72885379 432.7634219 68.52120641 435.91505085 87.8671875 435.5 C105.63630621 434.78551996 121.85382053 428.52499067 134.3125 415.6875 C147.2731913 400.50563016 150.7638682 380.91098112 150.78613281 361.49804688 C150.79109772 360.44968658 150.79606262 359.40132629 150.80117798 358.32119751 C150.81572031 354.87037485 150.82258955 351.41959821 150.828125 347.96875 C150.83095238 346.78247513 150.83377975 345.59620026 150.83669281 344.37397766 C150.85165599 338.09208963 150.86090268 331.81022439 150.86523438 325.52832031 C150.8707044 319.07754116 150.89470987 312.62697463 150.92320633 306.1762619 C150.94194363 301.18301815 150.94704426 296.18982439 150.94857025 291.19654846 C150.951574 288.82059064 150.95952426 286.44463321 150.97275543 284.06871033 C151.34098647 260.23035462 151.34098647 260.23035462 144.0625 237.8125 C143.71880371 237.1527417 143.37510742 236.4929834 143.02099609 235.81323242 C137.07846254 225.04222478 127.45063855 218.47637694 115.7890625 215.09765625 C102.36010444 211.4731934 89.42108034 211.10830545 75.5859375 211.15234375 C73.85145102 211.15421209 72.11696401 211.15563403 70.38247681 211.15663147 C65.84847521 211.16042388 61.31450636 211.17022568 56.78051758 211.18133545 C52.14144331 211.19162052 47.50236367 211.1961442 42.86328125 211.20117188 C33.78383989 211.21185132 24.70442268 211.22888774 15.625 211.25 Z " fill="#04C0C7" transform="translate(914.375,130.75)"/>
<path d="M0 0 C13.33950744 11.57138421 21.11924996 26.93988306 22.47265625 44.515625 C22.97196544 65.61686566 14.31061484 80.61534834 1.81103516 96.69433594 C-0.95423459 100.30207734 -3.5998248 103.99482935 -6.25 107.6875 C-7.06053833 108.81345581 -7.06053833 108.81345581 -7.88745117 109.9621582 C-9.53029792 112.2447709 -11.17142877 114.5286106 -12.8125 116.8125 C-20.01106631 126.81946582 -27.25503046 136.78941537 -34.57958984 146.70458984 C-40.72169634 155.02752749 -46.77040683 163.41682215 -52.8125 171.8125 C-60.01313208 181.81800398 -67.25500786 191.78938478 -74.57958984 201.70458984 C-80.72169634 210.02752749 -86.77040683 218.41682215 -92.8125 226.8125 C-99.49476075 236.09771077 -106.20139007 245.36199699 -113 254.5625 C-117.81644216 261.08118079 -122.57272935 267.6369828 -127.26953125 274.2421875 C-135.26095775 285.47765843 -143.38672395 296.61394428 -151.57885742 307.70361328 C-157.72123208 316.0268588 -163.77016919 324.41649195 -169.8125 332.8125 C-177.01313208 342.81800398 -184.25500786 352.78938478 -191.57958984 362.70458984 C-197.72169634 371.02752749 -203.77040683 379.41682215 -209.8125 387.8125 C-217.01313208 397.81800398 -224.25500786 407.78938478 -231.57958984 417.70458984 C-237.17682174 425.2891884 -242.69658627 432.9283833 -248.20361328 440.57861328 C-251.43933445 445.07130656 -254.68277224 449.55843763 -257.92675781 454.04516602 C-260.70511762 457.88912334 -263.47699219 461.73750755 -266.23828125 465.59375 C-280.28049897 485.18445432 -293.49199295 502.68922404 -318.546875 507.41015625 C-337.02354949 509.68658863 -353.74218548 505.79692852 -368.74609375 494.62890625 C-380.28882044 484.87922449 -388.14396008 471.73762589 -390.8125 456.8125 C-392.87856119 429.20707279 -382.75708313 412.39027838 -366.8125 390.8125 C-365.64696881 389.23059149 -364.48160398 387.64856039 -363.31640625 386.06640625 C-361.56100365 383.68407415 -359.80493011 381.3022505 -358.046875 378.921875 C-351.90349845 370.59903004 -345.85498739 362.20872563 -339.8125 353.8125 C-332.61186792 343.80699602 -325.36999214 333.83561522 -318.04541016 323.92041016 C-311.90330366 315.59747251 -305.85459317 307.20817785 -299.8125 298.8125 C-292.61186792 288.80699602 -285.36999214 278.83561522 -278.04541016 268.92041016 C-272.44817826 261.3358116 -266.92841373 253.6966167 -261.42138672 246.04638672 C-258.18103805 241.54726831 -254.93222298 237.05425881 -251.68505859 232.56005859 C-248.98651978 228.824555 -246.28992047 225.0876852 -243.59765625 221.34765625 C-237.46493321 212.83329319 -231.28017211 204.36033798 -225.04541016 195.92041016 C-218.90330366 187.59747251 -212.85459317 179.20817785 -206.8125 170.8125 C-199.61186792 160.80699602 -192.36999214 150.83561522 -185.04541016 140.92041016 C-178.90330366 132.59747251 -172.85459317 124.20817785 -166.8125 115.8125 C-159.61186792 105.80699602 -152.36999214 95.83561522 -145.04541016 85.92041016 C-139.44817826 78.3358116 -133.92841373 70.6966167 -128.42138672 63.04638672 C-125.18258053 58.54941 -121.93555564 54.05836174 -118.68945312 49.56665039 C-115.96431877 45.79499558 -113.24252127 42.02101788 -110.52734375 38.2421875 C-105.19706036 30.82955168 -99.8363921 23.44177149 -94.375 16.125 C-93.66718384 15.17246338 -93.66718384 15.17246338 -92.94506836 14.20068359 C-81.46953742 -1.0932505 -67.76272554 -11.01390308 -48.40625 -13.90625 C-30.48886067 -15.84909945 -14.27435847 -10.92384933 0 0 Z " fill="#04C0C7" transform="translate(471.8125,131.1875)"/>
<path d="M0 0 C9.59236009 7.08649074 15.74796725 15.22068148 18 27 C18.56348863 33.32980533 18.41774866 39.70873718 18.40063477 46.05712891 C18.40638421 47.98336207 18.41346982 49.90959163 18.42178345 51.83581543 C18.43684871 55.96959394 18.44267489 60.10324369 18.44125557 64.2370491 C18.43921318 70.78687897 18.45884917 77.3365373 18.48143005 83.88632202 C18.52234442 96.61815166 18.5409854 109.34996762 18.55760193 122.08184814 C18.57997432 138.26552118 18.61372861 154.44915407 18.66480106 170.63276231 C18.68460288 177.12964945 18.69429473 183.62644665 18.69575322 190.12336278 C18.69852513 194.18417335 18.70940243 198.24493517 18.72226334 202.3057251 C18.7265032 204.17279986 18.72743035 206.03988593 18.72458839 207.90696335 C18.6916912 232.34393023 20.85391172 257.09588525 38.5234375 275.7109375 C52.79081306 288.89813321 71.51452827 291.64984575 90.2421875 291.25 C107.24642887 290.56627498 123.64840536 284.84013377 135.625 272.5 C147.60999602 258.4861303 152.16387307 239.78009707 152.13803101 221.64619446 C152.14085229 220.8319698 152.14367357 220.01774515 152.14658034 219.17884701 C152.15487858 216.46468052 152.15626048 213.75055507 152.15771484 211.03637695 C152.16238661 209.08439521 152.16753078 207.13241454 152.17311096 205.18043518 C152.18436856 200.98278723 152.19281402 196.78514627 152.19923019 192.58748817 C152.20993812 185.94242864 152.23019069 179.29741951 152.25234985 172.65238953 C152.31417941 153.75827344 152.36825573 134.86416058 152.40136719 115.9699707 C152.41974242 105.53025162 152.4487136 95.09061734 152.4893719 84.65096062 C152.51039063 79.13194839 152.52589192 73.61304277 152.52817917 68.09398842 C152.53033473 62.89907142 152.5462965 57.70437647 152.57256889 52.50952721 C152.57972841 50.61014406 152.58187923 48.71073391 152.57846642 46.81134033 C152.55470696 31.06536225 153.5075996 18.32092727 164.5625 6.1875 C174.37652626 -2.61995946 183.86086142 -6.05748867 196.94140625 -5.4140625 C207.61724159 -4.52626946 215.73179876 0.38754007 222.97265625 8.1015625 C230.68153253 17.36530767 233.15902232 27.09812587 233.13371277 38.98989868 C233.13597833 39.77720662 233.13824388 40.56451457 233.14057809 41.37568033 C233.14689117 44.00518866 233.14609042 46.6346451 233.14526367 49.26416016 C233.14825711 51.15375332 233.15166007 53.04334587 233.15544128 54.93293762 C233.16427334 60.06393013 233.16661926 65.19490595 233.16725707 70.32590532 C233.1679688 73.53926675 233.17010559 76.75262397 233.17275429 79.96598434 C233.18200982 91.19965635 233.1860895 102.4333165 233.18530273 113.66699219 C233.18470405 124.09704082 233.19521399 134.52703738 233.2110464 144.95707285 C233.22418789 153.9383263 233.22948377 162.91956289 233.22884732 171.90082586 C233.22859398 177.252431 233.23135292 182.60399001 233.24202538 187.95558548 C233.2518164 193.00352729 233.25171143 198.05137995 233.24450874 203.09932518 C233.24347594 204.93569636 233.24574648 206.77207341 233.2518692 208.60843468 C233.30299228 225.02735586 232.47187553 241.50299993 228.8125 257.5625 C228.59891846 258.51447266 228.38533691 259.46644531 228.1652832 260.44726562 C220.31187961 293.87642917 201.44966827 323.64973322 172 342 C133.31609899 365.48220708 82.77771867 368.67686722 39.41821289 358.30615234 C19.79256789 353.28531595 1.71922032 344.8384974 -14 332 C-15.20076172 331.02933594 -15.20076172 331.02933594 -16.42578125 330.0390625 C-22.40357322 324.98013666 -27.25172736 319.20860695 -32 313 C-32.60714844 312.20851563 -33.21429687 311.41703125 -33.83984375 310.6015625 C-44.69591949 295.78215753 -51.4323883 279.18106563 -55.75 261.4375 C-55.94875732 260.62394043 -56.14751465 259.81038086 -56.35229492 258.97216797 C-59.71856097 244.33836161 -60.30285381 230.06316246 -60.30639648 215.1184082 C-60.3140342 213.0568716 -60.32246441 210.9953378 -60.33161926 208.93380737 C-60.35339867 203.37827629 -60.36233943 197.82280016 -60.36744571 192.26723123 C-60.37110575 188.78938105 -60.3773539 185.31154494 -60.3844471 181.83370018 C-60.40887359 169.68201447 -60.42198097 157.53037111 -60.42553711 145.37866211 C-60.42917812 134.07850544 -60.45913162 122.77861938 -60.50094169 111.47854549 C-60.5356763 101.74734109 -60.55108601 92.0162264 -60.55178314 82.28496045 C-60.55257416 76.48540029 -60.56123451 70.68611714 -60.58978081 64.88662148 C-60.6160193 59.43545589 -60.6181342 53.98479614 -60.60212517 48.53359604 C-60.60031594 46.54065405 -60.60695351 44.54768251 -60.62294388 42.55480385 C-60.73479938 27.70238814 -59.24616164 16.35334865 -48.46484375 5.1953125 C-35.23906798 -6.58422155 -15.3490661 -9.48290003 0 0 Z " fill="#04C0C7" transform="translate(1752,274)"/>
<path d="M0 0 C1.29612256 -0.00807831 1.29612256 -0.00807831 2.61842942 -0.01631981 C5.49546202 -0.03055448 8.37203158 -0.02350672 11.24908447 -0.01637268 C13.31944141 -0.0220787 15.3897952 -0.02904386 17.46014404 -0.03717041 C23.07191278 -0.05509415 28.68352508 -0.0539345 34.29531384 -0.04822803 C38.98689529 -0.04513412 43.67844678 -0.0512311 48.37002397 -0.05726677 C59.44366851 -0.07130871 70.51723591 -0.06975429 81.59088135 -0.05836487 C92.99708591 -0.04689227 104.40305512 -0.06094576 115.80922866 -0.08776134 C125.61673183 -0.10995127 135.4241613 -0.11654805 145.23168778 -0.11068493 C151.08271561 -0.10732105 156.93359269 -0.10969235 162.7845993 -0.12693596 C168.29062719 -0.1424547 173.79630797 -0.13839476 179.30232239 -0.11963081 C181.31620978 -0.11595815 183.33012316 -0.11901455 185.34398651 -0.1295166 C198.3091611 -0.19193389 210.79608205 -0.07850478 221.32037354 8.6259613 C228.8963814 16.25270136 231.10110316 24.08569199 231.44537354 34.57518005 C231.1259761 53.51356886 220.5421573 67.00906908 209.68756104 81.52049255 C206.38329138 85.94426066 203.17569993 90.4280391 200.00787354 94.95018005 C194.31661882 103.06163611 188.52526703 111.09761767 182.71148682 119.12156677 C179.99389191 122.87412791 177.28235415 126.6310605 174.57037354 130.38768005 C171.31168297 134.90159901 168.05170694 139.41455671 164.78521729 143.9228363 C159.50456932 151.21515969 154.25086013 158.52378126 149.07037354 165.88768005 C143.35245363 174.0155234 137.54213258 182.07434049 131.71148682 190.12156677 C128.99389191 193.87412791 126.28235415 197.6310605 123.57037354 201.38768005 C120.31168297 205.90159901 117.05170694 210.41455671 113.78521729 214.9228363 C108.50456932 222.21515969 103.25086013 229.52378126 98.07037354 236.88768005 C92.36272956 245.00091648 86.56269228 253.04506264 80.74224854 261.07762146 C79.01519954 263.46391492 77.29223477 265.85310975 75.57037354 268.2431488 C74.99472656 269.04180359 74.41907959 269.84045837 73.82598877 270.66331482 C72.73645123 272.17515617 71.64738325 273.68733609 70.55889893 275.19993591 C70.05866211 275.8935321 69.55842529 276.5871283 69.04302979 277.30174255 C68.39733032 278.19820496 68.39733032 278.19820496 67.73858643 279.11277771 C66.16190443 281.26286154 64.56667632 283.39752198 62.96611023 285.52986145 C62.42428824 286.25183401 61.88246626 286.97380657 61.32422543 287.71765709 C60.9104543 288.26876467 60.49668318 288.81987225 60.07037354 289.38768005 C60.78359992 289.3909902 61.49682631 289.39430035 62.23166561 289.3977108 C79.60960231 289.47903517 96.98744843 289.57115837 114.36526394 289.67520714 C122.76914601 289.72526626 131.17301865 289.7717098 139.57696533 289.80955505 C146.90435039 289.84256153 154.23166082 289.88244021 161.55896336 289.93047011 C165.43643001 289.95564929 169.31384771 289.97745559 173.19137383 289.99102402 C176.84640401 290.00392267 180.50126556 290.02605984 184.15620232 290.05506325 C186.12610486 290.06835353 188.09606497 290.07204538 190.06600952 290.07537842 C202.32475605 290.19034452 212.54474077 292.06247813 221.82037354 300.57518005 C229.50625321 308.72578734 231.47080526 317.87900378 231.33599854 328.7197113 C230.57108516 339.28226505 225.77278778 346.34246839 218.07037354 353.38768005 C215.7166681 355.2377542 213.89093877 356.15059004 211.07037354 357.38768005 C210.1749747 357.78102334 210.1749747 357.78102334 209.26148701 358.18231297 C200.00703875 361.5740141 190.11184505 360.81556635 180.40509033 360.79173279 C178.30650469 360.79744105 176.20792216 360.80440707 174.10934448 360.81253052 C168.42944784 360.83042816 162.74970599 360.82929969 157.06978965 360.82358813 C152.31855439 360.82049086 147.56734863 360.82659485 142.81611758 360.83262688 C131.60144667 360.84665985 120.38685196 360.84512148 109.17218018 360.83372498 C97.62508166 360.82224952 86.07821555 360.83631275 74.53114766 360.86312145 C64.59705052 360.88531686 54.66302613 360.89190703 44.72890598 360.88604504 C38.80465905 360.88268292 32.88056101 360.88504082 26.95633507 360.90229607 C21.3821547 360.91782393 15.80831705 360.91374486 10.23414993 360.89499092 C8.19649252 360.89132096 6.15880938 360.89436664 4.12117577 360.90487671 C-11.52496226 360.97937414 -24.80979262 360.20085226 -36.60540771 348.76268005 C-44.72205137 340.0619603 -46.44582806 330.02830266 -46.18353271 318.5400238 C-45.59587758 306.02325328 -38.83292623 297.32309898 -31.605896 287.64060974 C-28.83791707 283.92040737 -26.13917874 280.15051734 -23.42962646 276.38768005 C-22.33590221 274.87724474 -21.24215226 273.36682804 -20.14837646 271.85643005 C-17.04274596 267.55632627 -13.98070251 263.22659694 -10.92962646 258.88768005 C-4.13752176 249.23244543 2.78857567 239.67562073 9.71588135 230.11717224 C15.54500214 222.07139232 21.35364469 214.01383034 27.07037354 205.88768005 C32.78407405 197.76583445 38.58984826 189.71274437 44.41607666 181.67137146 C47.19955555 177.82888894 49.97911953 173.98358035 52.75787354 170.13768005 C53.30177734 169.38494812 53.84568115 168.63221619 54.40606689 167.85667419 C58.04338396 162.81924598 61.6616026 157.76860951 65.26690674 152.70823669 C68.63786633 147.98132263 72.0405998 143.27777343 75.44537354 138.57518005 C79.69280335 132.70636603 83.90277106 126.81343598 88.07037354 120.88768005 C93.77670868 112.77605556 99.57518675 104.73324374 105.394104 96.70213318 C108.28975722 92.70405679 111.17991067 88.70200956 114.07037354 84.70018005 C114.59816406 83.97000671 115.12595459 83.23983337 115.66973877 82.48753357 C116.17319824 81.79071472 116.67665771 81.09389587 117.19537354 80.3759613 C117.84892822 79.47164368 117.84892822 79.47164368 118.51568604 78.54905701 C119.90352673 76.61963588 121.2863646 74.68678721 122.6675415 72.75259399 C123.11757538 72.12240954 123.56760925 71.49222509 124.03128052 70.84294415 C124.37418121 70.362707 124.71708191 69.88246984 125.07037354 69.38768005 C124.39506686 69.38621349 123.71976019 69.38474693 123.02398968 69.38323593 C106.55491255 69.3461048 90.08607333 69.28700698 73.61716747 69.20377731 C65.65275443 69.16405108 57.68843928 69.13162614 49.72393799 69.11668396 C42.77808945 69.10363402 35.83245688 69.07658471 28.88673002 69.03306699 C25.21257719 69.01052677 21.53868999 68.99476486 17.8644619 68.9957962 C13.75205117 68.99668724 9.64041796 68.96630902 5.52813721 68.93357849 C4.32403702 68.93860886 3.11993683 68.94363922 1.87934875 68.94882202 C-9.67864535 68.80704486 -18.37046419 65.96098532 -26.76165771 57.90330505 C-34.57986424 48.83136812 -35.61573794 38.90091071 -35.11322021 27.40330505 C-34.72775238 23.17136027 -33.1967719 19.91517936 -30.92962646 16.38768005 C-30.57900146 15.76764099 -30.22837646 15.14760193 -29.86712646 14.5087738 C-23.45277098 4.19680648 -11.63576486 -0.0881423 0 0 Z " fill="#04C0C7" transform="translate(1407.9296264648438,273.61231994628906)"/>
<path d="M0 0 C9.30655811 6.74455372 15.59369281 16.06042061 17.54296875 27.45703125 C17.63226528 29.21525193 17.67371216 30.97630251 17.67718983 32.73678589 C17.68164767 33.78722611 17.68610551 34.83766634 17.69069844 35.91993809 C17.69051408 37.06768176 17.69032972 38.21542543 17.69013977 39.39794922 C17.69381646 40.62219825 17.69749315 41.84644728 17.70128125 43.10779476 C17.71039165 46.50328728 17.71501417 49.89873152 17.71767056 53.29423165 C17.72158079 56.95769259 17.73115867 60.62113963 17.73988342 64.28459167 C17.75962837 73.13099416 17.7697119 81.97739776 17.77861121 90.82381678 C17.78299766 94.99321218 17.78836357 99.16260632 17.79360008 103.33200073 C17.81061099 117.19823442 17.82510392 131.06446732 17.83234882 144.93070984 C17.83425861 148.52753704 17.83617896 152.12436423 17.83813477 155.72119141 C17.83861851 156.61512891 17.83910225 157.50906641 17.83960065 158.43009293 C17.84789631 172.90281834 17.87322601 187.37546097 17.90571544 201.84815025 C17.93882382 216.71820615 17.95680103 231.58822004 17.95999306 246.45831299 C17.96215475 254.80272557 17.97085317 263.14701747 17.99645424 271.49139404 C18.01821299 278.59969835 18.02618634 285.70785265 18.01648746 292.81618649 C18.01195756 296.43912577 18.01375173 300.0617559 18.0332489 303.68465233 C18.05426108 307.6233093 18.0438476 311.56154575 18.03071594 315.50024414 C18.04168519 316.63014204 18.05265443 317.76003994 18.06395608 318.92417717 C17.96012689 331.88698197 14.51592032 342.31304502 5.47265625 351.578125 C-3.86450474 360.4435479 -13.07251026 362.86311934 -25.75390625 362.73046875 C-35.6580698 361.99914866 -43.2751587 358.18109519 -50.45703125 351.45703125 C-51.02164062 350.93367188 -51.58625 350.4103125 -52.16796875 349.87109375 C-61.87094684 339.77408609 -62.60895934 326.66439645 -62.59074402 313.48320007 C-62.59300958 312.27962681 -62.59527513 311.07605355 -62.59760934 309.83600837 C-62.60283383 306.50764774 -62.60359606 303.17934126 -62.60241497 299.8509804 C-62.60221046 296.25646431 -62.60773442 292.6619562 -62.61247253 289.06744385 C-62.62076885 282.0298241 -62.62352691 274.99221273 -62.62408491 267.9545885 C-62.62456054 262.23258571 -62.62661763 256.51058567 -62.62978554 250.78858376 C-62.63858921 234.55602515 -62.64320534 218.32347314 -62.64245506 202.09091213 C-62.64241511 201.21633349 -62.64237515 200.34175485 -62.64233398 199.44067383 C-62.6422931 198.56502409 -62.64225222 197.68937434 -62.6422101 196.78718976 C-62.64180368 182.5971202 -62.65137304 168.40707718 -62.66547235 154.21701529 C-62.67984419 139.63732351 -62.68674209 125.05764467 -62.68587857 110.47794563 C-62.68554689 102.29634309 -62.68828142 94.11476837 -62.69905663 85.93317223 C-62.70817223 78.96722388 -62.71032815 72.00131597 -62.7035472 65.03536423 C-62.7002874 61.48375609 -62.70020577 57.93222549 -62.70890045 54.38062477 C-62.71824371 50.52431862 -62.71197536 46.66812506 -62.70426941 42.81181335 C-62.70941297 41.69788686 -62.71455654 40.58396037 -62.71985596 39.43627852 C-62.66165076 26.23295252 -60.11087334 14.11087334 -50.45703125 4.45703125 C-36.01020316 -7.18231608 -16.10664599 -10.1146664 0 0 Z " fill="#05C0C6" transform="translate(1278.45703125,274.54296875)"/>
<path d="M0 0 C15.64407944 12.58165504 23.25791869 28.3709219 25.61425781 48.15771484 C26.52211207 68.80153121 16.11806878 85.11092455 3.93212891 100.68164062 C1.18468168 104.24922135 -1.42534101 107.91445294 -4.04589844 111.57568359 C-8.54504602 117.83683423 -13.08790571 124.06314875 -17.67089844 130.26318359 C-22.20849625 136.40328111 -26.71054758 142.56674365 -31.17089844 148.76318359 C-37.42134176 157.44308058 -43.74885466 166.06449722 -50.11523438 174.65966797 C-51.50565909 176.53975261 -52.89005811 178.42407394 -54.27246094 180.31005859 C-56.37322037 183.15438579 -58.50535658 185.96797534 -60.67089844 188.76318359 C-61.27546875 189.55853516 -61.88003906 190.35388672 -62.50292969 191.17333984 C-71.4865176 202.19951196 -84.76520472 209.26123649 -98.67089844 211.76318359 C-120.06602609 213.53174599 -136.3101861 209.48014893 -152.92089844 195.51318359 C-157.91758862 190.85753734 -161.35359574 185.69707531 -164.67089844 179.76318359 C-165.2703125 178.76351562 -165.2703125 178.76351562 -165.88183594 177.74365234 C-172.93155782 165.15486327 -173.5997902 148.42965833 -170.60839844 134.51318359 C-167.02652914 122.49070564 -160.69313142 113.02009557 -152.95166016 103.39306641 C-150.84378991 100.71061468 -148.88470715 97.92692011 -146.92089844 95.13818359 C-142.96615913 89.54667419 -138.9306097 84.01969587 -134.85839844 78.51318359 C-130.25793531 72.28997996 -125.69148644 66.04465417 -121.17089844 59.76318359 C-116.13467862 52.76626295 -111.04163397 45.81358309 -105.91015625 38.88623047 C-102.98650009 34.93270545 -100.0907111 30.96362943 -97.24902344 26.95068359 C-84.32306026 8.70215419 -71.72241186 -6.15480267 -48.83105469 -10.81494141 C-31.68869862 -13.10341416 -14.17399828 -10.49174098 0 0 Z " fill="#04C0C7" transform="translate(437.6708984375,485.23681640625)"/>
<path d="M0 0 C11.4821363 9.96020366 19.66878961 24.6668029 21.1875 39.875 C22.612301 64.12205994 13.31281432 80.65201335 -0.99267578 99.46240234 C-3.84589275 103.24500096 -6.61125838 107.08929477 -9.375 110.9375 C-10.44912428 112.42845348 -11.52334296 113.91933896 -12.59765625 115.41015625 C-13.12762207 116.14637207 -13.65758789 116.88258789 -14.20361328 117.64111328 C-16.90262128 121.38859784 -19.60788884 125.13155845 -22.3125 128.875 C-23.39586304 130.37497854 -24.47919638 131.87497854 -25.5625 133.375 C-27.72916667 136.375 -29.89583333 139.375 -32.0625 142.375 C-32.59883057 143.11766113 -33.13516113 143.86032227 -33.68774414 144.62548828 C-34.77007349 146.12399806 -35.85259274 147.6223707 -36.93530273 149.12060547 C-39.66057844 152.89229852 -42.38241237 156.66638977 -45.09765625 160.4453125 C-47.79510288 164.19798517 -50.50449515 167.94177307 -53.22167969 171.68017578 C-54.28105551 173.14177625 -55.33641102 174.60629924 -56.38769531 176.07373047 C-67.40293774 191.43636795 -79.42059099 203.91796532 -98.515625 208.4375 C-118.34422277 211.06878312 -135.77999266 207.84488785 -152.30859375 196.1015625 C-163.71315166 186.73282689 -172.09384187 172.3158577 -174.53125 157.76171875 C-175.6049839 146.7410333 -175.32190239 136.44958695 -171.8125 125.875 C-171.59207031 125.09640625 -171.37164062 124.3178125 -171.14453125 123.515625 C-168.09232126 114.28152777 -161.52049284 106.60453987 -155.8125 98.875 C-154.66520614 97.31261633 -153.51807174 95.75011556 -152.37109375 94.1875 C-150.02522853 90.9970575 -147.67237729 87.81189099 -145.31640625 84.62890625 C-141.94698342 80.06907182 -138.62389661 75.47707495 -135.3125 70.875 C-129.13183543 62.29116087 -122.86463949 53.77298231 -116.57861328 45.26611328 C-114.23600005 42.09448569 -111.89700504 38.92020326 -109.55908203 35.74511719 C-108.39871923 34.17050129 -107.23694431 32.59692499 -106.07373047 31.02441406 C-103.06295681 26.95096476 -100.08003572 22.86079428 -97.13671875 18.73828125 C-85.99413862 3.19641344 -73.67793196 -9.66719389 -54.171875 -13.7265625 C-34.06849103 -16.11091734 -16.34791985 -12.42076592 0 0 Z " fill="#04C0C7" transform="translate(287.8125,73.125)"/>
<path d="M0 0 C11.7820607 9.77932344 21.27619726 23.23007104 23.3125 38.75 C24.70042398 58.97888584 21.40316598 76.54005636 7.9375 92.25 C-4.42567404 105.0154006 -20.46118296 111.62900816 -38.1875 112.125 C-55.74425963 111.57303416 -71.77105146 105.13939865 -84.1328125 92.6015625 C-95.23775431 80.20613815 -101.43169366 64.1833907 -100.92578125 47.48828125 C-99.42844135 30.28114565 -93.26482059 15.75143595 -80.6875 3.75 C-80.14867187 3.19183594 -79.60984375 2.63367188 -79.0546875 2.05859375 C-57.85473681 -18.34236382 -22.54137948 -16.5929599 0 0 Z " fill="#04C0C7" transform="translate(551.6875,644.25)"/>
<path d="M0 0 C13.34831289 11.00135678 20.26650433 26.76099099 22.1875 43.6875 C22.28509989 62.13387941 17.42710137 78.84051955 4.53515625 92.52734375 C-8.2955585 104.33330924 -24.11753917 111.14181012 -41.69165039 110.66357422 C-59.09615591 109.80893476 -74.9587453 103.08478922 -87.0078125 90.37109375 C-92.08675954 84.3555348 -95.75088987 77.92663423 -98.8125 70.6875 C-99.15410156 69.88441406 -99.49570313 69.08132812 -99.84765625 68.25390625 C-104.0196648 56.12597441 -103.86125956 38.49189514 -98.8125 26.6875 C-98.33683594 25.56214844 -97.86117187 24.43679687 -97.37109375 23.27734375 C-93.76411789 15.24985336 -89.13827164 8.84168651 -82.8125 2.6875 C-82.29558594 2.13835938 -81.77867188 1.58921875 -81.24609375 1.0234375 C-77.35414307 -2.77705742 -72.67959402 -5.11538504 -67.875 -7.5625 C-67.20654053 -7.9042627 -66.53808105 -8.24602539 -65.84936523 -8.59814453 C-44.20781334 -19.19324019 -18.81667994 -13.67604058 0 0 Z " fill="#04C0C7" transform="translate(101.8125,13.3125)"/>
<path d="M0 0 C8.86635549 8.09759634 14.09327004 19.21875189 14.98828125 31.0859375 C15.446928 44.704218 11.23960992 54.5508521 3.52734375 65.4765625 C-5.91886773 75.1374606 -16.33182671 79.63140069 -29.72265625 79.7890625 C-42.17424257 79.65447042 -52.14184324 75.83621129 -61.34765625 67.32421875 C-70.20989308 58.04236844 -75.13998844 46.93757678 -75.25 34.09765625 C-74.616783 20.34548187 -69.4954187 8.98586376 -59.47265625 -0.5234375 C-41.81181504 -15.00737691 -17.62538608 -13.56752039 0 0 Z " fill="#04C0C7" transform="translate(1286.22265625,134.7109375)"/>
</svg>
