<?xml version="1.0" encoding="UTF-8"?>
<svg version="1.1" xmlns="http://www.w3.org/2000/svg" width="4096" height="1214">
<path d="M0 0 C1351.68 0 2703.36 0 4096 0 C4096 400.62 4096 801.24 4096 1214 C2744.32 1214 1392.64 1214 0 1214 C0 813.38 0 412.76 0 0 Z " fill="#000000" transform="translate(0,0)"/>
<path d="M0 0 C1351.68 0 2703.36 0 4096 0 C4096 400.62 4096 801.24 4096 1214 C2744.32 1214 1392.64 1214 0 1214 C0 813.38 0 412.76 0 0 Z M124 27 C123.02274798 27.21744139 123.02274798 27.21744139 122.02575349 27.43927553 C98.05435013 32.78104213 78.81146006 45.4692971 61 62 C60.39414062 62.54011719 59.78828125 63.08023438 59.1640625 63.63671875 C36.84488667 84.43651407 25.23034402 117.08005055 23.81611201 146.87401187 C23.74555052 151.01628996 23.73440699 155.15410371 23.74831772 159.29673767 C23.74622636 160.8923193 23.74326011 162.48789998 23.73950899 164.08347857 C23.73176803 168.44386825 23.73635582 172.80416858 23.74306489 177.1645567 C23.74815956 181.91756288 23.74161006 186.67055585 23.73657823 191.42356014 C23.72936768 199.74591191 23.72956609 208.06823771 23.73467255 216.39059067 C23.74224542 228.766341 23.73836591 241.14206948 23.73225593 253.51781967 C23.72172884 275.62240607 23.72263549 297.7269809 23.72841376 319.83156839 C23.73344558 339.17570788 23.73475794 358.51984314 23.73236847 377.86398315 C23.7322157 379.147305 23.73206293 380.43062685 23.73190553 381.75283723 C23.73128285 386.96230601 23.73064605 392.17177478 23.729986 397.38124355 C23.72816298 411.94310174 23.72701083 426.50495995 23.72641373 441.06681824 C23.72638644 441.72988417 23.72635914 442.3929501 23.72633103 443.07610894 C23.72551269 464.19851113 23.7277651 485.32091186 23.73211288 506.4433136 C23.73225338 507.12821632 23.73239388 507.81311904 23.73253864 508.51877639 C23.73482843 519.6405602 23.7372674 530.76234397 23.73971898 541.88412775 C23.74943136 585.99209183 23.74898056 630.10004378 23.73925781 674.20800781 C23.73681535 685.324234 23.73439322 696.44046018 23.73211288 707.5566864 C23.73197199 708.24118934 23.73183109 708.92569227 23.73168593 709.63093772 C23.72737239 730.73168593 23.72554523 751.83243313 23.72641373 772.93318176 C23.7264409 773.59575837 23.72646806 774.25833499 23.72649606 774.94098968 C23.7271491 790.13937494 23.72855669 805.33776006 23.73048234 820.53614521 C23.73112377 825.73610242 23.73174945 830.93605963 23.73236847 836.13601685 C23.73252662 837.41637164 23.73268478 838.69672644 23.73284773 840.01587986 C23.73512233 859.34749225 23.73246276 878.67909993 23.72740936 898.01071167 C23.72169186 919.99239398 23.72311836 941.97406291 23.73397085 963.95574355 C23.73984374 976.25692137 23.74022629 988.55807024 23.7326785 1000.85924731 C23.72819219 1009.07748311 23.73098769 1017.29569571 23.73968804 1025.51392807 C23.74444236 1030.19525731 23.74607896 1034.87652903 23.73887607 1039.55785644 C23.73238057 1043.82299541 23.73521029 1048.08802624 23.7452374 1052.35315745 C23.74723899 1053.88025396 23.7459534 1055.40735958 23.74082552 1056.93444879 C23.69876972 1070.42423797 24.81764064 1083.45565874 28.6875 1096.4375 C29.07723999 1097.76563721 29.07723999 1097.76563721 29.47485352 1099.12060547 C39.26242175 1131.4047554 61.21652947 1158.44362811 90.69946289 1174.80395508 C102.49251666 1181.07607928 114.88079127 1185.51112598 128 1188 C128.83557853 1188.17970885 129.67115705 1188.3594177 130.53205614 1188.54457228 C142.57754185 1190.81480349 154.84792443 1190.27619007 167.05345875 1190.25299966 C169.74373704 1190.25523493 172.43400398 1190.25826412 175.12427917 1190.26225147 C180.99268739 1190.26935026 186.8610589 1190.26903939 192.7294686 1190.26387847 C201.54019535 1190.25617184 210.35089146 1190.26009234 219.1616181 1190.26620853 C234.24693658 1190.27634134 249.33224224 1190.27696181 264.41756285 1190.27248149 C279.7899107 1190.26795502 295.16224945 1190.26781658 310.53459721 1190.27294691 C311.99620715 1190.27343049 311.99620715 1190.27343049 313.48734456 1190.27392384 C318.46248464 1190.27558886 323.43762468 1190.27732258 328.41276472 1190.2790789 C364.76441161 1190.29175663 401.11605413 1190.29450302 437.46770287 1190.29224396 C474.32048316 1190.28998095 511.17325945 1190.29204041 548.02603912 1190.29938889 C550.37481457 1190.29985287 552.72359002 1190.30031681 555.07236547 1190.30078072 C564.54248553 1190.30265977 574.01260558 1190.30457236 583.48272562 1190.3065231 C610.17943145 1190.31201422 636.87613738 1190.31677291 663.57284343 1190.32102704 C665.40801014 1190.32131969 665.40801014 1190.32131969 667.28025092 1190.32161825 C736.88544484 1190.33263273 806.49063899 1190.33323756 876.09583363 1190.33405997 C886.73708685 1190.33418646 897.37834008 1190.33431951 908.0195933 1190.33446108 C910.68669418 1190.33449646 913.35379507 1190.33453121 916.02089595 1190.33456532 C975.85920155 1190.33534064 1035.69750669 1190.3396969 1095.53581207 1190.34482583 C1108.88754535 1190.34596895 1122.23927864 1190.34707689 1135.59101192 1190.3481871 C1136.9163369 1190.34829734 1138.24166188 1190.34840758 1139.60714822 1190.34852117 C1147.652067 1190.34919017 1155.69698577 1190.3498577 1163.74190455 1190.35052429 C1167.77194169 1190.35085845 1171.80197883 1190.35119347 1175.83201597 1190.35152857 C1238.49366213 1190.35673249 1301.15530834 1190.36119303 1363.81695461 1190.36489296 C1365.18230235 1190.3649737 1366.54765008 1190.36505444 1367.95437199 1190.36513763 C1454.96831224 1190.37026441 1541.98225223 1190.37206257 1628.99619263 1190.37153696 C1633.27540317 1190.37151145 1637.5546137 1190.37148753 1641.83382424 1190.37146414 C1671.89752537 1190.37129946 1701.96122651 1190.37109404 1732.02492764 1190.37087838 C1740.64497199 1190.37081684 1749.26501634 1190.37075671 1757.88506068 1190.37069675 C1765.07530582 1190.37064656 1772.26555095 1190.37059498 1779.45579608 1190.37054053 C1915.2689938 1190.36951762 2051.08218915 1190.37235454 2186.89538574 1190.39123535 C2188.32531036 1190.39143407 2189.75523499 1190.39163279 2191.22849066 1190.39183752 C2235.90615203 1190.39806023 2280.58381333 1190.40479321 2325.26147461 1190.41162109 C2371.103727 1190.41862385 2416.9459794 1190.42556474 2462.78823185 1190.43214989 C2464.19971544 1190.43235294 2465.61119903 1190.43255599 2467.06545485 1190.4327652 C2555.45213431 1190.44546198 2643.83881309 1190.45330694 2732.22549343 1190.45586586 C2734.27291007 1190.45592594 2734.27291007 1190.45592594 2736.36168866 1190.45598724 C2796.30443418 1190.45773782 2856.24717968 1190.45837745 2916.18992522 1190.45780547 C2940.30438887 1190.4575769 2964.41885252 1190.45746477 2988.53331617 1190.45739883 C2992.53165006 1190.45738603 2996.52998396 1190.45736787 3000.52831785 1190.45734853 C3061.69912765 1190.45707548 3122.86993527 1190.45977066 3184.04074407 1190.47143888 C3186.02002999 1190.4718159 3186.02002999 1190.4718159 3188.03930149 1190.47220053 C3209.26598489 1190.47625867 3230.49266825 1190.48054668 3251.7193516 1190.48485415 C3311.96819976 1190.49707025 3372.21704501 1190.50716094 3432.46589458 1190.50291181 C3433.68805867 1190.50282638 3434.91022276 1190.50274095 3436.16942213 1190.50265294 C3462.8312986 1190.50074634 3489.49317482 1190.49771484 3516.15505103 1190.49357951 C3526.78808515 1190.49194683 3537.42111929 1190.49045959 3548.05415344 1190.48901749 C3549.21404524 1190.48885618 3550.37393703 1190.48869488 3551.56897706 1190.48852869 C3588.37256738 1190.48347922 3625.17614152 1190.49072098 3661.97972902 1190.50505312 C3698.21312065 1190.51911126 3734.44648973 1190.52104614 3770.67988138 1190.50527925 C3775.64145406 1190.50312194 3780.60302679 1190.50110421 3785.56459957 1190.49917014 C3787.02159953 1190.49859409 3787.02159953 1190.49859409 3788.50803383 1190.4980064 C3803.82776659 1190.49231363 3819.14746185 1190.49996923 3834.46718861 1190.51333135 C3849.45346472 1190.5261298 3864.43968329 1190.52474803 3879.4259563 1190.50814359 C3888.16784361 1190.49888167 3896.90956322 1190.5004251 3905.65143807 1190.51833167 C3911.44948076 1190.5291135 3917.24739748 1190.52528377 3923.04542913 1190.50979032 C3926.32167949 1190.5014356 3929.59753786 1190.50126961 3932.87378047 1190.51474985 C3971.57587377 1190.66321599 4005.6983601 1180.0603399 4034 1153 C4034.67289063 1152.39027344 4035.34578125 1151.78054688 4036.0390625 1151.15234375 C4042.38061485 1145.20240121 4047.19462464 1138.198873 4052 1131 C4052.63035156 1130.06542969 4053.26070312 1129.13085938 4053.91015625 1128.16796875 C4068.00305798 1105.72847374 4072.16459223 1080.20851952 4072.13142776 1054.22224426 C4072.13308004 1052.63424139 4072.13516752 1051.04623891 4072.13764787 1049.45823711 C4072.14319025 1045.10023653 4072.14254658 1040.7422557 4072.14087028 1036.38425273 C4072.14013714 1031.64070643 4072.1451669 1026.89716561 4072.1494453 1022.15362167 C4072.15701461 1012.74800307 4072.15921781 1003.34239015 4072.15977435 993.93676882 C4072.16068904 982.6695926 4072.16735965 971.40242161 4072.17412117 960.13524764 C4072.19017208 932.90567414 4072.19608324 905.6761012 4072.20086992 878.44652382 C4072.20320659 865.56374063 4072.2068093 852.68095789 4072.2105653 839.79817505 C4072.22319839 796.38427471 4072.2340123 752.97037468 4072.23740576 709.55647259 C4072.237568 707.48238157 4072.23773356 705.40829055 4072.23790014 703.33419953 C4072.23823394 699.17470716 4072.23856442 695.0152148 4072.2388947 690.85572243 C4072.23928159 685.98616101 4072.2396712 681.1165996 4072.24006577 676.24703819 C4072.24017818 674.85334045 4072.2402896 673.45964271 4072.24040002 672.06594497 C4072.24394907 627.30987887 4072.25902683 582.55382883 4072.28233776 537.79776887 C4072.29908554 505.62969081 4072.31455692 473.46161579 4072.31907272 441.29353333 C4072.31916621 440.63161831 4072.3192597 439.96970329 4072.31935601 439.28773025 C4072.32146592 424.10310591 4072.32255238 408.91848163 4072.32293582 393.73385715 C4072.32310727 388.5382595 4072.3233227 383.34266186 4072.32357025 378.14706421 C4072.32362602 376.86777625 4072.32368179 375.5884883 4072.32373925 374.27043404 C4072.32488956 353.68920787 4072.33590977 333.10799834 4072.35045731 312.52677778 C4072.3648275 291.83867414 4072.36805631 271.1505918 4072.36001733 250.46248454 C4072.35556372 238.17548294 4072.35941101 225.88855016 4072.37525584 213.60155761 C4072.38501767 205.38752736 4072.38381607 197.17354523 4072.37381961 188.9595154 C4072.36843636 184.28377479 4072.36768911 179.60816617 4072.38032833 174.93243659 C4072.61032119 149.30589664 4072.61032119 149.30589664 4069 124 C4068.85503001 123.33359072 4068.71006001 122.66718144 4068.56069699 121.98057795 C4065.28289369 106.96239638 4058.98291723 92.49070928 4050 80 C4049.27296875 78.97777344 4048.5459375 77.95554688 4047.796875 76.90234375 C4026.27019138 47.40445451 3995.54848569 30.74339275 3959.94130414 24.46027315 C3954.97385074 23.8801643 3950.09591417 23.86250717 3945.09928996 23.87391083 C3943.45517676 23.8716867 3943.45517676 23.8716867 3941.77784915 23.86941763 C3938.08131256 23.86564845 3934.38481677 23.86903516 3930.68828022 23.8723495 C3928.00537504 23.87110725 3925.32247273 23.86946809 3922.63956836 23.86734714 C3916.76867176 23.86351154 3910.89778414 23.86341133 3905.02688688 23.86570877 C3896.21233269 23.86913751 3887.39778646 23.86678346 3878.58323263 23.86331074 C3863.49372102 23.85753634 3848.40421239 23.85653884 3833.3146999 23.85808048 C3817.93227717 23.85963302 3802.54985681 23.85900391 3787.16743432 23.85573927 C3785.70628279 23.85543132 3785.70628279 23.85543132 3784.21561305 23.85511715 C3779.24225846 23.85405967 3774.26890387 23.85296818 3769.29554929 23.8518657 C3732.93275124 23.84388376 3696.56995407 23.84089508 3660.20715523 23.84041977 C3623.33734527 23.83992557 3586.46753641 23.83728357 3549.59772682 23.83201218 C3547.24882078 23.83167864 3544.89991474 23.83134517 3542.55100869 23.83101177 C3533.08052645 23.82966369 3523.6100442 23.8283004 3514.13956196 23.82691967 C3409.92111344 23.81174689 3305.70266519 23.80497591 3201.48421573 23.8004977 C3200.16570081 23.80044101 3198.84718589 23.80038432 3197.48871597 23.80032591 C3190.81946228 23.80003939 3184.15020858 23.79975436 3177.48095489 23.7994718 C3121.62214944 23.79709738 3065.76334411 23.79338786 3009.90453876 23.7894347 C2983.16037659 23.78754215 2956.41621443 23.78571365 2929.67205226 23.7839005 C2928.34197916 23.78381031 2927.01190606 23.78372012 2925.64152772 23.7836272 C2861.62532654 23.77929086 2797.60912535 23.77536255 2733.59292412 23.77190018 C2732.22731608 23.7718263 2730.86170804 23.77175243 2729.45471794 23.77167632 C2642.41736079 23.76698092 2555.38000369 23.76415816 2468.34264643 23.7625134 C2461.20593718 23.76237782 2454.06922792 23.76223879 2446.93251866 23.76209986 C2435.49051793 23.76187738 2424.04851721 23.76165601 2412.60651648 23.76143598 C2411.18864758 23.76140871 2409.77077869 23.76138144 2408.30994406 23.76135334 C2405.4443103 23.76129823 2402.57867653 23.76124312 2399.71304276 23.76118801 C2379.61120796 23.76080139 2359.50937316 23.76041345 2339.40753836 23.76001888 C2332.21465196 23.75987777 2325.02176556 23.7597377 2317.82887917 23.75959998 C2181.9687028 23.75699556 2046.10852758 23.75166409 1910.24835205 23.73571777 C1908.81799706 23.73554998 1907.38764207 23.73538219 1905.91394299 23.73520931 C1861.22322759 23.72995859 1816.53251223 23.72438425 1771.84179688 23.71875 C1725.98661361 23.71296912 1680.13143033 23.70723862 1634.27624702 23.70179367 C1632.15844404 23.70154196 1632.15844404 23.70154196 1629.99785717 23.70128516 C1541.59024061 23.69079388 1453.18262437 23.68393091 1364.77500725 23.68092728 C1363.40978123 23.68088047 1362.04455522 23.68083365 1360.63795872 23.68078542 C1300.68334672 23.67873487 1240.72873472 23.6774907 1180.77412269 23.67713937 C1156.65491552 23.6769961 1132.53570836 23.67675743 1108.4165012 23.67647531 C1104.41735069 23.67642978 1100.41820018 23.67638813 1096.41904967 23.6763472 C1035.23025361 23.67570091 974.04145886 23.67273938 912.85266352 23.66288662 C911.5325931 23.66267425 910.21252269 23.66246188 908.85245014 23.66224307 C887.61667239 23.65881417 866.38089468 23.65520124 845.14511696 23.65156667 C784.87369425 23.64125605 724.60227315 23.63247103 664.33084941 23.63441133 C663.10836942 23.63445007 661.88588943 23.63448881 660.62636459 23.63452873 C633.95832934 23.63540521 607.29029421 23.63711713 580.62225907 23.63964835 C569.98693399 23.64064513 559.35160889 23.64153177 548.7162838 23.64238358 C546.97606305 23.64252741 546.97606305 23.64252741 545.20068632 23.64267414 C508.38088695 23.64566499 471.56109688 23.63942466 434.74129941 23.62786471 C398.49573029 23.61652342 362.25017363 23.61425745 326.004604 23.62527022 C321.0428785 23.62677641 316.08115297 23.6281777 311.11942743 23.62951604 C310.14805245 23.62978208 309.17667747 23.63004813 308.17586689 23.63032223 C292.84704735 23.63424692 277.5182491 23.62814769 262.18943326 23.61777618 C247.19926385 23.60783792 232.20912656 23.6085113 217.21895839 23.62062713 C208.47148575 23.62737862 199.72410759 23.6259926 190.9766424 23.6123732 C185.17872294 23.60416446 179.38087422 23.60686803 173.58296054 23.61837276 C170.30437107 23.62457702 167.02600316 23.62458272 163.74741825 23.61442169 C150.14333519 23.57508267 137.29581753 23.94065809 124 27 Z " fill="#A5A5A5" transform="translate(0,0)"/>
<path d="M0 0 C7.6495083 3.93403284 15.00816657 8.38768737 22.40625 12.76953125 C28.98669002 16.65394465 35.65874993 20.36041598 42.3515625 24.046875 C50.9177618 28.77248644 59.41928374 33.58621686 67.8515625 38.546875 C77.48474727 44.2125115 87.21785636 49.67734415 96.99829102 55.08422852 C106.38223508 60.27447201 115.70218641 65.56839597 125.00048828 70.91015625 C130.57186282 74.10852026 136.14928283 77.29632367 141.7265625 80.484375 C142.32443573 80.82620819 142.92230896 81.16804138 143.53829956 81.52023315 C152.38779537 86.57919915 161.25376314 91.60829854 170.1328125 96.61523438 C178.278971 101.21296234 186.39725289 105.85895095 194.51403809 110.50823975 C202.84838214 115.28044789 211.21188149 119.99747358 219.6015625 124.671875 C228.70095942 129.74301245 237.71123149 134.9498481 246.69238281 140.22705078 C255.31268197 145.2735937 264.03923266 150.11568689 272.78466797 154.94116211 C280.20072435 159.04414706 287.54665025 163.2494397 294.8515625 167.546875 C304.48474727 173.2125115 314.21785636 178.67734415 323.99829102 184.08422852 C333.3850808 189.27604597 342.70804172 194.5713608 352.00927734 199.91455078 C357.53693356 203.08908346 363.06862424 206.25656068 368.6015625 209.421875 C369.19488373 209.76143219 369.78820496 210.10098938 370.39950562 210.45083618 C379.78973211 215.82289405 389.2214304 221.11704154 398.671875 226.38256836 C407.05327451 231.06696148 415.34409821 235.89784427 423.62402344 240.75878906 C430.61677246 244.85457571 437.65987572 248.81056898 444.8515625 252.546875 C440.26046176 258.05460706 435.38159198 263.15685313 430.30459023 268.2168951 C429.45348032 269.06915886 428.60237041 269.92142261 427.72546929 270.79951254 C425.3682323 273.15893613 423.00878195 275.51610544 420.64836177 277.87234192 C418.07887738 280.43838093 415.5123088 283.00733362 412.94536626 285.57591492 C408.44809265 290.07525944 403.94896883 294.57274713 399.44862366 299.06901932 C392.75680157 305.75480188 386.0678534 312.44345419 379.37948921 319.13269576 C368.1280587 330.3854397 356.87430335 341.63585585 345.61922073 352.88494682 C334.47542916 364.0228212 323.3326724 375.16172917 312.19129562 386.30201912 C311.49853467 386.99471133 310.80577372 387.68740354 310.09202001 388.40108643 C306.57383662 391.91893149 303.0556717 395.43679502 299.5375139 398.95466567 C274.61896874 423.87111047 249.69810595 448.78523604 224.77587891 473.69799805 C200.56441822 497.90027425 176.3540082 522.10360068 152.14501953 546.30834961 C151.39878073 547.05445688 150.65254193 547.80056415 149.88368984 548.56928074 C142.38964815 556.06200391 134.89562781 563.55474844 127.40162311 571.04750861 C112.13549739 586.31109812 96.86922916 601.5745451 81.60287476 616.83790588 C80.90095403 617.53968932 80.19903331 618.24147275 79.47584227 618.96452234 C32.6034696 665.82769448 -14.27222495 712.68754385 -61.1484375 759.546875 C-64.59746403 756.18753863 -67.12081095 753.30727258 -69.2734375 748.984375 C-69.98886719 747.59025391 -69.98886719 747.59025391 -70.71875 746.16796875 C-74.37021398 736.91958868 -75.58986992 728.07333533 -75.52596092 718.18448544 C-75.53032124 716.99376166 -75.53468157 715.80303788 -75.53917402 714.57623157 C-75.54818971 711.29250028 -75.54390997 708.0091077 -75.53384016 704.72538987 C-75.52619268 701.14485845 -75.53602452 697.5643663 -75.54357016 693.98384053 C-75.55438203 687.71554803 -75.55409084 681.44733312 -75.54642868 675.17903709 C-75.53506576 665.85781316 -75.54089046 656.53665449 -75.5500536 647.21543097 C-75.56584124 630.56655868 -75.56448551 613.91772094 -75.55581686 597.26884536 C-75.54826837 582.69970956 -75.54630095 568.13058641 -75.5498848 553.56144905 C-75.55011395 552.5948139 -75.55034311 551.62817875 -75.55057921 550.63225162 C-75.55151323 546.70831487 -75.55246843 542.78437813 -75.5534585 538.86044139 C-75.56263397 502.05666142 -75.55431739 465.25290345 -75.53816781 428.44912687 C-75.52393003 395.75358907 -75.525206 363.05808632 -75.53955078 330.36254883 C-75.5556154 293.62430711 -75.56198437 256.88608483 -75.55271399 220.14784008 C-75.55175184 216.23138845 -75.55081332 212.31493682 -75.5498848 208.39848518 C-75.54964756 207.43416266 -75.54941033 206.46984013 -75.54916591 205.4762957 C-75.5457539 190.91588265 -75.54974353 176.35548366 -75.55732346 161.79507256 C-75.56589906 145.2395493 -75.56376131 128.684066 -75.54748122 112.12854772 C-75.538671 102.86370455 -75.53809932 93.59894789 -75.54941975 84.33410697 C-75.55614812 78.14480118 -75.551958 71.95556473 -75.53890544 65.76626921 C-75.53177236 62.24040948 -75.52932209 58.71472157 -75.54012339 55.18886726 C-75.54923386 51.38688727 -75.53990035 47.58537877 -75.52596092 43.78342342 C-75.53298442 42.69431328 -75.54000792 41.60520314 -75.54724425 40.48308966 C-75.44662978 26.77046977 -70.88729408 12.31767602 -61.4609375 2.046875 C-43.59036351 -14.24688364 -19.74491865 -9.80060112 0 0 Z " fill="#00D2FE" transform="translate(378.1484375,225.453125)"/>
<path d="M0 0 C3.92599916 1.26939566 7.34426875 2.60827188 10.88671875 4.73046875 C12.27262207 5.55200439 12.27262207 5.55200439 13.68652344 6.39013672 C14.6768457 6.9832666 15.66716797 7.57639648 16.6875 8.1875 C25.47189038 13.38243924 34.31367851 18.44601221 43.25 23.375 C53.17953206 28.85814234 63.05168273 34.43058917 72.88989258 40.07507324 C81.14726416 44.81181122 89.43353646 49.49272395 97.75 54.125 C107.05142926 59.30866656 116.26958582 64.62119715 125.44726562 70.02075195 C130.74116815 73.12806168 136.06482211 76.15267754 141.46362305 79.07373047 C158.15934865 88.11955126 172.9260172 98.69356333 180.171875 116.953125 C182.83717937 126.75943352 181.27566519 136.9189412 177 146 C166.50074238 164.28731453 148.38669725 173.39556581 130.52807617 183.18969727 C122.950095 187.34657344 115.44703631 191.61177895 108 196 C98.53183959 201.56876814 88.96712135 206.9412443 79.35205078 212.25170898 C70.55893521 217.11495802 61.82558795 222.07473357 53.11010742 227.07507324 C44.85273596 231.81181115 36.56646701 236.49273048 28.25 241.125 C20.15266929 245.6375351 12.11720282 250.24139004 4.125 254.9375 C-5.47718607 260.57961427 -15.18220327 266.01402469 -24.93310547 271.39428711 C-32.34915852 275.49727022 -39.69515175 279.70245979 -47 284 C-56.55946863 289.62396361 -66.22294684 295.03655201 -75.93359375 300.39453125 C-83.34946317 304.49746932 -90.69530867 308.70255211 -98 313 C-107.55946863 318.62396361 -117.22294684 324.03655201 -126.93359375 329.39453125 C-134.34946317 333.49746932 -141.69530867 337.70255211 -149 342 C-158.55946863 347.62396361 -168.22294684 353.03655201 -177.93359375 358.39453125 C-185.3494665 362.49747115 -192.69524467 366.70265701 -200 371 C-209.63318477 376.6656365 -219.36629386 382.13046915 -229.14672852 387.53735352 C-238.53067258 392.72759701 -247.85062391 398.02152097 -257.14892578 403.36328125 C-262.72030032 406.56164526 -268.29772033 409.74944867 -273.875 412.9375 C-274.47287323 413.27933319 -275.07074646 413.62116638 -275.68673706 413.97335815 C-284.53623287 419.03232415 -293.40220064 424.06142354 -302.28125 429.06835938 C-310.4274085 433.66608734 -318.54569039 438.31207595 -326.66247559 442.96136475 C-334.99681964 447.73357289 -343.36031899 452.45059858 -351.75 457.125 C-359.84727008 461.63764737 -367.88279437 466.24138839 -375.875 470.9375 C-385.46945284 476.57507033 -395.16407773 482.01007316 -404.91113281 487.37890625 C-412.56078524 491.6054768 -420.10639774 495.98283334 -427.625 500.4375 C-446.3613535 511.49572469 -466.57397645 522.35840272 -489.046875 517.31640625 C-494.39321484 515.3156797 -500.1554734 512.29556045 -504 508 C-504 504 -504 504 -502.67413688 502.17545222 C-502.045223 501.54716226 -501.41630912 500.91887231 -500.76833725 500.27154326 C-500.04589498 499.54011182 -499.32345271 498.80868038 -498.57911825 498.05508435 C-497.77052815 497.2570023 -496.96193805 496.45892025 -496.12884521 495.6366539 C-495.27790488 494.78109819 -494.42696454 493.92554247 -493.55023813 493.04406083 C-491.17084502 490.65586012 -488.78273024 488.27701775 -486.3906396 485.90157483 C-483.79636056 483.32098971 -481.21366234 480.72885941 -478.62951279 478.13813806 C-474.09383418 473.59414841 -469.55074314 469.05767581 -465.00279236 464.52597046 C-458.24014559 457.78741329 -451.4889476 451.03747363 -444.74009478 444.28510493 C-433.3884475 432.92819549 -422.02749386 421.58063887 -410.66125488 410.23833466 C-399.40300342 399.00372999 -388.14887868 387.76501793 -376.90026855 376.52075958 C-376.20154978 375.82231576 -375.502831 375.12387195 -374.78293893 374.40426316 C-371.23469758 370.85737509 -367.68653008 367.31041315 -364.13839102 363.76342276 C-338.98957498 338.62301425 -313.83149244 313.49189754 -288.66796875 288.36621094 C-264.21796788 263.95293193 -239.77216029 239.53546656 -215.33203125 215.11230469 C-214.57902707 214.35982661 -213.82602289 213.60734854 -213.0502004 212.8320681 C-205.48840913 205.27555078 -197.92670317 197.71894809 -190.36505972 190.16228285 C-174.96033891 174.76770762 -159.55504862 159.37370233 -144.14941406 143.9800415 C-143.44104765 143.27222425 -142.73268123 142.56440699 -142.00284916 141.83514072 C-94.67810274 94.54721332 -47.3400815 47.27257478 0 0 Z " fill="#F33149" transform="translate(822,479)"/>
<path d="M0 0 C3.96268368 3.27946236 7.84436495 6.65231281 11.75 10 C11.75 3.07 11.75 -3.86 11.75 -11 C29.57 -11 47.39 -11 65.75 -11 C65.79414401 20.48282646 65.83105189 51.96562291 65.85213066 83.44847069 C65.85463188 87.17072531 65.85722054 90.89297986 65.85986328 94.61523438 C65.8603879 95.35622511 65.86091252 96.09721584 65.86145304 96.86066084 C65.87014044 108.83691996 65.88590118 120.81315976 65.90430559 132.78940745 C65.92305108 145.09078884 65.93412653 157.39216015 65.93817699 169.69355524 C65.94091243 177.27570539 65.94953191 184.85780091 65.96583293 192.43993424 C65.97771862 198.26747544 65.97889966 204.09498214 65.97621536 209.92253304 C65.97676316 212.30324069 65.98070892 214.68395051 65.98841095 217.06464577 C66.02480636 228.90033661 65.95539063 240.3336677 63.75 252 C63.45029297 253.93552734 63.45029297 253.93552734 63.14453125 255.91015625 C59.09518524 277.84184906 51.06698321 298.75062264 36.75 316 C36.05261719 316.86109375 35.35523437 317.7221875 34.63671875 318.609375 C19.8667903 335.9984681 0.02662721 345.30622884 -21.5625 351.3125 C-22.9222998 351.69438477 -22.9222998 351.69438477 -24.30957031 352.08398438 C-56.01154918 360.56712418 -91.2571915 355.03676505 -119.6171875 339.16015625 C-137.64244964 328.6857609 -152.29898651 313.36690373 -163.1875 295.75 C-163.64842041 295.00548584 -164.10934082 294.26097168 -164.58422852 293.49389648 C-167.40288307 288.79579084 -169.4732582 284.18362955 -171.25 279 C-162.84393839 274.53336448 -154.11277488 270.87100382 -145.33447266 267.21411133 C-142.85639447 266.17973384 -140.38328897 265.13402821 -137.91015625 264.08789062 C-136.32841471 263.42639017 -134.74639336 262.76555829 -133.1640625 262.10546875 C-132.42862213 261.79304733 -131.69318176 261.48062592 -130.93545532 261.15873718 C-127.43113403 259.71165911 -125.0991608 259 -121.25 259 C-120.8375 259.82242187 -120.425 260.64484375 -120 261.4921875 C-116.10169478 269.02775071 -111.91039672 275.61651867 -106.25 282 C-105.42048828 282.95326172 -105.42048828 282.95326172 -104.57421875 283.92578125 C-94.8128454 294.43265328 -79.95624435 302.09595554 -65.59765625 303.20483398 C-44.91150963 303.92249426 -25.86706542 301.48775429 -9.625 287.5625 C7.40639094 270.87344858 10.88430638 247.99569365 11.375 225.25 C11.41329461 223.76300086 11.45235242 222.27602117 11.4921875 220.7890625 C11.58689905 217.19288911 11.67136909 213.59656524 11.75 210 C11.22470703 210.45963135 10.69941406 210.9192627 10.15820312 211.39282227 C8.70881719 212.66103496 7.25892667 213.92867117 5.80859375 215.19580078 C4.31311085 216.50647661 2.82589009 217.82659831 1.34375 219.15234375 C-15.43936209 233.46182551 -37.33775126 239.42142007 -59.0625 239.3125 C-60.2074292 239.30831055 -61.3523584 239.30412109 -62.53198242 239.29980469 C-70.84388631 239.18879823 -78.26432608 238.41739676 -86.25 236 C-87.33925781 235.69835937 -88.42851562 235.39671875 -89.55078125 235.0859375 C-122.0699902 225.68555513 -149.12994603 203.33062871 -165.78735352 173.98120117 C-169.50729124 167.16908002 -172.51539551 160.18189257 -175.125 152.875 C-175.53625122 151.73200439 -175.53625122 151.73200439 -175.95581055 150.56591797 C-180.1294752 138.23281018 -181.75533609 126.15301937 -181.64111328 113.22094727 C-181.62503041 111.06657405 -181.64107201 108.91408276 -181.66015625 106.75976562 C-181.68031931 93.91991317 -179.85966253 81.37794306 -175.6875 69.1875 C-175.43774414 68.45305664 -175.18798828 67.71861328 -174.93066406 66.96191406 C-162.86209348 33.18419878 -137.99305426 6.66623057 -105.8125 -8.75 C-98.83008491 -11.97347965 -91.71910413 -14.1624983 -84.25 -16 C-83.20070313 -16.2990625 -82.15140625 -16.598125 -81.0703125 -16.90625 C-53.89858566 -23.94353177 -22.00957006 -17.42839258 0 0 Z " fill="#FDFDFD" transform="translate(2402.25,679)"/>
<path d="M0 0 C158.98534142 0 158.98534142 0 178.1875 6.6875 C179.20505371 7.03635254 180.22260742 7.38520508 181.27099609 7.74462891 C211.06718013 18.27567189 234.47603905 39.04885318 249 67 C249.47050781 67.88816406 249.94101563 68.77632812 250.42578125 69.69140625 C262.28518723 93.74066605 264.28098653 125.568671 256 151 C255.78037598 151.68690918 255.56075195 152.37381836 255.33447266 153.08154297 C246.80818052 179.05867506 229.66525854 201.94797346 206 216 C205.31873047 216.40702148 204.63746094 216.81404297 203.93554688 217.23339844 C194.93644992 222.50749208 185.80728238 226.73173654 175.875 229.9375 C175.04234619 230.20771973 174.20969238 230.47793945 173.35180664 230.75634766 C157.7462474 235.48004708 142.62958499 236.42887148 126.43359375 236.29296875 C124.64392377 236.28854278 122.85424986 236.28549159 121.0645752 236.28381348 C114.52215651 236.26825998 107.97982166 236.22637754 101.4375 236.1875 C86.773125 236.125625 72.10875 236.06375 57 236 C57 283.52 57 331.04 57 380 C38.19 380 19.38 380 0 380 C0 254.6 0 129.2 0 0 Z " fill="#FDFDFD" transform="translate(2953,531)"/>
<path d="M0 0 C2.87149667 0.01608409 5.74158253 0.00004297 8.61303711 -0.01904297 C59.90231266 -0.07601097 102.56388191 21.34247706 140.43920898 54.39111328 C136.13293642 59.53941072 131.61608967 64.348634 126.85327148 69.07470703 C126.15148773 69.77507584 125.44970398 70.47544464 124.72665405 71.19703674 C122.50819763 73.40994355 120.28627083 75.61932745 118.06420898 77.82861328 C116.54965432 79.33814643 115.03532914 80.84790985 113.52124023 82.35791016 C109.82987799 86.03831031 106.1356683 89.71583285 102.43920898 93.39111328 C99.2695482 91.87942259 97.09979353 90.27047 94.56420898 87.82861328 C66.80802532 62.78918495 28.75378446 54.2549816 -7.56079102 55.39111328 C-18.1475877 56.00025254 -28.39255779 58.52452333 -38.56079102 61.39111328 C-39.7505957 61.71595703 -40.94040039 62.04080078 -42.16625977 62.37548828 C-63.07257408 68.66790131 -80.80639173 80.52355104 -96.56079102 95.39111328 C-97.29813477 96.06400391 -98.03547852 96.73689453 -98.79516602 97.43017578 C-121.89317686 119.29956903 -138.35319875 154.5169339 -139.68359375 186.32739258 C-140.05372504 201.93928277 -139.71237694 217.07215454 -136.56079102 232.39111328 C-136.34422852 233.48810547 -136.12766602 234.58509766 -135.90454102 235.71533203 C-131.14046555 256.9551685 -120.81102761 277.96711178 -106.56079102 294.39111328 C-105.88765869 295.16938477 -105.88765869 295.16938477 -105.20092773 295.96337891 C-90.91714802 312.35345329 -74.36186045 324.48287029 -54.56079102 333.39111328 C-53.94381348 333.67325684 -53.32683594 333.95540039 -52.69116211 334.24609375 C-42.60999022 338.79239954 -32.39940649 341.39715152 -21.56079102 343.39111328 C-20.21247192 343.65480713 -20.21247192 343.65480713 -18.83691406 343.92382812 C-14.93384679 344.48053658 -11.08116281 344.5900669 -7.14672852 344.62939453 C-5.94179749 344.64415329 -5.94179749 344.64415329 -4.71252441 344.65921021 C19.64541769 345.01131623 19.64541769 345.01131623 43.43920898 340.39111328 C44.72384033 340.02107178 44.72384033 340.02107178 46.03442383 339.64355469 C62.52466945 334.83721901 76.95781808 328.17996564 90.43920898 317.39111328 C90.99495605 316.94751465 91.55070312 316.50391602 92.12329102 316.046875 C117.55780077 295.55622845 128.55336101 269.14912513 133.43920898 237.39111328 C90.20920898 237.39111328 46.97920898 237.39111328 2.43920898 237.39111328 C2.43920898 219.24111328 2.43920898 201.09111328 2.43920898 182.39111328 C63.48920898 182.39111328 124.53920898 182.39111328 187.43920898 182.39111328 C194.50432485 214.18413468 191.76788919 251.77784585 180.43920898 282.39111328 C180.15706543 283.16777344 179.87492187 283.94443359 179.58422852 284.74462891 C170.86733709 308.42651709 158.97244477 328.24032096 141.43920898 346.39111328 C140.75213867 347.11814453 140.06506836 347.84517578 139.35717773 348.59423828 C134.11360645 354.01935888 128.38748411 358.75951364 122.43920898 363.39111328 C120.98514648 364.54740234 120.98514648 364.54740234 119.50170898 365.72705078 C112.04086474 371.37754311 104.16799989 375.86693275 95.87670898 380.20361328 C94.84852051 380.74276367 93.82033203 381.28191406 92.76098633 381.83740234 C81.8582873 387.41423935 70.77014816 391.61369254 58.87670898 394.51611328 C57.95825195 394.75458984 57.03979492 394.99306641 56.09350586 395.23876953 C38.85869724 399.52142849 21.83967266 400.94680835 4.12670898 400.82861328 C2.6471019 400.8235527 2.6471019 400.8235527 1.13760376 400.81838989 C-13.43851006 400.74625647 -27.40741324 400.1514005 -41.56079102 396.39111328 C-42.52065918 396.14973633 -43.48052734 395.90835937 -44.46948242 395.65966797 C-77.98394129 387.12402972 -107.65695562 371.19077006 -133.56079102 348.39111328 C-134.33165039 347.74271484 -135.10250977 347.09431641 -135.89672852 346.42626953 C-139.88094385 343.06029451 -143.36872714 339.50913265 -146.73266602 335.52392578 C-147.9782695 334.07072172 -149.2617816 332.64936743 -150.57641602 331.25830078 C-161.9716612 319.16622406 -170.95568101 305.11125801 -178.56079102 290.39111328 C-178.9059375 289.7267627 -179.25108398 289.06241211 -179.60668945 288.37792969 C-202.98907113 242.74386366 -207.32979029 189.0198151 -191.59985352 140.20361328 C-179.42407925 104.55198656 -157.90185129 71.25668192 -128.31860352 47.59814453 C-126.6272225 46.24456058 -124.95119129 44.87116058 -123.30297852 43.46533203 C-102.24007782 25.74167169 -75.8770255 13.44480347 -49.49829102 6.07861328 C-48.68602051 5.84835449 -47.87375 5.6180957 -47.03686523 5.38085938 C-31.48731234 1.2599104 -16.04193064 -0.10639151 0 0 Z " fill="#FDFDFD" transform="translate(1445.560791015625,517.60888671875)"/>
<path d="M0 0 C0.79075928 0.01160156 1.58151855 0.02320313 2.39624023 0.03515625 C22.38721605 0.58904699 39.08006462 11.69175466 55.8046875 21.59765625 C62.38512752 25.48206965 69.05718743 29.18854098 75.75 32.875 C84.3161993 37.60061144 92.81772124 42.41434186 101.25 47.375 C110.88318477 53.0406365 120.61629386 58.50546915 130.39672852 63.91235352 C139.78067258 69.10259701 149.10062391 74.39652097 158.39892578 79.73828125 C163.97030032 82.93664526 169.54772033 86.12444867 175.125 89.3125 C175.72287323 89.65433319 176.32074646 89.99616638 176.93673706 90.34835815 C185.78623287 95.40732415 194.65220064 100.43642354 203.53125 105.44335938 C211.6774085 110.04108734 219.79569039 114.68707595 227.91247559 119.33636475 C236.24681964 124.10857289 244.61031899 128.82559858 253 133.5 C262.09939692 138.57113745 271.10966899 143.7779731 280.09082031 149.05517578 C288.71111947 154.1017187 297.43767016 158.94381189 306.18310547 163.76928711 C313.59916185 167.87227206 320.94508775 172.0775647 328.25 176.375 C337.88318477 182.0406365 347.61629386 187.50546915 357.39672852 192.91235352 C366.7835183 198.10417097 376.10647922 203.3994858 385.40771484 208.74267578 C390.93537106 211.91720846 396.46706174 215.08468568 402 218.25 C402.59332123 218.58955719 403.18664246 218.92911438 403.79794312 219.27896118 C413.18816961 224.65101905 422.6198679 229.94516654 432.0703125 235.21069336 C440.45171201 239.89508648 448.74253571 244.72596927 457.02246094 249.58691406 C464.01520996 253.68270071 471.05831322 257.63869398 478.25 261.375 C472.71067328 268.12380093 466.54576735 274.21309086 460.36962891 280.36889648 C459.16657377 281.57166918 457.96373952 282.77466284 456.7611084 283.9778595 C453.51173602 287.22751764 450.25929957 290.4740931 447.0062871 293.72010684 C443.60122037 297.11890322 440.19900363 300.52055006 436.79647827 303.92189026 C430.36006019 310.35520586 423.92109825 316.78596905 417.48120916 323.21580988 C410.14670138 330.53912285 402.81504817 337.8652908 395.48362851 345.19169509 C380.4089173 360.25596645 365.33064065 375.31666468 350.25 390.375 C345.48169839 386.39484376 340.97551975 382.24351942 336.5946207 377.84266853 C335.96015716 377.20935883 335.32569361 376.57604913 334.6720039 375.92354822 C332.55350212 373.80768649 330.43857648 371.68828689 328.32362366 369.56887817 C326.7874947 368.03318545 325.25114594 366.49771257 323.71459669 364.96244037 C319.49817888 360.74825723 315.28488324 356.53096463 311.07209146 352.31315708 C306.52660631 347.76335289 301.978231 343.21643958 297.4302063 338.66917419 C289.55248264 330.79214754 281.67674686 322.91313688 273.80220222 315.03293228 C265.54473082 306.76954091 257.28622354 298.50718706 249.02633476 290.24621201 C248.51248128 289.73228979 247.99862781 289.21836757 247.46920301 288.68887195 C244.85952375 286.07885435 242.24982601 283.46885523 239.64012115 280.85886322 C221.16262059 262.37926305 202.68743884 243.89734622 184.21362305 225.4140625 C166.2681838 207.45943676 148.32169291 189.50586326 130.3737793 171.55371094 C129.82040524 171.00020535 129.26703118 170.44669976 128.69688821 169.87642128 C123.13960363 164.31781817 117.5822977 158.75923642 112.02497611 153.20067032 C100.70438806 141.87754616 89.3839426 130.55427945 78.06358337 119.23092651 C77.28287033 118.45000754 77.28287033 118.45000754 76.48638531 117.65331242 C41.73853443 82.89626314 6.99401786 48.13588081 -27.75 13.375 C-26.16201589 9.95516594 -24.80690107 8.39126812 -21.625 6.3125 C-20.90054687 5.82652344 -20.17609375 5.34054688 -19.4296875 4.83984375 C-12.97009692 1.30872645 -7.35747226 -0.14003624 0 0 Z " fill="#01ED76" transform="translate(344.75,216.625)"/>
<path d="M0 0 C21.28754484 18.54821736 35.35153664 42.2561473 41.39453125 69.8203125 C41.6716394 71.00330933 41.6716394 71.00330933 41.9543457 72.21020508 C43.57783723 79.88626919 43.73354171 87.48847758 43.71020508 95.29760742 C43.70706066 97.48733123 43.73053379 99.67567789 43.75585938 101.86523438 C43.81730906 115.22664647 41.90450401 128.01900057 37.33203125 140.6328125 C37.03458008 141.46119629 36.73712891 142.28958008 36.43066406 143.14306641 C24.31006725 175.64718467 0.79669899 201.1308964 -30.60546875 215.8203125 C-62.97633193 230.57556587 -101.42234044 231.1190482 -134.60546875 218.8203125 C-166.64018649 205.64525311 -191.61040538 181.41421371 -205.60546875 149.8203125 C-218.45052085 118.56539455 -220.18638701 81.63007787 -207.42578125 49.9375 C-201.73170787 36.73264212 -194.94345991 24.77336502 -185.60546875 13.8203125 C-184.826875 12.87929688 -184.04828125 11.93828125 -183.24609375 10.96875 C-165.26260523 -9.89444747 -139.30696363 -23.41459201 -112.60546875 -29.1796875 C-111.63609375 -29.40398438 -110.66671875 -29.62828125 -109.66796875 -29.859375 C-70.89182604 -37.38772186 -29.87118063 -24.98968335 0 0 Z " fill="#FDFDFD" transform="translate(1870.60546875,691.1796875)"/>
<path d="M0 0 C0.76570313 0.66257812 1.53140625 1.32515625 2.3203125 2.0078125 C3.12726562 2.67039062 3.93421875 3.33296875 4.765625 4.015625 C28.54810489 24.21954992 40.32710952 52.95318309 45.3203125 83.0078125 C45.50722656 84.13058594 45.69414062 85.25335937 45.88671875 86.41015625 C49.74889972 118.45581996 40.75216433 151.58153094 21.7578125 177.5703125 C0.79134049 203.98071058 -28.48936343 223.82819155 -62.49609375 228.53125 C-98.01323295 232.34001967 -133.23357292 225.98795793 -162.12890625 204.0703125 C-166.47921464 200.5527584 -170.61367689 196.84866943 -174.6796875 193.0078125 C-175.42992187 192.32203125 -176.18015625 191.63625 -176.953125 190.9296875 C-197.91179991 171.07410074 -211.22823844 140.34754092 -212.87255859 111.640625 C-213.76508787 72.78044138 -205.0416904 39.58171563 -178.0390625 10.4375 C-161.01069818 -7.09833213 -140.45771456 -19.16838138 -116.6796875 -24.9921875 C-114.96845703 -25.50072266 -114.96845703 -25.50072266 -113.22265625 -26.01953125 C-74.93043793 -36.53194841 -30.10989062 -25.34000696 0 0 Z " fill="#FDFDFD" transform="translate(2150.6796875,688.9921875)"/>
<path d="M0 0 C3.92599916 1.26939566 7.34426875 2.60827188 10.88671875 4.73046875 C11.8106543 5.27815918 12.73458984 5.82584961 13.68652344 6.39013672 C15.17200684 7.27983154 15.17200684 7.27983154 16.6875 8.1875 C25.47189038 13.38243924 34.31367851 18.44601221 43.25 23.375 C53.17953206 28.85814234 63.05168273 34.43058917 72.88989258 40.07507324 C81.14726416 44.81181122 89.43353646 49.49272395 97.75 54.125 C107.05142926 59.30866656 116.26958582 64.62119715 125.44726562 70.02075195 C130.74116815 73.12806168 136.06482211 76.15267754 141.46362305 79.07373047 C158.15934865 88.11955126 172.9260172 98.69356333 180.171875 116.953125 C182.83717937 126.75943352 181.27566519 136.9189412 177 146 C166.50074238 164.28731453 148.38669725 173.39556581 130.52807617 183.18969727 C122.950095 187.34657344 115.44703631 191.61177895 108 196 C98.53183959 201.56876814 88.96712135 206.9412443 79.35205078 212.25170898 C71.1525744 216.78663125 63.0023899 221.40023053 54.875 226.0625 C44.78328571 231.85090598 34.66550507 237.58958454 24.49487305 243.23852539 C20.11634275 245.67357713 15.75629009 248.11966947 11.47265625 250.71875 C10.81894043 251.11126953 10.16522461 251.50378906 9.49169922 251.90820312 C7.84458489 252.90494132 6.20875786 253.92027115 4.57421875 254.9375 C2 256 2 256 0.16576767 255.37803078 C-2.67805709 253.56856705 -4.84400931 251.40128384 -7.22650146 249.01400757 C-7.74036321 248.50185467 -8.25422495 247.98970178 -8.78365827 247.4620291 C-10.50346398 245.74551635 -12.2160261 244.02195547 -13.92871094 242.29833984 C-15.16038278 241.06610385 -16.3924952 239.83430811 -17.62501526 238.60292053 C-20.97007414 235.258436 -24.30892623 231.90781626 -27.6467123 228.55607557 C-31.1358403 225.05445392 -34.63062436 221.55848673 -38.12481689 218.06192017 C-44.74085981 211.43965848 -51.3517875 204.81231456 -57.96090055 198.18313754 C-65.48532225 190.63636922 -73.01541669 183.09527207 -80.54599714 175.55465007 C-96.03699301 160.0427432 -111.52083765 144.52371482 -127 129 C-125.41207066 125.13996781 -122.94858507 122.70219512 -120.01400757 119.77349854 C-119.50185467 119.25963679 -118.98970178 118.74577505 -118.4620291 118.21634173 C-116.74551635 116.49653602 -115.02195547 114.7839739 -113.29833984 113.07128906 C-112.06610385 111.83961722 -110.83430811 110.6075048 -109.60292053 109.37498474 C-106.258436 106.02992586 -102.90781626 102.69107377 -99.55607557 99.3532877 C-96.05445392 95.8641597 -92.55848673 92.36937564 -89.06192017 88.87518311 C-82.43965848 82.25914019 -75.81231456 75.6482125 -69.18313754 69.03909945 C-61.63636922 61.51467775 -54.09527207 53.98458331 -46.55465007 46.45400286 C-31.0427432 30.96300699 -15.52371482 15.47916235 0 0 Z " fill="#FECB00" transform="translate(822,479)"/>
<path d="M0 0 C0.75611069 -0.00983917 1.51222137 -0.01967834 2.29124451 -0.02981567 C35.56779673 -0.37395661 67.32166303 4.92255835 92.828125 28.23828125 C93.66859375 28.9859375 94.5090625 29.73359375 95.375 30.50390625 C112.11915553 46.20805212 122.04098549 68.40921201 123.828125 91.23828125 C123.96949557 96.40638893 123.95471468 101.57273237 123.94165039 106.7421875 C123.94136799 108.30985004 123.94152729 109.87751271 123.9420929 111.44517517 C123.9423788 115.68218131 123.93651549 119.91915891 123.92951894 124.15615845 C123.92325099 128.59108331 123.92267888 133.02600889 123.92149353 137.4609375 C123.91839035 145.85072001 123.91019064 154.24048943 123.90014404 162.63026619 C123.88895142 172.18528626 123.88346452 181.74030696 123.87844861 191.29533195 C123.86800716 210.94299064 123.84967429 230.59063139 123.828125 250.23828125 C106.008125 250.23828125 88.188125 250.23828125 69.828125 250.23828125 C69.828125 240.66828125 69.828125 231.09828125 69.828125 221.23828125 C66.42767397 222.37176493 65.95144313 223.09032985 63.953125 225.92578125 C63.42460937 226.65152344 62.89609375 227.37726563 62.3515625 228.125 C61.84882813 228.82238281 61.34609375 229.51976562 60.828125 230.23828125 C49.18025035 245.76878078 30.33764768 254.05312934 11.703125 257.48828125 C-15.66968748 261.19536105 -43.41673178 255.41225114 -65.96484375 239.234375 C-82.45426254 226.4868818 -94.3347194 209.7249431 -97.85400391 188.81201172 C-99.72012314 173.70246567 -99.85197462 158.14487386 -93.171875 144.23828125 C-92.71425781 143.25214844 -92.25664062 142.26601563 -91.78515625 141.25 C-80.17371367 118.24980004 -58.34780497 103.73547199 -34.609375 95.42578125 C-11.34563536 88.12976153 16.20384131 85.5192017 39.828125 92.23828125 C41.2328538 92.60630612 42.63781445 92.97344684 44.04296875 93.33984375 C53.11348682 95.7869332 61.42859204 98.98738718 69.828125 103.23828125 C68.45182883 89.35206918 65.15740234 77.16089412 54.828125 67.23828125 C36.83686914 53.21271939 16.35990166 50.00462482 -5.99609375 52.69921875 C-19.35921068 55.73223594 -31.05022346 62.82848048 -38.734375 74.23828125 C-39.56029909 75.56334103 -40.37818017 76.89366883 -41.171875 78.23828125 C-46.71002281 77.63117002 -51.30925181 75.68475199 -56.3671875 73.4921875 C-57.67198563 72.9354258 -57.67198563 72.9354258 -59.00314331 72.36741638 C-61.77039522 71.18467416 -64.53357479 69.9927223 -67.296875 68.80078125 C-69.16251401 68.00267895 -71.02839703 67.20514682 -72.89453125 66.40820312 C-76.31147778 64.94542829 -79.72823037 63.48224369 -83.14111328 62.01000977 C-83.82472931 61.71546402 -84.50834534 61.42091827 -85.212677 61.1174469 C-87.22934829 60.21249083 -89.20192896 59.24041534 -91.171875 58.23828125 C-88.98798845 43.56362893 -74.41983479 29.90593362 -63.171875 21.23828125 C-44.69037564 8.30873434 -22.6360196 0.24362593 0 0 Z " fill="#FDFDFD" transform="translate(3431.171875,659.76171875)"/>
<path d="M0 0 C1.77278966 1.53659463 3.5223049 3.10037181 5.25 4.6875 C5.72888672 5.12400879 6.20777344 5.56051758 6.70117188 6.01025391 C23.27178063 21.28258025 34.15025894 39.90642565 42.875 60.5 C43.32560791 61.55695068 43.77621582 62.61390137 44.24047852 63.70288086 C44.64838623 64.69425049 45.05629395 65.68562012 45.4765625 66.70703125 C45.84346191 67.59495361 46.21036133 68.48287598 46.58837891 69.39770508 C47.25 71.6875 47.25 71.6875 46.25 74.6875 C43.85885435 75.89726929 41.55002083 76.91060349 39.0625 77.8828125 C38.31068954 78.18708664 37.55887909 78.49136078 36.7842865 78.80485535 C35.14354891 79.46737772 33.50073731 80.12478087 31.85617065 80.77774048 C29.21075331 81.82808259 26.57075007 82.89107524 23.93188477 83.95776367 C21.16372981 85.0764924 18.39525075 86.19434053 15.62513733 87.30821228 C6.95462342 90.79511146 -1.67969659 94.36611941 -10.30737305 97.9574585 C-14.56952976 99.73121103 -18.83364936 101.50023213 -23.09765625 103.26953125 C-24.39263535 103.80700989 -24.39263535 103.80700989 -25.71377563 104.35534668 C-37.01341471 109.04387663 -48.32258071 113.70935732 -59.63104248 118.3765564 C-70.31398668 122.78577812 -80.9944706 127.2007661 -91.66796875 131.6328125 C-92.62438263 132.02986389 -93.58079651 132.42691528 -94.56619263 132.83599854 C-99.12740259 134.72974072 -103.68811315 136.62467122 -108.24804688 138.52148438 C-109.86717293 139.1940455 -111.48631275 139.86657347 -113.10546875 140.5390625 C-113.84065231 140.84538605 -114.57583588 141.15170959 -115.33329773 141.46731567 C-118.12039915 142.62398369 -120.88608257 143.73286086 -123.75 144.6875 C-120.10813284 157.65563017 -108.77308137 168.28926909 -97.58203125 175.1171875 C-86.55735269 181.23018168 -75.92924308 183.03787672 -63.4375 183 C-61.8606543 183.02416992 -61.8606543 183.02416992 -60.25195312 183.04882812 C-43.32460268 183.05923215 -28.88533949 177.12521842 -15.75 166.6875 C-14.94046875 166.09582031 -14.1309375 165.50414062 -13.296875 164.89453125 C-10.03116792 162.06458569 -7.54700762 158.86574498 -4.9375 155.4375 C-4.43541016 154.7878125 -3.93332031 154.138125 -3.41601562 153.46875 C-2.18870087 151.87908517 -0.96860507 150.2838513 0.25 148.6875 C5.47957321 150.39530414 9.75097517 153.52035384 14.26953125 156.5703125 C15.12810226 157.14457977 15.98667328 157.71884705 16.8712616 158.31051636 C19.60460073 160.1401876 22.3335828 161.97624173 25.0625 163.8125 C26.91833583 165.05641334 28.77445248 166.29990782 30.63085938 167.54296875 C35.17383896 170.58629861 39.71326101 173.63487609 44.25 176.6875 C40.41906228 193.79872503 18.10092444 208.36621748 4.140625 217.33203125 C-15.74037425 229.65566367 -38.49776254 235.34113245 -61.75 235.1875 C-62.45767517 235.18606995 -63.16535034 235.18463989 -63.89447021 235.1831665 C-82.68631646 235.09000989 -100.72310469 231.86272896 -117.75 223.6875 C-118.67449951 223.24881592 -118.67449951 223.24881592 -119.61767578 222.80126953 C-129.22470691 218.18001111 -137.61405987 212.55563419 -145.75 205.6875 C-146.51739502 205.04772217 -146.51739502 205.04772217 -147.30029297 204.39501953 C-171.54217217 183.96664242 -186.66927432 153.276739 -190.46875 121.89453125 C-193.5971055 82.3990431 -184.19536922 47.68901799 -159.3671875 16.71484375 C-154.10409259 10.61229464 -148.14584395 5.56661524 -141.75 0.6875 C-140.97140625 0.08164062 -140.1928125 -0.52421875 -139.390625 -1.1484375 C-98.70358626 -31.32238234 -39.87151907 -31.49850006 0 0 Z " fill="#FDFDFD" transform="translate(2781.75,683.3125)"/>
<path d="M0 0 C20.13 0 40.26 0 61 0 C63.92875 7.1775 66.8575 14.355 69.875 21.75 C79.57030755 45.50533341 89.27597482 69.25640661 99 93 C99.35404907 93.86449768 99.70809814 94.72899536 100.07287598 95.61968994 C102.16884029 100.73702691 104.26575035 105.85397512 106.36364746 110.97052002 C107.03224101 112.60141215 107.70062038 114.23239211 108.36877441 115.86346436 C111.77429713 124.17659689 115.19420617 132.48302018 118.6640625 140.76953125 C119.23524465 142.1367768 119.80637247 143.50404505 120.37744141 144.87133789 C121.42848708 147.38745269 122.48637815 149.90029737 123.54833984 152.41186523 C124.0067627 153.50829346 124.46518555 154.60472168 124.9375 155.734375 C125.33839844 156.68538086 125.73929688 157.63638672 126.15234375 158.61621094 C127 161 127 161 127 164 C127.99 164 128.98 164 130 164 C130.14332764 163.4652002 130.28665527 162.93040039 130.43432617 162.37939453 C132.58175867 154.79112269 135.44997519 147.52480605 138.37652588 140.21359253 C139.69608917 136.91657738 141.00607447 133.61577875 142.31677246 130.31523132 C143.04069246 128.49239209 143.76507062 126.66973475 144.48986816 124.84724426 C148.7727661 114.07232448 153.00162899 103.27624622 157.23480225 92.48171997 C165.35216912 71.78701399 173.50316861 51.10579934 181.6875 30.4375 C182.13933655 29.29554169 182.5911731 28.15358337 183.05670166 26.97702026 C184.33228261 23.75377777 185.60925149 20.53108903 186.88671875 17.30859375 C187.44771019 15.89060486 187.44771019 15.89060486 188.02003479 14.44396973 C188.37009079 13.56196899 188.72014679 12.67996826 189.08081055 11.77124023 C189.38085495 11.01415268 189.68089935 10.25706512 189.99003601 9.47703552 C191.28510617 6.30074921 192.64879356 3.15281504 194 0 C214.79 0 235.58 0 257 0 C253.63038549 10.10884354 253.63038549 10.10884354 251.390625 14.9921875 C250.89151611 16.09014648 250.39240723 17.18810547 249.87817383 18.31933594 C249.34087646 19.49270508 248.8035791 20.66607422 248.25 21.875 C247.0673467 24.47985162 245.89003251 27.08708549 244.71484375 29.6953125 C244.40975388 30.37239258 244.104664 31.04947266 243.79032898 31.74707031 C240.36601801 39.37263157 237.0873846 47.05938538 233.8125 54.75 C228.24806179 67.807167 222.59264866 80.82169351 216.875 93.8125 C211.24791459 106.60033984 205.64283899 119.39644801 200.09741211 132.2199707 C199.5741333 133.42999756 199.05085449 134.64002441 198.51171875 135.88671875 C198.24209824 136.5102272 197.97247772 137.13373566 197.69468689 137.77613831 C193.62223989 147.18985437 189.52824266 156.59422448 185.4375 166 C184.57918171 167.97363228 183.72086466 169.94726509 182.86254883 171.92089844 C181.55613835 174.92484903 180.24970779 177.92879088 178.94322205 180.93270874 C175.9169585 187.89093792 172.89177684 194.84963668 169.8671875 201.80859375 C162.08661492 219.70943731 154.30214864 237.60854858 146.5 255.5 C131.61166744 289.64291684 116.77162634 323.8064205 102 358 C82.53 358 63.06 358 43 358 C45.04085235 351.87744295 47.13838921 346.15896489 49.81640625 340.33984375 C50.18480621 339.52944138 50.55320618 338.719039 50.93276978 337.88407898 C51.72536729 336.14189029 52.52000142 334.40062694 53.3164978 332.66021729 C54.58852842 329.88062368 55.85515921 327.09862585 57.12036133 324.31591797 C58.87923648 320.44773806 60.63978059 316.58032469 62.40136719 312.71337891 C67.10024732 302.39079499 71.75722266 292.04918514 76.39599609 281.69946289 C77.12856759 280.06526104 77.86115219 278.43106506 78.59375 276.796875 C78.95352936 275.99398544 79.31330872 275.19109589 79.68399048 274.36387634 C81.94694542 269.32170046 84.23568671 264.29202918 86.54203796 259.26956177 C88.07014499 255.93672423 89.58638105 252.59856412 91.10073853 249.25946045 C91.8178651 247.68601495 92.54039564 246.11501977 93.26864624 244.54669189 C94.27002992 242.3888098 95.25218336 240.22311749 96.23046875 238.0546875 C96.52840332 237.42532288 96.82633789 236.79595825 97.13330078 236.14752197 C98.97691791 231.9926075 99.2387979 229.36174461 98 225 C97.2133892 222.97376272 96.35271753 220.97539577 95.4375 219.00390625 C94.89714111 217.82666992 94.35678223 216.64943359 93.80004883 215.43652344 C93.50820709 214.80870972 93.21636536 214.180896 92.91567993 213.53405762 C91.30594938 210.06813419 89.72240721 206.59025361 88.13671875 203.11328125 C87.7994426 202.37492035 87.46216644 201.63655945 87.1146698 200.87582397 C83.24343521 192.37913888 79.52735295 183.81590711 75.8125 175.25 C69.69722038 161.16451423 63.52792433 147.10408634 57.3125 133.0625 C51.26979706 119.40816144 45.24752479 105.74548829 39.2722168 92.06152344 C38.70884825 90.77147274 38.14545281 89.48143379 37.58203125 88.19140625 C37.29956039 87.54464935 37.01708954 86.89789246 36.72605896 86.23153687 C34.39147679 80.88924896 32.04651782 75.55155463 29.69921875 70.21484375 C22.42106276 53.66691639 15.15039463 37.11560575 7.94915771 20.5340271 C7.23674245 18.8948324 6.52309129 17.25617425 5.8081665 15.61807251 C4.82429972 13.36278507 3.84509261 11.10553379 2.8671875 8.84765625 C2.57438904 8.17889465 2.28159058 7.51013306 1.97991943 6.82110596 C0 2.22869383 0 2.22869383 0 0 Z " fill="#FDFDFD" transform="translate(3560,668)"/>
<path d="M0 0 C20.73885298 16.7183501 37.56890028 38.84921181 40.546875 66.08984375 C42.54552581 95.15509406 38.78161534 122.52723653 19.16015625 145.390625 C2.95486894 163.71759134 -17.35792306 177.23211611 -42.23187256 179.43807983 C-46.35694164 179.68453686 -50.47442334 179.7294322 -54.60595703 179.70385742 C-56.69923489 179.69531243 -58.78979863 179.72432483 -60.8828125 179.75585938 C-85.47745512 179.88343353 -106.99065783 168.86247044 -124.484375 152 C-139.29678996 137.03839525 -147.47354505 118.82453826 -151.19921875 98.2578125 C-151.38355469 97.36449219 -151.56789063 96.47117187 -151.7578125 95.55078125 C-154.39414535 75.88327155 -151.94254003 56.1034184 -143.19921875 38.2578125 C-142.76996094 37.360625 -142.34070312 36.4634375 -141.8984375 35.5390625 C-130.34125286 12.88046951 -110.56648871 -3.7355328 -86.82421875 -12.4921875 C-85.29244368 -12.94386476 -83.74880288 -13.35600588 -82.19921875 -13.7421875 C-81.08804687 -14.01933594 -79.976875 -14.29648438 -78.83203125 -14.58203125 C-51.9709846 -20.44606256 -22.62570513 -16.32123001 0 0 Z " fill="#FCFCFC" transform="translate(1930.19921875,221.7421875)"/>
<path d="M0 0 C79.47528775 0 79.47528775 0 95.5 5.8125 C96.23863281 6.07111816 96.97726562 6.32973633 97.73828125 6.59619141 C120.014215 14.64732245 136.53693987 31.3851329 146.8125 52.4375 C157.56956714 77.59935948 157.30675428 108.94073014 147.46313477 134.27514648 C142.62315692 146.06393925 135.91838782 155.068926 127 164 C126.26910156 164.7425 125.53820313 165.485 124.78515625 166.25 C92.5490578 196.98534899 38.88358504 189 0 189 C0 126.63 0 64.26 0 0 Z " fill="#FBFBFB" transform="translate(1249,209)"/>
<path d="M0 0 C92.22306572 0 92.22306572 0 109.71484375 16.66015625 C121.1316216 28.35015613 124.77691412 39.49055162 124.58959961 55.60864258 C124.11350425 68.11565733 119.63520349 76.97228726 111 86 C106.39726027 90 106.39726027 90 104 90 C104 90.66 104 91.32 104 92 C105.08667969 92.38671875 105.08667969 92.38671875 106.1953125 92.78125 C116.85352763 97.41267496 124.05206849 106.87645204 128.375 117.375 C133.48057591 131.00466788 131.36023334 145.02577534 125.4375 158.0625 C117.89655156 172.25285619 105.92950889 180.83918211 91 186 C61.55635714 193.36091071 30.34981237 189 0 189 C0 126.63 0 64.26 0 0 Z " fill="#FCFCFC" transform="translate(2245,209)"/>
<path d="M0 0 C18.81 0 37.62 0 57 0 C57 125.4 57 250.8 57 380 C38.19 380 19.38 380 0 380 C0 254.6 0 129.2 0 0 Z " fill="#FDFDFD" transform="translate(2507,531)"/>
<path d="M0 0 C18.48 0 36.96 0 56 0 C56 125.07 56 250.14 56 379 C37.52 379 19.04 379 0 379 C0 253.93 0 128.86 0 0 Z " fill="#FEFEFE" transform="translate(3245,531)"/>
<path d="M0 0 C14.71046552 11.57544828 25.53732136 28.52506567 28.55908203 47.17480469 C30.39138603 63.52602515 30.19378328 81.01597676 23.66015625 96.3125 C23.35190918 97.04283447 23.04366211 97.77316895 22.72607422 98.52563477 C20.11677047 104.50501283 17.00427732 109.70267442 12.84765625 114.75 C12.1928125 115.57757812 11.53796875 116.40515625 10.86328125 117.2578125 C2.15308236 127.65283088 -8.49842971 134.11643442 -21.15234375 138.75 C-21.96703125 139.10191406 -22.78171875 139.45382812 -23.62109375 139.81640625 C-38.3693518 145.25596439 -58.58188794 142.80619757 -72.49682617 136.39160156 C-78.98529638 133.25265691 -84.78219658 129.57237259 -90.15234375 124.75 C-90.97347656 124.02167969 -91.79460937 123.29335938 -92.640625 122.54296875 C-107.44505376 108.63713961 -115.54631238 89.26614635 -116.47265625 69.08984375 C-117.1038545 46.22300441 -111.89763047 25.95490896 -96.15234375 8.75 C-95.55035156 8.05648437 -94.94835938 7.36296875 -94.328125 6.6484375 C-86.8278203 -1.49654748 -76.55355481 -7.53143232 -66.15234375 -11.25 C-65.33378906 -11.54777344 -64.51523438 -11.84554687 -63.671875 -12.15234375 C-41.59295159 -18.9099268 -18.39375512 -13.12862819 0 0 Z " fill="#000000" transform="translate(1828.15234375,725.25)"/>
<path d="M0 0 C15.02566228 12.60291983 25.44079073 29.54315755 28.20703125 49.17578125 C30.20513309 72.9829521 26.78373394 95.93650047 11.51953125 115.11328125 C-0.41102761 129.1256234 -15.26638233 137.91231603 -33.48046875 141.11328125 C-47.17629072 142.15624437 -59.87188592 141.96947352 -72.48046875 136.11328125 C-73.96546875 135.42685547 -73.96546875 135.42685547 -75.48046875 134.7265625 C-95.45640265 124.59987378 -107.29073575 107.85731229 -114.31640625 87.09375 C-120.29797786 67.69574164 -117.77834797 44.12557229 -109.35546875 25.92578125 C-98.82093392 6.24637363 -82.66786778 -7.02390238 -61.23046875 -13.57421875 C-40.21151971 -18.68693608 -16.92068236 -13.15502538 0 0 Z " fill="#000000" transform="translate(2111.48046875,725.88671875)"/>
<path d="M0 0 C2.55619189 2.2303647 4.98218651 4.54112438 7.38671875 6.93359375 C8.07507812 7.58714844 8.7634375 8.24070312 9.47265625 8.9140625 C19.47051147 19.1292624 25.41628601 33.12461773 28.38671875 46.93359375 C28.5775 47.81660156 28.76828125 48.69960938 28.96484375 49.609375 C31.84338856 72.29124197 28.28382071 95.68337392 15.38671875 114.93359375 C6.33196138 126.32085662 -4.0243796 134.47263327 -17.61328125 139.93359375 C-18.42023437 140.28679687 -19.2271875 140.64 -20.05859375 141.00390625 C-34.54772164 146.27670814 -53.89058137 144.27233473 -67.61328125 137.93359375 C-68.58007812 137.51078125 -69.546875 137.08796875 -70.54296875 136.65234375 C-78.45198017 132.79866113 -84.44800981 127.08114889 -90.61328125 120.93359375 C-91.28359375 120.28648437 -91.95390625 119.639375 -92.64453125 118.97265625 C-101.16123302 110.10754395 -106.43369721 97.64785072 -109.61328125 85.93359375 C-109.94972656 84.79664063 -109.94972656 84.79664063 -110.29296875 83.63671875 C-115.34337343 63.57346727 -110.84824207 40.40558187 -100.76171875 22.6796875 C-89.57542772 5.2317475 -74.24376559 -7.32663589 -53.92578125 -12.44140625 C-34.72550866 -15.43652266 -15.53698266 -12.28559615 0 0 Z " fill="#010101" transform="translate(2388.61328125,724.06640625)"/>
<path d="M0 0 C14.664375 -0.103125 29.32875 -0.20625 44.4375 -0.3125 C49.03357178 -0.35802002 53.62964355 -0.40354004 58.36499023 -0.45043945 C64.0645752 -0.47302246 64.0645752 -0.47302246 66.74964905 -0.47721863 C68.58813058 -0.48479644 70.42659046 -0.50216853 72.26490784 -0.52787781 C93.49513145 -0.80942472 111.67315782 3.34938392 127.6171875 18.421875 C140.21673848 32.05417606 147.80311256 49.07599364 147.28515625 67.8125 C145.64547395 86.14100354 136.38053282 103.71103551 122.55957031 115.74072266 C106.77669408 128.48462929 89.05520481 130.76056651 69.53125 130.48828125 C67.74056786 130.48090654 65.94987483 130.47582004 64.15917969 130.47302246 C57.6059527 130.4470777 51.05295823 130.37727294 44.5 130.3125 C22.4725 130.1578125 22.4725 130.1578125 0 130 C0 87.1 0 44.2 0 0 Z " fill="#000000" transform="translate(3010,584)"/>
<path d="M0 0 C11.22 0 22.44 0 34 0 C42.08301394 9.61599935 42.08301394 9.61599935 43.65234375 14.1796875 C45.98312125 20.25494285 49.21210055 25.35502262 52.8125 30.75 C54.00143047 32.59897436 55.18628373 34.45057636 56.3671875 36.3046875 C56.96370117 37.23764648 57.56021484 38.17060547 58.17480469 39.13183594 C61.29082083 44.02843274 64.36500723 48.95101549 67.4375 53.875 C68.05987549 54.87241211 68.68225098 55.86982422 69.32348633 56.89746094 C70.58551906 58.92075337 71.84731879 60.94419116 73.10888672 62.96777344 C76.23543431 67.98090551 79.36807467 72.99022666 82.5 78 C83.11576904 78.98548828 83.73153809 79.97097656 84.3659668 80.98632812 C87.53803692 86.06296668 90.71238409 91.13815959 93.890625 96.2109375 C94.53708984 97.24347656 95.18355469 98.27601563 95.84960938 99.33984375 C97.05325286 101.2622096 98.25759321 103.18413946 99.46289062 105.10546875 C105.04749149 114.02806533 110.50987037 123.01615151 116 132 C116.33 88.44 116.66 44.88 117 0 C126.57 0 136.14 0 146 0 C146 62.04 146 124.08 146 188 C136.43 188 126.86 188 117 188 C108.05673413 177.17026398 108.05673413 177.17026398 105.90234375 172.19921875 C103.21648942 166.34585233 100.03836822 161.03618832 96.5625 155.625 C95.48489023 153.88621159 94.41071108 152.14529272 93.33984375 150.40234375 C89.78911215 144.65098064 86.20940825 138.91791919 82.625 133.1875 C81.68539429 131.68533936 81.68539429 131.68533936 80.72680664 130.15283203 C79.4537288 128.11792903 78.18053506 126.08309853 76.90722656 124.04833984 C73.76958437 119.03341404 70.63492867 114.01662235 67.5 109 C66.25001463 106.99999085 65.00001463 104.99999086 63.75 103 C46.875 76 46.875 76 30 49 C29.67 94.54 29.34 140.08 29 187 C19.43 187 9.86 187 0 187 C0 125.29 0 63.58 0 0 Z " fill="#FDFDFD" transform="translate(2880,210)"/>
<path d="M0 0 C10.89 0 21.78 0 33 0 C40.38324821 7.80116792 40.38324821 7.80116792 41.7734375 11.71484375 C44.21294685 17.81361713 47.68765016 23.06655852 51.25 28.5625 C52.54068115 30.62366381 53.82710245 32.68750087 55.109375 34.75390625 C58.89943995 40.84020425 62.69874911 46.92068392 66.5 53 C67.75004391 54.99997255 69.00004387 56.99997258 70.25 59 C70.86875 59.99 71.4875 60.98 72.125 62 C77.75 71 77.75 71 79.62573242 74.0012207 C80.87323247 75.99718828 82.12079088 77.99311939 83.3684082 79.98901367 C86.53214182 85.05040916 89.69479561 90.11247394 92.85546875 95.17578125 C93.49742187 96.20380859 94.139375 97.23183594 94.80078125 98.29101562 C95.99258175 100.19962367 97.18403429 102.10844907 98.375 104.01757812 C104.21467397 113.36776874 110.1129801 122.67888516 116 132 C116.33 88.77 116.66 45.54 117 1 C126.57 1 136.14 1 146 1 C146 62.71 146 124.42 146 188 C136.43 188 126.86 188 117 188 C109.13322551 176.76175073 109.13322551 176.76175073 106.67578125 172.66015625 C105.85509155 171.2990271 105.85509155 171.2990271 105.01782227 169.91040039 C104.45506592 168.97059326 103.89230957 168.03078613 103.3125 167.0625 C98.9601606 159.85373894 94.57567115 152.67179725 90.0625 145.5625 C79.50155831 128.91705789 69.09384445 112.179153 58.78149414 95.37866211 C54.38288291 88.2215541 49.94140595 81.09413226 45.41918945 74.0144043 C40.15636241 65.74796875 35.11354887 57.36762543 30 49 C29.67 94.87 29.34 140.74 29 188 C19.43 188 9.86 188 0 188 C0 125.96 0 63.92 0 0 Z " fill="#FDFDFD" transform="translate(1998,209)"/>
<path d="M0 0 C90.35071791 0 90.35071791 0 108.78515625 17.6875 C119.86877264 29.259812 125.09042661 41.64977272 125.25 57.5625 C125.2641394 58.62525146 125.2641394 58.62525146 125.27856445 59.70947266 C125.20179993 72.20905437 120.24601511 84.65451621 112 94 C111.43796875 94.65484375 110.8759375 95.3096875 110.296875 95.984375 C100.191516 106.93892384 86.68818094 113.27977077 72 115 C68.63580627 115.12769586 65.27636488 115.11694902 61.91015625 115.09765625 C61.07190308 115.09664917 60.2336499 115.09564209 59.36999512 115.09460449 C56.26748264 115.08941048 53.1649898 115.07544948 50.0625 115.0625 C43.111875 115.041875 36.16125 115.02125 29 115 C29 139.09 29 163.18 29 188 C19.43 188 9.86 188 0 188 C0 125.96 0 63.92 0 0 Z " fill="#FCFCFC" transform="translate(1641,209)"/>
<path d="M0 0 C0.89162842 0.37125 0.89162842 0.37125 1.80126953 0.75 C18.95563095 8.04577567 31.51665114 19.81471015 39.4375 36.875 C46.95379603 55.66574008 46.26764898 78.66465767 38.6796875 97.23046875 C30.11729687 115.68873708 15.56991247 126.94729842 -2.984375 134.16015625 C-18.92767619 138.60032433 -38.03365771 137.28442424 -52.6875 129.8125 C-70.46282885 119.59703992 -82.05051919 105.07594067 -87.52734375 85.30859375 C-91.75707969 64.64930499 -89.12516151 43.43902097 -77.76953125 25.5 C-68.00591538 11.70592901 -53.78679919 1.19894258 -37.1015625 -2.42578125 C-25.34115415 -4.34615173 -11.06894283 -4.75530781 0 0 Z " fill="#000000" transform="translate(1897,237)"/>
<path d="M0 0 C36.96 0 73.92 0 112 0 C112 9.57 112 19.14 112 29 C84.61 29 57.22 29 29 29 C29 46.16 29 63.32 29 81 C53.75 81 78.5 81 104 81 C104 89.91 104 98.82 104 108 C79.25 108 54.5 108 29 108 C29 125.16 29 142.32 29 160 C56.39 160 83.78 160 112 160 C112 169.57 112 179.14 112 189 C75.04 189 38.08 189 0 189 C0 126.63 0 64.26 0 0 Z " fill="#FCFCFC" transform="translate(2533,209)"/>
<path d="M0 0 C1.36209786 1.13639378 2.71620632 2.28242653 4.0625 3.4375 C4.8875 4.06011719 5.7125 4.68273437 6.5625 5.32421875 C12.94662192 10.72079681 17.99200056 18.6945014 21.0625 26.4375 C20.96630859 28.99682617 20.96630859 28.99682617 20.0625 31.4375 C17.88525391 32.9230957 17.88525391 32.9230957 15.0390625 34.11328125 C13.50765625 34.76586914 13.50765625 34.76586914 11.9453125 35.43164062 C10.87023438 35.86669922 9.79515625 36.30175781 8.6875 36.75 C7.62015625 37.20439453 6.5528125 37.65878906 5.453125 38.12695312 C-2.45236137 41.4375 -2.45236137 41.4375 -5.9375 41.4375 C-6.30101562 40.44169922 -6.30101562 40.44169922 -6.671875 39.42578125 C-10.06768671 30.47912346 -14.23598027 24.54670786 -23.05078125 20.45703125 C-32.81893147 16.96019764 -44.10042319 16.59848666 -53.5625 21 C-59.00118789 24.11522122 -63.09242202 27.74734403 -65.9375 33.4375 C-66.42637732 39.23991278 -66.79295438 44.59498286 -64.3125 49.9375 C-54.28966756 60.48784993 -41.44790207 64.71501998 -28 69.375 C-8.67055893 76.09607675 12.29486433 85.13799917 22.0625 104.4375 C22.45695312 105.20707031 22.85140625 105.97664063 23.2578125 106.76953125 C26.26334048 113.94706834 26.45008507 120.85798363 26.5 128.5625 C26.5100708 129.57570313 26.5201416 130.58890625 26.53051758 131.6328125 C26.42788117 140.57746609 24.58234491 148.34804692 20.1875 156.1875 C19.71570312 157.04859375 19.24390625 157.9096875 18.7578125 158.796875 C10.41606565 171.79001065 -4.33315576 179.81994246 -19.0625 183.57421875 C-32.78805203 186.43201889 -50.10997527 186.4939497 -62.9375 180.4375 C-64.02804687 179.92832031 -65.11859375 179.41914063 -66.2421875 178.89453125 C-80.172683 171.86493941 -91.16740701 162.43179098 -98.3125 148.5 C-98.64652832 147.85611328 -98.98055664 147.21222656 -99.32470703 146.54882812 C-101.85672529 141.34144524 -103.00969995 136.13506895 -103.9375 130.4375 C-100.00362462 128.76218327 -96.06483737 127.09874197 -92.125 125.4375 C-90.44567383 124.72207031 -90.44567383 124.72207031 -88.73242188 123.9921875 C-87.65927734 123.54101562 -86.58613281 123.08984375 -85.48046875 122.625 C-83.9958313 121.99658203 -83.9958313 121.99658203 -82.48120117 121.35546875 C-79.9375 120.4375 -79.9375 120.4375 -76.9375 120.4375 C-76.64617187 121.27152344 -76.35484375 122.10554687 -76.0546875 122.96484375 C-71.09737796 136.57406146 -64.30509443 147.41449464 -50.76171875 153.74609375 C-41.27342554 157.3422991 -29.1318071 156.37202 -19.859375 152.58984375 C-13.38544905 149.62862206 -8.70282683 145.45127942 -5.6640625 138.94140625 C-3.65504128 132.01784386 -3.63013719 122.86999158 -6.73046875 116.23046875 C-15.16468116 103.70197847 -31.27367326 99.59520743 -44.8125 95.0625 C-63.64809223 88.72422079 -82.73286344 80.57291389 -92.9375 62.4375 C-93.5871875 61.29667969 -93.5871875 61.29667969 -94.25 60.1328125 C-97.18984339 53.74273625 -97.3458431 47.29480807 -97.4375 40.375 C-97.45611084 39.45299805 -97.47472168 38.53099609 -97.49389648 37.58105469 C-97.38211633 25.39593289 -91.58556553 14.70905329 -83.53125 5.765625 C-62.02461055 -15.10846623 -24.27933182 -18.67948593 0 0 Z " fill="#FCFCFC" transform="translate(1586.9375,216.5625)"/>
<path d="M0 0 C36.96 0 73.92 0 112 0 C112 9.24 112 18.48 112 28 C84.61 28 57.22 28 29 28 C29 45.16 29 62.32 29 80 C53.75 80 78.5 80 104 80 C104 88.91 104 97.82 104 107 C79.25 107 54.5 107 29 107 C29 124.16 29 141.32 29 159 C56.39 159 83.78 159 112 159 C112 168.24 112 177.48 112 187 C75.04 187 38.08 187 0 187 C0 125.29 0 63.58 0 0 Z " fill="#FEFEFE" transform="translate(2737,210)"/>
<path d="M0 0 C59.40265025 0 59.40265025 0 76.75 16.65234375 C90.05606646 30.53593045 94.62776769 46.21027334 94.5 65.1875 C94.49856995 65.87187134 94.49713989 66.55624268 94.4956665 67.26135254 C94.44013326 77.99087648 93.55740596 87.19430474 89 97 C88.5771875 97.99128906 88.154375 98.98257813 87.71875 100.00390625 C81.45119964 113.10381529 69.83994239 122.32676875 56.34667969 127.13720703 C37.70600403 133.5215692 20.57292002 131 0 131 C0 87.77 0 44.54 0 0 Z " fill="#000000" transform="translate(1279,238)"/>
<path d="M0 0 C9.9 0 19.8 0 30 0 C30 52.8 30 105.6 30 160 C56.07 160 82.14 160 109 160 C109 169.57 109 179.14 109 189 C73.03 189 37.06 189 0 189 C0 126.63 0 64.26 0 0 Z " fill="#F9F9F9" transform="translate(2401,209)"/>
<path d="M0 0 C1 1 1 1 1.375 4.25 C1.1742597 18.27672879 -8.69565192 32.600988 -18.13671875 42.26953125 C-22.13302069 46.08046584 -26.25842304 49.18232168 -31 52 C-32.14855469 52.68835938 -32.14855469 52.68835938 -33.3203125 53.390625 C-48.44145083 61.674813 -67.43804118 64.02641368 -84.125 59.4375 C-94.19155676 55.70817975 -102.41887884 50.32414853 -108 41 C-111.38476894 33.05315118 -110.97598639 23.97301302 -107.90234375 15.984375 C-102.56616359 4.24939872 -92.66275044 -2.44498191 -81 -7 C-54.45283706 -16.78205243 -24.91125904 -11.39398523 0 0 Z " fill="#010101" transform="translate(3499,806)"/>
<path d="M0 0 C9.9 0 19.8 0 30 0 C30 62.37 30 124.74 30 189 C20.1 189 10.2 189 0 189 C0 126.63 0 64.26 0 0 Z " fill="#F9F9F9" transform="translate(1430,209)"/>
<path d="M0 0 C9.57 0 19.14 0 29 0 C29 61.71 29 123.42 29 187 C19.43 187 9.86 187 0 187 C0 125.29 0 63.58 0 0 Z " fill="#FEFEFE" transform="translate(2180,210)"/>
<path d="M0 0 C44.22 0 88.44 0 134 0 C134 44.22 134 88.44 134 134 C133.67 134 133.34 134 133 134 C132.84144531 132.97003906 132.68289062 131.94007813 132.51953125 130.87890625 C128.38275466 105.17788703 119.32885919 80.54582671 103 60 C102.32582031 59.1234375 101.65164062 58.246875 100.95703125 57.34375 C87.74971599 40.31551771 87.74971599 40.31551771 70 29 C69.43410156 28.41089844 68.86820313 27.82179688 68.28515625 27.21484375 C65.3123257 24.33348491 62.05193025 22.54090268 58.4375 20.5625 C57.36024658 19.96828247 57.36024658 19.96828247 56.26123047 19.36206055 C38.57810851 9.70429452 19.95937652 3.73656861 0 1 C0 0.67 0 0.34 0 0 Z " fill="#000000" transform="translate(3962,0)"/>
<path d="M0 0 C44.22 0 88.44 0 134 0 C134 0.33 134 0.66 134 1 C133.31599121 1.12528076 132.63198242 1.25056152 131.92724609 1.37963867 C113.07313993 4.80729471 113.07313993 4.80729471 95 11 C93.79730469 11.51304688 92.59460938 12.02609375 91.35546875 12.5546875 C54.9095376 28.60314794 25.58769642 57.68823523 11 95 C6.26328948 107.78692404 2.85570975 120.46523621 1 134 C0.67 134 0.34 134 0 134 C0 89.78 0 45.56 0 0 Z " fill="#000000" transform="translate(0,0)"/>
<path d="M0 0 C0.33 0 0.66 0 1 0 C1.14695313 0.99515625 1.29390625 1.9903125 1.4453125 3.015625 C7.76645443 43.40424018 28.29276669 80.30326037 61.60546875 104.65234375 C83.23487658 119.90034534 107.70970354 129.6824999 134 133 C134 133.33 134 133.66 134 134 C89.78 134 45.56 134 0 134 C0 89.78 0 45.56 0 0 Z " fill="#000000" transform="translate(0,1080)"/>
<path d="M0 0 C0.33 0 0.66 0 1 0 C1 44.22 1 88.44 1 134 C-43.22 134 -87.44 134 -133 134 C-133 133.67 -133 133.34 -133 133 C-132.00484375 132.85304688 -131.0096875 132.70609375 -129.984375 132.5546875 C-89.57557169 126.23038596 -52.8162276 105.70660345 -28.40625 72.4375 C-13.29683162 51.18683415 -2.49955857 26.11783648 0 0 Z " fill="#000000" transform="translate(4095,1080)"/>
<path d="M0 0 C4.55738854 3.74544001 8.75229289 8.17427755 11.0390625 13.67578125 C11.0390625 14.66578125 11.0390625 15.65578125 11.0390625 16.67578125 C4.72711653 19.32293744 -1.58543042 21.9686566 -7.8984375 24.61328125 C-9.33943314 25.21694016 -9.33943314 25.21694016 -10.80953979 25.83279419 C-25.89231233 32.14966312 -40.98939464 38.43116635 -56.10092163 44.67892456 C-64.45839402 48.13438047 -72.81225758 51.59563016 -81.12890625 55.1484375 C-82.3418335 55.66607666 -83.55476074 56.18371582 -84.80444336 56.71704102 C-86.99340122 57.65440382 -89.180575 58.59594999 -91.36547852 59.54272461 C-92.30963623 59.9475708 -93.25379395 60.35241699 -94.2265625 60.76953125 C-95.02868164 61.11693359 -95.83080078 61.46433594 -96.65722656 61.82226562 C-99.07556202 62.71824917 -101.423003 63.23723696 -103.9609375 63.67578125 C-104.69608469 50.57927013 -102.18217144 38.23203347 -95.9609375 26.67578125 C-95.29771484 25.41507813 -95.29771484 25.41507813 -94.62109375 24.12890625 C-84.95477968 6.88484458 -69.21157671 -4.2390142 -50.5859375 -10.19921875 C-33.23361643 -14.4740617 -14.46649579 -10.17915249 0 0 Z " fill="#020202" transform="translate(2750.9609375,721.32421875)"/>
<path d="M0 0 C7.87875 -0.0825 15.7575 -0.165 23.875 -0.25 C26.34210449 -0.28641602 28.80920898 -0.32283203 31.35107422 -0.36035156 C33.33560316 -0.37204851 35.32014181 -0.38223794 37.3046875 -0.390625 C38.81494507 -0.4213208 38.81494507 -0.4213208 40.35571289 -0.45263672 C48.72891865 -0.45671028 55.23814435 1.54032515 62.25 6.125 C68.65945377 12.82579258 72.40853362 20.01788676 72.2734375 29.3125 C71.4609528 37.29806388 66.77275683 43.6731555 61 49 C56.22417083 52.39309424 51.83457435 54.1279866 45.9777832 54.11352539 C44.42516785 54.11334412 44.42516785 54.11334412 42.84118652 54.11315918 C41.75535278 54.10804321 40.66951904 54.10292725 39.55078125 54.09765625 C38.05146057 54.09614563 38.05146057 54.09614563 36.52185059 54.09460449 C32.78538873 54.08936957 29.04894322 54.07540832 25.3125 54.0625 C16.959375 54.041875 8.60625 54.02125 0 54 C0 36.18 0 18.36 0 0 Z " fill="#040404" transform="translate(2274,315)"/>
<path d="M0 0 C10.085625 -0.12375 10.085625 -0.12375 20.375 -0.25 C22.47665527 -0.28641602 24.57831055 -0.32283203 26.74365234 -0.36035156 C28.4410704 -0.37205244 30.13849982 -0.38224094 31.8359375 -0.390625 C32.6916333 -0.41108887 33.5473291 -0.43155273 34.42895508 -0.45263672 C42.29533689 -0.45710245 48.68254167 1.83089263 55.25 6.125 C62.24423191 13.43715155 65.39445015 20.76883233 65.2734375 30.80078125 C64.53508819 39.43946822 60.41340601 46.30816332 54 52 C47.22513596 56.437971 41.3951138 57.71584643 33.3984375 57.48828125 C32.54354736 57.48324585 31.68865723 57.47821045 30.80786133 57.47302246 C27.66322517 57.44717805 24.51907311 57.37737478 21.375 57.3125 C14.32125 57.209375 7.2675 57.10625 0 57 C0 38.19 0 19.38 0 0 Z " fill="#000000" transform="translate(1671,238)"/>
<path d="M0 0 C0 3.81036454 -1.43006254 4.79053238 -4.01188272 7.40490815 C-4.61030357 7.99544796 -5.20872442 8.58598777 -5.82527924 9.19442272 C-6.45504262 9.82764764 -7.084806 10.46087256 -7.73365313 11.11328611 C-9.86885121 13.25649382 -12.0146809 15.3887386 -14.16052246 17.52128601 C-15.69971454 19.06178498 -17.23824778 20.60294246 -18.77617407 22.14470512 C-23.02222324 26.3974942 -27.27762403 30.64081926 -31.53453517 34.88273203 C-36.11666907 39.4519602 -40.69018123 44.02980331 -45.26472473 48.60662842 C-53.19735021 56.54134949 -61.13593648 64.47007521 -69.07807922 72.39526939 C-77.41012441 80.70957938 -85.73907436 89.02696991 -94.06388855 97.34852028 C-94.5809959 97.86542141 -95.09810325 98.38232254 -95.63088052 98.91488734 C-98.25686131 101.53985317 -100.8827867 104.1648744 -103.50869077 106.78991697 C-122.12073135 125.39565193 -140.73972166 143.99441793 -159.36279297 162.58911133 C-177.45778063 180.65655752 -195.54962324 198.7271435 -213.63720703 216.80200195 C-214.19448989 217.35889023 -214.75177274 217.91577851 -215.32594296 218.48954219 C-220.92226941 224.08191317 -226.51853188 229.67434819 -232.11474747 235.26683012 C-243.51545856 246.65993203 -254.91659676 258.05260648 -266.31799316 269.44502258 C-266.84224053 269.96885808 -267.3664879 270.49269358 -267.90662155 271.03240288 C-302.93059533 306.02876247 -337.96455601 341.01512386 -373 376 C-370.80994889 378.2663177 -368.90509535 379.73916657 -366.0625 381.125 C-365.39347656 381.45757813 -364.72445313 381.79015625 -364.03515625 382.1328125 C-352.69912557 386.96313651 -337.58778719 384.82012166 -326.484375 380.53125 C-309.24783675 372.95644844 -293.09486141 363.10585551 -276.9440918 353.47338867 C-269.7347078 349.19284603 -262.33624736 345.25879218 -254.95703125 341.28125 C-244.29001298 335.52318549 -233.76253597 329.57194479 -223.31567383 323.42382812 C-215.77326044 318.99884889 -208.1567911 314.72355129 -200.5 310.5 C-191.93411094 305.77380315 -183.43233192 300.96060682 -175 296 C-165.53138655 290.43197888 -155.96714458 285.05876853 -146.35205078 279.74829102 C-138.15257412 275.21336859 -130.00239842 270.59975469 -121.875 265.9375 C-112.96425978 260.82655389 -104.03201649 255.75729143 -95.0625 250.75 C-83.99961403 244.57229383 -72.99165621 238.30335168 -62 232 C-57.41768354 229.37322086 -52.83452916 226.74791488 -48.25 224.125 C-47.65785706 223.78619812 -47.06571411 223.44739624 -46.45562744 223.09832764 C-36.97932957 217.67883517 -27.46690774 212.32650692 -17.93579102 207.00390625 C-7.91724246 201.40518837 2.0442014 195.70932157 12 190 C16.58231646 187.37322086 21.16547084 184.74791488 25.75 182.125 C26.34214294 181.78619812 26.93428589 181.44739624 27.54437256 181.09832764 C37.01696102 175.68095658 46.52523869 170.32995313 56.05322266 165.01049805 C63.45374522 160.875676 70.82307253 156.68926433 78.17822266 152.47436523 C85.67671371 148.17878677 93.18947793 143.90871043 100.72436523 139.67724609 C105.13376056 137.19963269 109.52481372 134.70296132 113.8671875 132.109375 C114.60348389 131.67584717 115.33978027 131.24231934 116.09838867 130.7956543 C117.45013759 129.99774804 118.79467932 129.1874483 120.13012695 128.36254883 C121.91796875 127.31640625 121.91796875 127.31640625 125 126 C127.42578125 126.77734375 127.42578125 126.77734375 129 128 C126.29084294 130.1059703 123.55691517 131.90122183 120.5625 133.57421875 C119.24209717 134.3156311 119.24209717 134.3156311 117.89501953 135.07202148 C116.93966309 135.60512939 115.98430664 136.1382373 115 136.6875 C112.91368265 137.85869861 110.82776256 139.0306051 108.7421875 140.203125 C107.64229492 140.82123047 106.54240234 141.43933594 105.40917969 142.07617188 C100.22292159 145.00281995 95.05675576 147.96441987 89.89025879 150.92575073 C80.37359624 156.38017839 70.83219391 161.78617714 61.25 167.125 C53.15272992 171.63764737 45.11720563 176.24138839 37.125 180.9375 C27.52281393 186.57961427 17.81779673 192.01402469 8.06689453 197.39428711 C0.65084148 201.49727022 -6.69515175 205.70245979 -14 210 C-23.55946863 215.62396361 -33.22294684 221.03655201 -42.93359375 226.39453125 C-50.34946317 230.49746932 -57.69530867 234.70255211 -65 239 C-74.55946863 244.62396361 -84.22294684 250.03655201 -93.93359375 255.39453125 C-101.34946317 259.49746932 -108.69530867 263.70255211 -116 268 C-125.55946863 273.62396361 -135.22294684 279.03655201 -144.93359375 284.39453125 C-152.3494665 288.49747115 -159.69524467 292.70265701 -167 297 C-176.63318477 302.6656365 -186.36629386 308.13046915 -196.14672852 313.53735352 C-205.5335183 318.72917097 -214.85647922 324.0244858 -224.15771484 329.36767578 C-229.68537106 332.54220846 -235.21706174 335.70968568 -240.75 338.875 C-241.34332123 339.21455719 -241.93664246 339.55411438 -242.54794312 339.90396118 C-251.94384204 345.27926419 -261.3804194 350.57811858 -270.83789062 355.84448242 C-278.03284801 359.86388056 -285.14967868 364.00367811 -292.25 368.1875 C-299.89805056 372.67857565 -307.5973049 377.03981551 -315.4375 381.1875 C-316.68805176 381.85591919 -316.68805176 381.85591919 -317.96386719 382.5378418 C-331.05727955 389.36474169 -346.38465559 392.60600676 -361.046875 389.31640625 C-366.39321484 387.3156797 -372.1554734 384.29556045 -376 380 C-376 375.4039051 -375.05286815 374.58048814 -371.95585012 371.43181622 C-371.35261624 370.83909039 -370.74938235 370.24636456 -370.12786865 369.63567734 C-369.49304015 368.99623345 -368.85821164 368.35678957 -368.20414591 367.6979686 C-366.05405056 365.53720505 -363.88986809 363.3911148 -361.72558594 361.24456787 C-360.17380555 359.69104474 -358.62290378 358.13664354 -357.07281113 356.5814364 C-352.79479176 352.29443506 -348.50433561 348.02006901 -344.21183586 343.74757338 C-340.06511977 339.61630552 -335.92778216 335.4756816 -331.79022944 331.33523959 C-323.32355928 322.86330852 -314.84759431 314.40073457 -306.36633301 305.94341278 C-297.96615242 297.56688227 -289.57010481 289.18624472 -281.17956543 280.80005646 C-280.65829904 280.27906503 -280.13703265 279.7580736 -279.59997031 279.22129455 C-276.95285471 276.57553223 -274.30581296 273.92969604 -271.65879965 271.28383139 C-252.89901227 252.53245063 -234.12996352 233.79036518 -215.35546875 215.05371094 C-197.11380024 196.8487667 -178.87632799 178.63963549 -160.64453125 160.42480469 C-159.80188372 159.58294631 -159.80188372 159.58294631 -158.942213 158.72408069 C-153.30085691 153.08799858 -147.65958614 147.45183109 -142.01837789 141.81560102 C-130.52609268 130.33346128 -119.03323801 118.85189161 -107.54003906 107.3706665 C-107.01157523 106.84275183 -106.48311139 106.31483715 -105.9386335 105.77092506 C-70.63529162 70.50439968 -35.31863521 35.25120873 0 0 Z " fill="#BC2E47" transform="translate(694,607)"/>
<path d="M0 0 C11.1065625 -0.12375 11.1065625 -0.12375 22.4375 -0.25 C24.7570874 -0.28641602 27.0766748 -0.32283203 29.46655273 -0.36035156 C31.33055703 -0.37204752 33.19457164 -0.38223719 35.05859375 -0.390625 C36.00577271 -0.41108887 36.95295166 -0.43155273 37.92883301 -0.45263672 C45.36063559 -0.45648789 51.51886116 1.08528375 57.3046875 5.9296875 C62.8904998 12.84942512 65.67717164 17.79260371 65.40625 26.90234375 C64.35062286 34.95150069 60.2048152 40.46159523 54.16015625 45.625 C48.16860493 49.43879035 42.2061314 49.26817851 35.3515625 49.1953125 C34.45332764 49.19329834 33.55509277 49.19128418 32.62963867 49.18920898 C29.29470669 49.17879524 25.95984787 49.15087283 22.625 49.125 C15.15875 49.08375 7.6925 49.0425 0 49 C0 32.83 0 16.66 0 0 Z " fill="#000000" transform="translate(2275,238)"/>
<path d="M0 0 C6.58044002 3.8844134 13.25249993 7.59088473 19.9453125 11.27734375 C28.5115118 16.00295519 37.01303374 20.81668561 45.4453125 25.77734375 C55.07849727 31.44298025 64.81160636 36.9078129 74.59204102 42.31469727 C83.97598508 47.50494076 93.29593641 52.79886472 102.59423828 58.140625 C108.16561282 61.33898901 113.74303283 64.52679242 119.3203125 67.71484375 C119.91818573 68.05667694 120.51605896 68.39851013 121.13204956 68.7507019 C129.98154537 73.8096679 138.84751314 78.83876729 147.7265625 83.84570312 C155.872721 88.44343109 163.99100289 93.0894197 172.10778809 97.7387085 C180.44213214 102.51091664 188.80563149 107.22794233 197.1953125 111.90234375 C206.29470942 116.9734812 215.30498149 122.18031685 224.28613281 127.45751953 C232.90643197 132.50406245 241.63298266 137.34615564 250.37841797 142.17163086 C257.79447435 146.27461581 265.14040025 150.47990845 272.4453125 154.77734375 C282.07849727 160.44298025 291.81160636 165.9078129 301.59204102 171.31469727 C310.9788308 176.50651472 320.30179172 181.80182955 329.60302734 187.14501953 C335.13068356 190.31955221 340.66237424 193.48702943 346.1953125 196.65234375 C346.78863373 196.99190094 347.38195496 197.33145813 347.99325562 197.68130493 C357.38348211 203.0533628 366.8151804 208.34751029 376.265625 213.61303711 C384.64702451 218.29743023 392.93784821 223.12831302 401.21777344 227.98925781 C408.21052246 232.08504446 415.25362572 236.04103773 422.4453125 239.77734375 C421.7853125 240.76734375 421.1253125 241.75734375 420.4453125 242.77734375 C416.6452616 242.19810369 413.9420202 241.12150135 410.65625 239.14453125 C409.7290918 238.59361816 408.80193359 238.04270508 407.84667969 237.47509766 C406.84797852 236.87358887 405.84927734 236.27208008 404.8203125 235.65234375 C396.01747734 230.43112015 387.15838103 225.34350574 378.1953125 220.40234375 C368.8193608 215.22455921 359.48739981 209.97856079 350.1953125 204.65234375 C349.31486267 204.14770599 349.31486267 204.14770599 348.41662598 203.63287354 C347.83215698 203.29785828 347.24768799 202.96284302 346.64550781 202.61767578 C339.42588998 198.47951036 332.19415825 194.36410759 324.9453125 190.27734375 C315.87012429 185.16010962 306.82323854 179.99431463 297.78283691 174.815979 C289.44849286 170.04377086 281.08499351 165.32674517 272.6953125 160.65234375 C263.59591558 155.5812063 254.58564351 150.37437065 245.60449219 145.09716797 C236.98419303 140.05062505 228.25764234 135.20853186 219.51220703 130.38305664 C211.10016328 125.72903473 202.78957275 120.92144374 194.50390625 116.046875 C187.04667065 111.67471447 179.51387602 107.45339985 171.9453125 103.27734375 C163.37948599 98.55103447 154.87761096 93.73801348 146.4453125 88.77734375 C136.81212773 83.11170725 127.07901864 77.6468746 117.29858398 72.23999023 C107.9117942 67.04817278 98.58883328 61.75285795 89.28759766 56.40966797 C83.75994184 53.23513552 78.22835394 50.06747719 72.6953125 46.90234375 C72.10298828 46.56345123 71.51066406 46.22455872 70.90039062 45.87539673 C61.42657096 40.45729839 51.91726293 35.10520129 42.38769531 29.78564453 C35.03542251 25.67826229 27.71726689 21.5146869 20.41210938 17.32421875 C12.39819551 12.73437623 4.34286719 8.21956937 -3.72583008 3.72680664 C-12.46402704 -1.14427918 -12.46402704 -1.14427918 -16.7578125 -3.7109375 C-32.32099686 -13.00217118 -48.47308025 -17.6471678 -66.640625 -14.7265625 C-72.38982183 -13.12150282 -77.48028068 -10.32368264 -82.5546875 -7.22265625 C-82.5546875 -11.22265625 -82.5546875 -11.22265625 -81.15625 -12.78515625 C-54.02190249 -32.51922717 -24.93445035 -14.76853698 0 0 Z " fill="#3EE791" transform="translate(400.5546875,238.22265625)"/>
<path d="M0 0 C6.17010919 1.62262503 11.26595898 4.94039741 16.6875 8.1875 C25.47189038 13.38243924 34.31367851 18.44601221 43.25 23.375 C53.17953206 28.85814234 63.05168273 34.43058917 72.88989258 40.07507324 C81.14726416 44.81181122 89.43353646 49.49272395 97.75 54.125 C107.05142926 59.30866656 116.26958582 64.62119715 125.44726562 70.02075195 C130.74116815 73.12806168 136.06482211 76.15267754 141.46362305 79.07373047 C157.21890095 87.61001238 171.09415514 97.38626805 179 114 C179.69140625 116.86328125 179.69140625 116.86328125 180 119 C179.34 119 178.68 119 178 119 C177.5978125 118.07380859 177.5978125 118.07380859 177.1875 117.12890625 C168.38981138 98.11548052 150.37414214 89.43784976 132.79454041 79.8354187 C132.2049202 79.51332428 131.61529999 79.19122986 131.0078125 78.859375 C130.41686295 78.53655548 129.82591339 78.21373596 129.21705627 77.88113403 C123.41187515 74.6985541 117.70208576 71.36269517 112 68 C103.56836415 63.03823655 95.06576569 58.22633878 86.5 53.5 C76.89413844 48.19920027 67.38325082 42.7622081 57.92456055 37.20361328 C50.76797232 33.00708607 43.55789252 28.91610627 36.3125 24.875 C28.28159326 20.39267723 20.25114295 15.91031699 12.25 11.375 C11.38673096 10.89015137 10.52346191 10.40530273 9.6340332 9.90576172 C5.47207811 7.53908604 1.63690656 5.14902885 -2 2 C-1.34 1.34 -0.68 0.68 0 0 Z " fill="#F6D53B" transform="translate(822,479)"/>
<path d="M0 0 C1.21079153 3.63237459 0.76395223 4.22567895 -0.875 7.5625 C-8.32390893 21.66002185 -21.50550383 30.52174169 -35.0625 38.125 C-36.19155762 38.76751709 -37.32061523 39.41003418 -38.48388672 40.07202148 C-47.20889829 45.03350406 -55.97850284 49.91711803 -64.74682617 54.80151367 C-71.84095554 58.76173947 -78.8706221 62.8209122 -85.875 66.9375 C-95.47712423 72.57971642 -105.18220642 78.01402643 -114.93310547 83.39428711 C-122.34921697 87.49730256 -129.69400009 91.7043539 -137 96 C-140.99693329 98.33861685 -144.99758173 100.67078421 -149 103 C-149.58273682 103.33999023 -150.16547363 103.67998047 -150.76586914 104.03027344 C-154.47722255 106.19387364 -158.19841854 108.33883111 -161.93310547 110.46191406 C-163.13659918 111.14953234 -164.3368652 111.84283338 -165.53369141 112.54199219 C-167.19604985 113.51181818 -168.87122351 114.45957681 -170.546875 115.40625 C-171.50432617 115.95603516 -172.46177734 116.50582031 -173.44824219 117.07226562 C-176 118 -176 118 -178.34082031 117.16210938 C-178.88834961 116.77861328 -179.43587891 116.39511719 -180 116 C-176.68003037 113.22704739 -173.38479169 110.96113646 -169.58984375 108.890625 C-168.00308838 108.01845337 -168.00308838 108.01845337 -166.38427734 107.12866211 C-165.24684082 106.50870361 -164.1094043 105.88874512 -162.9375 105.25 C-160.48923224 103.90533756 -158.04327722 102.55650047 -155.59765625 101.20703125 C-154.96984253 100.86100357 -154.34202881 100.51497589 -153.69519043 100.15846252 C-147.04832625 96.48803846 -140.45959351 92.71814548 -133.875 88.9375 C-124.9648044 83.82561543 -116.0320045 78.75728474 -107.0625 73.75 C-96.9697656 68.11404319 -86.91990677 62.40774965 -76.89208984 56.65722656 C-73.07146599 54.46793104 -69.24832131 52.2830573 -65.42460632 50.09916687 C-62.41518183 48.38033836 -59.40638415 46.66043727 -56.39916992 44.93774414 C-50.93621312 41.80965495 -45.46725515 38.69432287 -39.96875 35.62890625 C-23.55763586 26.45398581 -8.5823526 17.45353437 0 0 Z " fill="#D9B300" transform="translate(1000,617)"/>
<path d="M0 0 C0.66 0.33 1.32 0.66 2 1 C0.44754581 4.29799969 -1.43581295 7.26907474 -3.4375 10.3125 C-6.10012342 14.45066057 -8.26351221 18.40341468 -10 23 C-10.7618195 20.74851791 -11.13127748 19.42944734 -10.42675781 17.12475586 C-10.10545898 16.49448486 -9.78416016 15.86421387 -9.453125 15.21484375 C-8.9271875 14.17166992 -8.9271875 14.17166992 -8.390625 13.10742188 C-8.01421875 12.39134766 -7.6378125 11.67527344 -7.25 10.9375 C-6.8890625 10.21755859 -6.528125 9.49761719 -6.15625 8.75585938 C-4.40235513 5.33385796 -2.84264191 2.63851064 0 0 Z " fill="#37BCE6" transform="translate(316,229)"/>
<path d="M0 0 C2.62886096 3.94329145 4.90789577 8.06661544 7.24609375 12.1875 C8.69373767 14.50888891 9.96583018 16.20843759 12 18 C11.67 18.99 11.34 19.98 11 21 C5.54547824 16.5080409 2.60157318 10.49946289 0 4 C0 2.68 0 1.36 0 0 Z " fill="#00BBD2" transform="translate(306,964)"/>
<path d="M0 0 C0.99 0 1.98 0 3 0 C3.67119549 1.4562545 4.33681807 2.91507867 5 4.375 C5.556875 5.59316406 5.556875 5.59316406 6.125 6.8359375 C7 9 7 9 7 11 C6.34 11 5.68 11 5 11 C3.35 7.37 1.7 3.74 0 0 Z " fill="#EBD234" transform="translate(995,587)"/>
<path d="M0 0 C0.66 0.33 1.32 0.66 2 1 C1.19185349 2.33597652 0.37836819 3.668725 -0.4375 5 C-0.88996094 5.7425 -1.34242188 6.485 -1.80859375 7.25 C-2.20175781 7.8275 -2.59492188 8.405 -3 9 C-3.33 9 -3.66 9 -4 9 C-3.6875 5.625 -3.6875 5.625 -3 2 C-2.01 1.34 -1.02 0.68 0 0 Z " fill="#36CAF8" transform="translate(313,235)"/>
</svg>
