<?xml version="1.0" encoding="UTF-8"?>
<svg version="1.1" xmlns="http://www.w3.org/2000/svg" width="1563" height="1563">
<path d="M0 0 C14.85 0 29.7 0 45 0 C45 0.99 45 1.98 45 3 C56.55 3 68.1 3 80 3 C80 3.66 80 4.32 80 5 C83.3 5 86.6 5 90 5 C90 5.99 90 6.98 90 8 C94.29 8 98.58 8 103 8 C103 8.99 103 9.98 103 11 C106.63 11 110.26 11 114 11 C114 11.66 114 12.32 114 13 C119.28 13 124.56 13 130 13 C130 13.99 130 14.98 130 16 C131.65 16 133.3 16 135 16 C135 16.66 135 17.32 135 18 C138.96 18 142.92 18 147 18 C147.33 18.99 147.66 19.98 148 21 C150.64 21 153.28 21 156 21 C156 21.99 156 22.98 156 24 C158.64 24 161.28 24 164 24 C164 24.66 164 25.32 164 26 C167.3 26 170.6 26 174 26 C174.33 26.99 174.66 27.98 175 29 C176.65 29 178.3 29 180 29 C180 29.99 180 30.98 180 32 C181.65 32 183.3 32 185 32 C185 32.66 185 33.32 185 34 C188.63 34 192.26 34 196 34 C196 34.99 196 35.98 196 37 C197.65 37 199.3 37 201 37 C201 37.99 201 38.98 201 40 C201.763125 39.95875 202.52625 39.9175 203.3125 39.875 C206 40 206 40 209 42 C209.1875 44.625 209.1875 44.625 209 47 C208.34 47 207.68 47 207 47 C206.67 47.99 206.34 48.98 206 50 C198.41 50 190.82 50 183 50 C183 49.34 183 48.68 183 48 C178.71 47.67 174.42 47.34 170 47 C170 46.34 170 45.68 170 45 C163.07 45 156.14 45 149 45 C148.67 44.01 148.34 43.02 148 42 C137.77 42 127.54 42 117 42 C117 41.34 117 40.68 117 40 C93.24 40 69.48 40 45 40 C45 40.66 45 41.32 45 42 C36.42 42 27.84 42 19 42 C19 42.99 19 43.98 19 45 C14.71 45 10.42 45 6 45 C6 45.66 6 46.32 6 47 C3.36 47.33 0.72 47.66 -2 48 C-2 48.66 -2 49.32 -2 50 C-6.62 50 -11.24 50 -16 50 C-16 50.99 -16 51.98 -16 53 C-18.31 53 -20.62 53 -23 53 C-23 53.66 -23 54.32 -23 55 C-24.98 55 -26.96 55 -29 55 C-29 55.99 -29 56.98 -29 58 C-31.64 58 -34.28 58 -37 58 C-37 58.99 -37 59.98 -37 61 C-37.66 61 -38.32 61 -39 61 C-39 61.66 -39 62.32 -39 63 C-41.64 63 -44.28 63 -47 63 C-47 63.99 -47 64.98 -47 66 C-47.99 66 -48.98 66 -50 66 C-50 66.99 -50 67.98 -50 69 C-50.99 69 -51.98 69 -53 69 C-53 69.66 -53 70.32 -53 71 C-54.65 71 -56.3 71 -58 71 C-58 71.99 -58 72.98 -58 74 C-58.66 74 -59.32 74 -60 74 C-60.495 75.485 -60.495 75.485 -61 77 C-61.66 77 -62.32 77 -63 77 C-63 77.66 -63 78.32 -63 79 C-63.99 79 -64.98 79 -66 79 C-66 79.99 -66 80.98 -66 82 C-66.66 82 -67.32 82 -68 82 C-68 83.65 -68 85.3 -68 87 C-68.99 87 -69.98 87 -71 87 C-71 87.99 -71 88.98 -71 90 C-71.99 90 -72.98 90 -74 90 C-74 91.65 -74 93.3 -74 95 C-74.66 95 -75.32 95 -76 95 C-76 96.65 -76 98.3 -76 100 C-76.99 100 -77.98 100 -79 100 C-79 102.64 -79 105.28 -79 108 C-79.99 108 -80.98 108 -82 108 C-82 120.21 -82 132.42 -82 145 C-81.01 145 -80.02 145 -79 145 C-79 148.63 -79 152.26 -79 156 C-78.01 156 -77.02 156 -76 156 C-76 158.64 -76 161.28 -76 164 C-75.34 164 -74.68 164 -74 164 C-74 166.64 -74 169.28 -74 172 C-73.01 172 -72.02 172 -71 172 C-71 173.65 -71 175.3 -71 177 C-70.01 177 -69.02 177 -68 177 C-68 179.64 -68 182.28 -68 185 C-67.34 185 -66.68 185 -66 185 C-66 186.65 -66 188.3 -66 190 C-65.01 190 -64.02 190 -63 190 C-63 191.98 -63 193.96 -63 196 C-62.01 196 -61.02 196 -60 196 C-60 197.65 -60 199.3 -60 201 C-59.34 201 -58.68 201 -58 201 C-58 202.65 -58 204.3 -58 206 C-57.01 206 -56.02 206 -55 206 C-55 206.99 -55 207.98 -55 209 C-54.34 209 -53.68 209 -53 209 C-52.505 211.475 -52.505 211.475 -52 214 C-51.34 214 -50.68 214 -50 214 C-50 215.65 -50 217.3 -50 219 C-49.01 219 -48.02 219 -47 219 C-47 219.99 -47 220.98 -47 222 C-46.34 222 -45.68 222 -45 222 C-45 223.65 -45 225.3 -45 227 C-44.01 227 -43.02 227 -42 227 C-42 227.99 -42 228.98 -42 230 C-41.01 230 -40.02 230 -39 230 C-39 231.65 -39 233.3 -39 235 C-38.34 235 -37.68 235 -37 235 C-37 235.99 -37 236.98 -37 238 C-36.01 238 -35.02 238 -34 238 C-34 239.65 -34 241.3 -34 243 C-33.01 243.33 -32.02 243.66 -31 244 C-31 245.32 -31 246.64 -31 248 C-30.34 248 -29.68 248 -29 248 C-29 248.99 -29 249.98 -29 251 C-28.01 251 -27.02 251 -26 251 C-26 251.99 -26 252.98 -26 254 C-25.01 254 -24.02 254 -23 254 C-23 254.66 -23 255.32 -23 256 C-22.34 256 -21.68 256 -21 256 C-21 256.99 -21 257.98 -21 259 C-20.01 259 -19.02 259 -18 259 C-18 260.65 -18 262.3 -18 264 C-17.01 264.33 -16.02 264.66 -15 265 C-15 265.66 -15 266.32 -15 267 C-14.34 267 -13.68 267 -13 267 C-13 267.99 -13 268.98 -13 270 C-12.01 270 -11.02 270 -10 270 C-10 271.65 -10 273.3 -10 275 C-9.34 275 -8.68 275 -8 275 C-8 275.99 -8 276.98 -8 278 C-7.01 278 -6.02 278 -5 278 C-5 278.66 -5 279.32 -5 280 C-4.01 280 -3.02 280 -2 280 C-2 280.99 -2 281.98 -2 283 C-1.34 283 -0.68 283 0 283 C0 283.66 0 284.32 0 285 C0.99 285 1.98 285 3 285 C3 285.99 3 286.98 3 288 C3.99 288 4.98 288 6 288 C6 288.99 6 289.98 6 291 C6.66 291 7.32 291 8 291 C8 291.66 8 292.32 8 293 C8.99 293 9.98 293 11 293 C11 293.99 11 294.98 11 296 C11.99 296.33 12.98 296.66 14 297 C14 297.66 14 298.32 14 299 C14.66 299 15.32 299 16 299 C16 299.66 16 300.32 16 301 C16.99 301 17.98 301 19 301 C19 302.98 19 304.96 19 307 C19.99 307 20.98 307 22 307 C22 307.66 22 308.32 22 309 C22.66 309 23.32 309 24 309 C24 309.99 24 310.98 24 312 C24.99 312 25.98 312 27 312 C27 312.99 27 313.98 27 315 C27.66 315 28.32 315 29 315 C29 315.66 29 316.32 29 317 C29.99 317 30.98 317 32 317 C32 317.99 32 318.98 32 320 C32.99 320 33.98 320 35 320 C35 320.66 35 321.32 35 322 C35.66 322 36.32 322 37 322 C37 248.08 37 174.16 37 98 C37.99 98 38.98 98 40 98 C40 94.37 40 90.74 40 87 C40.99 87 41.98 87 43 87 C43 85.35 43 83.7 43 82 C43.66 82 44.32 82 45 82 C45 81.01 45 80.02 45 79 C45.99 79 46.98 79 48 79 C48 78.34 48 77.68 48 77 C48.99 77 49.98 77 51 77 C51 76.01 51 75.02 51 74 C51.66 74 52.32 74 53 74 C53.33 73.01 53.66 72.02 54 71 C55.65 71 57.3 71 59 71 C59 70.34 59 69.68 59 69 C60.134375 68.87625 61.26875 68.7525 62.4375 68.625 C64.2009375 68.315625 64.2009375 68.315625 66 68 C66.33 67.34 66.66 66.68 67 66 C282.16 66 497.32 66 719 66 C719 66.99 719 67.98 719 69 C721.64 69 724.28 69 727 69 C727 69.66 727 70.32 727 71 C727.99 71 728.98 71 730 71 C730 71.99 730 72.98 730 74 C731.65 74 733.3 74 735 74 C735 74.99 735 75.98 735 77 C735.99 77 736.98 77 738 77 C738 78.65 738 80.3 738 82 C738.66 82 739.32 82 740 82 C740 82.99 740 83.98 740 85 C740.99 85 741.98 85 743 85 C743 85.66 743 86.32 743 87 C743.99 87 744.98 87 746 87 C746 217.02 746 347.04 746 481 C746.66 481 747.32 481 748 481 C748 497.5 748 514 748 531 C747.34 531 746.68 531 746 531 C746 534.63 746 538.26 746 542 C745.01 542 744.02 542 743 542 C743 542.66 743 543.32 743 544 C742.01 544 741.02 544 740 544 C740 544.99 740 545.98 740 547 C739.34 547 738.68 547 738 547 C738 547.99 738 548.98 738 550 C737.01 550 736.02 550 735 550 C735 550.66 735 551.32 735 552 C734.34 552 733.68 552 733 552 C732.67 552.99 732.34 553.98 732 555 C730.35 555 728.7 555 727 555 C727 555.99 727 556.98 727 558 C723.7 558 720.4 558 717 558 C717 558.66 717 559.32 717 560 C640.11 560 563.22 560 484 560 C484 571.55 484 583.1 484 595 C484.99 595 485.98 595 487 595 C487 595.66 487 596.32 487 597 C489.31 597 491.62 597 494 597 C494.33 597.99 494.66 598.98 495 600 C496.65 600 498.3 600 500 600 C500 600.99 500 601.98 500 603 C503.3 603 506.6 603 510 603 C510 603.66 510 604.32 510 605 C512.64 605 515.28 605 518 605 C518 605.99 518 606.98 518 608 C521.63 608 525.26 608 529 608 C529 608.99 529 609.98 529 611 C531.64 611 534.28 611 537 611 C537 611.66 537 612.32 537 613 C540.3 613 543.6 613 547 613 C547.33 613.66 547.66 614.32 548 615 C550.35599235 615.46751788 550.35599235 615.46751788 553.0625 615.625 C553.98160156 615.69976563 554.90070312 615.77453125 555.84765625 615.8515625 C556.55792969 615.90054688 557.26820313 615.94953125 558 616 C558 616.99 558 617.98 558 619 C560.64 619 563.28 619 566 619 C566 619.66 566 620.32 566 621 C570.29 621 574.58 621 579 621 C579 621.99 579 622.98 579 624 C584.28 624 589.56 624 595 624 C595 624.66 595 625.32 595 626 C598.3 626 601.6 626 605 626 C605.33 626.99 605.66 627.98 606 629 C614.58 629 623.16 629 632 629 C632 629.99 632 630.98 632 632 C638.27 632 644.54 632 651 632 C651 632.66 651 633.32 651 634 C669.15 634 687.3 634 706 634 C706 633.34 706 632.68 706 632 C710.29 632 714.58 632 719 632 C719 631.01 719 630.02 719 629 C724.28 629 729.56 629 735 629 C735.33 628.01 735.66 627.02 736 626 C738.31 626 740.62 626 743 626 C743 625.34 743 624.68 743 624 C746.63 624 750.26 624 754 624 C754 623.01 754 622.02 754 621 C755.65 621 757.3 621 759 621 C759 620.34 759 619.68 759 619 C759.99 619 760.98 619 762 619 C762 618.01 762 617.02 762 616 C764.64 616 767.28 616 770 616 C770 615.01 770 614.02 770 613 C770.66 613 771.32 613 772 613 C772 612.34 772 611.68 772 611 C772.99 611 773.98 611 775 611 C775 610.01 775 609.02 775 608 C776.65 608 778.3 608 780 608 C780 607.01 780 606.02 780 605 C780.99 605 781.98 605 783 605 C783 604.34 783 603.68 783 603 C783.66 603 784.32 603 785 603 C785 602.01 785 601.02 785 600 C785.99 600 786.98 600 788 600 C788 598.35 788 596.7 788 595 C788.99 595 789.98 595 791 595 C791 594.01 791 593.02 791 592 C791.66 592 792.32 592 793 592 C793 590.35 793 588.7 793 587 C793.99 587 794.98 587 796 587 C796 586.01 796 585.02 796 584 C796.99 584 797.98 584 799 584 C799 582.35 799 580.7 799 579 C799.66 579 800.32 579 801 579 C801 576.36 801 573.72 801 571 C801.99 571 802.98 571 804 571 C804 568.36 804 565.72 804 563 C804.99 563 805.98 563 807 563 C807 545.51 807 528.02 807 510 C806.01 510 805.02 510 804 510 C804 506.7 804 503.4 804 500 C804.99 500 805.98 500 807 500 C807 499.01 807 498.02 807 497 C809.31 497 811.62 497 814 497 C814 497.99 814 498.98 814 500 C814.99 500 815.98 500 817 500 C817 503.3 817 506.6 817 510 C817.99 510 818.98 510 820 510 C820 512.64 820 515.28 820 518 C820.66 518 821.32 518 822 518 C822 518.99 822 519.98 822 521 C822.99 521 823.98 521 825 521 C825 526.28 825 531.56 825 537 C825.99 537 826.98 537 828 537 C828 551.52 828 566.04 828 581 C827.01 581 826.02 581 825 581 C825 585.62 825 590.24 825 595 C824.01 595 823.02 595 822 595 C822 596.65 822 598.3 822 600 C821.34 600 820.68 600 820 600 C820 601.65 820 603.3 820 605 C819.01 605 818.02 605 817 605 C817 607.64 817 610.28 817 613 C816.01 613 815.02 613 814 613 C814 613.99 814 614.98 814 616 C813.34 616 812.68 616 812 616 C812 617.65 812 619.3 812 621 C811.01 621 810.02 621 809 621 C809 621.99 809 622.98 809 624 C808.34 624 807.68 624 807 624 C807 624.66 807 625.32 807 626 C806.01 626 805.02 626 804 626 C804 626.99 804 627.98 804 629 C803.01 629 802.02 629 801 629 C801 629.99 801 630.98 801 632 C800.34 632 799.68 632 799 632 C799 632.66 799 633.32 799 634 C798.01 634 797.02 634 796 634 C796 634.99 796 635.98 796 637 C795.01 637 794.02 637 793 637 C793 637.99 793 638.98 793 640 C792.34 640 791.68 640 791 640 C791 641.65 791 643.3 791 645 C790.01 645 789.02 645 788 645 C787.67 645.99 787.34 646.98 787 648 C785.68 648 784.36 648 783 648 C783 648.66 783 649.32 783 650 C782.01 650 781.02 650 780 650 C780 650.99 780 651.98 780 653 C777.36 653 774.72 653 772 653 C772 653.99 772 654.98 772 656 C771.34 656 770.68 656 770 656 C770 656.66 770 657.32 770 658 C769.01 658 768.02 658 767 658 C767 658.99 767 659.98 767 661 C764.36 661 761.72 661 759 661 C759 661.66 759 662.32 759 663 C758.01 663 757.02 663 756 663 C756 663.99 756 664.98 756 666 C754.35 666 752.7 666 751 666 C751 666.99 751 667.98 751 669 C748.36 669 745.72 669 743 669 C743 669.66 743 670.32 743 671 C740.36 671 737.72 671 735 671 C735 671.99 735 672.98 735 674 C730.71 674 726.42 674 722 674 C722 674.99 722 675.98 722 677 C719.36 677 716.72 677 714 677 C714 677.66 714 678.32 714 679 C710.37 679 706.74 679 703 679 C703 679.99 703 680.98 703 682 C695.41 682 687.82 682 680 682 C679.67 682.99 679.34 683.98 679 685 C669.76 685 660.52 685 651 685 C651 685.66 651 686.32 651 687 C640.44 687 629.88 687 619 687 C619 686.34 619 685.68 619 685 C608.77 685 598.54 685 588 685 C587.67 684.01 587.34 683.02 587 682 C577.43 682 567.86 682 558 682 C558 681.01 558 680.02 558 679 C552.72 679 547.44 679 542 679 C542 678.34 542 677.68 542 677 C538.7 677 535.4 677 532 677 C532 676.01 532 675.02 532 674 C525.07 674 518.14 674 511 674 C511 673.01 511 672.02 511 671 C508.36 671 505.72 671 503 671 C503 670.34 503 669.68 503 669 C498.71 669 494.42 669 490 669 C489.67 668.01 489.34 667.02 489 666 C485.7 666 482.4 666 479 666 C479 665.01 479 664.02 479 663 C476.36 663 473.72 663 471 663 C471 662.34 471 661.68 471 661 C467.7 661 464.4 661 461 661 C460.67 660.01 460.34 659.02 460 658 C457.36 658 454.72 658 452 658 C452 657.34 452 656.68 452 656 C450.57260467 656.00138269 450.57260467 656.00138269 449.11637306 656.00279331 C425.99112108 656.02496594 402.86587048 656.04141295 379.74061012 656.05181217 C368.55753833 656.05697447 357.37447355 656.06401592 346.19140625 656.07543945 C336.44736202 656.0853883 326.70332286 656.09185391 316.9592737 656.09408849 C311.79707802 656.09539526 306.63489687 656.09847896 301.47270584 656.10573006 C296.61862593 656.11249343 291.76456659 656.11461631 286.91048241 656.11310768 C285.12460786 656.11338387 283.33873266 656.11538712 281.55286217 656.11920547 C279.12315726 656.12414765 276.69353102 656.12299632 274.26382446 656.12025452 C273.54982471 656.12316736 272.83582496 656.1260802 272.10018885 656.12908131 C267.22824242 656.11412121 267.22824242 656.11412121 265 655 C265 654.34 265 653.68 265 653 C264.01 653 263.02 653 262 653 C262 648.71 262 644.42 262 640 C262.99 640 263.98 640 265 640 C265 639.01 265 638.02 265 637 C265.66 637 266.32 637 267 637 C267 635.35 267 633.7 267 632 C267.99 632 268.98 632 270 632 C270 631.01 270 630.02 270 629 C271.65 629 273.3 629 275 629 C275.33 628.01 275.66 627.02 276 626 C278.31 626 280.62 626 283 626 C283 625.34 283 624.68 283 624 C289.27 624 295.54 624 302 624 C302 616.08 302 608.16 302 600 C301.01 600 300.02 600 299 600 C299 599.01 299 598.02 299 597 C296.36 597 293.72 597 291 597 C291 596.34 291 595.68 291 595 C290.34 595 289.68 595 289 595 C289 594.01 289 593.02 289 592 C287.02 592 285.04 592 283 592 C283 591.01 283 590.02 283 589 C280.36 589 277.72 589 275 589 C275 588.34 275 587.68 275 587 C274.34 587 273.68 587 273 587 C273 586.01 273 585.02 273 584 C270.36 584 267.72 584 265 584 C265 583.01 265 582.02 265 581 C264.01 581 263.02 581 262 581 C262 580.34 262 579.68 262 579 C260.35 579 258.7 579 257 579 C257 578.01 257 577.02 257 576 C254.36 576 251.72 576 249 576 C249 575.34 249 574.68 249 574 C248.01 574 247.02 574 246 574 C246 573.01 246 572.02 246 571 C244.35 571 242.7 571 241 571 C241 570.01 241 569.02 241 568 C239.35 568 237.7 568 236 568 C236 567.34 236 566.68 236 566 C234.35 566 232.7 566 231 566 C230.67 565.01 230.34 564.02 230 563 C228.35 563 226.7 563 225 563 C225 562.01 225 561.02 225 560 C173.52 560 122.04 560 69 560 C69 559.34 69 558.68 69 558 C65.7 558 62.4 558 59 558 C59 557.01 59 556.02 59 555 C57.02 555 55.04 555 53 555 C53 554.01 53 553.02 53 552 C52.34 552 51.68 552 51 552 C51 551.34 51 550.68 51 550 C50.01 550 49.02 550 48 550 C48 549.01 48 548.02 48 547 C47.01 547 46.02 547 45 547 C45 546.01 45 545.02 45 544 C44.34 544 43.68 544 43 544 C43 542.35 43 540.7 43 539 C42.01 539 41.02 539 40 539 C40 538.34 40 537.68 40 537 C39.01 536.67 38.02 536.34 37 536 C37 532.7 37 529.4 37 526 C36.34 526 35.68 526 35 526 C35 512.14 35 498.28 35 484 C35.66 484 36.32 484 37 484 C37 483.01 37 482.02 37 481 C37.99 481 38.98 481 40 481 C40 480.01 40 479.02 40 478 C39.01 478 38.02 478 37 478 C37 461.5 37 445 37 428 C36.34 428 35.68 428 35 428 C35 427.34 35 426.68 35 426 C34.01 425.67 33.02 425.34 32 425 C32 424.34 32 423.68 32 423 C31.01 422.67 30.02 422.34 29 422 C29 421.34 29 420.68 29 420 C28.34 420 27.68 420 27 420 C27 419.34 27 418.68 27 418 C26.01 418 25.02 418 24 418 C24 417.01 24 416.02 24 415 C22.35 415 20.7 415 19 415 C19 414.01 19 413.02 19 412 C18.01 412 17.02 412 16 412 C16 411.34 16 410.68 16 410 C15.34 410 14.68 410 14 410 C14 409.01 14 408.02 14 407 C13.01 407 12.02 407 11 407 C11 406.01 11 405.02 11 404 C10.01 404 9.02 404 8 404 C8 403.34 8 402.68 8 402 C7.34 402 6.68 402 6 402 C6 401.01 6 400.02 6 399 C5.01 399 4.02 399 3 399 C3 398.01 3 397.02 3 396 C2.01 396 1.02 396 0 396 C0 395.34 0 394.68 0 394 C-0.66 394 -1.32 394 -2 394 C-2 393.01 -2 392.02 -2 391 C-2.99 391 -3.98 391 -5 391 C-5 390.34 -5 389.68 -5 389 C-5.99 388.67 -6.98 388.34 -8 388 C-8 387.34 -8 386.68 -8 386 C-8.66 386 -9.32 386 -10 386 C-10 385.01 -10 384.02 -10 383 C-10.99 383 -11.98 383 -13 383 C-13 382.34 -13 381.68 -13 381 C-13.66 381 -14.32 381 -15 381 C-15 380.01 -15 379.02 -15 378 C-15.99 378 -16.98 378 -18 378 C-18 377.01 -18 376.02 -18 375 C-18.99 375 -19.98 375 -21 375 C-21 374.34 -21 373.68 -21 373 C-21.66 373 -22.32 373 -23 373 C-23 372.01 -23 371.02 -23 370 C-23.99 370 -24.98 370 -26 370 C-26 369.01 -26 368.02 -26 367 C-26.99 367 -27.98 367 -29 367 C-29 365.35 -29 363.7 -29 362 C-29.66 362 -30.32 362 -31 362 C-31 361.01 -31 360.02 -31 359 C-31.99 359 -32.98 359 -34 359 C-34 358.34 -34 357.68 -34 357 C-34.99 357 -35.98 357 -37 357 C-37 356.01 -37 355.02 -37 354 C-37.66 354 -38.32 354 -39 354 C-39 353.34 -39 352.68 -39 352 C-39.99 351.67 -40.98 351.34 -42 351 C-42 350.34 -42 349.68 -42 349 C-42.99 348.67 -43.98 348.34 -45 348 C-45 347.34 -45 346.68 -45 346 C-45.66 346 -46.32 346 -47 346 C-47 345.34 -47 344.68 -47 344 C-47.99 343.67 -48.98 343.34 -50 343 C-50 341.35 -50 339.7 -50 338 C-50.66 338 -51.32 338 -52 338 C-52 337.34 -52 336.68 -52 336 C-52.99 336 -53.98 336 -55 336 C-55 335.01 -55 334.02 -55 333 C-55.99 333 -56.98 333 -58 333 C-58 332.01 -58 331.02 -58 330 C-58.66 330 -59.32 330 -60 330 C-60 329.34 -60 328.68 -60 328 C-60.99 328 -61.98 328 -63 328 C-63 326.02 -63 324.04 -63 322 C-63.99 322 -64.98 322 -66 322 C-66 321.34 -66 320.68 -66 320 C-66.66 320 -67.32 320 -68 320 C-68 319.01 -68 318.02 -68 317 C-68.99 317 -69.98 317 -71 317 C-71 315.35 -71 313.7 -71 312 C-71.99 312 -72.98 312 -74 312 C-74 311.01 -74 310.02 -74 309 C-74.66 309 -75.32 309 -76 309 C-76 308.34 -76 307.68 -76 307 C-76.99 306.67 -77.98 306.34 -79 306 C-79 304.35 -79 302.7 -79 301 C-79.99 301 -80.98 301 -82 301 C-82 300.34 -82 299.68 -82 299 C-82.66 299 -83.32 299 -84 299 C-84 297.02 -84 295.04 -84 293 C-84.99 293 -85.98 293 -87 293 C-87 292.34 -87 291.68 -87 291 C-87.66 291 -88.32 291 -89 291 C-89 290.01 -89 289.02 -89 288 C-89.99 288 -90.98 288 -92 288 C-92 286.35 -92 284.7 -92 283 C-92.99 283 -93.98 283 -95 283 C-95 281.02 -95 279.04 -95 277 C-95.66 277 -96.32 277 -97 277 C-97 276.34 -97 275.68 -97 275 C-97.99 275 -98.98 275 -100 275 C-100 273.35 -100 271.7 -100 270 C-100.99 269.67 -101.98 269.34 -103 269 C-103 268.34 -103 267.68 -103 267 C-103.66 267 -104.32 267 -105 267 C-105 265.35 -105 263.7 -105 262 C-105.99 262 -106.98 262 -108 262 C-108 260.02 -108 258.04 -108 256 C-108.99 256 -109.98 256 -111 256 C-111 254.35 -111 252.7 -111 251 C-111.66 251 -112.32 251 -113 251 C-113 249.35 -113 247.7 -113 246 C-113.99 246 -114.98 246 -116 246 C-116 244.02 -116 242.04 -116 240 C-116.99 240 -117.98 240 -119 240 C-119 237.69 -119 235.38 -119 233 C-119.66 233 -120.32 233 -121 233 C-121 232.01 -121 231.02 -121 230 C-121.99 230 -122.98 230 -124 230 C-124 228.35 -124 226.7 -124 225 C-124.66 225 -125.32 225 -126 225 C-126 222.36 -126 219.72 -126 217 C-126.99 217 -127.98 217 -129 217 C-129 215.02 -129 213.04 -129 211 C-129.99 211 -130.98 211 -132 211 C-132 208.36 -132 205.72 -132 203 C-132.66 203 -133.32 203 -134 203 C-134 199.7 -134 196.4 -134 193 C-134.99 193 -135.98 193 -137 193 C-137 191.35 -137 189.7 -137 188 C-137.99 187.67 -138.98 187.34 -140 187 C-140 183.7 -140 180.4 -140 177 C-140.66 177 -141.32 177 -142 177 C-142.33 171.06 -142.66 165.12 -143 159 C-143.66 158.67 -144.32 158.34 -145 158 C-145 144.14 -145 130.28 -145 116 C-144.01 116 -143.02 116 -142 116 C-142 110.72 -142 105.44 -142 100 C-141.34 100 -140.68 100 -140 100 C-140 97.69 -140 95.38 -140 93 C-139.01 92.505 -139.01 92.505 -138 92 C-137.34444881 89.47266765 -137.34444881 89.47266765 -137 87 C-136.01 87 -135.02 87 -134 87 C-134 83.7 -134 80.4 -134 77 C-133.34 77 -132.68 77 -132 77 C-132 76.01 -132 75.02 -132 74 C-131.01 74 -130.02 74 -129 74 C-129 73.01 -129 72.02 -129 71 C-128.01 71 -127.02 71 -126 71 C-126 68.36 -126 65.72 -126 63 C-125.34 63 -124.68 63 -124 63 C-124 62.34 -124 61.68 -124 61 C-123.01 61 -122.02 61 -121 61 C-121 60.01 -121 59.02 -121 58 C-120.34 58 -119.68 58 -119 58 C-118.67 56.35 -118.34 54.7 -118 53 C-117.34 53 -116.68 53 -116 53 C-116 52.01 -116 51.02 -116 50 C-115.01 50 -114.02 50 -113 50 C-113 49.34 -113 48.68 -113 48 C-112.34 48 -111.68 48 -111 48 C-111 47.01 -111 46.02 -111 45 C-110.01 45 -109.02 45 -108 45 C-108 44.01 -108 43.02 -108 42 C-107.01 42 -106.02 42 -105 42 C-105 41.34 -105 40.68 -105 40 C-103.35 40 -101.7 40 -100 40 C-100 39.01 -100 38.02 -100 37 C-99.01 37 -98.02 37 -97 37 C-97 36.01 -97 35.02 -97 34 C-96.34 34 -95.68 34 -95 34 C-95 33.34 -95 32.68 -95 32 C-94.01 32 -93.02 32 -92 32 C-92 31.01 -92 30.02 -92 29 C-91.01 29 -90.02 29 -89 29 C-89 28.01 -89 27.02 -89 26 C-86.69 26 -84.38 26 -82 26 C-82 25.34 -82 24.68 -82 24 C-81.01 24 -80.02 24 -79 24 C-79 23.01 -79 22.02 -79 21 C-78.01 21 -77.02 21 -76 21 C-75.505 19.515 -75.505 19.515 -75 18 C-72.03 18 -69.06 18 -66 18 C-66 17.34 -66 16.68 -66 16 C-64.02 16 -62.04 16 -60 16 C-60 15.01 -60 14.02 -60 13 C-57.36 13 -54.72 13 -52 13 C-52 12.34 -52 11.68 -52 11 C-49.69 11 -47.38 11 -45 11 C-44.67 10.01 -44.34 9.02 -44 8 C-41.69 8 -39.38 8 -37 8 C-36.67 7.01 -36.34 6.02 -36 5 C-32.7 5 -29.4 5 -26 5 C-26 4.34 -26 3.68 -26 3 C-17.42 3 -8.84 3 0 3 C0 2.01 0 1.02 0 0 Z M80 108 C80 191.82 80 275.64 80 362 C80.66 362 81.32 362 82 362 C82 362.99 82 363.98 82 365 C82.99 365 83.98 365 85 365 C85 365.66 85 366.32 85 367 C86.33333333 368.66666667 86.33333333 368.66666667 88 370 C88.66 370 89.32 370 90 370 C90 370.99 90 371.98 90 373 C92.64 373.66 95.28 374.32 98 375 C98 375.99 98 376.98 98 378 C98.99 378 99.98 378 101 378 C101 378.99 101 379.98 101 381 C101.66 381 102.32 381 103 381 C103 381.66 103 382.32 103 383 C103.99 383 104.98 383 106 383 C106 383.99 106 384.98 106 386 C106.99 386 107.98 386 109 386 C109 386.99 109 387.98 109 389 C110.65 389 112.3 389 114 389 C114 389.66 114 390.32 114 391 C114.99 391 115.98 391 117 391 C117 391.99 117 392.98 117 394 C118.65 394 120.3 394 122 394 C122 394.66 122 395.32 122 396 C123.33333333 397.66666667 123.33333333 397.66666667 125 399 C125.66 399 126.32 399 127 399 C127 399.99 127 400.98 127 402 C127.99 402 128.98 402 130 402 C130 402.66 130 403.32 130 404 C131.65 404 133.3 404 135 404 C135 404.99 135 405.98 135 407 C135.99 407 136.98 407 138 407 C138 407.99 138 408.98 138 410 C138.66 410 139.32 410 140 410 C140 410.66 140 411.32 140 412 C141.98 412 143.96 412 146 412 C146 412.99 146 413.98 146 415 C146.66 415 147.32 415 148 415 C148 415.99 148 416.98 148 418 C148.99 418 149.98 418 151 418 C151 418.66 151 419.32 151 420 C152.65 420 154.3 420 156 420 C156 420.99 156 421.98 156 423 C156.99 423 157.98 423 159 423 C159 423.99 159 424.98 159 426 C160.65 426 162.3 426 164 426 C164 426.66 164 427.32 164 428 C164.99 428 165.98 428 167 428 C167 428.99 167 429.98 167 431 C168.65 431 170.3 431 172 431 C172 431.66 172 432.32 172 433 C173.33333333 434.66666667 173.33333333 434.66666667 175 436 C175.66 436 176.32 436 177 436 C177 436.99 177 437.98 177 439 C178.98 439 180.96 439 183 439 C183 439.66 183 440.32 183 441 C355.59 441 528.18 441 706 441 C706 331.11 706 221.22 706 108 C499.42 108 292.84 108 80 108 Z " fill="#6EB2E2" transform="translate(393,274)"/>
<path d="M0 0 C13.86 0 27.72 0 42 0 C42 0.99 42 1.98 42 3 C42.66 3 43.32 3 44 3 C44 3.66 44 4.32 44 5 C44.99 5 45.98 5 47 5 C47 4.34 47 3.68 47 3 C47.99 3 48.98 3 50 3 C50 2.01 50 1.02 50 0 C63.86 0 77.72 0 92 0 C92 0.99 92 1.98 92 3 C93.65 3 95.3 3 97 3 C97 3.66 97 4.32 97 5 C97.99 5 98.98 5 100 5 C100 5.99 100 6.98 100 8 C101.65 8 103.3 8 105 8 C105 8.99 105 9.98 105 11 C106.98 11 108.96 11 111 11 C111 11.66 111 12.32 111 13 C111.66 13 112.32 13 113 13 C113 13.99 113 14.98 113 16 C113.99 16 114.98 16 116 16 C116 25.57 116 35.14 116 45 C115.01 45 114.02 45 113 45 C113 45.99 113 46.98 113 48 C107.72 48 102.44 48 97 48 C97 48.66 97 49.32 97 50 C98.65 50 100.3 50 102 50 C102.33 50.99 102.66 51.98 103 53 C104.65 53 106.3 53 108 53 C108 53.99 108 54.98 108 56 C108.99 56 109.98 56 111 56 C111 56.66 111 57.32 111 58 C111.66 58 112.32 58 113 58 C113 58.99 113 59.98 113 61 C113.99 61 114.98 61 116 61 C116 75.85 116 90.7 116 106 C115.01 106 114.02 106 113 106 C113 106.99 113 107.98 113 109 C109.77208445 111.1519437 108.71599191 111.20086443 105 111 C105 111.99 105 112.98 105 114 C103.35 114 101.7 114 100 114 C100 114.66 100 115.32 100 116 C99.01 116 98.02 116 97 116 C97 116.99 97 117.98 97 119 C81.49 119 65.98 119 50 119 C50 118.01 50 117.02 50 116 C48.02 116 46.04 116 44 116 C44 116.99 44 117.98 44 119 C28.49 119 12.98 119 -3 119 C-3 118.01 -3 117.02 -3 116 C-4.65 116 -6.3 116 -8 116 C-8 115.34 -8 114.68 -8 114 C-8.99 114 -9.98 114 -11 114 C-11 113.01 -11 112.02 -11 111 C-12.65 111 -14.3 111 -16 111 C-16 110.34 -16 109.68 -16 109 C-17.65 109 -19.3 109 -21 109 C-21.33 108.01 -21.66 107.02 -22 106 C-22.66 106 -23.32 106 -24 106 C-24.05794812 101.72922344 -24.09357874 97.45854764 -24.125 93.1875 C-24.14175781 91.97255859 -24.15851562 90.75761719 -24.17578125 89.50585938 C-24.18222656 88.34248047 -24.18867187 87.17910156 -24.1953125 85.98046875 C-24.20578613 84.90692139 -24.21625977 83.83337402 -24.22705078 82.72729492 C-24 80 -24 80 -22 77 C-20.02880859 76.65942383 -20.02880859 76.65942383 -17.6484375 76.70703125 C-16.79765625 76.71669922 -15.946875 76.72636719 -15.0703125 76.73632812 C-14.18085937 76.76146484 -13.29140625 76.78660156 -12.375 76.8125 C-11.02921875 76.83280273 -11.02921875 76.83280273 -9.65625 76.85351562 C-7.43690211 76.88893075 -5.21874812 76.93831539 -3 77 C-3 76.01 -3 75.02 -3 74 C-4.65 74 -6.3 74 -8 74 C-8 73.34 -8 72.68 -8 72 C-8.99 72 -9.98 72 -11 72 C-11 71.01 -11 70.02 -11 69 C-12.65 69 -14.3 69 -16 69 C-16 68.01 -16 67.02 -16 66 C-16.99 66 -17.98 66 -19 66 C-19 65.34 -19 64.68 -19 64 C-19.99 63.67 -20.98 63.34 -22 63 C-22 62.34 -22 61.68 -22 61 C-22.66 61 -23.32 61 -24 61 C-24 46.15 -24 31.3 -24 16 C-23.34 16 -22.68 16 -22 16 C-22 15.01 -22 14.02 -22 13 C-20.02 13 -18.04 13 -16 13 C-16 12.34 -16 11.68 -16 11 C-15.34 11 -14.68 11 -14 11 C-14 10.01 -14 9.02 -14 8 C-12.02 8 -10.04 8 -8 8 C-8 7.01 -8 6.02 -8 5 C-6.35 5 -4.7 5 -3 5 C-3 4.34 -3 3.68 -3 3 C-2.01 3 -1.02 3 0 3 C0 2.01 0 1.02 0 0 Z M44 29 C44 29.99 44 30.98 44 32 C31.79 32 19.58 32 7 32 C7 36.29 7 40.58 7 45 C19.21 45 31.42 45 44 45 C44 45.99 44 46.98 44 48 C45.98 48 47.96 48 50 48 C50 47.01 50 46.02 50 45 C61.22 45 72.44 45 84 45 C84 41.7 84 38.4 84 35 C74.43 34.67 64.86 34.34 55 34 C55 33.34 55 32.68 55 32 C52.36 32 49.72 32 47 32 C47 31.01 47 30.02 47 29 C46.01 29 45.02 29 44 29 Z M44 74 C44 74.99 44 75.98 44 77 C31.79 77 19.58 77 7 77 C7 77.66 7 78.32 7 79 C7.99 79 8.98 79 10 79 C10 82.63 10 86.26 10 90 C21.22 90 32.44 90 44 90 C44 90.99 44 91.98 44 93 C45.98 93 47.96 93 50 93 C50 92.01 50 91.02 50 90 C61.22 90 72.44 90 84 90 C84 85.71 84 81.42 84 77 C71.79 77 59.58 77 47 77 C47 76.01 47 75.02 47 74 C46.01 74 45.02 74 44 74 Z " fill="#6FB2E2" transform="translate(756,1162)"/>
<path d="M0 0 C20.79 0 41.58 0 63 0 C63 0.99 63 1.98 63 3 C63.99 3 64.98 3 66 3 C66 3.66 66 4.32 66 5 C66.66 5 67.32 5 68 5 C68 4.34 68 3.68 68 3 C68.99 3 69.98 3 71 3 C71 2.01 71 1.02 71 0 C84.86 0 98.72 0 113 0 C113 0.99 113 1.98 113 3 C114.65 3 116.3 3 118 3 C118 3.66 118 4.32 118 5 C118.99 5 119.98 5 121 5 C121 5.99 121 6.98 121 8 C122.65 8 124.3 8 126 8 C126 8.99 126 9.98 126 11 C127.98 11 129.96 11 132 11 C132 11.66 132 12.32 132 13 C132.66 13 133.32 13 134 13 C134 13.99 134 14.98 134 16 C134.99 16 135.98 16 137 16 C137 29.2 137 42.4 137 56 C136.01 56 135.02 56 134 56 C134 56.66 134 57.32 134 58 C132.35 58 130.7 58 129 58 C129 59.98 129 61.96 129 64 C130.65 64 132.3 64 134 64 C134 64.66 134 65.32 134 66 C134.99 66 135.98 66 137 66 C137 82.5 137 99 137 116 C136.01 116 135.02 116 134 116 C134 116.99 134 117.98 134 119 C125.42 119 116.84 119 108 119 C108 118.01 108 117.02 108 116 C107.01 116 106.02 116 105 116 C105 103.13 105 90.26 105 77 C92.79 77 80.58 77 68 77 C68 76.01 68 75.02 68 74 C67.34 74 66.68 74 66 74 C66 74.99 66 75.98 66 77 C54.45 77 42.9 77 31 77 C31 89.87 31 102.74 31 116 C30.34 116 29.68 116 29 116 C29 116.99 29 117.98 29 119 C19.43 119 9.86 119 0 119 C0 118.01 0 117.02 0 116 C-0.99 116 -1.98 116 -3 116 C-3 78.71 -3 41.42 -3 3 C-2.01 3 -1.02 3 0 3 C0 2.01 0 1.02 0 0 Z M66 29 C66 29.99 66 30.98 66 32 C54.45 32 42.9 32 31 32 C31 36.29 31 40.58 31 45 C42.22 45.33 53.44 45.66 65 46 C65.495 46.99 65.495 46.99 66 48 C66.66 48 67.32 48 68 48 C68 47.01 68 46.02 68 45 C80.21 45 92.42 45 105 45 C105 41.7 105 38.4 105 35 C95.43 34.67 85.86 34.34 76 34 C76 33.34 76 32.68 76 32 C73.36 32 70.72 32 68 32 C68 31.01 68 30.02 68 29 C67.34 29 66.68 29 66 29 Z " fill="#6EB1E2" transform="translate(185,1162)"/>
<path d="M0 0 C20.79 0 41.58 0 63 0 C63 0.99 63 1.98 63 3 C64.65 3 66.3 3 68 3 C68 2.01 68 1.02 68 0 C81.86 0 95.72 0 110 0 C110 0.99 110 1.98 110 3 C111.98 3 113.96 3 116 3 C116 3.66 116 4.32 116 5 C117.65 5 119.3 5 121 5 C121 5.99 121 6.98 121 8 C121.99 8 122.98 8 124 8 C124 8.99 124 9.98 124 11 C125.65 11 127.3 11 129 11 C129 11.66 129 12.32 129 13 C129.99 13 130.98 13 132 13 C132 13.99 132 14.98 132 16 C132.66 16 133.32 16 134 16 C134 45.7 134 75.4 134 106 C133.34 106 132.68 106 132 106 C131.67 106.99 131.34 107.98 131 109 C130.34 109 129.68 109 129 109 C129 109.66 129 110.32 129 111 C127.35 111 125.7 111 124 111 C124 111.99 124 112.98 124 114 C122.02 114 120.04 114 118 114 C118 114.66 118 115.32 118 116 C117.34 116 116.68 116 116 116 C116 116.99 116 117.98 116 119 C100.16 119 84.32 119 68 119 C68 118.01 68 117.02 68 116 C66.35 116 64.7 116 63 116 C63 116.99 63 117.98 63 119 C41.22 119 19.44 119 -3 119 C-3 118.01 -3 117.02 -3 116 C-3.99 116 -4.98 116 -6 116 C-6 79.7 -6 43.4 -6 6 C-5.01 5.67 -4.02 5.34 -3 5 C-3 4.34 -3 3.68 -3 3 C-2.01 3 -1.02 3 0 3 C0 2.01 0 1.02 0 0 Z M65 28 C64.34 28.33 63.68 28.66 63 29 C63 29.99 63 30.98 63 32 C51.78 32 40.56 32 29 32 C29 50.15 29 68.3 29 87 C39.72494915 87.20996126 39.72494915 87.20996126 50.45043945 87.38793945 C51.79641499 87.42022897 53.14236515 87.45360265 54.48828125 87.48828125 C55.53405334 87.49764709 55.53405334 87.49764709 56.60095215 87.50720215 C61.55616533 87.65475858 61.55616533 87.65475858 63.96948242 89.53198242 C64.30955322 90.01642822 64.64962402 90.50087402 65 91 C65.99 90.67 66.98 90.34 68 90 C68.495 89.01 68.495 89.01 69 88 C80.22 87.67 91.44 87.34 103 87 C103 68.85 103 50.7 103 32 C91.45 32 79.9 32 68 32 C68 31.01 68 30.02 68 29 C67.01 28.67 66.02 28.34 65 28 Z " fill="#6FB2E2" transform="translate(1208,1162)"/>
<path d="M0 0 C13.86 0 27.72 0 42 0 C42 0.99 42 1.98 42 3 C42.99 3 43.98 3 45 3 C45 3.66 45 4.32 45 5 C45.99 5 46.98 5 48 5 C48 4.34 48 3.68 48 3 C48.66 3 49.32 3 50 3 C50 2.01 50 1.02 50 0 C63.86 0 77.72 0 92 0 C92 0.99 92 1.98 92 3 C93.98 3 95.96 3 98 3 C98 3.66 98 4.32 98 5 C98.66 5 99.32 5 100 5 C100 5.99 100 6.98 100 8 C101.98 8 103.96 8 106 8 C106 8.99 106 9.98 106 11 C106.66 11 107.32 11 108 11 C108 11.66 108 12.32 108 13 C109.98 13 111.96 13 114 13 C114 13.99 114 14.98 114 16 C114.66 16 115.32 16 116 16 C116 45.7 116 75.4 116 106 C115.34 106 114.68 106 114 106 C113.67 106.99 113.34 107.98 113 109 C111.35 109 109.7 109 108 109 C108 109.66 108 110.32 108 111 C107.34 111 106.68 111 106 111 C106 111.99 106 112.98 106 114 C104.02 114 102.04 114 100 114 C100 114.66 100 115.32 100 116 C98.35 116 96.7 116 95 116 C95 116.99 95 117.98 95 119 C79.49 119 63.98 119 48 119 C48 118.01 48 117.02 48 116 C47.01 116 46.02 116 45 116 C45 116.99 45 117.98 45 119 C29.16 119 13.32 119 -3 119 C-3 118.01 -3 117.02 -3 116 C-4.65 116 -6.3 116 -8 116 C-8 115.34 -8 114.68 -8 114 C-9.65 114 -11.3 114 -13 114 C-13 113.01 -13 112.02 -13 111 C-13.763125 111.04125 -14.52625 111.0825 -15.3125 111.125 C-18 111 -18 111 -21 109 C-21 108.01 -21 107.02 -21 106 C-21.99 106 -22.98 106 -24 106 C-24 76.3 -24 46.6 -24 16 C-23.01 16 -22.02 16 -21 16 C-21 15.01 -21 14.02 -21 13 C-20.34 13 -19.68 13 -19 13 C-19 12.34 -19 11.68 -19 11 C-17.02 11 -15.04 11 -13 11 C-13 10.01 -13 9.02 -13 8 C-11.35 8 -9.7 8 -8 8 C-8 7.01 -8 6.02 -8 5 C-7.01 5 -6.02 5 -5 5 C-5 4.34 -5 3.68 -5 3 C-3.35 3 -1.7 3 0 3 C0 2.01 0 1.02 0 0 Z M45 29 C45 29.99 45 30.98 45 32 C32.79 32 20.58 32 8 32 C8 50.15 8 68.3 8 87 C19.22 87 30.44 87 42 87 C42 87.99 42 88.98 42 90 C43.98 90 45.96 90 48 90 C48 89.01 48 88.02 48 87 C59.22 87 70.44 87 82 87 C82 68.85 82 50.7 82 32 C70.78 32 59.56 32 48 32 C48 31.01 48 30.02 48 29 C47.01 29 46.02 29 45 29 Z " fill="#6EB2E2" transform="translate(367,1162)"/>
<path d="M0 0 C13.53 0 27.06 0 41 0 C41.495 1.485 41.495 1.485 42 3 C43.65 3 45.3 3 47 3 C47 2.01 47 1.02 47 0 C60.86 0 74.72 0 89 0 C89 0.99 89 1.98 89 3 C90.98 3 92.96 3 95 3 C95 3.66 95 4.32 95 5 C96.65 5 98.3 5 100 5 C100 5.99 100 6.98 100 8 C100.66 8 101.32 8 102 8 C102 8.99 102 9.98 102 11 C103.98 11 105.96 11 108 11 C108 11.66 108 12.32 108 13 C108.66 13 109.32 13 110 13 C110 13.99 110 14.98 110 16 C110.99 16 111.98 16 113 16 C113 45.7 113 75.4 113 106 C112.01 106 111.02 106 110 106 C110 106.99 110 107.98 110 109 C109.34 109 108.68 109 108 109 C108 109.66 108 110.32 108 111 C106.02 111 104.04 111 102 111 C102 111.99 102 112.98 102 114 C101.34 114 100.68 114 100 114 C100 114.66 100 115.32 100 116 C98.35 116 96.7 116 95 116 C95 116.99 95 117.98 95 119 C79.16 119 63.32 119 47 119 C47 118.01 47 117.02 47 116 C45.35 116 43.7 116 42 116 C42 116.99 42 117.98 42 119 C26.16 119 10.32 119 -6 119 C-6 118.01 -6 117.02 -6 116 C-6.99 116 -7.98 116 -9 116 C-9 115.34 -9 114.68 -9 114 C-10.65 114 -12.3 114 -14 114 C-14 113.01 -14 112.02 -14 111 C-15.65 111 -17.3 111 -19 111 C-19 110.34 -19 109.68 -19 109 C-20.65 109 -22.3 109 -24 109 C-24 108.01 -24 107.02 -24 106 C-24.99 106 -25.98 106 -27 106 C-27 76.3 -27 46.6 -27 16 C-26.01 16 -25.02 16 -24 16 C-24 15.01 -24 14.02 -24 13 C-22.35 13 -20.7 13 -19 13 C-19 12.34 -19 11.68 -19 11 C-17.35 11 -15.7 11 -14 11 C-14 10.01 -14 9.02 -14 8 C-13.01 8 -12.02 8 -11 8 C-11 7.01 -11 6.02 -11 5 C-9.35 5 -7.7 5 -6 5 C-6 4.34 -6 3.68 -6 3 C-4.35 3 -2.7 3 -1 3 C-0.67 2.01 -0.34 1.02 0 0 Z M42 29 C42 29.99 42 30.98 42 32 C30.45 32 18.9 32 7 32 C7 50.15 7 68.3 7 87 C18.22 87.33 29.44 87.66 41 88 C41.33 88.66 41.66 89.32 42 90 C43.65 90 45.3 90 47 90 C47.495 89.01 47.495 89.01 48 88 C58.89 87.67 69.78 87.34 81 87 C81 68.85 81 50.7 81 32 C69.78 32 58.56 32 47 32 C47 31.01 47 30.02 47 29 C45.35 29 43.7 29 42 29 Z " fill="#6EB2E2" transform="translate(1446,1162)"/>
<path d="M0 0 C7.92 0 15.84 0 24 0 C24 0.99 24 1.98 24 3 C24.66 3 25.32 3 26 3 C26 3.66 26 4.32 26 5 C26.99 5 27.98 5 29 5 C29 5.99 29 6.98 29 8 C29.99 8 30.98 8 32 8 C32 8.99 32 9.98 32 11 C32.66 11 33.32 11 34 11 C34 11.66 34 12.32 34 13 C34.99 13 35.98 13 37 13 C37 13.99 37 14.98 37 16 C37.99 16 38.98 16 40 16 C40 16.99 40 17.98 40 19 C40.66 19 41.32 19 42 19 C42 19.66 42 20.32 42 21 C42.99 21 43.98 21 45 21 C45 21.99 45 22.98 45 24 C45.99 24 46.98 24 48 24 C48 24.99 48 25.98 48 27 C49.65 27 51.3 27 53 27 C53 27.66 53 28.32 53 29 C53.66 29 54.32 29 55 29 C55 29.99 55 30.98 55 32 C55.99 32 56.98 32 58 32 C58 32.99 58 33.98 58 35 C58.99 35 59.98 35 61 35 C61 35.66 61 36.32 61 37 C61.66 37 62.32 37 63 37 C63 37.99 63 38.98 63 40 C64.98 40 66.96 40 69 40 C69 39.01 69 38.02 69 37 C69.66 37 70.32 37 71 37 C71 36.34 71 35.68 71 35 C71.99 35 72.98 35 74 35 C74 34.01 74 33.02 74 32 C74.99 32 75.98 32 77 32 C77 31.01 77 30.02 77 29 C77.66 29 78.32 29 79 29 C79 28.34 79 27.68 79 27 C79.99 27 80.98 27 82 27 C82 26.01 82 25.02 82 24 C82.99 24 83.98 24 85 24 C85 23.01 85 22.02 85 21 C85.66 21 86.32 21 87 21 C87 20.34 87 19.68 87 19 C87.99 19 88.98 19 90 19 C90 18.01 90 17.02 90 16 C91.375 14.3125 91.375 14.3125 93 13 C93.66 13 94.32 13 95 13 C95 12.34 95 11.68 95 11 C95.99 11 96.98 11 98 11 C98 10.01 98 9.02 98 8 C98.66 8 99.32 8 100 8 C100.33 7.01 100.66 6.02 101 5 C101.66 5 102.32 5 103 5 C103 4.34 103 3.68 103 3 C104.65 3 106.3 3 108 3 C108.33 2.01 108.66 1.02 109 0 C116.59 0 124.18 0 132 0 C132 0.99 132 1.98 132 3 C132.99 3 133.98 3 135 3 C135 40.29 135 77.58 135 116 C134.01 116 133.02 116 132 116 C132 116.99 132 117.98 132 119 C123.42 119 114.84 119 106 119 C106 118.01 106 117.02 106 116 C105.01 116 104.02 116 103 116 C103 93.56 103 71.12 103 48 C102.01 48 101.02 48 100 48 C100 48.66 100 49.32 100 50 C99.34 50 98.68 50 98 50 C98 50.99 98 51.98 98 53 C97.01 53 96.02 53 95 53 C95 53.99 95 54.98 95 56 C94.01 56 93.02 56 92 56 C92 56.66 92 57.32 92 58 C91.34 58 90.68 58 90 58 C90 58.99 90 59.98 90 61 C89.01 61 88.02 61 87 61 C87 61.99 87 62.98 87 64 C86.34 64 85.68 64 85 64 C85 64.66 85 65.32 85 66 C84.01 66 83.02 66 82 66 C82 66.99 82 67.98 82 69 C81.01 69 80.02 69 79 69 C79 69.99 79 70.98 79 72 C78.34 72 77.68 72 77 72 C77 72.66 77 73.32 77 74 C74.36 74 71.72 74 69 74 C69 73.34 69 72.68 69 72 C67.35 72 65.7 72 64 72 C63.67 72.66 63.34 73.32 63 74 C60.69 74 58.38 74 56 74 C56 73.34 56 72.68 56 72 C55.01 72 54.02 72 53 72 C53 71.01 53 70.02 53 69 C52.01 69 51.02 69 50 69 C50 68.01 50 67.02 50 66 C49.34 66 48.68 66 48 66 C48 65.34 48 64.68 48 64 C47.01 64 46.02 64 45 64 C45 63.01 45 62.02 45 61 C44.01 61 43.02 61 42 61 C42 60.01 42 59.02 42 58 C40.35 58 38.7 58 37 58 C37 57.34 37 56.68 37 56 C36.01 56 35.02 56 34 56 C34 55.01 34 54.02 34 53 C33.34 53 32.68 53 32 53 C32 52.01 32 51.02 32 50 C31.01 50 30.02 50 29 50 C29 71.78 29 93.56 29 116 C28.01 116 27.02 116 26 116 C26 116.99 26 117.98 26 119 C16.43 119 6.86 119 -3 119 C-3 118.01 -3 117.02 -3 116 C-3.66 116 -4.32 116 -5 116 C-5.04669997 101.7096094 -5.08184609 87.41923062 -5.10362434 73.12877941 C-5.11407518 66.4936223 -5.12825811 59.85851634 -5.15087891 53.22338867 C-5.17256089 46.82380481 -5.18455883 40.42427023 -5.18975449 34.02465248 C-5.1934586 31.57934098 -5.20069149 29.13403228 -5.21146011 26.68874168 C-5.22591321 23.27184528 -5.22798053 19.85515432 -5.22705078 16.43823242 C-5.23424133 15.42043701 -5.24143188 14.4026416 -5.24884033 13.35400391 C-5.246091 12.42432297 -5.24334167 11.49464203 -5.24050903 10.53678894 C-5.24235262 9.72837649 -5.24419621 8.91996405 -5.24609566 8.08705425 C-5 6 -5 6 -3 3 C-2.01 3 -1.02 3 0 3 C0 2.01 0 1.02 0 0 Z " fill="#71B2E2" transform="translate(515,1162)"/>
<path d="M0 0 C8.58 0 17.16 0 26 0 C26 0.99 26 1.98 26 3 C26.66 3 27.32 3 28 3 C28 30.72 28 58.44 28 87 C39.22 87 50.44 87 62 87 C62.33 87.99 62.66 88.98 63 90 C64.65 90 66.3 90 68 90 C68.495 88.515 68.495 88.515 69 87 C79.89 87 90.78 87 102 87 C102 59.28 102 31.56 102 3 C102.99 3 103.98 3 105 3 C105 2.01 105 1.02 105 0 C113.58 0 122.16 0 131 0 C131 0.99 131 1.98 131 3 C131.99 3 132.98 3 134 3 C134 36.99 134 70.98 134 106 C133.01 106 132.02 106 131 106 C131 106.99 131 107.98 131 109 C130.34 109 129.68 109 129 109 C129 109.66 129 110.32 129 111 C127.35 111 125.7 111 124 111 C124 111.99 124 112.98 124 114 C123.01 114 122.02 114 121 114 C121 114.66 121 115.32 121 116 C119.35 116 117.7 116 116 116 C116 116.99 116 117.98 116 119 C100.16 119 84.32 119 68 119 C68 118.01 68 117.02 68 116 C66.35 116 64.7 116 63 116 C63 116.99 63 117.98 63 119 C47.16 119 31.32 119 15 119 C15 118.01 15 117.02 15 116 C13.35 116 11.7 116 10 116 C10 115.34 10 114.68 10 114 C9.01 114 8.02 114 7 114 C7 113.01 7 112.02 7 111 C5.35 111 3.7 111 2 111 C2 110.34 2 109.68 2 109 C0.35 109 -1.3 109 -3 109 C-3 108.01 -3 107.02 -3 106 C-3.99 106 -4.98 106 -6 106 C-6 73 -6 40 -6 6 C-5.01 5.67 -4.02 5.34 -3 5 C-3 4.34 -3 3.68 -3 3 C-2.34 3 -1.68 3 -1 3 C-0.67 2.01 -0.34 1.02 0 0 Z " fill="#6EB2E2" transform="translate(1039,1162)"/>
<path d="M0 0 C13.86 0 27.72 0 42 0 C42 0.99 42 1.98 42 3 C42.66 3 43.32 3 44 3 C44 3.66 44 4.32 44 5 C44.66 5 45.32 5 46 5 C46.33 4.34 46.66 3.68 47 3 C47.99 3 48.98 3 50 3 C50 2.01 50 1.02 50 0 C63.86 0 77.72 0 92 0 C92 0.99 92 1.98 92 3 C93.65 3 95.3 3 97 3 C97 3.66 97 4.32 97 5 C98.65 5 100.3 5 102 5 C102.495 6.485 102.495 6.485 103 8 C103.66 8 104.32 8 105 8 C105 8.99 105 9.98 105 11 C106.98 11 108.96 11 111 11 C111 11.66 111 12.32 111 13 C111.66 13 112.32 13 113 13 C113 13.99 113 14.98 113 16 C113.99 16 114.98 16 116 16 C116 24.58 116 33.16 116 42 C115.01 42 114.02 42 113 42 C113 42.99 113 43.98 113 45 C104.42 45 95.84 45 87 45 C87 44.01 87 43.02 87 42 C86.01 42 85.02 42 84 42 C84 38.7 84 35.4 84 32 C72.78 32 61.56 32 50 32 C50 31.01 50 30.02 50 29 C48.02 29 46.04 29 44 29 C44 29.99 44 30.98 44 32 C32.78 32 21.56 32 10 32 C10 50.15 10 68.3 10 87 C20.23 87 30.46 87 41 87 C41.33 87.99 41.66 88.98 42 90 C42.66 90 43.32 90 44 90 C44 98.58 44 107.16 44 116 C43.34 116 42.68 116 42 116 C42 116.99 42 117.98 42 119 C27.15 119 12.3 119 -3 119 C-3 118.01 -3 117.02 -3 116 C-4.65 116 -6.3 116 -8 116 C-8 115.34 -8 114.68 -8 114 C-9.98 114 -11.96 114 -14 114 C-14 113.01 -14 112.02 -14 111 C-14.66 111 -15.32 111 -16 111 C-16 110.34 -16 109.68 -16 109 C-17.65 109 -19.3 109 -21 109 C-21.33 108.01 -21.66 107.02 -22 106 C-22.66 106 -23.32 106 -24 106 C-24 76.3 -24 46.6 -24 16 C-23.34 16 -22.68 16 -22 16 C-21.67 15.01 -21.34 14.02 -21 13 C-19.35 13 -17.7 13 -16 13 C-16 12.34 -16 11.68 -16 11 C-15.34 11 -14.68 11 -14 11 C-14 10.01 -14 9.02 -14 8 C-12.02 8 -10.04 8 -8 8 C-8 7.01 -8 6.02 -8 5 C-6.35 5 -4.7 5 -3 5 C-3 4.34 -3 3.68 -3 3 C-2.01 3 -1.02 3 0 3 C0 2.01 0 1.02 0 0 Z " fill="#6FB2E2" transform="translate(37,1162)"/>
<path d="M0 0 C44.55 0 89.1 0 135 0 C135 0.99 135 1.98 135 3 C135.66 3 136.32 3 137 3 C137 11.58 137 20.16 137 29 C136.34 29 135.68 29 135 29 C135 29.99 135 30.98 135 32 C117.51 32 100.02 32 82 32 C82 59.72 82 87.44 82 116 C81.01 116 80.02 116 79 116 C79 116.99 79 117.98 79 119 C69.43 119 59.86 119 50 119 C50 118.01 50 117.02 50 116 C49.34 116 48.68 116 48 116 C48 88.28 48 60.56 48 32 C32.16 32 16.32 32 0 32 C0 31.01 0 30.02 0 29 C-0.99 29 -1.98 29 -3 29 C-3 20.42 -3 11.84 -3 3 C-2.01 3 -1.02 3 0 3 C0 2.01 0 1.02 0 0 Z " fill="#6EB1E2" transform="translate(885,1162)"/>
<path d="M0 0 C7.59 0 15.18 0 23 0 C23 0.99 23 1.98 23 3 C23.99 3 24.98 3 26 3 C26 40.29 26 77.58 26 116 C25.01 116 24.02 116 23 116 C23 116.99 23 117.98 23 119 C14.42 119 5.84 119 -3 119 C-3 118.01 -3 117.02 -3 116 C-3.99 116 -4.98 116 -6 116 C-6 93.56 -6 71.12 -6 48 C-6.99 48 -7.98 48 -9 48 C-9 48.66 -9 49.32 -9 50 C-9.66 50 -10.32 50 -11 50 C-11 50.99 -11 51.98 -11 53 C-11.99 53 -12.98 53 -14 53 C-14 53.99 -14 54.98 -14 56 C-14.99 56 -15.98 56 -17 56 C-17 56.66 -17 57.32 -17 58 C-17.66 58 -18.32 58 -19 58 C-19 58.99 -19 59.98 -19 61 C-19.99 61 -20.98 61 -22 61 C-22 61.99 -22 62.98 -22 64 C-22.66 64 -23.32 64 -24 64 C-24 64.66 -24 65.32 -24 66 C-24.99 66 -25.98 66 -27 66 C-27 66.99 -27 67.98 -27 69 C-27.99 69 -28.98 69 -30 69 C-30 69.99 -30 70.98 -30 72 C-30.66 72 -31.32 72 -32 72 C-32 72.66 -32 73.32 -32 74 C-34.64 74 -37.28 74 -40 74 C-40 73.34 -40 72.68 -40 72 C-40.99 71.67 -41.98 71.34 -43 71 C-43 60.77 -43 50.54 -43 40 C-42.01 40 -41.02 40 -40 40 C-40 39.01 -40 38.02 -40 37 C-39.34 37 -38.68 37 -38 37 C-38 36.34 -38 35.68 -38 35 C-37.01 35 -36.02 35 -35 35 C-35 34.01 -35 33.02 -35 32 C-34.01 32 -33.02 32 -32 32 C-32 31.01 -32 30.02 -32 29 C-31.34 29 -30.68 29 -30 29 C-30 28.34 -30 27.68 -30 27 C-29.01 27 -28.02 27 -27 27 C-27 26.01 -27 25.02 -27 24 C-26.01 24 -25.02 24 -24 24 C-24 23.01 -24 22.02 -24 21 C-23.34 21 -22.68 21 -22 21 C-22 20.34 -22 19.68 -22 19 C-21.01 19 -20.02 19 -19 19 C-19 18.01 -19 17.02 -19 16 C-17.625 14.3125 -17.625 14.3125 -16 13 C-15.34 13 -14.68 13 -14 13 C-14 12.34 -14 11.68 -14 11 C-13.01 11 -12.02 11 -11 11 C-11 10.01 -11 9.02 -11 8 C-10.34 8 -9.68 8 -9 8 C-8.67 7.01 -8.34 6.02 -8 5 C-7.34 5 -6.68 5 -6 5 C-6 4.34 -6 3.68 -6 3 C-4.35 3 -2.7 3 -1 3 C-0.67 2.01 -0.34 1.02 0 0 Z " fill="#6FB1E2" transform="translate(624,1162)"/>
<path d="M0 0 C8.58 0 17.16 0 26 0 C26 0.99 26 1.98 26 3 C26.99 3 27.98 3 29 3 C31.1145014 6.1717521 31.2487713 6.91378687 31.24050903 10.53678894 C31.24325836 11.46646988 31.24600769 12.39615082 31.24884033 13.35400391 C31.24164978 14.37179932 31.23445923 15.38959473 31.22705078 16.43823242 C31.22734283 17.51156326 31.22763489 18.5848941 31.22793579 19.69075012 C31.22654017 23.24573799 31.21096787 26.80051741 31.1953125 30.35546875 C31.1915832 32.81740708 31.18873584 35.27934689 31.18673706 37.74128723 C31.17909409 44.22683802 31.15943983 50.71229949 31.1373291 57.19781494 C31.116885 63.81350496 31.10773841 70.42920938 31.09765625 77.04492188 C31.07619463 90.02998606 31.04243409 103.01498829 31 116 C30.34 116 29.68 116 29 116 C29 116.99 29 117.98 29 119 C19.43 119 9.86 119 0 119 C0 118.01 0 117.02 0 116 C-0.99 116 -1.98 116 -3 116 C-3 78.71 -3 41.42 -3 3 C-2.01 3 -1.02 3 0 3 C0 2.01 0 1.02 0 0 Z " fill="#6FB1E2" transform="translate(1369,1162)"/>
<path d="M0 0 C8.58 0 17.16 0 26 0 C26 0.99 26 1.98 26 3 C26.99 3 27.98 3 29 3 C29 12.57 29 22.14 29 32 C28.01 32 27.02 32 26 32 C26 32.99 26 33.98 26 35 C25.34 35 24.68 35 24 35 C24 35.66 24 36.32 24 37 C22.02 37 20.04 37 18 37 C18 37.99 18 38.98 18 40 C16.35 40 14.7 40 13 40 C13 40.66 13 41.32 13 42 C12.01 42 11.02 42 10 42 C10 42.99 10 43.98 10 45 C-5.51 45 -21.02 45 -37 45 C-37 44.01 -37 43.02 -37 42 C-37.99 42 -38.98 42 -40 42 C-40 33.42 -40 24.84 -40 16 C-39.01 16 -38.02 16 -37 16 C-37 15.01 -37 14.02 -37 13 C-25.78 13 -14.56 13 -3 13 C-3 9.7 -3 6.4 -3 3 C-2.01 3 -1.02 3 0 3 C0 2.01 0 1.02 0 0 Z " fill="#6FB2E2" transform="translate(124,1236)"/>
<path d="M0 0 C0.66 0.33 1.32 0.66 2 1 C2 110.89 2 220.78 2 334 C0.68 334.66 -0.64 335.32 -2 336 C-2.0457418 293.62883898 -2.08100107 251.25768079 -2.10213066 208.88649998 C-2.10463218 203.88828185 -2.10722081 198.89006376 -2.10986328 193.8918457 C-2.1103879 192.89675792 -2.11091252 191.90167013 -2.11145304 190.87642816 C-2.1201642 174.74769707 -2.13593807 158.61898018 -2.15430559 142.49025752 C-2.1729849 125.95025242 -2.18411255 109.41025477 -2.18817699 92.87023956 C-2.19092615 82.65779807 -2.1996203 72.44539673 -2.21583293 62.23296759 C-2.22637553 55.23729512 -2.22960683 48.2416435 -2.22700275 41.24596366 C-2.2257172 37.20515774 -2.22773745 33.16442214 -2.23841095 29.12362862 C-2.24810147 25.42813954 -2.24866245 21.73276847 -2.24179779 18.0372741 C-2.24054476 16.05913932 -2.24920819 14.08100605 -2.25816262 12.10289115 C-2.25418052 10.93694727 -2.25019842 9.7710034 -2.24609566 8.5697279 C-2.2468551 7.5592921 -2.24761454 6.5488563 -2.24839699 5.50780123 C-2 3 -2 3 0 0 Z " fill="#92CEEE" transform="translate(1101,379)"/>
<path d="M0 0 C50.16 0 100.32 0 152 0 C152 1.98 152 3.96 152 6 C101.18 6 50.36 6 -2 6 C-1.34 4.02 -0.68 2.04 0 0 Z " fill="#5AB2E2" transform="translate(464,828)"/>
<path d="M0 0 C0.99 0 1.98 0 3 0 C3 83.16 3 166.32 3 252 C2.01 252 1.02 252 0 252 C0 168.84 0 85.68 0 0 Z " fill="#B9E0F5" transform="translate(470,382)"/>
<path d="M0 0 C0.99 0 1.98 0 3 0 C3 2.31 3 4.62 3 7 C63.39 7 123.78 7 186 7 C186 8.32 186 9.64 186 11 C162.43507444 11.02333234 138.87015061 11.04098083 115.30521584 11.05181217 C104.36428059 11.05697441 93.42335252 11.06401576 82.48242188 11.07543945 C72.94932849 11.08538847 63.4162403 11.09185395 53.88314188 11.09408849 C48.83272877 11.09539523 43.78233051 11.09847875 38.73192215 11.10573006 C33.98290142 11.11249369 29.23390172 11.11461625 24.48487663 11.11310768 C22.73770343 11.11338385 20.99052957 11.11538695 19.24336052 11.11920547 C16.86620377 11.12414807 14.48912743 11.12299617 12.11196899 11.12025452 C11.41353304 11.12316736 10.71509708 11.1260802 9.99549639 11.12908131 C5.22824242 11.11412121 5.22824242 11.11412121 3 10 C3 9.34 3 8.68 3 8 C2.01 8 1.02 8 0 8 C0 5.36 0 2.72 0 0 Z " fill="#ADDDF2" transform="translate(655,919)"/>
<path d="M0 0 C77.88 0 155.76 0 236 0 C236.33 0.99 236.66 1.98 237 3 C159.12 3 81.24 3 1 3 C0.67 2.01 0.34 1.02 0 0 Z " fill="#4BB3E4" transform="translate(873,831)"/>
<path d="M0 0 C1.32 0 2.64 0 4 0 C4 0.99 4 1.98 4 3 C3.34 3 2.68 3 2 3 C2 86.16 2 169.32 2 255 C2.99 255.33 3.98 255.66 5 256 C3.35 255.67 1.7 255.34 0 255 C0 170.85 0 86.7 0 0 Z " fill="#91C7EA" transform="translate(468,379)"/>
<path d="M0 0 C49.5 0 99 0 150 0 C150 0.99 150 1.98 150 3 C100.17 3 50.34 3 -1 3 C-0.67 2.01 -0.34 1.02 0 0 Z " fill="#4BB3E4" transform="translate(463,831)"/>
<path d="M0 0 C0.99 0.33 1.98 0.66 3 1 C3 36.97 3 72.94 3 110 C1.02 110.495 1.02 110.495 -1 111 C-1.0233302 96.67505574 -1.04091336 82.35011441 -1.05181217 68.02515507 C-1.05704174 61.3742647 -1.06414072 54.72339214 -1.07543945 48.07250977 C-1.08626571 41.65997123 -1.09227628 35.24744496 -1.09487724 28.83489799 C-1.09673197 26.38235722 -1.10035347 23.92981715 -1.10573006 21.47728157 C-1.11293702 18.05523323 -1.11399109 14.63323629 -1.11352539 11.21118164 C-1.11712067 10.18619568 -1.12071594 9.16120972 -1.12442017 8.10516357 C-1.1230455 7.17823196 -1.12167084 6.25130035 -1.12025452 5.29627991 C-1.12117631 4.48602387 -1.1220981 3.67576784 -1.12304783 2.8409586 C-1 1 -1 1 0 0 Z " fill="#9DD4EE" transform="translate(1203,1167)"/>
<path d="M0 0 C1.12775345 0.00212242 1.12775345 0.00212242 2.27828979 0.00428772 C4.6829626 0.0098916 7.08754277 0.02244468 9.4921875 0.03515625 C11.12109241 0.04017075 12.74999877 0.04473375 14.37890625 0.04882812 C18.37503577 0.05986228 22.37109592 0.07712946 26.3671875 0.09765625 C26.8621875 1.58265625 26.8621875 1.58265625 27.3671875 3.09765625 C28.0271875 3.09765625 28.6871875 3.09765625 29.3671875 3.09765625 C29.3671875 2.10765625 29.3671875 1.11765625 29.3671875 0.09765625 C41.5771875 0.09765625 53.7871875 0.09765625 66.3671875 0.09765625 C66.0371875 1.74765625 65.7071875 3.39765625 65.3671875 5.09765625 C60.86483155 5.12237984 56.36251514 5.14052744 51.86010742 5.15258789 C50.3285249 5.15761585 48.79694717 5.16443909 47.26538086 5.1730957 C45.06362728 5.18522854 42.86193717 5.19089992 40.66015625 5.1953125 C39.97567917 5.20047379 39.29120209 5.20563507 38.58598328 5.21095276 C35.55812508 5.21130985 33.26568608 5.06382244 30.3671875 4.09765625 C30.3671875 12.34765625 30.3671875 20.59765625 30.3671875 29.09765625 C29.0471875 29.09765625 27.7271875 29.09765625 26.3671875 29.09765625 C26.3671875 20.84765625 26.3671875 12.59765625 26.3671875 4.09765625 C14.1571875 4.09765625 1.9471875 4.09765625 -10.6328125 4.09765625 C-10.3028125 3.10765625 -9.9728125 2.11765625 -9.6328125 1.09765625 C-6.56686656 -0.43531672 -3.36169397 -0.0236583 0 0 Z " fill="#88C6EA" transform="translate(223.6328125,1206.90234375)"/>
<path d="M0 0 C44.55 0 89.1 0 135 0 C135 0.99 135 1.98 135 3 C131.91258094 4.02913969 129.86032222 4.10991728 126.62800598 4.08229065 C125.51321365 4.07525116 124.39842133 4.06821167 123.24984741 4.06095886 C122.02633575 4.04801285 120.8028241 4.03506683 119.54223633 4.02172852 C118.25432693 4.01212097 116.96641754 4.00251343 115.63948059 3.99261475 C112.10666381 3.96614475 108.57393026 3.93336301 105.04117799 3.89946485 C101.34964029 3.86511093 97.658058 3.83653839 93.96647644 3.80735779 C86.97542552 3.75121491 79.98443043 3.68985773 72.99344033 3.62663645 C65.03466743 3.55491646 57.07584983 3.48899526 49.11702311 3.42356598 C32.74462356 3.2888388 16.37229572 3.14681371 0 3 C0 2.01 0 1.02 0 0 Z " fill="#53B6E4" transform="translate(885,1162)"/>
<path d="M0 0 C0.66 0.33 1.32 0.66 2 1 C2 37.3 2 73.6 2 111 C1.01 111 0.02 111 -1 111 C-1.0233302 96.67505574 -1.04091336 82.35011441 -1.05181217 68.02515507 C-1.05704174 61.3742647 -1.06414072 54.72339214 -1.07543945 48.07250977 C-1.08626571 41.65997123 -1.09227628 35.24744496 -1.09487724 28.83489799 C-1.09673197 26.38235722 -1.10035347 23.92981715 -1.10573006 21.47728157 C-1.11293702 18.05523323 -1.11399109 14.63323629 -1.11352539 11.21118164 C-1.11712067 10.18619568 -1.12071594 9.16120972 -1.12442017 8.10516357 C-1.1230455 7.17823196 -1.12167084 6.25130035 -1.12025452 5.29627991 C-1.12117631 4.48602387 -1.1220981 3.67576784 -1.12304783 2.8409586 C-1 1 -1 1 0 0 Z " fill="#7AC7E9" transform="translate(1398,1167)"/>
<path d="M0 0 C0.66 0.33 1.32 0.66 2 1 C2 37.3 2 73.6 2 111 C1.01 111 0.02 111 -1 111 C-1.0233302 96.67505574 -1.04091336 82.35011441 -1.05181217 68.02515507 C-1.05704174 61.3742647 -1.06414072 54.72339214 -1.07543945 48.07250977 C-1.08626571 41.65997123 -1.09227628 35.24744496 -1.09487724 28.83489799 C-1.09673197 26.38235722 -1.10035347 23.92981715 -1.10573006 21.47728157 C-1.11293702 18.05523323 -1.11399109 14.63323629 -1.11352539 11.21118164 C-1.11712067 10.18619568 -1.12071594 9.16120972 -1.12442017 8.10516357 C-1.1230455 7.17823196 -1.12167084 6.25130035 -1.12025452 5.29627991 C-1.12117631 4.48602387 -1.1220981 3.67576784 -1.12304783 2.8409586 C-1 1 -1 1 0 0 Z " fill="#ADDBF2" transform="translate(511,1167)"/>
<path d="M0 0 C0.99 0 1.98 0 3 0 C3 29.7 3 59.4 3 90 C2.01 90 1.02 90 0 90 C0 60.3 0 30.6 0 0 Z " fill="#BAE2F5" transform="translate(13,1178)"/>
<path d="M0 0 C20.79 0 41.58 0 63 0 C62.67 1.98 62.34 3.96 62 6 C61.34 5.34 60.68 4.68 60 4 C57.56061873 3.71410321 57.56061873 3.71410321 54.69580078 3.78881836 C53.5877005 3.79219711 52.47960022 3.79557587 51.33792114 3.79905701 C49.53482986 3.81924644 49.53482986 3.81924644 47.6953125 3.83984375 C45.84931961 3.8476461 45.84931961 3.8476461 43.96603394 3.85560608 C40.68937921 3.87043897 37.41292077 3.8933541 34.13635254 3.92095947 C29.52608001 3.95887244 24.91576541 3.98661823 20.3053894 4.00868225 C17.85021657 4.02094899 15.39506356 4.03856186 12.93997192 4.06199646 C11.82556732 4.06852737 10.71116272 4.07505829 9.56298828 4.08178711 C8.09310959 4.09416664 8.09310959 4.09416664 6.59353638 4.10679626 C4.2322318 4.00956281 2.25560991 3.67558314 0 3 C0 2.01 0 1.02 0 0 Z " fill="#55B6E4" transform="translate(1208,1162)"/>
<path d="M0 0 C0.99 0 1.98 0 3 0 C3 0.66 3 1.32 3 2 C3.99 2 4.98 2 6 2 C6.0740324 7.37513189 6.12854569 12.74996854 6.16479492 18.12548828 C6.17990251 19.95496793 6.20038968 21.78441125 6.22631836 23.61376953 C6.26261585 26.23999992 6.27970615 28.86575249 6.29296875 31.4921875 C6.30845261 32.31306854 6.32393646 33.13394958 6.33988953 33.97970581 C6.34057617 36.28466797 6.34057617 36.28466797 6 40 C3 42 3 42 0 42 C0 28.14 0 14.28 0 0 Z " fill="#4FB1E3" transform="translate(428,758)"/>
<path d="M0 0 C11.88 0 23.76 0 36 0 C36 0.99 36 1.98 36 3 C36.99 3 37.98 3 39 3 C38.67 11.58 38.34 20.16 38 29 C37.34 29 36.68 29 36 29 C35.67 21.08 35.34 13.16 35 5 C32.64101563 5.01160156 30.28203125 5.02320313 27.8515625 5.03515625 C25.57129043 5.04295106 23.29101984 5.04902541 21.01074219 5.05493164 C19.42382139 5.05996588 17.83690523 5.06679369 16.25 5.07543945 C13.97134251 5.08754482 11.69274624 5.09323733 9.4140625 5.09765625 C8.34679428 5.10539818 8.34679428 5.10539818 7.25796509 5.11329651 C2.22774341 5.11387171 2.22774341 5.11387171 0 4 C0 2.68 0 1.36 0 0 Z " fill="#79C1E8" transform="translate(764,1207)"/>
<path d="M0 0 C1.32 0 2.64 0 4 0 C4.06944095 7.39727248 4.12278091 14.79447494 4.15543652 22.19200706 C4.17110785 25.62681954 4.19237214 29.06140941 4.22631836 32.49609375 C4.2650808 36.44268144 4.27969712 40.38917828 4.29296875 44.3359375 C4.30845261 45.57242035 4.32393646 46.8089032 4.33988953 48.08285522 C4.34011612 49.22388702 4.34034271 50.36491882 4.34057617 51.54052734 C4.34723801 52.548685 4.35389984 53.55684265 4.36076355 54.59555054 C4.24171158 55.38901886 4.12265961 56.18248718 4 57 C3.01 57.66 2.02 58.32 1 59 C-0.30760893 56.38478215 -0.11997548 54.46886599 -0.11352539 51.54052734 C-0.11344986 50.39949554 -0.11337433 49.25846375 -0.11329651 48.08285522 C-0.10813522 46.84637238 -0.10297394 45.60988953 -0.09765625 44.3359375 C-0.0962413 43.07359283 -0.09482635 41.81124817 -0.09336853 40.51065063 C-0.08871078 37.15361701 -0.07972408 33.796651 -0.06866455 30.43963623 C-0.0584377 27.01445094 -0.05386818 23.58925866 -0.04882812 20.1640625 C-0.03778238 13.44268957 -0.02103194 6.72134869 0 0 Z " fill="#A1D7EF" transform="translate(43,1195)"/>
<path d="M0 0 C1.32 0 2.64 0 4 0 C4 18.15 4 36.3 4 55 C2.02 55.495 2.02 55.495 0 56 C0 37.52 0 19.04 0 0 Z " fill="#B5DFF4" transform="translate(1233,1196)"/>
<path d="M0 0 C0.99 0 1.98 0 3 0 C3 2.31 3 4.62 3 7 C63.39 7 123.78 7 186 7 C185.67 8.32 185.34 9.64 185 11 C185 10.01 185 9.02 185 8 C123.95 8 62.9 8 0 8 C0 5.36 0 2.72 0 0 Z " fill="#9DD2EF" transform="translate(655,919)"/>
<path d="M0 0 C0.33 0.66 0.66 1.32 1 2 C1.66 2 2.32 2 3 2 C3 24.77 3 47.54 3 71 C2.01 71 1.02 71 0 71 C0 47.57 0 24.14 0 0 Z " fill="#B0DDF2" transform="translate(541,1207)"/>
<path d="M0 0 C2.31 0 4.62 0 7 0 C7 0.99 7 1.98 7 3 C7.99 3 8.98 3 10 3 C10 6.3 10 9.6 10 13 C10.99 13 11.98 13 13 13 C13 13.99 13 14.98 13 16 C12.01 16 11.02 16 10 16 C10 15.34 10 14.68 10 14 C8.68 14 7.36 14 6 14 C6 14.99 6 15.98 6 17 C4.02 17.33 2.04 17.66 0 18 C0 16.35 0 14.7 0 13 C-0.99 13 -1.98 13 -3 13 C-3 9.7 -3 6.4 -3 3 C-2.01 3 -1.02 3 0 3 C0 2.01 0 1.02 0 0 Z " fill="#63BDE7" transform="translate(1200,771)"/>
<path d="M0 0 C20.79 0 41.58 0 63 0 C63 0.99 63 1.98 63 3 C42.21 3 21.42 3 0 3 C0 2.01 0 1.02 0 0 Z " fill="#54B6E4" transform="translate(185,1162)"/>
<path d="M0 0 C13.53 0 27.06 0 41 0 C41 1.32 41 2.64 41 4 C27.47 4 13.94 4 0 4 C0 2.68 0 1.36 0 0 Z " fill="#B0DCF1" transform="translate(1051,908)"/>
<path d="M0 0 C1.98 0.495 1.98 0.495 4 1 C4 1.99 4 2.98 4 4 C3.34 4 2.68 4 2 4 C1.67 26.77 1.34 49.54 1 73 C-1.09308078 68.81383844 -1.24846019 66.99677027 -1.24291992 62.42724609 C-1.24481827 61.77638535 -1.24671661 61.1255246 -1.24867249 60.4549408 C-1.25236698 58.3109825 -1.24169691 56.1673655 -1.23046875 54.0234375 C-1.22927628 52.53178955 -1.22882393 51.04014084 -1.2290802 49.54849243 C-1.22751774 46.42648602 -1.2192448 43.30459467 -1.20581055 40.18261719 C-1.18879158 36.17643335 -1.18499719 32.17037553 -1.18575573 28.16415977 C-1.18548417 25.08615918 -1.18000574 22.00818626 -1.17275429 18.93019485 C-1.16956799 17.452574 -1.1676003 15.97495 -1.16686058 14.4973259 C-1.16469826 12.43615087 -1.15595731 10.37511095 -1.14526367 8.31396484 C-1.13954597 6.5533522 -1.13954597 6.5533522 -1.13371277 4.75717163 C-1 2 -1 2 0 0 Z " fill="#88C3E8" transform="translate(540,1205)"/>
<path d="M0 0 C8.91 0 17.82 0 27 0 C27 0.66 27 1.32 27 2 C27.99 2.33 28.98 2.66 30 3 C30 3.66 30 4.32 30 5 C19.44 5 8.88 5 -2 5 C-2 4.01 -2 3.02 -2 2 C-1.34 2 -0.68 2 0 2 C0 1.34 0 0.68 0 0 Z " fill="#4CB1E3" transform="translate(1014,956)"/>
<path d="M0 0 C0.99 0 1.98 0 3 0 C3.07418046 4.35990873 3.12861544 8.71948279 3.16479492 13.07983398 C3.17987768 14.56297199 3.20034689 16.04606544 3.22631836 17.52905273 C3.26272616 19.66140745 3.27973073 21.79317235 3.29296875 23.92578125 C3.31653442 25.85031128 3.31653442 25.85031128 3.34057617 27.8137207 C3 31 3 31 1.7121582 32.93041992 C-1.07018188 34.6685394 -3.81681352 34.18018037 -7 34 C-7 32.68 -7 31.36 -7 30 C-5.35 29.67 -3.7 29.34 -2 29 C-1.96241577 27.94872925 -1.96241577 27.94872925 -1.92407227 26.8762207 C-1.80773455 23.68814512 -1.68517956 20.50033758 -1.5625 17.3125 C-1.52318359 16.20970703 -1.48386719 15.10691406 -1.44335938 13.97070312 C-1.40146484 12.90400391 -1.35957031 11.83730469 -1.31640625 10.73828125 C-1.26141968 9.26935425 -1.26141968 9.26935425 -1.20532227 7.77075195 C-1.00780667 5.10534823 -0.58426967 2.60530212 0 0 Z " fill="#B6E0F3" transform="translate(578,1202)"/>
<path d="M0 0 C11.88 0 23.76 0 36 0 C36 1.32 36 2.64 36 4 C24.12 4 12.24 4 0 4 C0 2.68 0 1.36 0 0 Z " fill="#BEE1F4" transform="translate(453,310)"/>
<path d="M0 0 C7.92 0 15.84 0 24 0 C24 0.99 24 1.98 24 3 C23.34 3 22.68 3 22 3 C22 3.99 22 4.98 22 6 C18.70849875 6.08685287 15.4172904 6.14033895 12.125 6.1875 C11.18785156 6.21263672 10.25070312 6.23777344 9.28515625 6.26367188 C8.38925781 6.27333984 7.49335937 6.28300781 6.5703125 6.29296875 C5.74289551 6.3086792 4.91547852 6.32438965 4.06298828 6.34057617 C3.38220215 6.22818604 2.70141602 6.1157959 2 6 C0 3 0 3 0 0 Z " fill="#57B6E4" transform="translate(515,1162)"/>
<path d="M0 0 C13.86 0 27.72 0 42 0 C42 0.99 42 1.98 42 3 C28.47 3.33 14.94 3.66 1 4 C0.67 2.68 0.34 1.36 0 0 Z " fill="#54B6E3" transform="translate(756,1162)"/>
<path d="M0 0 C0.99 0 1.98 0 3 0 C3 14.19 3 28.38 3 43 C2.01 43 1.02 43 0 43 C0 28.81 0 14.62 0 0 Z " fill="#A4DAF2" transform="translate(1138,755)"/>
<path d="M0 0 C13.86 0 27.72 0 42 0 C42 0.99 42 1.98 42 3 C36.50091272 3.16760643 31.00168215 3.32816705 25.50219727 3.48217773 C23.63104709 3.53557425 21.75995098 3.59090179 19.88891602 3.64819336 C17.2008022 3.73016978 14.51257095 3.80521854 11.82421875 3.87890625 C10.98662521 3.90594131 10.14903168 3.93297638 9.28605652 3.96083069 C5.9091632 4.04776959 3.23102004 4.07700668 0 3 C0 2.01 0 1.02 0 0 Z " fill="#54B6E4" transform="translate(1493,1162)"/>
<path d="M0 0 C13.86 0 27.72 0 42 0 C42 0.99 42 1.98 42 3 C36.50091272 3.16760643 31.00168215 3.32816705 25.50219727 3.48217773 C23.63104709 3.53557425 21.75995098 3.59090179 19.88891602 3.64819336 C17.2008022 3.73016978 14.51257095 3.80521854 11.82421875 3.87890625 C10.98662521 3.90594131 10.14903168 3.93297638 9.28605652 3.96083069 C5.9091632 4.04776959 3.23102004 4.07700668 0 3 C0 2.01 0 1.02 0 0 Z " fill="#54B6E4" transform="translate(367,1162)"/>
<path d="M0 0 C13.86 0 27.72 0 42 0 C42 0.99 42 1.98 42 3 C37.46023488 4.17346409 33.06214686 4.03915118 28.41796875 3.87890625 C27.19670036 3.84348976 27.19670036 3.84348976 25.95075989 3.80735779 C23.36281301 3.73108411 20.77519318 3.64690482 18.1875 3.5625 C16.42775012 3.50924292 14.66798451 3.4565028 12.90820312 3.40429688 C8.60526357 3.27551841 4.30259983 3.13965162 0 3 C0 2.01 0 1.02 0 0 Z " fill="#54B6E4" transform="translate(256,1162)"/>
<path d="M0 0 C13.53 0 27.06 0 41 0 C41.495 1.485 41.495 1.485 42 3 C27.81 3 13.62 3 -1 3 C-0.67 2.01 -0.34 1.02 0 0 Z " fill="#54B6E4" transform="translate(1446,1162)"/>
<path d="M0 0 C13.86 0 27.72 0 42 0 C42 0.99 42 1.98 42 3 C36.34017703 3.16740321 30.68021782 3.32798446 25.02001953 3.48217773 C23.09353392 3.53562804 21.16709958 3.59095971 19.24072266 3.64819336 C16.4756984 3.73001986 13.71056186 3.80513291 10.9453125 3.87890625 C10.0806839 3.90594131 9.2160553 3.93297638 8.32522583 3.96083069 C2.22774341 4.11387171 2.22774341 4.11387171 0 3 C0 2.01 0 1.02 0 0 Z " fill="#54B6E3" transform="translate(1276,1162)"/>
<path d="M0 0 C13.86 0 27.72 0 42 0 C42 0.99 42 1.98 42 3 C36.34017703 3.16740321 30.68021782 3.32798446 25.02001953 3.48217773 C23.09353392 3.53562804 21.16709958 3.59095971 19.24072266 3.64819336 C16.4756984 3.73001986 13.71056186 3.80513291 10.9453125 3.87890625 C10.0806839 3.90594131 9.2160553 3.93297638 8.32522583 3.96083069 C2.22774341 4.11387171 2.22774341 4.11387171 0 3 C0 2.01 0 1.02 0 0 Z " fill="#54B6E3" transform="translate(87,1162)"/>
<path d="M0 0 C13.86 0 27.72 0 42 0 C42 0.99 42 1.98 42 3 C28.14 3 14.28 3 0 3 C0 2.01 0 1.02 0 0 Z " fill="#54B6E4" transform="translate(806,1162)"/>
<path d="M0 0 C13.86 0 27.72 0 42 0 C42 0.99 42 1.98 42 3 C28.14 3 14.28 3 0 3 C0 2.01 0 1.02 0 0 Z " fill="#54B6E4" transform="translate(417,1162)"/>
<path d="M0 0 C1.98 0.495 1.98 0.495 4 1 C4 8.92 4 16.84 4 25 C2.68 25 1.36 25 0 25 C-1.53465007 23.46534993 -1.12964078 22.05599013 -1.1328125 19.921875 C-1.13410156 19.09042969 -1.13539062 18.25898437 -1.13671875 17.40234375 C-1.13285156 16.52707031 -1.12898438 15.65179687 -1.125 14.75 C-1.12886719 13.89019531 -1.13273437 13.03039063 -1.13671875 12.14453125 C-1.13028713 7.97041156 -1.05922623 4.06877376 0 0 Z " fill="#8DC9EA" transform="translate(1270,1165)"/>
<path d="M0 0 C5.23271569 -0.07403712 10.46512801 -0.12854783 15.69824219 -0.16479492 C17.47922067 -0.17990173 19.26016184 -0.20038835 21.04101562 -0.22631836 C23.59774978 -0.26261943 26.1539931 -0.27970688 28.7109375 -0.29296875 C29.90944839 -0.31619453 29.90944839 -0.31619453 31.13217163 -0.33988953 C33.37646484 -0.34057617 33.37646484 -0.34057617 37 0 C37.66 0.99 38.32 1.98 39 3 C26.13 3 13.26 3 0 3 C0 2.01 0 1.02 0 0 Z " fill="#C8E9F5" transform="translate(806,1207)"/>
<path d="M0 0 C0.99 0 1.98 0 3 0 C3 7.59 3 15.18 3 23 C1.68 23 0.36 23 -1 23 C-2.62634726 19.74730549 -2.18453471 16.195215 -2.1875 12.625 C-2.19974609 11.85671875 -2.21199219 11.0884375 -2.22460938 10.296875 C-2.24272755 3.31533639 -2.24272755 3.31533639 0 0 Z " fill="#82BDE6" transform="translate(1487,1252)"/>
<path d="M0 0 C8.58 0 17.16 0 26 0 C25.67 1.32 25.34 2.64 25 4 C17.08 4 9.16 4 1 4 C0.67 2.68 0.34 1.36 0 0 Z " fill="#87C9EB" transform="translate(124,1236)"/>
<path d="M0 0 C0.99 0 1.98 0 3 0 C3 8.58 3 17.16 3 26 C2.01 26 1.02 26 0 26 C-1.24084307 23.51831386 -1.12933103 21.83573801 -1.1328125 19.0625 C-1.13410156 18.08539062 -1.13539062 17.10828125 -1.13671875 16.1015625 C-1.13285156 15.07804688 -1.12898438 14.05453125 -1.125 13 C-1.12886719 11.97648438 -1.13273437 10.95296875 -1.13671875 9.8984375 C-1.13542969 8.92132812 -1.13414063 7.94421875 -1.1328125 6.9375 C-1.13168457 6.03902344 -1.13055664 5.14054688 -1.12939453 4.21484375 C-1 2 -1 2 0 0 Z " fill="#CEE9F7" transform="translate(1218,820)"/>
<path d="M0 0 C0.99 0.33 1.98 0.66 3 1 C3 9.25 3 17.5 3 26 C1.68 25.67 0.36 25.34 -1 25 C-1.02900455 21.3958502 -1.04680018 17.79173038 -1.0625 14.1875 C-1.07087891 13.16333984 -1.07925781 12.13917969 -1.08789062 11.08398438 C-1.09111328 10.10107422 -1.09433594 9.11816406 -1.09765625 8.10546875 C-1.10289307 7.19949951 -1.10812988 6.29353027 -1.11352539 5.36010742 C-1 3 -1 3 0 0 Z " fill="#B9E0F3" transform="translate(1271,1252)"/>
<path d="M0 0 C0.33 0 0.66 0 1 0 C1 13.53 1 27.06 1 41 C1.99 41 2.98 41 4 41 C4 43.31 4 45.62 4 48 C3.01 47.67 2.02 47.34 1 47 C-0.85616792 41.41758947 -1.2874678 36.29351857 -1.23046875 30.44921875 C-1.23001053 29.66859573 -1.22955231 28.88797272 -1.2290802 28.08369446 C-1.22608198 26.44925396 -1.21826956 24.81481569 -1.20581055 23.18041992 C-1.18742154 20.67681814 -1.18530216 18.17358454 -1.18554688 15.66992188 C-1.18063548 14.07551763 -1.17480881 12.48111589 -1.16796875 10.88671875 C-1.16685593 10.13984299 -1.1657431 9.39296722 -1.16459656 8.62345886 C-1.13577084 5.48464067 -0.99999771 2.99999312 0 0 Z " fill="#7FC0E7" transform="translate(1137,757)"/>
<path d="M0 0 C0.99 0 1.98 0 3 0 C3 7.92 3 15.84 3 24 C1.68 24 0.36 24 -1 24 C-1.02887236 20.18751574 -1.04675492 16.3750593 -1.0625 12.5625 C-1.07087891 11.47388672 -1.07925781 10.38527344 -1.08789062 9.26367188 C-1.09111328 8.22919922 -1.09433594 7.19472656 -1.09765625 6.12890625 C-1.10289307 5.17056885 -1.10812988 4.21223145 -1.11352539 3.22485352 C-1 1 -1 1 0 0 Z " fill="#87CAEC" transform="translate(412,1167)"/>
<path d="M0 0 C0.99 0.33 1.98 0.66 3 1 C3 8.59 3 16.18 3 24 C1.68 24 0.36 24 -1 24 C-1.02887236 20.18751574 -1.04675492 16.3750593 -1.0625 12.5625 C-1.07087891 11.47388672 -1.07925781 10.38527344 -1.08789062 9.26367188 C-1.09111328 8.22919922 -1.09433594 7.19472656 -1.09765625 6.12890625 C-1.10289307 5.17056885 -1.10812988 4.21223145 -1.11352539 3.22485352 C-1 1 -1 1 0 0 Z " fill="#81C7EC" transform="translate(251,1167)"/>
<path d="M0 0 C1.32 0.33 2.64 0.66 4 1 C4.28466242 4.08115743 4.52158834 7.16420323 4.75 10.25 C4.83121094 11.12269531 4.91242188 11.99539063 4.99609375 12.89453125 C5.44293895 19.39861135 5.44293895 19.39861135 3.078125 22.609375 C1 24 1 24 0 24 C0 16.08 0 8.16 0 0 Z " fill="#8ECCEC" transform="translate(248,399)"/>
<path d="M0 0 C5.61 0 11.22 0 17 0 C15 5 15 5 14 6 C11.81360547 6.07258946 9.62499611 6.08373783 7.4375 6.0625 C5.64119141 6.04896484 5.64119141 6.04896484 3.80859375 6.03515625 C2.88175781 6.02355469 1.95492188 6.01195312 1 6 C0.67 4.02 0.34 2.04 0 0 Z " fill="#53B2E3" transform="translate(456,277)"/>
<path d="M0 0 C0.33 1.32 0.66 2.64 1 4 C2.32 4 3.64 4 5 4 C5 3.34 5 2.68 5 2 C6.65 2 8.3 2 10 2 C10 3.65 10 5.3 10 7 C7.36 7 4.72 7 2 7 C2 6.34 2 5.68 2 5 C-2.29 5 -6.58 5 -11 5 C-11 3.68 -11 2.36 -11 1 C-7.26513121 0.4254048 -3.78706732 0 0 0 Z " fill="#87C6EA" transform="translate(894,938)"/>
<path d="M0 0 C7.92 0 15.84 0 24 0 C24.33 1.32 24.66 2.64 25 4 C22.14524694 4.08156437 19.29286435 4.14076372 16.4375 4.1875 C15.23770508 4.22520508 15.23770508 4.22520508 14.01367188 4.26367188 C8.55205195 4.33054885 4.87075897 3.4909519 0 1 C0 0.67 0 0.34 0 0 Z " fill="#51B4E3" transform="translate(844,1206)"/>
<path d="M0 0 C9.57 0 19.14 0 29 0 C29 0.99 29 1.98 29 3 C19.43 3 9.86 3 0 3 C0 2.01 0 1.02 0 0 Z " fill="#C8E9F5" transform="translate(259,1207)"/>
<path d="M0 0 C1.65 0 3.3 0 5 0 C5 5.61 5 11.22 5 17 C3.68 17.33 2.36 17.66 1 18 C0 17 0 17 -0.09765625 13.18359375 C-0.09098089 11.60153318 -0.07901875 10.01948841 -0.0625 8.4375 C-0.05798828 7.63119141 -0.05347656 6.82488281 -0.04882812 5.99414062 C-0.03700518 3.99606244 -0.01906914 1.99802217 0 0 Z " fill="#54B4E3" transform="translate(306,392)"/>
<path d="M0 0 C1.98 0.99 1.98 0.99 4 2 C4.11613204 5.10385211 4.18722029 8.20714662 4.25 11.3125 C4.30027344 12.63411133 4.30027344 12.63411133 4.3515625 13.98242188 C4.37089844 15.25375977 4.37089844 15.25375977 4.390625 16.55078125 C4.4220459 17.72120972 4.4220459 17.72120972 4.45410156 18.9152832 C4 21 4 21 0 24 C0 16.08 0 8.16 0 0 Z " fill="#58B3E3" transform="translate(802,1167)"/>
<path d="M0 0 C1.32 0.33 2.64 0.66 4 1 C4 1.99 4 2.98 4 4 C3.01 4.495 3.01 4.495 2 5 C2.33 6.98 2.66 8.96 3 11 C2.01 11.66 1.02 12.32 0 13 C-0.72965366 15.56282742 -0.72965366 15.56282742 -1 18 C-1.99 18 -2.98 18 -4 18 C-4 19.32 -4 20.64 -4 22 C-5.32 22 -6.64 22 -8 22 C-8 21.01 -8 20.02 -8 19 C-7.34 18.67 -6.68 18.34 -6 18 C-5.34444881 15.47266765 -5.34444881 15.47266765 -5 13 C-4.01 13 -3.02 13 -2 13 C-2 9.7 -2 6.4 -2 3 C-1.34 3 -0.68 3 0 3 C0 2.01 0 1.02 0 0 Z " fill="#91CBEB" transform="translate(261,348)"/>
<path d="M0 0 C9.24 0 18.48 0 28 0 C28 0.99 28 1.98 28 3 C18.43 3 8.86 3 -1 3 C-0.67 2.01 -0.34 1.02 0 0 Z " fill="#C8E9F5" transform="translate(216,1207)"/>
<path d="M0 0 C1.32 0.33 2.64 0.66 4 1 C4.11613204 4.10385211 4.18722029 7.20714662 4.25 10.3125 C4.30027344 11.63411133 4.30027344 11.63411133 4.3515625 12.98242188 C4.37089844 14.25375977 4.37089844 14.25375977 4.390625 15.55078125 C4.4220459 16.72120972 4.4220459 16.72120972 4.45410156 17.9152832 C4 20 4 20 0 23 C0 15.41 0 7.82 0 0 Z " fill="#58B3E3" transform="translate(802,1213)"/>
<path d="M0 0 C9.24 0 18.48 0 28 0 C28 0.99 28 1.98 28 3 C18.76 3 9.52 3 0 3 C0 2.01 0 1.02 0 0 Z " fill="#C8E9F5" transform="translate(766,1207)"/>
<path d="M0 0 C8.58 0 17.16 0 26 0 C26 0.99 26 1.98 26 3 C22.04204914 3.19625099 18.08363065 3.38051982 14.125 3.5625 C12.43310547 3.64661133 12.43310547 3.64661133 10.70703125 3.73242188 C9.63066406 3.78076172 8.55429688 3.82910156 7.4453125 3.87890625 C5.95281982 3.94960327 5.95281982 3.94960327 4.43017578 4.02172852 C2 4 2 4 0 3 C0 2.01 0 1.02 0 0 Z " fill="#54B6E3" transform="translate(1369,1162)"/>
<path d="M0 0 C8.58 0 17.16 0 26 0 C25.67 1.32 25.34 2.64 25 4 C16.75 3.67 8.5 3.34 0 3 C0 2.01 0 1.02 0 0 Z " fill="#55B6E3" transform="translate(1144,1162)"/>
<path d="M0 0 C8.58 0 17.16 0 26 0 C26 0.99 26 1.98 26 3 C17.09 3 8.18 3 -1 3 C-0.67 2.01 -0.34 1.02 0 0 Z " fill="#54B6E4" transform="translate(1039,1162)"/>
<path d="M0 0 C7.59 0 15.18 0 23 0 C23 0.99 23 1.98 23 3 C19.96865616 4.01044795 18.25604057 4.05032949 15.11328125 3.87890625 C14.17548828 3.83056641 13.23769531 3.78222656 12.27148438 3.73242188 C10.80678711 3.64831055 10.80678711 3.64831055 9.3125 3.5625 C8.32443359 3.51029297 7.33636719 3.45808594 6.31835938 3.40429688 C3.87858324 3.27464694 1.43921895 3.13968258 -1 3 C-0.67 2.01 -0.34 1.02 0 0 Z " fill="#55B6E3" transform="translate(624,1162)"/>
<path d="M0 0 C0.99 0 1.98 0 3 0 C3 7.92 3 15.84 3 24 C2.01 24 1.02 24 0 24 C0 16.08 0 8.16 0 0 Z " fill="#DDEFF8" transform="translate(695,874)"/>
<path d="M0 0 C0.99 0.33 1.98 0.66 3 1 C3 8.59 3 16.18 3 24 C2.01 24 1.02 24 0 24 C0 16.08 0 8.16 0 0 Z " fill="#B1DEF2" transform="translate(81,1167)"/>
<path d="M0 0 C1.32 0.33 2.64 0.66 4 1 C3.01 1 2.02 1 1 1 C1 18.82 1 36.64 1 55 C1.99 55 2.98 55 4 55 C3.34 56.32 2.68 57.64 2 59 C0 57 0 57 -0.24050903 54.59555054 C-0.23606781 53.58739288 -0.23162659 52.57923523 -0.22705078 51.54052734 C-0.22689972 50.39949554 -0.22674866 49.25846375 -0.22659302 48.08285522 C-0.21627045 46.84637238 -0.20594788 45.60988953 -0.1953125 44.3359375 C-0.1924826 43.07359283 -0.18965271 41.81124817 -0.18673706 40.51065063 C-0.17742131 37.15353056 -0.15944835 33.79668088 -0.1373291 30.43963623 C-0.1168755 27.01446878 -0.1077364 23.58927341 -0.09765625 20.1640625 C-0.07556458 13.44263329 -0.04206377 6.72133227 0 0 Z " fill="#88C5E9" transform="translate(43,1195)"/>
<path d="M0 0 C1.95825873 -0.02694851 3.91662226 -0.04637218 5.875 -0.0625 C6.96554687 -0.07410156 8.05609375 -0.08570313 9.1796875 -0.09765625 C12 0 12 0 14 1 C14 2.32 14 3.64 14 5 C9.38 5 4.76 5 0 5 C0 3.35 0 1.7 0 0 Z " fill="#8CC8EA" transform="translate(1053,954)"/>
<path d="M0 0 C5 0 5 0 8 2 C8.1875 4.625 8.1875 4.625 8 7 C7.34 7 6.68 7 6 7 C5.67 7.99 5.34 8.98 5 10 C3.35 10 1.7 10 0 10 C0 6.7 0 3.4 0 0 Z " fill="#A8DBF2" transform="translate(594,314)"/>
<path d="M0 0 C1.32 0 2.64 0 4 0 C4.02717692 2.06242617 4.0464758 4.12495703 4.0625 6.1875 C4.07410156 7.33605469 4.08570313 8.48460937 4.09765625 9.66796875 C4.01192832 12.59300586 3.67849023 15.16316291 3 18 C2.01 18 1.02 18 0 18 C0 12.06 0 6.12 0 0 Z " fill="#83C3EA" transform="translate(251,433)"/>
<path d="M0 0 C0.99 0 1.98 0 3 0 C3 7.26 3 14.52 3 22 C2.01 22 1.02 22 0 22 C0 14.74 0 7.48 0 0 Z " fill="#C6E3F6" transform="translate(1101,1252)"/>
<path d="M0 0 C4.95 0 9.9 0 15 0 C15 0.99 15 1.98 15 3 C10.75782901 5.71498943 6.38265584 5.48874992 1.5625 4.5 C1.046875 4.335 0.53125 4.17 0 4 C0 2.68 0 1.36 0 0 Z " fill="#82C2E8" transform="translate(439,277)"/>
<path d="M0 0 C1.98 0 3.96 0 6 0 C6 1.32 6 2.64 6 4 C6.99 4 7.98 4 9 4 C9 4.99 9 5.98 9 7 C8.01 7 7.02 7 6 7 C6 6.34 6 5.68 6 5 C4.68 5 3.36 5 2 5 C2 5.99 2 6.98 2 8 C0.02 8.33 -1.96 8.66 -4 9 C-4 7.35 -4 5.7 -4 4 C-2.68 4 -1.36 4 0 4 C0 2.68 0 1.36 0 0 Z " fill="#9CD5EF" transform="translate(1204,780)"/>
<path d="M0 0 C3.96 0 7.92 0 12 0 C12 1.65 12 3.3 12 5 C11 6 11 6 8.93359375 6.09765625 C8.10988281 6.08605469 7.28617187 6.07445312 6.4375 6.0625 C5.61121094 6.05347656 4.78492188 6.04445313 3.93359375 6.03515625 C3.29550781 6.02355469 2.65742188 6.01195312 2 6 C1.34 4.02 0.68 2.04 0 0 Z " fill="#5BB4E3" transform="translate(367,277)"/>
<path d="M0 0 C0.99 0 1.98 0 3 0 C3.96541545 3.18554592 4.05239684 5.88752707 3.87890625 9.203125 C3.83056641 10.1828125 3.78222656 11.1625 3.73242188 12.171875 C3.67634766 13.18765625 3.62027344 14.2034375 3.5625 15.25 C3.51029297 16.28125 3.45808594 17.3125 3.40429688 18.375 C3.27484366 20.91699039 3.13988672 23.45856593 3 26 C2.34 26 1.68 26 1 26 C0.97494385 25.37432129 0.9498877 24.74864258 0.92407227 24.10400391 C0.80824727 21.27745381 0.68546015 18.45124831 0.5625 15.625 C0.52318359 14.64015625 0.48386719 13.6553125 0.44335938 12.640625 C0.40146484 11.69960937 0.35957031 10.75859375 0.31640625 9.7890625 C0.27974854 8.91975098 0.24309082 8.05043945 0.20532227 7.15478516 C0.12598456 4.9516738 0.12598456 4.9516738 -1 3 C-0.67 2.01 -0.34 1.02 0 0 Z " fill="#73C2EA" transform="translate(412,1252)"/>
<path d="M0 0 C0.99 0 1.98 0 3 0 C3 6.27 3 12.54 3 19 C2.01 19.33 1.02 19.66 0 20 C0 13.4 0 6.8 0 0 Z " fill="#B9E0F3" transform="translate(1271,1171)"/>
<path d="M0 0 C0.98484375 0.00902344 1.9696875 0.01804687 2.984375 0.02734375 C4.10585938 0.04474609 4.10585938 0.04474609 5.25 0.0625 C5.25 1.3825 5.25 2.7025 5.25 4.0625 C0.3 4.0625 -4.65 4.0625 -9.75 4.0625 C-9.75 3.0725 -9.75 2.0825 -9.75 1.0625 C-6.43929162 0.06140485 -3.44915231 -0.04106134 0 0 Z " fill="#99D1ED" transform="translate(997.75,954.9375)"/>
<path d="M0 0 C0.66 0 1.32 0 2 0 C2 0.99 2 1.98 2 3 C11.24 3 20.48 3 30 3 C30 2.01 30 1.02 30 0 C31.98 0 33.96 0 36 0 C36 0.99 36 1.98 36 3 C31.85758584 4.00013174 27.98519696 4.11516542 23.73046875 4.09765625 C23.04946609 4.0962413 22.36846344 4.09482635 21.66682434 4.09336853 C19.50700353 4.08780298 17.34728911 4.07525703 15.1875 4.0625 C13.71679838 4.05748054 12.24609512 4.05291841 10.77539062 4.04882812 C7.1835596 4.03784488 3.5917902 4.02060422 0 4 C0 2.68 0 1.36 0 0 Z " fill="#98CBEB" transform="translate(764,1207)"/>
<path d="M0 0 C0.99 0 1.98 0 3 0 C3 1.98 3 3.96 3 6 C2.34 6 1.68 6 1 6 C1 18.21 1 30.42 1 43 C0.67 43 0.34 43 0 43 C0 28.81 0 14.62 0 0 Z " fill="#9AD2EF" transform="translate(1138,755)"/>
<path d="M0 0 C0.99 0 1.98 0 3 0 C3 1.98 3 3.96 3 6 C2.01 6 1.02 6 0 6 C0 14.25 0 22.5 0 31 C-2.31 31 -4.62 31 -7 31 C-7 30.67 -7 30.34 -7 30 C-5.35 29.67 -3.7 29.34 -2 29 C-1.96241577 27.94872925 -1.96241577 27.94872925 -1.92407227 26.8762207 C-1.80773455 23.68814512 -1.68517956 20.50033758 -1.5625 17.3125 C-1.52318359 16.20970703 -1.48386719 15.10691406 -1.44335938 13.97070312 C-1.40146484 12.90400391 -1.35957031 11.83730469 -1.31640625 10.73828125 C-1.26141968 9.26935425 -1.26141968 9.26935425 -1.20532227 7.77075195 C-1.00780667 5.10534823 -0.58426967 2.60530212 0 0 Z " fill="#8FC6EA" transform="translate(578,1202)"/>
<path d="M0 0 C2.31 0.66 4.62 1.32 7 2 C5 4 5 4 1.10107422 4.22705078 C-0.58108793 4.22673341 -2.26327019 4.21539396 -3.9453125 4.1953125 C-4.8303244 4.1924826 -5.7153363 4.18965271 -6.62716675 4.18673706 C-9.45991412 4.1755224 -12.29234784 4.1504157 -15.125 4.125 C-17.04296419 4.11497185 -18.96093333 4.10584572 -20.87890625 4.09765625 C-25.58605876 4.07557889 -30.29297616 4.04104045 -35 4 C-35 3.67 -35 3.34 -35 3 C-23.12 2.67 -11.24 2.34 1 2 C0.505 1.01 0.505 1.01 0 0 Z " fill="#93CBEB" transform="translate(843,1207)"/>
<path d="M0 0 C2.64 0 5.28 0 8 0 C7.67 1.65 7.34 3.3 7 5 C6.01 4.67 5.02 4.34 4 4 C3.67 4.66 3.34 5.32 3 6 C3 5.34 3 4.68 3 4 C2.01 4 1.02 4 0 4 C-0.33 4.99 -0.66 5.98 -1 7 C-1.99 6.67 -2.98 6.34 -4 6 C-4 5.01 -4 4.02 -4 3 C-3.01 3 -2.02 3 -1 3 C-0.67 2.01 -0.34 1.02 0 0 Z " fill="#71C2E8" transform="translate(318,292)"/>
<path d="M0 0 C1.32 0 2.64 0 4 0 C4 4.29 4 8.58 4 13 C3.01 13 2.02 13 1 13 C-0.00496852 9.98509443 -0.10335303 7.95818308 -0.0625 4.8125 C-0.05347656 3.91144531 -0.04445313 3.01039063 -0.03515625 2.08203125 C-0.02355469 1.39496094 -0.01195312 0.70789063 0 0 Z " fill="#88C6EB" transform="translate(1214,856)"/>
<path d="M0 0 C2.31 0 4.62 0 7 0 C7 0.99 7 1.98 7 3 C7.66 3 8.32 3 9 3 C9 3.99 9 4.98 9 6 C6.03 6 3.06 6 0 6 C0 4.02 0 2.04 0 0 Z " fill="#5EB5E4" transform="translate(382,318)"/>
<path d="M0 0 C0.66 0 1.32 0 2 0 C2 5.28 2 10.56 2 16 C1.01 16 0.02 16 -1 16 C-1.02685095 13.52076199 -1.04676547 11.0418116 -1.0625 8.5625 C-1.07506836 7.50192383 -1.07506836 7.50192383 -1.08789062 6.41992188 C-1.09653588 4.61306441 -1.05220011 2.80612397 -1 1 C-0.67 0.67 -0.34 0.34 0 0 Z " fill="#C4E5F4" transform="translate(1488,1258)"/>
<path d="M0 0 C0.99 0 1.98 0 3 0 C3 1.32 3 2.64 3 4 C2.01 4 1.02 4 0 4 C0 9.94 0 15.88 0 22 C0.99 22 1.98 22 3 22 C3 23.32 3 24.64 3 26 C2.01 26 1.02 26 0 26 C-1.24084307 23.51831386 -1.12933103 21.83573801 -1.1328125 19.0625 C-1.13410156 18.08539062 -1.13539062 17.10828125 -1.13671875 16.1015625 C-1.13285156 15.07804688 -1.12898438 14.05453125 -1.125 13 C-1.12886719 11.97648438 -1.13273437 10.95296875 -1.13671875 9.8984375 C-1.13542969 8.92132812 -1.13414063 7.94421875 -1.1328125 6.9375 C-1.13168457 6.03902344 -1.13055664 5.14054688 -1.12939453 4.21484375 C-1 2 -1 2 0 0 Z " fill="#A1D3EF" transform="translate(1218,820)"/>
<path d="M0 0 C1.98 0 3.96 0 6 0 C6 0.99 6 1.98 6 3 C7.65 3 9.3 3 11 3 C11 3.99 11 4.98 11 6 C8.03 6 5.06 6 2 6 C1.34 4.02 0.68 2.04 0 0 Z " fill="#72BFE8" transform="translate(517,287)"/>
<path d="M0 0 C0 0.99 0 1.98 0 3 C-0.99 3 -1.98 3 -3 3 C-3.33 3.99 -3.66 4.98 -4 6 C-5.32 6 -6.64 6 -8 6 C-8 6.66 -8 7.32 -8 8 C-8.99 8 -9.98 8 -11 8 C-11 7.01 -11 6.02 -11 5 C-10.34 5 -9.68 5 -9 5 C-9 4.01 -9 3.02 -9 2 C-5.62902617 0.50178941 -3.79557881 0 0 0 Z " fill="#75C3E8" transform="translate(1184,916)"/>
<path d="M0 0 C0.99 0 1.98 0 3 0 C3 0.99 3 1.98 3 3 C3.99 3.33 4.98 3.66 6 4 C6 4.66 6 5.32 6 6 C6.66 6 7.32 6 8 6 C8 6.66 8 7.32 8 8 C8.99 8 9.98 8 11 8 C11 8.99 11 9.98 11 11 C10.01 11 9.02 11 8 11 C8 10.34 8 9.68 8 9 C7.01 9 6.02 9 5 9 C5 8.34 5 7.68 5 7 C4.01 7 3.02 7 2 7 C2 6.01 2 5.02 2 4 C1.34 4 0.68 4 0 4 C0 2.68 0 1.36 0 0 Z " fill="#8CCCEC" transform="translate(401,567)"/>
<path d="M0 0 C0.99 0 1.98 0 3 0 C3 4.62 3 9.24 3 14 C2.01 14 1.02 14 0 14 C0 9.38 0 4.76 0 0 Z " fill="#C7E6F5" transform="translate(800,1260)"/>
<path d="M0 0 C0.99 0.33 1.98 0.66 3 1 C3 2.98 3 4.96 3 7 C2.01 7 1.02 7 0 7 C0 12.94 0 18.88 0 25 C-0.33 25 -0.66 25 -1 25 C-1.02900455 21.3958502 -1.04680018 17.79173038 -1.0625 14.1875 C-1.07087891 13.16333984 -1.07925781 12.13917969 -1.08789062 11.08398438 C-1.09111328 10.10107422 -1.09433594 9.11816406 -1.09765625 8.10546875 C-1.10289307 7.19949951 -1.10812988 6.29353027 -1.11352539 5.36010742 C-1 3 -1 3 0 0 Z " fill="#98CFED" transform="translate(1271,1252)"/>
<path d="M0 0 C0.99 0 1.98 0 3 0 C3 0.99 3 1.98 3 3 C3.66 3 4.32 3 5 3 C5 3.66 5 4.32 5 5 C6.32 5.33 7.64 5.66 9 6 C9.33 7.65 9.66 9.3 10 11 C9.01 11 8.02 11 7 11 C7 10.34 7 9.68 7 9 C6.34 9 5.68 9 5 9 C5 8.01 5 7.02 5 6 C4.01 6 3.02 6 2 6 C2 5.01 2 4.02 2 3 C1.01 3 0.02 3 -1 3 C-0.67 2.01 -0.34 1.02 0 0 Z " fill="#7AC5E9" transform="translate(402,675)"/>
<path d="M0 0 C0.99 0.33 1.98 0.66 3 1 C3 5.29 3 9.58 3 14 C2.01 14 1.02 14 0 14 C0 9.38 0 4.76 0 0 Z " fill="#A9D9F0" transform="translate(251,374)"/>
<path d="M0 0 C2.31 0.33 4.62 0.66 7 1 C7 8.59 7 16.18 7 24 C6.67 24 6.34 24 6 24 C6 17.07 6 10.14 6 3 C4.02 3 2.04 3 0 3 C0 2.01 0 1.02 0 0 Z " fill="#92C7EA" transform="translate(692,871)"/>
<path d="M0 0 C2.64 0 5.28 0 8 0 C8.33 1.32 8.66 2.64 9 4 C6.36 4.33 3.72 4.66 1 5 C0.67 3.35 0.34 1.7 0 0 Z " fill="#93CDED" transform="translate(532,292)"/>
<path d="M0 0 C1.32 0 2.64 0 4 0 C4 0.66 4 1.32 4 2 C4.99 2.33 5.98 2.66 7 3 C5.4221875 3.37125 5.4221875 3.37125 3.8125 3.75 C0.17961288 4.76691364 -2.16188253 6.4957787 -5 9 C-5.33 9 -5.66 9 -6 9 C-6 7.35 -6 5.7 -6 4 C-4.02 3.67 -2.04 3.34 0 3 C0 2.01 0 1.02 0 0 Z " fill="#7CC3E9" transform="translate(1206,785)"/>
<path d="M0 0 C3.12290635 0.48578543 5.99580359 0.9986012 9 2 C9 2.99 9 3.98 9 5 C6.03 5 3.06 5 0 5 C0 3.35 0 1.7 0 0 Z " fill="#8DCAEA" transform="translate(1087,951)"/>
<path d="M0 0 C1.32 0 2.64 0 4 0 C4 2.97 4 5.94 4 9 C2.68 9 1.36 9 0 9 C0 6.03 0 3.06 0 0 Z " fill="#8DCBEB" transform="translate(1200,827)"/>
<path d="M0 0 C0 1.32 0 2.64 0 4 C-2.64 4 -5.28 4 -8 4 C-7.625 2.0625 -7.625 2.0625 -7 0 C-4.3333581 -1.33332095 -2.83319697 -0.67102033 0 0 Z " fill="#92CBEC" transform="translate(950,949)"/>
<path d="M0 0 C0 0.99 0 1.98 0 3 C-0.99 3 -1.98 3 -3 3 C-3.33 10.92 -3.66 18.84 -4 27 C-4.33 27 -4.66 27 -5 27 C-5.02899599 23.22918278 -5.04679729 19.45839417 -5.0625 15.6875 C-5.07087891 14.61564453 -5.07925781 13.54378906 -5.08789062 12.43945312 C-5.09111328 11.41142578 -5.09433594 10.38339844 -5.09765625 9.32421875 C-5.10289307 8.37635498 -5.10812988 7.42849121 -5.11352539 6.4519043 C-5 4 -5 4 -4 1 C-2 0 -2 0 0 0 Z " fill="#81C0E7" transform="translate(1221,817)"/>
<path d="M0 0 C0.99 0 1.98 0 3 0 C3 2.97 3 5.94 3 9 C1.68 9 0.36 9 -1 9 C-1.09765625 2.84765625 -1.09765625 2.84765625 -1 1 C-0.67 0.67 -0.34 0.34 0 0 Z " fill="#A3D4EF" transform="translate(1215,801)"/>
<path d="M0 0 C0.99 0 1.98 0 3 0 C3 1.98 3 3.96 3 6 C1.02 6 -0.96 6 -3 6 C-3 7.32 -3 8.64 -3 10 C-4.32 9.67 -5.64 9.34 -7 9 C-6.01 9 -5.02 9 -4 9 C-4.33 7.35 -4.66 5.7 -5 4 C-3.35 4 -1.7 4 0 4 C0 2.68 0 1.36 0 0 Z " fill="#6FC3E9" transform="translate(1207,774)"/>
<path d="M0 0 C3.96 0 7.92 0 12 0 C12 0.99 12 1.98 12 3 C8.37 3 4.74 3 1 3 C0.67 2.01 0.34 1.02 0 0 Z " fill="#A4D7F0" transform="translate(382,277)"/>
<path d="M0 0 C2.64 0 5.28 0 8 0 C8.33 0.99 8.66 1.98 9 3 C6.42786866 4.61949011 5.32330841 5.04408751 2.25 4.625 C1.5075 4.41875 0.765 4.2125 0 4 C0 2.68 0 1.36 0 0 Z " fill="#86CBEB" transform="translate(990,900)"/>
<path d="M0 0 C3.63 0 7.26 0 11 0 C11 0.99 11 1.98 11 3 C7.37 3 3.74 3 0 3 C0 2.01 0 1.02 0 0 Z " fill="#AADBF1" transform="translate(1054,956)"/>
<path d="M0 0 C0.99 0 1.98 0 3 0 C3 3.63 3 7.26 3 11 C2.01 11 1.02 11 0 11 C0 7.37 0 3.74 0 0 Z " fill="#AEDAF1" transform="translate(251,434)"/>
<path d="M0 0 C0.33 1.65 0.66 3.3 1 5 C-1.97 4.67 -4.94 4.34 -8 4 C-8 3.01 -8 2.02 -8 1 C-5.29120665 -0.35439668 -2.99066732 -0.06501451 0 0 Z " fill="#89C9EB" transform="translate(571,317)"/>
<path d="M0 0 C2.97 0.33 5.94 0.66 9 1 C9 1.99 9 2.98 9 4 C5.7 4 2.4 4 -1 4 C-0.67 2.68 -0.34 1.36 0 0 Z " fill="#7FC6E9" transform="translate(403,315)"/>
<path d="M0 0 C0 1.32 0 2.64 0 4 C-2.64 4 -5.28 4 -8 4 C-7.67 2.68 -7.34 1.36 -7 0 C-3.98968256 -0.93423645 -3.13349732 -1.04449911 0 0 Z " fill="#88CAEB" transform="translate(556,315)"/>
<path d="M0 0 C3.63 0 7.26 0 11 0 C11 0.99 11 1.98 11 3 C7.7 3 4.4 3 1 3 C0.67 2.01 0.34 1.02 0 0 Z " fill="#92D1EE" transform="translate(882,940)"/>
<path d="M0 0 C0.33 0 0.66 0 1 0 C1 7.92 1 15.84 1 24 C0.01 24 -0.98 24 -2 24 C-2 22.68 -2 21.36 -2 20 C-1.34 20 -0.68 20 0 20 C0 13.4 0 6.8 0 0 Z " fill="#C0E2F4" transform="translate(697,874)"/>
<path d="M0 0 C2.31 0 4.62 0 7 0 C7 1.98 7 3.96 7 6 C5.68 5.67 4.36 5.34 3 5 C3 4.34 3 3.68 3 3 C2.01 3 1.02 3 0 3 C0 2.01 0 1.02 0 0 Z " fill="#55B6E4" transform="translate(1200,771)"/>
<path d="M0 0 C0.99 0 1.98 0 3 0 C3 1.98 3 3.96 3 6 C3.99 6 4.98 6 6 6 C6 6.99 6 7.98 6 9 C4.35 8.67 2.7 8.34 1 8 C1.33 7.01 1.66 6.02 2 5 C1.01 4.67 0.02 4.34 -1 4 C-0.67 2.68 -0.34 1.36 0 0 Z " fill="#93CBEC" transform="translate(327,464)"/>
<path d="M0 0 C3.63 0 7.26 0 11 0 C11 0.66 11 1.32 11 2 C8.59454362 3.20272819 7.05003047 3.10071472 4.375 3.0625 C3.14910156 3.04896484 3.14910156 3.04896484 1.8984375 3.03515625 C0.95871094 3.01775391 0.95871094 3.01775391 0 3 C0 2.01 0 1.02 0 0 Z " fill="#ABDAF0" transform="translate(440,277)"/>
<path d="M0 0 C0 1.98 0 3.96 0 6 C-2.96175123 5.38722388 -4.38058783 4.74627478 -7 3 C-7 2.34 -7 1.68 -7 1 C-4.50935112 0.31292445 -2.62113708 0 0 0 Z " fill="#5FB7E4" transform="translate(1221,811)"/>
<path d="M0 0 C0.99 0 1.98 0 3 0 C3 3.3 3 6.6 3 10 C2.01 10 1.02 10 0 10 C0 6.7 0 3.4 0 0 Z " fill="#B9E1F4" transform="translate(248,405)"/>
<path d="M0 0 C1.98 0 3.96 0 6 0 C6.33 1.32 6.66 2.64 7 4 C4.36 4 1.72 4 -1 4 C-0.67 2.68 -0.34 1.36 0 0 Z " fill="#95CDED" transform="translate(518,312)"/>
<path d="M0 0 C1.32 0 2.64 0 4 0 C4 1.98 4 3.96 4 6 C2.02 6 0.04 6 -2 6 C-1.34 4.02 -0.68 2.04 0 0 Z " fill="#58B6E4" transform="translate(937,947)"/>
<path d="M0 0 C2.31 0 4.62 0 7 0 C6.67 1.32 6.34 2.64 6 4 C2.25 5.125 2.25 5.125 0 4 C0 2.68 0 1.36 0 0 Z " fill="#94CEEC" transform="translate(1029,906)"/>
<path d="M0 0 C0.99 0 1.98 0 3 0 C3 0.99 3 1.98 3 3 C2.34 3 1.68 3 1 3 C1 4.65 1 6.3 1 8 C-0.32 8 -1.64 8 -3 8 C-3.33 7.01 -3.66 6.02 -4 5 C-2.68 4.34 -1.36 3.68 0 3 C0 2.01 0 1.02 0 0 Z " fill="#8AC7EB" transform="translate(316,366)"/>
<path d="M0 0 C1.98 0.66 3.96 1.32 6 2 C6 2.99 6 3.98 6 5 C3.69 5 1.38 5 -1 5 C-0.67 3.35 -0.34 1.7 0 0 Z " fill="#8EC9EA" transform="translate(1098,948)"/>
<path d="M0 0 C1.65 0.33 3.3 0.66 5 1 C5 2.32 5 3.64 5 5 C3.02 5 1.04 5 -1 5 C-0.67 3.35 -0.34 1.7 0 0 Z " fill="#89C9EB" transform="translate(929,946)"/>
<path d="M0 0 C1.98 0 3.96 0 6 0 C5.25 2.4375 5.25 2.4375 4 5 C1.875 5.8125 1.875 5.8125 0 6 C0 4.02 0 2.04 0 0 Z " fill="#55B3E4" transform="translate(1038,906)"/>
<path d="M0 0 C2.86724686 0.57344937 3.8614515 0.8614515 6 3 C5.625 5.125 5.625 5.125 5 7 C4.01 6.67 3.02 6.34 2 6 C2 5.34 2 4.68 2 4 C1.34 4 0.68 4 0 4 C0 2.68 0 1.36 0 0 Z " fill="#87C8EA" transform="translate(288,537)"/>
<path d="M0 0 C1.65 0 3.3 0 5 0 C4.67 1.65 4.34 3.3 4 5 C2.68 5.33 1.36 5.66 0 6 C0 4.02 0 2.04 0 0 Z " fill="#8FCBEC" transform="translate(430,801)"/>
<path d="M0 0 C1.98 0 3.96 0 6 0 C5.67 0.99 5.34 1.98 5 3 C5.66 3.33 6.32 3.66 7 4 C5.02 4.33 3.04 4.66 1 5 C0.67 3.35 0.34 1.7 0 0 Z " fill="#94CDED" transform="translate(1003,903)"/>
<path d="M0 0 C0.99 0 1.98 0 3 0 C3 1.98 3 3.96 3 6 C1.35 6 -0.3 6 -2 6 C-1.34 4.02 -0.68 2.04 0 0 Z " fill="#8FCBEC" transform="translate(314,430)"/>
<path d="M0 0 C0.33 0 0.66 0 1 0 C1 3.3 1 6.6 1 10 C-0.32 10 -1.64 10 -3 10 C-2.21302675 6.58978257 -1.12880057 3.31114834 0 0 Z " fill="#7AC4E9" transform="translate(593,314)"/>
<path d="M0 0 C1.65 0 3.3 0 5 0 C5 1.32 5 2.64 5 4 C3.35 4.33 1.7 4.66 0 5 C0 3.35 0 1.7 0 0 Z " fill="#7FC5E9" transform="translate(562,300)"/>
<path d="M0 0 C2.97 0 5.94 0 9 0 C8.67 0.99 8.34 1.98 8 3 C5.69 3 3.38 3 1 3 C0.67 2.01 0.34 1.02 0 0 Z " fill="#4BB2E4" transform="translate(367,277)"/>
<path d="M0 0 C1.65 0 3.3 0 5 0 C5 0.99 5 1.98 5 3 C4.34 3 3.68 3 3 3 C3 3.99 3 4.98 3 6 C1.68 5.67 0.36 5.34 -1 5 C-0.67 3.35 -0.34 1.7 0 0 Z " fill="#5CB7E4" transform="translate(983,898)"/>
<path d="M0 0 C0 1.32 0 2.64 0 4 C-1.98 4.33 -3.96 4.66 -6 5 C-6 3.68 -6 2.36 -6 1 C-3 0 -3 0 0 0 Z " fill="#5AB5E4" transform="translate(1218,795)"/>
<path d="M0 0 C0.99 0 1.98 0 3 0 C3.33 1.98 3.66 3.96 4 6 C2.35 6 0.7 6 -1 6 C-0.67 4.02 -0.34 2.04 0 0 Z " fill="#5CB5E4" transform="translate(511,310)"/>
<path d="M0 0 C1.32 0 2.64 0 4 0 C4 1.65 4 3.3 4 5 C2.68 5.33 1.36 5.66 0 6 C0 4.02 0 2.04 0 0 Z " fill="#94CCEC" transform="translate(259,471)"/>
<path d="M0 0 C0.99 0 1.98 0 3 0 C3 1.98 3 3.96 3 6 C1.68 6 0.36 6 -1 6 C-1.042721 4.33388095 -1.04063832 2.66617115 -1 1 C-0.67 0.67 -0.34 0.34 0 0 Z " fill="#82C8EB" transform="translate(322,451)"/>
<path d="M0 0 C1.32 0 2.64 0 4 0 C4 1.98 4 3.96 4 6 C2.68 5.67 1.36 5.34 0 5 C0 3.35 0 1.7 0 0 Z " fill="#90CAEB" transform="translate(307,383)"/>
<path d="M0 0 C0.99 0 1.98 0 3 0 C3 1.32 3 2.64 3 4 C2.01 4 1.02 4 0 4 C0 4.66 0 5.32 0 6 C-0.99 6 -1.98 6 -3 6 C-3 5.01 -3 4.02 -3 3 C-2.34 3 -1.68 3 -1 3 C-0.67 2.01 -0.34 1.02 0 0 Z " fill="#93CEED" transform="translate(447,345)"/>
<path d="M0 0 C4.75 0.875 4.75 0.875 7 2 C7 2.66 7 3.32 7 4 C4.69 4.33 2.38 4.66 0 5 C0 3.35 0 1.7 0 0 Z " fill="#82C5E9" transform="translate(392,317)"/>
<path d="M0 0 C0.99 0 1.98 0 3 0 C2.67 3.3 2.34 6.6 2 10 C1.34 10 0.68 10 0 10 C0 6.7 0 3.4 0 0 Z " fill="#96D3EE" transform="translate(594,314)"/>
<path d="M0 0 C2.475 0.99 2.475 0.99 5 2 C5 2.99 5 3.98 5 5 C3.02 5 1.04 5 -1 5 C-0.67 3.35 -0.34 1.7 0 0 Z " fill="#88C9EA" transform="translate(430,311)"/>
<path d="M0 0 C1.32 0.33 2.64 0.66 4 1 C2.75 3.5 2.75 3.5 1 6 C-0.32 6 -1.64 6 -3 6 C-3 5.01 -3 4.02 -3 3 C-2.01 3 -1.02 3 0 3 C0 2.01 0 1.02 0 0 Z " fill="#8CCCED" transform="translate(304,300)"/>
<path d="M0 0 C1.98 0 3.96 0 6 0 C5.67 1.65 5.34 3.3 5 5 C2.525 4.01 2.525 4.01 0 3 C0 2.01 0 1.02 0 0 Z " fill="#8DCCED" transform="translate(320,292)"/>
<path d="M0 0 C0.99 0 1.98 0 3 0 C3 2.31 3 4.62 3 7 C2.01 7 1.02 7 0 7 C0 4.69 0 2.38 0 0 Z " fill="#A3D7F1" transform="translate(13,1178)"/>
<path d="M0 0 C2.31 0 4.62 0 7 0 C7 0.99 7 1.98 7 3 C4.69 3 2.38 3 0 3 C0 2.01 0 1.02 0 0 Z " fill="#B8E0F3" transform="translate(995,956)"/>
<path d="M0 0 C2.97 0.495 2.97 0.495 6 1 C6 1.99 6 2.98 6 4 C4.02 4 2.04 4 0 4 C0 2.68 0 1.36 0 0 Z " fill="#79C4E8" transform="translate(1138,939)"/>
<path d="M0 0 C0.99 0 1.98 0 3 0 C3 2.31 3 4.62 3 7 C2.01 7 1.02 7 0 7 C0 4.69 0 2.38 0 0 Z " fill="#B2DDF3" transform="translate(1215,858)"/>
<path d="M0 0 C1.32 0 2.64 0 4 0 C4.33 1.32 4.66 2.64 5 4 C3.02 4 1.04 4 -1 4 C-0.67 2.68 -0.34 1.36 0 0 Z " fill="#73C2E9" transform="translate(453,828)"/>
<path d="M0 0 C1.98 0 3.96 0 6 0 C6 0.66 6 1.32 6 2 C6.99 2 7.98 2 9 2 C9 2.99 9 3.98 9 5 C8.01 5 7.02 5 6 5 C6 4.34 6 3.68 6 3 C5.01 3 4.02 3 3 3 C3 2.34 3 1.68 3 1 C2.01 0.67 1.02 0.34 0 0 Z " fill="#7AC4E8" transform="translate(403,573)"/>
<path d="M0 0 C1.98 0 3.96 0 6 0 C6.33 0.99 6.66 1.98 7 3 C4.69 3 2.38 3 0 3 C0 2.01 0 1.02 0 0 Z " fill="#A3D8F2" transform="translate(244,1207)"/>
<path d="M0 0 C0 1.65 0 3.3 0 5 C-2.97 4.505 -2.97 4.505 -6 4 C-6 3.34 -6 2.68 -6 2 C-2.25 0 -2.25 0 0 0 Z " fill="#63BAE6" transform="translate(1221,850)"/>
<path d="M0 0 C0.66 0 1.32 0 2 0 C2 1.32 2 2.64 2 4 C1.01 4 0.02 4 -1 4 C-1 4.66 -1 5.32 -1 6 C-1.99 6 -2.98 6 -4 6 C-4 5.01 -4 4.02 -4 3 C-3.01 3 -2.02 3 -1 3 C-0.67 2.01 -0.34 1.02 0 0 Z " fill="#7BC5E9" transform="translate(1137,812)"/>
<path d="M0 0 C-0.99 1.485 -0.99 1.485 -2 3 C-4.625 3.1875 -4.625 3.1875 -7 3 C-7 2.01 -7 1.02 -7 0 C-3.86650268 -1.04449911 -3.01031744 -0.93423645 0 0 Z " fill="#7BBAE5" transform="translate(437,755)"/>
<path d="M0 0 C2.31 0.33 4.62 0.66 7 1 C6.67 1.99 6.34 2.98 6 4 C3.03 3.505 3.03 3.505 0 3 C0 2.01 0 1.02 0 0 Z " fill="#62B6E5" transform="translate(436,356)"/>
<path d="M0 0 C0 2.31 0 4.62 0 7 C-0.99 7 -1.98 7 -3 7 C-3 5.02 -3 3.04 -3 1 C-1 0 -1 0 0 0 Z " fill="#9DD5F1" transform="translate(16,1261)"/>
<path d="M0 0 C0.99 0 1.98 0 3 0 C3 1.98 3 3.96 3 6 C2.01 6.33 1.02 6.66 0 7 C0 4.69 0 2.38 0 0 Z " fill="#9AD2ED" transform="translate(1487,1252)"/>
<path d="M0 0 C0 1.65 0 3.3 0 5 C-1.65 5 -3.3 5 -5 5 C-5 4.01 -5 3.02 -5 2 C-1.125 0 -1.125 0 0 0 Z " fill="#80C5EB" transform="translate(960,951)"/>
<path d="M0 0 C0.99 0 1.98 0 3 0 C3 1.98 3 3.96 3 6 C2.01 6.33 1.02 6.66 0 7 C0 4.69 0 2.38 0 0 Z " fill="#90CEEC" transform="translate(1138,755)"/>
<path d="M0 0 C1.32 0 2.64 0 4 0 C4.33 1.65 4.66 3.3 5 5 C4.01 5 3.02 5 2 5 C2 4.34 2 3.68 2 3 C1.34 3 0.68 3 0 3 C0 2.01 0 1.02 0 0 Z " fill="#8ECDEB" transform="translate(407,681)"/>
<path d="M0 0 C0.99 0 1.98 0 3 0 C3 1.98 3 3.96 3 6 C2.01 6 1.02 6 0 6 C0 4.02 0 2.04 0 0 Z " fill="#7DC3E9" transform="translate(264,485)"/>
<path d="M0 0 C0.99 0 1.98 0 3 0 C3 2.31 3 4.62 3 7 C2.01 6.67 1.02 6.34 0 6 C0 4.02 0 2.04 0 0 Z " fill="#53B6E4" transform="translate(248,426)"/>
<path d="M0 0 C0.99 0 1.98 0 3 0 C4.125 3.75 4.125 3.75 3 6 C2.01 6 1.02 6 0 6 C0 4.02 0 2.04 0 0 Z " fill="#54B6E4" transform="translate(248,390)"/>
<path d="M0 0 C1.32 0.33 2.64 0.66 4 1 C4 1.99 4 2.98 4 4 C2.02 4.99 2.02 4.99 0 6 C0 4.02 0 2.04 0 0 Z " fill="#7DC5EA" transform="translate(261,348)"/>
<path d="M0 0 C1.98 0 3.96 0 6 0 C5.67 1.32 5.34 2.64 5 4 C3.35 3.67 1.7 3.34 0 3 C0 2.01 0 1.02 0 0 Z " fill="#87CAEC" transform="translate(341,285)"/>
<path d="M0 0 C1.65 0 3.3 0 5 0 C4.67 1.32 4.34 2.64 4 4 C2.68 4 1.36 4 0 4 C0 2.68 0 1.36 0 0 Z " fill="#8CCCED" transform="translate(488,282)"/>
<path d="M0 0 C0.99 0 1.98 0 3 0 C3 1.98 3 3.96 3 6 C2.01 6 1.02 6 0 6 C0 4.02 0 2.04 0 0 Z " fill="#9CD1EE" transform="translate(1101,1252)"/>
<path d="M0 0 C1.98 0 3.96 0 6 0 C6 0.99 6 1.98 6 3 C4.02 3 2.04 3 0 3 C0 2.01 0 1.02 0 0 Z " fill="#A3D9F2" transform="translate(794,1207)"/>
<path d="M0 0 C1.98 0 3.96 0 6 0 C6 0.99 6 1.98 6 3 C4.02 3 2.04 3 0 3 C0 2.01 0 1.02 0 0 Z " fill="#A0D7F1" transform="translate(253,1207)"/>
<path d="M0 0 C0.99 0 1.98 0 3 0 C3 1.98 3 3.96 3 6 C2.01 6 1.02 6 0 6 C0 4.02 0 2.04 0 0 Z " fill="#9BD4EE" transform="translate(578,1202)"/>
<path d="M0 0 C1.98 0 3.96 0 6 0 C6 0.99 6 1.98 6 3 C4.02 3 2.04 3 0 3 C0 2.01 0 1.02 0 0 Z " fill="#88CBED" transform="translate(1122,945)"/>
<path d="M0 0 C1.98 0 3.96 0 6 0 C6 0.99 6 1.98 6 3 C4.02 3 2.04 3 0 3 C0 2.01 0 1.02 0 0 Z " fill="#7CC5E8" transform="translate(864,934)"/>
<path d="M0 0 C2.31 0.33 4.62 0.66 7 1 C6.67 1.99 6.34 2.98 6 4 C3.03 3.505 3.03 3.505 0 3 C0 2.01 0 1.02 0 0 Z " fill="#64B9E6" transform="translate(655,914)"/>
<path d="M0 0 C0.99 0 1.98 0 3 0 C3 1.98 3 3.96 3 6 C2.01 6 1.02 6 0 6 C0 4.02 0 2.04 0 0 Z " fill="#84CBED" transform="translate(1207,881)"/>
<path d="M0 0 C0 0.99 0 1.98 0 3 C-2.31 3 -4.62 3 -7 3 C-7 2.34 -7 1.68 -7 1 C-4 0 -4 0 0 0 Z " fill="#94CFEC" transform="translate(675,860)"/>
<path d="M0 0 C0.33 0.66 0.66 1.32 1 2 C1.99 2 2.98 2 4 2 C4 3.32 4 4.64 4 6 C3.01 6.33 2.02 6.66 1 7 C0.67 4.69 0.34 2.38 0 0 Z " fill="#80C8EB" transform="translate(1217,844)"/>
<path d="M0 0 C0.99 0 1.98 0 3 0 C3 1.98 3 3.96 3 6 C2.01 6 1.02 6 0 6 C0 4.02 0 2.04 0 0 Z " fill="#A7D7F1" transform="translate(1194,845)"/>
<path d="M0 0 C1.98 0 3.96 0 6 0 C6 0.99 6 1.98 6 3 C4.02 3 2.04 3 0 3 C0 2.01 0 1.02 0 0 Z " fill="#B6DDF3" transform="translate(1114,343)"/>
<path d="M0 0 C1.98 0 3.96 0 6 0 C6 0.99 6 1.98 6 3 C4.02 3 2.04 3 0 3 C0 2.01 0 1.02 0 0 Z " fill="#B3DDF3" transform="translate(452,343)"/>
<path d="M0 0 C2.97 0.495 2.97 0.495 6 1 C6 1.66 6 2.32 6 3 C4.35 3.33 2.7 3.66 1 4 C0.67 2.68 0.34 1.36 0 0 Z " fill="#73C0E7" transform="translate(269,335)"/>
<path d="M0 0 C1.32 0 2.64 0 4 0 C4.33 1.32 4.66 2.64 5 4 C3.35 4 1.7 4 0 4 C0 2.68 0 1.36 0 0 Z " fill="#9CCEED" transform="translate(365,325)"/>
<path d="M0 0 C1.98 0 3.96 0 6 0 C6 0.99 6 1.98 6 3 C4.02 3 2.04 3 0 3 C0 2.01 0 1.02 0 0 Z " fill="#4EB2E4" transform="translate(385,321)"/>
<path d="M0 0 C1.32 0 2.64 0 4 0 C3.67 1.65 3.34 3.3 3 5 C2.01 4.67 1.02 4.34 0 4 C0 2.68 0 1.36 0 0 Z " fill="#8CCAEC" transform="translate(585,308)"/>
<path d="M0 0 C1.65 0 3.3 0 5 0 C5.33 0.66 5.66 1.32 6 2 C3.69 2.33 1.38 2.66 -1 3 C-0.67 2.01 -0.34 1.02 0 0 Z " fill="#5AB2E3" transform="translate(263,1191)"/>
<path d="M0 0 C1.65 0 3.3 0 5 0 C5.33 0.99 5.66 1.98 6 3 C2.25 4.125 2.25 4.125 0 3 C0 2.01 0 1.02 0 0 Z " fill="#6DC1E8" transform="translate(935,887)"/>
<path d="M0 0 C2.64 0.33 5.28 0.66 8 1 C8 1.33 8 1.66 8 2 C6.02 2 4.04 2 2 2 C2 3.32 2 4.64 2 6 C0.68 5.67 -0.64 5.34 -2 5 C-1.01 5 -0.02 5 1 5 C0.67 3.35 0.34 1.7 0 0 Z " fill="#80C9EA" transform="translate(1202,778)"/>
<path d="M0 0 C1.98 0 3.96 0 6 0 C6 0.66 6 1.32 6 2 C5.01 2 4.02 2 3 2 C3 2.66 3 3.32 3 4 C2.01 3.67 1.02 3.34 0 3 C0 2.01 0 1.02 0 0 Z " fill="#61B9E6" transform="translate(253,458)"/>
<path d="M0 0 C1.32 0 2.64 0 4 0 C3.67 1.65 3.34 3.3 3 5 C2.01 4.67 1.02 4.34 0 4 C0 2.68 0 1.36 0 0 Z " fill="#5FB8E6" transform="translate(503,285)"/>
</svg>
