<?xml version="1.0" encoding="UTF-8"?>
<svg version="1.1" xmlns="http://www.w3.org/2000/svg" width="3840" height="2160">
<path d="M0 0 C1.36193576 -0.0034615 2.72386872 -0.00822937 4.08579588 -0.01418173 C7.80995416 -0.02665761 11.53388057 -0.02053661 15.25803947 -0.01122308 C19.28310558 -0.00441729 23.30813264 -0.01492244 27.33319092 -0.02316284 C35.21782851 -0.03649479 43.10238034 -0.03362229 50.98702127 -0.02492492 C57.41053901 -0.01813515 63.8340328 -0.01723728 70.2575531 -0.02049637 C71.17377649 -0.02095607 72.08999988 -0.02141577 73.03398761 -0.0218894 C74.89590268 -0.02284867 76.75781774 -0.02382132 78.6197328 -0.02480717 C96.08365884 -0.03336248 113.54753766 -0.02353073 131.01145595 -0.00740607 C145.92916994 0.00594341 160.84681371 0.00371385 175.76452637 -0.01016235 C193.13101082 -0.02630909 210.49745361 -0.03248205 227.86394453 -0.02332556 C229.7261451 -0.02237008 231.58834568 -0.02142696 233.45054626 -0.02049637 C234.3664607 -0.02003354 235.28237514 -0.01957072 236.22604457 -0.01909386 C242.61417208 -0.01652702 249.00227276 -0.02082569 255.39039612 -0.02793503 C263.21717153 -0.03645427 271.04385702 -0.03385813 278.87062246 -0.0180928 C282.84839671 -0.01033893 286.82602254 -0.00688938 290.80379486 -0.01704025 C317.90925312 -0.08043727 344.89936152 1.37989299 371.64733887 6.06845093 C372.37591095 6.19278503 373.10448303 6.31711914 373.85513306 6.44522095 C396.70618073 10.37241455 419.12052842 16.20195731 440.45983887 25.38095093 C441.65842529 25.89262817 441.65842529 25.89262817 442.88122559 26.41464233 C460.69011249 34.13434356 477.27029343 44.07266439 491.45983887 57.38095093 C492.35630127 58.21384644 492.35630127 58.21384644 493.27087402 59.06356812 C517.88624985 82.15118047 535.0733283 111.38287307 542.64733887 144.31845093 C542.80234863 144.98481567 542.9573584 145.65118042 543.11706543 146.33773804 C546.08723708 160.05779564 546.83076952 173.71058643 546.77233887 187.69345093 C546.7718454 188.510354 546.77135193 189.32725708 546.77084351 190.16891479 C546.70151971 227.89758925 546.70151971 227.89758925 542.45983887 236.38095093 C543.12628418 236.61684937 543.79272949 236.8527478 544.47937012 237.09579468 C554.35624189 241.3546293 563.57886212 247.91130849 571.30749512 255.31845093 C573.26484956 257.19410092 575.28742792 258.87033346 577.39733887 260.56845093 C605.72397481 285.41837703 617.38687388 326.09879661 620.20983887 362.25595093 C620.31739145 364.62997744 620.4003813 367.0052333 620.45983887 369.38095093 C620.4997998 370.69966187 620.53976074 372.0183728 620.58093262 373.37704468 C622.04087828 445.46186196 599.21535001 527.17176654 551.45983887 582.38095093 C550.80112793 583.15052124 550.14241699 583.92009155 549.46374512 584.71298218 C537.35298364 598.51787664 524.40100622 610.70972947 509.45983887 621.38095093 C508.87508789 621.81036987 508.29033691 622.23978882 507.68786621 622.68222046 C489.27455387 636.16539643 468.00447758 646.07871865 446.45983887 653.38095093 C445.69365234 653.64810913 444.92746582 653.91526733 444.13806152 654.19052124 C425.82163128 660.54272347 406.86414026 664.75116645 387.70983887 667.63095093 C386.70759277 667.78193237 385.70534668 667.93291382 384.67272949 668.08847046 C363.29970939 671.10148203 342.06136646 671.72805209 320.50427246 671.91268921 C316.90079006 671.94655384 313.29756334 671.99155947 309.69421387 672.03720093 C308.61178406 672.04247803 307.52935425 672.04775513 306.41412354 672.05319214 C294.27519056 672.21138044 282.89192453 674.08424244 273.64733887 682.56845093 C267.47840561 689.40351313 265.20130023 696.72135388 263.50036621 705.59596252 C263.32807684 706.47772193 263.15578747 707.35948134 262.97827721 708.26796073 C261.28376238 717.06588339 259.85950911 725.89863925 258.49890137 734.75326538 C258.2293359 736.48561113 257.95936441 738.21789374 257.68902588 739.95011902 C257.11488526 743.63369931 256.54327898 747.31766 255.97369385 751.0019474 C255.0703597 756.8431756 254.15949122 762.68321451 253.24743652 768.52308655 C250.65756997 785.11339326 248.07801784 801.70529665 245.50476074 818.29818726 C244.07795052 827.49811471 242.64525897 836.69710794 241.20643425 845.89516419 C240.30103578 851.68547459 239.40283963 857.4768393 238.51022339 863.26913321 C237.95143211 866.88381973 237.38579683 870.49741167 236.81833649 874.11074638 C236.55915922 875.7697925 236.30269434 877.42926531 236.04933929 879.08921051 C230.90101944 912.7797221 230.90101944 912.7797221 218.64733887 922.75595093 C208.84538111 929.18207712 199.77614277 929.96365081 188.30505371 929.89852905 C186.69095735 929.9039582 185.07686595 929.91108529 183.46278381 929.91976929 C179.1054147 929.93790857 174.74842702 929.93097504 170.39105177 929.91825294 C165.81839997 929.9080798 161.2457794 929.91753023 156.67312622 929.92379761 C148.99845554 929.93106002 141.3239392 929.92152178 133.64929199 929.9024353 C124.78887214 929.88065372 115.92882032 929.88773288 107.06840932 929.90974092 C99.44433463 929.92791655 91.82037044 929.93044315 84.19628108 929.91998625 C79.64991069 929.91376519 75.10371311 929.91287769 70.55735397 929.9261322 C66.28406294 929.93772222 62.01124485 929.92960785 57.73800468 929.90655518 C56.1739588 929.90128552 54.60987282 929.90275192 53.04584312 929.91160583 C43.91014724 929.95853876 36.65983923 929.88828715 29.43640137 923.62704468 C23.51783933 915.70711918 22.96623711 907.73195916 24.31848145 898.11141968 C24.79807482 894.92476477 25.32373442 891.74694318 25.85437012 888.56845093 C26.12539327 886.86524116 26.39487284 885.16178512 26.66288757 883.45809937 C27.36800042 879.0047448 28.09525385 874.55528186 28.82696533 870.10623169 C29.42210311 866.46453006 30.00158511 862.82041858 30.580266 859.17607117 C31.77501363 851.65323914 32.97968166 844.13193467 34.2130127 836.61532593 C34.32476837 835.92338638 34.43652405 835.23144684 34.55166626 834.51853943 C35.01785641 831.70054166 35.55436493 829.09737274 36.45983887 826.38095093 C35.52077005 826.38555989 34.58170124 826.39016886 33.6141758 826.39491749 C10.74487577 826.50600732 -12.12438918 826.5881233 -34.99390221 826.64001179 C-46.05352759 826.66577286 -57.11297452 826.70088344 -68.17248535 826.75814819 C-77.81406229 826.80804719 -87.45550996 826.84025718 -97.09721243 826.8513934 C-102.20057469 826.85790112 -107.30356722 826.87315258 -112.40681076 826.90960121 C-117.21508379 826.94366326 -122.02283649 826.95398329 -126.83121872 826.94648933 C-128.59118482 826.94785932 -130.3511692 826.95773084 -132.11103058 826.9769783 C-150.0857373 827.16384176 -150.0857373 827.16384176 -157.54016113 821.38095093 C-159.86738653 818.86470775 -161.80237061 816.33402063 -163.54016113 813.38095093 C-163.88737685 812.83271384 -164.23459257 812.28447676 -164.59232998 811.71962643 C-165.90022685 808.49252594 -165.88620522 805.42632277 -165.86170959 801.99729919 C-165.85756501 801.2529443 -165.85342042 800.5085894 -165.84915024 799.7416783 C-165.65294448 789.8825733 -163.97622031 780.23219382 -162.39538574 770.51937866 C-162.05272668 768.35233961 -161.71123336 766.18511597 -161.37079525 764.0177269 C-160.43939981 758.10931689 -159.49184333 752.20359913 -158.54154539 746.29820418 C-157.52031474 739.93314625 -156.51453975 733.56564496 -155.50698853 727.19841003 C-153.76305616 716.18767581 -152.00910452 705.17856764 -150.24917603 694.17037964 C-147.56225232 677.36300236 -144.89254091 660.55291756 -142.22647069 643.74222139 C-141.15635146 636.99502954 -140.08576442 630.2479119 -139.0151825 623.50079346 C-138.89665006 622.75372798 -138.77811762 622.0066625 -138.65599329 621.23695867 C-136.83720261 609.77416952 -135.01560216 598.3118291 -133.19245911 586.84973145 C-126.86888327 547.09100168 -120.57903097 507.32712518 -114.32922363 467.55673218 C-114.12569118 466.26162122 -113.92215872 464.96651026 -113.71245861 463.63215351 C-111.47688234 449.4061501 -109.24259561 435.17994436 -107.00891113 420.9536438 C-104.60593256 405.64931799 -102.20034967 390.34540214 -99.79406738 375.04159546 C-99.49742573 373.15494895 -99.49742573 373.15494895 -99.19479132 371.23018837 C-98.39755922 366.15980712 -97.60031546 361.0894277 -96.8030479 356.01905203 C-95.41930756 347.21887148 -94.03573982 338.4186638 -92.65228271 329.61843872 C-85.05939459 281.31990042 -77.46478589 233.02163286 -69.86523724 184.72414207 C-67.82719511 171.77166576 -65.78964403 158.81911245 -63.75286174 145.86643797 C-62.38040113 137.13875109 -61.0072866 128.41116724 -59.63366914 119.68366235 C-58.85022506 114.70581287 -58.06703549 109.72792377 -57.28463364 104.74991035 C-56.99253298 102.89169754 -56.70042018 101.03348662 -56.40829468 99.17527771 C-56.266586 98.2737937 -56.12487732 97.37230968 -55.97887444 96.44350797 C-54.89903274 89.57866856 -53.80999864 82.71531004 -52.71874881 75.85227603 C-51.90830495 70.74261386 -51.11614363 65.63043751 -50.33579463 60.5160957 C-49.81415409 57.10903521 -49.28313697 53.703474 -48.75045884 50.29812372 C-48.50427898 48.70989721 -48.2622063 47.12102732 -48.02472675 45.53147662 C-46.3755228 34.50674197 -44.34172004 24.52054571 -37.54016113 15.38095093 C-36.94590332 14.57528687 -36.35164551 13.7696228 -35.73937988 12.93954468 C-33.45199725 10.27838016 -31.31077224 8.62557959 -28.35266113 6.75595093 C-27.47223145 6.1861853 -26.59180176 5.61641968 -25.68469238 5.02938843 C-17.15201144 0.55635568 -9.56468167 -0.0511719 0 0 Z " fill="#0D3883" transform="translate(187.5401611328125,614.6190490722656)"/>
<path d="M0 0 C1.37440768 -0.00339833 1.37440768 -0.00339833 2.77658117 -0.00686532 C5.84890016 -0.01319813 8.92117495 -0.01237636 11.99349976 -0.0115509 C14.19670672 -0.01454324 16.39991315 -0.01794595 18.6031189 -0.02172852 C24.59618291 -0.030575 30.58923265 -0.03290718 36.58230257 -0.0335443 C40.33660181 -0.03425558 44.09089743 -0.03639161 47.84519577 -0.03904152 C60.29584002 -0.0478258 72.74647734 -0.05246094 85.19712432 -0.05171105 C86.20379598 -0.05165111 86.20379598 -0.05165111 87.23080444 -0.05158997 C87.90275472 -0.05154909 88.574705 -0.0515082 89.26701741 -0.05146609 C100.09930574 -0.05106171 110.93155896 -0.06057642 121.76383717 -0.07472833 C132.92525982 -0.08919293 144.0866681 -0.09581089 155.24810064 -0.09513456 C161.4981152 -0.09488155 167.74809022 -0.09762097 173.99809647 -0.10831261 C237.429435 -0.20910515 305.31555154 1.46004347 353.9246521 48.13371277 C366.34265022 61.08013634 374.885077 76.34638197 380.9246521 93.13371277 C381.52406616 94.79853699 381.52406616 94.79853699 382.1355896 96.49699402 C400.8208509 152.90400463 385.60847412 224.77441769 359.9871521 276.38371277 C358.65694693 278.98002463 357.29270857 281.55720642 355.9246521 284.13371277 C355.58885132 284.7825946 355.25305054 285.43147644 354.90707397 286.10002136 C346.54607379 302.2072423 335.48546926 316.09925997 322.9246521 329.13371277 C321.78189819 330.37121277 321.78189819 330.37121277 320.61605835 331.63371277 C309.76766751 343.04922016 296.59849555 352.40224054 282.9246521 360.13371277 C282.30719116 360.48884949 281.68973022 360.84398621 281.05355835 361.20988464 C239.56272983 384.91306094 191.21962861 391.23789275 144.1590271 391.50480652 C143.16675991 391.5104405 142.17449272 391.51607449 141.15215683 391.5218792 C132.94170891 391.56235286 124.73126045 391.57258275 116.52072144 391.57035828 C110.33427871 391.56868672 104.14829348 391.58246536 97.96195221 391.61883736 C95.10860474 391.62952712 92.25594226 391.61763647 89.40261841 391.60501099 C74.78628352 391.26396917 74.78628352 391.26396917 62.2727356 397.76846313 C61.82786804 398.21899551 61.38300049 398.66952789 60.9246521 399.13371277 C60.2646521 399.13371277 59.6046521 399.13371277 58.9246521 399.13371277 C58.63461304 399.72668152 58.34457397 400.31965027 58.04574585 400.93058777 C57.10055414 402.78803768 56.05435008 404.59357422 54.9871521 406.38371277 C48.15106423 420.33019765 48.0005828 439.01740662 45.62484741 454.26197433 C44.91310714 458.82841305 44.19664592 463.39410376 43.4793396 467.95967102 C41.44225393 480.92920877 39.40913752 493.89936013 37.3855896 506.87101746 C36.26343719 514.06415165 35.13627945 521.25648319 34.00363159 528.44797242 C33.29058563 532.97704051 32.58356809 537.50699359 31.88111877 542.03771663 C31.4418563 544.86103154 30.99670116 547.68339443 30.54992676 550.5055294 C30.24884262 552.41832911 29.95464944 554.33220961 29.66073608 556.24612427 C26.51536591 575.98237988 26.51536591 575.98237988 19.9246521 582.13371277 C13.64328286 586.46466094 7.72541431 586.70300125 0.27963257 586.63542175 C-0.86281921 586.64082474 -2.005271 586.64622772 -3.18234253 586.65179443 C-6.94121572 586.66425472 -10.6993191 586.64780958 -14.4581604 586.62980652 C-17.0779423 586.62996155 -19.69772444 586.63145115 -22.31750488 586.63421631 C-27.79986487 586.63691171 -33.28200507 586.62349831 -38.76431274 586.6002655 C-45.09240497 586.57363322 -51.42013055 586.57191949 -57.74825966 586.58365387 C-63.85226541 586.59444997 -69.95611799 586.58812957 -76.06011581 586.57409859 C-78.65086355 586.56958439 -81.24162205 586.569247 -83.83237076 586.57316399 C-87.45151108 586.57607507 -91.07005276 586.55957384 -94.68911743 586.5377655 C-95.75836456 586.54226715 -96.82761169 586.5467688 -97.92926025 586.55140686 C-104.3310708 586.48733012 -109.07357221 585.9592836 -113.93862915 581.37980652 C-114.41687134 580.78297058 -114.89511353 580.18613464 -115.3878479 579.57121277 C-115.87898071 578.97179871 -116.37011353 578.37238464 -116.87612915 577.75480652 C-121.75775574 571.15586504 -119.01996415 560.71532018 -117.88169861 553.08474731 C-117.3288581 549.48242451 -116.75243083 545.88413723 -116.17422485 542.28581238 C-115.85832226 540.27638529 -115.54323382 538.26683007 -115.22888565 536.25715923 C-114.36654749 530.75930345 -113.49278777 525.26331588 -112.61712384 519.76756907 C-111.67481874 513.84041732 -110.74326806 507.91157468 -109.81044006 501.98292542 C-108.19491546 491.72467905 -106.57281956 481.46748609 -104.94607544 471.21101379 C-103.23709911 460.43579183 -101.53200905 449.65996631 -99.83206177 438.88331604 C-99.72604676 438.21124877 -99.62003175 437.5391815 -99.51080416 436.84674855 C-98.97253275 433.4342751 -98.43434496 430.02178846 -97.89620185 426.60929477 C-96.80416321 419.68450835 -95.71163558 412.75979908 -94.61895752 405.83511353 C-94.50975684 405.14306026 -94.40055616 404.451007 -94.28804637 403.73798243 C-92.60828342 393.09310049 -90.92630074 382.44857064 -89.24291992 371.80426025 C-89.13051623 371.09350434 -89.01811253 370.38274843 -88.90230267 369.65045445 C-88.44751941 366.77477797 -87.99272586 363.89910312 -87.53792583 361.02342929 C-82.10933251 326.69858609 -76.6999342 292.37074767 -71.30066466 258.04128051 C-70.66699174 254.01229188 -70.03324767 249.98331444 -69.39948463 245.95433998 C-69.29549687 245.29326466 -69.1915091 244.63218934 -69.08437019 243.95108144 C-68.8748582 242.61916407 -68.66534604 241.28724672 -68.4558337 239.95532941 C-67.11475024 231.42972791 -65.77371408 222.90411897 -64.43274784 214.37849903 C-61.87380591 198.10949626 -59.31401594 181.84062724 -56.75278056 165.57198536 C-56.19028151 161.99891422 -55.62789427 158.4258255 -55.06550884 154.85273647 C-53.2903194 143.57587523 -51.51251577 132.29943618 -49.72895813 121.02389526 C-49.06493431 116.82436578 -48.40112569 112.62480234 -47.73745728 108.42521667 C-47.57794606 107.41612657 -47.41843484 106.40703646 -47.25408995 105.36736786 C-45.24853665 92.67267465 -43.27807709 79.97328963 -41.35098791 67.26645482 C-40.66647602 62.76365379 -39.97381099 58.26209957 -39.28067708 53.76061863 C-38.57566639 49.17363757 -37.8937087 44.58360179 -37.21640015 39.99243164 C-36.86600873 37.7127945 -36.51469761 35.43329844 -36.16226196 33.15397644 C-36.02260262 32.16566267 -35.88294327 31.1773489 -35.73905182 30.15908623 C-34.15065269 20.16171959 -30.20921049 11.43955263 -22.0753479 5.13371277 C-14.87202391 0.63335035 -8.33165183 -0.01510547 0 0 Z M99.390625 123.83093262 C95.88325187 128.89036685 94.79264795 134.02103385 93.9246521 140.02824402 C93.76709946 141.01303238 93.60954681 141.99782074 93.44721985 143.01245117 C92.92232456 146.32123463 92.42352717 149.63341416 91.9246521 152.94621277 C91.55589994 155.30697901 91.18548847 157.66748655 90.81356812 160.02775574 C89.98032256 165.33554096 89.15854406 170.64495184 88.34310913 175.95549011 C86.89450891 185.37823511 85.39999262 194.79358667 83.90449142 204.20898247 C82.70224354 211.78258465 81.50559477 219.3570746 80.30892944 226.93156052 C80.01062286 228.81920798 79.71211966 230.70682438 79.41342163 232.59440994 C78.55393693 238.02650805 77.69825136 243.45917638 76.84854317 248.89281273 C76.58644978 250.56496233 76.32302896 252.23690447 76.05821037 253.90862465 C75.69360858 256.211786 75.33379604 258.51564666 74.97518921 260.81974792 C74.77139145 262.11723969 74.56759369 263.41473145 74.35762024 264.75154114 C73.99264838 267.60255339 73.83251064 270.26685652 73.9246521 273.13371277 C81.49807573 273.18073148 89.07148365 273.2159256 96.64502144 273.23733711 C100.16439207 273.24763042 103.68366056 273.26151286 107.20297241 273.28459167 C137.8125888 273.71867037 137.8125888 273.71867037 167.9246521 268.88371277 C169.21423828 268.55838562 169.21423828 268.55838562 170.52987671 268.22648621 C189.60798511 263.20752832 205.84740265 253.22749325 216.2293396 236.14152527 C223.83329836 222.65063069 227.53363728 209.03583927 229.6746521 193.82121277 C229.80251099 192.91443787 229.93036987 192.00766296 230.06210327 191.07341003 C232.41027253 172.94739415 230.69409668 154.56045934 219.2527771 139.70793152 C203.13359155 121.88487233 178.47198577 119.5050937 155.9246521 118.13371277 C148.8257962 117.82999201 141.72849336 117.7619702 134.62387085 117.7631073 C131.50225619 117.75864502 128.38196448 117.72187285 125.2605896 117.68449402 C123.24496932 117.67863867 121.2293425 117.67466072 119.2137146 117.67277527 C118.29595245 117.65840424 117.37819031 117.6440332 116.43261719 117.62922668 C109.71892658 117.67674554 104.0628615 118.66165463 99.390625 123.83093262 Z " fill="#019CDA" transform="translate(2733.0753479003906,821.8662872314453)"/>
<path d="M0 0 C0.91697735 -0.00226556 1.8339547 -0.00453111 2.77871925 -0.00686532 C5.85337221 -0.01319811 8.927981 -0.01237636 12.00263977 -0.0115509 C14.20746925 -0.01454322 16.4122982 -0.01794592 18.61712646 -0.02172852 C24.61425544 -0.03057469 30.61137014 -0.03290716 36.60850501 -0.0335443 C40.36480657 -0.03425554 44.12110451 -0.03639147 47.87740517 -0.03904152 C60.33311556 -0.04782536 72.78881786 -0.05246095 85.2445307 -0.05171105 C86.25159645 -0.05165111 86.25159645 -0.05165111 87.27900696 -0.05158997 C87.95121955 -0.05154909 88.62343214 -0.0515082 89.3160148 -0.05146609 C100.15544521 -0.0510616 110.99484055 -0.06057913 121.83426084 -0.07472833 C133.00132872 -0.08918805 144.16838224 -0.0958111 155.33546001 -0.09513456 C161.58935507 -0.09488144 167.84321063 -0.0976269 174.0970974 -0.10831261 C180.00110968 -0.11812326 185.9050458 -0.11798574 191.80906105 -0.11079597 C193.95413451 -0.10976535 196.09921303 -0.11202005 198.24427795 -0.11815643 C253.14320321 -0.26478285 312.20552018 7.93738269 352.91792297 48.13371277 C369.82551292 65.01376592 379.70460062 86.01774973 384.91792297 109.13371277 C385.07631653 109.83367371 385.23471008 110.53363464 385.39790344 111.25480652 C398.32993076 171.05673263 380.94109508 245.60387839 348.41743469 296.84220886 C317.97482215 343.36359625 272.20777821 372.77990916 217.96528625 384.50920105 C212.79859001 385.5680385 207.62043788 386.51833664 202.41792297 387.38371277 C201.51952698 387.53493591 200.62113098 387.68615906 199.69551086 387.84196472 C196.44216915 388.34276161 193.18714686 388.74892312 189.91792297 389.13371277 C189.21262451 389.2205835 188.50732605 389.30745422 187.78065491 389.3969574 C173.13777226 391.12614299 158.52532112 391.32612911 143.80073547 391.40715027 C142.80594429 391.41293091 141.81115311 391.41871155 140.78621674 391.42466736 C131.41105719 391.47610146 122.03589605 391.50722389 112.66059875 391.51457214 C107.48453683 391.51960016 102.30885001 391.54387923 97.1329155 391.57989883 C95.18186066 391.58963137 93.23075396 391.59206495 91.27968216 391.58672714 C73.47661703 391.50261377 73.47661703 391.50261377 58.43356323 400.3291626 C52.7916083 407.04658164 50.96407734 415.07901313 49.73432922 423.54386902 C49.46901146 425.22539314 49.46901146 425.22539314 49.19833374 426.94088745 C48.81352015 429.39515085 48.43652224 431.85064954 48.06642151 434.30717468 C47.46817132 438.27752208 46.84973206 442.24445877 46.22602844 446.21086121 C44.90522531 454.636317 43.61301577 463.06607567 42.32205963 471.49614716 C40.20989815 485.28100031 38.085457 499.06392813 35.94280338 512.8440752 C35.01179101 518.83780221 34.0932787 524.83327624 33.18433666 530.83038807 C32.60834952 534.61514431 32.02244329 538.39831998 31.4341259 542.18117714 C31.16156117 543.9474233 30.89311316 545.71431056 30.6291523 547.48186302 C26.83343718 572.85782335 26.83343718 572.85782335 17.87495422 579.69230652 C9.96455875 585.21765813 3.60025699 586.43386511 -5.91752625 586.44010925 C-6.99795197 586.44843277 -8.07837769 586.45675629 -9.19154358 586.46533203 C-12.75665407 586.48939156 -16.3215815 586.49819881 -19.88676453 586.50480652 C-22.37009231 586.51377506 -24.85341954 586.52289694 -27.33674622 586.53216553 C-32.54011853 586.54864648 -37.74342657 586.55635419 -42.94682312 586.55924988 C-49.60717836 586.56463638 -56.2667256 586.60233161 -62.92693901 586.64799404 C-68.05541684 586.67776491 -73.18374872 586.68497344 -78.31230545 586.68597603 C-80.76746015 586.69017727 -83.22261533 586.70260758 -85.67768478 586.72349358 C-89.11485393 586.75041014 -92.5506173 586.74558065 -95.98783875 586.733078 C-97.5014801 586.75532944 -97.5014801 586.75532944 -99.04570007 586.7780304 C-105.5820241 586.71047716 -110.07072148 585.45467343 -115.08207703 581.13371277 C-121.01421925 573.52840223 -120.11749395 567.29607749 -119.08207703 558.13371277 C-118.08919152 550.53978294 -116.84749839 542.98143777 -115.6401825 535.4193573 C-115.27838765 533.12519186 -114.91711601 530.83094386 -114.55632019 528.53662109 C-113.5690086 522.26782488 -112.5744152 516.00020287 -111.57862616 509.73274851 C-110.61709365 503.67702337 -109.66239951 497.62021827 -108.70702721 491.56351887 C-106.75991202 479.2206389 -104.80753368 466.87859714 -102.85209656 454.53703308 C-100.06783967 436.96409755 -97.29067804 419.39004551 -94.51528448 401.81570822 C-93.53107696 395.58361168 -92.54673606 389.3515362 -91.56239209 383.11946121 C-91.31452653 381.55017048 -91.06666453 379.98087918 -90.81880608 378.41158733 C-89.06201138 367.28870323 -87.30422132 356.16597682 -85.54572037 345.04336235 C-78.78968798 302.31051392 -72.05558639 259.57426647 -65.34287119 216.83459234 C-64.65631229 212.46330073 -63.96965044 208.0920253 -63.28297043 203.72075272 C-59.46791712 179.43461022 -55.65379671 155.14832127 -51.84198697 130.86166947 C-51.73734401 130.19494534 -51.63270105 129.52822122 -51.52488708 128.84129333 C-51.36853073 127.845079 -51.36853073 127.845079 -51.20901565 126.82873912 C-49.49955506 115.93723298 -47.78886107 105.04592096 -46.07710707 94.15477502 C-44.97891825 87.16710073 -43.88207647 80.17921701 -42.78637993 73.1911515 C-42.12049334 68.94649947 -41.45326075 64.70205984 -40.78564477 60.45767951 C-40.48263417 58.52957907 -40.18015902 56.60139439 -39.87830138 54.67311311 C-39.08579145 49.61150571 -38.28458919 44.55148974 -37.46425247 39.49431229 C-37.20593447 37.89874839 -36.95007563 36.30278471 -36.69648361 34.70646286 C-36.32399989 32.37486073 -35.93947842 30.04555411 -35.55155945 27.71647644 C-35.39014827 26.68876995 -35.39014827 26.68876995 -35.22547626 25.6403017 C-33.77680222 17.15013481 -29.62978245 10.59193621 -22.87504578 5.31340027 C-15.65575893 0.56345555 -8.39056394 -0.01520014 0 0 Z M96.9974699 126.48261166 C95.27985999 129.10959115 94.87469499 131.59600452 94.39717102 134.67912292 C94.28685138 135.35355753 94.17653173 136.02799213 94.06286907 136.72286415 C93.80941493 138.28980896 93.56535699 139.85829063 93.32862473 141.42784882 C92.87126541 144.44111107 92.38358068 147.44863139 91.89292908 150.45664978 C90.76392795 157.41254835 89.66696776 164.37333707 88.57515931 171.33514738 C88.02416044 174.84576669 87.47070077 178.35599819 86.91760254 181.86628723 C85.99233728 187.74098165 85.06891813 193.61596387 84.14668274 199.49113464 C83.08049322 206.28325327 82.01152005 213.07492936 80.94106084 219.86637628 C79.90750777 226.42397654 78.8756926 232.98184903 77.84474754 239.53985977 C77.40708261 242.32379602 76.96884211 245.10764076 76.53014565 247.89141464 C75.92037709 251.7614489 75.31316993 255.63188256 74.70625305 259.50236511 C74.4328006 261.2351899 74.4328006 261.2351899 74.15382385 263.00302124 C73.90790245 264.57535774 73.90790245 264.57535774 73.65701294 266.17945862 C73.51342252 267.09337561 73.3698321 268.00729259 73.22189045 268.94890404 C72.87198949 271.09622402 72.87198949 271.09622402 72.91792297 273.13371277 C80.4913466 273.18073148 88.06475452 273.2159256 95.63829231 273.23733711 C99.15766295 273.24763042 102.67693143 273.26151286 106.19624329 273.28459167 C159.14395206 273.97315968 159.14395206 273.97315968 204.98823547 250.18449402 C218.08238722 236.26864449 223.8852311 220.40997232 227.91792297 202.13371277 C228.16542297 201.03672058 228.41292297 199.93972839 228.66792297 198.80949402 C232.1602936 180.25627509 231.43038125 160.06974346 221.59761047 143.55949402 C211.61196298 129.13836125 195.91591303 123.82752045 179.46870422 120.41886902 C164.65711555 117.92294325 149.55128086 117.89698787 134.57246399 117.83854675 C132.49850196 117.82692012 130.42457221 117.80630451 128.3507843 117.77702332 C125.31176499 117.73432773 122.27361111 117.7181905 119.23432922 117.70793152 C118.31648148 117.69042343 117.39863373 117.67291534 116.45297241 117.65487671 C108.04105563 117.68310087 102.35627256 119.77003241 96.9974699 126.48261166 Z " fill="#0E3984" transform="translate(1236.0820770263672,821.8662872314453)"/>
<path d="M0 0 C5.51877719 1.4908545 9.75270952 4.15423125 14.4375 7.3125 C15.22519775 7.84302979 16.01289551 8.37355957 16.82446289 8.92016602 C49.56314316 31.40391191 69.31818803 64.48001096 76.78515625 103.33447266 C90.04853915 178.93279462 67.5396722 267.89338996 23.98901367 330.4921875 C19.92407291 336.21962865 15.59533368 341.68742731 11 347 C10.34128906 347.76957031 9.68257812 348.53914063 9.00390625 349.33203125 C-3.10685523 363.13692571 -16.05883264 375.32877854 -31 386 C-31.58475098 386.42941895 -32.16950195 386.85883789 -32.77197266 387.30126953 C-51.18528499 400.7844455 -72.45536129 410.69776773 -94 418 C-94.76618652 418.2671582 -95.53237305 418.53431641 -96.32177734 418.80957031 C-114.63820758 425.16177255 -133.59569861 429.37021552 -152.75 432.25 C-153.75224609 432.40098145 -154.75449219 432.55196289 -155.78710938 432.70751953 C-177.16012947 435.72053111 -198.39847241 436.34710116 -219.95556641 436.53173828 C-223.55904881 436.56560291 -227.16227553 436.61060854 -230.765625 436.65625 C-232.38926971 436.66416565 -232.38926971 436.66416565 -234.04571533 436.67224121 C-246.18464831 436.83042951 -257.56791434 438.70329151 -266.8125 447.1875 C-272.98143326 454.0225622 -275.25853863 461.34040295 -276.95947266 470.2150116 C-277.13176203 471.096771 -277.3040514 471.97853041 -277.48156166 472.8870098 C-279.17607649 481.68493246 -280.60032976 490.51768832 -281.9609375 499.37231445 C-282.23050297 501.1046602 -282.50047446 502.83694281 -282.77081299 504.56916809 C-283.34495361 508.25274838 -283.91655988 511.93670907 -284.48614502 515.62099648 C-285.38947917 521.46222468 -286.30034765 527.30226358 -287.21240234 533.14213562 C-289.80226889 549.73244233 -292.38182102 566.32434573 -294.95507812 582.91723633 C-296.38188835 592.11716378 -297.8145799 601.31615701 -299.25340462 610.51421326 C-300.15880309 616.30452367 -301.05699924 622.09588837 -301.94961548 627.88818228 C-302.50840676 631.5028688 -303.07404203 635.11646074 -303.64150238 638.72979546 C-303.90067965 640.38884157 -304.15714453 642.04831438 -304.41049957 643.70825958 C-309.55881943 677.39877117 -309.55881943 677.39877117 -321.8125 687.375 C-331.61445776 693.8011262 -340.6836961 694.58269988 -352.15478516 694.51757812 C-353.76888152 694.52300727 -355.38297292 694.53013436 -356.99705505 694.53881836 C-361.35442417 694.55695765 -365.71141184 694.55002411 -370.0687871 694.53730202 C-374.6414389 694.52712887 -379.21405947 694.5365793 -383.78671265 694.54284668 C-391.46138333 694.5501091 -399.13589966 694.54057085 -406.81054688 694.52148438 C-415.67096673 694.49970279 -424.53101855 694.50678195 -433.39142954 694.52879 C-441.01550424 694.54696562 -448.63946842 694.54949223 -456.26355779 694.53903532 C-460.80992817 694.53281426 -465.35612576 694.53192676 -469.90248489 694.54518127 C-474.17577592 694.55677129 -478.44859402 694.54865692 -482.72183418 694.52560425 C-484.28588006 694.52033459 -485.84996604 694.52180099 -487.41399574 694.53065491 C-496.54969163 694.57758783 -503.79999963 694.50733623 -511.0234375 688.24609375 C-516.90928757 680.36994178 -517.50233646 672.41369013 -516.15722656 662.84155273 C-515.68404181 659.69989147 -515.16474069 656.56709811 -514.640625 653.43359375 C-514.37198088 651.74715627 -514.10489905 650.06046927 -513.83929443 648.37355042 C-513.13946259 643.95740427 -512.41758686 639.54513916 -511.69116211 635.13330078 C-510.95946229 630.66211681 -510.25075368 626.1872941 -509.5390625 621.71289062 C-505.2636245 594.95538519 -505.2636245 594.95538519 -503.39950562 585.94874573 C-502.89993987 583.51191737 -502.48840234 581.06704527 -502.10546875 578.609375 C-501.95730713 577.66900391 -501.80914551 576.72863281 -501.65649414 575.75976562 C-501.50172607 574.76654297 -501.34695801 573.77332031 -501.1875 572.75 C-499.89672082 564.56259686 -498.56828093 556.38312889 -497.1887207 548.21020508 C-495.06851193 535.6484847 -493.07421159 523.07575924 -491.18777466 510.47732544 C-489.49388901 499.16893096 -487.70929405 487.87843748 -485.875 476.59179688 C-484.38592975 467.42005479 -482.93040597 458.2435319 -481.5 449.0625 C-481.39654266 448.39864288 -481.29308533 447.73478577 -481.18649292 447.05081177 C-480.66401181 443.6972038 -480.14212006 440.34350449 -479.62060547 436.98974609 C-478.60375804 430.45110416 -477.58341599 423.91300778 -476.5625 417.375 C-476.41022949 416.39963791 -476.41022949 416.39963791 -476.25488281 415.40457153 C-474.26428259 402.6569985 -472.25309985 389.912697 -470.23510742 377.16943359 C-469.02632684 369.53162439 -467.8248677 361.89286539 -466.6484375 354.25 C-465.63602846 347.67276988 -464.6083528 341.09822608 -463.56152344 334.52636719 C-463.19679777 332.23588999 -462.83528464 329.94489809 -462.47753906 327.65332031 C-462.00244803 324.640706 -461.50526133 321.63268101 -461 318.625 C-460.87028809 317.78195312 -460.74057617 316.93890625 -460.60693359 316.0703125 C-459.30500086 308.6012502 -456.18979141 302.28468712 -452 296 C-451.34 296 -450.68 296 -450 296 C-449.34 294.68 -448.68 293.36 -448 292 C-447.34 292 -446.68 292 -446 292 C-446 291.34 -446 290.68 -446 290 C-444.19921875 288.59765625 -444.19921875 288.59765625 -441.6875 287.0625 C-440.48673828 286.30646484 -440.48673828 286.30646484 -439.26171875 285.53515625 C-430.78026777 281.54328771 -422.46104351 280.56030643 -413.18334961 280.61523438 C-412.05617523 280.6098616 -410.92900085 280.60448883 -409.76766968 280.59895325 C-407.33429099 280.58922126 -404.90087779 280.58621713 -402.46748161 280.58930969 C-398.57992848 280.59383428 -394.69281973 280.57964801 -390.80531311 280.56091309 C-382.51605745 280.52323312 -374.22682797 280.51035072 -365.9375 280.5 C-317.87546604 280.70646964 -317.87546604 280.70646964 -270 277 C-268.95737503 276.87541916 -267.91475006 276.75083832 -266.8405304 276.6224823 C-247.93597234 274.3465528 -229.29729402 270.24940076 -211 265 C-210.00097656 264.71769531 -209.00195312 264.43539063 -207.97265625 264.14453125 C-171.33756162 253.34731546 -137.07946698 236.61238609 -107.42651367 212.43945312 C-104.94499551 210.43079936 -103.05951753 209.01983918 -100 208 C-100 207.34 -100 206.68 -100 206 C-98.42578125 204.44921875 -98.42578125 204.44921875 -96.3125 202.6875 C-93.80197706 200.56355316 -91.39176579 198.44498656 -89.125 196.0625 C-87 194 -87 194 -85 194 C-84.76925781 193.44699219 -84.53851562 192.89398437 -84.30078125 192.32421875 C-82.64376514 189.36348427 -80.54257427 187.2572257 -78.1875 184.8125 C-37.91355223 141.81016531 -15.37640136 82.97649738 -3.65380859 26.16503906 C-3.01936487 23.09374388 -2.36510838 20.02724308 -1.70703125 16.9609375 C-1.3242309 15.14089583 -0.94264338 13.32059848 -0.5625 11.5 C-0.29808105 10.2627417 -0.29808105 10.2627417 -0.02832031 9.00048828 C0.90497723 4.47411462 0.90497723 4.47411462 0 0 Z " fill="#009CDA" transform="translate(728,850)"/>
<path d="M0 0 C0.94652939 -0.00701431 1.89305878 -0.01402863 2.86827087 -0.02125549 C5.90962519 -0.03868379 8.95078507 -0.0451084 11.9921875 -0.046875 C13.54702347 -0.04788712 13.54702347 -0.04788712 15.13327026 -0.04891968 C29.92969864 -0.03357976 44.32280074 0.22507241 58.8671875 3.203125 C60.1670459 3.45255859 60.1670459 3.45255859 61.49316406 3.70703125 C93.01440438 9.87646574 117.19079332 22.89038207 135.8671875 49.203125 C135.99770508 48.3560498 136.12822266 47.50897461 136.26269531 46.63623047 C136.75786453 43.46966232 137.26634078 40.3055919 137.78369141 37.14257812 C138.00415048 35.77786224 138.21941357 34.41229575 138.42919922 33.04589844 C138.73310546 31.07266836 139.05778539 29.10267375 139.3828125 27.1328125 C139.57133789 25.94929199 139.75986328 24.76577148 139.95410156 23.54638672 C141.72957871 17.04548189 145.11193823 13.50933203 150.8671875 10.203125 C153.67713891 9.26647453 155.40406229 9.07167247 158.31217957 9.05595398 C159.22188507 9.04879868 160.13159058 9.04164337 161.06886292 9.03427124 C162.06473923 9.03158234 163.06061554 9.02889343 164.08666992 9.02612305 C165.13739685 9.01955185 166.18812378 9.01298065 167.27069092 9.00621033 C170.75468007 8.98646894 174.23862607 8.97481225 177.72265625 8.96484375 C178.91246912 8.96076822 180.10228199 8.9566927 181.3281498 8.95249367 C187.62672375 8.93162846 193.9252759 8.91732917 200.22387695 8.90795898 C206.72609495 8.89689906 213.22797031 8.86250478 219.73006725 8.82278728 C224.73243338 8.79662612 229.73471786 8.78826751 234.73714638 8.78467751 C237.13368351 8.7798096 239.53021696 8.76818989 241.92668724 8.74963951 C245.28497733 8.72526174 248.64238072 8.7262112 252.00073242 8.7331543 C252.98648758 8.72034424 253.97224274 8.70753418 254.98786926 8.69433594 C261.11720491 8.74040735 265.75428549 9.69894477 270.8671875 13.203125 C275.60435304 18.06495279 277.03988909 22.23828608 276.96934104 28.97228169 C276.79811101 32.71162716 276.22171833 36.36255778 275.62161255 40.05380249 C275.420151 41.33997874 275.420151 41.33997874 275.21461952 42.65213835 C274.7649726 45.51302656 274.30655684 48.37243786 273.84814453 51.23193359 C273.52214469 53.29433974 273.19668938 55.35683201 272.87173462 57.41940308 C271.98351073 63.04712391 271.08765014 68.67360593 270.19050837 74.29991102 C269.23349973 80.31036346 268.28364276 86.32194617 267.33297729 92.33340454 C265.51063158 103.84996655 263.68203676 115.36552725 261.85116756 126.88073695 C259.4464328 142.00714209 257.05057072 157.13495128 254.65443563 172.26272058 C252.47713256 186.00828056 250.29774658 199.75350229 248.11212158 213.4977417 C244.29042229 237.53771871 240.48739118 261.58030783 236.74386547 285.63257544 C236.01320691 290.32641774 235.28090776 295.02000162 234.54747581 299.71341133 C234.39431418 300.69360548 234.39431418 300.69360548 234.23805838 301.69360153 C233.72849584 304.9544096 233.21876222 308.21519086 232.70889509 311.47595131 C231.53239136 319.00460804 230.3642964 326.53450716 229.20251369 334.06544876 C228.48491218 338.7039954 227.75937918 343.34127635 227.03171396 347.97825384 C226.69827245 350.11389717 226.36814044 352.25006043 226.04168081 354.38678217 C221.12210452 386.55697285 221.12210452 386.55697285 211.8671875 394.203125 C206.33645689 397.93076269 201.33288555 400.31095363 194.60565186 400.35029602 C193.76188492 400.35745132 192.91811798 400.36460663 192.04878235 400.37197876 C191.13130722 400.37466766 190.21383209 400.37735657 189.26855469 400.38012695 C188.2957103 400.38669815 187.32286591 400.39326935 186.32054138 400.40003967 C183.10171428 400.41974675 179.88293377 400.43142936 176.6640625 400.44140625 C175.5634272 400.44548178 174.4627919 400.4495573 173.32880402 400.45375633 C167.50354704 400.47460572 161.67831355 400.48891253 155.85302734 400.49829102 C149.84294589 400.50935482 143.83323473 400.54375801 137.82328415 400.58346272 C133.19579387 400.60963198 128.56839181 400.61798314 123.94083405 400.62157249 C121.72571562 400.62643737 119.51060111 400.63804847 117.29555511 400.65661049 C114.19120581 400.68100852 111.08781466 400.68003542 107.98339844 400.6730957 C107.07402023 400.68590576 106.16464203 400.69871582 105.22770691 400.71191406 C98.65163127 400.65850985 93.07565526 399.3372333 88.24850082 394.62195301 C84.29776638 389.99714798 83.58661762 385.13825705 83.8671875 379.203125 C84.46297961 374.27135037 85.30281704 369.38509197 86.17578125 364.49609375 C86.72322453 361.35592651 87.0293968 358.40189246 86.8671875 355.203125 C86.403125 355.71359375 85.9390625 356.2240625 85.4609375 356.75 C56.43220118 387.29516284 9.41925687 407.32902267 -32.40924072 409.31098938 C-34.7601849 409.36621768 -37.1093817 409.3934039 -39.4609375 409.40625 C-40.32387924 409.41330963 -41.18682098 409.42036926 -42.07591248 409.42764282 C-77.9907379 409.65485351 -77.9907379 409.65485351 -93.1328125 406.203125 C-94.5235498 405.89713379 -94.5235498 405.89713379 -95.94238281 405.58496094 C-108.62758191 402.72860834 -120.50255777 399.02436712 -132.1328125 393.203125 C-133.0909082 392.73519531 -133.0909082 392.73519531 -134.06835938 392.2578125 C-158.29646157 380.34949454 -176.63200393 361.71316549 -191.1328125 339.203125 C-191.69597168 338.32914063 -191.69597168 338.32914063 -192.27050781 337.4375 C-217.83523519 297.02493004 -222.32767734 244.43267313 -214.1328125 198.203125 C-213.9771582 197.29336914 -213.82150391 196.38361328 -213.66113281 195.44628906 C-206.53358453 155.14220866 -189.196176 115.82903139 -163.1328125 84.203125 C-162.67970703 83.64850586 -162.22660156 83.09388672 -161.75976562 82.52246094 C-151.0947334 69.53862541 -139.51934414 57.41012956 -126.1328125 47.203125 C-125.57513184 46.77435059 -125.01745117 46.34557617 -124.44287109 45.90380859 C-115.38570143 38.97137273 -106.04553061 32.83559036 -96.1328125 27.203125 C-95.55660156 26.86716309 -94.98039062 26.53120117 -94.38671875 26.18505859 C-66.37435489 9.90009309 -32.44530397 0.16083465 0 0 Z M-48.69140625 142.69921875 C-70.70971452 165.93864637 -79.96774333 197.1926382 -79.375 228.60546875 C-78.77396668 246.33595173 -72.59249111 262.63362183 -61.1328125 276.203125 C-60.52953125 276.91855469 -59.92625 277.63398437 -59.3046875 278.37109375 C-46.18405011 292.62187007 -25.63045963 300.18664027 -6.59667969 301.43505859 C15.11540441 302.30872331 35.02153648 300.57998308 54.8671875 291.203125 C55.81851563 290.75428955 55.81851563 290.75428955 56.7890625 290.29638672 C65.79488914 285.95782973 73.34650216 280.84931205 80.8671875 274.203125 C81.49882812 273.70296875 82.13046875 273.2028125 82.78125 272.6875 C103.64994447 256.10689343 115.10058737 227.87935418 118.8671875 202.203125 C120.39231812 177.30247515 117.84555703 153.95062812 100.9765625 134.43359375 C89.15882982 121.93743568 76.27409668 114.7843959 59.8671875 110.203125 C58.61228516 109.85121094 58.61228516 109.85121094 57.33203125 109.4921875 C18.520879 100.30532813 -21.02436558 115.70801419 -48.69140625 142.69921875 Z " fill="#019CDA" transform="translate(3307.1328125,1007.796875)"/>
<path d="M0 0 C1.53235794 0.00273422 1.53235794 0.00273422 3.09567261 0.00552368 C17.76048171 0.04965799 32.08980323 0.33127882 46.5 3.3125 C47.3878418 3.48942383 48.27568359 3.66634766 49.19042969 3.84863281 C69.63950034 8.02205964 89.37246952 14.56679342 105.5 28.3125 C106.02956299 28.73273438 106.55912598 29.15296875 107.10473633 29.5859375 C111.68170411 33.30821188 115.06193812 37.36927059 118.4375 42.1875 C118.93056641 42.87585937 119.42363281 43.56421875 119.93164062 44.2734375 C121.12903908 45.94747029 122.31568399 47.62918647 123.5 49.3125 C123.63051758 48.49571777 123.76103516 47.67893555 123.89550781 46.83740234 C124.39083332 43.7826059 124.89929395 40.73036046 125.41650391 37.67919922 C125.74476228 35.71878064 126.05805258 33.7558747 126.37109375 31.79296875 C126.58378906 30.54902344 126.79648438 29.30507812 127.015625 28.0234375 C127.20415039 26.88181152 127.39267578 25.74018555 127.58691406 24.56396484 C129.40872348 18.0765697 133.27528632 14.20324423 138.5 10.3125 C141.32715788 9.37011404 143.06825509 9.18293754 145.99641418 9.17205811 C147.37792915 9.16349289 147.37792915 9.16349289 148.78735352 9.15475464 C149.79572266 9.15363678 150.8040918 9.15251892 151.84301758 9.15136719 C153.43855721 9.14391983 153.43855721 9.14391983 155.06632996 9.13632202 C158.59240359 9.12169259 162.11843223 9.11489706 165.64453125 9.109375 C168.09209698 9.10362419 170.53966269 9.09786645 172.98722839 9.09210205 C178.12275401 9.08158984 183.25826396 9.07574861 188.39379883 9.07226562 C194.97462017 9.06678051 201.55523464 9.0427528 208.1359911 9.01429367 C213.19317734 8.99567094 218.25031372 8.99046188 223.30753136 8.98892975 C225.73362039 8.98590187 228.15970851 8.97786885 230.58576393 8.96474457 C233.98026903 8.94769218 237.37426828 8.94956263 240.76879883 8.95605469 C241.77109528 8.9468399 242.77339172 8.93762512 243.80606079 8.9281311 C250.04059104 8.96548688 254.59467161 9.63253251 259.36328125 14.03125 C259.84152344 14.6190625 260.31976562 15.206875 260.8125 15.8125 C261.30363281 16.4003125 261.79476562 16.988125 262.30078125 17.59375 C267.29419601 24.75043564 264.24558135 36.51182524 262.9415741 44.52839661 C262.77374257 45.60321547 262.60591104 46.67803433 262.43299371 47.78542346 C261.87243971 51.36192404 261.29987849 54.93639351 260.72729492 58.51098633 C260.32077549 61.08853898 259.9150031 63.66620955 259.50991821 66.24398804 C258.63639839 71.79502601 257.75670974 77.34505767 256.8727932 82.89444923 C255.58271501 90.99393987 254.30225715 99.09492947 253.0239797 107.19628986 C250.93347657 120.44367656 248.83546418 133.68986252 246.73266602 146.93530273 C244.71855471 159.6222198 242.70760759 172.30963077 240.70141602 184.99780273 C240.51808395 186.15727515 240.51808395 186.15727515 240.33104821 187.34017126 C239.71626922 191.22845633 239.10156597 195.11675337 238.48691022 199.00505793 C237.26672365 206.72393089 236.04621641 214.44275313 234.82551575 222.1615448 C234.64646645 223.29373656 234.64646645 223.29373656 234.46379999 224.44880088 C232.85505234 234.62096714 231.24432685 244.79281808 229.63149101 254.96433692 C229.30263941 257.03853362 228.97391839 259.11275098 228.64523357 261.18697411 C227.67760823 267.29275372 226.70935679 273.39842932 225.73732468 279.50350914 C223.42016857 294.05997875 221.13915534 308.62112175 218.91689705 323.19240559 C218.1756446 328.04420286 217.42819645 332.89505029 216.68070367 337.74588957 C215.96551511 342.39249656 215.26086691 347.04054093 214.56422713 351.68996283 C214.13041212 354.5681719 213.68657007 357.44477154 213.24009524 360.32104124 C212.93941286 362.27811187 212.65086213 364.23703458 212.36277592 366.19599903 C210.35001383 379.03514429 206.86005112 388.48579286 196.5 396.6875 C189.89082012 400.26747243 183.89618533 400.60721847 176.52905273 400.5871582 C175.55255768 400.59226913 174.57606262 400.59738007 173.56997681 400.60264587 C170.35778596 400.61649132 167.1458108 400.6155893 163.93359375 400.61328125 C161.69352642 400.6171701 159.45345982 400.62150516 157.21339417 400.62626648 C152.52545782 400.6337172 147.83759681 400.63344509 143.1496582 400.62817383 C137.14511839 400.62237165 131.14088628 400.63933402 125.13639736 400.6625185 C120.5132721 400.6772531 115.89022107 400.67812806 111.26707649 400.67500877 C109.05311535 400.67552182 106.83915004 400.68075644 104.62521172 400.69082069 C101.53045511 400.70316628 98.43629981 400.69640509 95.34155273 400.68481445 C94.42969711 400.69245819 93.51784149 400.70010193 92.57835388 400.70797729 C86.59510169 400.658484 82.16492045 399.82098906 77.63671875 395.55859375 C77.15847656 394.96175781 76.68023438 394.36492187 76.1875 393.75 C75.69636719 393.15058594 75.20523437 392.55117187 74.69921875 391.93359375 C69.88455223 385.42516833 72.47221192 374.78211381 73.57519531 367.24951172 C74.1906844 363.26581163 74.83409614 359.28810461 75.5 355.3125 C74.80777344 355.97894531 74.11554688 356.64539062 73.40234375 357.33203125 C60.14167236 369.90811731 45.56750271 379.64823377 29.5 388.3125 C28.88253906 388.64733398 28.26507812 388.98216797 27.62890625 389.32714844 C3.81628393 401.97591664 -24.58206261 409.36361684 -51.57421875 409.515625 C-52.41236618 409.52263931 -53.25051361 409.52965363 -54.11405945 409.53688049 C-56.80526156 409.55429047 -59.49624364 409.56073294 -62.1875 409.5625 C-63.1066217 409.56317474 -64.02574341 409.56384949 -64.97271729 409.56454468 C-101.72823058 409.52163879 -139.21578517 401.94904482 -168.5 378.3125 C-169.03689453 377.88630371 -169.57378906 377.46010742 -170.12695312 377.02099609 C-205.25017198 348.95607911 -222.8548207 307.09165684 -228.5 263.3125 C-228.63277344 262.30574219 -228.76554687 261.29898437 -228.90234375 260.26171875 C-233.92053099 212.76079566 -221.79952258 163.13071328 -199.5 121.3125 C-199.15888184 120.66361816 -198.81776367 120.01473633 -198.46630859 119.34619141 C-189.99715652 103.32698946 -179.56310264 88.81228466 -167.5 75.3125 C-166.77296875 74.49289795 -166.77296875 74.49289795 -166.03125 73.65673828 C-132.89795666 36.45728231 -86.92825623 10.11060028 -37.5 2.3125 C-36.48035156 2.13807373 -35.46070313 1.96364746 -34.41015625 1.78393555 C-22.94523126 0.0094893 -11.57828879 -0.04267427 0 0 Z M-57.5 140.3125 C-58.17675781 140.91320313 -58.85351562 141.51390625 -59.55078125 142.1328125 C-80.2329607 161.28144358 -90.22326502 191.92997588 -91.66015625 219.37109375 C-92.21223791 240.51822159 -86.27062096 262.58737459 -71.5625 278.37890625 C-53.50265732 295.31000877 -31.76592759 301.72028978 -7.5 301.6875 C-6.81880096 301.68695618 -6.13760193 301.68641235 -5.4357605 301.68585205 C5.92501914 301.64426976 16.60665232 300.69399827 27.5 297.3125 C28.18513672 297.10351074 28.87027344 296.89452148 29.57617188 296.67919922 C46.00282571 291.4924483 59.89875201 282.95514683 72.5 271.3125 C73.60408203 270.33023438 73.60408203 270.33023438 74.73046875 269.328125 C94.84739101 250.53626947 106.45110687 220.75411089 107.78125 193.5859375 C108.44816876 170.69534048 102.3580454 148.45032601 86.5546875 131.27734375 C68.86458241 114.36076037 46.43122323 107.9434543 22.51953125 107.22265625 C-8.64580657 108.14995608 -34.77145242 118.91644684 -57.5 140.3125 Z " fill="#0F3984" transform="translate(1821.5,1007.6875)"/>
<path d="M0 0 C0.91522934 -0.0071553 1.83045868 -0.01431061 2.77342224 -0.02168274 C3.7755072 -0.02437164 4.77759216 -0.02706055 5.81004333 -0.02983093 C7.39594521 -0.03968773 7.39594521 -0.03968773 9.0138855 -0.04974365 C12.52072723 -0.06948906 16.02752605 -0.08114388 19.53440857 -0.09111023 C20.7327577 -0.09518576 21.93110683 -0.09926128 23.16576958 -0.10346031 C29.51203616 -0.12432926 35.85828109 -0.13862578 42.20457458 -0.147995 C48.74919301 -0.15904342 55.29346993 -0.19342334 61.83796787 -0.23316669 C66.87815975 -0.2593606 71.91827075 -0.26768947 76.9585247 -0.27127647 C79.37015519 -0.27613751 81.78178219 -0.2877376 84.19334602 -0.30631447 C87.57756888 -0.33075732 90.9609148 -0.32973068 94.34519958 -0.32279968 C95.33311493 -0.33560974 96.32103027 -0.3484198 97.33888245 -0.36161804 C106.85613622 -0.29093534 114.82587726 2.52435331 121.80075073 9.12483215 C127.58069414 15.88245231 129.94870883 24.93547368 132.40159607 33.30342102 C132.93347786 35.07663223 132.93347786 35.07663223 133.47610474 36.88566589 C134.44544178 40.12399047 135.40651564 43.36455036 136.36397552 46.60639191 C137.39242517 50.08113603 138.43161685 53.55266707 139.46946716 57.02461243 C141.47519784 63.74056821 143.47114258 70.45939213 145.46347046 77.17933464 C147.76177373 84.93020129 150.06925156 92.6783265 152.37711906 100.42634964 C156.31533745 113.6489576 160.24563508 126.873905 164.17112732 140.10029602 C169.2349778 157.16185094 174.31668974 174.21804662 179.40550232 191.27217102 C179.77483887 192.51005371 180.14417542 193.7479364 180.52470398 195.02333069 C182.52617411 201.73141559 184.52803305 208.43938431 186.53050232 215.14717102 C187.19050232 215.14717102 187.85050232 215.14717102 188.53050232 215.14717102 C190.04712379 213.13591073 191.43184415 211.12835084 192.80003357 209.01826477 C193.44206223 208.04676987 193.44206223 208.04676987 194.09706116 207.0556488 C195.02797363 205.64551204 195.95575472 204.23330434 196.8808136 202.81932068 C198.86330699 199.78949415 200.86095209 196.76977599 202.85797119 193.74951172 C203.89157871 192.18612747 204.92443623 190.62224714 205.95657349 189.05789185 C210.90109718 181.56798631 215.92396833 174.13278221 220.96800232 166.70967102 C221.83242028 165.4362056 222.69675893 164.16268635 223.5610199 162.88911438 C224.87373591 160.95483301 226.18655174 159.02061995 227.49975586 157.08666992 C232.1999643 150.16408296 236.88714951 143.23270197 241.5740509 136.30110168 C249.42944453 124.68384276 257.28964628 113.0698484 265.15550232 101.45967102 C265.58574707 100.82461639 266.01599182 100.18956177 266.45927429 99.53526306 C269.9133972 94.43697118 273.36781644 89.3388801 276.82225037 84.24079895 C278.98249772 81.05266893 281.14267822 77.86449366 283.30271912 74.67622375 C285.03045075 72.12605576 286.75851914 69.57611643 288.48680115 67.02632141 C292.70318529 60.80463271 296.9150538 54.57996034 301.11686707 48.34841919 C303.1885932 45.27605587 305.26168286 42.20461354 307.33476257 39.13316345 C308.32373116 37.66699981 309.31199672 36.20036165 310.29948425 34.73320007 C331.39042572 3.39817781 331.39042572 3.39817781 344.53050232 0.14717102 C348.23073723 -0.25937422 351.89477601 -0.27374558 355.61473083 -0.25688171 C356.68584106 -0.26374496 357.75695129 -0.27060822 358.86051941 -0.27767944 C362.37695322 -0.295879 365.89293808 -0.29212037 369.40940857 -0.28642273 C371.8660293 -0.290987 374.32264875 -0.29629331 376.77926636 -0.30230713 C381.91767071 -0.31122421 387.05591952 -0.30883002 392.19432068 -0.2988739 C398.77039999 -0.28737192 405.34594332 -0.30762241 411.92195225 -0.33679104 C416.99124545 -0.35515597 422.06041019 -0.35486017 427.12972832 -0.34915352 C429.55416047 -0.34900042 431.97860139 -0.35503537 434.40300179 -0.36744499 C437.79423113 -0.38236226 441.18446949 -0.37167217 444.57566833 -0.35453796 C445.5706987 -0.36420593 446.56572906 -0.3738739 447.59091187 -0.38383484 C454.40478436 -0.31193431 460.13578294 0.81902007 465.14591312 5.73090458 C469.03117628 10.26027048 469.81699961 15.30632296 469.53050232 21.14717102 C468.49789513 27.31907606 464.69209352 31.92298923 461.00706482 36.80732727 C458.04881144 40.74642427 455.29740669 44.82250485 452.53050232 48.89717102 C447.53122487 56.23958294 442.48470871 63.54732307 437.40550232 70.83467102 C431.07849402 79.91489838 424.78748983 89.018596 418.53050232 98.14717102 C411.54332018 108.34105685 404.50773213 118.50005081 397.4450531 128.64179993 C391.77435022 136.7881203 386.14215252 144.96010499 380.53050232 153.14717102 C373.54332018 163.34105685 366.50773213 173.50005081 359.4450531 183.64179993 C353.77435022 191.7881203 348.14215252 199.96010499 342.53050232 208.14717102 C335.54332018 218.34105685 328.50773213 228.50005081 321.4450531 238.64179993 C315.77435022 246.7881203 310.14215252 254.96010499 304.53050232 263.14717102 C297.54332018 273.34105685 290.50773213 283.50005081 283.4450531 293.64179993 C277.77435022 301.7881203 272.14215252 309.96010499 266.53050232 318.14717102 C259.54332018 328.34105685 252.50773213 338.50005081 245.4450531 348.64179993 C239.77435022 356.7881203 234.14215252 364.96010499 228.53050232 373.14717102 C222.27351386 382.27574744 215.98232889 391.3793161 209.65550232 400.45967102 C204.74945145 407.5012902 199.86614548 414.5570113 195.03050232 421.64717102 C189.51698386 429.73125109 183.93624926 437.76729087 178.3422699 445.79585266 C172.70427289 453.88977725 167.10727461 462.0109898 161.53050232 470.14717102 C155.16266503 479.43746932 148.76673808 488.70791296 142.34300232 497.95967102 C141.68985046 498.90205627 141.03669861 499.84444153 140.36375427 500.81538391 C138.42851944 503.5991879 136.4799299 506.37329348 134.53050232 509.14717102 C133.84367371 510.14329407 133.15684509 511.13941711 132.44920349 512.16572571 C131.7644696 513.14057922 131.07973572 514.11543274 130.37425232 515.11982727 C129.76388123 515.9977594 129.15351013 516.87569153 128.52464294 517.78022766 C124.58648116 522.45462513 119.26753955 525.23482528 113.53050232 527.14717102 C111.97524215 527.24661733 110.41612866 527.29066998 108.85772705 527.30107117 C107.89753662 527.30967163 106.93734619 527.31827209 105.94805908 527.32713318 C104.89607834 527.33139313 103.8440976 527.33565308 102.76023865 527.34004211 C101.6509903 527.3482196 100.54174194 527.35639709 99.39888 527.36482239 C95.72010336 527.38967802 92.04136533 527.40619343 88.36253357 527.42060852 C86.4785212 527.42859404 86.4785212 527.42859404 84.55644798 527.43674088 C79.27637087 527.45797094 73.99629955 527.47710016 68.71619129 527.48836327 C61.16207544 527.50458558 53.60847529 527.53772458 46.05455381 527.59476411 C40.09426324 527.63822703 34.13408691 527.65411782 28.17363548 527.66049576 C25.64311237 527.6672105 23.11259682 527.68243817 20.58217812 527.70638657 C17.03696748 527.73802326 13.49305354 527.73807614 9.94773865 527.73066711 C8.90587906 527.74707245 7.86401947 527.76347778 6.79058838 527.78038025 C0.22918785 527.72435903 -4.50637025 526.63258655 -9.46949768 522.14717102 C-12.84309094 517.5698852 -13.91402186 513.25309938 -14.00074768 507.61592102 C-12.46946577 500.49996392 -7.86313297 494.62335757 -3.59449768 488.89717102 C-2.43040015 487.31091183 -1.2676893 485.72363427 -0.10621643 484.13545227 C0.49271423 483.31770325 1.0916449 482.49995422 1.70872498 481.65742493 C4.72327031 477.5036384 7.65857932 473.29526659 10.59300232 469.08467102 C11.76871692 467.39972868 12.94449765 465.71483248 14.12034607 464.02998352 C14.9766864 462.80263489 14.9766864 462.80263489 15.85032654 461.55049133 C18.44055998 457.84542623 21.04665609 454.15164474 23.65550232 450.45967102 C24.14284851 449.76994202 24.6301947 449.08021301 25.13230896 448.36958313 C26.10900836 446.98759001 27.0858145 445.60567233 28.06272888 444.22383118 C30.55371218 440.69949586 33.04195135 437.17322401 35.53050232 433.64717102 C36.53048954 432.23049534 37.53048953 430.81382866 38.53050232 429.39717102 C39.02550232 428.69592102 39.52050232 427.99467102 40.03050232 427.27217102 C45.53050232 419.48050435 51.03050232 411.68883769 56.53050232 403.89717102 C57.27288147 402.84541687 57.27288147 402.84541687 58.03025818 401.77241516 C59.0309442 400.35484448 60.03175814 398.9373641 61.03269958 397.51997375 C63.52325683 393.9928653 66.01161823 390.46424885 68.49534607 386.93232727 C69.48611051 385.52469003 70.47699586 384.11713789 71.46800232 382.70967102 C71.95389832 382.01897522 72.43979431 381.32827942 72.94041443 380.61665344 C75.62013596 376.81792732 78.32772895 373.04197912 81.06956482 369.28779602 C81.95140442 368.07821228 81.95140442 368.07821228 82.85105896 366.8441925 C83.98167274 365.29651138 85.11606129 363.75157812 86.25486755 362.20991516 C87.02745911 361.15211853 87.02745911 361.15211853 87.81565857 360.07295227 C88.26820007 359.45847229 88.72074158 358.84399231 89.18699646 358.21089172 C89.63035339 357.52986389 90.07371033 356.84883606 90.53050232 356.14717102 C91.15859802 355.33393372 91.78669373 354.52069641 92.43382263 353.68281555 C94.23214254 347.88511544 91.79596591 343.20810392 89.79222107 337.65107727 C89.36542557 336.4113768 88.93863007 335.17167633 88.49890137 333.89440918 C87.33875309 330.52499233 86.15153825 327.16569642 84.9593811 323.80749512 C83.71472103 320.28557358 82.49614102 316.75466296 81.27561951 313.22431946 C79.30283461 307.5261074 77.31748838 301.83244309 75.32298279 296.14179993 C71.8939298 286.35224502 68.55783551 276.53166662 65.23240662 266.70649719 C63.63095378 261.9801782 62.01974917 257.25718629 60.40940857 252.53388977 C56.34096963 240.59406031 52.27861162 228.65216524 48.21800232 216.70967102 C47.69419479 215.16918594 47.69419479 215.16918594 47.1598053 213.59757996 C41.01670486 195.52991793 34.88538891 177.45826663 28.75593567 159.38597107 C23.35746549 143.46962024 17.9498674 127.55641901 12.53050232 111.64717102 C6.84328352 94.95117339 1.16709661 78.25144864 -4.50050354 61.54878235 C-5.34677871 59.05477768 -6.19313135 56.56079929 -7.03956604 54.06684875 C-8.22091592 50.5859049 -9.40191211 47.10484127 -10.58277893 43.62373352 C-10.93205948 42.59458832 -11.28134003 41.56544312 -11.64120483 40.50511169 C-12.28692805 38.6009636 -12.93166171 36.69647953 -13.57521057 34.79159546 C-14.16792435 33.03892924 -14.763755 31.28731377 -15.36280823 29.5368042 C-15.63496155 28.73541519 -15.90711487 27.93402618 -16.18751526 27.10835266 C-16.4262587 26.4097261 -16.66500214 25.71109955 -16.91098022 24.99130249 C-18.44961528 19.91098621 -18.03583071 14.87948381 -16.40699768 9.89717102 C-12.16643913 3.87831372 -7.53611362 0.04048838 0 0 Z " fill="#0F3984" transform="translate(2152.469497680664,1016.8528289794922)"/>
<path d="M0 0 C1.06881407 -0.00397441 2.13762813 -0.00794881 3.23883051 -0.01204365 C6.80335482 -0.02163109 10.36747869 -0.00986917 13.93199158 0.00190735 C16.49533231 -0.00052199 19.0586721 -0.0042427 21.62200928 -0.00915527 C27.85530421 -0.0175794 34.08845194 -0.01205823 40.32173652 0.00010767 C47.60283474 0.01378338 54.88390581 0.01208448 62.1650136 0.00997434 C75.1801367 0.00678647 88.19520505 0.01843371 101.21031189 0.03804016 C113.78943047 0.05698446 126.36848475 0.06414283 138.94761658 0.05854797 C152.67840671 0.05245884 166.40916858 0.05272868 180.13995641 0.06403381 C181.61133444 0.0652409 183.08271247 0.06644689 184.5540905 0.06765175 C185.63963019 0.06855706 185.63963019 0.06855706 186.74709998 0.06948065 C191.79893322 0.07332773 196.85075582 0.07297854 201.9025898 0.0710659 C208.74070083 0.06869324 215.57872942 0.07744238 222.41682243 0.0931263 C224.90782206 0.09731989 227.39882998 0.09825356 229.88983154 0.0954361 C250.2532468 0.07592256 270.47504519 1.05943778 290.61924744 4.1867218 C291.73219177 4.35631409 292.84513611 4.52590637 293.99180603 4.70063782 C321.01958099 8.9543341 349.24554659 15.2363213 373.05674744 29.3742218 C374.38234441 32.02541575 373.85318272 33.26734714 373.27159119 36.15937805 C372.97514709 37.64812439 372.97514709 37.64812439 372.67271423 39.16694641 C372.44882019 40.24597229 372.22492615 41.32499817 371.99424744 42.4367218 C371.76455261 43.55635315 371.53485779 44.6759845 371.29820251 45.82954407 C358.8578959 105.64595275 337.95066423 163.92441742 297.05674744 210.3742218 C296.37483337 211.16699524 295.69291931 211.95976868 294.99034119 212.77656555 C291.81065264 216.46445486 288.51175806 219.93950492 285.05674744 223.3742218 C284.11396873 224.33772453 283.17258898 225.30259787 282.23252869 226.26875305 C281.27812654 227.24143377 280.32369932 228.21408989 279.36924744 229.1867218 C278.88391541 229.68881165 278.39858337 230.19090149 277.89854431 230.70820618 C276.65550138 231.96839453 275.35974852 233.17613224 274.05674744 234.3742218 C273.39674744 234.3742218 272.73674744 234.3742218 272.05674744 234.3742218 C272.05674744 235.0342218 272.05674744 235.6942218 272.05674744 236.3742218 C270.65489197 237.68354797 270.65489197 237.68354797 268.68955994 239.16719055 C267.97421082 239.71133606 267.25886169 240.25548157 266.52183533 240.81611633 C265.36349182 241.68019104 265.36349182 241.68019104 264.18174744 242.5617218 C263.0031012 243.44899963 263.0031012 243.44899963 261.80064392 244.35420227 C259.55870701 246.03582853 257.30940131 247.70699135 255.05674744 249.3742218 C254.15827087 250.04324524 253.25979431 250.71226868 252.33409119 251.40156555 C226.00472357 270.39400181 196.10387687 284.12599903 165.05674744 293.3742218 C164.21901794 293.62510559 163.38128845 293.87598938 162.51817322 294.13447571 C148.84282406 298.17395578 135.13158506 301.12534967 121.05674744 303.3742218 C120.23480896 303.5092511 119.41287048 303.6442804 118.56602478 303.78340149 C113.4342615 304.61691427 108.29504486 305.32822553 103.13760376 305.98265076 C101.14154168 306.23634649 99.146276 306.49642278 97.15203857 306.76408386 C77.76388716 309.28258667 58.45309188 309.66545133 38.92002869 309.74531555 C37.61204063 309.75087023 36.30405258 309.7564249 34.95642853 309.7621479 C24.0293635 309.80296555 13.10229103 309.81372609 2.17515564 309.81086731 C-6.03066061 309.80899702 -14.23611646 309.82296113 -22.44185829 309.85934639 C-26.24235972 309.87006838 -30.04235035 309.858119 -33.84283447 309.84552002 C-54.05816767 309.77140493 -54.05816767 309.77140493 -71.94325256 318.3742218 C-72.60325256 318.3742218 -73.26325256 318.3742218 -73.94325256 318.3742218 C-73.94325256 319.0342218 -73.94325256 319.6942218 -73.94325256 320.3742218 C-75.81825256 322.4992218 -75.81825256 322.4992218 -77.94325256 324.3742218 C-78.60325256 324.3742218 -79.26325256 324.3742218 -79.94325256 324.3742218 C-80.19075256 325.0548468 -80.43825256 325.7354718 -80.69325256 326.4367218 C-82.18523164 329.94287263 -84.01160767 333.09042548 -85.94325256 336.3742218 C-87.28671445 332.34383614 -86.44555852 328.96506286 -85.77755737 324.86911011 C-85.6398707 323.9891199 -85.50218403 323.10912969 -85.36032504 322.2024731 C-84.89456088 319.23719691 -84.41849929 316.27366518 -83.94252014 313.31001282 C-83.60684491 311.18670237 -83.27180287 309.06329174 -82.93734741 306.93978882 C-82.02146287 301.13649345 -81.09666151 295.33464929 -80.17037797 289.53300595 C-79.19118343 283.39007363 -78.22021468 277.24584135 -77.24835205 271.10174561 C-75.60252035 260.70396066 -73.95168374 250.30697984 -72.29701233 239.91059875 C-69.80603571 224.25953173 -67.32397026 208.60705827 -64.84364319 192.95429993 C-62.44633333 177.82565484 -60.04734722 162.69728627 -57.63883972 147.57041931 C-56.8620184 142.69011052 -56.08539259 137.80977066 -55.30897522 132.92939758 C-55.12059719 131.74532357 -54.93221917 130.56124957 -54.73813272 129.34129453 C-52.34669938 114.30170596 -49.98482008 99.25794141 -47.66417229 84.20726836 C-47.23750013 81.44267987 -46.80940729 78.67831577 -46.3806982 75.91404247 C-46.24428215 75.03440344 -46.10786609 74.15476441 -45.96731621 73.24846965 C-45.69950212 71.52189487 -45.43161877 69.79533084 -45.1636619 68.06877822 C-44.41548329 63.24190576 -43.67707263 58.41367915 -42.94678164 53.58406973 C-42.50693356 50.69004903 -42.05802795 47.79748696 -41.6066153 44.90524983 C-41.31193132 42.9985967 -41.0286028 41.0901988 -40.74586296 39.1817379 C-38.45257678 24.62007508 -34.18598272 14.22410636 -22.57997131 4.91719055 C-15.33045815 0.67488285 -8.26457821 -0.06189709 0 0 Z " fill="#152967" transform="translate(355.94325256347656,821.6257781982422)"/>
<path d="M0 0 C1.50578613 -0.0076664 1.50578613 -0.0076664 3.04199219 -0.01548767 C6.35764543 -0.02937791 9.67309066 -0.0284272 12.98876953 -0.02612305 C15.29656044 -0.03001047 17.60435063 -0.03434523 19.91213989 -0.03910828 C24.74906737 -0.04656941 29.58592187 -0.04628008 34.42285156 -0.04101562 C40.61567552 -0.03522319 46.80820018 -0.0521473 53.00097466 -0.0753603 C57.76740257 -0.09010592 62.53375855 -0.09096816 67.30020523 -0.08785057 C69.58311684 -0.08836343 71.8660325 -0.0935945 74.14892197 -0.10366249 C77.34426964 -0.11602441 80.53903634 -0.10923611 83.734375 -0.09765625 C84.67382965 -0.10529999 85.6132843 -0.11294373 86.58120728 -0.12081909 C92.91131724 -0.07021744 98.05811519 0.6464279 102.95751953 5.02856445 C103.65748047 5.92381836 103.65748047 5.92381836 104.37158203 6.8371582 C105.09474609 7.7362793 105.09474609 7.7362793 105.83251953 8.65356445 C111.94542418 17.16650213 107.18817478 33.3437106 105.60205078 43.1105957 C105.34005674 44.77474837 105.07901735 46.43905156 104.81883812 48.10348892 C104.10432094 52.65674605 103.37647949 57.20778552 102.64641905 61.75857258 C101.85393206 66.71415184 101.07418207 71.67173713 100.2928772 76.62908936 C98.92765227 85.28055998 97.55469463 93.93077469 96.17657471 102.5802002 C94.15814439 115.24907637 92.15201675 127.91987704 90.14924836 140.59123755 C87.61902228 156.59941151 85.08649028 172.60721805 82.54794312 188.61407471 C76.54880586 226.4429277 70.57784762 264.27615105 64.62351811 302.11208129 C64.28585731 304.25768117 63.94818257 306.40327885 63.6105032 308.54887581 C61.59789589 321.33689791 59.58546545 334.12494784 57.57335281 346.91304779 C54.76457278 364.764184 51.95413599 382.61505852 49.14200258 400.46566677 C48.52013271 404.41313922 47.89835309 408.36062588 47.276577 412.3081131 C45.48934089 423.65429651 43.70168257 435.0004126 41.91182208 446.34618235 C40.97781806 452.26694831 40.04420372 458.18777567 39.11083984 464.10864258 C38.93211224 465.24237777 38.75338464 466.37611296 38.56924105 467.54420376 C36.32895458 481.75984728 34.10586354 495.97801405 31.90666032 510.20007086 C31.50753382 512.77945537 31.10751885 515.35870022 30.70710564 517.93788528 C30.58023845 518.75508254 30.45337126 519.57227979 30.32265961 520.4142406 C30.07436656 522.01332881 29.82602538 523.61240954 29.57763278 525.21148229 C28.89101663 529.63546893 28.21054898 534.06033758 27.53549862 538.48610306 C27.0427008 541.70584081 26.54111884 544.92421241 26.04101562 548.14282227 C25.87511806 549.24632271 25.7092205 550.34982315 25.53829575 551.486763 C23.69958294 563.20545116 21.25233913 572.0189011 12.74658203 580.5246582 C5.51100354 585.12911724 -1.41830532 586.87238225 -9.91601562 586.79223633 C-10.85072189 586.79924561 -11.78542816 586.80625488 -12.74845886 586.81347656 C-15.80511122 586.83092817 -18.86082048 586.81948148 -21.91748047 586.8059082 C-24.05878882 586.80860635 -26.20009597 586.81249145 -28.34140015 586.81750488 C-32.81479635 586.82338216 -37.28787173 586.81489232 -41.76123047 586.79614258 C-47.48201265 586.77332667 -53.20204518 586.78650447 -58.92280006 586.81043243 C-63.33930062 586.8249146 -67.75562459 586.82027375 -72.17213058 586.80992126 C-74.28116318 586.80726211 -76.39021205 586.81049503 -78.49922562 586.81983948 C-81.44978337 586.83004791 -84.39914058 586.8144449 -87.34960938 586.79223633 C-88.21215836 586.80033325 -89.07470734 586.80843018 -89.96339417 586.81677246 C-96.3608182 586.72798596 -101.82995404 585.30055147 -106.56702614 580.78376007 C-110.96854892 575.34837455 -111.31646832 569.53376607 -110.66604233 562.76230431 C-110.09599769 558.36992933 -109.38281537 554.00072461 -108.67480469 549.62890625 C-108.40805835 547.92676983 -108.14235323 546.22446998 -107.87759495 544.5220232 C-107.14763063 539.84779066 -106.40304133 535.17598854 -105.65609431 530.50444412 C-104.84989609 525.4454443 -104.05748629 520.38428342 -103.26344299 515.32336426 C-101.87943128 506.51412998 -100.48695575 497.7062673 -99.08883667 488.89926147 C-97.04488691 476.02336298 -95.01429847 463.14538501 -92.98736751 450.26679766 C-90.45522668 434.17872197 -87.92055095 418.09104878 -85.37910461 402.00444031 C-85.17887678 400.73703438 -84.97864894 399.46962844 -84.77235359 398.16381627 C-84.57144916 396.89213005 -84.37054473 395.62044384 -84.16355228 394.31022167 C-78.79428474 360.32319068 -73.45685495 326.33122408 -68.13232422 292.3371582 C-67.7217788 289.7162707 -67.31123091 287.09538357 -66.90068054 284.47449684 C-65.27225336 274.07864192 -63.64396401 263.68276543 -62.01594162 253.28684711 C-59.49692245 237.20167342 -56.97640257 221.11673584 -54.45400095 205.03209221 C-53.89695723 201.47994576 -53.33997723 197.92778932 -52.78300095 194.37563229 C-51.15518393 183.99484605 -49.52676087 173.61415607 -47.895818 163.23386043 C-47.01323192 157.61648799 -46.13103149 151.99905503 -45.24902344 146.3815918 C-45.07559182 145.27709501 -44.9021602 144.17259823 -44.72347307 143.03463185 C-42.33188733 127.79897821 -39.95928999 112.5604666 -37.60060406 97.31968594 C-36.30402106 88.94206459 -35.00250901 80.56521107 -33.69987851 72.18852812 C-32.64843894 65.42397044 -31.60374862 58.65841656 -30.56423903 51.89201593 C-29.92605144 47.74864856 -29.28140884 43.60630462 -28.63496661 39.4642179 C-28.33827194 37.55437434 -28.04427143 35.64410992 -27.75321698 33.73339868 C-27.35470008 31.11949252 -26.94651616 28.50726659 -26.536026 25.8952179 C-26.42455008 25.14819349 -26.31307417 24.40116908 -26.19822019 23.63150758 C-23.8259665 8.79999498 -23.8259665 8.79999498 -18.62841797 4.8371582 C-18.06380859 4.38469727 -17.49919922 3.93223633 -16.91748047 3.46606445 C-11.3378468 -0.00697283 -6.40271852 -0.01681203 0 0 Z " fill="#019CDA" transform="translate(3708.00341796875,821.725341796875)"/>
<path d="M0 0 C0.66 0.33 1.32 0.66 2 1 C-7.24 10.24 -16.48 19.48 -26 29 C-26 25.32686418 -25.31295383 24.89813754 -22.8515625 22.3046875 C-22.17996094 21.5923999 -21.50835938 20.8801123 -20.81640625 20.14624023 C-20.09324219 19.39673096 -19.37007812 18.64722168 -18.625 17.875 C-17.89925781 17.11324463 -17.17351562 16.35148926 -16.42578125 15.56665039 C-11.17730001 10.10317253 -5.79347885 4.88824778 0 0 Z " fill="#708CB8" transform="translate(1677,1060)"/>
<path d="M0 0 C0.66 0.33 1.32 0.66 2 1 C-1.63 4.63 -5.26 8.26 -9 12 C-9 7.8407692 -6.75316432 5.85455565 -4 3 C-1.6875 1.125 -1.6875 1.125 0 0 Z " fill="#7291BB" transform="translate(158,622)"/>
</svg>
