<?xml version="1.0" encoding="UTF-8"?>
<svg version="1.1" xmlns="http://www.w3.org/2000/svg" width="1571" height="614">
<path d="M0 0 C24.17253495 22.36573926 41.15916792 51.85728071 42.88671875 85.19140625 C43.94909513 121.08125175 30.14183817 150.85834368 5.95239258 176.69213867 C-8.62771521 191.97747363 -25.73775469 203.70687586 -44.49609375 213.28515625 C-45.18493652 213.63916504 -45.8737793 213.99317383 -46.58349609 214.35791016 C-81.45327653 232.06281892 -118.83165546 238.86998387 -157.49609375 241.28515625 C-158.02396484 239.68800781 -158.02396484 239.68800781 -158.5625 238.05859375 C-168.2771519 209.22876852 -184.46500965 188.30217261 -211.91088867 174.42285156 C-220.7461244 170.14921619 -229.99856418 167.64593966 -239.49609375 165.28515625 C-239.49609375 164.29515625 -239.49609375 163.30515625 -239.49609375 162.28515625 C-236.04412798 161.13450099 -232.79030263 160.95543851 -229.19140625 160.7421875 C-227.66154016 160.64160431 -226.13175806 160.53973781 -224.60205078 160.43676758 C-223.79173401 160.38243561 -222.98141724 160.32810364 -222.14654541 160.27212524 C-181.1077 157.43698641 -141.14720324 149.54631518 -102.49609375 135.28515625 C-101.28373047 134.84236328 -100.07136719 134.39957031 -98.82226562 133.94335938 C-95.15322094 132.58013433 -91.51046766 131.16302253 -87.87109375 129.72265625 C-86.17944092 129.08880005 -86.17944092 129.08880005 -84.45361328 128.44213867 C-81.56612254 127.25268038 -79.03844879 126.09742199 -76.49609375 124.28515625 C-75.32336683 120.97460583 -75.29113845 119.66401837 -75.49609375 116.28515625 C-75.42297078 113.87610248 -75.34277209 111.46725913 -75.2578125 109.05859375 C-74.51811263 65.93813572 -86.25412961 25.78108141 -116.171875 -6.3125 C-117.79481035 -7.9899878 -119.43425538 -9.65159035 -121.0859375 -11.30078125 C-122.46535241 -12.68243184 -123.82807279 -14.08239197 -125.13671875 -15.53125 C-143.16161848 -35.08739121 -170.23207086 -47.097149 -195.49609375 -53.71484375 C-195.49609375 -55.03484375 -195.49609375 -56.35484375 -195.49609375 -57.71484375 C-126.43574879 -63.91256702 -52.43283711 -47.25914517 0 0 Z " fill="#F9740B" transform="translate(1371.49609375,215.71484375)"/>
<path d="M0 0 C8.91 0 17.82 0 27 0 C28.61079626 10.10392515 30.21978204 20.2081346 31.82590771 30.31280327 C32.57242932 35.00899545 33.31962859 39.70507732 34.06860352 44.40087891 C37.08236263 63.29930129 40.07363936 82.19980837 42.86328125 101.1328125 C42.96708792 101.83468563 43.07089458 102.53655876 43.17784691 103.25970078 C44.245653 110.49618803 45.25319149 117.72297047 46 125 C46.57105469 123.906875 47.14210938 122.81375 47.73046875 121.6875 C56.6504532 104.65248248 65.71639074 87.70047818 75.25 71 C80.90587462 61.0872671 86.26454036 51.03178858 91.58731079 40.93811035 C97.78981815 29.18289711 104.21105724 17.57389503 110.84936523 6.05761719 C111.96022342 4.07113028 112.98214577 2.03570846 114 0 C123.24 0 132.48 0 142 0 C139.36 52.14 136.72 104.28 134 158 C124.43 158 114.86 158 105 158 C105.77201065 137.65263879 107.0708987 117.35040145 108.38647461 97.0324707 C108.85298268 89.82391809 109.31638589 82.61516719 109.77802849 75.4063015 C109.93861027 72.90680146 110.10087991 70.40741508 110.26332092 67.90803528 C110.36123598 66.38571556 110.45909378 64.86339215 110.55688477 63.34106445 C110.60206741 62.65287125 110.64725006 61.96467804 110.69380188 61.25563049 C110.89136801 58.15794636 111 55.106725 111 52 C110.61368408 52.75804932 110.22736816 53.51609863 109.8293457 54.29711914 C103.29928845 67.08438465 96.77454127 79.85713871 89.625 92.3125 C84.37150894 101.46554028 79.36750717 110.7327921 74.4375 120.0625 C74.07755951 120.74365875 73.71761902 121.4248175 73.34677124 122.12661743 C72.98959015 122.80259979 72.63240906 123.47858215 72.2644043 124.17504883 C71.55134648 125.52429197 70.83821241 126.87349482 70.125 128.22265625 C69.77657547 128.8817952 69.42815094 129.54093414 69.06916809 130.220047 C64.13982765 139.53126403 59.0673849 148.76324778 54 158 C44.76 158 35.52 158 26 158 C20.31760326 122.66917209 14.64776086 87.33638245 9 52 C6.34046682 60.37599585 3.68317904 68.75270276 1.02736664 77.129879 C0.3780703 79.17781601 -0.27138223 81.22570344 -0.9208374 83.27359009 C-5.43006307 97.49450697 -9.92834635 111.7183562 -14.34375 125.96875 C-14.67087982 127.0241951 -14.99800964 128.0796402 -15.33505249 129.16706848 C-16.86083089 134.09377913 -18.38177796 139.02192876 -19.89697266 143.9519043 C-20.43387366 145.69060653 -20.97081752 147.42929554 -21.5078125 149.16796875 C-21.74858521 149.95671387 -21.98935791 150.74545898 -22.23742676 151.55810547 C-23.88690289 156.88690289 -23.88690289 156.88690289 -25 158 C-26.99964982 158.08758003 -29.0023611 158.10696576 -31.00390625 158.09765625 C-32.09775635 158.09515869 -33.19160645 158.09266113 -34.31860352 158.09008789 C-35.73323588 158.08092389 -37.147868 158.07172138 -38.5625 158.0625 C-40.95955244 158.05101209 -43.35660662 158.03988579 -45.75366211 158.02905273 C-47.83577474 158.01936849 -49.91788737 158.00968424 -52 158 C-45.57276526 136.45330025 -38.45196149 115.15111066 -31.30437469 93.83549881 C-28.48860041 85.43400179 -25.68218681 77.02936932 -22.875 68.625 C-22.41973497 67.26245181 -22.41973497 67.26245181 -21.95527267 65.8723774 C-16.46239078 49.42995897 -11.04640701 32.96419677 -5.73193359 16.46313477 C-5.4822583 15.68941528 -5.23258301 14.9156958 -4.9753418 14.11853027 C-4.3375545 12.14028047 -3.70255662 10.1611319 -3.06787109 8.18188477 C-2.14113528 5.42053409 -1.08175444 2.7043861 0 0 Z " fill="#063890" transform="translate(209,222)"/>
<path d="M0 0 C0.73951904 0.40001221 1.47903809 0.80002441 2.2409668 1.2121582 C6.50119496 3.60416953 9.70558808 6.14189059 13.0625 9.75 C14.65804997 11.17636441 16.26226729 12.59309263 17.875 14 C30.62864907 25.48585309 40.92945457 39.10195908 42.0625 56.75 C42.14177734 57.74386719 42.14177734 57.74386719 42.22265625 58.7578125 C42.70095842 70.02910706 39.29098116 80.89229054 34.0625 90.75 C33.64355469 91.55695313 33.22460938 92.36390625 32.79296875 93.1953125 C18.26529155 119.23627855 -11.50466779 141.24393733 -38.9375 151.75 C-38.91655273 150.59290527 -38.89560547 149.43581055 -38.87402344 148.24365234 C-37.92202617 117.70118749 -37.92202617 117.70118749 -42.9375 87.75 C-43.20062988 86.80141113 -43.46375977 85.85282227 -43.73486328 84.87548828 C-51.42122626 57.90144368 -64.70646367 34.95504684 -84.52734375 15.1640625 C-85.90675866 13.78241191 -87.26947904 12.38245178 -88.578125 10.93359375 C-106.60302473 -8.62254746 -133.67347711 -20.63230525 -158.9375 -27.25 C-158.9375 -28.57 -158.9375 -29.89 -158.9375 -31.25 C-104.12672032 -36.16891612 -48.44628311 -26.42389199 0 0 Z " fill="#004D9B" transform="translate(1334.9375,189.25)"/>
<path d="M0 0 C0.70543945 0.11762695 1.41087891 0.23525391 2.13769531 0.35644531 C7.0443231 1.27394482 11.49117889 2.8370815 16.125 4.6875 C15.52008788 12.73852182 14.10692287 20.54712567 12.54296875 28.4609375 C12.2843472 29.79192848 12.02632995 31.123037 11.76887512 32.45425415 C10.68734934 38.04050553 9.59492596 43.62460874 8.4987793 49.20800781 C4.10799793 71.59911931 0.19308675 93.93854576 -1.875 116.6875 C-10.785 116.6875 -19.695 116.6875 -28.875 116.6875 C-27.75 102.0625 -27.75 102.0625 -26.875 95.6875 C-27.37128906 96.32816406 -27.86757813 96.96882813 -28.37890625 97.62890625 C-36.30048563 107.71501587 -44.43656545 117.35372606 -57.875 119.6875 C-67.83010777 120.46108162 -76.82385694 119.99790328 -85.15625 114.0625 C-91.6788969 108.22132367 -94.66969492 100.69415185 -96.6875 92.3125 C-97.99241316 67.08417889 -93.2049091 41.6922528 -76.17578125 22.14453125 C-55.80568878 0.39107087 -28.72952833 -4.80660053 0 0 Z M-55.95703125 35.0078125 C-66.73284487 50.06322624 -69.91322658 67.48145536 -68.875 85.6875 C-68.10373414 89.62322429 -66.8083112 92.53880929 -64.25 95.6875 C-59.82164912 97.55206879 -55.37574837 97.43350186 -50.79296875 96.06640625 C-36.87124502 89.88812649 -28.61657029 73.7527263 -23.21484375 60.30078125 C-18.48713796 47.55113735 -15.6783561 35.17601716 -13.875 21.6875 C-30.00022031 15.77020424 -45.28675114 22.35682171 -55.95703125 35.0078125 Z " fill="#06388F" transform="translate(755.875,263.3125)"/>
<path d="M0 0 C0.99 0.99 0.99 0.99 2 2 C1.48730343 5.06696931 0.8557246 7.94046985 0.0625 10.9375 C-0.17057861 11.83267334 -0.40365723 12.72784668 -0.64379883 13.65014648 C-7.61619923 39.60005775 -19.29447185 62.9630051 -37.7578125 82.60546875 C-39.628929 84.60371686 -41.38993106 86.63509164 -43.125 88.75 C-52.14579935 99.28669125 -64.98844616 108.16990076 -77 115 C-77.66 115 -78.32 115 -79 115 C-79 115.66 -79 116.32 -79 117 C-79.66 117 -80.32 117 -81 117 C-81.35191406 115.93523437 -81.70382812 114.87046875 -82.06640625 113.7734375 C-91.78105815 84.94361227 -107.9689159 64.01701636 -135.41479492 50.13769531 C-144.25003065 45.86405994 -153.50247043 43.36078341 -163 41 C-163 40.01 -163 39.02 -163 38 C-159.54803423 36.84934474 -156.29420888 36.67028226 -152.6953125 36.45703125 C-151.16544641 36.35644806 -149.63566431 36.25458156 -148.10595703 36.15161133 C-147.29564026 36.09727936 -146.48532349 36.04294739 -145.65045166 35.98696899 C-94.77240356 32.47209599 -46.69010969 20.67031287 0 0 Z " fill="#FA9717" transform="translate(1295,340)"/>
<path d="M0 0 C5.56986076 4.32531312 8.44100802 8.70472312 9.8828125 15.59375 C11.00579295 28.88569987 9.26191875 41.62903833 6.6015625 54.609375 C6.26361485 56.32924729 5.92734576 58.04945015 5.59265137 59.7699585 C4.72145765 64.2250097 3.82805794 68.67530083 2.92938232 73.12487793 C2.01063992 77.69509561 1.11376343 82.26959999 0.21484375 86.84375 C-1.54155968 95.76468978 -3.32354221 104.68022338 -5.1171875 113.59375 C-14.0271875 113.59375 -22.9371875 113.59375 -32.1171875 113.59375 C-30.99281976 101.22570488 -30.99281976 101.22570488 -29.90209961 95.58447266 C-29.66192612 94.32591461 -29.42175262 93.06735657 -29.17430115 91.7706604 C-29.04718687 91.11715229 -28.92007259 90.46364418 -28.78910637 89.79033279 C-28.38398241 87.7034737 -27.98681223 85.61523343 -27.59169006 83.52645874 C-26.46883868 77.59585998 -25.33553458 71.66731788 -24.18920898 65.74121094 C-23.4840695 62.09292009 -22.79078192 58.44253097 -22.10443306 54.79066086 C-21.84374868 53.41617143 -21.57874057 52.04249349 -21.30897331 50.66975784 C-17.86270913 35.62357552 -17.86270913 35.62357552 -21.0546875 21.21875 C-25.41616157 18.90449845 -28.43887572 19.31642199 -33.1171875 20.59375 C-45.4706592 24.86380399 -52.51709012 36.57234274 -58.18505859 47.68798828 C-68.14601075 68.42083129 -72.68760322 91.17736897 -77.1171875 113.59375 C-86.0271875 113.59375 -94.9371875 113.59375 -104.1171875 113.59375 C-102.99215147 103.46842572 -102.99215147 103.46842572 -102.24438477 99.57667542 C-102.07617218 98.69212173 -101.90795959 97.80756805 -101.73464966 96.89620972 C-101.55280121 95.95923248 -101.37095276 95.02225525 -101.18359375 94.05688477 C-100.9899826 93.04441177 -100.79637146 92.03193878 -100.59689331 90.98878479 C-99.96131971 87.67022691 -99.32066515 84.35267423 -98.6796875 81.03515625 C-98.2348852 78.72114764 -97.79030851 76.40709566 -97.34594727 74.09300232 C-96.41680691 69.25858546 -95.48518839 64.42465474 -94.55175781 59.59106445 C-93.35353075 53.38538379 -92.16114328 47.17859814 -90.97053528 40.97145176 C-90.05482287 36.20053672 -89.13624563 31.43017686 -88.21676636 26.6599865 C-87.77574432 24.37032211 -87.33557764 22.08049281 -86.89627075 19.79049873 C-86.28399459 16.60138518 -85.66791999 13.41302914 -85.05078125 10.22485352 C-84.8689328 9.27370667 -84.68708435 8.32255981 -84.49972534 7.34259033 C-84.33151276 6.47777542 -84.16330017 5.61296051 -83.98999023 4.72193909 C-83.84472397 3.96854028 -83.6994577 3.21514147 -83.54978943 2.43891239 C-83.1171875 0.59375 -83.1171875 0.59375 -82.1171875 -1.40625 C-73.5371875 -1.40625 -64.9571875 -1.40625 -56.1171875 -1.40625 C-57.2421875 9.84375 -57.2421875 9.84375 -58.1796875 15.21875 C-58.35628906 16.24226563 -58.53289063 17.26578125 -58.71484375 18.3203125 C-58.84761719 19.07054687 -58.98039063 19.82078125 -59.1171875 20.59375 C-58.10011719 19.30791016 -58.10011719 19.30791016 -57.0625 17.99609375 C-43.94063258 1.73695682 -20.61855012 -13.69497794 0 0 Z " fill="#06388F" transform="translate(883.1171875,266.40625)"/>
<path d="M0 0 C5.055955 4.10450614 8.10487011 8.10062631 9.78515625 14.44921875 C10.74785235 24.13698165 10.51806947 32.21773639 4.78515625 40.44921875 C4.38554687 41.06925781 3.9859375 41.68929687 3.57421875 42.328125 C-8.23503078 58.32429027 -33.93369293 63.24336805 -52.21484375 66.44921875 C-56.53488969 67.04236866 -60.85459725 67.35872307 -65.21484375 67.44921875 C-64.0141151 79.29049415 -64.0141151 79.29049415 -57.59765625 88.82421875 C-51.12248106 92.6932031 -43.53737486 92.51194049 -36.38671875 90.75390625 C-27.61865615 87.77276496 -19.31378663 83.40317085 -12.21484375 77.44921875 C-11.55484375 77.44921875 -10.89484375 77.44921875 -10.21484375 77.44921875 C-9.7084145 80.51069132 -9.21085053 83.57354174 -8.71484375 86.63671875 C-8.57175781 87.50103516 -8.42867188 88.36535156 -8.28125 89.25585938 C-6.76336324 98.68844138 -6.76336324 98.68844138 -7.21484375 101.44921875 C-17.36165806 111.64400854 -34.05451398 114.72019651 -47.77734375 114.82421875 C-61.0761165 114.6841352 -72.59951297 112.07870442 -82.31640625 102.34375 C-93.30281487 89.13668432 -93.15038729 73.80112583 -92.21484375 57.44921875 C-90.1032026 38.29444114 -78.74126422 19.30137486 -64.3984375 6.80859375 C-46.61174029 -6.37320394 -19.62846386 -13.42151636 0 0 Z M-53.21484375 27.44921875 C-57.4954907 33.22717354 -63.21484375 42.03037529 -63.21484375 49.44921875 C-48.23577791 48.74432153 -30.99927934 44.48225801 -19.73828125 34.1953125 C-16.52677045 30.51442704 -15.77120706 27.34166213 -15.890625 22.41796875 C-16.40889308 19.27089512 -17.94259777 17.5916221 -20.21484375 15.44921875 C-33.32768569 11.07827144 -44.56145658 17.91252735 -53.21484375 27.44921875 Z " fill="#073890" transform="translate(459.21484375,268.55078125)"/>
<path d="M0 0 C-0.68860452 8.01047533 -2.33366371 15.71884992 -4.0625 23.5625 C-5.031875 27.996875 -6.00125 32.43125 -7 37 C2.57 37 12.14 37 22 37 C21 49 21 49 19 57 C9.1 57 -0.8 57 -11 57 C-11.66 61.29 -12.32 65.58 -13 70 C-13.76944494 74.02047285 -14.55879223 78.03013123 -15.3828125 82.0390625 C-15.83248793 84.27074136 -16.28169272 86.5025151 -16.73046875 88.734375 C-17.42794948 92.18884613 -18.12860508 95.64255841 -18.83740234 99.09472656 C-19.52884884 102.47013388 -20.20680588 105.8480338 -20.8828125 109.2265625 C-21.09527618 110.2445694 -21.30773987 111.26257629 -21.52664185 112.31143188 C-22.84189331 118.95222465 -23.25271572 125.23552856 -23 132 C-13.69991795 132.9300082 -4.38833641 129.57394406 3 124 C3.99 124 4.98 124 6 124 C3.44221898 144.34188198 3.44221898 144.34188198 1 150 C-1.81654394 151.95433661 -2.83348605 152.41383234 -6 153 C-6.67546875 153.19722656 -7.3509375 153.39445313 -8.046875 153.59765625 C-17.73211895 156.11915942 -31.76546997 157.09738261 -41.171875 153.171875 C-45.97900248 150.09038303 -49.11227074 145.96844315 -51.4375 140.8125 C-53.08825001 129.62408327 -51.38720264 119.03539194 -49.15625 108.07421875 C-48.86371465 106.59085333 -48.57227156 105.10727213 -48.28186035 103.62348938 C-47.52329069 99.76301828 -46.75015456 95.90561275 -45.97369385 92.04870605 C-45.18048004 88.09479942 -44.40142789 84.13810545 -43.62109375 80.18164062 C-42.09438461 72.45165675 -40.55093367 64.72515998 -39 57 C-45.6 57 -52.2 57 -59 57 C-57.68 50.4 -56.36 43.8 -55 37 C-48.07 37 -41.14 37 -34 37 C-33.67 33.7 -33.34 30.4 -33 27 C-32.71042523 25.21019556 -32.39429218 23.42399441 -32.02734375 21.6484375 C-31.85009766 20.77832031 -31.67285156 19.90820312 -31.49023438 19.01171875 C-31.30783203 18.14160156 -31.12542969 17.27148438 -30.9375 16.375 C-30.75123047 15.46621094 -30.56496094 14.55742187 -30.37304688 13.62109375 C-29.91982704 11.4130997 -29.46210307 9.20614876 -29 7 C-26.167031 6.20701081 -23.33364215 5.41557728 -20.5 4.625 C-19.70851563 4.40328125 -18.91703125 4.1815625 -18.1015625 3.953125 C-3.91681985 0 -3.91681985 0 0 0 Z " fill="#063890" transform="translate(968,228)"/>
<path d="M0 0 C1 3 1 3 0.10375977 4.99291992 C-0.59535522 6.10050659 -0.59535522 6.10050659 -1.30859375 7.23046875 C-1.80810547 8.03291016 -2.30761719 8.83535156 -2.82226562 9.66210938 C-3.35529297 10.49548828 -3.88832031 11.32886719 -4.4375 12.1875 C-4.96666016 13.03248047 -5.49582031 13.87746094 -6.04101562 14.74804688 C-7.35164056 16.83796231 -8.67151194 18.9214111 -10 21 C-12.709438 20.382058 -14.90649871 19.61150055 -17.5 18.5 C-27.35775871 14.77351021 -37.47586614 15.40663362 -47 19.625 C-59.57733419 26.43981056 -66.00354492 37.65798842 -70 51 C-72.54428803 60.77006602 -72.70327108 74.07238249 -68.203125 83.18359375 C-65.43805619 87.35812945 -61.78024041 89.72526922 -57 91 C-45.55214694 92.39401901 -35.90462513 88.27929055 -26.9609375 81.390625 C-25 80 -25 80 -23 80 C-22.49387936 82.8740422 -21.99493459 85.74902873 -21.5 88.625 C-21.35691406 89.43324219 -21.21382812 90.24148438 -21.06640625 91.07421875 C-20.32123749 95.43877864 -19.82727694 99.55238129 -20 104 C-36.75896672 113.04885037 -54.36659114 117.72315845 -73.2578125 112.09765625 C-84.1031941 107.75641376 -91.65614496 100.84821178 -96.3125 90.125 C-103.02040394 71.49833112 -100.52549272 51.08699706 -92.34765625 33.33984375 C-83.39056334 14.88073077 -68.22995379 1.68450114 -48.84375 -5.10546875 C-33.1576013 -9.32409207 -14.04950683 -8.64585035 0 0 Z " fill="#073990" transform="translate(660,269)"/>
<path d="M0 0 C8.91 0 17.82 0 27 0 C25.87497613 12.37526257 25.87497613 12.37526257 24.74755859 18.26966858 C24.62490316 18.91877384 24.50224773 19.5678791 24.37587547 20.23665422 C23.97173159 22.36847358 23.56013989 24.49877901 23.1484375 26.62915039 C22.85390306 28.17422114 22.55982827 29.71937958 22.26617432 31.26461792 C21.47353354 35.42813191 20.67430832 39.59035622 19.87366486 43.75233769 C19.03518311 48.11624506 18.20230181 52.48122153 17.36865234 56.84605408 C15.97012062 64.16394112 14.56744653 71.48102444 13.16210938 78.79760742 C11.53650257 87.26116912 9.91676184 95.7258369 8.3002758 104.191145 C6.74351135 112.34331018 5.18336003 120.49482319 3.62139893 128.64599419 C2.95696336 132.11347476 2.29359165 135.58115638 1.63104248 139.04899788 C0.85243307 143.1231984 0.07082528 147.19681244 -0.7131424 151.2699852 C-1.00079497 152.76702138 -1.28742962 154.26425355 -1.57299042 155.76169014 C-1.96176092 157.79939548 -2.35417102 159.83636597 -2.74755859 161.8731842 C-2.9665683 163.0148256 -3.185578 164.156467 -3.41122437 165.33270359 C-4 168 -4 168 -5 170 C-13.91 170 -22.82 170 -32 170 C-29.75 155.375 -29.75 155.375 -28.62057495 149.47636414 C-28.49635953 148.82413889 -28.37214411 148.17191365 -28.24416459 147.499924 C-27.83799363 145.37020839 -27.42854572 143.2411378 -27.01904297 141.11206055 C-26.72298426 139.56340307 -26.42713256 138.01470601 -26.13146973 136.4659729 C-25.33618269 132.30325032 -24.53803754 128.14108053 -23.73933935 123.9790113 C-22.90218314 119.61383834 -22.06771028 115.24815245 -21.23294067 110.88252258 C-19.65533271 102.63421651 -18.07534642 94.38636793 -16.49448407 86.13868505 C-14.69333664 76.74109486 -12.89487327 67.34299165 -11.09662414 57.94484651 C-7.40071481 38.62932931 -3.70137601 19.31447032 0 0 Z " fill="#063890" transform="translate(1088,210)"/>
<path d="M0 0 C1.63001953 -0.03867187 1.63001953 -0.03867187 3.29296875 -0.078125 C7.60661868 0.32403548 10.81951394 1.59171071 14.8125 3.25 C13.42128487 7.07227897 11.99539519 10.88067029 10.5625 14.6875 C10.16675781 15.77611328 9.77101563 16.86472656 9.36328125 17.98632812 C8.97011719 19.02080078 8.57695313 20.05527344 8.171875 21.12109375 C7.81577148 22.07943115 7.45966797 23.03776855 7.09277344 24.02514648 C5.8125 26.25 5.8125 26.25 3.86816406 27.10571289 C1.8125 27.25 1.8125 27.25 -1.4375 26.6875 C-8.22731669 25.89535472 -13.63367493 27.91089165 -19.1875 31.6640625 C-43.44939515 50.90298717 -48.94243461 89.86494026 -54.1875 118.25 C-63.0975 118.25 -72.0075 118.25 -81.1875 118.25 C-80.06246254 106.99962539 -80.06246254 106.99962539 -79.31469727 103.10594177 C-79.14648468 102.21856827 -78.97827209 101.33119476 -78.80496216 100.41693115 C-78.62311371 99.48197815 -78.44126526 98.54702515 -78.25390625 97.58374023 C-78.0602951 96.56951492 -77.86668396 95.55528961 -77.66720581 94.5103302 C-77.03255408 91.1922201 -76.39149332 87.87538739 -75.75 84.55859375 C-75.30514352 82.24362915 -74.86056771 79.92861059 -74.41625977 77.61354065 C-73.4877213 72.78078607 -72.55604214 67.94865075 -71.62207031 63.11694336 C-70.42255503 56.91031557 -69.23057265 50.70226918 -68.04084778 44.4937582 C-67.1258099 39.72275507 -66.20703303 34.9524781 -65.28707886 30.18242073 C-64.84577911 27.89198326 -64.40561336 25.60132701 -63.96658325 23.31045341 C-63.35519908 20.12346159 -62.73884763 16.93747135 -62.12109375 13.75170898 C-61.9392453 12.7985379 -61.75739685 11.84536682 -61.57003784 10.86331177 C-61.40182526 10.00131668 -61.23361267 9.13932159 -61.06030273 8.25120544 C-60.91503647 7.49818366 -60.7697702 6.74516188 -60.62010193 5.96932125 C-60.1875 4.25 -60.1875 4.25 -59.1875 3.25 C-57.26082493 3.16251793 -55.33098139 3.14302666 -53.40234375 3.15234375 C-52.23251953 3.15556641 -51.06269531 3.15878906 -49.85742188 3.16210938 C-48.62572266 3.17048828 -47.39402344 3.17886719 -46.125 3.1875 C-44.27165039 3.19426758 -44.27165039 3.19426758 -42.38085938 3.20117188 C-39.31635883 3.21300392 -36.25195279 3.22948827 -33.1875 3.25 C-33.32027344 4.1678125 -33.45304688 5.085625 -33.58984375 6.03125 C-34.51092041 12.43172431 -35.41704834 18.82956948 -36.1875 25.25 C-35.71441406 24.54875 -35.24132812 23.8475 -34.75390625 23.125 C-26.33192061 11.04199527 -15.60196298 0.21948834 0 0 Z M-38.1875 26.25 C-37.1875 28.25 -37.1875 28.25 -37.1875 28.25 Z " fill="#073990" transform="translate(555.1875,261.75)"/>
<path d="M0 0 C1.12591553 0.00523682 2.25183105 0.01047363 3.41186523 0.01586914 C4.62680664 0.0190918 5.84174805 0.02231445 7.09350586 0.02563477 C8.37290039 0.03401367 9.65229492 0.04239258 10.97045898 0.05102539 C12.2537207 0.05553711 13.53698242 0.06004883 14.85913086 0.06469727 C18.04211921 0.07652994 21.22501661 0.09301471 24.40795898 0.11352539 C20.92508069 21.04363842 16.88681873 41.87061758 12.89794922 62.70874023 C11.90668502 67.8874153 10.91906319 73.06677766 9.93241596 78.24633408 C9.16782417 82.25793461 8.40129655 86.26916335 7.63417625 90.28028107 C7.26874643 92.19236794 6.9039353 94.10457316 6.53975868 96.01689911 C6.03467294 98.66765577 5.52696921 101.31789766 5.01855469 103.96801758 C4.86947159 104.75331345 4.72038849 105.53860931 4.56678772 106.34770203 C3.98907016 109.34701971 3.37517559 112.21187558 2.40795898 115.11352539 C-6.50204102 115.11352539 -15.41204102 115.11352539 -24.59204102 115.11352539 C-23.46700356 103.86315079 -23.46700356 103.86315079 -22.71923828 99.96946716 C-22.5510257 99.08209366 -22.38281311 98.19472015 -22.20950317 97.28045654 C-22.02765472 96.34550354 -21.84580627 95.41055054 -21.65844727 94.44726562 C-21.46483612 93.43304031 -21.27122498 92.418815 -21.07174683 91.37385559 C-20.4370951 88.05574549 -19.79603434 84.73891278 -19.15454102 81.42211914 C-18.70968453 79.10715454 -18.26510873 76.79213598 -17.82080078 74.47706604 C-16.89226232 69.64431146 -15.96058316 64.81217614 -15.02661133 59.98046875 C-13.82709604 53.77384096 -12.63511366 47.56579457 -11.44538879 41.35728359 C-10.53035092 36.58628046 -9.61157405 31.81600349 -8.69161987 27.04594612 C-8.25032013 24.75550865 -7.81015437 22.4648524 -7.37112427 20.17397881 C-6.75974009 16.98698698 -6.14338864 13.80099674 -5.52563477 10.61523438 C-5.34378632 9.66206329 -5.16193787 8.70889221 -4.97457886 7.72683716 C-4.80636627 6.86484207 -4.63815369 6.00284698 -4.46484375 5.11473083 C-4.31957748 4.36170905 -4.17431122 3.60868727 -4.02464294 2.83284664 C-3.32289423 0.04383578 -2.96159406 0.12971096 0 0 Z " fill="#073890" transform="translate(1018.592041015625,264.886474609375)"/>
<path d="M0 0 C3.4375 1.6875 3.4375 1.6875 6 4 C6.78375 4.680625 7.5675 5.36125 8.375 6.0625 C10.90009929 10.62710257 10.97487287 14.91465572 10 20 C7.65050336 24.26698906 4.53719125 27.19524363 0 29 C-5.90289963 29.7500384 -10.99759473 29.45404174 -16 26 C-20.19905641 21.34699155 -21.36619655 18.46699458 -21.27734375 12.31640625 C-20.69714836 7.47054894 -17.87765373 4.81343516 -14.4375 1.625 C-9.57038192 -0.67581945 -5.29437994 -0.78113802 0 0 Z " fill="#0A3B91" transform="translate(1040,218)"/>
<path d="M0 0 C0.66 0.33 1.32 0.66 2 1 C-3.61 6.61 -9.22 12.22 -15 18 C-15 13.74508832 -12.52840258 11.92686684 -9.75 9 C-9.25886719 8.46632813 -8.76773438 7.93265625 -8.26171875 7.3828125 C-5.68642506 4.62209767 -3.11691202 2.1373111 0 0 Z " fill="#164597" transform="translate(691,275)"/>
<path d="M0 0 C0.66 0.33 1.32 0.66 2 1 C-3.61 6.61 -9.22 12.22 -15 18 C-15 12.50089132 -9.68936771 8.76735434 -6 5 C-4.05347234 3.22256464 -2.09090037 1.6083849 0 0 Z " fill="#154396" transform="translate(398,273)"/>
<path d="M0 0 C0.66 0.33 1.32 0.66 2 1 C-2.95 5.95 -7.9 10.9 -13 16 C-13 11.93645091 -11.47015238 10.94829419 -8.75 8 C-7.96109375 7.13375 -7.1721875 6.2675 -6.359375 5.375 C-4.3351828 3.33740256 -2.34982916 1.63841299 0 0 Z " fill="#144396" transform="translate(536,268)"/>
<path d="M0 0 C0.66 0.33 1.32 0.66 2 1 C-2.95 5.95 -7.9 10.9 -13 16 C-13 10.79628205 -8.49504984 7.5790344 -5 4 C-3.37707762 2.6137538 -1.7331451 1.24569804 0 0 Z " fill="#134395" transform="translate(840,270)"/>
<path d="M0 0 C4.67105792 1.55701931 8.08705685 4.08447373 12 7 C11.01 8.485 11.01 8.485 10 10 C8.33037631 8.52417192 6.6643694 7.04425109 5 5.5625 C4.071875 4.73878906 3.14375 3.91507813 2.1875 3.06640625 C1.465625 2.38449219 0.74375 1.70257813 0 1 C0 0.67 0 0.34 0 0 Z " fill="#E2B539" transform="translate(1347,198)"/>
</svg>
