<?xml version="1.0" encoding="UTF-8"?>
<svg version="1.1" xmlns="http://www.w3.org/2000/svg" width="796" height="526">
<path d="M0 0 C226.45212482 0 226.45212482 0 245.4375 5.625 C246.72853638 6.00350098 246.72853638 6.00350098 248.0456543 6.38964844 C268.47624423 12.64850506 286.94252365 22.93375283 303 37 C303.80050781 37.67933594 304.60101563 38.35867187 305.42578125 39.05859375 C332.15633454 62.10527247 347.47002843 95.98592505 350.5480957 130.78881836 C353.24738608 168.38534967 343.11335174 209.71032534 320 240 C319.34 240.87914062 318.68 241.75828125 318 242.6640625 C289.72044199 278.74129275 250.06927299 296.06672205 205.40087891 301.609375 C196.61930411 302.61802681 187.81626797 303.37072337 179 304 C186.73581418 310.24945687 194.51388398 316.42730136 202.4375 322.4375 C208.81576597 327.27914078 215.06224003 332.25772408 221.25708008 337.33129883 C226.36135245 341.50418544 231.55247965 345.54313799 236.79296875 349.54296875 C241.98430911 353.5079328 247.10329566 357.56587334 252.23388672 361.60888672 C255.15371048 363.90874237 258.07701893 366.20415945 261 368.5 C262.16668361 369.4166451 263.33335027 370.33331177 264.5 371.25 C265.36625 371.930625 265.36625 371.930625 266.25 372.625 C369.5 453.75 369.5 453.75 371.25244141 455.12695312 C372.41092481 456.03716696 373.56945294 456.94732387 374.72802734 457.85742188 C377.7702805 460.24733503 380.81158907 462.6384375 383.8515625 465.03125 C384.48320312 465.52818359 385.11484375 466.02511719 385.765625 466.53710938 C386.97164269 467.48596152 388.17738849 468.43515938 389.3828125 469.38476562 C390.91921505 470.5932332 392.45944887 471.7968255 394 473 C394.80598192 473.80170734 394.80598192 473.80170734 395.62824631 474.61961079 C399.22708176 476.71417636 402.85816817 476.42177142 406.90899658 476.39872742 C407.81896291 476.40537424 408.72892923 476.41202107 409.66647029 476.41886932 C412.7220958 476.43755343 415.77733161 476.43489037 418.83300781 476.43237305 C421.02076778 476.44138689 423.20852267 476.45171317 425.39627075 476.46325684 C431.34213849 476.49089722 437.28791059 476.50012093 443.23383427 476.50611091 C449.44521456 476.51547625 455.6565229 476.54167812 461.86785889 476.56611633 C472.29535715 476.60486534 482.72284106 476.63319719 493.15039062 476.65356445 C503.89065319 476.67457101 514.63086947 476.70187745 525.37109375 476.73754883 C526.37431427 476.74086909 526.37431427 476.74086909 527.39780188 476.74425644 C533.21554774 476.7635656 539.03329197 476.78335206 544.85103607 476.80318546 C569.90066611 476.8879638 594.9502634 476.94139703 620 477 C620 435.42 620 393.84 620 351 C541.13 351 462.26 351 381 351 C381 300.80123197 381 300.80123197 403.875 272.83984375 C408.21387054 267.52713188 412.43550956 262.12366819 416.65722656 256.71777344 C418.93233918 253.80728392 421.21663043 250.90401293 423.5 248 C426.24054626 244.51348899 428.98009632 241.02621842 431.71484375 237.53515625 C436.94490507 230.86231939 442.213503 224.22245764 447.51708984 217.60791016 C452.26502233 211.6810536 456.95806715 205.71206408 461.64111328 199.73388672 C464.3828512 196.23553554 467.13074956 192.7420205 469.87744141 189.24755859 C472.15856239 186.34497577 474.43828263 183.44131727 476.71484375 180.53515625 C481.94490507 173.86231939 487.213503 167.22245764 492.51708984 160.60791016 C497.26502233 154.6810536 501.95806715 148.71206408 506.64111328 142.73388672 C509.3828512 139.23553554 512.13074956 135.7420205 514.87744141 132.24755859 C517.15856239 129.34497577 519.43828263 126.44131727 521.71484375 123.53515625 C526.94490507 116.86231939 532.213503 110.22245764 537.51708984 103.60791016 C542.26502233 97.6810536 546.95806715 91.71206408 551.64111328 85.73388672 C554.3828512 82.23553554 557.13074956 78.7420205 559.87744141 75.24755859 C562.15856239 72.34497577 564.43828263 69.44131727 566.71484375 66.53515625 C571.94490507 59.86231939 577.213503 53.22245764 582.51708984 46.60791016 C587.26374601 40.68264684 591.95515981 34.71502653 596.63671875 28.73828125 C598.01580399 26.97984878 599.39802851 25.22393021 600.78125 23.46875 C601.24716553 22.87715088 601.71308105 22.28555176 602.19311523 21.67602539 C603.46307561 20.0637259 604.73347242 18.4517702 606.00390625 16.83984375 C610.36571846 11.24967243 614.67683592 5.6201133 619 0 C635.5 0 652 0 669 0 C669 99.66 669 199.32 669 302 C700.68 302 732.36 302 765 302 C786 318 786 318 796 326 C791.36461694 331.0077817 785.99887117 334.96361891 780.5625 339.0625 C779.63373047 339.76955078 778.70496094 340.47660156 777.74804688 341.20507812 C775.1767433 343.15414454 772.60754264 345.09964728 770 347 C769.15174149 347.68865646 768.30348297 348.37731293 767.42951965 349.08683777 C762.95805673 351.58124948 759.62573042 351.53742574 754.59814453 351.45410156 C753.18457326 351.45482477 753.18457326 351.45482477 751.74244499 351.45556259 C748.70551062 351.45258764 745.66957015 351.42217715 742.6328125 351.390625 C740.75252759 351.38474055 738.87223614 351.38066188 736.99194336 351.37841797 C730.03619536 351.35748481 723.08058781 351.30163966 716.125 351.25 C700.57375 351.1675 685.0225 351.085 669 351 C669 408.75 669 466.5 669 526 C597.37152406 526.52430754 597.37152406 526.52430754 567.40625 526.63476562 C560.54817299 526.66021557 553.69009984 526.68648115 546.83203125 526.71411133 C545.97255795 526.71754006 545.11308466 526.7209688 544.22756672 526.72450143 C530.37616562 526.78094721 516.52547055 526.88338217 502.67448723 527.00298635 C488.44533789 527.12482553 474.21655654 527.19682033 459.98690701 527.22315043 C451.21546027 527.24093376 442.44600859 527.29696266 433.6751765 527.40291407 C427.6496066 527.4719672 421.62505842 527.49232771 415.59912217 527.47551791 C412.1285182 527.46723994 408.66138286 527.47934541 405.19140625 527.54967117 C380.30208265 527.97967772 380.30208265 527.97967772 369.95639133 518.08221036 C368.85802259 516.96007836 367.77040429 515.82731028 366.6944561 514.68366277 C363.72757232 511.73567742 360.32651517 509.37250872 356.9375 506.9375 C350.99287742 502.53740694 345.18422685 497.99634168 339.42675781 493.35473633 C335.03324534 489.81577474 330.59379169 486.34889008 326.11328125 482.92041016 C321.4954239 479.38608018 316.90114535 475.82216396 312.3125 472.25 C311.55090576 471.65719238 310.78931152 471.06438477 310.00463867 470.45361328 C308.44654195 469.24065319 306.88851837 468.02759914 305.33056641 466.81445312 C301.55482734 463.87486662 297.77734465 460.93752285 294 458 C292.49999123 456.83334461 290.99999124 455.66667793 289.5 454.5 C288.7575 453.9225 288.015 453.345 287.25 452.75 C220.875 401.125 220.875 401.125 154.5 349.5 C153.75717773 348.9222583 153.01435547 348.3445166 152.24902344 347.74926758 C150.75224357 346.58508741 149.25549866 345.4208623 147.75878906 344.2565918 C143.95980942 341.30150827 140.16018535 338.34725986 136.359375 335.39453125 C117.38580693 320.65177252 117.38580693 320.65177252 112.71435547 316.82714844 C110.33595762 314.93954442 107.98687108 313.38677958 105.30908203 311.96044922 C100.32326497 309.097853 95.90194843 306.18027648 94.26660156 300.41403198 C93.23932087 292.89530434 93.72534437 285.36340605 94.125 277.8125 C94.19531031 275.50214201 94.25917381 273.19157831 94.31640625 270.88085938 C94.46984693 265.24938016 94.70329323 259.62565461 95 254 C96.30497437 253.99635437 97.60994873 253.99270874 98.95446777 253.98895264 C111.31119232 253.95185515 123.66767105 253.89392243 136.02420807 253.81609726 C142.37536077 253.7767517 148.7263775 253.74450004 155.07763672 253.72900391 C161.21810151 253.71375202 167.35819213 253.67915615 173.49848938 253.63169098 C175.82974477 253.61696475 178.1610536 253.60896408 180.49235535 253.60811615 C197.06362 253.59603813 211.86777014 252.48803631 227.0625 245.25 C227.80653076 244.90565918 228.55056152 244.56131836 229.31713867 244.20654297 C231.55527756 243.15815285 233.77910104 242.08436846 236 241 C236.67482422 240.67483398 237.34964844 240.34966797 238.04492188 240.01464844 C265.60932005 226.58759026 285.68523909 203.3338369 295.875 174.4375 C303.68101076 148.91265514 302.44391718 124.61233535 290.37109375 100.78515625 C276.75582028 76.23975606 254.30834811 60.77416368 227.9375 52.6875 C169.96169349 38.58527679 108.6650854 48.38003239 49 48 C49 184.62 49 321.24 49 462 C32.83 462 16.66 462 0 462 C0 309.54 0 157.08 0 0 Z M619 82 C617.14876525 84.20501273 615.34628074 86.4287011 613.5625 88.6875 C612.75051147 89.70928345 612.75051147 89.70928345 611.92211914 90.75170898 C608.14340899 95.51930265 604.41557836 100.32392163 600.71875 105.15527344 C596.32941129 110.89007027 591.86090324 116.56171543 587.39111328 122.23388672 C585.09125763 125.15371048 582.79584055 128.07701893 580.5 131 C579.5833549 132.16668361 578.66668823 133.33335027 577.75 134.5 C577.29625 135.0775 576.8425 135.655 576.375 136.25 C572.25 141.5 572.25 141.5 570.87573242 143.24902344 C569.95656687 144.41890016 569.03745905 145.58882223 568.1184082 146.75878906 C565.86543906 149.62671157 563.61156277 152.4939099 561.35546875 155.359375 C556.21573608 161.88985886 551.09879658 168.43749359 546 175 C540.46549557 182.12329278 534.9069184 189.22696692 529.32666016 196.31445312 C527.04913794 199.20808827 524.77475993 202.10419323 522.5 205 C521.5833477 206.16667796 520.66668105 207.33334464 519.75 208.5 C519.29625 209.0775 518.8425 209.655 518.375 210.25 C505.3125 226.875 505.3125 226.875 492.25 243.5 C491.79633057 244.07741943 491.34266113 244.65483887 490.87524414 245.24975586 C489.95784991 246.4173041 489.04036933 247.58478449 488.12280273 248.75219727 C485.84155755 251.6548279 483.56178786 254.55859274 481.28515625 257.46484375 C476.55386884 263.50131389 471.79745093 269.5159414 467 275.5 C462.96878893 280.53343498 458.94039146 285.56899885 454.9375 290.625 C454.48439453 291.19283203 454.03128906 291.76066406 453.56445312 292.34570312 C451.08748039 295.48420424 449.07377301 298.54371165 447 302 C504.09 302 561.18 302 620 302 C620 229.4 620 156.8 620 82 C619.67 82 619.34 82 619 82 Z " fill="#635D5D" transform="translate(0,0)"/>
<path d="M0 0 C16.5 0 33 0 50 0 C50 99.66 50 199.32 50 302 C33.83 302 17.66 302 1 302 C0.67 229.73 0.34 157.46 0 83 C-4.29 88.61 -8.58 94.22 -13 100 C-19.6875 108.25 -19.6875 108.25 -22.953125 112.2421875 C-26.94714248 117.14393623 -30.77749488 122.16456252 -34.61328125 127.19091797 C-42.87505062 137.96903611 -51.27251355 148.64456334 -59.67333984 159.31445312 C-61.95086206 162.20808827 -64.22524007 165.10419323 -66.5 168 C-67.4166523 169.16667796 -68.33331895 170.33334464 -69.25 171.5 C-69.70375 172.0775 -70.1575 172.655 -70.625 173.25 C-85.75 192.5 -85.75 192.5 -87.12426758 194.24902344 C-88.04343313 195.41890016 -88.96254095 196.58882223 -89.8815918 197.75878906 C-92.13456094 200.62671157 -94.38843723 203.4939099 -96.64453125 206.359375 C-101.78426441 212.88985949 -106.90110707 219.43756795 -112 226 C-120.43587893 236.8546134 -128.91831008 247.66753681 -137.51782227 258.39306641 C-142.72470631 264.89261857 -147.86427667 271.44418521 -153 278 C-154.89499516 280.41732522 -156.79107001 282.83380035 -158.6875 285.25 C-159.10265869 285.77988525 -159.51781738 286.30977051 -159.94555664 286.85571289 C-160.7769663 287.91509233 -161.62059223 288.96500422 -162.47647095 290.00471497 C-164.07901879 292.02528952 -164.07901879 292.02528952 -165.48847961 294.49185181 C-168.23450811 298.69321673 -170.31430047 301.52578552 -175.26615906 302.91882324 C-179.2833989 303.25342068 -183.1936915 303.28364748 -187.21875 303.1953125 C-188.68707001 303.19910513 -190.15538461 303.20730414 -191.62365723 303.21969604 C-195.46498999 303.24040317 -199.30345706 303.20174445 -203.14440918 303.15020752 C-207.07286623 303.10816853 -211.00107849 303.12296697 -214.9296875 303.1328125 C-222.62066037 303.1437952 -230.30949575 303.09199122 -238 303 C-235.62637746 298.95959162 -232.98181172 295.28348311 -230.0625 291.625 C-229.58232422 291.01849609 -229.10214844 290.41199219 -228.60742188 289.78710938 C-224.58495655 284.71349529 -220.53482108 279.66178697 -216.48486328 274.61010742 C-211.73595008 268.68278292 -207.04253502 262.71283279 -202.35888672 256.73388672 C-199.6171488 253.23553554 -196.86925044 249.7420205 -194.12255859 246.24755859 C-191.84143761 243.34497577 -189.56171737 240.44131727 -187.28515625 237.53515625 C-182.05509493 230.86231939 -176.786497 224.22245764 -171.48291016 217.60791016 C-166.73497767 211.6810536 -162.04193285 205.71206408 -157.35888672 199.73388672 C-154.6171488 196.23553554 -151.86925044 192.7420205 -149.12255859 189.24755859 C-146.84143761 186.34497577 -144.56171737 183.44131727 -142.28515625 180.53515625 C-137.05509493 173.86231939 -131.786497 167.22245764 -126.48291016 160.60791016 C-121.73497767 154.6810536 -117.04193285 148.71206408 -112.35888672 142.73388672 C-109.6171488 139.23553554 -106.86925044 135.7420205 -104.12255859 132.24755859 C-101.84143761 129.34497577 -99.56171737 126.44131727 -97.28515625 123.53515625 C-92.05509493 116.86231939 -86.786497 110.22245764 -81.48291016 103.60791016 C-76.73497767 97.6810536 -72.04193285 91.71206408 -67.35888672 85.73388672 C-64.6171488 82.23553554 -61.86925044 78.7420205 -59.12255859 75.24755859 C-56.84143761 72.34497577 -54.56171737 69.44131727 -52.28515625 66.53515625 C-47.05509493 59.86231939 -41.786497 53.22245764 -36.48291016 46.60791016 C-31.73625399 40.68264684 -27.04484019 34.71502653 -22.36328125 28.73828125 C-20.98419601 26.97984878 -19.60197149 25.22393021 -18.21875 23.46875 C-17.51987671 22.58135132 -17.51987671 22.58135132 -16.80688477 21.67602539 C-15.53692439 20.0637259 -14.26652758 18.4517702 -12.99609375 16.83984375 C-8.63428154 11.24967243 -4.32316408 5.6201133 0 0 Z " fill="#635D5D" transform="translate(619,0)"/>
<path d="M0 0 C1.31969748 -0.01185823 2.63939497 -0.02371646 3.99908328 -0.03593403 C5.48302695 -0.04413784 6.96697132 -0.05221513 8.45091629 -0.06017971 C10.01248952 -0.07205976 11.57405978 -0.08433638 13.13562703 -0.09697813 C17.44820166 -0.13044219 21.76079615 -0.15728836 26.07342386 -0.18286955 C29.76784676 -0.20552509 33.46224062 -0.23181826 37.15664014 -0.25797171 C72.23184666 -0.50476295 107.30781897 -0.63675205 142.38369751 -0.74338531 C146.95568551 -0.7575328 151.52767257 -0.77194901 156.09965897 -0.78660488 C157.23599979 -0.79023635 158.37234061 -0.79386781 159.543116 -0.79760932 C177.91364711 -0.85802995 196.28331479 -0.97790551 214.6533688 -1.12083942 C233.52354627 -1.26643981 252.39327595 -1.35085029 271.26399922 -1.37834543 C281.85512323 -1.39545247 292.44460999 -1.43987939 303.03516769 -1.55450535 C312.0647484 -1.65223581 321.09251651 -1.69501248 330.12262067 -1.66779441 C334.72412405 -1.65563256 339.32168199 -1.66853455 343.92251205 -1.75300503 C363.08899707 -2.08695111 378.01109047 -2.09855884 392.71552277 11.95090675 C393.39647837 12.63935334 394.07743398 13.32779993 394.7790246 14.03710854 C398.57737433 17.7312228 402.78499341 20.92620141 406.96977615 24.16774082 C402.33439309 29.17552252 396.96864732 33.13135973 391.53227615 37.23024082 C390.60350662 37.9372916 389.67473709 38.64434238 388.71782303 39.37281895 C386.14651945 41.32188536 383.5773188 43.2673881 380.96977615 45.16774082 C380.06619901 45.85561168 379.16262186 46.54348255 378.23166358 47.25219798 C374.52387731 49.42959484 372.51133992 49.66550611 368.25003624 49.65993214 C367.26968096 49.6668552 367.26968096 49.6668552 366.26952052 49.67391813 C364.0819626 49.68449655 361.89558515 49.66657167 359.70808792 49.64875889 C358.12310825 49.6505035 356.5381297 49.65400639 354.95315731 49.65911555 C350.59976277 49.66806107 346.24676176 49.65205781 341.89341736 49.63200331 C337.19818258 49.61473658 332.50297015 49.62057446 327.80771255 49.6236124 C319.67354063 49.62571026 311.53949701 49.61315555 303.40535736 49.59066105 C291.64476459 49.55815896 279.88423388 49.54773586 268.12360106 49.54270908 C249.04299405 49.53395362 229.96245541 49.50733122 210.88188553 49.46949863 C192.34640724 49.43278505 173.81094752 49.40447009 155.27544022 49.38746738 C154.13299725 49.38641649 152.99055429 49.3853656 151.81349184 49.38428286 C146.08221647 49.37906272 140.35094097 49.37400789 134.61966538 49.36903524 C87.06965504 49.3275654 39.51971893 49.25711011 -8.03022385 49.16774082 C-8.04312291 44.92034787 -8.05076842 40.67296007 -8.0575676 36.42555332 C-8.06123337 35.23937412 -8.06489914 34.05319492 -8.06867599 32.8310709 C-8.07777167 25.22449044 -7.93301306 17.64171716 -7.59272385 10.04274082 C-7.55385056 9.15973301 -7.51497726 8.2767252 -7.47492599 7.36695957 C-7.10565936 0.29502925 -6.9902451 0.05047019 0 0 Z " fill="#FC4F00" transform="translate(389.03022384643555,301.8322591781616)"/>
</svg>
