<?xml version="1.0" encoding="UTF-8"?>
<svg version="1.1" xmlns="http://www.w3.org/2000/svg" width="2000" height="753">
<path d="M0 0 C0.99 0 1.98 0 3 0 C3 0.66 3 1.32 3 2 C4.98 2 6.96 2 9 2 C9 2.66 9 3.32 9 4 C9.66 4 10.32 4 11 4 C11 4.66 11 5.32 11 6 C12.32 6.33 13.64 6.66 15 7 C15 7.66 15 8.32 15 9 C16.32 9.33 17.64 9.66 19 10 C19 10.66 19 11.32 19 12 C19.66 12 20.32 12 21 12 C21 12.66 21 13.32 21 14 C21.66 14 22.32 14 23 14 C23 14.66 23 15.32 23 16 C23.66 16 24.32 16 25 16 C25 16.66 25 17.32 25 18 C25.66 18 26.32 18 27 18 C27 18.66 27 19.32 27 20 C27.99 20 28.98 20 30 20 C30 20.66 30 21.32 30 22 C30.66 22 31.32 22 32 22 C32 22.66 32 23.32 32 24 C32.66 24 33.32 24 34 24 C34 24.66 34 25.32 34 26 C34.928125 26.4640625 34.928125 26.4640625 35.875 26.9375 C37.25 27.625 38.625 28.3125 40 29 C40 29.66 40 30.32 40 31 C41.32 31.33 42.64 31.66 44 32 C44 32.66 44 33.32 44 34 C45.32 34.33 46.64 34.66 48 35 C48 35.66 48 36.32 48 37 C48.66 37 49.32 37 50 37 C50 37.66 50 38.32 50 39 C50.66 39 51.32 39 52 39 C52 39.66 52 40.32 52 41 C52.66 41 53.32 41 54 41 C54.66 41.99 55.32 42.98 56 44 C57.485 44.495 57.485 44.495 59 45 C59 45.66 59 46.32 59 47 C59.66 47 60.32 47 61 47 C61 47.66 61 48.32 61 49 C61.66 49 62.32 49 63 49 C63 49.66 63 50.32 63 51 C63.66 51 64.32 51 65 51 C65 51.66 65 52.32 65 53 C66.98 53.495 66.98 53.495 69 54 C69 54.66 69 55.32 69 56 C70.98 56.495 70.98 56.495 73 57 C73 57.66 73 58.32 73 59 C74.98 59.495 74.98 59.495 77 60 C77 60.99 77 61.98 77 63 C78.485 63.495 78.485 63.495 80 64 C80 64.66 80 65.32 80 66 C80.99 66 81.98 66 83 66 C83.99 67.485 83.99 67.485 85 69 C86.485 69.495 86.485 69.495 88 70 C88 70.66 88 71.32 88 72 C88.66 72 89.32 72 90 72 C90 72.66 90 73.32 90 74 C90.66 74 91.32 74 92 74 C92 74.66 92 75.32 92 76 C92.66 76 93.32 76 94 76 C94 76.66 94 77.32 94 78 C95.98 78.495 95.98 78.495 98 79 C98 79.66 98 80.32 98 81 C99.98 81.495 99.98 81.495 102 82 C102 82.66 102 83.32 102 84 C102.66 84 103.32 84 104 84 C106.625 86.375 106.625 86.375 109 89 C109 89.66 109 90.32 109 91 C109.5775 91.28875 110.155 91.5775 110.75 91.875 C112.83333333 92.91666667 114.91666667 93.95833333 117 95 C117 95.66 117 96.32 117 97 C117.66 97 118.32 97 119 97 C119 97.66 119 98.32 119 99 C119.66 99 120.32 99 121 99 C121 99.66 121 100.32 121 101 C121.66 101 122.32 101 123 101 C123 101.66 123 102.32 123 103 C124.32 103.33 125.64 103.66 127 104 C127 104.66 127 105.32 127 106 C127.66 106 128.32 106 129 106 C129 106.66 129 107.32 129 108 C129.556875 108.2475 130.11375 108.495 130.6875 108.75 C133.42410913 110.22924818 135.67650869 111.93467439 138 114 C138 114.66 138 115.32 138 116 C138.66 116 139.32 116 140 116 C140 116.66 140 117.32 140 118 C140.66 118 141.32 118 142 118 C142 118.66 142 119.32 142 120 C143.32 120 144.64 120 146 120 C146 120.66 146 121.32 146 122 C146.66 122 147.32 122 148 122 C148 122.66 148 123.32 148 124 C148.66 124 149.32 124 150 124 C150 124.66 150 125.32 150 126 C150.66 126 151.32 126 152 126 C152 126.66 152 127.32 152 128 C153.32 128.33 154.64 128.66 156 129 C156 129.66 156 130.32 156 131 C156.66 131 157.32 131 158 131 C158 131.66 158 132.32 158 133 C158.556875 133.2475 159.11375 133.495 159.6875 133.75 C162.42410913 135.22924818 164.67650869 136.93467439 167 139 C167 139.66 167 140.32 167 141 C167.66 141 168.32 141 169 141 C169 141.66 169 142.32 169 143 C169.66 143 170.32 143 171 143 C171 143.66 171 144.32 171 145 C172.32 145 173.64 145 175 145 C175 145.66 175 146.32 175 147 C175.66 147 176.32 147 177 147 C177 147.66 177 148.32 177 149 C177.66 149 178.32 149 179 149 C179 149.66 179 150.32 179 151 C179.66 151 180.32 151 181 151 C183.625 153.375 183.625 153.375 186 156 C186 156.66 186 157.32 186 158 C186.53625 158.061875 187.0725 158.12375 187.625 158.1875 C191.17026157 159.40035264 193.2592392 161.44610926 196 164 C196 164.66 196 165.32 196 166 C196.66 166 197.32 166 198 166 C198 166.66 198 167.32 198 168 C198.66 168 199.32 168 200 168 C200 168.66 200 169.32 200 170 C201.32 170 202.64 170 204 170 C207 173.21428571 207 173.21428571 207 176 C207.5775 176.268125 208.155 176.53625 208.75 176.8125 C211.05550043 178.02929189 213.02056192 179.30333879 215 181 C215 181.66 215 182.32 215 183 C216.32 183.33 217.64 183.66 219 184 C219 184.66 219 185.32 219 186 C219.61875 186.309375 220.2375 186.61875 220.875 186.9375 C222.25 187.625 223.625 188.3125 225 189 C225 189.66 225 190.32 225 191 C225.66 191 226.32 191 227 191 C227 191.66 227 192.32 227 193 C227.66 193 228.32 193 229 193 C229 193.66 229 194.32 229 195 C229.8971875 195.1546875 229.8971875 195.1546875 230.8125 195.3125 C233.31258286 196.09824033 234.37535082 196.96918853 236 199 C236 199.66 236 200.32 236 201 C236.66 201 237.32 201 238 201 C238 201.66 238 202.32 238 203 C238.66 203 239.32 203 240 203 C240 203.66 240 204.32 240 205 C241.32 205.33 242.64 205.66 244 206 C244 206.66 244 207.32 244 208 C245.32 208.33 246.64 208.66 248 209 C248 209.66 248 210.32 248 211 C248.66 211 249.32 211 250 211 C250 211.66 250 212.32 250 213 C251.32 213.33 252.64 213.66 254 214 C254 214.66 254 215.32 254 216 C254.66 216 255.32 216 256 216 C256 216.66 256 217.32 256 218 C256.66 218 257.32 218 258 218 C258 218.66 258 219.32 258 220 C258.598125 220.28875 259.19625 220.5775 259.8125 220.875 C262 222 262 222 265 224 C265 224.66 265 225.32 265 226 C265.66 226 266.32 226 267 226 C267 226.66 267 227.32 267 228 C267.66 228 268.32 228 269 228 C269 228.66 269 229.32 269 230 C270.32 230.33 271.64 230.66 273 231 C273 231.66 273 232.32 273 233 C274.32 233.33 275.64 233.66 277 234 C277 234.66 277 235.32 277 236 C277.66 236 278.32 236 279 236 C279 236.66 279 237.32 279 238 C279.5775 238.0825 280.155 238.165 280.75 238.25 C283.6539336 239.21797787 285.03740604 240.68694284 287 243 C287 243.66 287 244.32 287 245 C287.598125 245.28875 288.19625 245.5775 288.8125 245.875 C291 247 291 247 294 249 C294 249.66 294 250.32 294 251 C294.66 251 295.32 251 296 251 C296 251.66 296 252.32 296 253 C296.66 253 297.32 253 298 253 C298 253.66 298 254.32 298 255 C299.32 255.33 300.64 255.66 302 256 C302 256.66 302 257.32 302 258 C303.32 258.33 304.64 258.66 306 259 C306 259.66 306 260.32 306 261 C306.66 261 307.32 261 308 261 C308 261.66 308 262.32 308 263 C308.66 263 309.32 263 310 263 C311.625 264.375 311.625 264.375 313 266 C313 266.66 313 267.32 313 268 C313.99 268 314.98 268 316 268 C317.32 269.32 318.64 270.64 320 272 C320.33 183.56 320.66 95.12 321 4 C364.23 4 407.46 4 452 4 C452.04014514 64.47001255 452.04014514 64.47001255 452.05130005 83.40760803 C452.05169472 84.07675195 452.05208938 84.74589586 452.05249601 85.43531687 C452.06574387 107.95727882 452.0762462 130.47924119 452.08468628 153.00120544 C452.08510045 154.10358034 452.08510045 154.10358034 452.08552299 155.22822544 C452.0915086 171.19937941 452.09704899 187.1705335 452.10213066 203.14168778 C452.10462536 210.9737717 452.10721847 218.80585559 452.10986328 226.63793945 C452.1101248 227.41733203 452.11038632 228.1967246 452.11065576 228.99973513 C452.11918068 254.26875598 452.13420497 279.53776789 452.15259444 304.80678332 C452.17145542 330.77080144 452.18376991 356.73481462 452.18782998 382.69883947 C452.1884063 386.36484357 452.18905758 390.03084765 452.18975449 393.69685173 C452.18995676 394.77915062 452.18995676 394.77915062 452.19016311 395.88331412 C452.19252789 407.50485298 452.20180764 419.12637655 452.21366407 430.74790917 C452.2254323 442.42731751 452.22977544 454.10670693 452.22700275 465.78612138 C452.22571839 472.11596407 452.22772415 478.44576186 452.23841095 484.77559662 C452.24811789 490.56719374 452.24865153 496.35871559 452.24179779 502.15031611 C452.24095026 504.24867862 452.24350891 506.34704576 452.24976636 508.44539911 C452.25776489 511.29249129 452.25348281 514.13930996 452.24609566 516.98639774 C452.25134968 517.80547697 452.25660371 518.62455619 452.26201695 519.468456 C452.23330071 524.34954623 451.55361346 528.36631057 450 533 C449.34 533 448.68 533 448 533 C447.5978125 533.8971875 447.5978125 533.8971875 447.1875 534.8125 C445.909485 537.16673816 445.1627663 538.41397138 443 540 C439.64453125 540.29296875 439.64453125 540.29296875 435.8125 540.1875 C434.54019531 540.16042969 433.26789063 540.13335938 431.95703125 540.10546875 C430.49330078 540.05326172 430.49330078 540.05326172 429 540 C429 539.34 429 538.68 429 538 C427.68 537.67 426.36 537.34 425 537 C425 536.34 425 535.68 425 535 C424.34 535 423.68 535 423 535 C423 534.34 423 533.68 423 533 C421.68 532.67 420.36 532.34 419 532 C419 531.34 419 530.68 419 530 C418.34 530 417.68 530 417 530 C417 529.34 417 528.68 417 528 C416.34 528 415.68 528 415 528 C415 527.34 415 526.68 415 526 C414.401875 525.71125 413.80375 525.4225 413.1875 525.125 C411 524 411 524 408 522 C408 521.34 408 520.68 408 520 C407.34 520 406.68 520 406 520 C406 519.34 406 518.68 406 518 C405.34 518 404.68 518 404 518 C404 517.34 404 516.68 404 516 C402.68 515.67 401.36 515.34 400 515 C400 514.34 400 513.68 400 513 C398.68 512.67 397.36 512.34 396 512 C396 511.34 396 510.68 396 510 C395.34 510 394.68 510 394 510 C394 509.34 394 508.68 394 508 C392.68 507.67 391.36 507.34 390 507 C390 506.34 390 505.68 390 505 C389.34 505 388.68 505 388 505 C388 504.34 388 503.68 388 503 C387.34 503 386.68 503 386 503 C386 502.34 386 501.68 386 501 C385.34 501 384.68 501 384 501 C384 500.34 384 499.68 384 499 C382.35 498.34 380.7 497.68 379 497 C379 496.34 379 495.68 379 495 C378.34 495 377.68 495 377 495 C377 494.34 377 493.68 377 493 C376.34 493 375.68 493 375 493 C375 492.34 375 491.68 375 491 C373.68 490.67 372.36 490.34 371 490 C371 489.34 371 488.68 371 488 C369.68 487.67 368.36 487.34 367 487 C367 486.34 367 485.68 367 485 C366.34 485 365.68 485 365 485 C365 484.34 365 483.68 365 483 C364.34 483 363.68 483 363 483 C361.375 481.625 361.375 481.625 360 480 C360 479.34 360 478.68 360 478 C359.01 478 358.02 478 357 478 C356.34 477.01 355.68 476.02 355 475 C354.01 474.67 353.02 474.34 352 474 C352 473.34 352 472.68 352 472 C351.34 472 350.68 472 350 472 C350 471.34 350 470.68 350 470 C349.34 470 348.68 470 348 470 C348 469.34 348 468.68 348 468 C347.34 468 346.68 468 346 468 C346 467.34 346 466.68 346 466 C345.34 466 344.68 466 344 466 C344 465.34 344 464.68 344 464 C342.68 463.67 341.36 463.34 340 463 C340 462.34 340 461.68 340 461 C339.43796875 460.7525 338.8759375 460.505 338.296875 460.25 C335.60907431 458.78725133 333.53594518 457.03195127 331.25 455 C330.05117187 453.948125 330.05117187 453.948125 328.828125 452.875 C327 451 327 451 327 449 C325.68 449 324.36 449 323 449 C320.75 447.125 320.75 447.125 319 445 C319 444.34 319 443.68 319 443 C318.34 443 317.68 443 317 443 C317 442.34 317 441.68 317 441 C316.34 441 315.68 441 315 441 C315 440.34 315 439.68 315 439 C313.68 438.67 312.36 438.34 311 438 C311 437.34 311 436.68 311 436 C310.41734375 435.731875 309.8346875 435.46375 309.234375 435.1875 C306.97213399 433.98519009 305.19423682 432.66174087 303.25 431 C302.63640625 430.484375 302.0228125 429.96875 301.390625 429.4375 C300 428 300 428 300 426 C299.34 426 298.68 426 298 426 C298 425.34 298 424.68 298 424 C296.02 423.34 294.04 422.68 292 422 C292 421.34 292 420.68 292 420 C291.34 420 290.68 420 290 420 C290 419.34 290 418.68 290 418 C289.34 418 288.68 418 288 418 C288 417.34 288 416.68 288 416 C287.34 416 286.68 416 286 416 C286 415.34 286 414.68 286 414 C285.401875 413.71125 284.80375 413.4225 284.1875 413.125 C282 412 282 412 279 410 C279 409.34 279 408.68 279 408 C278.34 408 277.68 408 277 408 C277 407.34 277 406.68 277 406 C276.34 406 275.68 406 275 406 C275 405.34 275 404.68 275 404 C273.68 403.67 272.36 403.34 271 403 C271 402.34 271 401.68 271 401 C270.34 401 269.68 401 269 401 C269 400.34 269 399.68 269 399 C267.02 398.34 265.04 397.68 263 397 C263 396.34 263 395.68 263 395 C262.34 395 261.68 395 261 395 C259.17270951 393.06469234 257.53104622 391.00952377 255.8515625 388.9453125 C253.99402052 386.99371776 252.46528691 386.031728 250 385 C250 384.34 250 383.68 250 383 C249.34 383 248.68 383 248 383 C248 382.34 248 381.68 248 381 C247.34 381 246.68 381 246 381 C246 380.34 246 379.68 246 379 C244.68 378.67 243.36 378.34 242 378 C242 377.34 242 376.68 242 376 C241.34 376 240.68 376 240 376 C240 375.34 240 374.68 240 374 C239.34 374 238.68 374 238 374 C238 373.34 238 372.68 238 372 C237.360625 371.896875 236.72125 371.79375 236.0625 371.6875 C235.381875 371.460625 234.70125 371.23375 234 371 C233.67 370.01 233.34 369.02 233 368 C232.34 368 231.68 368 231 368 C231 367.34 231 366.68 231 366 C230.34 366 229.68 366 229 366 C229 365.34 229 364.68 229 364 C228.34 364 227.68 364 227 364 C227 363.34 227 362.68 227 362 C225.68 361.67 224.36 361.34 223 361 C223 360.34 223 359.68 223 359 C221.68 358.67 220.36 358.34 219 358 C219 357.34 219 356.68 219 356 C218.34 356 217.68 356 217 356 C217 355.34 217 354.68 217 354 C215.68 353.67 214.36 353.34 213 353 C213 352.34 213 351.68 213 351 C212.34 351 211.68 351 211 351 C211 350.34 211 349.68 211 349 C210.34 349 209.68 349 209 349 C209 348.34 209 347.68 209 347 C208.401875 346.71125 207.80375 346.4225 207.1875 346.125 C205 345 205 345 202 343 C202 342.34 202 341.68 202 341 C201.34 341 200.68 341 200 341 C200 340.34 200 339.68 200 339 C199.34 339 198.68 339 198 339 C198 338.34 198 337.68 198 337 C196.68 336.67 195.36 336.34 194 336 C194 335.34 194 334.68 194 334 C192.68 333.67 191.36 333.34 190 333 C190 332.34 190 331.68 190 331 C189.34 331 188.68 331 188 331 C188 330.34 188 329.68 188 329 C187.34 329 186.68 329 186 329 C186 328.34 186 327.68 186 327 C184.68 326.67 183.36 326.34 182 326 C182 325.34 182 324.68 182 324 C181.34 324 180.68 324 180 324 C180 323.34 180 322.68 180 322 C179.34 322 178.68 322 178 322 C178 321.34 178 320.68 178 320 C176.35 319.34 174.7 318.68 173 318 C173 317.34 173 316.68 173 316 C172.34 316 171.68 316 171 316 C171 315.34 171 314.68 171 314 C170.34 314 169.68 314 169 314 C169 313.34 169 312.68 169 312 C168.34 312 167.68 312 167 312 C167 311.34 167 310.68 167 310 C165.02 309.34 163.04 308.68 161 308 C161 307.34 161 306.68 161 306 C160.34 306 159.68 306 159 306 C159 305.34 159 304.68 159 304 C158.34 304 157.68 304 157 304 C155.375 302.625 155.375 302.625 154 301 C154 300.34 154 299.68 154 299 C153.01 299 152.02 299 151 299 C150.67 297.68 150.34 296.36 150 295 C148.68 295 147.36 295 146 295 C146 294.34 146 293.68 146 293 C145.34 293 144.68 293 144 293 C144 292.34 144 291.68 144 291 C143.34 291 142.68 291 142 291 C142 290.34 142 289.68 142 289 C141.34 289 140.68 289 140 289 C140 288.34 140 287.68 140 287 C139.34 287 138.68 287 138 287 C138 286.34 138 285.68 138 285 C136.68 284.67 135.36 284.34 134 284 C134 283.34 134 282.68 134 282 C133.41734375 281.731875 132.8346875 281.46375 132.234375 281.1875 C129.97213399 279.98519009 128.19423682 278.66174087 126.25 277 C125.63640625 276.484375 125.0228125 275.96875 124.390625 275.4375 C123 274 123 274 123 272 C122.34 272 121.68 272 121 272 C121 271.34 121 270.68 121 270 C120.01 270 119.02 270 118 270 C117.505 402.66 117.505 402.66 117 538 C74.1 538 31.2 538 -13 538 C-14.82029221 536.17970779 -14.12378041 533.65605274 -14.13100848 531.23299542 C-14.12838146 530.39494542 -14.12575445 529.55689543 -14.12304783 528.69344997 C-14.12420167 527.80758832 -14.12535552 526.92172666 -14.12654433 526.00902072 C-14.12921884 523.00155524 -14.12468202 519.99414191 -14.12025452 516.98667908 C-14.12069005 514.8244205 -14.12156462 512.66216198 -14.12284368 510.49990374 C-14.12509219 504.52773174 -14.12106253 498.55557749 -14.11606562 492.58340776 C-14.11176638 486.15459909 -14.11320717 479.72579151 -14.1139679 473.29698181 C-14.11449347 462.14852086 -14.11137795 451.00006583 -14.10573006 439.85160637 C-14.09981961 428.15498769 -14.09596544 416.45837134 -14.09487724 404.76175117 C-14.0948085 404.0353742 -14.09473976 403.30899723 -14.09466894 402.56060883 C-14.09433062 398.87193426 -14.09402923 395.18325968 -14.09374207 391.4945851 C-14.09163984 365.34559096 -14.08489741 339.19659985 -14.07543945 313.04760742 C-14.0662599 287.63907894 -14.0591739 262.23055129 -14.05493164 236.82202148 C-14.05480011 236.03926771 -14.05466859 235.25651394 -14.05453308 234.45004036 C-14.05321459 226.58953842 -14.05193877 218.72903648 -14.05069422 210.86853454 C-14.04815778 194.8547849 -14.04533653 178.84103532 -14.04234314 162.82728577 C-14.04220585 162.09094686 -14.04206856 161.35460796 -14.04192711 160.59595575 C-14.03272139 111.39730254 -14.01685486 62.19865112 -14 13 C-13.34 13 -12.68 13 -12 13 C-12 11.35 -12 9.7 -12 8 C-11.34 8 -10.68 8 -10 8 C-10 7.34 -10 6.68 -10 6 C-8.375 3.875 -8.375 3.875 -6 2 C-2.75 1.75 -2.75 1.75 0 2 C0 1.34 0 0.68 0 0 Z " fill="#7C4CA2" transform="translate(999,213)"/>
<path d="M0 0 C175.23 0 350.46 0 531 0 C531 0.66 531 1.32 531 2 C532.32 2.33 533.64 2.66 535 3 C535 3.66 535 4.32 535 5 C535.66 5 536.32 5 537 5 C539.14336161 8.4766338 539.21277626 11.21229195 539.125 15.25 C539.10695313 16.32765625 539.08890625 17.4053125 539.0703125 18.515625 C539.03550781 19.74539062 539.03550781 19.74539062 539 21 C538.34 21 537.68 21 537 21 C537 21.99 537 22.98 537 24 C536.34 24 535.68 24 535 24 C534.71125 24.598125 534.4225 25.19625 534.125 25.8125 C533 28 533 28 531 31 C530.34 31 529.68 31 529 31 C529 31.66 529 32.32 529 33 C528.34 33 527.68 33 527 33 C526.67 34.32 526.34 35.64 526 37 C525.34 37 524.68 37 524 37 C524 37.66 524 38.32 524 39 C523.34 39 522.68 39 522 39 C522 39.99 522 40.98 522 42 C521.34 42 520.68 42 520 42 C520 42.66 520 43.32 520 44 C519.34 44 518.68 44 518 44 C518 44.66 518 45.32 518 46 C517.34 46 516.68 46 516 46 C516 46.66 516 47.32 516 48 C515.34 48 514.68 48 514 48 C514 48.66 514 49.32 514 50 C513.34 50 512.68 50 512 50 C511.34 51.65 510.68 53.3 510 55 C509.34 55 508.68 55 508 55 C507.7525 55.556875 507.505 56.11375 507.25 56.6875 C505.78414946 59.3993235 503.94544301 61.6152634 502 64 C501.67 64.66 501.34 65.32 501 66 C500.34 66 499.68 66 499 66 C499 66.66 499 67.32 499 68 C498.34 68 497.68 68 497 68 C497 68.99 497 69.98 497 71 C496.34 71 495.68 71 495 71 C495 71.66 495 72.32 495 73 C494.34 73 493.68 73 493 73 C493 73.66 493 74.32 493 75 C492.34 75 491.68 75 491 75 C491 75.66 491 76.32 491 77 C490.34 77 489.68 77 489 77 C489 77.66 489 78.32 489 79 C488.34 79 487.68 79 487 79 C486.34 80.65 485.68 82.3 485 84 C484.34 84 483.68 84 483 84 C482.73316406 84.58523438 482.46632813 85.17046875 482.19140625 85.7734375 C480.98062783 88.03620373 479.6463301 89.71883571 477.9375 91.625 C476.33621517 93.4181258 475.07671842 94.84656316 474 97 C473.34 97 472.68 97 472 97 C472 97.99 472 98.98 472 100 C471.34 100 470.68 100 470 100 C469.34 101.32 468.68 102.64 468 104 C467.34 104 466.68 104 466 104 C466 104.66 466 105.32 466 106 C465.34 106 464.68 106 464 106 C464 106.66 464 107.32 464 108 C463.34 108 462.68 108 462 108 C462 108.66 462 109.32 462 110 C461.34 110 460.68 110 460 110 C459.34 111.65 458.68 113.3 458 115 C457.34 115 456.68 115 456 115 C455.7525 115.5775 455.505 116.155 455.25 116.75 C453.83400344 119.29879381 452.05276785 120.94723215 450 123 C449.67 123.99 449.34 124.98 449 126 C448.34 126 447.68 126 447 126 C447 126.99 447 127.98 447 129 C446.34 129 445.68 129 445 129 C444.34 130.32 443.68 131.64 443 133 C442.34 133 441.68 133 441 133 C441 133.66 441 134.32 441 135 C440.34 135 439.68 135 439 135 C439 135.66 439 136.32 439 137 C438.34 137 437.68 137 437 137 C437 137.66 437 138.32 437 139 C436.34 139 435.68 139 435 139 C435 139.66 435 140.32 435 141 C434.34 141 433.68 141 433 141 C433 141.99 433 142.98 433 144 C432.34 144 431.68 144 431 144 C431 144.66 431 145.32 431 146 C430.34 146 429.68 146 429 146 C429 146.66 429 147.32 429 148 C428.34 148 427.68 148 427 148 C426.690625 148.61875 426.38125 149.2375 426.0625 149.875 C425.375 151.25 424.6875 152.625 424 154 C423.34 154 422.68 154 422 154 C422 154.99 422 155.98 422 157 C421.34 157 420.68 157 420 157 C419.67 157.99 419.34 158.98 419 160 C418.67 160.66 418.34 161.32 418 162 C417.34 162 416.68 162 416 162 C416 162.66 416 163.32 416 164 C415.34 164 414.68 164 414 164 C414 164.66 414 165.32 414 166 C413.34 166 412.68 166 412 166 C412 166.66 412 167.32 412 168 C411.34 168 410.68 168 410 168 C410 168.66 410 169.32 410 170 C409.34 170 408.68 170 408 170 C408 170.99 408 171.98 408 173 C407.34 173 406.68 173 406 173 C406 173.66 406 174.32 406 175 C405.34 175 404.68 175 404 175 C404 175.66 404 176.32 404 177 C403.34 177 402.68 177 402 177 C401.731875 177.556875 401.46375 178.11375 401.1875 178.6875 C399.89100504 181.21225334 398.57523677 183.63714484 397 186 C396.34 186 395.68 186 395 186 C395 186.66 395 187.32 395 188 C394.34 188 393.68 188 393 188 C392.67 188.99 392.34 189.98 392 191 C391.67 191.66 391.34 192.32 391 193 C390.34 193 389.68 193 389 193 C389 193.66 389 194.32 389 195 C388.34 195 387.68 195 387 195 C387 195.66 387 196.32 387 197 C386.34 197 385.68 197 385 197 C385 197.66 385 198.32 385 199 C384.34 199 383.68 199 383 199 C383 199.99 383 200.98 383 202 C382.34 202 381.68 202 381 202 C381 202.66 381 203.32 381 204 C380.34 204 379.68 204 379 204 C379 204.66 379 205.32 379 206 C378.34 206 377.68 206 377 206 C377 206.66 377 207.32 377 208 C376.34 208 375.68 208 375 208 C375 208.66 375 209.32 375 210 C374.34 210 373.68 210 373 210 C372.67 211.65 372.34 213.3 372 215 C371.34 215 370.68 215 370 215 C370 215.66 370 216.32 370 217 C369.34 217 368.68 217 368 217 C368 217.66 368 218.32 368 219 C367.34 219 366.68 219 366 219 C365.67 219.99 365.34 220.98 365 222 C363.5625 224.1875 363.5625 224.1875 362 226 C361.34 226 360.68 226 360 226 C360 226.66 360 227.32 360 228 C359.34 228 358.68 228 358 228 C358 228.99 358 229.98 358 231 C356.125 233.1875 356.125 233.1875 354 235 C353.34 235 352.68 235 352 235 C352 235.66 352 236.32 352 237 C351.34 237 350.68 237 350 237 C350 237.66 350 238.32 350 239 C349.34 239 348.68 239 348 239 C347.67 240.32 347.34 241.64 347 243 C346.34 243 345.68 243 345 243 C345 243.99 345 244.98 345 246 C344.34 246 343.68 246 343 246 C343 246.66 343 247.32 343 248 C342.34 248 341.68 248 341 248 C341 248.66 341 249.32 341 250 C340.34 250 339.68 250 339 250 C339 250.66 339 251.32 339 252 C338.34 252 337.68 252 337 252 C337 252.99 337 253.98 337 255 C336.34 255 335.68 255 335 255 C335 255.66 335 256.32 335 257 C334.34 257 333.68 257 333 257 C332.71125 257.598125 332.4225 258.19625 332.125 258.8125 C331 261 331 261 329 264 C328.34 264 327.68 264 327 264 C327 264.66 327 265.32 327 266 C326.34 266 325.68 266 325 266 C325 266.66 325 267.32 325 268 C324.34 268 323.68 268 323 268 C322.67 269.32 322.34 270.64 322 272 C321.34 272 320.68 272 320 272 C320 272.99 320 273.98 320 275 C319.34 275 318.68 275 318 275 C318 275.66 318 276.32 318 277 C317.34 277 316.68 277 316 277 C316 277.66 316 278.32 316 279 C315.34 279 314.68 279 314 279 C314 279.66 314 280.32 314 281 C313.34 281 312.68 281 312 281 C312 281.66 312 282.32 312 283 C311.34 283 310.68 283 310 283 C309.62875 284.175625 309.62875 284.175625 309.25 285.375 C307.77860006 288.46493987 306.92681545 288.53659227 304 290 C302.71745356 292.53770003 302.71745356 292.53770003 302 295 C301.34 295 300.68 295 300 295 C300 295.66 300 296.32 300 297 C299.34 297 298.68 297 298 297 C297.67 298.32 297.34 299.64 297 301 C296.34 301 295.68 301 295 301 C295 301.99 295 302.98 295 304 C294.34 304 293.68 304 293 304 C293 304.66 293 305.32 293 306 C292.34 306 291.68 306 291 306 C291 306.66 291 307.32 291 308 C290.34 308 289.68 308 289 308 C289 308.66 289 309.32 289 310 C288.34 310 287.68 310 287 310 C287 310.66 287 311.32 287 312 C286.34 312 285.68 312 285 312 C285 312.66 285 313.32 285 314 C284.34 314 283.68 314 283 314 C283 314.99 283 315.98 283 317 C282.34 317 281.68 317 281 317 C281 317.66 281 318.32 281 319 C280.34 319 279.68 319 279 319 C278.7421875 319.56203125 278.484375 320.1240625 278.21875 320.703125 C276.85830223 323.26704579 275.27211038 325.45226365 273.5 327.75 C272.8915625 328.54921875 272.283125 329.3484375 271.65625 330.171875 C271.1096875 330.77515625 270.563125 331.3784375 270 332 C269.34 332 268.68 332 268 332 C268 332.99 268 333.98 268 335 C267.34 335 266.68 335 266 335 C266 335.66 266 336.32 266 337 C265.34 337 264.68 337 264 337 C264 337.66 264 338.32 264 339 C263.34 339 262.68 339 262 339 C262 339.66 262 340.32 262 341 C261.34 341 260.68 341 260 341 C260 341.66 260 342.32 260 343 C259.34 343 258.68 343 258 343 C258 343.99 258 344.98 258 346 C257.34 346 256.68 346 256 346 C256 346.66 256 347.32 256 348 C255.34 348 254.68 348 254 348 C254 348.66 254 349.32 254 350 C253.34 350 252.68 350 252 350 C251.5978125 350.86625 251.5978125 350.86625 251.1875 351.75 C249.97070811 354.05550043 248.69666121 356.02056192 247 358 C246.34 358 245.68 358 245 358 C244.7525 358.94875 244.505 359.8975 244.25 360.875 C243 364 243 364 240.875 365.375 C240.25625 365.58125 239.6375 365.7875 239 366 C239 366.66 239 367.32 239 368 C238.34 368 237.68 368 237 368 C237 368.66 237 369.32 237 370 C236.34 370 235.68 370 235 370 C235 370.66 235 371.32 235 372 C234.34 372 233.68 372 233 372 C233 372.99 233 373.98 233 375 C232.34 375 231.68 375 231 375 C231 375.66 231 376.32 231 377 C230.34 377 229.68 377 229 377 C229 377.66 229 378.32 229 379 C228.34 379 227.68 379 227 379 C226.34 380.32 225.68 381.64 225 383 C224.34 383 223.68 383 223 383 C222.67 384.32 222.34 385.64 222 387 C221.34 387 220.68 387 220 387 C219.34 388.65 218.68 390.3 218 392 C217.34 392 216.68 392 216 392 C215.67 392.99 215.34 393.98 215 395 C214.67 395.66 214.34 396.32 214 397 C213.34 397 212.68 397 212 397 C212 397.66 212 398.32 212 399 C211.34 399 210.68 399 210 399 C210 399.66 210 400.32 210 401 C209.34 401 208.68 401 208 401 C208 401.66 208 402.32 208 403 C207.34 403 206.68 403 206 403 C206 403.99 206 404.98 206 406 C205.34 406 204.68 406 204 406 C204 406.66 204 407.32 204 408 C203.34 408 202.68 408 202 408 C202 408.66 202 409.32 202 410 C201.34 410 200.68 410 200 410 C200 410.66 200 411.32 200 412 C199.34 412 198.68 412 198 412 C197.67 413.32 197.34 414.64 197 416 C196.34 416 195.68 416 195 416 C194.62875 416.804375 194.62875 416.804375 194.25 417.625 C192.69347463 420.5823982 190.96564327 423.29724051 189 426 C188.34 426 187.68 426 187 426 C186.34 427.32 185.68 428.64 185 430 C184.34 430 183.68 430 183 430 C183 430.66 183 431.32 183 432 C182.34 432 181.68 432 181 432 C181 432.99 181 433.98 181 435 C180.34 435 179.68 435 179 435 C179 435.66 179 436.32 179 437 C178.34 437 177.68 437 177 437 C177 437.66 177 438.32 177 439 C176.34 439 175.68 439 175 439 C175 439.66 175 440.32 175 441 C174.34 441 173.68 441 173 441 C172.6596875 441.7734375 172.6596875 441.7734375 172.3125 442.5625 C170.51782382 445.89547005 168.50034985 449.14703671 166 452 C165.34 452 164.68 452 164 452 C163.67 452.99 163.34 453.98 163 455 C162.01 455.33 161.02 455.66 160 456 C160 456.99 160 457.98 160 459 C159.34 459 158.68 459 158 459 C158 459.66 158 460.32 158 461 C157.34 461 156.68 461 156 461 C156 461.99 156 462.98 156 464 C155.34 464 154.68 464 154 464 C154 464.66 154 465.32 154 466 C153.34 466 152.68 466 152 466 C152 466.66 152 467.32 152 468 C151.34 468 150.68 468 150 468 C150 468.66 150 469.32 150 470 C149.34 470 148.68 470 148 470 C148 470.66 148 471.32 148 472 C147.34 472 146.68 472 146 472 C145.731875 472.7425 145.46375 473.485 145.1875 474.25 C144.04723249 476.89061949 142.90619694 478.85552844 141 481 C140.34 481 139.68 481 139 481 C139 481.66 139 482.32 139 483 C138.34 483 137.68 483 137 483 C137 483.66 137 484.32 137 485 C136.34 485 135.68 485 135 485 C135 485.99 135 486.98 135 488 C134.34 488 133.68 488 133 488 C132.34 489.32 131.68 490.64 131 492 C130.34 492 129.68 492 129 492 C129 492.99 129 493.98 129 495 C128.34 495 127.68 495 127 495 C127 495.66 127 496.32 127 497 C126.34 497 125.68 497 125 497 C125 497.66 125 498.32 125 499 C124.34 499 123.68 499 123 499 C123 499.66 123 500.32 123 501 C122.34 501 121.68 501 121 501 C120.6596875 501.7734375 120.6596875 501.7734375 120.3125 502.5625 C118.51782382 505.89547005 116.50034985 509.14703671 114 512 C113.34 512 112.68 512 112 512 C112 512.66 112 513.32 112 514 C111.34 514 110.68 514 110 514 C109.67 514.99 109.34 515.98 109 517 C108.01 517.33 107.02 517.66 106 518 C106 518.99 106 519.98 106 521 C105.34 521 104.68 521 104 521 C103.566875 521.8971875 103.566875 521.8971875 103.125 522.8125 C102 525 102 525 100 528 C99.34 528 98.68 528 98 528 C98 528.66 98 529.32 98 530 C97.34 530 96.68 530 96 530 C95.67 531.32 95.34 532.64 95 534 C46.49 534 -2.02 534 -52 534 C-52 533.34 -52 532.68 -52 532 C-52.99 531.67 -53.98 531.34 -55 531 C-55.495 529.515 -55.495 529.515 -56 528 C-56.66 528 -57.32 528 -58 528 C-58 522.06 -58 516.12 -58 510 C-57.34 510 -56.68 510 -56 510 C-56 509.01 -56 508.02 -56 507 C-55.34 507 -54.68 507 -54 507 C-54 506.34 -54 505.68 -54 505 C-53.34 505 -52.68 505 -52 505 C-52 504.34 -52 503.68 -52 503 C-51.34 503 -50.68 503 -50 503 C-50 502.34 -50 501.68 -50 501 C-49.34 501 -48.68 501 -48 501 C-48 500.34 -48 499.68 -48 499 C-47.34 499 -46.68 499 -46 499 C-45.7421875 498.43796875 -45.484375 497.8759375 -45.21875 497.296875 C-43.85830223 494.73295421 -42.27211038 492.54773635 -40.5 490.25 C-39.8915625 489.45078125 -39.283125 488.6515625 -38.65625 487.828125 C-38.1096875 487.22484375 -37.563125 486.6215625 -37 486 C-36.34 486 -35.68 486 -35 486 C-35 485.34 -35 484.68 -35 484 C-34.34 484 -33.68 484 -33 484 C-33 483.01 -33 482.02 -33 481 C-32.34 481 -31.68 481 -31 481 C-31 480.34 -31 479.68 -31 479 C-30.34 479 -29.68 479 -29 479 C-29 478.01 -29 477.02 -29 476 C-27.68 475.67 -26.36 475.34 -25 475 C-25 474.01 -25 473.02 -25 472 C-23.125 469.8125 -23.125 469.8125 -21 468 C-20.34 468 -19.68 468 -19 468 C-19 467.34 -19 466.68 -19 466 C-18.34 466 -17.68 466 -17 466 C-16.5978125 465.1646875 -16.5978125 465.1646875 -16.1875 464.3125 C-14.89100504 461.78774666 -13.57523677 459.36285516 -12 457 C-11.34 457 -10.68 457 -10 457 C-10 456.34 -10 455.68 -10 455 C-9.34 455 -8.68 455 -8 455 C-8 454.34 -8 453.68 -8 453 C-7.34 453 -6.68 453 -6 453 C-6 452.34 -6 451.68 -6 451 C-5.34 451 -4.68 451 -4 451 C-4 450.34 -4 449.68 -4 449 C-3.34 449 -2.68 449 -2 449 C-2 448.01 -2 447.02 -2 446 C-1.34 446 -0.68 446 0 446 C0 445.34 0 444.68 0 444 C0.66 444 1.32 444 2 444 C2 443.34 2 442.68 2 442 C2.66 442 3.32 442 4 442 C4 441.34 4 440.68 4 440 C4.66 440 5.32 440 6 440 C6.226875 439.484375 6.45375 438.96875 6.6875 438.4375 C8.48217618 435.10452995 10.49965015 431.85296329 13 429 C13.66 429 14.32 429 15 429 C15.33 428.01 15.66 427.02 16 426 C16.33 425.34 16.66 424.68 17 424 C17.66 424 18.32 424 19 424 C19 423.34 19 422.68 19 422 C19.66 422 20.32 422 21 422 C21 421.34 21 420.68 21 420 C21.66 420 22.32 420 23 420 C23 419.34 23 418.68 23 418 C23.66 418 24.32 418 25 418 C25 417.34 25 416.68 25 416 C25.66 416 26.32 416 27 416 C27 415.01 27 414.02 27 413 C27.66 413 28.32 413 29 413 C29 412.34 29 411.68 29 411 C29.66 411 30.32 411 31 411 C31 410.34 31 409.68 31 409 C31.66 409 32.32 409 33 409 C33 408.34 33 407.68 33 407 C33.66 407 34.32 407 35 407 C35.4021875 406.1646875 35.4021875 406.1646875 35.8125 405.3125 C37.10899496 402.78774666 38.42476323 400.36285516 40 398 C40.66 398 41.32 398 42 398 C42 397.34 42 396.68 42 396 C42.66 396 43.32 396 44 396 C44.33 395.01 44.66 394.02 45 393 C45.99 392.67 46.98 392.34 48 392 C48 391.01 48 390.02 48 389 C49.875 386.8125 49.875 386.8125 52 385 C52.66 385 53.32 385 54 385 C54 384.34 54 383.68 54 383 C54.66 383 55.32 383 56 383 C56 382.01 56 381.02 56 380 C56.66 380 57.32 380 58 380 C58 379.34 58 378.68 58 378 C58.66 378 59.32 378 60 378 C60 377.34 60 376.68 60 376 C60.66 376 61.32 376 62 376 C62 375.34 62 374.68 62 374 C62.66 374 63.32 374 64 374 C64.33 372.68 64.66 371.36 65 370 C65.66 370 66.32 370 67 370 C67 369.34 67 368.68 67 368 C67.66 368 68.32 368 69 368 C69 367.01 69 366.02 69 365 C69.66 365 70.32 365 71 365 C71 364.34 71 363.68 71 363 C71.66 363 72.32 363 73 363 C73 362.34 73 361.68 73 361 C73.66 361 74.32 361 75 361 C75 360.34 75 359.68 75 359 C75.66 359 76.32 359 77 359 C77 358.34 77 357.68 77 357 C77.66 357 78.32 357 79 357 C79 356.01 79 355.02 79 354 C79.66 354 80.32 354 81 354 C81 353.34 81 352.68 81 352 C81.66 352 82.32 352 83 352 C83.37125 351.13375 83.37125 351.13375 83.75 350.25 C85.16599656 347.70120619 86.94723215 346.05276785 89 344 C89.33 343.01 89.66 342.02 90 341 C90.66 341 91.32 341 92 341 C92 340.34 92 339.68 92 339 C92.66 339 93.32 339 94 339 C94 338.34 94 337.68 94 337 C94.66 337 95.32 337 96 337 C96 336.01 96 335.02 96 334 C96.66 334 97.32 334 98 334 C98 333.34 98 332.68 98 332 C98.66 332 99.32 332 100 332 C100 331.34 100 330.68 100 330 C100.66 330 101.32 330 102 330 C102 329.34 102 328.68 102 328 C102.66 328 103.32 328 104 328 C104 327.34 104 326.68 104 326 C104.66 326 105.32 326 106 326 C106 325.34 106 324.68 106 324 C106.66 324 107.32 324 108 324 C108.40412109 323.11634766 108.40412109 323.11634766 108.81640625 322.21484375 C109.99507327 320.00921933 111.26222879 318.40828228 112.9375 316.5625 C114.80469322 314.45569119 116.20480358 312.64553227 117.625 310.1875 C119.16398194 307.73911965 120.33195906 307.01201553 123 306 C123 305.34 123 304.68 123 304 C123.66 304 124.32 304 125 304 C125 303.01 125 302.02 125 301 C125.66 301 126.32 301 127 301 C127 300.34 127 299.68 127 299 C127.66 299 128.32 299 129 299 C129 298.34 129 297.68 129 297 C129.66 297 130.32 297 131 297 C131 296.34 131 295.68 131 295 C131.66 295 132.32 295 133 295 C133 294.34 133 293.68 133 293 C133.66 293 134.32 293 135 293 C135.3403125 292.2265625 135.3403125 292.2265625 135.6875 291.4375 C137.48217618 288.10452995 139.49965015 284.85296329 142 282 C142.66 282 143.32 282 144 282 C144 281.34 144 280.68 144 280 C144.66 280 145.32 280 146 280 C146 279.34 146 278.68 146 278 C146.66 278 147.32 278 148 278 C148 277.34 148 276.68 148 276 C148.66 276 149.32 276 150 276 C150 275.01 150 274.02 150 273 C150.66 273 151.32 273 152 273 C152 272.34 152 271.68 152 271 C152.66 271 153.32 271 154 271 C154 270.34 154 269.68 154 269 C154.66 269 155.32 269 156 269 C156.24878906 268.43152344 156.49757813 267.86304688 156.75390625 267.27734375 C158.18762404 264.6571009 159.9040904 262.747374 161.9375 260.5625 C164.1603891 258.17341358 165.97758983 256.03831763 167.62890625 253.21484375 C168.30759766 252.11849609 168.30759766 252.11849609 169 251 C169.66 251 170.32 251 171 251 C171 250.34 171 249.68 171 249 C171.66 249 172.32 249 173 249 C173 248.34 173 247.68 173 247 C173.66 247 174.32 247 175 247 C175 246.34 175 245.68 175 245 C175.66 245 176.32 245 177 245 C177 244.34 177 243.68 177 243 C177.66 243 178.32 243 179 243 C179 242.34 179 241.68 179 241 C179.66 241 180.32 241 181 241 C181 240.01 181 239.02 181 238 C181.66 238 182.32 238 183 238 C183 237.34 183 236.68 183 236 C183.66 236 184.32 236 185 236 C185.26683594 235.41347656 185.53367187 234.82695312 185.80859375 234.22265625 C187.37172119 231.30652669 189.44313515 229.11743843 191.66015625 226.68359375 C193.21478916 224.92781556 193.21478916 224.92781556 194 222 C194.66 222 195.32 222 196 222 C196.66 220.68 197.32 219.36 198 218 C198.66 218 199.32 218 200 218 C200 217.34 200 216.68 200 216 C200.66 216 201.32 216 202 216 C202 215.34 202 214.68 202 214 C202.66 214 203.32 214 204 214 C204 213.34 204 212.68 204 212 C204.66 212 205.32 212 206 212 C206 211.34 206 210.68 206 210 C206.66 210 207.32 210 208 210 C208 209.01 208 208.02 208 207 C208.66 207 209.32 207 210 207 C210 206.34 210 205.68 210 205 C210.66 205 211.32 205 212 205 C212 204.34 212 203.68 212 203 C212.66 203 213.32 203 214 203 C214 202.34 214 201.68 214 201 C214.66 201 215.32 201 216 201 C216.309375 200.38125 216.61875 199.7625 216.9375 199.125 C217.625 197.75 218.3125 196.375 219 195 C219.66 195 220.32 195 221 195 C221 194.01 221 193.02 221 192 C221.66 192 222.32 192 223 192 C223 191.34 223 190.68 223 190 C223.66 190 224.32 190 225 190 C225 189.34 225 188.68 225 188 C225.66 188 226.32 188 227 188 C227 187.34 227 186.68 227 186 C227.66 186 228.32 186 229 186 C229 185.01 229 184.02 229 183 C229.66 183 230.32 183 231 183 C231 182.34 231 181.68 231 181 C231.66 181 232.32 181 233 181 C233 180.34 233 179.68 233 179 C233.66 179 234.32 179 235 179 C235 178.34 235 177.68 235 177 C235.66 177 236.32 177 237 177 C237 176.01 237 175.02 237 174 C237.66 174 238.32 174 239 174 C239 173.34 239 172.68 239 172 C239.66 172 240.32 172 241 172 C241 171.34 241 170.68 241 170 C241.66 170 242.32 170 243 170 C243.28875 169.401875 243.5775 168.80375 243.875 168.1875 C246.44827586 163.18390805 246.44827586 163.18390805 250 162 C250 161.01 250 160.02 250 159 C250.66 159 251.32 159 252 159 C252 158.34 252 157.68 252 157 C252.66 157 253.32 157 254 157 C254 156.34 254 155.68 254 155 C254.66 155 255.32 155 256 155 C256 154.34 256 153.68 256 153 C256.66 153 257.32 153 258 153 C258 152.34 258 151.68 258 151 C258.66 151 259.32 151 260 151 C260.66 149.35 261.32 147.7 262 146 C262.66 146 263.32 146 264 146 C264.2475 145.4225 264.495 144.845 264.75 144.25 C266.16599656 141.70120619 267.94723215 140.05276785 270 138 C270.33 137.01 270.66 136.02 271 135 C271.66 135 272.32 135 273 135 C273 134.34 273 133.68 273 133 C273.66 133 274.32 133 275 133 C275 132.34 275 131.68 275 131 C275.66 131 276.32 131 277 131 C277 130.34 277 129.68 277 129 C185.59 129 94.18 129 0 129 C0 86.43 0 43.86 0 0 Z " fill="#7B4BA3" transform="translate(113,217)"/>
<path d="M0 0 C42.57 0 85.14 0 129 0 C129 245.52 129 491.04 129 744 C86.43 744 43.86 744 0 744 C0 498.48 0 252.96 0 0 Z " fill="#7B4CA2" transform="translate(1559,7)"/>
<path d="M0 0 C16.93262204 -0.02332869 33.86523908 -0.04097903 50.7978735 -0.05181217 C58.65944391 -0.05697519 66.52100435 -0.06401801 74.38256836 -0.07543945 C81.23225475 -0.0853861 88.08193392 -0.09185338 94.93162733 -0.09408849 C98.56069396 -0.09539563 102.18973994 -0.09848169 105.81879997 -0.10573006 C109.86350304 -0.11374356 113.90816989 -0.11399115 117.95288086 -0.11352539 C119.16488159 -0.11712067 120.37688232 -0.12071594 121.62561035 -0.12442017 C123.26843239 -0.12235817 123.26843239 -0.12235817 124.94444275 -0.12025452 C126.38105711 -0.12163721 126.38105711 -0.12163721 127.84669399 -0.12304783 C130 0 130 0 131 1 C131.09992986 3.81754457 131.13359749 6.61063606 131.12584114 9.42869568 C131.12729458 10.32776473 131.12874802 11.22683378 131.13024551 12.15314734 C131.13393312 15.20554892 131.1304064 18.25790141 131.12698364 21.31030273 C131.12813437 23.50484715 131.12972157 25.69939138 131.13171089 27.8939352 C131.13591082 33.95538768 131.13381054 40.01682455 131.13072467 46.07827711 C131.12870433 51.93410106 131.13135402 57.78992159 131.13387203 63.64574507 C131.13914895 76.36884164 131.13867695 89.0919332 131.13579312 101.81503025 C131.13328176 112.94894282 131.1326189 124.08285356 131.13381577 135.21676636 C131.13393034 136.32275029 131.13393034 136.32275029 131.13404724 137.45107733 C131.13435855 140.44379075 131.13467695 143.43650416 131.135007 146.42921757 C131.13806892 174.52749422 131.13528791 202.62576767 131.1299101 230.72404383 C131.12516418 255.7108877 131.12558879 280.69772648 131.13037109 305.68457031 C131.1357208 333.73006423 131.13785181 361.77555533 131.13475883 389.82104969 C131.13443809 392.80844434 131.13412525 395.79583899 131.13381577 398.78323364 C131.13373669 399.51885577 131.13365761 400.25447791 131.13357614 401.01239162 C131.13243663 412.1417966 131.13377272 423.27119955 131.13629532 434.40060425 C131.13914804 447.04985193 131.13845377 459.6990938 131.13301457 472.34834075 C131.13037632 478.80907518 131.12937458 485.26979923 131.13266373 491.7305336 C131.13562416 497.63463596 131.13403814 503.53871824 131.12868617 509.44281876 C131.1275609 511.58882188 131.12815558 513.73482667 131.13056196 515.88082874 C131.13356333 518.77767872 131.1305242 521.67445815 131.12584114 524.57130432 C131.12818231 525.42190323 131.13052347 526.27250215 131.13293558 527.14887679 C131.11415034 532.88584966 131.11415034 532.88584966 130 534 C128.33207077 534.09831588 126.65995994 534.12631989 124.98913574 534.12698364 C123.90378036 534.12980347 122.81842499 534.13262329 121.70018005 534.13552856 C120.4991011 534.13350433 119.29802216 534.1314801 118.06054688 534.12939453 C116.80379654 534.13114685 115.5470462 534.13289917 114.25221252 534.13470459 C110.79569353 534.1392784 107.33920425 534.13748958 103.88268471 534.1343255 C100.27298525 534.13180163 96.66328842 534.13413952 93.05358887 534.13571167 C86.99063661 534.13753329 80.92769651 534.13512726 74.86474609 534.13037109 C67.84549914 534.12492849 60.82628122 534.12669115 53.80703497 534.1321975 C47.79091057 534.13672885 41.77479493 534.13737907 35.75866938 534.13475883 C32.16092102 534.13319618 28.56318633 534.13300196 24.96543884 534.13629532 C20.95675931 534.13970822 16.9481302 534.13498393 12.93945312 534.12939453 C11.1378347 534.13243088 11.1378347 534.13243088 9.29981995 534.13552856 C8.21446457 534.13270874 7.12910919 534.12988892 6.01086426 534.12698364 C5.06179451 534.12660662 4.11272476 534.12622959 3.13489532 534.12584114 C1 534 1 534 0 533 C-0.09901654 530.17631226 -0.13175072 527.37706004 -0.12304783 524.55289364 C-0.12420167 523.65183662 -0.12535552 522.7507796 -0.12654433 521.82241783 C-0.12921891 518.76326202 -0.12468196 515.70415748 -0.12025452 512.64500427 C-0.12069005 510.4456225 -0.12156462 508.24624077 -0.12284368 506.04685932 C-0.12509222 499.97207328 -0.12106249 493.89730467 -0.11606562 487.82252085 C-0.11220729 481.95386395 -0.1130248 476.08520903 -0.11374746 470.21655118 C-0.11506349 458.20597945 -0.11171191 446.1954132 -0.10573006 434.18484306 C-0.09981963 422.28726614 -0.09596545 410.3896915 -0.09487724 398.49211311 C-0.0948085 397.75325902 -0.09473976 397.01440493 -0.09466894 396.25316131 C-0.09433062 392.50112634 -0.09402923 388.74909135 -0.09374207 384.99705637 C-0.09163983 358.39883355 -0.08489739 331.80061372 -0.07543945 305.20239258 C-0.06625991 279.35734066 -0.05917391 253.51228955 -0.05493164 227.66723633 C-0.05480011 226.87103605 -0.05466859 226.07483578 -0.05453308 225.25450822 C-0.05321459 217.25897569 -0.05193877 209.26344315 -0.05069422 201.2679106 C-0.04815778 184.97906784 -0.04533653 168.69022513 -0.04234314 152.40138245 C-0.04220585 151.65239414 -0.04206856 150.90340583 -0.04192711 150.13172091 C-0.03272138 100.08781267 -0.01685484 50.04390618 0 0 Z " fill="#7C4CA3" transform="translate(1796,217)"/>
<path d="M0 0 C42.57 0 85.14 0 129 0 C129 176.22 129 352.44 129 534 C86.43 534 43.86 534 0 534 C0 357.78 0 181.56 0 0 Z " fill="#7C4CA3" transform="translate(754,217)"/>
<path d="M0 0 C0.79475465 0.00151888 1.5895093 0.00303776 2.40834743 0.00460267 C3.32697021 -0.00336152 4.245593 -0.01132572 5.19205284 -0.01953125 C6.20274277 -0.00787988 7.2134327 0.00377148 8.2547496 0.01577592 C9.32720359 0.01235822 10.39965758 0.00894052 11.50461018 0.00541925 C15.11627783 -0.00119567 18.72721052 0.02087684 22.33881027 0.04269242 C24.92050056 0.04382012 27.50219213 0.04318857 30.08388168 0.0409224 C35.65132417 0.03882317 41.21857941 0.05139203 46.7859748 0.07387376 C54.83549911 0.10635746 62.88493271 0.11679703 70.93451545 0.12182572 C83.99381091 0.1305841 97.05300653 0.15721433 110.11224777 0.19503617 C122.79941716 0.23174226 135.48655945 0.26006087 148.1737712 0.27706742 C148.95557587 0.27811832 149.73738054 0.27916921 150.54287627 0.28025195 C154.46489086 0.28547203 158.38690565 0.29052688 162.30892056 0.29549956 C194.85517068 0.33697848 227.40129841 0.40744161 259.94745284 0.49679399 C259.97078166 17.1686485 259.98843193 33.84049775 259.99926502 50.51236463 C260.00442801 58.2528668 260.01147077 65.99335885 260.0228923 73.73385453 C260.03283903 80.4780655 260.03930625 87.22226913 260.04154134 93.96648723 C260.04284846 97.53966265 260.04593443 101.11281709 260.0531829 104.6859858 C260.06119656 108.66841749 260.06144399 112.6508284 260.06097823 116.63326859 C260.06457351 117.82656785 260.06816879 119.01986711 260.07187301 120.24932694 C260.07049834 121.32771333 260.06912368 122.40609971 260.06770736 123.51716447 C260.06909005 124.9316558 260.06909005 124.9316558 260.07050067 126.37472272 C259.94745284 128.49679399 259.94745284 128.49679399 258.94745284 129.49679399 C256.98750773 129.5945446 255.02397636 129.6205068 253.06159526 129.61984181 C251.77423124 129.62183286 250.48686723 129.62382391 249.16049218 129.62587529 C247.71317172 129.6230217 246.26585144 129.62007609 244.81853133 129.6170485 C243.29561676 129.61748407 241.77270226 129.61835871 240.24978817 129.61963767 C236.0448573 129.62188547 231.83995166 129.61785748 227.63502401 129.61285961 C223.10807359 129.60855935 218.5811247 129.61000123 214.05417281 129.61076188 C206.20425417 129.61128739 198.35434381 129.60813781 190.50442725 129.60252404 C179.15462861 129.59441263 167.804834 129.59179419 156.45503277 129.59053605 C138.04275451 129.58834496 119.63048066 129.58168335 101.2182048 129.57223344 C83.32758002 129.56306078 65.43695645 129.55597923 47.5463298 129.55172563 C45.89342183 129.55133154 45.89342183 129.55133154 44.20712178 129.55092949 C38.67927013 129.5496245 33.15141847 129.54836078 27.62356681 129.54711759 C-18.26847424 129.53674321 -64.16051047 129.51912336 -110.05254716 129.49679399 C-110.38254716 128.83679399 -110.71254716 128.17679399 -111.05254716 127.49679399 C-110.11504716 125.37179399 -110.11504716 125.37179399 -109.05254716 123.49679399 C-108.39254716 123.49679399 -107.73254716 123.49679399 -107.05254716 123.49679399 C-106.74317216 122.87804399 -106.43379716 122.25929399 -106.11504716 121.62179399 C-105.42754716 120.24679399 -104.74004716 118.87179399 -104.05254716 117.49679399 C-103.39254716 117.49679399 -102.73254716 117.49679399 -102.05254716 117.49679399 C-102.05254716 116.83679399 -102.05254716 116.17679399 -102.05254716 115.49679399 C-101.39254716 115.49679399 -100.73254716 115.49679399 -100.05254716 115.49679399 C-100.05254716 114.50679399 -100.05254716 113.51679399 -100.05254716 112.49679399 C-99.39254716 112.49679399 -98.73254716 112.49679399 -98.05254716 112.49679399 C-98.05254716 111.83679399 -98.05254716 111.17679399 -98.05254716 110.49679399 C-97.39254716 110.49679399 -96.73254716 110.49679399 -96.05254716 110.49679399 C-96.05254716 109.83679399 -96.05254716 109.17679399 -96.05254716 108.49679399 C-95.39254716 108.49679399 -94.73254716 108.49679399 -94.05254716 108.49679399 C-94.05254716 107.83679399 -94.05254716 107.17679399 -94.05254716 106.49679399 C-93.39254716 106.49679399 -92.73254716 106.49679399 -92.05254716 106.49679399 C-92.05254716 105.83679399 -92.05254716 105.17679399 -92.05254716 104.49679399 C-91.39254716 104.49679399 -90.73254716 104.49679399 -90.05254716 104.49679399 C-90.05254716 103.50679399 -90.05254716 102.51679399 -90.05254716 101.49679399 C-88.43280157 99.78449151 -86.75665256 98.12516137 -85.05254716 96.49679399 C-81.69034513 92.75275477 -81.69034513 92.75275477 -79.05254716 88.49679399 C-78.39254716 88.49679399 -77.73254716 88.49679399 -77.05254716 88.49679399 C-77.05254716 87.83679399 -77.05254716 87.17679399 -77.05254716 86.49679399 C-76.39254716 86.49679399 -75.73254716 86.49679399 -75.05254716 86.49679399 C-75.05254716 85.50679399 -75.05254716 84.51679399 -75.05254716 83.49679399 C-74.39254716 83.49679399 -73.73254716 83.49679399 -73.05254716 83.49679399 C-73.05254716 82.83679399 -73.05254716 82.17679399 -73.05254716 81.49679399 C-72.39254716 81.49679399 -71.73254716 81.49679399 -71.05254716 81.49679399 C-71.05254716 80.83679399 -71.05254716 80.17679399 -71.05254716 79.49679399 C-70.39254716 79.49679399 -69.73254716 79.49679399 -69.05254716 79.49679399 C-69.05254716 78.83679399 -69.05254716 78.17679399 -69.05254716 77.49679399 C-68.39254716 77.49679399 -67.73254716 77.49679399 -67.05254716 77.49679399 C-67.05254716 76.83679399 -67.05254716 76.17679399 -67.05254716 75.49679399 C-66.39254716 75.49679399 -65.73254716 75.49679399 -65.05254716 75.49679399 C-64.81535966 74.95538774 -64.57817216 74.41398149 -64.33379716 73.85616899 C-62.70906959 70.86429261 -60.70235946 68.3852 -58.55254716 65.74679399 C-57.75848466 64.76195024 -56.96442216 63.77710649 -56.14629716 62.76241899 C-55.45535966 62.01476274 -54.76442216 61.26710649 -54.05254716 60.49679399 C-53.39254716 60.49679399 -52.73254716 60.49679399 -52.05254716 60.49679399 C-52.05254716 59.50679399 -52.05254716 58.51679399 -52.05254716 57.49679399 C-51.39254716 57.49679399 -50.73254716 57.49679399 -50.05254716 57.49679399 C-49.72254716 56.50679399 -49.39254716 55.51679399 -49.05254716 54.49679399 C-48.55754716 53.50679399 -48.55754716 53.50679399 -48.05254716 52.49679399 C-47.39254716 52.49679399 -46.73254716 52.49679399 -46.05254716 52.49679399 C-46.05254716 51.83679399 -46.05254716 51.17679399 -46.05254716 50.49679399 C-45.39254716 50.49679399 -44.73254716 50.49679399 -44.05254716 50.49679399 C-44.05254716 49.83679399 -44.05254716 49.17679399 -44.05254716 48.49679399 C-43.39254716 48.49679399 -42.73254716 48.49679399 -42.05254716 48.49679399 C-42.05254716 47.83679399 -42.05254716 47.17679399 -42.05254716 46.49679399 C-41.39254716 46.49679399 -40.73254716 46.49679399 -40.05254716 46.49679399 C-39.39254716 45.17679399 -38.73254716 43.85679399 -38.05254716 42.49679399 C-37.39254716 42.49679399 -36.73254716 42.49679399 -36.05254716 42.49679399 C-35.94813309 41.91413774 -35.84371903 41.33148149 -35.73614091 40.73116899 C-34.94961099 38.16033976 -33.87688825 36.76278819 -32.11504716 34.74679399 C-31.59039872 34.13320024 -31.06575028 33.51960649 -30.52520341 32.88741899 C-29.05254716 31.49679399 -29.05254716 31.49679399 -27.05254716 31.49679399 C-27.05254716 30.50679399 -27.05254716 29.51679399 -27.05254716 28.49679399 C-26.39254716 28.49679399 -25.73254716 28.49679399 -25.05254716 28.49679399 C-25.05254716 27.83679399 -25.05254716 27.17679399 -25.05254716 26.49679399 C-24.39254716 26.49679399 -23.73254716 26.49679399 -23.05254716 26.49679399 C-22.55754716 25.01179399 -22.55754716 25.01179399 -22.05254716 23.49679399 C-21.72254716 22.83679399 -21.39254716 22.17679399 -21.05254716 21.49679399 C-20.39254716 21.49679399 -19.73254716 21.49679399 -19.05254716 21.49679399 C-19.05254716 20.83679399 -19.05254716 20.17679399 -19.05254716 19.49679399 C-18.39254716 19.49679399 -17.73254716 19.49679399 -17.05254716 19.49679399 C-17.05254716 18.83679399 -17.05254716 18.17679399 -17.05254716 17.49679399 C-16.39254716 17.49679399 -15.73254716 17.49679399 -15.05254716 17.49679399 C-15.05254716 16.83679399 -15.05254716 16.17679399 -15.05254716 15.49679399 C-14.39254716 15.49679399 -13.73254716 15.49679399 -13.05254716 15.49679399 C-13.05254716 14.83679399 -13.05254716 14.17679399 -13.05254716 13.49679399 C-12.39254716 13.49679399 -11.73254716 13.49679399 -11.05254716 13.49679399 C-11.05254716 12.50679399 -11.05254716 11.51679399 -11.05254716 10.49679399 C-10.39254716 10.49679399 -9.73254716 10.49679399 -9.05254716 10.49679399 C-9.05254716 9.83679399 -9.05254716 9.17679399 -9.05254716 8.49679399 C-8.39254716 8.49679399 -7.73254716 8.49679399 -7.05254716 8.49679399 C-6.78442216 7.91929399 -6.51629716 7.34179399 -6.24004716 6.74679399 C-3.07161383 0.74344664 -3.07161383 0.74344664 0 0 Z " fill="#7C4CA3" transform="translate(386.05254715681076,621.5032060146332)"/>
<path d="M0 0 C1.39188538 -0.00287018 1.39188538 -0.00287018 2.81188965 -0.00579834 C4.76505811 -0.00715351 6.71823579 -0.00350396 8.67138672 0.00488281 C11.64701731 0.01559177 14.62204425 0.00496469 17.59765625 -0.0078125 C19.50260549 -0.00649079 21.40755435 -0.00392815 23.3125 0 C24.19498413 -0.00404846 25.07746826 -0.00809692 25.98669434 -0.01226807 C31.09249269 0.0261537 35.31727544 0.61604904 40.15625 2.265625 C40.15625 2.925625 40.15625 3.585625 40.15625 4.265625 C41.47625 4.265625 42.79625 4.265625 44.15625 4.265625 C44.15625 4.925625 44.15625 5.585625 44.15625 6.265625 C46.13625 6.265625 48.11625 6.265625 50.15625 6.265625 C50.15625 6.925625 50.15625 7.585625 50.15625 8.265625 C50.81625 8.265625 51.47625 8.265625 52.15625 8.265625 C52.15625 8.925625 52.15625 9.585625 52.15625 10.265625 C53.47625 10.265625 54.79625 10.265625 56.15625 10.265625 C56.15625 10.925625 56.15625 11.585625 56.15625 12.265625 C57.0225 12.45125 57.88875 12.636875 58.78125 12.828125 C62.70436557 14.49908163 64.24578836 16.37325021 66.76171875 19.70703125 C68.17700321 21.54817548 68.17700321 21.54817548 71.15625 22.265625 C72.34375 24.828125 72.34375 24.828125 73.15625 27.265625 C73.81625 27.265625 74.47625 27.265625 75.15625 27.265625 C75.15625 27.925625 75.15625 28.585625 75.15625 29.265625 C75.81625 29.265625 76.47625 29.265625 77.15625 29.265625 C78.14625 31.740625 78.14625 31.740625 79.15625 34.265625 C79.81625 34.265625 80.47625 34.265625 81.15625 34.265625 C81.15625 35.255625 81.15625 36.245625 81.15625 37.265625 C81.81625 37.265625 82.47625 37.265625 83.15625 37.265625 C83.15625 38.255625 83.15625 39.245625 83.15625 40.265625 C83.81625 40.265625 84.47625 40.265625 85.15625 40.265625 C87.15625 43.265625 87.15625 43.265625 87.15625 47.265625 C87.81625 47.265625 88.47625 47.265625 89.15625 47.265625 C89.43339844 48.40902344 89.71054687 49.55242188 89.99609375 50.73046875 C90.36179378 52.22139965 90.72768929 53.71228261 91.09375 55.203125 C91.36735352 56.33524414 91.36735352 56.33524414 91.64648438 57.49023438 C92.29464179 61.17842321 92.29464179 61.17842321 94.15625 64.265625 C94.48071337 67.36605273 94.66959441 70.4676975 94.875 73.578125 C94.86232799 76.18159252 94.86232799 76.18159252 96.15625 77.265625 C96.25476171 79.09678383 96.28597629 80.93182433 96.28125 82.765625 C96.28382813 83.7659375 96.28640625 84.76625 96.2890625 85.796875 C96.15625 88.265625 96.15625 88.265625 95.15625 89.265625 C94.99628233 91.11710262 94.87880213 92.97231181 94.78125 94.828125 C94.43844114 99.43155822 93.73184847 103.10880536 91.91015625 107.32421875 C91.05195179 109.5342064 90.6063113 111.68967795 90.15625 114.015625 C89.44932934 117.47300167 88.53001612 119.58223722 86.15625 122.265625 C85.82625 123.255625 85.49625 124.245625 85.15625 125.265625 C84.49625 125.265625 83.83625 125.265625 83.15625 125.265625 C83.15625 126.255625 83.15625 127.245625 83.15625 128.265625 C82.49625 128.265625 81.83625 128.265625 81.15625 128.265625 C81.15625 129.255625 81.15625 130.245625 81.15625 131.265625 C80.49625 131.265625 79.83625 131.265625 79.15625 131.265625 C79.15625 131.925625 79.15625 132.585625 79.15625 133.265625 C78.49625 133.265625 77.83625 133.265625 77.15625 133.265625 C76.80046875 134.35423828 76.80046875 134.35423828 76.4375 135.46484375 C74.9573278 138.70046409 73.19218526 140.59570785 70.65625 143.078125 C69.8621875 143.86832031 69.068125 144.65851563 68.25 145.47265625 C66.15625 147.265625 66.15625 147.265625 64.15625 147.265625 C64.15625 147.925625 64.15625 148.585625 64.15625 149.265625 C62.83625 149.595625 61.51625 149.925625 60.15625 150.265625 C60.15625 150.925625 60.15625 151.585625 60.15625 152.265625 C58.86711513 152.93717433 57.57484796 153.60271359 56.28125 154.265625 C55.56195312 154.636875 54.84265625 155.008125 54.1015625 155.390625 C52.15625 156.265625 52.15625 156.265625 50.15625 156.265625 C50.15625 156.925625 50.15625 157.585625 50.15625 158.265625 C48.83625 158.265625 47.51625 158.265625 46.15625 158.265625 C46.15625 158.925625 46.15625 159.585625 46.15625 160.265625 C42.33304443 161.68821312 39.24343695 162.50604776 35.15625 162.265625 C35.15625 162.925625 35.15625 163.585625 35.15625 164.265625 C32.51625 164.265625 29.87625 164.265625 27.15625 164.265625 C27.15625 164.925625 27.15625 165.585625 27.15625 166.265625 C22.74547656 166.34033841 18.33504816 166.39449013 13.92382812 166.43041992 C12.42636693 166.44541388 10.92894895 166.46581605 9.43164062 166.49194336 C-5.60671352 166.74759538 -5.60671352 166.74759538 -12.84375 163.265625 C-14.67033938 162.68159708 -16.502772 162.11507692 -18.34375 161.578125 C-19.1996875 161.32675781 -20.055625 161.07539063 -20.9375 160.81640625 C-21.5665625 160.63464844 -22.195625 160.45289063 -22.84375 160.265625 C-22.84375 159.605625 -22.84375 158.945625 -22.84375 158.265625 C-24.16375 158.265625 -25.48375 158.265625 -26.84375 158.265625 C-26.84375 157.605625 -26.84375 156.945625 -26.84375 156.265625 C-28.16375 156.265625 -29.48375 156.265625 -30.84375 156.265625 C-30.84375 155.605625 -30.84375 154.945625 -30.84375 154.265625 C-31.7925 153.95625 -32.74125 153.646875 -33.71875 153.328125 C-36.84375 152.265625 -36.84375 152.265625 -38.84375 151.265625 C-38.84375 150.605625 -38.84375 149.945625 -38.84375 149.265625 C-39.42640625 148.9975 -40.0090625 148.729375 -40.609375 148.453125 C-42.87161601 147.25081509 -44.64951318 145.92736587 -46.59375 144.265625 C-47.20734375 143.75 -47.8209375 143.234375 -48.453125 142.703125 C-49.84375 141.265625 -49.84375 141.265625 -49.84375 139.265625 C-50.50375 139.265625 -51.16375 139.265625 -51.84375 139.265625 C-51.84375 138.275625 -51.84375 137.285625 -51.84375 136.265625 C-52.50375 136.265625 -53.16375 136.265625 -53.84375 136.265625 C-53.84375 135.605625 -53.84375 134.945625 -53.84375 134.265625 C-54.50375 134.265625 -55.16375 134.265625 -55.84375 134.265625 C-55.84375 133.275625 -55.84375 132.285625 -55.84375 131.265625 C-56.50375 131.265625 -57.16375 131.265625 -57.84375 131.265625 C-60.96372802 127.96211886 -61.84375 126.94152667 -61.84375 122.265625 C-62.50375 122.265625 -63.16375 122.265625 -63.84375 122.265625 C-64.63622664 120.05757941 -65.4277513 117.84920003 -66.21875 115.640625 C-66.88003906 113.79597656 -66.88003906 113.79597656 -67.5546875 111.9140625 C-67.98007812 110.71007812 -68.40546875 109.50609375 -68.84375 108.265625 C-69.2253125 107.234375 -69.606875 106.203125 -70 105.140625 C-70.85630997 102.22282806 -71.05055288 99.91733167 -70.96875 96.890625 C-70.95070313 96.01664062 -70.93265625 95.14265625 -70.9140625 94.2421875 C-70.89085937 93.58992188 -70.86765625 92.93765625 -70.84375 92.265625 C-71.50375 92.265625 -72.16375 92.265625 -72.84375 92.265625 C-72.87263514 89.11981077 -72.89050923 85.97403031 -72.90625 82.828125 C-72.91462891 81.93029297 -72.92300781 81.03246094 -72.93164062 80.10742188 C-72.93486328 79.25341797 -72.93808594 78.39941406 -72.94140625 77.51953125 C-72.94926147 76.33339233 -72.94926147 76.33339233 -72.95727539 75.12329102 C-72.84375 73.265625 -72.84375 73.265625 -71.84375 72.265625 C-71.68416899 70.91509686 -71.56646724 69.55953338 -71.46875 68.203125 C-71.07150539 64.31623931 -70.21717913 61.12719955 -68.7421875 57.52734375 C-66.88655311 52.85598587 -65.41128873 48.03985463 -63.84375 43.265625 C-63.18375 43.265625 -62.52375 43.265625 -61.84375 43.265625 C-61.84375 41.945625 -61.84375 40.625625 -61.84375 39.265625 C-61.18375 39.265625 -60.52375 39.265625 -59.84375 39.265625 C-59.51375 38.275625 -59.18375 37.285625 -58.84375 36.265625 C-57.40625 33.578125 -57.40625 33.578125 -55.84375 31.265625 C-55.18375 31.265625 -54.52375 31.265625 -53.84375 31.265625 C-53.84375 30.605625 -53.84375 29.945625 -53.84375 29.265625 C-53.18375 29.265625 -52.52375 29.265625 -51.84375 29.265625 C-51.84375 28.275625 -51.84375 27.285625 -51.84375 26.265625 C-51.18375 26.265625 -50.52375 26.265625 -49.84375 26.265625 C-49.84375 25.605625 -49.84375 24.945625 -49.84375 24.265625 C-49.18375 24.265625 -48.52375 24.265625 -47.84375 24.265625 C-47.84375 23.605625 -47.84375 22.945625 -47.84375 22.265625 C-47.18375 22.265625 -46.52375 22.265625 -45.84375 22.265625 C-45.84375 21.605625 -45.84375 20.945625 -45.84375 20.265625 C-44.19375 19.605625 -42.54375 18.945625 -40.84375 18.265625 C-40.84375 17.605625 -40.84375 16.945625 -40.84375 16.265625 C-36.49080882 12.265625 -36.49080882 12.265625 -32.84375 12.265625 C-32.84375 11.605625 -32.84375 10.945625 -32.84375 10.265625 C-29.84375 8.265625 -29.84375 8.265625 -26.84375 8.265625 C-26.84375 7.605625 -26.84375 6.945625 -26.84375 6.265625 C-25.52375 6.265625 -24.20375 6.265625 -22.84375 6.265625 C-22.84375 5.605625 -22.84375 4.945625 -22.84375 4.265625 C-20.86375 4.265625 -18.88375 4.265625 -16.84375 4.265625 C-16.84375 3.605625 -16.84375 2.945625 -16.84375 2.265625 C-11.1169359 0.31339013 -6.02554973 -0.02764266 0 0 Z " fill="#7B4BA2" transform="translate(807.84375,6.734375)"/>
<path d="M0 0 C6.24795675 -0.02527124 12.49590041 -0.04283344 18.74389648 -0.05493164 C20.87118014 -0.05997298 22.99846031 -0.06680591 25.12573242 -0.07543945 C28.17627826 -0.08751379 31.22677845 -0.09323014 34.27734375 -0.09765625 C35.71327126 -0.10539818 35.71327126 -0.10539818 37.1782074 -0.11329651 C38.05904495 -0.11337204 38.93988251 -0.11344757 39.84741211 -0.11352539 C40.62684677 -0.115746 41.40628143 -0.11796661 42.20933533 -0.12025452 C44 0 44 0 45 1 C46.6396875 1.2165625 46.6396875 1.2165625 48.3125 1.4375 C51.60187474 1.93926903 53.17595121 2.4768566 56 4 C57.05960938 4.52980469 57.05960938 4.52980469 58.140625 5.0703125 C60.09375 6.046875 62.046875 7.0234375 64 8 C64 8.66 64 9.32 64 10 C64.61875 10.144375 65.2375 10.28875 65.875 10.4375 C68 11 68 11 70 12 C70 12.66 70 13.32 70 14 C71.98 14.66 73.96 15.32 76 16 C76 16.66 76 17.32 76 18 C76.66 18 77.32 18 78 18 C78 18.66 78 19.32 78 20 C78.66 20 79.32 20 80 20 C80 20.66 80 21.32 80 22 C80.66 22 81.32 22 82 22 C82 22.66 82 23.32 82 24 C82.66 24 83.32 24 84 24 C84 24.66 84 25.32 84 26 C84.66 26 85.32 26 86 26 C86 26.66 86 27.32 86 28 C86.66 28 87.32 28 88 28 C89.6404154 30.24150624 91.14662087 32.4678831 92.625 34.8125 C93.04523438 35.45509766 93.46546875 36.09769531 93.8984375 36.75976562 C97 41.61854454 97 41.61854454 97 45 C97.66 45 98.32 45 99 45 C99 46.32 99 47.64 99 49 C99.66 49 100.32 49 101 49 C101 50.65 101 52.3 101 54 C101.66 54 102.32 54 103 54 C103 55.98 103 57.96 103 60 C103.66 60 104.32 60 105 60 C106.04760535 67.70738223 106.14955489 75.29087818 106.125 83.0625 C106.12886719 84.29033203 106.13273437 85.51816406 106.13671875 86.78320312 C106.13007728 92.9498123 105.95870476 98.90537691 105 105 C104.34 105 103.68 105 103 105 C103 106.98 103 108.96 103 111 C102.34 111 101.68 111 101 111 C100.87882812 111.72960937 100.75765625 112.45921875 100.6328125 113.2109375 C98.72067072 121.63852536 93.15050566 130.17590433 88 137 C87.34 137 86.68 137 86 137 C86 137.66 86 138.32 86 139 C85.34 139 84.68 139 84 139 C84 139.66 84 140.32 84 141 C83.34 141 82.68 141 82 141 C82 141.66 82 142.32 82 143 C81.34 143 80.68 143 80 143 C80 143.66 80 144.32 80 145 C76.53846154 148 76.53846154 148 74 148 C74 148.66 74 149.32 74 150 C71.03 150.99 71.03 150.99 68 152 C68 152.66 68 153.32 68 154 C65.35261084 155.4606285 64.10551666 156 61 156 C61 156.66 61 157.32 61 158 C57.91190305 159.76462683 56.76687864 160 53 160 C53 160.66 53 161.32 53 162 C51.02 162 49.04 162 47 162 C47 162.66 47 163.32 47 164 C44.36 164 41.72 164 39 164 C39 164.66 39 165.32 39 166 C28.44 166 17.88 166 7 166 C7 165.34 7 164.68 7 164 C4.36 164 1.72 164 -1 164 C-1 163.34 -1 162.68 -1 162 C-2.98 162 -4.96 162 -7 162 C-7 161.34 -7 160.68 -7 160 C-8.32 160 -9.64 160 -11 160 C-11 159.34 -11 158.68 -11 158 C-11.7734375 157.8453125 -11.7734375 157.8453125 -12.5625 157.6875 C-15.86026435 156.75736134 -18.86633332 155.38604488 -22 154 C-22 153.34 -22 152.68 -22 152 C-24.97 151.01 -24.97 151.01 -28 150 C-28 149.34 -28 148.68 -28 148 C-29.32 147.67 -30.64 147.34 -32 147 C-32 146.34 -32 145.68 -32 145 C-32.66 145 -33.32 145 -34 145 C-34 144.34 -34 143.68 -34 143 C-34.66 143 -35.32 143 -36 143 C-36 142.34 -36 141.68 -36 141 C-36.66 141 -37.32 141 -38 141 C-38 140.34 -38 139.68 -38 139 C-38.66 139 -39.32 139 -40 139 C-40.495 137.02 -40.495 137.02 -41 135 C-41.66 135 -42.32 135 -43 135 C-43 134.34 -43 133.68 -43 133 C-43.66 133 -44.32 133 -45 133 C-45 132.01 -45 131.02 -45 130 C-45.66 130 -46.32 130 -47 130 C-47 129.01 -47 128.02 -47 127 C-47.66 127 -48.32 127 -49 127 C-49 126.01 -49 125.02 -49 124 C-49.66 124 -50.32 124 -51 124 C-51 122.68 -51 121.36 -51 120 C-51.66 120 -52.32 120 -53 120 C-53 118.68 -53 117.36 -53 116 C-53.66 116 -54.32 116 -55 116 C-55 114.35 -55 112.7 -55 111 C-55.66 111 -56.32 111 -57 111 C-57 109.35 -57 107.7 -57 106 C-57.66 106 -58.32 106 -59 106 C-59.33 103.36 -59.66 100.72 -60 98 C-60.33 98 -60.66 98 -61 98 C-61 87.77 -61 77.54 -61 67 C-60.34 67 -59.68 67 -59 67 C-59 64.36 -59 61.72 -59 59 C-58.34 59 -57.68 59 -57 59 C-57 57.02 -57 55.04 -57 53 C-56.34 53 -55.68 53 -55 53 C-55 51.68 -55 50.36 -55 49 C-54.34 49 -53.68 49 -53 49 C-53 47.68 -53 46.36 -53 45 C-52.34 45 -51.68 45 -51 45 C-51 43.68 -51 42.36 -51 41 C-50.34 41 -49.68 41 -49 41 C-49 40.01 -49 39.02 -49 38 C-48.34 38 -47.68 38 -47 38 C-47 37.01 -47 36.02 -47 35 C-46.34 35 -45.68 35 -45 35 C-44.731875 34.2575 -44.46375 33.515 -44.1875 32.75 C-43.04723249 30.10938051 -41.90619694 28.14447156 -40 26 C-39.34 26 -38.68 26 -38 26 C-38 25.34 -38 24.68 -38 24 C-37.34 24 -36.68 24 -36 24 C-36 23.34 -36 22.68 -36 22 C-35.34 22 -34.68 22 -34 22 C-34 21.34 -34 20.68 -34 20 C-33.34 20 -32.68 20 -32 20 C-32 19.34 -32 18.68 -32 18 C-31.34 18 -30.68 18 -30 18 C-30 17.34 -30 16.68 -30 16 C-28.02 15.34 -26.04 14.68 -24 14 C-24 13.34 -24 12.68 -24 12 C-23.34 12 -22.68 12 -22 12 C-22 11.34 -22 10.68 -22 10 C-20.68 10 -19.36 10 -18 10 C-18 9.34 -18 8.68 -18 8 C-16.68 8 -15.36 8 -14 8 C-14 7.34 -14 6.68 -14 6 C-11.36 5.01 -8.72 4.02 -6 3 C-6 2.67 -6 2.34 -6 2 C-4.02 1.67 -2.04 1.34 0 1 C0 0.67 0 0.34 0 0 Z " fill="#7B4CA2" transform="translate(1839,7)"/>
<path d="" fill="#7C4CA3" transform="translate(0,0)"/>
</svg>
