<?xml version="1.0" encoding="UTF-8"?>
<svg version="1.1" xmlns="http://www.w3.org/2000/svg" width="1920" height="1080">
<path d="M0 0 C633.6 0 1267.2 0 1920 0 C1920 356.4 1920 712.8 1920 1080 C1286.4 1080 652.8 1080 0 1080 C0 723.6 0 367.2 0 0 Z " fill="#FEFEFE" transform="translate(0,0)"/>
<path d="M0 0 C2.7734375 1.6796875 2.7734375 1.6796875 5.375 3.875 C6.24898437 4.59429687 7.12296875 5.31359375 8.0234375 6.0546875 C8.67570313 6.69664062 9.32796875 7.33859375 10 8 C10 8.66 10 9.32 10 10 C10.85851562 10.38091797 10.85851562 10.38091797 11.734375 10.76953125 C14.26593314 12.14442921 16.12614321 13.74317786 18.25 15.6875 C19.04535156 16.40808594 19.84070313 17.12867188 20.66015625 17.87109375 C21.43230469 18.57363281 22.20445312 19.27617187 23 20 C27.91545188 24.36130908 32.89475116 28.65048478 37.875 32.9375 C38.47546143 33.4545752 39.07592285 33.97165039 39.69458008 34.50439453 C44.12681325 38.30071163 48.66227572 41.93877603 53.3046875 45.4765625 C53.86414063 45.97929687 54.42359375 46.48203125 55 47 C55 47.66 55 48.32 55 49 C55.57621094 49.2578125 56.15242187 49.515625 56.74609375 49.78125 C59.19393785 51.1048676 61.00637727 52.6300772 63.0625 54.5 C65.33432007 56.55815561 67.43707257 58.29138171 70 60 C70 60.66 70 61.32 70 62 C70.5775 62.268125 71.155 62.53625 71.75 62.8125 C74.05550043 64.02929189 76.02056192 65.30333879 78 67 C78 67.66 78 68.32 78 69 C78.556875 69.2475 79.11375 69.495 79.6875 69.75 C82.42410913 71.22924818 84.67650869 72.93467439 87 75 C87 75.66 87 76.32 87 77 C87.61875 77.309375 88.2375 77.61875 88.875 77.9375 C90.25 78.625 91.625 79.3125 93 80 C93 80.66 93 81.32 93 82 C93.56847656 82.26167969 94.13695312 82.52335937 94.72265625 82.79296875 C100.92420464 86.07989577 106.14360065 90.99643703 111 96 C111.66 96.33 112.32 96.66 113 97 C113 97.66 113 98.32 113 99 C113.79664063 99.31904297 113.79664063 99.31904297 114.609375 99.64453125 C117.92153908 101.52250663 120.50913182 104.08057506 123.25 106.6875 C124.42122447 107.78454909 125.59309627 108.88090752 126.765625 109.9765625 C127.32701172 110.50282227 127.88839844 111.02908203 128.46679688 111.57128906 C134.06477515 116.78774907 139.96048911 121.67108431 145.80517578 126.60620117 C172.52619516 149.1737535 172.52619516 149.1737535 185.25 160.75 C189.44252745 164.5544588 193.80031892 168.11480568 198.203125 171.671875 C201.11473102 174.09550236 203.90342703 176.6187697 206.6875 179.1875 C210.40975454 182.61770889 214.19464 185.73606863 218.29296875 188.69921875 C220.75647434 190.57644383 222.84253151 192.78422155 225 195 C225.928125 195.721875 226.85625 196.44375 227.8125 197.1875 C228.534375 197.785625 229.25625 198.38375 230 199 C230 199.66 230 200.32 230 201 C230.7425 201.2475 231.485 201.495 232.25 201.75 C235 203 235 203 239 207 C239.495 105.525 239.495 105.525 240 2 C272.01 2 304.02 2 337 2 C337.0661014 52.61774225 337.12150731 103.23544389 337.15319599 153.85321693 C337.15694824 159.8252404 337.16083119 165.79726378 337.16479492 171.76928711 C337.16558185 172.95824024 337.16636878 174.14719336 337.16717956 175.37217537 C337.18024363 194.63906061 337.20390297 213.90591907 337.23145839 233.1727884 C337.25948476 252.93333772 337.27617039 272.69387299 337.28226548 292.45444137 C337.28638768 304.65379494 337.29942059 316.85307284 337.3237494 329.05240313 C337.33957243 337.41096722 337.34440816 345.76949203 337.34050413 354.12807002 C337.33857723 358.95495153 337.34159001 363.78170054 337.35761642 368.60855865 C337.37217225 373.02461683 337.37298057 377.44045289 337.36269668 381.85652111 C337.36142491 383.45687312 337.36526702 385.05723876 337.37464955 386.65756377 C337.38663986 388.82833206 337.38023051 390.99829218 337.36914349 393.16904736 C337.37085223 394.97974375 337.37085223 394.97974375 337.37259549 396.82701987 C336.96278426 400.31692494 336.06453148 402.18827564 334 405 C331.03063034 407.30950973 327.82852812 407.39941165 324.12866211 407.35961914 C320.23874127 406.7024505 317.89881502 404.21538576 315.125 401.5625 C314.52131592 401.01553467 313.91763184 400.46856934 313.2956543 399.9050293 C311.51439003 398.28649373 309.75661526 396.64519009 308 395 C306.27398004 393.43402468 304.54519001 391.87109197 302.8125 390.3125 C302.02488281 389.59707031 301.23726562 388.88164063 300.42578125 388.14453125 C296.9578078 385.07864168 293.35386558 382.18989423 289.75390625 379.28125 C286.05917209 376.22064752 282.52350056 373.00085811 278.99609375 369.75 C277.11549325 367.95218021 277.11549325 367.95218021 275 367 C275 366.34 275 365.68 275 365 C274.1646875 364.62875 274.1646875 364.62875 273.3125 364.25 C268.89806152 361.86381704 265.51876538 358.51876538 262 355 C260.14244627 353.43997652 258.27472847 351.89505292 256.390625 350.3671875 C255.93171875 349.91601562 255.4728125 349.46484375 255 349 C255 348.34 255 347.68 255 347 C254.28199219 346.76410156 253.56398438 346.52820313 252.82421875 346.28515625 C249.53382258 344.78786671 247.4381392 342.91219474 244.8125 340.4375 C241.65811063 337.35814202 241.65811063 337.35814202 238 335 C238 334.34 238 333.68 238 333 C237.01 332.67 236.02 332.34 235 332 C235 331.34 235 330.68 235 330 C234.43410156 329.75378906 233.86820313 329.50757813 233.28515625 329.25390625 C230.60751742 327.78463776 228.66956388 326.02247565 226.4375 323.9375 C222.87703072 320.66981527 219.2606708 317.53520807 215.5 314.5 C210.84595029 310.73968672 206.39535541 306.80435955 201.99609375 302.75 C200.11549325 300.95218021 200.11549325 300.95218021 198 300 C198 299.34 198 298.68 198 298 C197.43539063 297.75378906 196.87078125 297.50757813 196.2890625 297.25390625 C193.60920728 295.78593095 191.62041197 294.0064331 189.375 291.9375 C186.41210833 289.14219542 186.41210833 289.14219542 183 287 C183 286.34 183 285.68 183 285 C182.01 284.67 181.02 284.34 180 284 C180 283.34 180 282.68 180 282 C179.47535156 281.78472656 178.95070313 281.56945312 178.41015625 281.34765625 C175.05464363 279.47139717 172.30913124 276.96509909 169.4375 274.4375 C168.18577076 273.34925324 166.93315637 272.26202381 165.6796875 271.17578125 C165.05932617 270.63775879 164.43896484 270.09973633 163.79980469 269.54541016 C161.25544335 267.36068318 158.66468209 265.24062449 156.0625 263.125 C143.46326702 252.87885906 143.46326702 252.87885906 140 249 C140 248.34 140 247.68 140 247 C139.29230469 246.77570313 138.58460938 246.55140625 137.85546875 246.3203125 C134.4080411 244.72628986 132.00308321 242.4843847 129.3125 239.875 C124.09295897 234.94718926 118.66696884 230.40982497 113 226 C109.42726606 223.18139104 106.08970443 220.35453624 103 217 C103 216.34 103 215.68 103 215 C101.9171875 214.6596875 101.9171875 214.6596875 100.8125 214.3125 C97.42020237 212.72942777 95.61586592 210.67670001 93 208 C90.88841657 206.39661482 88.74564103 204.85323096 86.57421875 203.33203125 C86.05472656 202.89246094 85.53523438 202.45289063 85 202 C85 201.34 85 200.68 85 200 C84.34 200 83.68 200 83 200 C83.00092179 201.05559333 83.00184359 202.11118666 83.00279331 203.19876766 C83.02495981 228.84391988 83.04141002 254.48907085 83.05181217 280.13423061 C83.05697584 292.53586097 83.06401989 304.93748502 83.07543945 317.33911133 C83.08538412 328.14412616 83.09185291 338.94913642 83.09408849 349.7541557 C83.09539597 355.4791448 83.09848415 361.20412083 83.10573006 366.92910576 C83.11248685 372.31094088 83.11461766 377.69275745 83.11310768 383.07459641 C83.11338416 385.05601032 83.11539129 387.03742481 83.11920547 389.01883507 C83.12413741 391.71163087 83.12300015 394.40435546 83.12025452 397.09715271 C83.12316736 397.89188427 83.1260802 398.68661583 83.12908131 399.50543016 C83.11412121 404.88587879 83.11412121 404.88587879 82 406 C79.01701786 406.0952822 76.05723655 406.12552175 73.07397461 406.11352539 C72.13748581 406.11367142 71.20099701 406.11381744 70.23612976 406.1139679 C67.12484461 406.11326837 64.01361851 406.10547415 60.90234375 406.09765625 C58.75142957 406.09579221 56.60051497 406.09436824 54.44960022 406.09336853 C48.77618242 406.08954225 43.10279005 406.07971102 37.42938232 406.06866455 C31.64498234 406.0584528 25.86057827 406.05387142 20.07617188 406.04882812 C8.71743672 406.03808885 -2.64127953 406.02101111 -14 406 C-14.09150911 355.39930216 -14.16201513 304.79861267 -14.20426132 254.1978484 C-14.20926428 248.22711364 -14.21444156 242.25637905 -14.21972656 236.28564453 C-14.22130043 234.50260831 -14.22130043 234.50260831 -14.22290608 232.68355115 C-14.24032232 213.42379692 -14.27186673 194.16409033 -14.30861118 174.90436439 C-14.34598667 155.14946161 -14.36822867 135.39458382 -14.37635398 115.63964713 C-14.38184879 103.44487716 -14.39921811 91.25024186 -14.43166587 79.05551334 C-14.45277187 70.69880431 -14.45920893 62.34216512 -14.45400551 53.98543136 C-14.45143764 49.16041073 -14.455438 44.33562579 -14.4768219 39.51064682 C-14.49624877 35.0950982 -14.49729524 30.67994436 -14.48359558 26.26437779 C-14.48190174 24.6653504 -14.48700873 23.06629865 -14.49953273 21.46731941 C-14.51555537 19.29572883 -14.50695441 17.12556857 -14.49219131 14.95400047 C-14.4937102 13.74724926 -14.49522908 12.54049805 -14.49679399 11.29717863 C-13.89681509 7.31517067 -12.47122414 5.14029293 -10 2 C-6.77368791 -0.3659622 -3.92448769 -0.34458916 0 0 Z " fill="#5B4299" transform="translate(966,414)"/>
<path d="M0 0 C50.98290851 -0.11017944 101.96570496 -0.20251856 152.94869841 -0.25532665 C158.96449707 -0.26158036 164.98029547 -0.26805195 170.99609375 -0.2746582 C172.79258774 -0.27662553 172.79258774 -0.27662553 174.62537454 -0.2786326 C194.03063955 -0.30040306 213.43583068 -0.33983364 232.84105183 -0.38576398 C252.74511462 -0.43248294 272.64913864 -0.46028575 292.55325401 -0.47044247 C304.84018469 -0.47731108 317.12690656 -0.49902314 329.41377299 -0.53958233 C337.83356465 -0.56596438 346.25324799 -0.57401128 354.67307802 -0.56750689 C359.53460435 -0.56429694 364.3957652 -0.56929821 369.25722694 -0.59602737 C373.70615236 -0.62031027 378.15446556 -0.62162004 382.60341881 -0.60449447 C384.21456354 -0.60237706 385.82574604 -0.60876192 387.43681611 -0.62441591 C389.62501088 -0.64444471 391.81098758 -0.63369631 393.99914742 -0.61523914 C395.21501191 -0.61713775 396.43087641 -0.61903635 397.68358529 -0.62099248 C402.14091296 0.21363383 403.80942704 1.81668019 407 5 C407.9992757 8.08915877 407.66313638 10.84035017 407 14 C405.0880676 17.56014999 402.90655351 20.2318538 400 23 C399.67 23.66 399.34 24.32 399 25 C398.34 25 397.68 25 397 25 C397 25.66 397 26.32 397 27 C395.91157308 28.12353747 394.81423195 29.23909906 393.6875 30.32421875 C387.9943035 35.97787916 382.76434914 42.00922888 378.19140625 48.6015625 C377.79824219 49.06304687 377.40507813 49.52453125 377 50 C376.34 50 375.68 50 375 50 C374.76410156 50.55558594 374.52820313 51.11117187 374.28515625 51.68359375 C372.6872248 54.56375591 370.694995 56.66369076 368.4375 59.0625 C364.17102279 63.65103392 360.17934258 68.40149744 356.24609375 73.28125 C353.20079532 76.96738515 349.98972108 80.4885839 346.75 84.00390625 C344.95218021 85.88450675 344.95218021 85.88450675 344 88 C343.34 88 342.68 88 342 88 C341.6596875 89.0828125 341.6596875 89.0828125 341.3125 90.1875 C339.71422075 93.61238411 337.76411259 95.42016159 335 98 C330.57171137 102.21101279 326.74690464 106.46405823 323.26171875 111.49609375 C322.84535156 111.99238281 322.42898438 112.48867188 322 113 C321.34 113 320.68 113 320 113 C319.67708984 114.04800781 319.67708984 114.04800781 319.34765625 115.1171875 C317.65134926 118.74580941 315.19454935 121.28945814 312.4375 124.125 C308.60945346 128.15888624 304.917762 132.21847733 301.4375 136.5625 C297.34914091 141.65254417 292.99756924 146.43784031 288.5625 151.22265625 C285.89813861 154.1104016 283.30619297 157.04969384 280.734375 160.01953125 C278.72735462 162.31133155 276.67597149 164.55996752 274.625 166.8125 C269.89254272 172.05830858 265.43771177 177.50459526 261 183 C251.70241829 194.42538648 251.70241829 194.42538648 247.41015625 199.36328125 C246.38224514 200.55634151 245.37144836 201.76421027 244.37109375 202.98046875 C243.83613281 203.62628906 243.30117188 204.27210938 242.75 204.9375 C242.27046875 205.52402344 241.7909375 206.11054687 241.296875 206.71484375 C240 208 240 208 238 208 C237.77441406 208.54527344 237.54882812 209.09054687 237.31640625 209.65234375 C235.6085679 212.69807327 233.32945554 215.05320785 230.9375 217.5625 C227.2907372 221.45783782 223.78494697 225.40210162 220.4375 229.5625 C217.38837735 233.35212386 214.23338964 236.98525393 210.9375 240.5625 C203.15220324 248.68295555 203.15220324 248.68295555 197 258 C196.34 258 195.68 258 195 258 C195 258.66 195 259.32 195 260 C193.37129721 261.70378484 191.6971968 263.36443325 190 265 C184.99305023 270.32195654 180.14865555 275.74803235 175.5625 281.4375 C171.9113684 285.96438803 168.0721253 290.2454385 164.10595703 294.49291992 C160.09047182 298.82235853 156.41314856 303.36074289 152.77734375 308.015625 C151.89755859 308.99789062 151.89755859 308.99789062 151 310 C150.34 310 149.68 310 149 310 C148.69255859 311.03060547 148.69255859 311.03060547 148.37890625 312.08203125 C146.54065544 315.97204075 143.90892414 318.61876607 140.9375 321.6875 C137.03104422 325.52092838 137.03104422 325.52092838 134 330 C133.34 330 132.68 330 132 330 C131.731875 330.763125 131.46375 331.52625 131.1875 332.3125 C130.04865495 334.88988618 129.18583329 336.26954864 127 338 C126.34 338 125.68 338 125 338 C124.6596875 339.0828125 124.6596875 339.0828125 124.3125 340.1875 C122.73594914 343.56582327 120.69013425 345.43796738 118 348 C117.278125 348.928125 116.55625 349.85625 115.8125 350.8125 C115.214375 351.534375 114.61625 352.25625 114 353 C113.34 353 112.68 353 112 353 C111.76023437 353.55945313 111.52046875 354.11890625 111.2734375 354.6953125 C109.72649642 357.49499114 107.81197519 359.54271084 105.625 361.875 C103.0344529 364.68593072 100.59299034 367.38239185 98.5625 370.625 C97.7890625 371.800625 97.7890625 371.800625 97 373 C96.34 373 95.68 373 95 373 C94.76667969 373.55171875 94.53335938 374.1034375 94.29296875 374.671875 C92.65980716 377.61255267 90.60660793 379.79077251 88.3125 382.25 C81.16548112 389.61804686 81.16548112 389.61804686 74.89122868 397.69985485 C72.82671551 400.60015957 71.2112323 402.65359215 67.71037102 403.65482521 C64.8867464 403.90417586 62.13497743 403.93454631 59.30053711 403.88989258 C58.23479965 403.90055252 57.16906219 403.91121246 56.07102966 403.92219543 C52.55561989 403.94786367 49.04270405 403.92266803 45.52734375 403.89453125 C43.08166719 403.89670741 40.63599168 403.90110806 38.19032288 403.90763855 C33.06820215 403.9134431 27.94693827 403.8944673 22.82495117 403.85766602 C16.25823961 403.81216353 9.6931872 403.82477807 3.126441 403.85547352 C-1.9222509 403.87326465 -6.97055383 403.86203776 -12.01922417 403.84183311 C-14.44053823 403.83531462 -16.86189146 403.83743981 -19.28318977 403.84833717 C-22.66634583 403.85886306 -26.04702611 403.83077213 -29.42993164 403.79223633 C-30.93169952 403.80809784 -30.93169952 403.80809784 -32.46380615 403.82427979 C-39.04724633 403.69340263 -39.04724633 403.69340263 -41.74163628 401.73245811 C-44.09217914 399.07058039 -44.98910174 397.06660045 -45.5625 393.5625 C-44.72409355 388.25259247 -42.37017888 383.37695641 -38 380 C-37.34 380 -36.68 380 -36 380 C-35.78472656 379.46503906 -35.56945312 378.93007813 -35.34765625 378.37890625 C-33.50749161 375.13061563 -31.00151509 372.61587723 -28.4375 369.9375 C-22.41754193 363.54044472 -16.85583113 356.87649231 -11.40625 349.984375 C-10.31161338 348.62244339 -9.16303449 347.30400836 -8 346 C-7.34 346 -6.68 346 -6 346 C-5.72542969 345.40775635 -5.45085937 344.8155127 -5.16796875 344.20532227 C-4.04803023 342.09068919 -2.88303126 340.508853 -1.3125 338.71484375 C-0.78301758 338.10664795 -0.25353516 337.49845215 0.29199219 336.87182617 C0.85563477 336.23349854 1.41927734 335.5951709 2 334.9375 C2.5765332 334.27790283 3.15306641 333.61830566 3.74707031 332.9387207 C8.15018786 327.91744046 12.63246367 322.97239 17.171875 318.07421875 C19.04033492 316.13257397 19.04033492 316.13257397 20 314 C20.66 314 21.32 314 22 314 C22.39638672 313.12601563 22.39638672 313.12601563 22.80078125 312.234375 C24.04782497 309.91089289 25.42313151 308.20412895 27.1875 306.25 C28.12722656 305.20005859 28.12722656 305.20005859 29.0859375 304.12890625 C29.71757812 303.42636719 30.34921875 302.72382812 31 302 C32.10583891 300.73062153 33.21001824 299.45979531 34.3125 298.1875 C37.16824619 294.92103975 40.07681416 291.70621745 43 288.5 C48.55555051 282.39896492 54.00650252 276.28701734 59.125 269.8125 C61.91145946 266.29162487 64.78346304 263.12193293 68 260 C68.66 259.01 69.32 258.02 70 257 C70.66 257 71.32 257 72 257 C72.21527344 256.46503906 72.43054688 255.93007813 72.65234375 255.37890625 C74.49250402 252.13062334 76.99843823 249.61581982 79.5625 246.9375 C83.38300565 242.87960371 87.07198261 238.78799993 90.5625 234.4375 C94.64786778 229.35118004 98.99735001 224.56958328 103.42578125 219.78515625 C108.49076472 214.30513619 113.24123638 208.75910673 117.66015625 202.74609375 C119.27466962 200.64204863 121.09503452 198.84146663 123 197 C123.9590625 195.7934375 123.9590625 195.7934375 124.9375 194.5625 C127.13224651 191.83569373 129.5211319 189.47177549 132 187 C138.57212931 180.14509878 144.83205879 173.09556271 150.78125 165.69140625 C153.94493161 161.85377135 157.30231441 158.20721797 160.66796875 154.546875 C162.62405252 152.41058251 164.54187697 150.25219343 166.4375 148.0625 C168.88985546 145.23507842 171.40328723 142.47261265 173.94799805 139.72802734 C179.55247024 133.67769039 184.83961785 127.43670443 190 121 C191.58013171 119.03908245 193.16343509 117.08071615 194.75 115.125 C195.44609375 114.26132812 196.1421875 113.39765625 196.859375 112.5078125 C199 110 199 110 201.328125 107.6796875 C204.71924706 104.27864988 207.83734244 100.61446578 211 97 C106.555 96.505 106.555 96.505 0 96 C0 64.32 0 32.64 0 0 Z " fill="#5B4198" transform="translate(289,416)"/>
<path d="M0 0 C31.68 0 63.36 0 96 0 C96 186.12 96 372.24 96 564 C64.32 564 32.64 564 0 564 C0 377.88 0 191.76 0 0 Z " fill="#5B4198" transform="translate(1388,255)"/>
<path d="M0 0 C31.68 0 63.36 0 96 0 C96 132.99 96 265.98 96 403 C64.32 403 32.64 403 0 403 C0 270.01 0 137.02 0 0 Z " fill="#5B4198" transform="translate(776,416)"/>
<path d="M0 0 C31.35 0 62.7 0 95 0 C95 132.99 95 265.98 95 403 C63.65 403 32.3 403 0 403 C0 270.01 0 137.02 0 0 Z " fill="#5A4198" transform="translate(1569,416)"/>
<path d="M0 0 C0.80464839 -0.00512655 1.60929677 -0.0102531 2.43832844 -0.015535 C5.13224478 -0.02541155 7.82391453 0.00756696 10.5176239 0.04037476 C12.4493708 0.04206733 14.38112156 0.04111695 16.31286621 0.03771973 C21.55654236 0.03599702 26.79939632 0.07129196 32.04288125 0.11316347 C37.52279771 0.15065141 43.00273267 0.15419431 48.48275757 0.16131592 C58.85965142 0.17997041 69.23616635 0.22921584 79.61289328 0.28941286 C93.63512224 0.36899358 107.65745469 0.40139969 121.67985249 0.43642616 C143.77278867 0.49285757 165.86492522 0.61238651 187.95780945 0.7215271 C187.95780945 32.4015271 187.95780945 64.0815271 187.95780945 96.7215271 C96.54780945 96.7215271 5.13780945 96.7215271 -89.04219055 96.7215271 C-86.59667036 91.83048672 -85.02382659 89.31813253 -81.41719055 85.5340271 C-78.00380035 81.87858752 -74.73383337 78.18558895 -71.60469055 74.2840271 C-68.38275738 70.28928456 -65.03561444 66.47600601 -61.54219055 62.7215271 C-57.24290263 58.10051869 -53.20980272 53.32596715 -49.25312805 48.40512085 C-46.22324609 44.72750794 -43.02076977 41.22085351 -39.79219055 37.71762085 C-37.99437077 35.83702035 -37.99437077 35.83702035 -37.04219055 33.7215271 C-36.38219055 33.7215271 -35.72219055 33.7215271 -35.04219055 33.7215271 C-34.79597961 33.15691772 -34.54976868 32.59230835 -34.2960968 32.0105896 C-32.8281215 29.33073438 -31.04862365 27.34193907 -28.97969055 25.0965271 C-26.18438597 22.13363543 -26.18438597 22.13363543 -24.04219055 18.7215271 C-23.38219055 18.7215271 -22.72219055 18.7215271 -22.04219055 18.7215271 C-21.77406555 18.1440271 -21.50594055 17.5665271 -21.22969055 16.9715271 C-20.01289866 14.66602667 -18.73885176 12.70096518 -17.04219055 10.7215271 C-16.38219055 10.7215271 -15.72219055 10.7215271 -15.04219055 10.7215271 C-14.81531555 10.1852771 -14.58844055 9.6490271 -14.35469055 9.0965271 C-10.55700426 2.22452334 -7.98181874 -0.18648013 0 0 Z " fill="#5A4198" transform="translate(503.0421905517578,722.2784729003906)"/>
<path d="M0 0 C12.47732667 0.15516612 23.50124825 3.39335923 33.86279297 10.53442383 C33.86279297 11.19442383 33.86279297 11.85442383 33.86279297 12.53442383 C34.43513672 12.78579102 35.00748047 13.0371582 35.59716797 13.29614258 C44.63771995 18.23727185 50.00550038 27.83323063 54.86279297 36.53442383 C55.41773438 37.49155273 55.41773438 37.49155273 55.98388672 38.46801758 C61.64774834 51.78438558 62.16110555 71.17274179 56.86279297 84.53442383 C53.3169055 91.86943801 49.36367544 99.47294187 43.86279297 105.53442383 C43.20279297 105.53442383 42.54279297 105.53442383 41.86279297 105.53442383 C41.36779297 107.01942383 41.36779297 107.01942383 40.86279297 108.53442383 C32.99533878 116.09721578 23.20611766 120.49785144 12.86279297 123.53442383 C11.03748047 124.12223633 11.03748047 124.12223633 9.17529297 124.72192383 C-7.32921693 128.53065688 -23.59419989 123.50365211 -37.60595703 114.92114258 C-41.99414323 112.0643961 -46.03419102 108.79086356 -49.13720703 104.53442383 C-49.13720703 103.87442383 -49.13720703 103.21442383 -49.13720703 102.53442383 C-49.79720703 102.53442383 -50.45720703 102.53442383 -51.13720703 102.53442383 C-51.13720703 101.87442383 -51.13720703 101.21442383 -51.13720703 100.53442383 C-51.79720703 100.53442383 -52.45720703 100.53442383 -53.13720703 100.53442383 C-57.6228546 94.51083994 -60.74176425 87.61710321 -63.13720703 80.53442383 C-63.36408203 79.87571289 -63.59095703 79.21700195 -63.82470703 78.53833008 C-68.03515475 63.53861009 -65.53044373 46.27447115 -58.15283203 32.71020508 C-49.21107338 17.5061774 -36.77302074 6.88293813 -19.69189453 2.26098633 C-13.13593044 0.39644608 -7.21008669 0.06708606 0 0 Z " fill="#5B4198" transform="translate(827.13720703125,255.465576171875)"/>
<path d="M0 0 C3.48602405 3.09998783 6.45381881 6.40484628 9.328125 10.0703125 C9.83859375 10.64910156 10.3490625 11.22789062 10.875 11.82421875 C22.50018408 25.69653893 23.65165021 43.78594596 22.328125 61.0703125 C19.62398056 77.33662194 8.47392154 91.57869059 -4.44921875 101.12109375 C-18.69209075 110.65825016 -34.4206736 114.06359207 -51.25708008 110.98413086 C-62.30745157 108.74653098 -72.12508783 104.66745665 -80.671875 97.0703125 C-80.671875 96.4103125 -80.671875 95.7503125 -80.671875 95.0703125 C-81.249375 94.8434375 -81.826875 94.6165625 -82.421875 94.3828125 C-85.23615113 92.74115143 -86.69925233 90.63472197 -88.671875 88.0703125 C-89.331875 87.7403125 -89.991875 87.4103125 -90.671875 87.0703125 C-100.65421582 70.99846573 -104.99518289 54.87100972 -101.609375 36.0703125 C-97.92268549 20.70336371 -88.67980295 6.25539772 -75.671875 -2.9296875 C-74.681875 -2.9296875 -73.691875 -2.9296875 -72.671875 -2.9296875 C-72.671875 -3.5896875 -72.671875 -4.2496875 -72.671875 -4.9296875 C-70.46484128 -5.89110767 -68.25633967 -6.84888287 -66.046875 -7.8046875 C-65.42941406 -8.07410156 -64.81195312 -8.34351563 -64.17578125 -8.62109375 C-42.76706964 -17.86064297 -18.42831616 -14.51091961 0 0 Z " fill="#5B4198" transform="translate(1656.671875,268.9296875)"/>
<path d="M0 0 C0.66 0 1.32 0 2 0 C3.13537434 3.40612302 3.11762085 5.97656092 3.10743046 9.56923962 C3.10689593 10.2429855 3.1063614 10.91673139 3.10581067 11.61089382 C3.10276515 13.88477238 3.09248949 16.15856189 3.08229065 18.43241882 C3.07859841 20.07255282 3.07534874 21.71268787 3.07250541 23.35282356 C3.06338131 27.87249071 3.04794864 32.39211807 3.03152263 36.91176379 C3.01491897 41.78086805 3.00411357 46.6499855 2.99261475 51.519104 C2.97188363 59.95940475 2.94745418 68.39968835 2.92053413 76.83997154 C2.88161726 89.04330222 2.84824489 101.24664306 2.81623887 113.44999359 C2.76416384 133.24768032 2.70758595 153.04535154 2.64819336 172.84301758 C2.5904983 192.07803747 2.53491335 211.31306155 2.48217773 230.5480957 C2.47730316 232.32566931 2.47730316 232.32566931 2.4723301 234.1391535 C2.45604076 240.08401779 2.43979303 246.0288822 2.42356598 251.97374666 C2.2888284 301.31585024 2.14679031 350.6579309 2 400 C13.40468796 400.02315806 24.80937033 400.0409328 36.214077 400.05181217 C41.50958842 400.0570334 46.80508377 400.0641173 52.10058594 400.07543945 C57.20988371 400.08629527 62.31916601 400.09228258 67.42847443 400.09487724 C69.37893162 400.09672662 71.32938795 400.10033791 73.27983856 400.10573006 C76.00916889 400.11297619 78.73843506 400.11398942 81.46777344 400.11352539 C82.27625732 400.11712067 83.08474121 400.12071594 83.91772461 400.12442017 C87.52065666 400.1177805 90.47794208 399.88051448 94 399 C94 267.33 94 135.66 94 0 C94.33 0 94.66 0 95 0 C95 132.66 95 265.32 95 402 C63.65 402 32.3 402 0 402 C0 269.34 0 136.68 0 0 Z " fill="#59468A" transform="translate(777,417)"/>
<path d="M0 0 C0.33 0 0.66 0 1 0 C1.80676457 4.24395703 2.12449758 8.24619212 2.12304783 12.56356621 C2.12503888 13.87481905 2.12702993 15.18607189 2.12908131 16.53705966 C2.12622858 17.98538981 2.12328299 19.43371977 2.12025452 20.88204956 C2.12069069 22.42577861 2.12156644 23.96950758 2.12284368 25.51323617 C2.12507962 29.75247657 2.12107965 33.99169171 2.11606562 38.2309289 C2.1117484 42.80346329 2.11320845 47.37599625 2.1139679 51.9485321 C2.11449232 59.86984469 2.11135399 67.79114905 2.10573006 75.71245956 C2.09760408 87.16535457 2.09499871 98.61824559 2.09374207 110.07114317 C2.09155328 128.65257426 2.08489787 147.23400097 2.07543945 165.81542969 C2.06626087 183.86588519 2.05918222 201.91633951 2.05493164 219.96679688 C2.05466892 221.07936988 2.05440619 222.19194289 2.05413551 223.33823024 C2.05283047 228.919665 2.05156677 234.50109977 2.05032361 240.08253455 C2.03995638 286.38835941 2.02234275 332.69417948 2 379 C5.9876434 379.16578477 9.97538582 379.32906184 13.96315002 379.49191284 C15.64376707 379.56182953 15.64376707 379.56182953 17.35833597 379.63315868 C25.96122931 379.98267158 34.54175494 380.14683779 43.15234375 380.1328125 C44.52429725 380.13349082 45.89625063 380.13446515 47.26820374 380.13571167 C50.07635701 380.13715247 52.8844776 380.13514727 55.69262695 380.13037109 C59.29127678 380.12454669 62.88985408 380.1280533 66.48850155 380.13394356 C69.29108744 380.13754121 72.09365575 380.13641647 74.89624214 380.13381577 C76.86726556 380.13283004 78.83828968 380.13585198 80.80931091 380.13894653 C82.58000694 380.13421829 82.58000694 380.13421829 84.38647461 380.12939453 C85.94548744 380.12820114 85.94548744 380.12820114 87.53599548 380.12698364 C90.00438453 380.16471909 90.00438453 380.16471909 92 379 C92.33 314.32 92.66 249.64 93 183 C92.34 183 91.68 183 91 183 C91.375 180.0625 91.375 180.0625 92 177 C92.66 176.67 93.32 176.34 94 176 C94 243.98 94 311.96 94 382 C62.65 382 31.3 382 -1 382 C-1.02202747 333.62428894 -1.04049853 285.24858259 -1.05106533 236.87286795 C-1.0523161 231.16736118 -1.05361042 225.46185441 -1.05493164 219.75634766 C-1.05519395 218.62043866 -1.05545626 217.48452967 -1.05572652 216.31419919 C-1.06008304 197.89888133 -1.06797048 179.48356657 -1.0771528 161.06825055 C-1.08648985 142.18573388 -1.09205572 123.30321884 -1.09408849 104.42069995 C-1.09546361 92.76031794 -1.09981361 81.09994471 -1.10791647 69.43956541 C-1.11318456 61.45386998 -1.11480415 53.46817913 -1.11350138 45.48248209 C-1.1128581 40.8686712 -1.11387439 36.25487569 -1.11920547 31.6410675 C-1.12404371 27.42322403 -1.12433583 23.20540643 -1.12089889 18.98756181 C-1.12047362 17.4559073 -1.12176579 15.92425123 -1.12488318 14.39259984 C-1.12885499 12.32193308 -1.12675844 10.25136156 -1.12304783 8.18069649 C-1.12361741 6.45031094 -1.12361741 6.45031094 -1.1241985 4.68496811 C-1 2 -1 2 0 0 Z " fill="#564389" transform="translate(954,437)"/>
<path d="M0 0 C64.68 0 129.36 0 196 0 C196 31.68 196 63.36 196 96 C104.59 96 13.18 96 -81 96 C-80.34 94.35 -79.68 92.7 -79 91 C-77 93 -77 93 -77 94 C12.76 94.33 102.52 94.66 195 95 C195 63.98 195 32.96 195 1 C130.65 1 66.3 1 0 1 C0 0.67 0 0.34 0 0 Z " fill="#7B6F9D" transform="translate(495,723)"/>
<path d="M0 0 C0.66 0.33 1.32 0.66 2 1 C1.67 1.33 1.34 1.66 1 2 C1.66 2.33 2.32 2.66 3 3 C3 3.66 3 4.32 3 5 C-1.35294118 9 -1.35294118 9 -5 9 C-4.34 12.3 -3.68 15.6 -3 19 C-2.01 19 -1.02 19 0 19 C0 19.66 0 20.32 0 21 C35.64 21 71.28 21 108 21 C108 21.33 108 21.66 108 22 C93.74428165 22.14021822 79.48867035 22.24559507 65.23240376 22.31087303 C58.61278194 22.34220147 51.99362298 22.38470405 45.37426758 22.45263672 C38.98760103 22.51777207 32.60138 22.55369464 26.21440697 22.56926346 C23.77626721 22.58036002 21.33815217 22.60202897 18.9002018 22.63438034 C15.48802399 22.67786368 12.07769296 22.68393714 8.6652832 22.68115234 C7.14937592 22.71350983 7.14937592 22.71350983 5.60284424 22.746521 C-1.04674457 22.68770082 -1.04674457 22.68770082 -3.7475071 20.7393074 C-6.0972199 18.0786824 -6.98955515 16.06382964 -7.5625 12.5625 C-6.85579546 8.08670458 -5.56173995 5.73282107 -3 2 C-2.01 1.34 -1.02 0.68 0 0 Z " fill="#64528D" transform="translate(251,797)"/>
<path d="M0 0 C-1.50232109 3.44511328 -3.52405659 5.87002875 -6.0625 8.625 C-8.85780458 11.58789167 -8.85780458 11.58789167 -11 15 C-11.66 15 -12.32 15 -13 15 C-13.35191406 15.82757812 -13.35191406 15.82757812 -13.7109375 16.671875 C-15.32848158 19.59325764 -17.36450195 21.79574497 -19.625 24.25 C-20.44226563 25.14203125 -21.25953125 26.0340625 -22.1015625 26.953125 C-22.72804688 27.62859375 -23.35453125 28.3040625 -24 29 C-24.66 28.01 -25.32 27.02 -26 26 C-25.01 25.34 -24.02 24.68 -23 24 C-22.31246699 22.34183216 -21.64438717 20.67540664 -21 19 C-20.34 18.67 -19.68 18.34 -19 18 C-18.32060826 16.00428677 -17.65438441 14.00405227 -17 12 C-16.34 11.34 -15.68 10.68 -15 10 C-15 10.66 -15 11.32 -15 12 C-14.01 11.34 -13.02 10.68 -12 10 C-11.01 10 -10.02 10 -9 10 C-8.95875 9.278125 -8.9175 8.55625 -8.875 7.8125 C-7.66642745 3.92780252 -4.41975659 0 0 0 Z " fill="#5F4E91" transform="translate(397,774)"/>
<path d="M0 0 C0.33 0 0.66 0 1 0 C1.1953125 6.0546875 1.1953125 6.0546875 1 8 C0.34 8.66 -0.32 9.32 -1 10 C-2.27848675 13.52025148 -2.11393001 17.02395723 -2.09765625 20.734375 C-2.09443359 22.02988281 -2.09121094 23.32539063 -2.08789062 24.66015625 C-2.07953598 26.02343817 -2.07107104 27.38671942 -2.0625 28.75 C-2.05748168 30.12890465 -2.05291935 31.50781104 -2.04882812 32.88671875 C-2.03704093 36.25785659 -2.02058635 39.62890628 -2 43 C-2.99 42.67 -3.98 42.34 -5 42 C-8.30611137 28.23356905 -6.32355881 12.64711763 0 0 Z " fill="#61518C" transform="translate(768,290)"/>
<path d="M0 0 C2.1640625 0.921875 2.1640625 0.921875 4 2 C1.41710408 2.81391255 -1.16628997 3.62617929 -3.75 4.4375 C-4.47960938 4.66759766 -5.20921875 4.89769531 -5.9609375 5.13476562 C-6.66992188 5.35712891 -7.37890625 5.57949219 -8.109375 5.80859375 C-8.75874023 6.01282959 -9.40810547 6.21706543 -10.07714844 6.42749023 C-22.34882544 10.08125897 -33.9315833 7.00369482 -46 4 C-46 3.67 -46 3.34 -46 3 C-45.175 3.06058594 -44.35 3.12117188 -43.5 3.18359375 C-41.04721562 3.36153012 -38.59405099 3.53426572 -36.140625 3.703125 C-33.37734333 3.89505608 -30.6186688 4.11705741 -27.859375 4.359375 C-18.92015234 5.10166297 -10.79428178 5.48592389 -2.625 1.25 C-1.325625 0.63125 -1.325625 0.63125 0 0 Z " fill="#6C5D91" transform="translate(1640,373)"/>
<path d="M0 0 C0.33 1.32 0.66 2.64 1 4 C0.01 4.66 -0.98 5.32 -2 6 C-2.73606499 9.56769552 -2.73606499 9.56769552 -3 13 C-3.66 13 -4.32 13 -5 13 C-5.33 13.66 -5.66 14.32 -6 15 C-6.66 15 -7.32 15 -8 15 C-10.21421421 17.56018518 -12.12200625 20.18300938 -14 23 C-16.5 24.75 -16.5 24.75 -19 26 C-19.66 25.67 -20.32 25.34 -21 25 C-18.81610662 20.97703851 -16.2456346 18.2040239 -13 15 C-11.08057904 12.97982028 -9.19522773 10.92935052 -7.3125 8.875 C-6.82716797 8.35035156 -6.34183594 7.82570313 -5.84179688 7.28515625 C-3.68491704 4.93490098 -1.77375319 2.66062978 0 0 Z " fill="#5F4E8D" transform="translate(339,696)"/>
<path d="M0 0 C5.71402698 4.06574997 10.86062621 8.50952931 15.96191406 13.30395508 C18.75459387 15.96241727 18.75459387 15.96241727 22 18 C22 18.99 22 19.98 22 21 C20.35 21 18.7 21 17 21 C16.896875 20.360625 16.79375 19.72125 16.6875 19.0625 C16.460625 18.381875 16.23375 17.70125 16 17 C15.01 16.67 14.02 16.34 13 16 C12.67 15.01 12.34 14.02 12 13 C10.70644173 11.62804426 9.37701298 10.28817344 8 9 C7.01 9.495 7.01 9.495 6 10 C5.7525 9.38125 5.505 8.7625 5.25 8.125 C3.79371361 5.64931313 2.62187494 5.04874998 0 4 C0 2.68 0 1.36 0 0 Z " fill="#5D4C8C" transform="translate(1091,523)"/>
<path d="M0 0 C0.66 0 1.32 0 2 0 C2 0.66 2 1.32 2 2 C1.34 2 0.68 2 0 2 C-0.33 2.99 -0.66 3.98 -1 5 C-2.9609375 6.82421875 -2.9609375 6.82421875 -5.375 8.6875 C-6.16648437 9.31011719 -6.95796875 9.93273437 -7.7734375 10.57421875 C-10 12 -10 12 -13 12 C-12.67 9.36 -12.34 6.72 -12 4 C-11.21753906 3.79503906 -10.43507813 3.59007812 -9.62890625 3.37890625 C-8.61699219 3.10949219 -7.60507812 2.84007812 -6.5625 2.5625 C-5.55316406 2.29566406 -4.54382813 2.02882813 -3.50390625 1.75390625 C-1.08247999 1.24021923 -1.08247999 1.24021923 0 0 Z " fill="#604D92" transform="translate(869,359)"/>
<path d="M0 0 C0.33 0 0.66 0 1 0 C0.96519531 1.41539062 0.96519531 1.41539062 0.9296875 2.859375 C0.79957475 12.1159675 1.03983503 21.11950509 4 30 C3.34 30 2.68 30 2 30 C1.67 30.66 1.34 31.32 1 32 C-2.25751883 21.41306381 -4.01982173 10.60207962 0 0 Z " fill="#685991" transform="translate(1556,306)"/>
<path d="M0 0 C0.99 0 1.98 0 3 0 C1.79399804 4.52250734 0.79148552 6.35744949 -3 9 C-4.01187895 10.65948148 -5.0126546 12.32580562 -6 14 C-9 16 -9 16 -11.1875 15.625 C-11.785625 15.41875 -12.38375 15.2125 -13 15 C-12.31292969 14.25234375 -11.62585938 13.5046875 -10.91796875 12.734375 C-10.0077189 11.73966898 -9.09756787 10.74487252 -8.1875 9.75 C-7.73568359 9.25886719 -7.28386719 8.76773438 -6.81835938 8.26171875 C-4.86456771 6.12253079 -3.01630272 4.02350082 -1.36328125 1.640625 C-0.68845703 0.82851563 -0.68845703 0.82851563 0 0 Z " fill="#62538E" transform="translate(436,791)"/>
<path d="M0 0 C0.33 0.99 0.66 1.98 1 3 C-0.3984375 5.375 -0.3984375 5.375 -2.375 8 C-5.17019581 11.74116756 -5.17019581 11.74116756 -7 16 C-8.77734375 17.203125 -8.77734375 17.203125 -10.9375 18.25 C-11.64777344 18.60578125 -12.35804688 18.9615625 -13.08984375 19.328125 C-13.72019531 19.54984375 -14.35054688 19.7715625 -15 20 C-15.66 19.67 -16.32 19.34 -17 19 C-16.5560791 18.53102295 -16.1121582 18.0620459 -15.65478516 17.57885742 C-13.64258555 15.45053899 -11.6337633 13.31906179 -9.625 11.1875 C-8.92632812 10.44951172 -8.22765625 9.71152344 -7.5078125 8.95117188 C-6.8375 8.23896484 -6.1671875 7.52675781 -5.4765625 6.79296875 C-4.85861816 6.1383667 -4.24067383 5.48376465 -3.60400391 4.80932617 C-1.82490211 2.88564392 -1.82490211 2.88564392 0 0 Z " fill="#685694" transform="translate(406,620)"/>
<path d="M0 0 C0.66 0 1.32 0 2 0 C3.30475618 2.60951236 3.11301572 4.52701285 3.09765625 7.4453125 C3.09443359 8.52167969 3.09121094 9.59804688 3.08789062 10.70703125 C3.07951172 11.83496094 3.07113281 12.96289062 3.0625 14.125 C3.05798828 15.26066406 3.05347656 16.39632813 3.04882812 17.56640625 C3.03701615 20.37765638 3.02054507 23.1888023 3 26 C2.67 26 2.34 26 2 26 C1.49118023 23.3347536 0.99279859 20.66821581 0.5 18 C0.35691406 17.25621094 0.21382812 16.51242187 0.06640625 15.74609375 C-0.84593467 10.74994107 -1.22683479 6.08109937 -1 1 C-0.67 0.67 -0.34 0.34 0 0 Z " fill="#5D4D89" transform="translate(1676,304)"/>
<path d="M0 0 C0.66 0.33 1.32 0.66 2 1 C1.36191406 1.81984375 0.72382813 2.6396875 0.06640625 3.484375 C-0.76856836 4.57265651 -1.60318507 5.66121268 -2.4375 6.75 C-2.85837891 7.28882813 -3.27925781 7.82765625 -3.71289062 8.3828125 C-5.83961234 11.17307139 -7.52905212 13.47217224 -8 17 C-10.31 17.33 -12.62 17.66 -15 18 C-12.12525291 13.44147246 -8.93814014 9.54546392 -5.25 5.625 C-4.74339844 5.07972656 -4.23679687 4.53445313 -3.71484375 3.97265625 C-2.4803065 2.64494637 -1.24068282 1.32196894 0 0 Z " fill="#5C4B87" transform="translate(477,540)"/>
<path d="M0 0 C0.66 0 1.32 0 2 0 C2 1.32 2 2.64 2 4 C1.01 4 0.02 4 -1 4 C-0.67 4.99 -0.34 5.98 0 7 C-0.27769908 9.3406065 -0.60539977 11.67624308 -1 14 C-1.66 14 -2.32 14 -3 14 C-3 13.34 -3 12.68 -3 12 C-4.65 12.33 -6.3 12.66 -8 13 C-8 13.99 -8 14.98 -8 16 C-9.32 15.34 -10.64 14.68 -12 14 C-11.55269531 13.57589844 -11.10539062 13.15179687 -10.64453125 12.71484375 C-7.5014135 9.66555041 -4.65892922 6.68824945 -2.1875 3.0625 C-1.1046875 1.5465625 -1.1046875 1.5465625 0 0 Z " fill="#614E8E" transform="translate(352,681)"/>
<path d="M0 0 C1.2065625 0.0309375 1.2065625 0.0309375 2.4375 0.0625 C2.4375 3.0625 2.4375 3.0625 0.953125 4.70703125 C-2.54073653 6.58959329 -5.93100095 6.62998899 -9.8125 6.75 C-10.55757812 6.78416016 -11.30265625 6.81832031 -12.0703125 6.85351562 C-13.90052492 6.93564054 -15.73148669 7.00075653 -17.5625 7.0625 C-16.5625 5.0625 -16.5625 5.0625 -13.65625 4.02734375 C-12.4703125 3.68832031 -11.284375 3.34929687 -10.0625 3 C-6.66326567 2.02087272 -3.33332704 0.08130066 0 0 Z " fill="#635290" transform="translate(813.5625,255.9375)"/>
<path d="M0 0 C1.99954746 -0.04254356 4.00041636 -0.04080783 6 0 C6.33 0.33 6.66 0.66 7 1 C12.29434221 1.92943589 17.57482179 2.28218863 22.9375 2.5625 C23.71673828 2.60568359 24.49597656 2.64886719 25.29882812 2.69335938 C27.19907117 2.79828077 29.09951669 2.8995245 31 3 C31 3.33 31 3.66 31 4 C21.1 4 11.2 4 1 4 C0.67 2.68 0.34 1.36 0 0 Z " fill="#55438E" transform="translate(417,814)"/>
<path d="M0 0 C0.66 0.66 1.32 1.32 2 2 C-4.625 3.25 -4.625 3.25 -8 1 C-10.22131423 0.6349209 -10.22131423 0.6349209 -12.66796875 0.5859375 C-13.56064453 0.54726563 -14.45332031 0.50859375 -15.37304688 0.46875 C-16.30181641 0.4378125 -17.23058594 0.406875 -18.1875 0.375 C-19.12787109 0.33632813 -20.06824219 0.29765625 -21.03710938 0.2578125 C-23.3578771 0.16356813 -25.67863748 0.07795975 -28 0 C-28 -0.33 -28 -0.66 -28 -1 C-18.58779294 -2.39440105 -9.21054085 -2.86943773 0 0 Z " fill="#706395" transform="translate(1632,257)"/>
<path d="M0 0 C0.33 0.66 0.66 1.32 1 2 C-0.38912907 3.7553265 -1.78661773 5.50403907 -3.1875 7.25 C-3.96480469 8.22453125 -4.74210938 9.1990625 -5.54296875 10.203125 C-7.855712 12.83575483 -10.19803053 14.90972082 -13 17 C-12.67 15.35 -12.34 13.7 -12 12 C-11.01 11.67 -10.02 11.34 -9 11 C-8.67 9.35 -8.34 7.7 -8 6 C-6.35 5.67 -4.7 5.34 -3 5 C-3 4.34 -3 3.68 -3 3 C-2.34 3 -1.68 3 -1 3 C-0.67 2.01 -0.34 1.02 0 0 Z " fill="#5A478F" transform="translate(664,464)"/>
<path d="M0 0 C1.32 0.33 2.64 0.66 4 1 C0.12844936 6.92831192 -4.53421856 12.76710928 -11 16 C-11 15.01 -11 14.02 -11 13 C-10.34 13 -9.68 13 -9 13 C-9 12.01 -9 11.02 -9 10 C-7.5390625 8.53515625 -7.5390625 8.53515625 -5.625 7.0625 C-2.86654724 4.93406423 -1.37643903 3.21864278 0 0 Z " fill="#604F88" transform="translate(1664,353)"/>
<path d="M0 0 C2.3125 -0.3125 2.3125 -0.3125 5 0 C6.03789581 1.64333504 7.03567924 3.31243867 8 5 C10.57099402 6.34689915 10.57099402 6.34689915 13 7 C13 7.99 13 8.98 13 10 C13.66 10.33 14.32 10.66 15 11 C14.01 11.33 13.02 11.66 12 12 C10.17578125 10.85546875 10.17578125 10.85546875 8.3125 9.1875 C7.68988281 8.64480469 7.06726562 8.10210938 6.42578125 7.54296875 C5 6 5 6 5 4 C2.525 3.01 2.525 3.01 0 2 C0 1.34 0 0.68 0 0 Z " fill="#61508B" transform="translate(1216,757)"/>
<path d="M0 0 C0 3.95875396 -1.21313946 6.49009536 -3 10 C-5.22604009 11.55148249 -6.31185147 12 -9 12 C-9.2475 12.61875 -9.495 13.2375 -9.75 13.875 C-11.22047178 16.37480203 -12.41403076 16.83316022 -15 18 C-10.43492321 11.59099023 -5.33082532 5.7809839 0 0 Z " fill="#E9E3F4" transform="translate(681,447)"/>
<path d="M0 0 C0.66 0.99 1.32 1.98 2 3 C0.71937515 4.7074998 -0.61767557 6.37373596 -2 8 C-2.66 8 -3.32 8 -4 8 C-4.04125 8.61875 -4.0825 9.2375 -4.125 9.875 C-4.41375 10.57625 -4.7025 11.2775 -5 12 C-8.0625 13.25 -8.0625 13.25 -11 14 C-8.93687686 10.33584124 -6.64127824 7.29451872 -3.8125 4.1875 C-3.09707031 3.39730469 -2.38164062 2.60710938 -1.64453125 1.79296875 C-1.10183594 1.20128906 -0.55914062 0.60960937 0 0 Z " fill="#645389" transform="translate(458,766)"/>
<path d="M0 0 C0.5775 0.226875 1.155 0.45375 1.75 0.6875 C1.42 1.6775 1.09 2.6675 0.75 3.6875 C-0.57 3.6875 -1.89 3.6875 -3.25 3.6875 C-3.58 4.6775 -3.91 5.6675 -4.25 6.6875 C-5.24 7.1825 -5.24 7.1825 -6.25 7.6875 C-6.58 8.6775 -6.91 9.6675 -7.25 10.6875 C-8.9 10.3575 -10.55 10.0275 -12.25 9.6875 C-3.84836066 -0.53449454 -3.84836066 -0.53449454 0 0 Z " fill="#63548C" transform="translate(1583.25,266.3125)"/>
<path d="M0 0 C0.66 0.33 1.32 0.66 2 1 C-7.41002278 11.55808656 -7.41002278 11.55808656 -12 16 C-10.54803676 8.86508385 -5.5848057 4.28601368 0 0 Z " fill="#64538B" transform="translate(588,552)"/>
<path d="M0 0 C6.6 0 13.2 0 20 0 C20 0.99 20 1.98 20 3 C17.79194476 3.0544452 15.58349446 3.09299283 13.375 3.125 C12.14523437 3.14820313 10.91546875 3.17140625 9.6484375 3.1953125 C6.05683959 3.0030428 3.33338825 2.30258556 0 1 C0 0.67 0 0.34 0 0 Z " fill="#75699E" transform="translate(812,378)"/>
<path d="M0 0 C2.171875 0.91796875 2.171875 0.91796875 4 2 C1.42032203 2.86689178 -1.16276127 3.71873789 -3.75 4.5625 C-4.47960938 4.80935547 -5.20921875 5.05621094 -5.9609375 5.31054688 C-6.66992188 5.53935547 -7.37890625 5.76816406 -8.109375 6.00390625 C-8.75874023 6.21861572 -9.40810547 6.4333252 -10.07714844 6.65454102 C-12.33444538 7.06008636 -13.83473482 6.69296911 -16 6 C-13.45337543 3.45337543 -11.55687814 3.68561171 -8.09375 3.359375 C-5.71269327 3.05990836 -5.71269327 3.05990836 -2.75 1.3125 C-1.38875 0.6628125 -1.38875 0.6628125 0 0 Z " fill="#64548D" transform="translate(1640,373)"/>
<path d="M0 0 C0.66 0.33 1.32 0.66 2 1 C0.85805571 3.80063432 -0.32801232 6.47332213 -2 9 C-4.75 10 -4.75 10 -7 10 C-6.67 10.99 -6.34 11.98 -6 13 C-7.65 13.33 -9.3 13.66 -11 14 C-7.46386286 9.21224044 -3.85516296 4.53548584 0 0 Z " fill="#695990" transform="translate(281,762)"/>
<path d="M0 0 C0.66 0.99 1.32 1.98 2 3 C-1.3 6.96 -4.6 10.92 -8 15 C-9 12 -9 12 -7.6875 9.3125 C-7.130625 8.549375 -6.57375 7.78625 -6 7 C-5.34 7 -4.68 7 -4 7 C-4 6.01 -4 5.02 -4 4 C-2.68 3.67 -1.36 3.34 0 3 C0 2.01 0 1.02 0 0 Z " fill="#63548C" transform="translate(607,528)"/>
<path d="M0 0 C0 4.13781054 -1.71509607 5.20919996 -4.5 8.1875 C-5.3353125 9.08855469 -6.170625 9.98960937 -7.03125 10.91796875 C-7.6809375 11.60503906 -8.330625 12.29210937 -9 13 C-9.66 12.67 -10.32 12.34 -11 12 C-10.34 10.68 -9.68 9.36 -9 8 C-8.01 8 -7.02 8 -6 8 C-6 6.35 -6 4.7 -6 3 C-4.02 2.01 -2.04 1.02 0 0 Z " fill="#5A4C86" transform="translate(497,657)"/>
<path d="M0 0 C2.0625 -0.4375 2.0625 -0.4375 5 0 C7.58194893 2.11099258 9.77483891 4.52261662 12 7 C12.66 7.66 13.32 8.32 14 9 C13.01 9.33 12.02 9.66 11 10 C10.67 9.34 10.34 8.68 10 8 C7.98330173 6.86649466 7.98330173 6.86649466 6 6 C6 5.34 6 4.68 6 4 C4.68 3.67 3.36 3.34 2 3 C2 2.34 2 1.68 2 1 C1.34 0.67 0.68 0.34 0 0 Z " fill="#5F4E8D" transform="translate(1166,591)"/>
<path d="M0 0 C0.66 0.33 1.32 0.66 2 1 C2 4 2 4 0.03125 6.04296875 C-0.8040625 6.75066406 -1.639375 7.45835937 -2.5 8.1875 C-3.3353125 8.90292969 -4.170625 9.61835937 -5.03125 10.35546875 C-5.6809375 10.89816406 -6.330625 11.44085937 -7 12 C-7.66 11.67 -8.32 11.34 -9 11 C-6.03 7.37 -3.06 3.74 0 0 Z " fill="#6A5A92" transform="translate(488,526)"/>
<path d="M0 0 C0.99 0.33 1.98 0.66 3 1 C1.768606 4.69418201 -0.20791354 6.35109746 -3 9 C-3.99 8.67 -4.98 8.34 -6 8 C-5.66354211 4.85972637 -4.94763914 3.94901705 -2.625 1.6875 C-1.75875 1.130625 -0.8925 0.57375 0 0 Z " fill="#69589B" transform="translate(418,607)"/>
<path d="M0 0 C0.33 0 0.66 0 1 0 C1.1953125 6.0546875 1.1953125 6.0546875 1 8 C0.34 8.66 -0.32 9.32 -1 10 C-1.88778692 11.96488831 -1.88778692 11.96488831 -2.625 14.125 C-2.88539063 14.84945313 -3.14578125 15.57390625 -3.4140625 16.3203125 C-3.60742188 16.87460937 -3.80078125 17.42890625 -4 18 C-5.72251754 13.9154674 -4.07280563 10.63026304 -2.5625 6.75 C-2.31951172 6.1003125 -2.07652344 5.450625 -1.82617188 4.78125 C-1.22714006 3.18383183 -0.61485679 1.59139406 0 0 Z " fill="#6B5A93" transform="translate(768,290)"/>
<path d="M0 0 C0.33 0.66 0.66 1.32 1 2 C1.99 2.33 2.98 2.66 4 3 C3.34 5.64 2.68 8.28 2 11 C1.34 9.68 0.68 8.36 0 7 C-0.66 7.66 -1.32 8.32 -2 9 C-2.25 3.375 -2.25 3.375 0 0 Z " fill="#F1EEF1" transform="translate(242,800)"/>
<path d="M0 0 C-1.44424635 3.23861303 -3.25772247 5.61969163 -5.625 8.25 C-6.25664063 8.95640625 -6.88828125 9.6628125 -7.5390625 10.390625 C-8.02117188 10.92171875 -8.50328125 11.4528125 -9 12 C-9.66 11.67 -10.32 11.34 -11 11 C-11 10.34 -11 9.68 -11 9 C-10.34 8.67 -9.68 8.34 -9 8 C-8.67 7.01 -8.34 6.02 -8 5 C-7.01 5 -6.02 5 -5 5 C-5 4.34 -5 3.68 -5 3 C-2.46153846 0 -2.46153846 0 0 0 Z " fill="#62528D" transform="translate(527,624)"/>
<path d="M0 0 C1.32 0.33 2.64 0.66 4 1 C3.01 2.485 3.01 2.485 2 4 C1.34 4 0.68 4 0 4 C-0.4021875 5.2065625 -0.4021875 5.2065625 -0.8125 6.4375 C-1.204375 7.283125 -1.59625 8.12875 -2 9 C-2.99 9.33 -3.98 9.66 -5 10 C-5.33 9.01 -5.66 8.02 -6 7 C-5.195625 6.401875 -4.39125 5.80375 -3.5625 5.1875 C-0.77672016 3.19052724 -0.77672016 3.19052724 0 0 Z " fill="#61508C" transform="translate(631,500)"/>
<path d="M0 0 C2.0625 0.4375 2.0625 0.4375 4 1 C1.8765984 1.83739781 -0.2487728 2.66980283 -2.375 3.5 C-3.55835938 3.9640625 -4.74171875 4.428125 -5.9609375 4.90625 C-9 6 -9 6 -11 6 C-10.67 4.68 -10.34 3.36 -10 2 C-9.04287109 1.90912109 -9.04287109 1.90912109 -8.06640625 1.81640625 C-6.82697266 1.69072266 -6.82697266 1.69072266 -5.5625 1.5625 C-4.73878906 1.48128906 -3.91507813 1.40007812 -3.06640625 1.31640625 C-1.01337975 1.21069185 -1.01337975 1.21069185 0 0 Z " fill="#61518B" transform="translate(849,373)"/>
<path d="M0 0 C0.33 0 0.66 0 1 0 C1.33 5.94 1.66 11.88 2 18 C1.01 17.34 0.02 16.68 -1 16 C-1.328125 13.57421875 -1.328125 13.57421875 -1.25 10.6875 C-1.23453125 9.74261719 -1.2190625 8.79773438 -1.203125 7.82421875 C-1.00985142 5.13697257 -0.59292973 2.62514858 0 0 Z " fill="#F6EEFE" transform="translate(761,312)"/>
<path d="M0 0 C6.875 3.625 6.875 3.625 8 7 C8.66 7.33 9.32 7.66 10 8 C9.01 8.33 8.02 8.66 7 9 C6.34 8.67 5.68 8.34 5 8 C5 7.01 5 6.02 5 5 C3.68 5 2.36 5 1 5 C0.67 3.35 0.34 1.7 0 0 Z " fill="#62538E" transform="translate(1028,469)"/>
<path d="M0 0 C0.66 0.99 1.32 1.98 2 3 C-0.31 5.64 -2.62 8.28 -5 11 C-5.66 10.01 -6.32 9.02 -7 8 C-6.01 7.34 -5.02 6.68 -4 6 C-3.31246699 4.34183216 -2.64438717 2.67540664 -2 1 C-1.34 0.67 -0.68 0.34 0 0 Z " fill="#614F8B" transform="translate(378,792)"/>
<path d="M0 0 C0.99 0.33 1.98 0.66 3 1 C2.75 3.375 2.75 3.375 2 6 C-0.0625 7.3125 -0.0625 7.3125 -2 8 C-2.625 6.125 -2.625 6.125 -3 4 C-2.34 3.34 -1.68 2.68 -1 2 C-0.67 1.34 -0.34 0.68 0 0 Z " fill="#F6F3F8" transform="translate(291,744)"/>
<path d="M0 0 C0.6875 1.8125 0.6875 1.8125 1 4 C-0.3125 5.75 -0.3125 5.75 -2 7 C-2.66 7 -3.32 7 -4 7 C-4.309375 7.61875 -4.61875 8.2375 -4.9375 8.875 C-5.625 10.25 -6.3125 11.625 -7 13 C-7.99 12.67 -8.98 12.34 -10 12 C-9.36191406 11.30132813 -8.72382812 10.60265625 -8.06640625 9.8828125 C-7.24011719 8.97273437 -6.41382813 8.06265625 -5.5625 7.125 C-4.73878906 6.22007812 -3.91507813 5.31515625 -3.06640625 4.3828125 C-0.99092058 2.18862073 -0.99092058 2.18862073 0 0 Z " fill="#EDE6F5" transform="translate(527,624)"/>
<path d="M0 0 C1.32176485 0.90325616 2.63215066 1.82317903 3.9375 2.75 C4.66839844 3.26046875 5.39929687 3.7709375 6.15234375 4.296875 C8.20805399 6.19177915 8.62669176 7.27425729 9 10 C8.01 10 7.02 10 6 10 C6 9.34 6 8.68 6 8 C5.34 8 4.68 8 4 8 C4 7.01 4 6.02 4 5 C2.68 4.34 1.36 3.68 0 3 C0 2.01 0 1.02 0 0 Z " fill="#5F4E89" transform="translate(1060,496)"/>
<path d="M0 0 C0.33 0.99 0.66 1.98 1 3 C-0.07421875 4.7890625 -0.07421875 4.7890625 -1.6875 6.625 C-2.20699219 7.23601563 -2.72648437 7.84703125 -3.26171875 8.4765625 C-5.181038 10.15866252 -6.50835704 10.59829721 -9 11 C-8.06558465 9.72689688 -7.12732889 8.456612 -6.1875 7.1875 C-5.66542969 6.47980469 -5.14335937 5.77210938 -4.60546875 5.04296875 C-3.16871123 3.21468607 -1.68184237 1.60103312 0 0 Z " fill="#EFE7F6" transform="translate(383,791)"/>
<path d="M0 0 C0.33 0.66 0.66 1.32 1 2 C0.01 3.485 0.01 3.485 -1 5 C-1.66 5 -2.32 5 -3 5 C-2.938125 5.94875 -2.87625 6.8975 -2.8125 7.875 C-2.874375 8.90625 -2.93625 9.9375 -3 11 C-3.99 11.66 -4.98 12.32 -6 13 C-6 12.01 -6 11.02 -6 10 C-6.66 9.67 -7.32 9.34 -8 9 C-6.38405168 6.95880212 -4.7143618 4.95927063 -3 3 C-2.34 3 -1.68 3 -1 3 C-0.67 2.01 -0.34 1.02 0 0 Z " fill="#736398" transform="translate(489,730)"/>
<path d="M0 0 C0.33 0.66 0.66 1.32 1 2 C2.32 2 3.64 2 5 2 C5.33 2.66 5.66 3.32 6 4 C6.99 4.33 7.98 4.66 9 5 C9 6.65 9 8.3 9 10 C7.8944811 9.06409496 6.79064547 8.12620142 5.6875 7.1875 C5.07261719 6.66542969 4.45773437 6.14335938 3.82421875 5.60546875 C2.14575321 4.12827531 0.56117966 2.59960869 -1 1 C-0.67 0.67 -0.34 0.34 0 0 Z " fill="#6E6096" transform="translate(1118,671)"/>
<path d="M0 0 C0.66 0.33 1.32 0.66 2 1 C1.34 3.31 0.68 5.62 0 8 C-0.99 7.67 -1.98 7.34 -3 7 C-5.16715557 7.87483915 -5.16715557 7.87483915 -7 9 C-6.02180976 7.68677212 -5.0424189 6.37443848 -4.0625 5.0625 C-3.51722656 4.33160156 -2.97195313 3.60070312 -2.41015625 2.84765625 C-1 1 -1 1 0 0 Z " fill="#F3EDF8" transform="translate(590,552)"/>
<path d="M0 0 C4.39683488 1.19913678 7.09840934 2.4288115 10 6 C10 6.66 10 7.32 10 8 C9.34 8 8.68 8 8 8 C8 7.34 8 6.68 8 6 C7.01 6 6.02 6 5 6 C5 5.34 5 4.68 5 4 C3.02 3.34 1.04 2.68 -1 2 C-0.67 1.34 -0.34 0.68 0 0 Z " fill="#584687" transform="translate(1004,450)"/>
<path d="M0 0 C0.33 0.66 0.66 1.32 1 2 C0.67 2.99 0.34 3.98 0 5 C-0.66 5 -1.32 5 -2 5 C-2 6.32 -2 7.64 -2 9 C-4.31 9.66 -6.62 10.32 -9 11 C-8.60167969 10.54109375 -8.20335937 10.0821875 -7.79296875 9.609375 C-5.08857938 6.47728415 -2.42008229 3.36122541 0 0 Z " fill="#605185" transform="translate(263,783)"/>
<path d="M0 0 C0.33 0 0.66 0 1 0 C1 1.65 1 3.3 1 5 C0.01 5 -0.98 5 -2 5 C-2.33 6.98 -2.66 8.96 -3 11 C-3.33 10.34 -3.66 9.68 -4 9 C-4.99 8.67 -5.98 8.34 -7 8 C-5.85760183 6.66372225 -4.71098945 5.33104612 -3.5625 4 C-2.92441406 3.2575 -2.28632813 2.515 -1.62890625 1.75 C-1.09136719 1.1725 -0.55382812 0.595 0 0 Z " fill="#6A5895" transform="translate(290,752)"/>
<path d="M0 0 C0.66 0 1.32 0 2 0 C1.54554036 1.41791408 1.08625056 2.83428046 0.625 4.25 C0.36976562 5.03890625 0.11453125 5.8278125 -0.1484375 6.640625 C-0.95173667 8.86627958 -1.89711662 10.90931672 -3 13 C-3.66 13 -4.32 13 -5 13 C-4.54803755 11.39402675 -4.08817673 9.79027492 -3.625 8.1875 C-3.36976562 7.29417969 -3.11453125 6.40085937 -2.8515625 5.48046875 C-2 3 -2 3 0 0 Z " fill="#5C4B84" transform="translate(1674,337)"/>
<path d="M0 0 C0.66 0.33 1.32 0.66 2 1 C1.01 1.33 0.02 1.66 -1 2 C-1 2.66 -1 3.32 -1 4 C-1.66 4 -2.32 4 -3 4 C-3 4.66 -3 5.32 -3 6 C-4.96466413 7.06775224 -6.96855359 8.06553465 -9 9 C-9.66 8.67 -10.32 8.34 -11 8 C-9.5433323 6.85204994 -8.08461063 5.70670581 -6.625 4.5625 C-5.40683594 3.60537109 -5.40683594 3.60537109 -4.1640625 2.62890625 C-2 1 -2 1 0 0 Z " fill="#706099" transform="translate(794,263)"/>
<path d="M0 0 C1.32 0 2.64 0 4 0 C2.50902342 3.7952131 0.24299151 5.61042731 -3 8 C-2.45276317 4.62537285 -1.9451 2.91765 0 0 Z " fill="#574983" transform="translate(364,807)"/>
<path d="M0 0 C0.66 0.99 1.32 1.98 2 3 C0.6875 5.5 0.6875 5.5 -1 8 C-4 8 -4 8 -6 7 C-4.02 4.69 -2.04 2.38 0 0 Z " fill="#6A5A94" transform="translate(429,799)"/>
<path d="M0 0 C0.66 0.33 1.32 0.66 2 1 C1.67 1.66 1.34 2.32 1 3 C1.66 3.33 2.32 3.66 3 4 C2.34 5.98 1.68 7.96 1 10 C0.67 9.34 0.34 8.68 0 8 C-0.66 8 -1.32 8 -2 8 C-2.6875 6.25 -2.6875 6.25 -3 4 C-1.5625 1.75 -1.5625 1.75 0 0 Z " fill="#645294" transform="translate(479,741)"/>
<path d="M0 0 C2.475 0.99 2.475 0.99 5 2 C5 2.99 5 3.98 5 5 C5.639375 5.12375 6.27875 5.2475 6.9375 5.375 C7.618125 5.58125 8.29875 5.7875 9 6 C9.33 6.66 9.66 7.32 10 8 C9.01 8.33 8.02 8.66 7 9 C5.83037314 7.69013727 4.66437056 6.3770374 3.5 5.0625 C2.8503125 4.33160156 2.200625 3.60070312 1.53125 2.84765625 C0 1 0 1 0 0 Z " fill="#5F508A" transform="translate(1186,730)"/>
<path d="M0 0 C0.33 1.32 0.66 2.64 1 4 C0.01 4.66 -0.98 5.32 -2 6 C-3.20450304 8.55183404 -3.20450304 8.55183404 -4 11 C-4.99 10.67 -5.98 10.34 -7 10 C-5.33248852 6.05860922 -2.77289351 3.2107188 0 0 Z " fill="#6A5D90" transform="translate(339,696)"/>
<path d="M0 0 C-1.625 2 -1.625 2 -4 4 C-7.25 4.25 -7.25 4.25 -10 4 C-9.67 3.01 -9.34 2.02 -9 1 C-3.79245283 -1.26415094 -3.79245283 -1.26415094 0 0 Z " fill="#62518C" transform="translate(1604,258)"/>
<path d="M0 0 C0.66 0.66 1.32 1.32 2 2 C-1.61328125 6.6875 -1.61328125 6.6875 -3 8 C-3.99 8 -4.98 8 -6 8 C-6 7.34 -6 6.68 -6 6 C-5.34 6 -4.68 6 -4 6 C-3.67 4.68 -3.34 3.36 -3 2 C-2.01 2 -1.02 2 0 2 C0 1.34 0 0.68 0 0 Z " fill="#5D4B8B" transform="translate(480,675)"/>
<path d="M0 0 C0 3.40037669 -0.48956196 3.9768533 -2.5 6.5625 C-4.54082136 8.99754004 -4.54082136 8.99754004 -5 12 C-6.32 11.34 -7.64 10.68 -9 10 C-8.34 10 -7.68 10 -7 10 C-6.773125 9.278125 -6.54625 8.55625 -6.3125 7.8125 C-4.75168987 4.46790687 -2.6968713 2.48396041 0 0 Z " fill="#E8E1F2" transform="translate(493,664)"/>
<path d="M0 0 C1.25541557 3.76624671 0.37061958 5.37188934 -1 9 C-1.99 9 -2.98 9 -4 9 C-4.33 8.01 -4.66 7.02 -5 6 C-3.59554165 3.7363436 -1.8032087 1.9791315 0 0 Z " fill="#5F4E87" transform="translate(376,654)"/>
<path d="M0 0 C2.76276177 0.52268466 5.3260876 1.10869587 8 2 C6.35 3.98 4.7 5.96 3 8 C0.37613513 4.93882432 0 4.26826873 0 0 Z " fill="#5F4E91" transform="translate(498,648)"/>
<path d="M0 0 C0.33 0.66 0.66 1.32 1 2 C-1.64 5.3 -4.28 8.6 -7 12 C-7.33 11.01 -7.66 10.02 -8 9 C-7.67 8.34 -7.34 7.68 -7 7 C-6.34 7 -5.68 7 -5 7 C-5 6.34 -5 5.68 -5 5 C-4.34 5 -3.68 5 -3 5 C-3 4.34 -3 3.68 -3 3 C-2.34 3 -1.68 3 -1 3 C-0.67 2.01 -0.34 1.02 0 0 Z " fill="#67578F" transform="translate(664,464)"/>
<path d="M0 0 C3.78383679 0.92493788 5.56693694 1.39371171 7.875 4.625 C8.431875 5.800625 8.431875 5.800625 9 7 C8.01 7.33 7.02 7.66 6 8 C5.38125 7.195625 4.7625 6.39125 4.125 5.5625 C2.25835959 2.96125481 2.25835959 2.96125481 0 2 C0 1.34 0 0.68 0 0 Z " fill="#655391" transform="translate(1566,354)"/>
<path d="M0 0 C0.33 0.66 0.66 1.32 1 2 C0.07161713 3.31896465 -0.86805732 4.62998689 -1.8125 5.9375 C-2.59560547 7.03384766 -2.59560547 7.03384766 -3.39453125 8.15234375 C-5 10 -5 10 -8 11 C-6.63629701 8.00779732 -5.05091917 5.70973471 -2.875 3.25 C-2.33617187 2.63640625 -1.79734375 2.0228125 -1.2421875 1.390625 C-0.62730469 0.70226562 -0.62730469 0.70226562 0 0 Z " fill="#DED5EF" transform="translate(514,639)"/>
<path d="M0 0 C0.33 0.66 0.66 1.32 1 2 C0.0625 4.625 0.0625 4.625 -1 7 C-1.66 7 -2.32 7 -3 7 C-3.33 7.99 -3.66 8.98 -4 10 C-4.99 9.67 -5.98 9.34 -7 9 C-6.02180976 7.68677212 -5.0424189 6.37443848 -4.0625 5.0625 C-3.51722656 4.33160156 -2.97195313 3.60070312 -2.41015625 2.84765625 C-1 1 -1 1 0 0 Z " fill="#68598F" transform="translate(441,580)"/>
<path d="M0 0 C0.33 0.66 0.66 1.32 1 2 C1.639375 2.0825 2.27875 2.165 2.9375 2.25 C3.618125 2.4975 4.29875 2.745 5 3 C6.25 6.0625 6.25 6.0625 7 9 C4.5 7.625 4.5 7.625 2 6 C2 5.34 2 4.68 2 4 C1.34 4 0.68 4 0 4 C0 2.68 0 1.36 0 0 Z " fill="#584885" transform="translate(1067,625)"/>
<path d="M0 0 C-1.64169528 2.02054804 -3.30911778 4.02043058 -5 6 C-5.33 6 -5.66 6 -6 6 C-6 4.02 -6 2.04 -6 0 C-3.50907189 -1.24546405 -2.58919267 -0.7767578 0 0 Z " fill="#6D5E94" transform="translate(546,604)"/>
<path d="M0 0 C0.75 1.75 0.75 1.75 1 4 C-0.9375 6.25 -0.9375 6.25 -3 8 C-3.66 7.67 -4.32 7.34 -5 7 C-3.70700306 4.11562221 -2.34058637 2.12780579 0 0 Z " fill="#645292" transform="translate(431,592)"/>
<path d="M0 0 C0.33 1.32 0.66 2.64 1 4 C-0.21484375 5.703125 -0.21484375 5.703125 -1.9375 7.25 C-2.50339844 7.77078125 -3.06929687 8.2915625 -3.65234375 8.828125 C-4.09707031 9.21484375 -4.54179688 9.6015625 -5 10 C-5.66 9.67 -6.32 9.34 -7 9 C-4.69 6.03 -2.38 3.06 0 0 Z " fill="#E5DDF1" transform="translate(618,519)"/>
<path d="M0 0 C3 1 3 1 4.16796875 3.06640625 C4.50441406 3.89011719 4.84085938 4.71382813 5.1875 5.5625 C5.53167969 6.38878906 5.87585938 7.21507812 6.23046875 8.06640625 C6.48441406 8.70449219 6.73835937 9.34257812 7 10 C6.01 10.495 6.01 10.495 5 11 C4.16151196 9.54462432 3.32936066 8.08559627 2.5 6.625 C1.80390625 5.40683594 1.80390625 5.40683594 1.09375 4.1640625 C0 2 0 2 0 0 Z " fill="#6C5D95" transform="translate(766,340)"/>
<path d="M0 0 C4.21878192 -0.19622241 7.17010894 0.19769832 11 2 C10.34 2.66 9.68 3.32 9 4 C5.875 3.625 5.875 3.625 3 3 C3 2.34 3 1.68 3 1 C2.01 0.67 1.02 0.34 0 0 Z " fill="#594986" transform="translate(840,259)"/>
<path d="M0 0 C0.33 0.66 0.66 1.32 1 2 C1.99 2.33 2.98 2.66 4 3 C4.33 4.65 4.66 6.3 5 8 C3.02 6.68 1.04 5.36 -1 4 C-0.67 2.68 -0.34 1.36 0 0 Z " fill="#5E4F8C" transform="translate(1131,680)"/>
<path d="M0 0 C0.99 0.33 1.98 0.66 3 1 C2.57847656 1.48210938 2.15695312 1.96421875 1.72265625 2.4609375 C1.17480469 3.09257813 0.62695312 3.72421875 0.0625 4.375 C-0.48277344 5.00148438 -1.02804687 5.62796875 -1.58984375 6.2734375 C-3.06958624 7.95632334 -3.06958624 7.95632334 -4 10 C-4.66 10 -5.32 10 -6 10 C-5.61121002 7.18127263 -5.29189635 6.22804402 -3 4.4375 C-2.34 3.963125 -1.68 3.48875 -1 3 C-0.67 2.01 -0.34 1.02 0 0 Z " fill="#5A4A84" transform="translate(555,588)"/>
<path d="M0 0 C0 3.58912412 -0.66436554 4.10857029 -3 6.6875 C-3.556875 7.31011719 -4.11375 7.93273437 -4.6875 8.57421875 C-5.120625 9.04472656 -5.55375 9.51523437 -6 10 C-6.66 9.67 -7.32 9.34 -8 9 C-6.85459775 7.68712379 -5.70866567 6.37470979 -4.5625 5.0625 C-3.92441406 4.33160156 -3.28632813 3.60070312 -2.62890625 2.84765625 C-1.77458541 1.87860647 -0.91348825 0.91348825 0 0 Z " fill="#DFD8ED" transform="translate(369,807)"/>
<path d="M0 0 C-1.36983503 3.16115776 -1.9890638 3.9927092 -5 6 C-5.66 5.34 -6.32 4.68 -7 4 C-3.17391304 0 -3.17391304 0 0 0 Z " fill="#EBE4F4" transform="translate(348,686)"/>
<path d="M0 0 C1.65 0 3.3 0 5 0 C5 0.66 5 1.32 5 2 C3.04072937 3.7143618 1.04119788 5.38405168 -1 7 C-0.67 4.69 -0.34 2.38 0 0 Z " fill="#705F9A" transform="translate(529,617)"/>
<path d="M0 0 C0.66 0.99 1.32 1.98 2 3 C0.71034824 4.37562854 -0.62689293 5.70766393 -2 7 C-2.66 7 -3.32 7 -4 7 C-3.43628586 3.73045798 -2.50037734 2.17424117 0 0 Z " fill="#5D4C8A" transform="translate(498,516)"/>
<path d="M0 0 C-1.24976756 3.65316671 -1.67098753 4.78065836 -5 7 C-5.1875 4.625 -5.1875 4.625 -5 2 C-2 0 -2 0 0 0 Z " fill="#625098" transform="translate(640,493)"/>
<path d="M0 0 C2.475 0.99 2.475 0.99 5 2 C4.67 3.65 4.34 5.3 4 7 C2.35 5.35 0.7 3.7 -1 2 C-0.67 1.34 -0.34 0.68 0 0 Z " fill="#6D5A9A" transform="translate(783,361)"/>
<path d="M0 0 C1.32 0 2.64 0 4 0 C4 0.66 4 1.32 4 2 C4.66 2.33 5.32 2.66 6 3 C5.34 3 4.68 3 4 3 C3.67 4.32 3.34 5.64 3 7 C0 2.25 0 2.25 0 0 Z " fill="#635392" transform="translate(1561,345)"/>
<path d="M0 0 C2.3125 0.1875 2.3125 0.1875 4 1 C3.67 1.99 3.34 2.98 3 4 C0.36 4.33 -2.28 4.66 -5 5 C-2.75 2.4375 -2.75 2.4375 0 0 Z " fill="#6F5E97" transform="translate(1581,266)"/>
<path d="M0 0 C1.32 0 2.64 0 4 0 C4 0.66 4 1.32 4 2 C4.66 2 5.32 2 6 2 C6 2.99 6 3.98 6 5 C4.68 5 3.36 5 2 5 C2 4.01 2 3.02 2 2 C1.34 2 0.68 2 0 2 C0 1.34 0 0.68 0 0 Z " fill="#65568F" transform="translate(857,266)"/>
<path d="M0 0 C0 0.66 0 1.32 0 2 C-0.66 2 -1.32 2 -2 2 C-2.12375 2.804375 -2.2475 3.60875 -2.375 4.4375 C-2.58125 5.283125 -2.7875 6.12875 -3 7 C-3.99 7.495 -3.99 7.495 -5 8 C-5.36625971 3.48279689 -5.36625971 3.48279689 -3.625 1.1875 C-2 0 -2 0 0 0 Z " fill="#5B4A87" transform="translate(296,748)"/>
<path d="M0 0 C1.32 0.33 2.64 0.66 4 1 C2.37660195 2.70884005 0.70680947 4.37446717 -1 6 C-1.66 6 -2.32 6 -3 6 C-2.67 4.68 -2.34 3.36 -2 2 C-1.34 2 -0.68 2 0 2 C0 1.34 0 0.68 0 0 Z " fill="#64548E" transform="translate(471,685)"/>
<path d="M0 0 C0.66 0.66 1.32 1.32 2 2 C-0.3125 4.5 -0.3125 4.5 -3 7 C-3.99 7 -4.98 7 -6 7 C-4.02 4.69 -2.04 2.38 0 0 Z " fill="#E6DDF1" transform="translate(568,577)"/>
<path d="M0 0 C0.99 0.33 1.98 0.66 3 1 C3 2.32 3 3.64 3 5 C1.68 5.33 0.36 5.66 -1 6 C-0.67 4.02 -0.34 2.04 0 0 Z " fill="#5C4E84" transform="translate(954,418)"/>
<path d="M0 0 C2.475 0.495 2.475 0.495 5 1 C5.625 2.875 5.625 2.875 6 5 C5.34 5.66 4.68 6.32 4 7 C4 6.34 4 5.68 4 5 C3.34 5 2.68 5 2 5 C1.34 3.35 0.68 1.7 0 0 Z " fill="#66578C" transform="translate(772,351)"/>
<path d="M0 0 C0.66 0 1.32 0 2 0 C4 3 4 3 4 6 C2.68 6.33 1.36 6.66 0 7 C-0.33 6.34 -0.66 5.68 -1 5 C-0.34 4.67 0.32 4.34 1 4 C0.67 2.68 0.34 1.36 0 0 Z " fill="#F4F1ED" transform="translate(1662,269)"/>
<path d="M0 0 C2.475 0.495 2.475 0.495 5 1 C5.33 2.98 5.66 4.96 6 7 C5.34 6.67 4.68 6.34 4 6 C4 5.34 4 4.68 4 4 C2.68 3.34 1.36 2.68 0 2 C0 1.34 0 0.68 0 0 Z " fill="#EAE3F3" transform="translate(1655,267)"/>
<path d="M0 0 C0.33 0 0.66 0 1 0 C1 1.65 1 3.3 1 5 C-0.98 5.66 -2.96 6.32 -5 7 C-4.19152271 5.83054208 -3.37810888 4.66449539 -2.5625 3.5 C-2.11003906 2.8503125 -1.65757812 2.200625 -1.19140625 1.53125 C-0.79824219 1.0259375 -0.40507812 0.520625 0 0 Z " fill="#62518B" transform="translate(269,776)"/>
<path d="M0 0 C0.1875 2.375 0.1875 2.375 0 5 C-0.99 5.66 -1.98 6.32 -3 7 C-3 6.34 -3 5.68 -3 5 C-3.66 4.67 -4.32 4.34 -5 4 C-1.125 0 -1.125 0 0 0 Z " fill="#705F9B" transform="translate(299,743)"/>
<path d="M0 0 C0.66 0 1.32 0 2 0 C1.67 1.65 1.34 3.3 1 5 C-0.65 5.33 -2.3 5.66 -4 6 C-2.7260411 3.96166576 -1.38938077 1.96147874 0 0 Z " fill="#6A5990" transform="translate(359,673)"/>
<path d="M0 0 C1.98 0 3.96 0 6 0 C6.33 1.32 6.66 2.64 7 4 C6.01 4.33 5.02 4.66 4 5 C2.68 3.35 1.36 1.7 0 0 Z " fill="#594788" transform="translate(1055,617)"/>
<path d="M0 0 C2.3125 -0.25 2.3125 -0.25 5 0 C6.8125 2 6.8125 2 8 4 C5.03 3.505 5.03 3.505 2 3 C2 2.34 2 1.68 2 1 C1.34 0.67 0.68 0.34 0 0 Z " fill="#6B5A98" transform="translate(1166,591)"/>
<path d="M0 0 C2.97 1.98 2.97 1.98 6 4 C5.01 5.485 5.01 5.485 4 7 C3.34 6.67 2.68 6.34 2 6 C2 5.34 2 4.68 2 4 C1.01 3.67 0.02 3.34 -1 3 C-0.67 2.01 -0.34 1.02 0 0 Z " fill="#645392" transform="translate(1115,544)"/>
<path d="M0 0 C0.99 0 1.98 0 3 0 C1.55746343 3.36591866 -0.33264727 5.51047079 -3 8 C-2.37240135 5.07120629 -1.41377341 2.63904371 0 0 Z " fill="#695C91" transform="translate(601,535)"/>
<path d="M0 0 C0.99 0.33 1.98 0.66 3 1 C0.525 4.465 0.525 4.465 -2 8 C-2.33 6.68 -2.66 5.36 -3 4 C-1.5625 1.75 -1.5625 1.75 0 0 Z " fill="#675490" transform="translate(648,481)"/>
<path d="M0 0 C1.485 0.99 1.485 0.99 3 2 C2.67 2.99 2.34 3.98 2 5 C2.66 5 3.32 5 4 5 C4 5.66 4 6.32 4 7 C2.0625 6.25 2.0625 6.25 0 5 C-0.8125 2.9375 -0.8125 2.9375 -1 1 C-0.67 0.67 -0.34 0.34 0 0 Z " fill="#5F4E8D" transform="translate(779,356)"/>
<path d="M0 0 C2.97 0.33 5.94 0.66 9 1 C8.67 1.66 8.34 2.32 8 3 C5.125 3.1875 5.125 3.1875 2 3 C1.34 2.01 0.68 1.02 0 0 Z " fill="#56477E" transform="translate(1288,818)"/>
<path d="M0 0 C0.66 1.32 1.32 2.64 2 4 C2.66 4 3.32 4 4 4 C3.67 4.99 3.34 5.98 3 7 C1.02 5.35 -0.96 3.7 -3 2 C-2.01 1.34 -1.02 0.68 0 0 Z " fill="#6B5C94" transform="translate(1180,723)"/>
<path d="M0 0 C3.26954202 0.56371414 4.82575883 1.49962266 7 4 C6.67 4.66 6.34 5.32 6 6 C3.97945196 4.35830472 1.97956942 2.69088222 0 1 C0 0.67 0 0.34 0 0 Z " fill="#67588E" transform="translate(1098,655)"/>
<path d="M0 0 C2 1.375 2 1.375 4 3 C4 3.66 4 4.32 4 5 C2.68 5.33 1.36 5.66 0 6 C-1 3 -1 3 0 0 Z " fill="#5D4A8A" transform="translate(1121,549)"/>
<path d="M0 0 C0.66 0.33 1.32 0.66 2 1 C2 2.98 2 4.96 2 7 C1.01 7.495 1.01 7.495 0 8 C-0.38063221 5.6739143 -0.71269945 3.33944736 -1 1 C-0.67 0.67 -0.34 0.34 0 0 Z " fill="#634D8C" transform="translate(882,333)"/>
<path d="M0 0 C0.66 0.33 1.32 0.66 2 1 C2 1.66 2 2.32 2 3 C1.01 3.495 1.01 3.495 0 4 C-0.65213292 6.02463255 -0.65213292 6.02463255 -1 8 C-1.99 8 -2.98 8 -4 8 C-2.87548273 5.0280615 -1.77706209 2.66559313 0 0 Z " fill="#6A5B8F" transform="translate(773,282)"/>
<path d="M0 0 C0.66 0.33 1.32 0.66 2 1 C1.1875 3.4375 1.1875 3.4375 0 6 C-0.99 6.33 -1.98 6.66 -3 7 C-1.125 1.125 -1.125 1.125 0 0 Z " fill="#5F4D8B" transform="translate(1565,283)"/>
<path d="M0 0 C0.99 0.66 1.98 1.32 3 2 C-1.455 3.485 -1.455 3.485 -6 5 C-6 4.01 -6 3.02 -6 2 C-4.02 2 -2.04 2 0 2 C0 1.34 0 0.68 0 0 Z " fill="#EBE5F5" transform="translate(800,258)"/>
</svg>
